<svg viewBox="0 0 330 200" xmlns="http://www.w3.org/2000/svg"><g><g><g><g><g><line x1="48.875" y1="177" x2="43.875" y2="177" style="visibility: inherit;" fill="rgb(0, 0, 0)" stroke="rgb(204, 204, 204)" stroke-width="1px"></line><line x1="48.875" y1="165.20000000000067" x2="43.875" y2="165.20000000000067" style="visibility: inherit;" fill="rgb(0, 0, 0)" stroke="rgb(204, 204, 204)" stroke-width="1px"></line><line x1="48.875" y1="153.4000000000005" x2="43.875" y2="153.4000000000005" style="visibility: inherit;" fill="rgb(0, 0, 0)" stroke="rgb(204, 204, 204)" stroke-width="1px"></line><line x1="48.875" y1="141.60000000000034" x2="43.875" y2="141.60000000000034" style="visibility: inherit;" fill="rgb(0, 0, 0)" stroke="rgb(204, 204, 204)" stroke-width="1px"></line><line x1="48.875" y1="129.80000000000018" x2="43.875" y2="129.80000000000018" style="visibility: inherit;" fill="rgb(0, 0, 0)" stroke="rgb(204, 204, 204)" stroke-width="1px"></line><line x1="48.875" y1="118" x2="43.875" y2="118" style="visibility: inherit;" fill="rgb(0, 0, 0)" stroke="rgb(204, 204, 204)" stroke-width="1px"></line><line x1="48.875" y1="106.20000000000067" x2="43.875" y2="106.20000000000067" style="visibility: inherit;" fill="rgb(0, 0, 0)" stroke="rgb(204, 204, 204)" stroke-width="1px"></line><line x1="48.875" y1="94.4000000000005" x2="43.875" y2="94.4000000000005" style="visibility: inherit;" fill="rgb(0, 0, 0)" stroke="rgb(204, 204, 204)" stroke-width="1px"></line><line x1="48.875" y1="82.60000000000034" x2="43.875" y2="82.60000000000034" style="visibility: inherit;" fill="rgb(0, 0, 0)" stroke="rgb(204, 204, 204)" stroke-width="1px"></line><line x1="48.875" y1="70.80000000000017" x2="43.875" y2="70.80000000000017" style="visibility: inherit;" fill="rgb(0, 0, 0)" stroke="rgb(204, 204, 204)" stroke-width="1px"></line><line x1="48.875" y1="59" x2="43.875" y2="59" style="visibility: inherit;" fill="rgb(0, 0, 0)" stroke="rgb(204, 204, 204)" stroke-width="1px"></line><line x1="48.875" y1="47.20000000000067" x2="43.875" y2="47.20000000000067" style="visibility: inherit;" fill="rgb(0, 0, 0)" stroke="rgb(204, 204, 204)" stroke-width="1px"></line><line x1="48.875" y1="35.40000000000049" x2="43.875" y2="35.40000000000049" style="visibility: inherit;" fill="rgb(0, 0, 0)" stroke="rgb(204, 204, 204)" stroke-width="1px"></line><line x1="48.875" y1="23.600000000000335" x2="43.875" y2="23.600000000000335" style="visibility: inherit;" fill="rgb(0, 0, 0)" stroke="rgb(204, 204, 204)" stroke-width="1px"></line><line x1="48.875" y1="11.800000000000182" x2="43.875" y2="11.800000000000182" style="visibility: inherit;" fill="rgb(0, 0, 0)" stroke="rgb(204, 204, 204)" stroke-width="1px"></line><line x1="48.875" y1="0" x2="43.875" y2="0" style="visibility: inherit;" fill="rgb(0, 0, 0)" stroke="rgb(204, 204, 204)" stroke-width="1px"></line></g><g transform="translate(38.875, 0)"><text x="0" y="177" dx="0em" dy="0.3em" style="text-anchor: end; visibility: hidden; font-family: &quot;Helvetica Neue&quot;, sans-serif; font-size: 12px; font-weight: 200;" fill="rgb(50, 49, 63)" stroke="none" stroke-width="1px">94.4</text><text x="0" y="165.20000000000067" dx="0em" dy="0.3em" style="text-anchor: end; visibility: inherit; font-family: &quot;Helvetica Neue&quot;, sans-serif; font-size: 12px; font-weight: 200;" fill="rgb(50, 49, 63)" stroke="none" stroke-width="1px">94.6</text><text x="0" y="153.4000000000005" dx="0em" dy="0.3em" style="text-anchor: end; visibility: hidden; font-family: &quot;Helvetica Neue&quot;, sans-serif; font-size: 12px; font-weight: 200;" fill="rgb(50, 49, 63)" stroke="none" stroke-width="1px">94.8</text><text x="0" y="141.60000000000034" dx="0em" dy="0.3em" style="text-anchor: end; visibility: hidden; font-family: &quot;Helvetica Neue&quot;, sans-serif; font-size: 12px; font-weight: 200;" fill="rgb(50, 49, 63)" stroke="none" stroke-width="1px">95</text><text x="0" y="129.80000000000018" dx="0em" dy="0.3em" style="text-anchor: end; visibility: inherit; font-family: &quot;Helvetica Neue&quot;, sans-serif; font-size: 12px; font-weight: 200;" fill="rgb(50, 49, 63)" stroke="none" stroke-width="1px">95.2</text><text x="0" y="118" dx="0em" dy="0.3em" style="text-anchor: end; visibility: hidden; font-family: &quot;Helvetica Neue&quot;, sans-serif; font-size: 12px; font-weight: 200;" fill="rgb(50, 49, 63)" stroke="none" stroke-width="1px">95.4</text><text x="0" y="106.20000000000067" dx="0em" dy="0.3em" style="text-anchor: end; visibility: hidden; font-family: &quot;Helvetica Neue&quot;, sans-serif; font-size: 12px; font-weight: 200;" fill="rgb(50, 49, 63)" stroke="none" stroke-width="1px">95.6</text><text x="0" y="94.4000000000005" dx="0em" dy="0.3em" style="text-anchor: end; visibility: inherit; font-family: &quot;Helvetica Neue&quot;, sans-serif; font-size: 12px; font-weight: 200;" fill="rgb(50, 49, 63)" stroke="none" stroke-width="1px">95.8</text><text x="0" y="82.60000000000034" dx="0em" dy="0.3em" style="text-anchor: end; visibility: hidden; font-family: &quot;Helvetica Neue&quot;, sans-serif; font-size: 12px; font-weight: 200;" fill="rgb(50, 49, 63)" stroke="none" stroke-width="1px">96</text><text x="0" y="70.80000000000017" dx="0em" dy="0.3em" style="text-anchor: end; visibility: hidden; font-family: &quot;Helvetica Neue&quot;, sans-serif; font-size: 12px; font-weight: 200;" fill="rgb(50, 49, 63)" stroke="none" stroke-width="1px">96.2</text><text x="0" y="59" dx="0em" dy="0.3em" style="text-anchor: end; visibility: inherit; font-family: &quot;Helvetica Neue&quot;, sans-serif; font-size: 12px; font-weight: 200;" fill="rgb(50, 49, 63)" stroke="none" stroke-width="1px">96.4</text><text x="0" y="47.20000000000067" dx="0em" dy="0.3em" style="text-anchor: end; visibility: hidden; font-family: &quot;Helvetica Neue&quot;, sans-serif; font-size: 12px; font-weight: 200;" fill="rgb(50, 49, 63)" stroke="none" stroke-width="1px">96.6</text><text x="0" y="35.40000000000049" dx="0em" dy="0.3em" style="text-anchor: end; visibility: hidden; font-family: &quot;Helvetica Neue&quot;, sans-serif; font-size: 12px; font-weight: 200;" fill="rgb(50, 49, 63)" stroke="none" stroke-width="1px">96.8</text><text x="0" y="23.600000000000335" dx="0em" dy="0.3em" style="text-anchor: end; visibility: inherit; font-family: &quot;Helvetica Neue&quot;, sans-serif; font-size: 12px; font-weight: 200;" fill="rgb(50, 49, 63)" stroke="none" stroke-width="1px">97</text><text x="0" y="11.800000000000182" dx="0em" dy="0.3em" style="text-anchor: end; visibility: hidden; font-family: &quot;Helvetica Neue&quot;, sans-serif; font-size: 12px; font-weight: 200;" fill="rgb(50, 49, 63)" stroke="none" stroke-width="1px">97.2</text><text x="0" y="0" dx="0em" dy="0.3em" style="text-anchor: end; visibility: hidden; font-family: &quot;Helvetica Neue&quot;, sans-serif; font-size: 12px; font-weight: 200;" fill="rgb(50, 49, 63)" stroke="none" stroke-width="1px">97.4</text></g><line x1="48.875" y1="0" x2="48.875" y2="177" fill="rgb(0, 0, 0)" stroke="rgb(204, 204, 204)" stroke-width="1px"></line></g></g><g transform="translate(48, 0)" clip-path="url(#clip_0)"><clipPath id="clip_0"><rect width="281" height="177"></rect></clipPath><g><g><g><line x1="0" y1="0" x2="0" y2="177" fill="rgb(0, 0, 0)" stroke="rgb(60, 60, 60)" stroke-width="1px" opacity="0.25"></line><line x1="23.427083333333332" y1="0" x2="23.427083333333332" y2="177" fill="rgb(0, 0, 0)" stroke="rgb(60, 60, 60)" stroke-width="1px" opacity="0.25"></line><line x1="46.854166666666664" y1="0" x2="46.854166666666664" y2="177" fill="rgb(0, 0, 0)" stroke="rgb(60, 60, 60)" stroke-width="1px" opacity="0.25"></line><line x1="70.28125" y1="0" x2="70.28125" y2="177" fill="rgb(0, 0, 0)" stroke="rgb(60, 60, 60)" stroke-width="1px" opacity="0.25"></line><line x1="93.70833333333333" y1="0" x2="93.70833333333333" y2="177" fill="rgb(0, 0, 0)" stroke="rgb(60, 60, 60)" stroke-width="1px" opacity="0.25"></line><line x1="117.13541666666667" y1="0" x2="117.13541666666667" y2="177" fill="rgb(0, 0, 0)" stroke="rgb(60, 60, 60)" stroke-width="1px" opacity="0.25"></line><line x1="140.5625" y1="0" x2="140.5625" y2="177" fill="rgb(0, 0, 0)" stroke="rgb(60, 60, 60)" stroke-width="1px" opacity="0.25"></line><line x1="163.98958333333334" y1="0" x2="163.98958333333334" y2="177" fill="rgb(0, 0, 0)" stroke="rgb(60, 60, 60)" stroke-width="1px" opacity="0.25"></line><line x1="187.41666666666666" y1="0" x2="187.41666666666666" y2="177" fill="rgb(0, 0, 0)" stroke="rgb(60, 60, 60)" stroke-width="1px" opacity="0.25"></line><line x1="210.84375" y1="0" x2="210.84375" y2="177" fill="rgb(0, 0, 0)" stroke="rgb(60, 60, 60)" stroke-width="1px" opacity="0.25"></line><line x1="234.27083333333334" y1="0" x2="234.27083333333334" y2="177" fill="rgb(0, 0, 0)" stroke="rgb(60, 60, 60)" stroke-width="1px" opacity="0.25"></line><line x1="257.69791666666663" y1="0" x2="257.69791666666663" y2="177" fill="rgb(0, 0, 0)" stroke="rgb(60, 60, 60)" stroke-width="1px" opacity="0.25"></line><line x1="281.125" y1="0" x2="281.125" y2="177" fill="rgb(0, 0, 0)" stroke="rgb(60, 60, 60)" stroke-width="1px" opacity="0.25"></line></g><g><line x1="0" y1="177" x2="281.125" y2="177" fill="rgb(0, 0, 0)" stroke="rgb(60, 60, 60)" stroke-width="1px" opacity="0.25"></line><line x1="0" y1="165.20000000000067" x2="281.125" y2="165.20000000000067" fill="rgb(0, 0, 0)" stroke="rgb(60, 60, 60)" stroke-width="1px" opacity="0.25"></line><line x1="0" y1="153.4000000000005" x2="281.125" y2="153.4000000000005" fill="rgb(0, 0, 0)" stroke="rgb(60, 60, 60)" stroke-width="1px" opacity="0.25"></line><line x1="0" y1="141.60000000000034" x2="281.125" y2="141.60000000000034" fill="rgb(0, 0, 0)" stroke="rgb(60, 60, 60)" stroke-width="1px" opacity="0.25"></line><line x1="0" y1="129.80000000000018" x2="281.125" y2="129.80000000000018" fill="rgb(0, 0, 0)" stroke="rgb(60, 60, 60)" stroke-width="1px" opacity="0.25"></line><line x1="0" y1="118" x2="281.125" y2="118" fill="rgb(0, 0, 0)" stroke="rgb(60, 60, 60)" stroke-width="1px" opacity="0.25"></line><line x1="0" y1="106.20000000000067" x2="281.125" y2="106.20000000000067" fill="rgb(0, 0, 0)" stroke="rgb(60, 60, 60)" stroke-width="1px" opacity="0.25"></line><line x1="0" y1="94.4000000000005" x2="281.125" y2="94.4000000000005" fill="rgb(0, 0, 0)" stroke="rgb(60, 60, 60)" stroke-width="1px" opacity="0.25"></line><line x1="0" y1="82.60000000000034" x2="281.125" y2="82.60000000000034" fill="rgb(0, 0, 0)" stroke="rgb(60, 60, 60)" stroke-width="1px" opacity="0.25"></line><line x1="0" y1="70.80000000000017" x2="281.125" y2="70.80000000000017" fill="rgb(0, 0, 0)" stroke="rgb(60, 60, 60)" stroke-width="1px" opacity="0.25"></line><line x1="0" y1="59" x2="281.125" y2="59" fill="rgb(0, 0, 0)" stroke="rgb(60, 60, 60)" stroke-width="1px" opacity="0.25"></line><line x1="0" y1="47.20000000000067" x2="281.125" y2="47.20000000000067" fill="rgb(0, 0, 0)" stroke="rgb(60, 60, 60)" stroke-width="1px" opacity="0.25"></line><line x1="0" y1="35.40000000000049" x2="281.125" y2="35.40000000000049" fill="rgb(0, 0, 0)" stroke="rgb(60, 60, 60)" stroke-width="1px" opacity="0.25"></line><line x1="0" y1="23.600000000000335" x2="281.125" y2="23.600000000000335" fill="rgb(0, 0, 0)" stroke="rgb(60, 60, 60)" stroke-width="1px" opacity="0.25"></line><line x1="0" y1="11.800000000000182" x2="281.125" y2="11.800000000000182" fill="rgb(0, 0, 0)" stroke="rgb(60, 60, 60)" stroke-width="1px" opacity="0.25"></line><line x1="0" y1="0" x2="281.125" y2="0" fill="rgb(0, 0, 0)" stroke="rgb(60, 60, 60)" stroke-width="1px" opacity="0.25"></line></g></g></g><g><g><line x1="0" y1="5746.6" x2="281.125" y2="5746.6" fill="rgb(0, 0, 0)" stroke="rgb(153, 153, 153)" stroke-width="1.5px"></line></g></g><g><g><line x1="23.427083333333332" y1="0" x2="23.427083333333332" y2="177" fill="rgb(0, 0, 0)" stroke="rgb(153, 153, 153)" stroke-width="1.5px"></line></g></g><g><g><g><g><g><path stroke="rgb(0, 119, 187)" stroke-width="2px" d="M25.769791666666666,298.9817977905277L28.1125,137.83777770996127L30.455208333333335,186.56616363525424L32.797916666666666,169.3413253784183L35.140625,149.16990814209018L37.483333333333334,139.6509185791019L39.82604166666667,181.35315856933627L42.168749999999996,224.6425720214847L44.51145833333333,117.8932281494144L46.854166666666664,75.51038513183627L49.196875,81.1766754150394L51.53958333333333,126.95893249511752L53.88229166666667,99.7613693237308L56.225,140.5574890136722L58.567708333333336,121.51950988769565L60.91041666666667,103.84093627929721L63.253125000000004,129.90506134033237L65.59583333333333,80.04323730468784L67.93854166666667,121.9727951049808L70.28125,126.73206481933627L72.62395833333333,76.19053802490268L74.96666666666667,82.53653106689487L77.309375,58.285546875000335L79.65208333333334,134.66478118896518L81.99479166666667,90.24237976074252L84.33749999999999,158.68889770507846L86.68020833333334,128.318788146973L89.02291666666666,93.64224395751987L91.36562500000001,113.35992584228549L93.70833333333333,121.2926422119144L96.05104166666666,221.01629028320346L98.39375,126.95893249511752L100.73645833333333,80.72339019775424L103.07916666666667,138.51748046875034L105.421875,145.54362640380893L107.76458333333333,127.86550292968784L110.10729166666667,105.20079193115268L112.45,111.77365264892612L114.79270833333334,89.78909454345737L117.13541666666667,125.3722091674808L119.47812499999999,107.69408569335971L121.82083333333334,82.98981628418002L124.16354166666666,79.36353454589877L126.50625000000001,87.52266845703159L128.84895833333331,104.74750671386752L131.19166666666666,61.911828613281585L133.53437499999998,101.12122497558627L135.87708333333333,106.10736236572299L138.21979166666665,120.61293945312534L140.5625,126.95893249511752L141.03104166666668,85.93639526367221L141.49958333333333,103.16123352050815L141.96812500000001,87.29625091552768L142.43666666666667,119.93278656005893L142.90520833333332,105.88094482421909L143.37375,92.5088058471683L143.84229166666668,111.54678497314487L144.31083333333333,68.03140411376987L144.77937500000002,143.27720031738315L145.24791666666667,86.84296569824252L145.71645833333332,150.30334625244174L146.185,68.03140411376987L146.65354166666665,85.48311004638705L147.12208333333334,109.28035888671909L147.59062500000002,110.8670822143558L148.05916666666664,98.62838134765659L148.52770833333332,78.91024932861362L148.99625,91.82910308837924L149.46479166666666,66.8979660034183L149.93333333333334,176.5938888549808L150.40187500000002,100.89480743408237L150.87041666666664,87.74953613281284L151.33895833333332,126.73206481933627L151.8075,114.2664962768558L152.27604166666666,99.08166656494174L152.74458333333334,103.6145187377933L153.21312500000002,124.01235351562534L153.68166666666664,80.27010498046909L154.15020833333332,85.93639526367221L154.61875,101.80137786865268L155.08729166666666,101.34809265136752L155.55583333333334,76.41695556640659L156.02437500000002,82.98981628418002L156.49291666666667,101.57451019287143L156.96145833333333,69.39125976562534L157.43,141.91734466552768L157.89854166666666,107.92050323486362L158.36708333333334,85.93639526367221L158.835625,78.91024932861362L159.30416666666667,139.6509185791019L159.77270833333333,182.939881896973L160.24124999999998,113.58679351806674L160.70979166666666,151.6632019042972L161.17833333333334,112.00007019043002L161.646875,99.5349517822269L162.11541666666668,156.87575683593784L162.58395833333336,91.60223541259799L163.05249999999998,97.26852569580112L163.52104166666666,140.33062133789096L163.98958333333334,140.78390655517612L164.458125,87.97595367431674L164.92666666666668,96.3619552612308L165.39520833333336,107.0139328002933L165.86374999999998,113.58679351806674L166.33229166666666,138.29106292724643L166.80083333333334,83.89638671875034L167.269375,77.55039367675815L167.73791666666668,75.51038513183627L168.20645833333336,129.2253585815433L168.67499999999998,107.0139328002933L169.14354166666666,94.09552917480502L169.61208333333335,80.04323730468784L170.080625,144.18377075195346L170.54916666666668,112.00007019043002L171.01770833333333,93.86866149902377L171.48624999999998,111.54678497314487L171.95479166666667,70.29783020019565L172.42333333333332,104.29422149658237L172.891875,120.38607177734409L173.36041666666668,94.32194671630893L173.82895833333333,93.18895874023471L174.29749999999999,87.06938323974643L174.76604166666667,86.38968048095737L175.23458333333332,127.41221771240268L175.703125,162.54204711914096L176.17166666666668,81.62996063232455L176.64020833333333,118.34651336669955L177.10875000000001,143.9569030761722L177.57729166666667,140.78390655517612L178.04583333333332,107.46721801757846L178.514375,143.27720031738315L178.98291666666668,216.93672332763705L179.45145833333333,116.75979003906284L179.92000000000002,82.08324584960971L180.38854166666667,134.66478118896518L180.85708333333332,61.68541107177768L181.325625,78.23009643554721L181.79416666666665,95.00209960937534L182.26270833333334,85.70952758789096L182.73125000000002,139.42405090332065L183.19979166666664,206.73758087158237L183.66833333333332,107.69408569335971L184.136875,110.41379699707065L184.60541666666666,63.95183715820346L185.07395833333334,117.43994293212924L185.54250000000002,119.93278656005893L186.01104166666664,141.69047698974643L186.47958333333332,106.33423004150424L186.948125,123.33265075683627L187.41666666666666,64.17825469970737L187.88520833333334,88.4292388916019L188.35375000000002,101.12122497558627L188.82229166666664,94.32194671630893L189.29083333333332,108.14737091064487L189.759375,136.7043395996097L190.22791666666666,109.50722656250034L190.69645833333334,138.06419525146518L191.16500000000002,107.92050323486362L191.63354166666667,99.98823699951205L192.10208333333333,80.94980773925815L192.570625,70.29783020019565L193.03916666666666,124.91892395019565L193.50770833333334,110.41379699707065L193.97625,166.39474639892612L194.44479166666667,106.7875152587894L194.91333333333333,160.27562103271518L195.38187499999998,96.3619552612308L195.85041666666666,129.2253585815433L196.31895833333334,101.57451019287143L196.7875,116.98665771484409L197.25604166666668,174.78074798584018L197.72458333333336,145.77004394531284L198.19312499999998,105.65407714843784L198.66166666666666,58.285546875000335L199.13020833333334,131.94506988525424L199.59875,101.12122497558627L200.06729166666668,135.11806640625034L200.53583333333336,156.19605407714877L201.00437499999998,106.56064758300815L201.47291666666666,95.6818023681644L201.94145833333334,184.5266052246097L202.41,140.5574890136722L202.87854166666668,88.20282135009799L203.34708333333336,119.70636901855502L203.81562499999998,99.08166656494174L204.28416666666666,92.5088058471683L204.75270833333335,131.03849945068393L205.22125,92.05552062988315L205.68979166666668,77.77681121826205L206.15833333333333,125.3722091674808L206.62687499999998,90.92253265380893L207.09541666666667,127.63863525390659L207.56395833333332,84.12325439453159L208.0325,94.32194671630893L208.50104166666668,89.1093917846683L208.96958333333333,92.96209106445346L209.43812499999999,113.81321105957065L209.90666666666667,92.96209106445346L210.37520833333332,120.83935699462924L210.84375,113.58679351806674L211.31229166666668,91.37581787109409L211.78083333333333,119.93278656005893L212.24937500000001,68.25782165527377L212.71791666666667,535.5980316162113L215.99770833333332,566.195008850098L216.46625,100.89480743408237L216.93479166666665,94.32194671630893L217.40333333333334,101.57451019287143L217.87187500000002,107.69408569335971L218.34041666666664,116.75979003906284L218.80895833333332,94.32194671630893L219.2775,112.00007019043002L219.74604166666666,135.11806640625034L220.21458333333334,88.88252410888705L220.68312500000002,86.38968048095737L221.15166666666664,92.05552062988315L221.62020833333332,136.02463684082065L222.08875,164.5816055297855L222.55729166666666,142.14376220703159L223.02583333333334,152.79618988037143L223.49437500000002,86.61609802246127L223.96291666666664,125.1457916259769L224.43145833333332,111.54678497314487L224.9,93.64224395751987L225.36854166666666,92.5088058471683L225.83708333333334,113.81321105957065L226.30562500000002,90.92253265380893L226.77416666666667,102.25466308593784L227.24270833333333,107.92050323486362L227.71125,224.41570434570346L228.17979166666666,68.03140411376987L228.64833333333334,132.85164031982455L229.116875,135.7977691650394L229.58541666666667,223.28271636962924L230.05395833333333,97.49494323730502L230.52249999999998,170.92759857177768L230.99104166666666,156.64933929443393L231.45958333333334,78.45696411132846L231.928125,93.86866149902377L232.39666666666668,108.60065612793002L232.86520833333336,89.78909454345737L233.33374999999998,111.09349975585971L233.80229166666666,122.87936553955112L234.27083333333334,107.0139328002933L234.739375,138.06419525146518L235.20791666666668,190.64573059082065L235.67645833333336,55.11255035400424L236.14499999999998,99.08166656494174L236.61354166666666,155.74276885986362L237.08208333333334,94.32194671630893L237.550625,100.21465454101596L238.01916666666668,86.16281280517612L238.48770833333336,128.99849090576205L238.95624999999998,103.84093627929721L239.42479166666666,131.49178466796909L239.89333333333335,92.96209106445346L240.361875,142.823915100098L240.83041666666668,93.18895874023471L241.29895833333333,122.65249786376987L241.76749999999998,100.44152221679721L242.23604166666667,79.81681976318393L242.70458333333332,76.64382324218784L243.173125,116.30650482177768L243.64166666666668,152.34290466308627L244.11020833333333,98.85479888916049L244.57874999999999,82.98981628418002L245.04729166666667,107.69408569335971L245.51583333333332,87.06938323974643L245.984375,118.1196456909183L246.45291666666668,124.23922119140659L246.92145833333333,138.74434814453159L247.39000000000001,118.34651336669955L247.85854166666667,120.38607177734409L248.32708333333332,111.77365264892612L248.795625,82.76339874267612L249.26416666666668,109.28035888671909L249.73270833333333,104.52108917236362L250.20125000000002,131.03849945068393L250.66979166666667,138.51748046875034L251.13833333333332,70.97753295898471L251.606875,143.9569030761722L252.07541666666665,144.63705596923862L252.54395833333334,90.92253265380893L253.01250000000002,95.00209960937534L253.48104166666664,120.15965423584018L253.94958333333332,101.12122497558627L254.418125,106.7875152587894L254.88666666666666,105.42765960693393L255.35520833333334,112.45335540771518L255.82375000000002,168.20788726806674L256.29229166666664,96.81524047851596L256.7608333333333,772.8944183349613L257.229375,125.59907684326205L257.69791666666663,103.84093627929721L257.9321875,147.58318481445346L258.1664583333333,108.37378845214877L258.4007291666667,144.18377075195346L258.635,103.38765106201205L258.8692708333333,139.19763336181674L259.1035416666667,190.64573059082065L259.3378125,134.43791351318393L259.57208333333335,147.8100524902347L259.80635416666667,147.35676727294955L260.04062500000003,97.72181091308627L260.27489583333335,136.7043395996097L260.50916666666666,127.63863525390659L260.74343749999997,111.77365264892612L260.97770833333334,85.93639526367221L261.21197916666665,100.21465454101596L261.44625,123.33265075683627L261.68052083333333,157.55590972900424L261.91479166666664,140.78390655517612L262.1490625,92.5088058471683L262.3833333333333,152.79618988037143L262.6176041666667,78.91024932861362L262.851875,171.834169006348L263.0861458333333,129.2253585815433" style="fill: none;" fill="none"></path></g><g><path stroke="rgb(51, 187, 238)" stroke-width="2px" d="M23.427083333333332,5217.2471538543705L25.769791666666666,157.73281250000034L28.1125,114.5401779174808L30.455208333333335,103.74190673828159L32.797916666666666,103.98362884521518L35.140625,99.79332885742221L37.483333333333334,87.54472503662143L39.82604166666667,90.44539031982455L42.168749999999996,87.94759521484409L44.51145833333333,89.72022399902377L46.854166666666664,97.45623168945346L49.196875,85.44934997558627L51.53958333333333,85.20762786865268L53.88229166666667,80.05043945312534L56.225,88.35046539306674L58.567708333333336,79.56699523925815L60.91041666666667,75.61841735839877L63.253125000000004,73.44246826171909L65.59583333333333,72.07270965576205L67.93854166666667,71.6698394775394L70.28125,82.87098083496127L72.62395833333333,70.62192687988315L74.96666666666667,75.05394897460971L77.309375,65.54531250000034L79.65208333333334,65.78703460693393L81.99479166666667,67.88240966796909L84.33749999999999,74.40935668945346L86.68020833333334,76.74645385742221L89.02291666666666,69.81618652343784L91.36562500000001,72.15328369140659L93.70833333333333,74.08706054687534L96.05104166666666,77.47162017822299L98.39375,78.19678649902377L100.73645833333333,81.74249420166049L103.07916666666667,77.55219421386752L105.421875,72.79787597656284L107.76458333333333,70.54135284423862L110.10729166666667,70.94422302246127L112.45,78.03563842773471L114.79270833333334,75.53784332275424L117.13541666666667,84.07959136962924L119.47812499999999,76.26300964355502L121.82083333333334,77.87449035644565L124.16354166666666,87.70587310791049L126.50625000000001,73.84533843994174L128.84895833333331,74.32878265380893L131.19166666666666,75.9407135009769L133.53437499999998,85.20762786865268L135.87708333333333,70.21905670166049L138.21979166666665,79.64756927490268L140.5625,70.38020477294955L141.03104166666668,86.90013275146518L141.49958333333333,74.32878265380893L141.96812500000001,74.2482086181644L142.43666666666667,87.30300292968784L142.90520833333332,74.2482086181644L143.37375,88.7533355712894L143.84229166666668,84.88533172607455L144.31083333333333,81.98421630859409L144.77937500000002,74.89280090332065L145.24791666666667,76.66587982177768L145.71645833333332,72.15328369140659L146.185,72.15328369140659L146.65354166666665,86.57738647460971L147.12208333333334,77.47162017822299L147.59062500000002,70.21905670166049L148.05916666666664,70.78307495117221L148.52770833333332,64.98129425048862L148.99625,68.60757598876987L149.46479166666666,77.2298980712894L149.93333333333334,81.74249420166049L150.40187500000002,78.84137878418002L150.87041666666664,83.35442504882846L151.33895833333332,71.58926544189487L151.8075,78.59965667724643L152.27604166666666,74.32878265380893L152.74458333333334,71.75041351318393L153.21312500000002,72.47557983398471L153.68166666666664,80.93675384521518L154.15020833333332,76.58530578613315L154.61875,76.66587982177768L155.08729166666666,72.39500579834018L155.55583333333334,73.36189422607455L156.02437500000002,91.41272888183627L156.49291666666667,69.17159423828159L156.96145833333333,76.74645385742221L157.43,94.7167144775394L157.89854166666666,70.78307495117221L158.36708333333334,74.0064865112308L158.835625,74.48993072509799L159.30416666666667,89.07563171386752L159.77270833333333,73.68419036865268L160.24124999999998,82.70938262939487L160.70979166666666,78.19678649902377L161.17833333333334,79.32527313232455L161.646875,71.50869140625034L162.11541666666668,71.34754333496127L162.58395833333336,83.67672119140659L163.05249999999998,82.46766052246127L163.52104166666666,74.32878265380893L163.98958333333334,76.26300964355502L164.458125,68.6881500244144L164.92666666666668,72.31443176269565L165.39520833333336,94.79728851318393L165.86374999999998,72.87845001220737L166.33229166666666,70.46077880859409L166.80083333333334,89.72022399902377L167.269375,85.36877593994174L167.73791666666668,80.93675384521518L168.20645833333336,79.9698654174808L168.67499999999998,73.03959808349643L169.14354166666666,77.55219421386752L169.61208333333335,70.86364898681674L170.080625,76.9881759643558L170.54916666666668,76.10186157226596L171.01770833333333,72.31443176269565L171.48624999999998,85.93279418945346L171.95479166666667,81.58134613037143L172.42333333333332,79.56699523925815L172.891875,84.72418365478549L173.36041666666668,70.86364898681674L173.82895833333333,73.12017211914096L174.29749999999999,77.39104614257846L174.76604166666667,80.61445770263705L175.23458333333332,70.29963073730502L175.703125,70.78307495117221L176.17166666666668,69.49389038085971L176.64020833333333,72.15328369140659L177.10875000000001,79.56699523925815L177.57729166666667,80.37273559570346L178.04583333333332,89.72022399902377L178.514375,91.65445098876987L178.98291666666668,65.4647384643558L179.45145833333333,78.92195281982455L179.92000000000002,73.84533843994174L180.38854166666667,85.7716461181644L180.85708333333332,72.39500579834018L181.325625,71.75041351318393L181.79416666666665,88.26989135742221L182.26270833333334,82.38708648681674L182.73125000000002,66.43162689209018L183.19979166666664,76.74645385742221L183.66833333333332,86.65796051025424L184.136875,73.84533843994174L184.60541666666666,75.6989913940433L185.07395833333334,69.89676055908237L185.54250000000002,77.79391632080112L186.01104166666664,68.04355773925815L186.47958333333332,67.80183563232455L186.948125,77.2298980712894L187.41666666666666,69.57446441650424L187.88520833333334,64.01440582275424L188.35375000000002,79.24469909668002L188.82229166666664,68.52700195312534L189.29083333333332,74.2482086181644L189.759375,85.28820190429721L190.22791666666666,71.10537109375034L190.69645833333334,73.68419036865268L191.16500000000002,83.03212890625034L191.63354166666667,67.64068756103549L192.10208333333333,73.60361633300815L192.570625,76.74645385742221L193.03916666666666,74.32878265380893L193.50770833333334,78.35793457031284L193.97625,94.3133941650394L194.44479166666667,74.73165283203159L194.91333333333333,95.03901062011752L195.38187499999998,73.84533843994174L195.85041666666666,86.57738647460971L196.31895833333334,74.89280090332065L196.7875,76.58530578613315L197.25604166666668,75.6989913940433L197.72458333333336,75.77956542968784L198.19312499999998,90.60698852539096L198.66166666666666,74.73165283203159L199.13020833333334,74.2482086181644L199.59875,95.11958465576205L200.06729166666668,74.2482086181644L200.53583333333336,71.58926544189487L201.00437499999998,79.24469909668002L201.47291666666666,69.17159423828159L201.94145833333334,76.34358367919955L202.41,78.19678649902377L202.87854166666668,74.0064865112308L203.34708333333336,70.70250091552768L203.81562499999998,67.47953948974643L204.28416666666666,80.05043945312534L204.75270833333335,71.83098754882846L205.22125,84.2407394409183L205.68979166666668,76.42415771484409L206.15833333333333,80.37273559570346L206.62687499999998,74.97337493896518L207.09541666666667,74.32878265380893L207.56395833333332,74.32878265380893L208.0325,76.02128753662143L208.50104166666668,75.86013946533237L208.96958333333333,84.16016540527377L209.43812499999999,82.46766052246127L209.90666666666667,69.7356124877933L210.37520833333332,87.38357696533237L210.84375,78.35793457031284L211.31229166666668,81.09790191650424L211.78083333333333,94.23282012939487L212.24937500000001,74.16763458251987L212.71791666666667,497.0696884155277L215.99770833333332,503.83880767822296L216.46625,77.63276824951205L216.93479166666665,71.83098754882846L217.40333333333334,73.52304229736362L217.87187500000002,89.88137207031284L218.34041666666664,75.45726928710971L218.80895833333332,75.9407135009769L219.2775,86.49681243896518L219.74604166666666,79.32527313232455L220.21458333333334,83.75729522705112L220.68312500000002,74.40935668945346L221.15166666666664,80.53388366699252L221.62020833333332,75.86013946533237L222.08875,86.25509033203159L222.55729166666666,81.09790191650424L223.02583333333334,73.36189422607455L223.49437500000002,80.85617980957065L223.96291666666664,81.01732788085971L224.43145833333332,76.9881759643558L224.9,89.88137207031284L225.36854166666666,71.91156158447299L225.83708333333334,84.64360961914096L226.30562500000002,79.08355102539096L226.77416666666667,76.66587982177768L227.24270833333333,76.74645385742221L227.71125,87.4641510009769L228.17979166666666,79.9698654174808L228.64833333333334,74.97337493896518L229.116875,77.95506439209018L229.58541666666667,76.9881759643558L230.05395833333333,77.55219421386752L230.52249999999998,83.99901733398471L230.99104166666666,74.2482086181644L231.45958333333334,79.08355102539096L231.928125,68.4464279174808L232.39666666666668,89.8007980346683L232.86520833333336,74.73165283203159L233.33374999999998,87.06128082275424L233.80229166666666,85.20762786865268L234.27083333333334,82.7899566650394L234.739375,84.80475769043002L235.20791666666668,76.74645385742221L235.67645833333336,71.2665191650394L236.14499999999998,77.95506439209018L236.61354166666666,80.45330963134799L237.08208333333334,93.26593170166049L237.550625,71.0247970581058L238.01916666666668,79.64756927490268L238.48770833333336,80.69503173828159L238.95624999999998,94.63614044189487L239.42479166666666,71.0247970581058L239.89333333333335,74.73165283203159L240.361875,70.13848266601596L240.83041666666668,81.66192016601596L241.29895833333333,71.6698394775394L241.76749999999998,85.61049804687534L242.23604166666667,71.4281173706058L242.70458333333332,89.39792785644565L243.173125,83.35442504882846L243.64166666666668,100.11562500000034L244.11020833333333,81.33962402343784L244.57874999999999,84.32131347656284L245.04729166666667,73.68419036865268L245.51583333333332,86.41623840332065L245.984375,84.72418365478549L246.45291666666668,77.63276824951205L246.92145833333333,78.59965667724643L247.39000000000001,78.68023071289096L247.85854166666667,73.92591247558627L248.32708333333332,73.60361633300815L248.795625,88.35046539306674L249.26416666666668,79.08355102539096L249.73270833333333,85.61049804687534L250.20125000000002,70.46077880859409L250.66979166666667,86.90013275146518L251.13833333333332,83.99901733398471L251.606875,72.55615386962924L252.07541666666665,72.63672790527377L252.54395833333334,72.63672790527377L253.01250000000002,82.14536437988315L253.48104166666664,75.6989913940433L253.94958333333332,78.76080474853549L254.418125,75.13452301025424L254.88666666666666,85.12705383300815L255.35520833333334,74.16763458251987L255.82375000000002,69.25216827392612L256.29229166666664,86.25509033203159L256.7608333333333,74.08706054687534L257.229375,451.9432769775394L257.69791666666663,69.01044616699252L257.9321875,71.50869140625034L258.1664583333333,71.10537109375034L258.4007291666667,83.27385101318393L258.635,89.07563171386752L258.8692708333333,77.55219421386752L259.1035416666667,86.49681243896518L259.3378125,82.38708648681674L259.57208333333335,79.24469909668002L259.80635416666667,73.12017211914096L260.04062500000003,71.58926544189487L260.27489583333335,74.57050476074252L260.50916666666666,75.45726928710971L260.74343749999997,91.00985870361362L260.97770833333334,79.80871734619174L261.21197916666665,80.93675384521518L261.44625,83.35442504882846L261.68052083333333,77.14932403564487L261.91479166666664,93.0242095947269L262.1490625,90.20366821289096L262.3833333333333,80.2115875244144L262.6176041666667,75.05394897460971L262.851875,86.81955871582065L263.0861458333333,83.43499908447299" style="fill: none;" fill="none"></path></g><g><path stroke="rgb(0, 153, 136)" stroke-width="2px" d="M24.364166666666666,193.59230957031284L24.832708333333333,153.70276031494174L25.30125,123.10578308105502L25.769791666666666,96.3619552612308L26.238333333333333,95.90867004394565L26.706875,81.8568283081058L27.175416666666667,85.93639526367221L27.64395833333333,85.2562423706058L28.1125,70.97753295898471L28.581041666666668,76.87024078369174L29.049583333333334,57.83226165771518L29.518124999999998,68.71110687255893L29.986666666666668,62.138696289062835L30.455208333333335,61.911828613281585L30.923750000000002,49.67312774658237L31.392291666666665,60.55197296142612L31.860833333333332,60.55197296142612L32.329375,58.73883209228549L32.797916666666666,55.33941802978549L33.26645833333333,60.09868774414096L33.735,68.71110687255893L34.203541666666666,51.48626861572299L34.67208333333333,58.285546875000335L35.140625,66.6715484619144L35.60916666666667,53.52627716064487L36.077708333333334,50.80656585693393L36.54625,44.23370513916049L37.01479166666666,49.44671020507846L37.483333333333334,45.36669311523471L37.951875,61.45854339599643L38.42041666666666,52.1664215087894L38.888958333333335,64.17825469970737L39.3575,60.09868774414096L39.82604166666667,53.52627716064487L40.294583333333335,56.69927368164096L40.763124999999995,46.04684600830112L41.23166666666667,54.659265136719085L41.700208333333336,54.43284759521518L42.168749999999996,63.498551940918304L42.63729166666667,64.17825469970737L43.10583333333333,37.887712097168304L43.574374999999996,73.69724426269565L44.04291666666667,60.55197296142612L44.51145833333333,55.5658355712894L44.980000000000004,59.4189849853519L45.448541666666664,51.93955383300815L45.91708333333333,52.619706726074554L46.385625000000005,65.31169281005893L46.854166666666664,61.911828613281585L47.32270833333333,44.68699035644565L47.791250000000005,51.71313629150424L48.259791666666665,59.645402526855804L48.72833333333333,50.57969818115268L49.196875,58.05912933349643L49.665416666666665,66.8979660034183L50.13395833333334,42.42056427001987L50.6025,58.512414550781585L51.071041666666666,58.96569976806674L51.53958333333333,73.01754150390659L52.008125,43.32713470459018L52.47666666666667,45.81997833251987L52.94520833333333,80.04323730468784L53.41375,46.04684600830112L53.88229166666667,41.96727905273471L54.350833333333334,55.5658355712894L54.819375,58.73883209228549L55.28791666666666,53.52627716064487L55.756458333333335,94.77523193359409L56.225,54.659265136719085L56.69354166666667,51.48626861572299L57.162083333333335,50.80656585693393L57.630624999999995,38.79428253173862L58.09916666666667,42.87384948730502L58.567708333333336,49.67312774658237L59.036249999999995,48.993424987793304L59.50479166666667,52.1664215087894L59.973333333333336,40.60742340087924L60.441874999999996,55.11255035400424L60.91041666666667,54.659265136719085L61.37895833333333,46.27326354980502L61.847500000000004,56.69927368164096L62.31604166666667,41.96727905273471L62.78458333333333,50.12641296386752L63.253125000000004,44.00683746337924L63.721666666666664,50.80656585693393L64.19020833333333,41.287126159668304L64.65875,42.64698181152377L65.12729166666666,34.48784790039096L65.59583333333333,30.86156616210971L66.064375,41.0607086181644L66.53291666666667,39.47398529052768L67.00145833333333,61.23212585449252L67.47,45.140275573730804L67.93854166666667,40.83384094238315L68.40708333333333,38.79428253173862L68.875625,29.72857818603549L69.34416666666667,39.47398529052768L69.81270833333333,48.54013977050815L70.28125,51.71313629150424L70.74979166666667,41.287126159668304L71.21833333333333,43.32713470459018L71.686875,35.84770355224643L72.15541666666667,35.16800079345737L72.62395833333333,34.71471557617221L73.0925,38.56741485595737L73.56104166666667,39.24756774902377L74.02958333333332,45.59356079101596L74.498125,46.27326354980502L74.96666666666667,33.35485992431674L75.43520833333332,41.0607086181644L75.90375,36.527856445312835L76.37229166666667,30.635148620605804L76.84083333333332,45.59356079101596L77.309375,35.39441833496127L77.77791666666667,32.44828948974643L78.24645833333334,35.16800079345737L78.715,25.87542877197299L79.18354166666667,39.47398529052768L79.65208333333334,30.181863403320648L80.12062499999999,23.60900268554721L80.58916666666667,55.33941802978549L81.05770833333334,30.408280944824554L81.52624999999999,50.57969818115268L81.99479166666667,39.02070007324252L82.46333333333334,39.47398529052768L82.93187499999999,50.80656585693393L83.40041666666667,28.59514007568393L83.86895833333334,30.181863403320648L84.33749999999999,48.993424987793304L84.80604166666667,50.12641296386752L85.27458333333334,46.50013122558627L85.74312499999999,39.70085296630893L86.21166666666666,43.780419921875335L86.68020833333334,39.24756774902377L87.14874999999999,57.37897644043002L87.61729166666666,56.47240600585971L88.08583333333334,48.3132720947269L88.55437500000001,43.10026702880893L89.02291666666666,37.43442687988315L89.49145833333334,46.50013122558627L89.96000000000001,51.93955383300815L90.42854166666666,47.406701660156585L90.89708333333333,30.635148620605804L91.36562500000001,26.10229644775424L91.83416666666666,50.57969818115268L92.30270833333333,43.32713470459018L92.77125000000001,42.19369659423862L93.23979166666666,40.60742340087924L93.70833333333333,39.24756774902377L94.17687500000001,32.901574707031585L94.64541666666666,50.80656585693393L95.11395833333333,51.48626861572299L95.58250000000001,42.64698181152377L96.05104166666666,41.513993835449554L96.51958333333333,24.742440795898773L96.988125,38.79428253173862L97.45666666666666,34.261430358887054L97.92520833333333,79.58995208740268L98.39375,52.84612426757846L98.86229166666668,41.287126159668304L99.33083333333333,43.780419921875335L99.799375,52.619706726074554L100.26791666666668,37.2075592041019L100.73645833333333,42.64698181152377L101.205,33.12799224853549L101.67354166666668,35.62128601074252L102.14208333333333,36.98114166259799L102.610625,32.44828948974643L103.07916666666667,48.54013977050815L103.54770833333333,49.67312774658237L104.01625,29.50171051025424L104.48479166666667,30.86156616210971L104.95333333333333,46.95341644287143L105.421875,42.19369659423862L105.89041666666667,52.1664215087894L106.35895833333333,39.927270507812835L106.8275,40.38055572509799L107.29604166666667,35.84770355224643L107.76458333333333,30.635148620605804L108.233125,52.84612426757846L108.70166666666667,38.11412963867221L109.17020833333332,30.635148620605804L109.63875,60.55197296142612L110.10729166666667,39.02070007324252L110.57583333333332,39.47398529052768L111.044375,34.94113311767612L111.51291666666667,37.43442687988315L111.98145833333332,38.34099731445346L112.45,47.406701660156585L112.91854166666667,58.512414550781585L113.38708333333334,37.43442687988315L113.855625,38.56741485595737L114.32416666666667,31.314851379394867L114.79270833333334,30.635148620605804L115.26124999999999,45.36669311523471L115.72979166666667,34.034562683105804L116.19833333333334,41.74041137695346L116.66687499999999,45.36669311523471L117.13541666666667,38.34099731445346L117.60395833333334,25.19572601318393L118.07249999999999,43.32713470459018L118.54104166666667,20.20958862304721L119.00958333333334,44.23370513916049L119.47812499999999,44.23370513916049L119.94666666666667,31.768136596680023L120.41520833333334,27.688569641113617L120.88374999999999,36.75427398681674L121.35229166666666,47.179833984375335L121.82083333333334,41.96727905273471L122.28937499999999,26.555581665039398L122.75791666666666,46.50013122558627L123.22645833333334,22.022729492187835L123.69500000000001,29.048425292969085L124.16354166666666,52.84612426757846L124.63208333333334,44.4601226806644L125.10062500000001,51.93955383300815L125.56916666666666,31.314851379394867L126.03770833333333,35.84770355224643L126.50625000000001,44.00683746337924L126.97479166666666,34.94113311767612L127.44333333333333,51.259851074219085L127.91187500000001,47.406701660156585L128.38041666666666,39.02070007324252L128.84895833333331,41.287126159668304L129.3175,36.75427398681674L129.78604166666668,29.048425292969085L130.25458333333333,44.23370513916049L130.723125,29.954995727539398L131.19166666666666,37.660844421387054L131.66020833333334,42.64698181152377L132.12875,31.08843383789096L132.59729166666668,41.513993835449554L133.06583333333333,30.181863403320648L133.53437499999998,46.04684600830112L134.00291666666666,39.02070007324252L134.47145833333335,38.56741485595737L134.94,49.21984252929721L135.40854166666668,37.660844421387054L135.87708333333333,25.422143554687835L136.34562499999998,46.27326354980502L136.81416666666667,38.34099731445346L137.28270833333335,43.780419921875335L137.75125,40.83384094238315L138.21979166666665,31.314851379394867L138.68833333333333,46.72654876709018L139.15687499999999,27.46215209960971L139.62541666666667,35.62128601074252L140.09395833333335,41.96727905273471L140.5625,32.44828948974643L140.79677083333334,42.87384948730502L141.03104166666668,55.33941802978549L141.2653125,47.406701660156585L141.49958333333333,40.38055572509799L141.73385416666667,34.71471557617221L141.96812500000001,34.261430358887054L142.20239583333333,37.43442687988315L142.43666666666667,52.1664215087894L142.67093749999998,62.59198150634799L142.90520833333332,32.44828948974643L143.13947916666666,59.19211730957065L143.37375,60.32555541992221L143.60802083333334,47.63311920166049L143.84229166666668,48.54013977050815L144.0765625,43.553552246094085L144.31083333333333,36.300988769531585L144.54510416666668,23.155717468262054L144.77937500000002,29.048425292969085L145.01364583333336,27.23528442382846L145.24791666666667,51.032983398437835L145.48218749999998,52.84612426757846L145.71645833333332,39.02070007324252L145.95072916666666,54.43284759521518L146.185,39.02070007324252L146.41927083333334,48.54013977050815L146.65354166666665,43.10026702880893L146.8878125,46.50013122558627L147.12208333333334,44.23370513916049L147.35635416666668,41.74041137695346L147.59062500000002,40.38055572509799L147.82489583333336,38.56741485595737L148.05916666666664,33.8081451416019L148.29343749999998,33.58127746582065L148.52770833333332,33.35485992431674L148.76197916666666,33.8081451416019L148.99625,41.74041137695346L149.23052083333334,56.019120788574554L149.46479166666666,36.98114166259799L149.6990625,40.60742340087924L149.93333333333334,33.8081451416019L150.16760416666668,40.83384094238315L150.40187500000002,37.43442687988315L150.63614583333336,31.08843383789096L150.87041666666664,57.15255889892612L151.10468749999998,39.02070007324252L151.33895833333332,31.541719055176117L151.57322916666666,46.72654876709018L151.8075,39.02070007324252L152.04177083333335,49.21984252929721L152.27604166666666,38.11412963867221L152.5103125,40.60742340087924L152.74458333333334,35.16800079345737L152.97885416666668,52.619706726074554L153.21312500000002,42.19369659423862L153.44739583333333,30.408280944824554L153.68166666666664,38.79428253173862L153.91593749999998,45.36669311523471L154.15020833333332,34.94113311767612L154.38447916666667,43.553552246094085L154.61875,32.22142181396518L154.85302083333332,39.47398529052768L155.08729166666666,34.261430358887054L155.3215625,28.368722534180023L155.55583333333334,34.94113311767612L155.79010416666668,62.8183990478519L156.02437500000002,49.44671020507846L156.25864583333333,39.24756774902377L156.49291666666667,23.83587036132846L156.72718749999999,37.660844421387054L156.96145833333333,35.39441833496127L157.19572916666667,36.07457122802768L157.43,70.0709625244144L157.66427083333332,28.368722534180023L157.89854166666666,27.23528442382846L158.1328125,37.43442687988315L158.36708333333334,24.515573120117523L158.60135416666668,51.032983398437835L158.835625,41.513993835449554L159.06989583333333,34.94113311767612L159.30416666666667,52.619706726074554L159.53843750000001,40.38055572509799L159.77270833333333,26.781999206543304L160.00697916666667,36.75427398681674L160.24124999999998,54.43284759521518L160.47552083333332,36.75427398681674L160.70979166666666,41.513993835449554L160.9440625,39.70085296630893L161.17833333333334,38.34099731445346L161.41260416666668,52.392839050293304L161.646875,31.541719055176117L161.88114583333333,40.60742340087924L162.11541666666668,37.2075592041019L162.34968750000002,46.27326354980502L162.58395833333336,48.993424987793304L162.81822916666667,47.179833984375335L163.05249999999998,49.44671020507846L163.28677083333332,62.138696289062835L163.52104166666666,43.553552246094085L163.7553125,50.57969818115268L163.98958333333334,57.60584411621127L164.22385416666665,41.513993835449554L164.458125,39.70085296630893L164.69239583333334,41.287126159668304L164.92666666666668,47.406701660156585L165.16093750000002,48.54013977050815L165.39520833333336,68.71110687255893L165.62947916666664,50.12641296386752L165.86374999999998,29.72857818603549L166.09802083333332,57.37897644043002L166.33229166666666,33.58127746582065L166.5665625,34.94113311767612L166.80083333333334,55.79270324707065L167.03510416666666,41.0607086181644L167.269375,63.72496948242221L167.50364583333334,49.44671020507846L167.73791666666668,39.02070007324252L167.97218750000002,21.56944427490268L168.20645833333336,35.84770355224643L168.44072916666664,27.23528442382846L168.67499999999998,48.993424987793304L168.90927083333332,38.11412963867221L169.14354166666666,41.513993835449554L169.3778125,34.71471557617221L169.61208333333335,41.287126159668304L169.84635416666666,50.80656585693393L170.080625,35.16800079345737L170.31489583333334,51.71313629150424L170.54916666666668,42.64698181152377L170.78343750000002,48.54013977050815L171.01770833333333,35.62128601074252L171.25197916666664,33.12799224853549L171.48624999999998,57.83226165771518L171.72052083333332,32.674707031250335L171.95479166666667,41.513993835449554L172.1890625,41.0607086181644L172.42333333333332,38.79428253173862L172.65760416666666,28.141854858398773L172.891875,51.48626861572299L173.12614583333334,44.23370513916049L173.36041666666668,46.27326354980502L173.59468750000002,30.408280944824554L173.82895833333333,41.0607086181644L174.06322916666667,43.780419921875335L174.29749999999999,44.23370513916049L174.53177083333333,24.96885833740268L174.76604166666667,44.68699035644565L175.0003125,71.88410339355502L175.23458333333332,39.47398529052768L175.46885416666666,60.09868774414096L175.703125,36.75427398681674L175.93739583333334,50.80656585693393L176.17166666666668,38.56741485595737L176.4059375,52.619706726074554L176.64020833333333,32.901574707031585L176.87447916666667,46.04684600830112L177.10875000000001,43.553552246094085L177.34302083333333,48.993424987793304L177.57729166666667,58.73883209228549L177.81156249999998,61.23212585449252L178.04583333333332,58.73883209228549L178.28010416666666,49.21984252929721L178.514375,46.50013122558627L178.74864583333334,47.63311920166049L178.98291666666668,36.75427398681674L179.2171875,45.140275573730804L179.45145833333333,47.85998687744174L179.68572916666668,45.59356079101596L179.92000000000002,50.12641296386752L180.15427083333336,47.406701660156585L180.38854166666667,45.81997833251987L180.62281249999998,47.63311920166049L180.85708333333332,40.83384094238315L181.09135416666666,41.74041137695346L181.325625,43.780419921875335L181.55989583333334,39.70085296630893L181.79416666666665,58.512414550781585L182.0284375,37.2075592041019L182.26270833333334,31.995004272461273L182.49697916666668,60.09868774414096L182.73125000000002,46.50013122558627L182.96552083333336,40.60742340087924L183.19979166666664,41.96727905273471L183.43406249999998,36.75427398681674L183.66833333333332,55.5658355712894L183.90260416666666,28.141854858398773L184.136875,38.34099731445346L184.37114583333334,57.15255889892612L184.60541666666666,43.780419921875335L184.8396875,61.45854339599643L185.07395833333334,41.74041137695346L185.30822916666668,52.392839050293304L185.54250000000002,42.42056427001987L185.77677083333336,43.10026702880893L186.01104166666664,46.95341644287143L186.24531249999998,40.60742340087924L186.47958333333332,35.62128601074252L186.71385416666666,37.887712097168304L186.948125,42.64698181152377L187.18239583333335,41.513993835449554L187.41666666666666,38.34099731445346L187.6509375,53.75269470214877L187.88520833333334,43.553552246094085L188.11947916666668,36.300988769531585L188.35375000000002,45.59356079101596L188.58802083333333,38.56741485595737L188.82229166666664,33.35485992431674L189.05656249999998,40.60742340087924L189.29083333333332,48.766557312012054L189.52510416666667,47.406701660156585L189.759375,52.84612426757846L189.99364583333332,34.034562683105804L190.22791666666666,48.08685455322299L190.4621875,45.36669311523471L190.69645833333334,34.034562683105804L190.93072916666668,43.553552246094085L191.16500000000002,58.05912933349643L191.39927083333333,33.8081451416019L191.63354166666667,43.553552246094085L191.86781249999999,41.96727905273471L192.10208333333333,37.43442687988315L192.33635416666667,51.48626861572299L192.570625,44.4601226806644L192.80489583333332,46.72654876709018L193.03916666666666,46.50013122558627L193.2734375,42.64698181152377L193.50770833333334,48.08685455322299L193.74197916666668,53.97956237793002L193.97625,68.48468933105502L194.21052083333333,32.674707031250335L194.44479166666667,44.4601226806644L194.67906250000001,42.64698181152377L194.91333333333333,83.44310150146518L195.14760416666667,50.35328063964877L195.38187499999998,31.08843383789096L195.61614583333332,46.27326354980502L195.85041666666666,48.993424987793304L196.0846875,42.64698181152377L196.31895833333334,50.57969818115268L196.55322916666668,34.48784790039096L196.7875,33.8081451416019L197.02177083333333,49.89999542236362L197.25604166666668,31.541719055176117L197.49031250000002,57.15255889892612L197.72458333333336,30.408280944824554L197.95885416666667,72.79067382812534L198.19312499999998,56.69927368164096L198.42739583333332,39.927270507812835L198.66166666666666,48.54013977050815L198.8959375,46.72654876709018L199.13020833333334,50.35328063964877L199.36447916666665,49.89999542236362L199.59875,50.57969818115268L199.83302083333334,33.35485992431674L200.06729166666668,46.50013122558627L200.30156250000002,41.287126159668304L200.53583333333336,38.56741485595737L200.77010416666664,68.71110687255893L201.00437499999998,45.36669311523471L201.23864583333332,58.96569976806674L201.47291666666666,36.07457122802768L201.7071875,50.35328063964877L201.94145833333334,47.179833984375335L202.17572916666666,53.52627716064487L202.41,47.179833984375335L202.64427083333334,63.498551940918304L202.87854166666668,42.87384948730502L203.11281250000002,34.94113311767612L203.34708333333336,49.21984252929721L203.58135416666664,54.20597991943393L203.81562499999998,43.553552246094085L204.04989583333332,40.38055572509799L204.28416666666666,53.75269470214877L204.5184375,49.21984252929721L204.75270833333335,36.300988769531585L204.98697916666666,54.43284759521518L205.22125,56.245988464355804L205.45552083333334,38.79428253173862L205.68979166666668,42.87384948730502L205.92406250000002,48.54013977050815L206.15833333333333,53.52627716064487L206.39260416666664,59.19211730957065L206.62687499999998,53.97956237793002L206.86114583333332,45.81997833251987L207.09541666666667,45.36669311523471L207.3296875,46.50013122558627L207.56395833333332,38.34099731445346L207.79822916666666,44.23370513916049L208.0325,42.64698181152377L208.26677083333334,41.96727905273471L208.50104166666668,45.81997833251987L208.73531250000002,47.179833984375335L208.96958333333333,66.44468078613315L209.20385416666667,68.03140411376987L209.43812499999999,43.32713470459018L209.67239583333333,58.96569976806674L209.90666666666667,40.60742340087924L210.1409375,45.59356079101596L210.37520833333332,51.71313629150424L210.60947916666666,34.261430358887054L210.84375,37.43442687988315L211.07802083333334,31.08843383789096L211.31229166666668,48.993424987793304L211.5465625,36.75427398681674L211.78083333333333,51.032983398437835L212.01510416666667,49.67312774658237L212.24937500000001,41.0607086181644L212.48364583333333,49.67312774658237L212.71791666666667,470.55137786865265L215.99770833333332,475.9908004760745L216.23197916666666,141.23719177246127L216.46625,46.95341644287143L216.70052083333334,41.513993835449554L216.93479166666665,43.553552246094085L217.1690625,44.913407897949554L217.40333333333334,48.993424987793304L217.63760416666668,47.406701660156585L217.87187500000002,46.95341644287143L218.10614583333336,49.67312774658237L218.34041666666664,44.23370513916049L218.57468749999998,46.27326354980502L218.80895833333332,43.780419921875335L219.04322916666666,42.42056427001987L219.2775,60.55197296142612L219.51177083333334,45.36669311523471L219.74604166666666,46.72654876709018L219.9803125,50.57969818115268L220.21458333333334,60.09868774414096L220.44885416666668,59.645402526855804L220.68312500000002,43.553552246094085L220.91739583333336,51.259851074219085L221.15166666666664,51.93955383300815L221.38593749999998,54.659265136719085L221.62020833333332,46.27326354980502L221.85447916666666,67.35125122070346L222.08875,50.35328063964877L222.32302083333335,38.79428253173862L222.55729166666666,43.780419921875335L222.7915625,41.287126159668304L223.02583333333334,33.12799224853549L223.26010416666668,68.48468933105502L223.49437500000002,40.38055572509799L223.72864583333333,56.92569122314487L223.96291666666664,54.886132812500335L224.19718749999998,35.39441833496127L224.43145833333332,40.83384094238315L224.66572916666667,35.84770355224643L224.9,64.17825469970737L225.13427083333332,55.33941802978549L225.36854166666666,45.36669311523471L225.6028125,42.64698181152377L225.83708333333334,51.032983398437835L226.07135416666668,35.84770355224643L226.30562500000002,36.98114166259799L226.53989583333333,43.553552246094085L226.77416666666667,45.140275573730804L227.00843749999999,55.11255035400424L227.24270833333333,49.44671020507846L227.47697916666667,45.140275573730804L227.71125,48.766557312012054L227.94552083333332,33.12799224853549L228.17979166666666,61.45854339599643L228.4140625,44.913407897949554L228.64833333333334,57.60584411621127L228.88260416666668,65.53811035156284L229.116875,47.179833984375335L229.35114583333333,69.39125976562534L229.58541666666667,53.29940948486362L229.81968750000001,58.96569976806674L230.05395833333333,56.245988464355804L230.28822916666667,66.21826324462924L230.52249999999998,58.73883209228549L230.75677083333332,41.74041137695346L230.99104166666666,40.38055572509799L231.2253125,42.87384948730502L231.45958333333334,43.780419921875335L231.69385416666668,43.553552246094085L231.928125,41.513993835449554L232.16239583333333,49.44671020507846L232.39666666666668,59.645402526855804L232.63093750000002,30.408280944824554L232.86520833333336,38.34099731445346L233.09947916666667,44.00683746337924L233.33374999999998,68.25782165527377L233.56802083333332,27.46215209960971L233.80229166666666,66.6715484619144L234.0365625,37.2075592041019L234.27083333333334,48.766557312012054L234.50510416666665,40.83384094238315L234.739375,59.4189849853519L234.97364583333334,43.553552246094085L235.20791666666668,40.38055572509799L235.44218750000002,52.619706726074554L235.67645833333336,37.887712097168304L235.91072916666664,50.12641296386752L236.14499999999998,39.47398529052768L236.37927083333332,39.47398529052768L236.61354166666666,48.54013977050815L236.8478125,29.72857818603549L237.08208333333334,52.392839050293304L237.31635416666666,63.72496948242221L237.550625,41.96727905273471L237.78489583333334,47.85998687744174L238.01916666666668,45.140275573730804L238.25343750000002,59.645402526855804L238.48770833333336,72.33738861084018L238.72197916666664,57.83226165771518L238.95624999999998,73.01754150390659L239.19052083333332,40.83384094238315L239.42479166666666,43.32713470459018L239.6590625,41.0607086181644L239.89333333333335,51.93955383300815L240.12760416666666,41.74041137695346L240.361875,36.300988769531585L240.59614583333334,67.80453643798862L240.83041666666668,55.79270324707065L241.06468750000002,47.85998687744174L241.29895833333333,46.72654876709018L241.53322916666664,47.406701660156585L241.76749999999998,61.23212585449252L242.00177083333332,41.96727905273471L242.23604166666667,17.94316253662143L242.4703125,56.92569122314487L242.70458333333332,49.44671020507846L242.93885416666666,50.12641296386752L243.173125,62.8183990478519L243.40739583333334,49.89999542236362L243.64166666666668,64.63153991699252L243.87593750000002,56.019120788574554L244.11020833333333,48.766557312012054L244.34447916666667,47.406701660156585L244.57874999999999,52.1664215087894L244.81302083333333,51.48626861572299L245.04729166666667,38.34099731445346L245.2815625,39.24756774902377L245.51583333333332,40.38055572509799L245.75010416666666,43.10026702880893L245.984375,57.37897644043002L246.21864583333334,48.766557312012054L246.45291666666668,50.57969818115268L246.6871875,36.98114166259799L246.92145833333333,50.35328063964877L247.15572916666667,57.60584411621127L247.39000000000001,56.47240600585971L247.62427083333333,47.85998687744174L247.85854166666667,36.527856445312835L248.09281249999998,31.314851379394867L248.32708333333332,41.287126159668304L248.56135416666666,54.659265136719085L248.795625,51.93955383300815L249.02989583333334,37.660844421387054L249.26416666666668,41.74041137695346L249.4984375,39.70085296630893L249.73270833333333,40.83384094238315L249.96697916666668,67.35125122070346L250.20125000000002,39.02070007324252L250.43552083333336,39.24756774902377L250.66979166666667,52.1664215087894L250.90406249999998,63.271684265137054L251.13833333333332,65.53811035156284L251.37260416666666,45.140275573730804L251.606875,48.3132720947269L251.84114583333334,55.79270324707065L252.07541666666665,36.300988769531585L252.3096875,40.60742340087924L252.54395833333334,44.913407897949554L252.77822916666668,40.38055572509799L253.01250000000002,47.63311920166049L253.24677083333336,30.86156616210971L253.48104166666664,49.21984252929721L253.71531249999998,38.34099731445346L253.94958333333332,45.36669311523471L254.18385416666666,48.993424987793304L254.418125,34.034562683105804L254.65239583333334,44.00683746337924L254.88666666666666,50.57969818115268L255.1209375,29.72857818603549L255.35520833333334,30.181863403320648L255.58947916666668,56.019120788574554L255.82375000000002,27.23528442382846L256.05802083333333,31.314851379394867L256.29229166666664,46.50013122558627L256.5265625,60.77884063720737L256.7608333333333,41.287126159668304L256.9951041666667,342.04389343261755L257.229375,424.0894180297855L257.4636458333334,74.1505294799808L257.69791666666663,31.08843383789096L257.9321875,41.287126159668304L258.1664583333333,42.42056427001987L258.4007291666667,45.36669311523471L258.635,64.85840759277377L258.8692708333333,44.00683746337924L259.1035416666667,62.36511383056674L259.3378125,60.09868774414096L259.57208333333335,50.12641296386752L259.80635416666667,50.35328063964877L260.04062500000003,32.674707031250335L260.27489583333335,34.94113311767612L260.50916666666666,44.913407897949554L260.74343749999997,45.59356079101596L260.97770833333334,42.19369659423862L261.21197916666665,45.140275573730804L261.44625,45.140275573730804L261.68052083333333,46.95341644287143L261.91479166666664,49.21984252929721L262.1490625,62.8183990478519L262.3833333333333,56.47240600585971L262.6176041666667,44.23370513916049L262.851875,60.09868774414096L263.0861458333333,54.886132812500335" style="fill: none;" fill="none"></path></g></g></g></g></g></g><g transform="translate(48, 177)" clip-path="url(#clip_1)"><clipPath id="clip_1"><rect width="281" height="23"></rect></clipPath><g><g><line x1="0" y1="0" x2="0" y2="5" style="visibility: inherit;" fill="rgb(0, 0, 0)" stroke="rgb(204, 204, 204)" stroke-width="1px"></line><line x1="23.427083333333332" y1="0" x2="23.427083333333332" y2="5" style="visibility: inherit;" fill="rgb(0, 0, 0)" stroke="rgb(204, 204, 204)" stroke-width="1px"></line><line x1="46.854166666666664" y1="0" x2="46.854166666666664" y2="5" style="visibility: inherit;" fill="rgb(0, 0, 0)" stroke="rgb(204, 204, 204)" stroke-width="1px"></line><line x1="70.28125" y1="0" x2="70.28125" y2="5" style="visibility: inherit;" fill="rgb(0, 0, 0)" stroke="rgb(204, 204, 204)" stroke-width="1px"></line><line x1="93.70833333333333" y1="0" x2="93.70833333333333" y2="5" style="visibility: inherit;" fill="rgb(0, 0, 0)" stroke="rgb(204, 204, 204)" stroke-width="1px"></line><line x1="117.13541666666667" y1="0" x2="117.13541666666667" y2="5" style="visibility: inherit;" fill="rgb(0, 0, 0)" stroke="rgb(204, 204, 204)" stroke-width="1px"></line><line x1="140.5625" y1="0" x2="140.5625" y2="5" style="visibility: inherit;" fill="rgb(0, 0, 0)" stroke="rgb(204, 204, 204)" stroke-width="1px"></line><line x1="163.98958333333334" y1="0" x2="163.98958333333334" y2="5" style="visibility: inherit;" fill="rgb(0, 0, 0)" stroke="rgb(204, 204, 204)" stroke-width="1px"></line><line x1="187.41666666666666" y1="0" x2="187.41666666666666" y2="5" style="visibility: inherit;" fill="rgb(0, 0, 0)" stroke="rgb(204, 204, 204)" stroke-width="1px"></line><line x1="210.84375" y1="0" x2="210.84375" y2="5" style="visibility: inherit;" fill="rgb(0, 0, 0)" stroke="rgb(204, 204, 204)" stroke-width="1px"></line><line x1="234.27083333333334" y1="0" x2="234.27083333333334" y2="5" style="visibility: inherit;" fill="rgb(0, 0, 0)" stroke="rgb(204, 204, 204)" stroke-width="1px"></line><line x1="257.69791666666663" y1="0" x2="257.69791666666663" y2="5" style="visibility: inherit;" fill="rgb(0, 0, 0)" stroke="rgb(204, 204, 204)" stroke-width="1px"></line><line x1="281.125" y1="0" x2="281.125" y2="5" style="visibility: inherit;" fill="rgb(0, 0, 0)" stroke="rgb(204, 204, 204)" stroke-width="1px"></line></g><g transform="translate(0, 8)"><text x="0" y="0" dx="0em" dy="0.95em" style="text-anchor: middle; visibility: hidden; font-family: &quot;Helvetica Neue&quot;, sans-serif; font-size: 12px; font-weight: 200;" fill="rgb(50, 49, 63)" stroke="none" stroke-width="1px">-100</text><text x="23.427083333333332" y="0" dx="0em" dy="0.95em" style="text-anchor: middle; visibility: inherit; font-family: &quot;Helvetica Neue&quot;, sans-serif; font-size: 12px; font-weight: 200;" fill="rgb(50, 49, 63)" stroke="none" stroke-width="1px">0</text><text x="46.854166666666664" y="0" dx="0em" dy="0.95em" style="text-anchor: middle; visibility: hidden; font-family: &quot;Helvetica Neue&quot;, sans-serif; font-size: 12px; font-weight: 200;" fill="rgb(50, 49, 63)" stroke="none" stroke-width="1px">100</text><text x="70.28125" y="0" dx="0em" dy="0.95em" style="text-anchor: middle; visibility: inherit; font-family: &quot;Helvetica Neue&quot;, sans-serif; font-size: 12px; font-weight: 200;" fill="rgb(50, 49, 63)" stroke="none" stroke-width="1px">200</text><text x="93.70833333333333" y="0" dx="0em" dy="0.95em" style="text-anchor: middle; visibility: hidden; font-family: &quot;Helvetica Neue&quot;, sans-serif; font-size: 12px; font-weight: 200;" fill="rgb(50, 49, 63)" stroke="none" stroke-width="1px">300</text><text x="117.13541666666667" y="0" dx="0em" dy="0.95em" style="text-anchor: middle; visibility: inherit; font-family: &quot;Helvetica Neue&quot;, sans-serif; font-size: 12px; font-weight: 200;" fill="rgb(50, 49, 63)" stroke="none" stroke-width="1px">400</text><text x="140.5625" y="0" dx="0em" dy="0.95em" style="text-anchor: middle; visibility: hidden; font-family: &quot;Helvetica Neue&quot;, sans-serif; font-size: 12px; font-weight: 200;" fill="rgb(50, 49, 63)" stroke="none" stroke-width="1px">500</text><text x="163.98958333333334" y="0" dx="0em" dy="0.95em" style="text-anchor: middle; visibility: inherit; font-family: &quot;Helvetica Neue&quot;, sans-serif; font-size: 12px; font-weight: 200;" fill="rgb(50, 49, 63)" stroke="none" stroke-width="1px">600</text><text x="187.41666666666666" y="0" dx="0em" dy="0.95em" style="text-anchor: middle; visibility: hidden; font-family: &quot;Helvetica Neue&quot;, sans-serif; font-size: 12px; font-weight: 200;" fill="rgb(50, 49, 63)" stroke="none" stroke-width="1px">700</text><text x="210.84375" y="0" dx="0em" dy="0.95em" style="text-anchor: middle; visibility: inherit; font-family: &quot;Helvetica Neue&quot;, sans-serif; font-size: 12px; font-weight: 200;" fill="rgb(50, 49, 63)" stroke="none" stroke-width="1px">800</text><text x="234.27083333333334" y="0" dx="0em" dy="0.95em" style="text-anchor: middle; visibility: hidden; font-family: &quot;Helvetica Neue&quot;, sans-serif; font-size: 12px; font-weight: 200;" fill="rgb(50, 49, 63)" stroke="none" stroke-width="1px">900</text><text x="257.69791666666663" y="0" dx="0em" dy="0.95em" style="text-anchor: middle; visibility: inherit; font-family: &quot;Helvetica Neue&quot;, sans-serif; font-size: 12px; font-weight: 200;" fill="rgb(50, 49, 63)" stroke="none" stroke-width="1px">1k</text><text x="281.125" y="0" dx="0em" dy="0.95em" style="text-anchor: middle; visibility: hidden; font-family: &quot;Helvetica Neue&quot;, sans-serif; font-size: 12px; font-weight: 200;" fill="rgb(50, 49, 63)" stroke="none" stroke-width="1px">1.1k</text></g><line x1="0" y1="0" x2="281.125" y2="0" fill="rgb(0, 0, 0)" stroke="rgb(204, 204, 204)" stroke-width="1px"></line></g></g></g></g></svg>