<svg viewBox="0 0 330 200" xmlns="http://www.w3.org/2000/svg"><g><g><g><g><g><line x1="58.59375" y1="177" x2="53.59375" y2="177" style="visibility: inherit;" fill="rgb(0, 0, 0)" stroke="rgb(204, 204, 204)" stroke-width="1px"></line><line x1="58.59375" y1="165.2" x2="53.59375" y2="165.2" style="visibility: inherit;" fill="rgb(0, 0, 0)" stroke="rgb(204, 204, 204)" stroke-width="1px"></line><line x1="58.59375" y1="153.4" x2="53.59375" y2="153.4" style="visibility: inherit;" fill="rgb(0, 0, 0)" stroke="rgb(204, 204, 204)" stroke-width="1px"></line><line x1="58.59375" y1="141.6" x2="53.59375" y2="141.6" style="visibility: inherit;" fill="rgb(0, 0, 0)" stroke="rgb(204, 204, 204)" stroke-width="1px"></line><line x1="58.59375" y1="129.8" x2="53.59375" y2="129.8" style="visibility: inherit;" fill="rgb(0, 0, 0)" stroke="rgb(204, 204, 204)" stroke-width="1px"></line><line x1="58.59375" y1="118" x2="53.59375" y2="118" style="visibility: inherit;" fill="rgb(0, 0, 0)" stroke="rgb(204, 204, 204)" stroke-width="1px"></line><line x1="58.59375" y1="106.2" x2="53.59375" y2="106.2" style="visibility: inherit;" fill="rgb(0, 0, 0)" stroke="rgb(204, 204, 204)" stroke-width="1px"></line><line x1="58.59375" y1="94.39999999999999" x2="53.59375" y2="94.39999999999999" style="visibility: inherit;" fill="rgb(0, 0, 0)" stroke="rgb(204, 204, 204)" stroke-width="1px"></line><line x1="58.59375" y1="82.6" x2="53.59375" y2="82.6" style="visibility: inherit;" fill="rgb(0, 0, 0)" stroke="rgb(204, 204, 204)" stroke-width="1px"></line><line x1="58.59375" y1="70.79999999999998" x2="53.59375" y2="70.79999999999998" style="visibility: inherit;" fill="rgb(0, 0, 0)" stroke="rgb(204, 204, 204)" stroke-width="1px"></line><line x1="58.59375" y1="58.999999999999986" x2="53.59375" y2="58.999999999999986" style="visibility: inherit;" fill="rgb(0, 0, 0)" stroke="rgb(204, 204, 204)" stroke-width="1px"></line><line x1="58.59375" y1="47.19999999999999" x2="53.59375" y2="47.19999999999999" style="visibility: inherit;" fill="rgb(0, 0, 0)" stroke="rgb(204, 204, 204)" stroke-width="1px"></line><line x1="58.59375" y1="35.400000000000006" x2="53.59375" y2="35.400000000000006" style="visibility: inherit;" fill="rgb(0, 0, 0)" stroke="rgb(204, 204, 204)" stroke-width="1px"></line><line x1="58.59375" y1="23.599999999999994" x2="53.59375" y2="23.599999999999994" style="visibility: inherit;" fill="rgb(0, 0, 0)" stroke="rgb(204, 204, 204)" stroke-width="1px"></line><line x1="58.59375" y1="11.800000000000011" x2="53.59375" y2="11.800000000000011" style="visibility: inherit;" fill="rgb(0, 0, 0)" stroke="rgb(204, 204, 204)" stroke-width="1px"></line><line x1="58.59375" y1="0" x2="53.59375" y2="0" style="visibility: inherit;" fill="rgb(0, 0, 0)" stroke="rgb(204, 204, 204)" stroke-width="1px"></line></g><g transform="translate(48.59375, 0)"><text x="0" y="177" dx="0em" dy="0.3em" style="text-anchor: end; visibility: hidden; font-family: &quot;Helvetica Neue&quot;, sans-serif; font-size: 12px; font-weight: 200;" fill="rgb(50, 49, 63)" stroke="none" stroke-width="1px">-0.04</text><text x="0" y="165.2" dx="0em" dy="0.3em" style="text-anchor: end; visibility: inherit; font-family: &quot;Helvetica Neue&quot;, sans-serif; font-size: 12px; font-weight: 200;" fill="rgb(50, 49, 63)" stroke="none" stroke-width="1px">-0.02</text><text x="0" y="153.4" dx="0em" dy="0.3em" style="text-anchor: end; visibility: hidden; font-family: &quot;Helvetica Neue&quot;, sans-serif; font-size: 12px; font-weight: 200;" fill="rgb(50, 49, 63)" stroke="none" stroke-width="1px">0</text><text x="0" y="141.6" dx="0em" dy="0.3em" style="text-anchor: end; visibility: hidden; font-family: &quot;Helvetica Neue&quot;, sans-serif; font-size: 12px; font-weight: 200;" fill="rgb(50, 49, 63)" stroke="none" stroke-width="1px">0.02</text><text x="0" y="129.8" dx="0em" dy="0.3em" style="text-anchor: end; visibility: inherit; font-family: &quot;Helvetica Neue&quot;, sans-serif; font-size: 12px; font-weight: 200;" fill="rgb(50, 49, 63)" stroke="none" stroke-width="1px">0.04</text><text x="0" y="118" dx="0em" dy="0.3em" style="text-anchor: end; visibility: hidden; font-family: &quot;Helvetica Neue&quot;, sans-serif; font-size: 12px; font-weight: 200;" fill="rgb(50, 49, 63)" stroke="none" stroke-width="1px">0.06</text><text x="0" y="106.2" dx="0em" dy="0.3em" style="text-anchor: end; visibility: hidden; font-family: &quot;Helvetica Neue&quot;, sans-serif; font-size: 12px; font-weight: 200;" fill="rgb(50, 49, 63)" stroke="none" stroke-width="1px">0.08</text><text x="0" y="94.39999999999999" dx="0em" dy="0.3em" style="text-anchor: end; visibility: inherit; font-family: &quot;Helvetica Neue&quot;, sans-serif; font-size: 12px; font-weight: 200;" fill="rgb(50, 49, 63)" stroke="none" stroke-width="1px">0.1</text><text x="0" y="82.6" dx="0em" dy="0.3em" style="text-anchor: end; visibility: hidden; font-family: &quot;Helvetica Neue&quot;, sans-serif; font-size: 12px; font-weight: 200;" fill="rgb(50, 49, 63)" stroke="none" stroke-width="1px">0.12</text><text x="0" y="70.79999999999998" dx="0em" dy="0.3em" style="text-anchor: end; visibility: hidden; font-family: &quot;Helvetica Neue&quot;, sans-serif; font-size: 12px; font-weight: 200;" fill="rgb(50, 49, 63)" stroke="none" stroke-width="1px">0.14</text><text x="0" y="58.999999999999986" dx="0em" dy="0.3em" style="text-anchor: end; visibility: inherit; font-family: &quot;Helvetica Neue&quot;, sans-serif; font-size: 12px; font-weight: 200;" fill="rgb(50, 49, 63)" stroke="none" stroke-width="1px">0.16</text><text x="0" y="47.19999999999999" dx="0em" dy="0.3em" style="text-anchor: end; visibility: hidden; font-family: &quot;Helvetica Neue&quot;, sans-serif; font-size: 12px; font-weight: 200;" fill="rgb(50, 49, 63)" stroke="none" stroke-width="1px">0.18</text><text x="0" y="35.400000000000006" dx="0em" dy="0.3em" style="text-anchor: end; visibility: hidden; font-family: &quot;Helvetica Neue&quot;, sans-serif; font-size: 12px; font-weight: 200;" fill="rgb(50, 49, 63)" stroke="none" stroke-width="1px">0.2</text><text x="0" y="23.599999999999994" dx="0em" dy="0.3em" style="text-anchor: end; visibility: inherit; font-family: &quot;Helvetica Neue&quot;, sans-serif; font-size: 12px; font-weight: 200;" fill="rgb(50, 49, 63)" stroke="none" stroke-width="1px">0.22</text><text x="0" y="11.800000000000011" dx="0em" dy="0.3em" style="text-anchor: end; visibility: hidden; font-family: &quot;Helvetica Neue&quot;, sans-serif; font-size: 12px; font-weight: 200;" fill="rgb(50, 49, 63)" stroke="none" stroke-width="1px">0.24</text><text x="0" y="0" dx="0em" dy="0.3em" style="text-anchor: end; visibility: hidden; font-family: &quot;Helvetica Neue&quot;, sans-serif; font-size: 12px; font-weight: 200;" fill="rgb(50, 49, 63)" stroke="none" stroke-width="1px">0.26</text></g><line x1="58.59375" y1="0" x2="58.59375" y2="177" fill="rgb(0, 0, 0)" stroke="rgb(204, 204, 204)" stroke-width="1px"></line></g></g><g transform="translate(58, 0)" clip-path="url(#clip_0)"><clipPath id="clip_0"><rect width="271" height="177"></rect></clipPath><g><g><g><line x1="0" y1="0" x2="0" y2="177" fill="rgb(0, 0, 0)" stroke="rgb(60, 60, 60)" stroke-width="1px" opacity="0.25"></line><line x1="22.6171875" y1="0" x2="22.6171875" y2="177" fill="rgb(0, 0, 0)" stroke="rgb(60, 60, 60)" stroke-width="1px" opacity="0.25"></line><line x1="45.234375" y1="0" x2="45.234375" y2="177" fill="rgb(0, 0, 0)" stroke="rgb(60, 60, 60)" stroke-width="1px" opacity="0.25"></line><line x1="67.8515625" y1="0" x2="67.8515625" y2="177" fill="rgb(0, 0, 0)" stroke="rgb(60, 60, 60)" stroke-width="1px" opacity="0.25"></line><line x1="90.46875" y1="0" x2="90.46875" y2="177" fill="rgb(0, 0, 0)" stroke="rgb(60, 60, 60)" stroke-width="1px" opacity="0.25"></line><line x1="113.0859375" y1="0" x2="113.0859375" y2="177" fill="rgb(0, 0, 0)" stroke="rgb(60, 60, 60)" stroke-width="1px" opacity="0.25"></line><line x1="135.703125" y1="0" x2="135.703125" y2="177" fill="rgb(0, 0, 0)" stroke="rgb(60, 60, 60)" stroke-width="1px" opacity="0.25"></line><line x1="158.3203125" y1="0" x2="158.3203125" y2="177" fill="rgb(0, 0, 0)" stroke="rgb(60, 60, 60)" stroke-width="1px" opacity="0.25"></line><line x1="180.9375" y1="0" x2="180.9375" y2="177" fill="rgb(0, 0, 0)" stroke="rgb(60, 60, 60)" stroke-width="1px" opacity="0.25"></line><line x1="203.5546875" y1="0" x2="203.5546875" y2="177" fill="rgb(0, 0, 0)" stroke="rgb(60, 60, 60)" stroke-width="1px" opacity="0.25"></line><line x1="226.171875" y1="0" x2="226.171875" y2="177" fill="rgb(0, 0, 0)" stroke="rgb(60, 60, 60)" stroke-width="1px" opacity="0.25"></line><line x1="248.7890625" y1="0" x2="248.7890625" y2="177" fill="rgb(0, 0, 0)" stroke="rgb(60, 60, 60)" stroke-width="1px" opacity="0.25"></line><line x1="271.40625" y1="0" x2="271.40625" y2="177" fill="rgb(0, 0, 0)" stroke="rgb(60, 60, 60)" stroke-width="1px" opacity="0.25"></line></g><g><line x1="0" y1="177" x2="271.40625" y2="177" fill="rgb(0, 0, 0)" stroke="rgb(60, 60, 60)" stroke-width="1px" opacity="0.25"></line><line x1="0" y1="165.2" x2="271.40625" y2="165.2" fill="rgb(0, 0, 0)" stroke="rgb(60, 60, 60)" stroke-width="1px" opacity="0.25"></line><line x1="0" y1="153.4" x2="271.40625" y2="153.4" fill="rgb(0, 0, 0)" stroke="rgb(60, 60, 60)" stroke-width="1px" opacity="0.25"></line><line x1="0" y1="141.6" x2="271.40625" y2="141.6" fill="rgb(0, 0, 0)" stroke="rgb(60, 60, 60)" stroke-width="1px" opacity="0.25"></line><line x1="0" y1="129.8" x2="271.40625" y2="129.8" fill="rgb(0, 0, 0)" stroke="rgb(60, 60, 60)" stroke-width="1px" opacity="0.25"></line><line x1="0" y1="118" x2="271.40625" y2="118" fill="rgb(0, 0, 0)" stroke="rgb(60, 60, 60)" stroke-width="1px" opacity="0.25"></line><line x1="0" y1="106.2" x2="271.40625" y2="106.2" fill="rgb(0, 0, 0)" stroke="rgb(60, 60, 60)" stroke-width="1px" opacity="0.25"></line><line x1="0" y1="94.39999999999999" x2="271.40625" y2="94.39999999999999" fill="rgb(0, 0, 0)" stroke="rgb(60, 60, 60)" stroke-width="1px" opacity="0.25"></line><line x1="0" y1="82.6" x2="271.40625" y2="82.6" fill="rgb(0, 0, 0)" stroke="rgb(60, 60, 60)" stroke-width="1px" opacity="0.25"></line><line x1="0" y1="70.79999999999998" x2="271.40625" y2="70.79999999999998" fill="rgb(0, 0, 0)" stroke="rgb(60, 60, 60)" stroke-width="1px" opacity="0.25"></line><line x1="0" y1="58.999999999999986" x2="271.40625" y2="58.999999999999986" fill="rgb(0, 0, 0)" stroke="rgb(60, 60, 60)" stroke-width="1px" opacity="0.25"></line><line x1="0" y1="47.19999999999999" x2="271.40625" y2="47.19999999999999" fill="rgb(0, 0, 0)" stroke="rgb(60, 60, 60)" stroke-width="1px" opacity="0.25"></line><line x1="0" y1="35.400000000000006" x2="271.40625" y2="35.400000000000006" fill="rgb(0, 0, 0)" stroke="rgb(60, 60, 60)" stroke-width="1px" opacity="0.25"></line><line x1="0" y1="23.599999999999994" x2="271.40625" y2="23.599999999999994" fill="rgb(0, 0, 0)" stroke="rgb(60, 60, 60)" stroke-width="1px" opacity="0.25"></line><line x1="0" y1="11.800000000000011" x2="271.40625" y2="11.800000000000011" fill="rgb(0, 0, 0)" stroke="rgb(60, 60, 60)" stroke-width="1px" opacity="0.25"></line><line x1="0" y1="0" x2="271.40625" y2="0" fill="rgb(0, 0, 0)" stroke="rgb(60, 60, 60)" stroke-width="1px" opacity="0.25"></line></g></g></g><g><g><line x1="0" y1="153.4" x2="271.40625" y2="153.4" fill="rgb(0, 0, 0)" stroke="rgb(153, 153, 153)" stroke-width="1.5px"></line></g></g><g><g><line x1="22.6171875" y1="0" x2="22.6171875" y2="177" fill="rgb(0, 0, 0)" stroke="rgb(153, 153, 153)" stroke-width="1.5px"></line></g></g><g><g><g><g><g><path stroke="rgb(238, 51, 119)" stroke-width="2px" d="M23.521875,-11.620492076873774L23.748046875,19.554111176729208L23.97421875,23.54291629195214L24.200390625,25.49580451250077L24.4265625,26.2931312263012L24.652734375,26.917780452966696L24.87890625,27.464473807811743L25.105078125,27.77953263521195L25.33125,27.981257849931723L25.557421875,28.187545949220663L25.78359375,28.37125700116158L26.009765625,28.50163769125939L26.2359375,28.603084945678717L26.462109375,28.641671651601797L26.68828125,28.837611937522894L26.914453125,28.891926968097692L27.140625,29.042880201339727L27.366796875,29.092104846239096L27.59296875,29.316213691234594L27.819140625,29.50144570469857L28.0453125,32.95686807632447L28.271484375,38.77669986486433L28.49765625,48.73369645476342L28.723828125,53.97737395167351L28.950000000000003,55.86807858347892L29.176171874999998,57.698041462898246L29.40234375,59.07289397120475L29.628515625,59.52696692347526L29.8546875,60.674105995893484L30.080859375000003,61.338836514949804L30.307031249999998,61.68048139810561L30.533203125,61.90081861019134L30.759375,62.83986728787423L30.985546875,62.61244397759437L31.211718750000003,63.51460274457931L31.437890624999998,63.96380510330199L31.6640625,64.10736452937125L32.11640625,64.54337056875228L32.342578125,65.07932927608489L32.56875,65.12052711248397L32.794921875,64.86539241075516L33.02109375,65.75755503177643L33.247265625,65.97784828543662L33.4734375,66.30144383907317L33.699609375,66.51547741293906L33.92578125,66.73017036318778L34.151953125,66.81136157512664L34.378125000000004,67.72834312319755L34.604296875,68.19250013828278L34.83046875,67.94181402921676L35.056640625,68.04130952954291L35.2828125,68.55258997678756L35.508984375,68.39347805976868L35.735156249999996,69.0113488972187L35.961328125,68.56278833150863L36.1875,69.4834799706936L36.413671875,69.85367145538329L36.639843750000004,69.7599257171154L36.866015625,69.8860424399376L37.092187499999994,70.1111974954605L37.318359375,70.45878555774688L37.54453125,70.7247867822647L37.770703125,70.96689220666886L37.996875,71.02144461274146L38.223046875,71.58946659564971L38.44921875,71.5089699268341L38.675390625,71.79591294527054L38.901562500000004,71.96576830148697L39.127734375,72.02023279070855L39.353906249999994,72.29707416296004L39.580078125,72.53017690181731L39.80625,72.7627081811428L40.032421875,72.86340814232825L40.25859375,73.16324856281281L40.484765625,73.33140712380408L40.7109375,72.68846240043639L40.937109375000006,73.37935697436332L41.163281250000004,73.91684543490409L41.389453124999996,73.87949835658073L41.615624999999994,73.89559593200683L41.841796875,74.15341209769248L42.06796875,74.53556906580926L42.294140625,74.8889508485794L42.5203125,74.89995803833007L42.746484375,74.87601827979088L42.97265625,75.18972318768502L43.198828125000006,74.8290091395378L43.425000000000004,75.07748853564262L43.651171874999996,75.49842562675475L43.877343749999994,75.68219822049141L44.103515625,75.54986577630042L44.3296875,75.73837708830834L44.555859375,76.10189568400382L44.78203125,76.2325928747654L45.008203125,76.16725307106971L45.234375,76.18099447488784L45.460546875000006,76.85253854990006L45.68671875,76.77245509028434L45.912890624999996,76.7089791238308L46.1390625,76.9878513753414L46.365234375,77.06842716932296L46.59140625,76.97632547616958L46.817578125,77.08149161338805L47.04375,77.45396893620492L47.269921875,77.4376779437065L47.49609375,77.64273520708085L47.722265625000006,77.50525083541869L47.9484375,77.78914313912392L48.174609374999996,77.80866068005562L48.40078125,77.6796954512596L48.626953125,77.85461481809615L48.853125,77.57177751660346L49.079296875000004,78.07854782938956L49.30546875,77.73686777949334L49.531640625,77.94146787524222L49.7578125,77.9448438823223L49.983984375,78.54446318149566L50.21015625,78.34944602251052L50.436328124999996,78.30670964121818L50.6625,78.51001735925674L50.888671875,78.45492866039277L51.11484375,78.3628973007202L51.341015625000004,78.40204667448998L51.5671875,78.7088940680027L51.793359375,78.86317934989928L52.01953125,78.31835862398148L52.245703125,78.9595713853836L52.471875,78.80052980184554L52.698046874999996,78.68708189725876L52.92421875,78.88114076256751L53.150390625,78.97072803378104L53.3765625,78.95847242474555L53.602734375000004,78.7883709013462L53.82890625,79.10678815245629L54.055078124999994,79.42189972996711L54.28125,79.41742476224898L54.507421875,79.24336698055266L54.73359375,79.25763588547706L54.959765625,79.28413402438164L55.1859375,79.13718979954719L55.412109375,79.68505244851112L55.63828125,79.59266942143441L55.864453125000004,79.93584405779838L56.090625,79.85403742790221L56.316796874999994,79.46027543544768L56.54296875,79.45723351240159L56.769140625,80.02740066647529L56.9953125,79.43767201304435L57.221484375,79.98921837806702L57.44765625,80.16044963300227L57.673828125,80.58943551182747L57.900000000000006,80.04093546569347L58.126171875000004,80.20294863879681L58.352343749999996,80.15952211022378L58.578515624999994,79.98507749438286L58.8046875,80.21930117309094L59.030859375,80.38467716574668L59.25703125,80.57266976833343L59.483203125,80.3433782249689L59.709375,80.75178716480733L59.935546875,80.65796230137347L60.161718750000006,80.56354839503766L60.387890625000004,80.88410642147063L60.614062499999996,80.55252801775931L60.840234374999994,80.89702140688897L61.06640625,80.77513348460197L61.292578125,80.71828205287456L61.51875,80.68412635624408L61.744921875,81.07485521733761L61.97109375,81.26759972572326L62.197265625,80.72474833726882L62.423437500000006,80.82286793887616L62.649609375,81.20467763543128L62.875781249999996,80.82572963237763L63.101953125,81.35630782842635L63.328125,81.34180154800414L63.554296875,80.92714611589908L63.78046875,81.61542516350747L64.006640625,81.20684918165207L64.2328125,81.04062918722629L64.458984375,81.41667153835296L64.68515625,81.92798275649548L64.911328125,81.3977122694254L65.1375,81.4166583508253L65.36367187500001,81.7088456094265L65.58984375,81.71515364348888L65.81601562499999,81.85641404390336L66.0421875,81.50456201434135L66.268359375,81.3572793096304L66.49453125,81.89167749285699L66.720703125,81.5345548480749L66.946875,81.993814894557L67.173046875,81.79704379439355L67.39921875,81.95301268398762L67.62539062500001,81.8160030633211L67.8515625,81.80184845030307L68.077734375,81.73158530294894L68.30390625,82.07834694683552L68.530078125,82.29334760606288L68.75625000000001,82.48846586942673L68.982421875,82.04703975617886L69.20859375,82.39736203253268L69.43476562500001,82.08900686502456L69.6609375,82.213207000494L69.88710937500001,82.64315996468066L70.11328125,82.34317887723446L70.33945312499999,82.30126012265681L70.565625,82.56408754885196L70.79179687499999,82.66590844988822L71.01796875,82.44328979551791L71.244140625,82.71059658527375L71.47031249999999,82.37406406700612L71.696484375,82.81543743014336L71.92265625,82.73740682899953L72.148828125,82.52531621754169L72.375,82.71067131459712L72.601171875,82.60685030519963L72.82734375,83.31829104721547L73.053515625,82.77989704310895L73.505859375,83.26100882291793L73.73203125,82.97060627639293L73.95820312500001,82.99634833037852L74.18437499999999,82.76619080603122L74.410546875,83.39958775937556L74.63671875,83.07217221856118L74.86289062499999,83.24417714178563L75.0890625,83.2880212754011L75.315234375,83.35262697339057L75.54140625,83.41447208225726L75.767578125,83.36008671820163L75.99375,83.34304843246936L76.219921875,83.5025339961052L76.44609375,83.45690954625606L76.672265625,83.91173858344554L76.8984375,83.64552196264266L77.124609375,83.54530114829541L77.35078125,83.61788530051709L77.576953125,83.60544506609439L77.80312500000001,83.37673377394675L78.029296875,83.67241133153438L78.25546875,83.78874290883542L78.48164062500001,84.1097053527832L78.70781249999999,84.08904489278792L78.933984375,83.70655823647976L79.16015625,84.15978279113769L79.38632812499999,84.06085435450078L79.6125,84.29028656482696L79.838671875,83.89044951796531L80.06484375,84.16249942183494L80.291015625,84.24509290754794L80.5171875,83.93270235657691L80.743359375,84.3164374321699L80.96953125,84.34122558832168L81.19570312500001,84.43602193295955L81.421875,84.66976646482944L81.648046875,84.23064377307892L81.87421875000001,84.31472305357455L82.100390625,84.73006863296033L82.32656250000001,84.68740698099137L82.552734375,84.95331149697303L83.005078125,84.61310405433177L83.23124999999999,84.56690814495086L83.457421875,84.94271312057971L83.68359375,84.85087957382203L83.90976562499999,85.00524398088454L84.1359375,85.25175843536853L84.362109375,84.82196811735629L84.58828125,85.20258214473724L84.814453125,84.81950204968452L85.040625,84.77942515313624L85.266796875,85.23849617838859L85.49296875,84.66716412603856L85.71914062500001,85.33454533815384L85.9453125,85.19215520620345L86.171484375,85.50198737680913L86.39765625000001,84.86549135446549L86.623828125,85.51604088544845L86.85000000000001,85.74647534787654L87.076171875,85.46995926797389L87.30234374999999,85.25776315629481L87.528515625,85.62214773297309L87.980859375,85.75993981361388L88.20703125,85.66992174983024L88.43320312499999,85.72497528195382L88.659375,86.2421637415886L88.885546875,86.20016586184501L89.11171875,85.62615234553813L89.337890625,85.99604491293431L89.5640625,85.7817915469408L89.790234375,85.8837091565132L90.01640625,86.08347822129727L90.24257812500001,85.87730441391469L90.46875,86.22178461551665L90.694921875,86.14143740534783L90.92109375000001,86.24564524888993L91.14726562499999,86.66912753283977L91.3734375,86.24008890390395L91.599609375,86.81532886028289L91.82578124999999,86.10319797098636L92.051953125,86.58506583571435L92.278125,86.86633382141589L92.504296875,86.76417004466056L92.73046875,86.81236606240273L92.956640625,86.81777294874192L93.408984375,86.72040943205357L93.63515625,86.89415071308612L93.861328125,86.76958572268487L94.0875,86.95955205857754L94.313671875,86.77487392127514L94.53984375,87.24575217962264L94.76601562500001,86.92156318724155L94.9921875,86.90981749594211L95.218359375,86.97977733016013L95.44453125000001,87.53236990571021L95.67070312499999,87.3809199422598L95.896875,87.26445209383964L96.123046875,87.53207098841666L96.34921874999999,87.21219871342183L96.575390625,87.70659472942351L96.8015625,87.62200992703437L97.027734375,87.40020010769368L97.25390625,87.56821360588073L97.480078125,87.45888020992278L97.70625,87.62446280717849L97.932421875,87.77288403511047L98.15859375000001,87.73015204966069L98.384765625,88.07374868690967L98.6109375,87.96779569387435L98.83710937500001,87.91486974954606L99.06328125,87.95328941345214L99.28945312500001,88.61663963794707L99.515625,88.58454559147357L99.74179687499999,88.21210343539715L99.96796875,88.00183270275592L100.19414062499999,88.28307870924473L100.4203125,88.36891193091869L100.646484375,88.48120372891425L100.87265624999999,87.87887659072875L101.098828125,88.35866522192954L101.325,88.57833426594733L101.551171875,88.6854961156845L101.77734375,88.5189288496971L102.003515625,89.05472491085528L102.2296875,88.70562907457351L102.455859375,88.89649655818938L102.68203125000001,89.03326880335807L102.908203125,88.71308881938457L103.134375,88.88612236976623L103.36054687500001,89.00045823454856L103.58671875,88.82915664613246L103.81289062500001,89.01167202889918L104.0390625,88.93521953523158L104.26523437499999,89.14915640056132L104.49140625,89.02582664191722L104.71757812499999,89.12408691048621L104.94375,89.46195576488971L105.169921875,89.17306978404521L105.39609374999999,89.16876185834407L105.622265625,89.58554487824439L105.8484375,89.39105522036552L106.30078125,89.99652099013328L106.526953125,89.55822471678256L106.753125,89.86200381219386L106.979296875,90.00378731787204L107.20546875000001,89.73586511015891L107.431640625,90.27628120183944L107.6578125,89.8767650514841L107.88398437500001,89.9230268985033L108.11015624999999,89.78176649808883L108.336328125,90.33438105285167L108.5625,90.14718849360942L108.78867187499999,90.41125554740428L109.01484375,90.44587280750274L109.241015625,90.25061827301978L109.4671875,90.31940002143382L109.693359375,90.29695484936236L109.91953125,90.20663347244262L110.145703125,90.26986327171325L110.371875,90.44023733735084L110.598046875,90.93327064216136L110.82421875,90.72638031244277L111.050390625,90.84986832141875L111.2765625,90.82289543151855L111.502734375,90.48536066114902L111.955078125,90.84256682693957L112.18125,90.91657523214816L112.40742187500001,90.81796769201755L112.63359374999999,90.80914963185786L112.859765625,91.35326262712478L113.0859375,91.07681248486041L113.31210937499999,91.07318591475486L113.53828125,91.63902316391467L113.764453125,91.60994906127452L113.990625,91.35211531221866L114.216796875,91.33356485664844L114.44296875,91.91331934332847L114.669140625,91.74494099020957L114.8953125,91.54573898911475L115.12148437500001,91.45774740874766L115.34765625,91.3566254466772L115.573828125,91.22552823424338L115.80000000000001,91.68205406665801L116.026171875,92.11822275221347L116.25234375000001,91.51773307621478L116.478515625,91.81659322381019L116.70468749999999,91.77410740554332L117.15703124999999,91.9289641469717L117.383203125,91.89653162062167L117.609375,92.28025350868701L117.83554687499999,91.85416888594627L118.06171875,92.05763925015926L118.287890625,92.22086567580699L118.5140625,92.21687864661216L118.740234375,92.06128340363502L118.96640625,92.6792773246765L119.192578125,92.60449085533618L119.41875,92.57657285928725L119.64492187500001,92.4414886176586L119.87109375,92.84839857518672L120.32343750000001,92.30311188995837L120.549609375,92.61195939183234L120.77578125000001,92.56407987475394L121.001953125,92.46819775700568L121.22812499999999,92.76001576483249L121.454296875,92.80566658973693L121.68046874999999,93.09157218933105L121.906640625,93.08453884124755L122.1328125,93.06912262141704L122.35898437499999,92.98339050412177L122.58515625,92.80713480114936L122.811328125,93.12194306552409L123.0375,92.87905078530311L123.263671875,93.30025602281093L123.48984375,93.40054717063903L123.716015625,92.80528415143489L123.9421875,93.2540337383747L124.16835937500001,93.41052573323249L124.39453125,93.40350557267665L124.620703125,93.1231563180685L124.84687500000001,93.03820226490497L125.07304687499999,93.53555228710174L125.29921875,93.46976410746574L125.525390625,93.84140182435512L125.75156249999999,93.21713943183421L125.977734375,93.3560172855854L126.20390625,93.53517424464225L126.430078125,93.90530418753623L126.65625,93.93272105753421L126.882421875,93.80953196585178L127.10859375,93.66394605636596L127.334765625,93.61278724074363L127.5609375,93.52573197484016L127.787109375,93.92121713757514L128.01328125,94.03716188073157L128.23945312499998,93.7996105492115L128.465625,94.02326222658156L128.691796875,93.83207824230193L128.91796875,93.94673060774802L129.144140625,94.23791121840476L129.3703125,94.06286876797675L129.596484375,94.00656681656837L129.82265625,94.20445006489753L130.048828125,93.95913567543029L130.275,94.14944049119948L130.501171875,93.99126049280166L130.72734375000002,94.5678235977888L130.953515625,94.2505668491125L131.1796875,94.15669363141059L131.405859375,94.40826770067214L131.63203124999998,94.55074135363101L131.858203125,94.22150153815745L132.084375,94.31361641883849L132.310546875,93.85577622950076L132.53671875,94.24081687033176L132.762890625,94.12458639740943L132.9890625,94.41196900010108L133.215234375,94.43852428495883L133.44140625,94.74934991598128L133.667578125,94.8027901738882L133.89375,94.27223395705222L134.119921875,94.29582204818725L134.572265625,94.26528852581977L134.7984375,94.72304519414901L135.024609375,94.67692401409148L135.25078125000002,94.43104256093501L135.476953125,94.27399668991565L135.703125,94.14963830411433L136.15546875,94.35330208539962L136.381640625,94.83184669315814L136.6078125,94.5618936061859L136.833984375,94.4581737011671L137.06015625,94.56846099495887L137.286328125,94.35765396952628L137.51250000000002,94.8856693893671L137.738671875,94.55787141025066L137.96484375,94.55683399140834L138.191015625,94.56363435983657L138.4171875,94.37335152328014L138.64335937500002,94.1254435867071L138.86953125000002,94.4712557286024L139.095703125,94.81102798283099L139.321875,94.83392592668532L139.548046875,94.63124681413173L139.77421875000002,94.66707732677459L140.00039062500002,94.26106412112712L140.2265625,94.28924586772918L140.45273437499998,94.73527442812919L140.67890624999998,94.63613938689231L140.905078125,94.64771364033221L141.13125,94.40917764008044L141.357421875,94.80646070241927L142.0359375,94.72022745907306L142.262109375,94.76233083903789L142.48828125,94.64821476638316L142.714453125,94.54481136202811L142.94062499999998,94.66581571996211L143.166796875,94.32627644538879L143.39296875,94.57867693305015L143.619140625,94.68747403621673L143.8453125,94.75868668556213L144.071484375,94.501631000638L144.29765625,94.19327143728732L144.523828125,94.59425579905509L144.75,94.88269779980182L144.976171875,94.77778662145137L145.20234375,94.58844889104365L145.42851562500002,94.89621941149234L145.6546875,94.95682928860187L145.880859375,94.55764282643794L146.10703125,94.57262825369834L146.333203125,95.14646154046058L146.55937500000002,94.75701186954974L146.78554687500002,94.55198977291583L147.01171875,94.82431661486625L147.237890625,94.69881091415881L147.4640625,94.87071033716201L147.69023437500002,94.5275928467512L147.91640625000002,94.6980768084526L148.142578125,94.67472169697284L148.36874999999998,94.89977564811706L148.59492187499998,94.91077844202518L148.82109375,94.73351609110831L149.047265625,94.88258350789546L149.2734375,94.72929608225822L149.49960937499998,94.90360442698001L149.72578124999998,94.6595648318529L149.951953125,95.00634845495223L150.178125,94.75173685848712L150.404296875,94.7674871623516L150.63046875,94.71867133080958L150.85664062499998,94.7444661349058L151.0828125,94.82564855515956L151.308984375,95.3840084761381L151.53515625,94.8717037975788L151.761328125,94.59006656110286L151.9875,94.95628859996795L152.213671875,94.83633045256137L152.43984375,95.12179646790027L152.666015625,94.68642342984676L152.8921875,94.87793270647525L153.118359375,94.88684307932853L153.34453125,94.79051258563995L153.570703125,94.83180713057517L153.796875,95.06236028075217L154.023046875,94.75444030165671L154.24921875,95.40027748942374L154.47539062500002,95.22741098105907L154.7015625,95.02468791007995L154.927734375,94.80991583466529L155.15390625,94.80849597752093L155.380078125,95.06070744395255L155.60625000000002,94.99000910818576L155.83242187500002,95.13380590975284L156.05859375,95.22785056531428L156.284765625,95.05468953549861L156.5109375,95.34715373218059L156.73710937500002,95.31789060831069L156.96328125000002,95.1390501499176L157.189453125,94.93722383081912L157.41562499999998,94.90360003113746L157.64179687499998,95.02802435457706L157.86796875,95.47826852798461L158.094140625,95.28423164188861L158.3203125,95.38666356503963L158.54648437499998,95.00441428422927L158.77265624999998,95.11259596943854L158.998828125,95.29737521111964L159.225,95.42452935278415L159.451171875,95.38135338723659L159.67734375,95.31676966845988L160.1296875,95.40826033949851L160.355859375,95.38593825101852L160.58203125,94.99000910818576L160.808203125,95.53774427771567L161.034375,95.20260084569453L161.260546875,95.12367349267005L161.48671875,95.31299803555011L161.712890625,95.43834109008311L161.9390625,95.44810425639152L162.165234375,95.56246649622916L162.39140625000002,95.2301847577095L162.617578125,95.61133068203925L162.84375,95.71129653751849L163.069921875,95.68519842028617L163.29609375,95.5778167784214L163.52226562500002,95.60599852502345L163.74843750000002,95.60845140516757L163.974609375,94.99678749740123L164.20078125,95.63874315619468L164.426953125,95.42085003256797L164.65312500000002,96.03989895582198L164.87929687500002,95.64633038043975L165.10546875,95.39828177690505L165.33164062499998,95.79803090691566L165.55781249999998,95.64127076566218L165.783984375,95.33906098604201L166.01015625,95.78123439252376L166.236328125,95.4295538008213L166.46249999999998,95.5402235329151L166.68867187499998,95.41551347970962L166.91484375,95.6016554325819L167.141015625,96.23704370260238L167.3671875,95.91519329845904L167.593359375,95.94308931529521L167.81953124999998,95.51745306849479L168.045703125,95.88348169028758L168.271875,95.60715463161468L168.498046875,95.8429827928543L168.72421875,95.84605109095573L168.950390625,95.82223881185054L169.1765625,95.80953922271728L169.402734375,95.98673563599586L169.62890625,95.73743421733379L169.855078125,95.75591433942317L170.08125,95.94988528788089L170.307421875,95.95293160676955L170.53359375,95.84975678622722L170.759765625,95.65993111729621L170.9859375,96.06527615487575L171.212109375,95.97367558777331L171.43828125000002,95.99185679256915L171.664453125,95.97417671382426L171.890625,95.9109776854515L172.116796875,96.42021846175193L172.34296875,96.25153679549693L172.56914062500002,95.97830440998077L172.79531250000002,96.05913516283034L173.021484375,96.00048583149909L173.24765625,96.2558051586151L173.473828125,95.91018203794955L173.70000000000002,95.87535817325114L173.92617187500002,96.09569978117942L174.15234375,96.02166939675807L174.37851562499998,96.00053418576717L174.60468749999998,96.16570357382297L174.830859375,96.22616838812827L175.05703125,96.34399015605449L175.283203125,96.22634422183036L175.50937499999998,96.40409890711307L175.73554687499998,96.23856026828288L175.96171875,96.36652764081954L176.187890625,96.1603494375944L176.4140625,95.81731986403464L176.640234375,96.08941812217235L176.86640624999998,96.5914585083723L177.092578125,96.33559409677981L177.31875,96.74360741078853L177.544921875,96.69056277871131L177.77109375,96.66897919178008L177.997265625,96.61937650442123L178.2234375,96.43112015128135L178.449609375,96.51361253261565L178.67578125,96.12952139377593L178.901953125,96.3980194568634L179.128125,96.28232967257499L179.35429687500002,96.25522490739822L179.58046875,96.46870900094508L179.806640625,96.4937784910202L180.0328125,96.79820817112922L180.258984375,96.86898563206195L180.48515625000002,96.67262334525584L180.71132812500002,96.82891752719878L180.9375,96.28204833865165L181.163671875,96.35738868415355L181.38984375,96.66280742883681L181.61601562500002,96.7720089495182L181.84218750000002,96.22297700643539L182.068359375,96.59790720939635L182.29453124999998,96.6167126238346L182.52070312499998,96.49705339372157L182.746875,96.39682818353175L182.973046875,96.48179102838039L183.19921875,96.81318041086196L183.42539062499998,96.67805660665034L183.65156249999998,96.64119307100772L183.877734375,96.78729329407214L184.10390625,96.81897852718829L184.330078125,96.75465855896472L184.55625,96.58836823105811L184.78242187499998,96.8011885523796L185.00859375,96.8191895276308L185.234765625,97.23129976689815L185.4609375,96.83030221760272L185.687109375,97.06931296885013L185.91328125,96.7325958251953L186.139453125,97.15080309808253L186.365625,97.000060865283L186.591796875,97.23999034762382L186.81796875,97.03661669194697L187.044140625,97.00590733587741L187.2703125,97.03455064594745L187.496484375,97.17049207687377L187.72265625,96.67803902328014L187.948828125,97.29844626188277L188.175,97.1911657243967L188.40117187500002,97.19194378852843L188.62734375,97.25196901857852L188.853515625,97.14019593000411L189.0796875,97.00372699797153L189.305859375,97.64614422023296L189.53203125000002,97.09242191314696L189.75820312500002,97.34371904432773L189.984375,97.04674471318721L190.210546875,97.41673838496207L190.43671875,97.35619444549083L190.66289062500002,97.44415525496005L190.88906250000002,97.57593382298946L191.115234375,97.70956304073333L191.34140624999998,97.43582513332366L191.56757812499998,97.56371777653693L191.79375,97.36545208990573L192.019921875,96.93546395897864L192.24609375,97.35485371351241L192.47226562499998,97.68770691156386L192.69843749999998,97.17811007201671L192.924609375,97.52784330546855L193.15078125,97.4559097379446L193.376953125,97.85699959993362L193.603125,98.01354874074458L193.82929687499998,97.95543130636214L194.05546875,97.61814709901809L194.281640625,97.7122225254774L194.5078125,97.62307923436164L194.733984375,98.1555036842823L194.96015625,97.81728755831718L195.186328125,97.85653364062308L195.4125,97.7091058731079L195.638671875,97.9807909220457L195.86484375,98.1815754264593L196.091015625,97.89940629303455L196.31718750000002,97.87302684187888L196.543359375,98.24076105058192L196.76953125,98.2191774636507L196.995703125,97.77405444681644L197.221875,98.1648800164461L197.44804687500002,98.04652635157107L197.67421875000002,97.85808097720145L197.900390625,98.0897418797016L198.1265625,98.2219160735607L198.57890625000002,97.96058762967586L198.80507812500002,98.07582464218139L199.03125,97.87259604930877L199.25742187499998,98.30549862384795L199.48359374999998,98.37241213917731L199.709765625,98.3298296123743L199.9359375,98.46550289690494L200.162109375,98.62872492671012L200.38828124999998,98.47889702916144L200.61445312499998,98.26861310899257L200.840625,98.16884946227073L201.066796875,98.08173265457152L201.29296875,98.92771694958209L201.519140625,98.34178190827369L201.74531249999998,98.35430566370486L201.971484375,98.21920383870601L202.19765625,98.69207780957221L202.423828125,98.08939021229743L202.65,98.52341372668742L202.876171875,98.55754304826259L203.10234375,98.46587214767932L203.328515625,98.48385114371776L203.5546875,98.62982828319072L203.780859375,98.42261705696582L204.00703125,98.48944705128669L204.233203125,98.8086247831583L204.459375,99.0687619537115L204.685546875,98.92855655550956L204.91171875,98.68746217489242L205.137890625,98.76974355578422L205.36406250000002,98.86941488981246L205.590234375,98.71495817005633L206.042578125,99.05060272812842L206.26875,98.89168862402438L206.49492187500002,99.00052528977393L206.72109375000002,98.44523806273936L206.947265625,98.79337560534476L207.1734375,99.15269617140292L207.399609375,98.84782251119613L207.62578125000002,99.40780010223388L207.85195312500002,99.13388196527957L208.078125,99.06499911248683L208.30429687499998,99.3095574170351L208.53046874999998,99.18722111880778L208.756640625,99.21515669822692L208.9828125,99.45847537517547L209.208984375,99.40082829594611L209.43515624999998,99.26599022150039L209.66132812499998,98.88893682658671L209.8875,99.45981610715388L210.113671875,99.251132273674L210.33984375,99.16213404536246L210.566015625,99.37608409821986L210.79218749999998,99.50146231949329L211.018359375,99.42425813674926L211.24453125,99.76034227907657L211.470703125,99.59555093348025L211.696875,99.4652845352888L211.923046875,99.95152186751365L212.14921875,99.45353884398936L212.375390625,99.65306613743304L212.6015625,99.92503691613673L212.827734375,99.85147688686847L213.05390625,99.97953217625617L213.28007812500002,99.66589320600032L213.50625,100.1047169804573L213.732421875,99.55629605948924L213.95859375,99.76712066829204L214.184765625,100.11440541744231L214.41093750000002,99.82352811992168L214.63710937500002,100.07932659387588L214.86328125,99.76600852012633L215.089453125,100.11298995614051L215.315625,100.19161399602889L215.54179687500002,99.85166151225566L215.76796875000002,100.04659954607486L215.994140625,100.56952018439769L216.22031249999998,100.15024911761283L216.44648437499998,100.30357170999049L216.898828125,100.41133139431476L217.125,100.60481440424918L217.35117187499998,100.41161712408065L217.57734374999998,100.77762376666068L217.803515625,100.32051768302917L218.255859375,100.28705213367938L218.48203125,100.75467307269572L218.70820312499998,100.66255819201469L218.934375,100.34387279450893L219.160546875,100.7472836613655L219.38671875,100.31207766532897L219.612890625,100.59728872179984L219.8390625,100.72927829027175L220.065234375,100.68166252374648L220.29140625,100.95031004548072L220.517578125,101.10099952816962L220.74375,100.86935181319713L220.969921875,101.0689626276493L221.19609375,100.81210035979747L221.422265625,101.15045715272426L221.6484375,100.94671424627303L221.874609375,101.08077425658702L222.10078125,100.8328926950693L222.32695312500002,101.103557908535L222.553125,101.20418314039706L222.779296875,101.15218032300471L223.00546875,100.7538114875555L223.231640625,101.03281121850013L223.45781250000002,101.3404542595148L223.68398437500002,101.02304365634917L223.91015625,101.6305534929037L224.136328125,100.95625322461127L224.3625,101.22834708690642L224.58867187500002,101.23582441508769L224.81484375000002,101.48897659182548L225.041015625,101.15079563260078L225.26718749999998,101.36387530863284L225.49335937499998,101.3034236818552L225.71953125,101.78766530156135L225.945703125,101.37936186194419L226.171875,101.29174392819404L226.39804687499998,101.531181076169L226.62421874999998,101.6256257534027L226.850390625,101.59920234382152L227.0765625,101.54872048795222L227.302734375,101.4876050889492L227.52890625,101.63836050927638L227.75507812499998,101.65825609266757L227.98125,102.0583612859249L228.207421875,101.95790309607982L228.43359375,101.41054596900939L228.659765625,102.0238407343626L228.8859375,101.85889553427695L229.112109375,102.27698411941527L229.564453125,102.12442200779914L229.790625,102.1615492939949L230.016796875,102.4968158096075L230.24296875000002,102.12632101178168L230.469140625,102.18089979290961L230.6953125,101.94224510490893L230.921484375,102.23409827947616L231.14765625,102.05666888654231L231.37382812500002,102.15970743596553L231.60000000000002,102.45008360743522L231.826171875,102.34666261970996L232.05234375,102.0584623903036L232.278515625,102.34567355513572L232.50468750000002,102.1523004412651L232.95703125,102.29898091554641L233.18320312499998,102.34571751356124L233.40937499999998,102.49887306392192L233.635546875,102.71028671562671L233.86171875,102.15818207859992L234.087890625,102.79031742513179L234.31406249999998,102.81585727035998L234.54023437499998,102.35129144191741L234.76640625,102.90953267514705L234.992578125,102.51053523421287L235.21875,102.79598806202411L235.444921875,102.76919979751109L235.67109374999998,102.48559322357177L235.897265625,102.42510203421115L236.1234375,103.00503675043582L236.349609375,102.73383964002132L236.801953125,102.56629649698733L237.028125,102.78445776700973L237.254296875,102.90553245842456L237.706640625,102.64295559525489L237.9328125,102.37971935570239L238.158984375,103.03357895612716L238.38515625,103.00833802819251L238.611328125,102.52913404405116L238.8375,103.30704432129859L239.063671875,102.93323505818843L239.28984375000002,103.32806963622569L239.516015625,103.00865892469882L239.7421875,102.67367813885211L239.968359375,102.72241924107074L240.19453125,102.98442904055118L240.42070312500002,103.01239978671073L240.64687500000002,102.97365922629832L240.873046875,103.42375833690166L241.09921875,103.43556117415427L241.325390625,103.27113028764724L241.55156250000002,103.40591561198234L241.77773437500002,102.94214982688426L242.00390625,103.53305656611919L242.23007812499998,102.97808583974837L242.45624999999998,103.22390135526656L242.682421875,103.00886552929877L242.90859375,103.64213939905166L243.134765625,103.46954543292522L243.36093749999998,103.39319404363631L243.58710937499998,103.23597673475741L243.81328125,103.45019932985305L244.039453125,102.97905292510985L244.265625,103.74790776669978L244.491796875,103.35808884501456L244.71796874999998,102.92180586755275L244.944140625,103.23693063259124L245.1703125,103.64439007043838L245.396484375,103.58122620880603L245.62265625,103.42369679510593L245.848828125,103.34786851108073L246.075,103.82163923382758L246.301171875,103.16439043879508L246.52734375,103.39250829219817L246.753515625,103.25067643225192L246.9796875,103.3735490232706L247.20585937500002,103.57551600933074L247.43203125,103.40836849212646L247.884375,103.21945276260375L248.110546875,103.36133297681808L248.33671875000002,103.29162810146808L248.56289062500002,103.30773886442184L248.7890625,103.45477100610732L249.015234375,103.30312322974204L249.24140625,103.52621223926543L249.46757812500002,103.37483260929584L249.69375000000002,103.31077199578284L249.919921875,103.79044633507728L250.37226562499998,103.48628040552138L250.5984375,103.16366512477397L250.824609375,103.47273241877555L251.05078125,103.3218451231718L251.27695312499998,103.34335398077964L251.50312499999998,103.70030958354472L251.729296875,103.67044862508773L251.95546875,103.27542942166328L252.181640625,103.61283231675624L252.4078125,103.17480858564376L252.63398437499998,103.71274542212485L252.86015625,103.32724321782588L253.086328125,103.28270454108714L253.3125,103.37536450624465L253.538671875,103.19784719645976L253.76484375,103.60713970065116L253.991015625,103.56761228442191" style="fill: none;" fill="none"></path></g><g><path stroke="rgb(204, 51, 17)" stroke-width="2px" d="M22.6171875,-77.07574818134307L24.87890625,11.606498175859457L27.140625,5.589231514930731L29.40234375,20.221637451648718L31.6640625,9.811104202270513L33.92578125,-1.6836372375488224L36.1875,29.63235389590264L38.44921875,15.317494833469397L40.7109375,14.73241698145867L42.97265625,10.38215931653977L45.234375,-2.769129014015192L47.49609375,33.17389961481092L49.7578125,30.742084348201757L52.01953125,23.748307639360434L54.28125,4.0740900874137935L56.54296875,28.99663593769074L58.8046875,11.235023105144506L61.06640625,4.6943258881568966L63.328125,6.999980473518377L65.58984375,-5.894889569282526L67.8515625,2.521935665607458L70.11328125,6.0059837639331874L72.375,12.988770866394049L74.63671875,39.441087508201576L76.8984375,13.512166255712515L79.16015625,30.230759942531563L81.421875,28.594908678531652L83.68359375,9.923470729589468L85.9453125,30.89810159206388L88.20703125,29.988505059480644L90.46875,15.39372753500939L92.73046875,26.81476827859879L94.9921875,26.232327932119375L97.25390625,39.25971504449845L99.515625,41.87656890749932L101.77734375,5.131782555580145L104.0390625,22.4242886543274L106.30078125,14.496861362457281L108.5625,10.011317247152334L110.82421875,15.78739281892777L113.0859375,36.98830407261849L115.34765625,31.519911104440695L117.609375,44.48151882886884L119.87109375,31.746894830465322L122.1328125,22.62323569655419L124.39453125,17.564922088384634L126.65625,49.45217054486274L128.91796875,42.72021021842957L131.1796875,42.9518271625042L133.44140625,25.748354458808905L135.703125,52.938020938634864L136.15546875,43.67253434062005L136.6078125,41.2943219780922L137.06015625,34.91077613234518L137.51250000000002,53.64994522333144L137.96484375,39.502699637413L138.4171875,25.625112617015844L138.86953125000002,49.98555328845977L139.321875,46.24144714474676L139.77421875000002,58.47789030671119L140.2265625,53.87073081135749L140.67890624999998,35.18202599287034L141.13125,43.99136480093L141.58359374999998,43.0886169910431L142.0359375,24.14655339121819L142.48828125,41.36159595251084L142.94062499999998,38.81478544473646L143.39296875,32.49310668706892L143.8453125,45.01310806870458L144.29765625,49.068721199035636L144.75,35.568482095003134L145.20234375,15.620447510480886L145.6546875,46.8078514575958L146.10703125,42.5000400483608L146.55937500000002,29.58260174989701L147.01171875,24.243850970268255L147.4640625,55.04826273918151L147.91640625000002,48.84239684939382L148.36874999999998,54.372982197999946L148.82109375,48.01567074060438L149.2734375,47.15362843275068L149.72578124999998,37.83780943751336L150.178125,47.028426045179344L150.63046875,47.33956378102303L151.0828125,30.31140606999398L151.53515625,28.718440645933157L151.9875,18.41353949308396L152.43984375,50.14890279769898L152.8921875,51.76123630404473L153.34453125,25.582226777076727L153.796875,48.93184345364571L154.24921875,50.27268093228341L154.7015625,24.07330107092858L155.15390625,60.27808454036713L155.60625000000002,38.987533265352255L156.05859375,21.282204800844198L156.5109375,23.79485082030297L156.96328125000002,46.916798019409185L157.41562499999998,42.615342998504644L157.86796875,36.01124894022939L158.3203125,26.589824223518377L158.77265624999998,30.083912426233297L159.225,27.61281591057778L159.67734375,54.13980912566184L160.1296875,36.0478135585785L160.58203125,35.928246641159035L161.034375,21.80132743120194L161.48671875,39.58621185421944L161.9390625,51.74920927882195L162.39140625000002,31.14850636720655L162.84375,32.81206902265549L163.29609375,30.375347995758034L163.74843750000002,38.527763301134115L164.20078125,32.84350808858872L164.65312500000002,23.95086806416512L165.10546875,16.894547307491308L165.55781249999998,28.434012049436575L166.01015625,47.10474666357041L166.46249999999998,35.884692633152014L166.91484375,24.628038817644125L167.3671875,31.34214323163033L167.81953124999998,31.718708688020683L168.271875,30.774121248722082L168.72421875,49.66803278923035L169.1765625,26.16987180113793L169.62890625,44.21094592809678L170.08125,36.38558130860329L170.53359375,31.427273118495947L170.9859375,48.645269685983635L171.43828125000002,21.30115967392922L171.890625,15.197154247760778L172.34296875,34.236023092269875L172.79531250000002,44.964788967370964L173.24765625,30.753029996156698L173.70000000000002,20.76488446593285L174.15234375,15.87874721884728L174.60468749999998,34.210034871101385L175.05703125,42.65603091716767L175.50937499999998,42.10764076709748L175.96171875,43.78537561893461L176.4140625,39.23537966012955L176.86640624999998,32.459065282344824L177.31875,33.67382120490075L177.77109375,22.1734267115593L178.2234375,45.10471742749215L178.67578125,34.9861999988556L179.128125,45.78880723714829L179.58046875,48.545246684551245L180.0328125,48.75148203372953L180.48515625000002,40.64165365099905L180.9375,28.529287540912634L181.38984375,39.31670274734495L181.84218750000002,55.71508567929267L182.29453124999998,44.77767553329468L182.746875,47.530765348672844L183.19921875,32.615337485075L183.65156249999998,52.37409588098525L184.10390625,5.768476390838629L184.55625,47.89662253260613L185.00859375,37.409460955858236L185.4609375,33.54406472444535L185.91328125,45.88956874012948L186.365625,47.50433754324911L186.81796875,52.47913893461228L187.2703125,44.30670496225355L187.72265625,32.737700158357626L188.175,34.077781552076345L188.62734375,46.927822792530065L189.0796875,36.36758472919465L189.53203125000002,46.837206894159294L189.984375,52.222896480560294L190.43671875,44.9587666630745L190.88906250000002,22.04236027002335L191.34140624999998,49.087025487422935L191.79375,37.656076514720894L192.24609375,52.56174560785294L192.69843749999998,31.732335799932486L193.15078125,44.88746609687806L193.603125,37.02106189131737L194.05546875,25.932891929149633L194.5078125,39.0727862358093L194.96015625,33.68485476970673L195.4125,52.669892126321784L195.86484375,35.85331510901449L196.31718750000002,45.942837560176855L196.76953125,44.31466143727303L197.221875,48.668365442752844L197.67421875000002,45.28114017248154L198.1265625,55.02806823849677L198.57890625000002,39.337178581953054L199.03125,45.837056005001074L199.48359374999998,39.74342476725576L199.9359375,61.9454012453556L200.38828124999998,53.20718716979026L200.840625,35.62073987126348L201.29296875,45.17630811929703L201.74531249999998,18.84649481773377L202.19765625,42.34698560237882L202.65,39.32233821749688L203.10234375,33.245244139432884L203.5546875,37.014424169063545L204.00703125,47.926443928480126L204.459375,49.816366100311285L204.91171875,45.23595091104505L205.36406250000002,38.214612269401556L205.81640625,40.82837145924569L206.26875,46.11337866783143L206.72109375000002,47.602268123626686L207.1734375,34.32291131615639L207.62578125000002,42.09436532258985L208.078125,50.20008798837661L208.53046874999998,35.26364799737928L208.9828125,44.933130109310156L209.43515624999998,51.692652368545524L209.8875,50.166081750392905L210.33984375,51.28017287850379L210.79218749999998,30.13719003796578L211.24453125,47.13076125979421L211.696875,46.697753185033804L212.14921875,54.284863138198844L212.6015625,43.28400340080262L213.05390625,55.797648394107824L213.50625,37.049529367685295L213.95859375,56.9837697982788L214.41093750000002,57.517847084999076L214.86328125,36.08780693411828L215.315625,28.277581596374517L215.76796875000002,35.59843536615372L216.22031249999998,48.495775872468926L216.67265625,41.64273645877839L217.125,54.63791083693505L217.57734374999998,52.263980025053016L218.0296875,45.85531633496282L218.48203125,52.743663156032554L218.934375,55.4896229147911L219.38671875,57.1360593676567L219.8390625,37.51124229431153L220.29140625,46.74306553006173L220.74375,53.296370023489004L221.19609375,46.44589778184891L221.6484375,43.29391162991524L222.10078125,54.56945877671241L222.553125,38.41138776540757L223.00546875,42.31634657979012L223.45781250000002,49.564853572845465L223.91015625,51.48482572436333L224.3625,54.23618357777595L224.81484375000002,48.45350545048714L225.26718749999998,51.91962730288505L225.71953125,20.401831829547888L226.171875,57.10113879442214L226.62421874999998,47.626287007331854L227.0765625,52.90740829110145L227.52890625,49.538469725847236L227.98125,28.593141549825674L228.43359375,45.18749114274979L228.8859375,62.891755813360206L229.33828125,49.972559177875524L229.790625,35.89464482069013L230.24296875000002,55.698117727041236L230.6953125,61.47563513517379L231.14765625,64.61466234326362L231.60000000000002,41.194008851051336L232.05234375,54.55293040871621L232.50468750000002,32.535552942752844L232.95703125,45.70565547943116L233.40937499999998,42.51742120981214L233.86171875,40.76804291605947L234.31406249999998,45.332984739541985L234.76640625,38.61359652280805L235.21875,36.77252095341683L235.67109374999998,47.87332456707952L236.1234375,48.54369934797285L236.57578125,45.43240111470223L237.028125,34.19475492238999L237.48046875,38.87110497951508L237.9328125,42.835012042522436L238.38515625,43.523576819896675L238.8375,54.471317195892325L239.28984375000002,48.047777974605566L239.7421875,30.72201293110848L240.19453125,43.84861420989037L240.64687500000002,36.75022523999212L241.09921875,39.38919019103051L241.55156250000002,49.689484500885L242.00390625,46.82765912413595L242.45624999999998,64.95793368816375L242.90859375,31.78559582829473L243.36093749999998,63.1453959286213L243.81328125,38.75792082548139L244.265625,61.32868211865426L244.71796874999998,53.26606508493424L245.1703125,52.55859818458556L245.62265625,47.980926001071936L246.075,41.5150196492672L246.52734375,61.09474416971206L246.9796875,49.2418382704258L247.43203125,40.393921548128134L247.884375,57.13752757906914L248.33671875000002,46.32798370122907L248.7890625,45.80467622876165L249.015234375,39.80876457095147L249.24140625,38.30888550877569L249.46757812500002,56.70153912305831L249.69375000000002,51.69704821109771L249.919921875,42.78051238656042L250.14609374999998,42.8419750571251L250.37226562499998,57.47273694872855L250.5984375,28.671501839160925L250.824609375,47.19348114132879L251.05078125,29.081185573339468L251.27695312499998,32.84371029734609L251.50312499999998,45.67993100881577L251.729296875,34.63950868844984L251.95546875,37.05187674760816L252.181640625,42.892061287164694L252.4078125,46.952606552839285L252.63398437499998,34.419698977470375L252.86015625,45.28809439539907L253.086328125,47.00487312078474L253.3125,54.79624029397965L253.538671875,55.4614543557167L253.76484375,29.255524688959127L253.991015625,45.358498209714895" style="fill: none;" fill="none"></path></g><g><path stroke="rgb(238, 51, 119)" stroke-width="2px" d="M27.140625,-0.6558364987373295L29.40234375,23.19989111423493L31.6640625,12.72579398155213L33.92578125,20.090720468759542L36.1875,36.67301666140557L38.44921875,19.47975989580155L40.7109375,39.07692711949346L42.97265625,21.819244885444647L45.234375,1.6009011507034359L47.49609375,37.756310516595846L49.7578125,38.44951730370519L52.01953125,30.891569370031362L54.28125,15.41674416661263L56.54296875,13.863605076074606L58.8046875,41.18477758169175L61.06640625,17.428299301862722L63.328125,14.868907892704016L65.58984375,22.314216756820684L67.8515625,31.965842956304527L70.11328125,40.06728407144544L72.375,25.741637611389166L74.63671875,48.98229893445969L76.8984375,27.92894732356072L79.16015625,51.65714275240897L81.421875,35.769460016489035L83.68359375,34.92066677808759L85.9453125,45.652536118030554L88.20703125,40.159209930896765L90.46875,23.464151585102087L92.73046875,17.801937127113348L94.9921875,30.671311283111578L97.25390625,56.61754336357117L99.515625,40.46680461764336L101.77734375,16.156335884332663L104.0390625,33.040890210866905L106.30078125,41.385043376684195L108.5625,39.68830969333649L110.82421875,48.32447867989541L113.0859375,49.937963896989814L115.34765625,49.96564891338349L117.609375,40.996890479326254L119.87109375,55.347725117206565L122.1328125,35.33480789661405L124.39453125,34.204399400949455L126.65625,57.278748416900626L128.91796875,48.57142832279206L131.1796875,52.639877313375464L133.44140625,44.63982191085813L135.703125,42.85438012480736L136.15546875,37.49815147519112L136.6078125,48.295606786012655L137.06015625,57.942951434850684L137.51250000000002,65.08725058436393L137.96484375,59.47450693845748L138.4171875,37.915097141265875L138.86953125000002,57.98324372768403L139.321875,59.08659141659737L139.77421875000002,61.787924581766134L140.2265625,57.01506819725037L140.67890624999998,54.252395445108405L141.13125,60.15204694271087L141.58359374999998,50.06646316647529L142.0359375,46.19807776212693L142.48828125,57.52135496735572L142.94062499999998,47.73891728520391L143.39296875,58.6187418937683L143.8453125,37.228035742044426L144.29765625,58.238141053915015L144.75,50.75072880983353L145.20234375,53.866053634881965L145.6546875,65.29927086234092L146.10703125,48.761654013395315L146.55937500000002,48.51532858014107L147.01171875,43.256634885072685L147.4640625,64.46026276946067L147.91640625000002,40.4890036225319L148.36874999999998,58.38080372810363L148.82109375,56.8658733010292L149.2734375,62.738270574808126L149.72578124999998,47.07738693952561L150.178125,48.41384615898133L150.63046875,53.07932969331742L151.0828125,56.641993039846426L151.53515625,43.42634078264237L151.9875,27.371431404352194L152.43984375,57.338347250223165L152.8921875,58.539484852552405L153.34453125,43.75798072814942L153.796875,60.10506417751313L154.24921875,65.91099631190299L154.7015625,54.37198873758315L155.15390625,63.94388314485549L155.60625000000002,53.17028846740722L156.05859375,54.38699614405631L156.5109375,58.15013628602027L156.96328125000002,62.04254057407378L157.41562499999998,59.22266032695771L157.86796875,44.18095749020577L158.3203125,60.132608526945106L158.77265624999998,50.22444974780082L159.225,54.726733231544486L159.67734375,50.89274969100951L160.1296875,52.72265982031823L160.58203125,69.8345671236515L161.034375,46.67138692140577L161.48671875,56.829132848978034L161.9390625,59.54857688546181L162.39140625000002,39.93245478868482L162.84375,55.26018630862235L163.29609375,43.770482504367834L163.74843750000002,49.916441851854316L164.20078125,43.84483378529549L164.65312500000002,46.729596668481804L165.10546875,44.93846666216848L165.55781249999998,36.140293294191366L166.01015625,50.283529871702186L166.46249999999998,62.948638015985495L166.91484375,44.96034037470818L167.3671875,43.33192687630654L167.81953124999998,58.59325479865073L168.271875,65.11525210142135L168.72421875,57.93318387269974L169.1765625,55.79014908671378L169.62890625,54.13734745383262L170.08125,52.92045515179633L170.53359375,54.03579469919205L170.9859375,64.48294531702994L171.43828125000002,55.49117904305457L171.890625,41.97744470238683L172.34296875,57.044995093345634L172.79531250000002,57.42835652232169L173.24765625,44.993194901943184L173.70000000000002,38.167154753208166L174.15234375,19.835717642307287L174.60468749999998,55.30141052007674L175.05703125,50.444452875852576L175.50937499999998,51.64520364403724L175.96171875,51.25932779312133L176.4140625,47.669462972879415L176.86640624999998,61.44031014442443L177.31875,41.8940379858017L177.77109375,56.168868505954734L178.2234375,54.239981585741035L178.67578125,50.2433167040348L179.128125,64.33111291527749L179.58046875,51.41401749253272L180.0328125,55.5644401550293L180.48515625000002,60.86817365288735L180.9375,54.91290595531463L181.38984375,55.4723296701908L181.84218750000002,66.98984157443046L182.29453124999998,61.84735637307166L182.746875,57.79831942319869L183.19921875,48.704341018199926L183.65156249999998,65.78713026046752L184.10390625,20.832360649108892L184.55625,54.73327424526214L185.00859375,55.45265387892722L185.4609375,52.74675782918929L185.91328125,55.580810272693626L186.365625,63.4149753689766L186.81796875,45.329670274257666L187.2703125,45.873453581333166L187.72265625,56.81141760349273L188.175,46.114460045099264L188.62734375,64.30661048889161L189.0796875,65.31849827766418L189.53203125000002,56.59706752896308L189.984375,65.94374533891677L190.43671875,65.78437846302987L190.88906250000002,53.347924464941016L191.34140624999998,51.52887206673623L191.79375,56.188922339677816L192.24609375,64.96014040112495L192.69843749999998,59.273089432716375L193.15078125,61.278393679857246L193.603125,60.13205465078353L194.05546875,53.557562196254736L194.5078125,66.87262203693389L194.96015625,40.202526563405996L195.4125,68.64054199457168L195.86484375,54.96244710087775L196.31718750000002,65.45645740032197L196.76953125,64.62915983200072L197.221875,56.73071872591973L197.67421875000002,58.74745216369628L198.1265625,67.17907380461692L198.57890625000002,58.424603903293615L199.03125,49.06705957055091L199.48359374999998,61.20417427420615L199.9359375,59.87628694772721L200.38828124999998,71.36122565865517L200.840625,62.537723445892325L201.29296875,65.03303226232529L201.74531249999998,50.860053414106375L202.19765625,53.9220478773117L202.65,67.48530578017235L203.10234375,55.3012962281704L203.5546875,58.14249631166459L204.00703125,53.93930595517158L204.459375,64.70460128188132L204.91171875,46.68114569187162L205.36406250000002,67.63101916909217L205.81640625,49.61647834777831L206.26875,62.74940084815026L206.72109375000002,52.950417214632026L207.1734375,53.18417932987212L207.62578125000002,66.57487403750419L208.078125,54.95735671520232L208.53046874999998,37.0498898267746L208.9828125,65.62451046109199L209.43515624999998,61.86244290471076L209.8875,65.4807048678398L210.33984375,64.8309026300907L210.79218749999998,63.85873567461968L211.24453125,60.209245645999914L211.696875,63.56225367784501L212.14921875,54.974957668781286L212.6015625,40.30394744276998L213.05390625,65.5772463619709L213.50625,64.3522657096386L213.95859375,69.95238449573516L214.41093750000002,65.78227725028991L214.86328125,62.00226586461066L215.315625,60.90347226858138L215.76796875000002,65.49612548351288L216.22031249999998,48.581257426738716L216.67265625,58.232347333431235L217.125,44.86409779787064L217.57734374999998,71.08904387950896L218.0296875,57.27622520327567L218.48203125,74.10380061864852L218.934375,53.74094795584679L219.38671875,68.39364510178565L219.8390625,61.019830220937735L220.29140625,53.85993462204932L220.74375,62.87285369038581L221.19609375,71.72530692219735L221.6484375,55.646897369623176L222.10078125,53.8437930881977L222.553125,71.15625631213187L223.00546875,55.11481579542159L223.45781250000002,70.60857828855514L223.91015625,56.14978175759316L224.3625,63.93793996572495L224.81484375000002,48.93747013211251L225.26718749999998,60.33268090486527L225.71953125,51.525619143247596L226.171875,60.62198888659478L226.62421874999998,46.012502872943884L227.0765625,74.19919919371604L227.52890625,60.36421667933463L227.98125,63.50681331157685L228.43359375,54.76362314224242L228.8859375,73.5303981244564L229.33828125,71.1534693479538L229.790625,57.896469795703894L230.24296875000002,62.05621164441109L230.6953125,62.08363291025161L231.14765625,75.4910669863224L231.60000000000002,60.28038796186446L232.05234375,76.57963585257531L232.50468750000002,57.79203336834907L232.95703125,74.59539648294448L233.40937499999998,74.31353505849837L233.86171875,60.07742311954499L234.31406249999998,62.46859442591666L234.76640625,68.45716502666473L235.21875,64.15869038701057L235.67109374999998,58.59819572567939L236.1234375,60.252579861879354L236.57578125,57.138978207111364L237.028125,56.139996612072L237.48046875,65.49696069359779L237.9328125,65.66198062300681L238.38515625,56.07976477742194L238.8375,68.0322365105152L239.28984375000002,68.0667966246605L239.7421875,63.714446538686744L240.19453125,69.39442899227141L240.64687500000002,60.68557914495469L241.09921875,74.4960328578949L241.55156250000002,76.11255120635032L242.00390625,67.50095497965812L242.45624999999998,67.69413467645644L242.90859375,73.08433439731598L243.36093749999998,75.83626371026038L243.81328125,56.396564358472816L244.265625,71.72120120525359L244.71796874999998,63.76901652812957L245.1703125,70.24945553541183L245.62265625,74.67394139766692L246.075,66.47216957211494L246.52734375,57.624200099706655L246.9796875,67.78650891184807L247.43203125,65.19671585559846L247.884375,72.6989332973957L248.33671875000002,75.23032318949699L248.7890625,46.667351537942864L249.015234375,65.97629215717315L249.24140625,74.31873094439506L249.46757812500002,69.01812728643417L249.69375000000002,67.0321647465229L249.919921875,50.80781322121619L250.14609374999998,71.96100320816039L250.37226562499998,56.8374849498272L250.5984375,51.60903465151786L250.824609375,73.88203915357589L251.05078125,67.80909475088119L251.27695312499998,72.62724589705466L251.50312499999998,65.96659492850303L251.729296875,47.65366431474686L251.95546875,51.125474387407294L252.181640625,73.67104750275612L252.4078125,56.43984582424163L252.63398437499998,52.63933222889899L252.86015625,73.18726744651794L253.086328125,70.50216373205186L253.3125,68.16298645138741L253.538671875,61.5007793545723L253.76484375,55.717749559879294L253.991015625,56.481711828708654" style="fill: none;" fill="none"></path></g><g><path stroke="rgb(187, 187, 187)" stroke-width="2px" d="M24.4265625,-10.570325291156763L24.87890625,0.07211502790451618L25.33125,-5.968036389350885L25.78359375,-0.16306254863738445L26.2359375,5.135984981060034L26.68828125,-1.8268186211585942L27.140625,2.177864277362829L27.59296875,12.70193334817887L28.0453125,-171.671536898613L28.49765625,-32.03399363756179L28.950000000000003,4.5921840906143245L29.40234375,19.775301182270056L29.8546875,-0.6349826216697636L30.307031249999998,18.81524916887284L30.759375,-11.768315470218653L31.211718750000003,7.5095992922782955L31.6640625,7.740381026268011L32.11640625,2.507939302921301L32.56875,17.429029011726385L33.02109375,18.795441502332693L33.4734375,-18.353533780574793L33.92578125,21.536161416769033L34.378125000000004,30.795089417696005L34.83046875,17.932581567764288L35.2828125,17.390046679973608L35.735156249999996,32.396679484844185L36.1875,33.772613370418526L36.639843750000004,12.037791872024542L37.092187499999994,6.460461133718496L37.54453125,28.974190765619284L37.996875,33.25415011644364L38.44921875,17.45630081892014L38.901562500000004,37.116864883899666L39.353906249999994,0.11018302440643879L39.80625,8.967348599433905L40.25859375,13.788946086168295L40.7109375,33.02053745985032L41.163281250000004,22.820063942670828L41.615624999999994,0.9627303123474178L42.06796875,25.291520917415625L42.5203125,29.95810341238976L42.97265625,20.305140876770025L43.425000000000004,36.30285155177114L43.877343749999994,22.53186371326447L44.3296875,42.18579884767533L44.78203125,16.634700262546545L45.234375,3.2336049914360103L45.68671875,17.049966716766363L46.1390625,25.483223611116415L46.59140625,-12.601134216785425L47.04375,29.890987688303L47.49609375,33.77068799138067L47.9484375,16.687854790687567L48.40078125,-3.6626807212829533L48.853125,32.64335658550263L49.30546875,32.37626519203184L49.7578125,35.34665029644964L50.21015625,9.94717311263085L50.6625,4.776616060733801L51.11484375,5.941285753250128L51.5671875,20.83360027670861L52.01953125,26.48986276388169L52.471875,25.082577729225164L52.92421875,-2.3397431135177555L53.3765625,22.176969760656362L53.82890625,35.49311097860334L54.28125,9.431101197004324L54.73359375,33.04420467615128L55.1859375,5.903789216279989L55.63828125,35.033332222700125L56.090625,33.617202752828604L56.54296875,11.336092317104345L56.9953125,20.504404419660574L57.44765625,37.588143163919455L57.900000000000006,39.50808894038201L58.352343749999996,46.92982729673386L58.8046875,37.6325499653816L59.25703125,34.688372874259954L59.709375,42.79268887043L60.161718750000006,45.15882145762444L60.614062499999996,31.561891400814062L61.06640625,13.096803092956549L61.51875,16.75440784692765L61.97109375,7.123732233047491L62.423437500000006,22.04817157387734L62.875781249999996,24.15222402811051L63.328125,6.657992714643484L63.78046875,0.3473123550415096L64.2328125,36.14568259716032L64.68515625,7.361925357580191L65.1375,32.332447433471685L65.58984375,18.199760878086096L66.0421875,1.2625443577766475L66.49453125,36.702539139986015L66.946875,21.820546054840094L67.39921875,1.6560425996780452L67.8515625,25.939942860603338L68.30390625,46.14938061833382L68.75625000000001,42.7214762210846L69.20859375,48.03521465659139L69.6609375,18.391182237863546L70.11328125,31.269348078966146L70.565625,19.65532984733582L71.01796875,18.69898792505265L71.47031249999999,7.998065316677099L71.92265625,26.68323587775231L72.375,26.029785090684896L72.82734375,33.13205119371415L73.27968750000001,29.327361547946936L73.73203125,41.37808036208153L74.18437499999999,32.53838386535645L74.63671875,48.01227715015412L75.0890625,24.02813818454743L75.54140625,23.382283413410192L75.99375,50.632199311256414L76.44609375,18.572959119081503L76.8984375,25.923265033960348L77.35078125,5.4871073007583675L77.80312500000001,37.87032108902929L78.25546875,29.902768546342855L78.70781249999999,13.440751397609716L79.16015625,46.54611420035363L79.6125,30.93345295786858L80.06484375,36.79753329753876L80.5171875,17.50061970353127L80.96953125,36.358063334226614L81.421875,29.61921911835671L81.87421875000001,9.044284635782248L82.32656250000001,39.821213597059256L82.77890624999999,31.03391554355622L83.23124999999999,41.950032228231436L83.68359375,33.21606453657151L84.1359375,25.26962082982064L84.58828125,36.9185772180557L85.040625,28.773379886150366L85.49296875,35.337366276979424L85.9453125,39.463277721405035L86.39765625000001,48.61941334009171L86.85000000000001,40.29058408141137L87.30234374999999,48.62459164261816L87.75468749999999,21.023263299465185L88.20703125,32.964903676509834L88.659375,41.73529531955717L89.11171875,39.41606637239457L89.5640625,41.876076573133474L90.01640625,40.72299432158468L90.46875,19.519999438524252L90.92109375000001,50.55805023908614L91.3734375,46.162216478586174L91.82578124999999,33.1621890902519L92.278125,48.029122018814064L92.73046875,13.525907659530645L93.1828125,38.572099769115454L93.63515625,27.420946174860006L94.0875,33.5809810101986L94.53984375,46.02312322854996L94.9921875,27.61253457665444L95.44453125000001,42.29740929007531L95.896875,44.74564742445946L96.34921874999999,55.3152046740055L96.8015625,43.396677637100225L97.25390625,50.18910717368125L97.70625,7.242094689607626L98.15859375000001,47.17340972423551L98.6109375,31.547490620613104L99.06328125,49.42683290839196L99.515625,36.95321645736695L99.96796875,26.830549353361135L100.4203125,41.45939465761185L100.87265624999999,24.39806591868401L101.325,32.52964493036271L101.77734375,10.697306060791021L102.2296875,41.020689570903755L102.68203125000001,52.13942822217942L103.134375,21.719459259510046L103.58671875,48.642034345865255L104.0390625,31.813342386484123L104.49140625,48.956873381137854L104.94375,39.87939696907998L105.39609374999999,34.8053462445736L105.8484375,41.071470344066626L106.30078125,35.33880811333657L106.753125,18.98407589793206L107.20546875000001,36.33808862566946L107.6578125,39.89245262145997L108.11015624999999,8.286124879121786L108.5625,33.47714241743088L109.01484375,43.02356731295586L109.4671875,21.827931070327764L109.91953125,40.29505025744439L110.371875,47.350228095054604L110.82421875,43.788303250074364L111.2765625,38.71204581260682L111.72890625000001,40.84624495506284L112.18125,44.46365412473679L112.63359374999999,46.24799695014954L113.0859375,46.16874870061875L113.53828125,52.895785683393484L113.990625,37.569918000698095L114.44296875,30.491468572616583L114.8953125,50.6997897863388L115.34765625,43.644629532098776L115.80000000000001,43.09223916530607L116.25234375000001,9.760349804162985L116.70468749999999,30.245609098672844L117.15703124999999,36.38062279820443L117.609375,37.974625641107565L118.06171875,52.39422883987426L118.5140625,42.39807408452032L118.96640625,47.712568604946114L119.41875,48.883462810516335L119.87109375,52.051212453842155L120.32343750000001,20.9104308128357L120.77578125000001,40.49409400820733L121.22812499999999,56.000235193967825L121.68046874999999,51.60621252059936L122.1328125,27.632685118913656L122.58515625,34.5504577100277L123.0375,46.36899691224096L123.48984375,58.80888845920563L123.9421875,42.845289522409416L124.39453125,31.322898232936836L124.84687500000001,49.241592103242866L125.29921875,41.066300833225256L125.75156249999999,39.10393517613409L126.20390625,37.80043598413468L126.65625,58.81908681392669L127.10859375,48.85162811875341L127.5609375,29.298647904396063L128.01328125,49.74092465043067L128.465625,51.75717454552651L128.91796875,45.564021432399755L129.3703125,54.02738105654717L129.82265625,49.13861509561538L130.275,56.84881743192672L130.72734375000002,43.53229817152024L131.1796875,51.58401351571082L131.63203124999998,59.02932237982749L132.084375,47.084051036834694L132.53671875,44.164042288064934L132.9890625,47.45773282051084L133.44140625,41.77193027138708L133.89375,53.55601485967635L134.34609375,36.84856902956963L134.7984375,49.25062995553016L135.25078125000002,48.32917343974114L135.703125,40.758310520648934L135.929296875,45.64465876817701L136.15546875,37.02791061401368L136.381640625,35.108123087883L136.6078125,43.840517067909246L136.833984375,57.39732187390328L137.06015625,50.909409934282294L137.286328125,45.52101250886915L137.51250000000002,60.3707664847374L137.738671875,46.394220256805426L137.96484375,55.9364075601101L138.191015625,55.24407114982604L138.4171875,31.812261009216286L138.64335937500002,46.90059494376183L138.86953125000002,50.64921122193337L139.095703125,52.87818472981452L139.321875,56.02813121080398L139.548046875,50.97271006703376L139.77421875000002,55.2116034567356L140.00039062500002,41.73757236599923L140.2265625,52.504696363210684L140.45273437499998,51.562412345409385L140.67890624999998,50.1833662033081L140.905078125,47.602892333269125L141.13125,56.45026397109031L141.357421875,49.090506994724265L141.58359374999998,46.08957078456879L141.80976562499998,45.6739526629448L142.0359375,42.40494918227196L142.262109375,54.75033890604972L142.48828125,51.76750477552413L142.714453125,50.67165639400483L142.94062499999998,43.203867191076284L143.166796875,54.41762637495995L143.39296875,48.59091948866845L143.619140625,46.11921634674073L143.8453125,33.872460538148886L144.071484375,53.588693553209296L144.29765625,55.655926430225364L144.523828125,44.43606581687928L144.75,47.15446364283562L144.976171875,50.57918545007706L145.20234375,46.03894826173783L145.42851562500002,52.195185089111334L145.6546875,59.5461679637432L145.880859375,59.27438181042672L146.10703125,42.50651072859765L146.333203125,45.37194069623945L146.55937500000002,43.94029390215874L146.78554687500002,42.30527784824372L147.01171875,33.40451430678368L147.237890625,62.82722484469413L147.4640625,59.989690893888465L147.69023437500002,49.804567658901206L147.91640625000002,34.065649026632315L148.142578125,41.37201409935952L148.36874999999998,53.27391605973243L148.59492187499998,41.54894676208497L148.82109375,49.532966130971914L149.047265625,47.87468727827073L149.2734375,56.222506576776496L149.49960937499998,35.743506962060934L149.72578124999998,41.785627716779715L149.951953125,51.853918248415L150.178125,46.39159154295922L150.404296875,31.855050140619284L150.63046875,45.56401264071465L150.85664062499998,48.88144072294236L151.0828125,49.37946330904961L151.308984375,39.139664584398275L151.53515625,34.82234057188032L151.761328125,50.41806023716927L151.9875,24.333420658111578L152.213671875,48.743886017799355L152.43984375,48.794165664911276L152.666015625,40.857014769315725L152.8921875,54.60395734906196L153.118359375,57.08632480502128L153.34453125,37.472567671537405L153.570703125,53.348240965604774L153.796875,54.01014935374259L154.023046875,53.14279686808585L154.24921875,58.287559115886694L154.47539062500002,45.67308228611947L154.7015625,49.197493010759345L154.927734375,45.948569738864904L155.15390625,56.40170749425887L155.380078125,52.74888541698455L155.60625000000002,52.35166829228402L155.83242187500002,48.601513469219185L156.05859375,48.41265928149224L156.284765625,61.69512834548949L156.5109375,51.64370026588439L156.73710937500002,49.156383091211325L156.96328125000002,55.572853797674185L157.189453125,49.767783248424536L157.41562499999998,52.7461687862873L157.64179687499998,35.09734448194504L157.86796875,40.49311813116074L158.094140625,36.798641049861914L158.3203125,55.41557934284211L158.54648437499998,49.8594805240631L158.77265624999998,40.221208894252754L158.998828125,67.18246739506722L159.225,49.21424996256829L159.451171875,51.54787968993186L159.67734375,47.02290486693383L159.90351562499998,48.1065943479538L160.1296875,46.354886257648445L160.355859375,51.21774312257766L160.58203125,63.08758180737496L160.808203125,53.7075923025608L161.034375,39.94114097356797L161.260546875,51.99009265899659L161.48671875,52.113185042142874L161.712890625,56.006521248817435L161.9390625,54.23664953708648L162.165234375,42.51976858973501L162.39140625000002,34.395776802301384L162.617578125,54.215329700708395L162.84375,46.686429494619375L163.069921875,44.40162878632543L163.29609375,41.95316206812859L163.52226562500002,31.005175524950033L163.74843750000002,45.90834777951241L163.974609375,51.42086621522904L164.20078125,40.50936516523362L164.426953125,42.08749901652337L164.65312500000002,43.20641677975652L164.87929687500002,41.82164725065229L165.10546875,33.631709033250814L165.33164062499998,62.98386629819869L165.55781249999998,29.779649788141256L165.783984375,64.39084362387656L166.01015625,43.80469095110894L166.236328125,49.7158419728279L166.46249999999998,55.85197221636771L166.68867187499998,48.99345558285714L166.91484375,34.0253831088543L167.141015625,54.378292375802985L167.3671875,37.18471031785012L167.593359375,58.605993950366965L167.81953124999998,51.2835840523243L168.045703125,45.50118725895882L168.271875,56.59613561034202L168.498046875,48.23602553606034L168.72421875,51.99993055462838L168.950390625,49.84506216049195L169.1765625,48.55344932675362L169.402734375,46.28566932082177L169.62890625,49.450693541765204L169.855078125,45.838084632158285L170.08125,49.49467834234237L170.307421875,43.91717177033422L170.53359375,49.313947671651846L170.759765625,57.74419780969619L170.9859375,59.09820523262023L171.212109375,62.955943906307226L171.43828125000002,45.01356523633004L171.664453125,55.57849805951119L171.890625,37.010582202672964L172.116796875,37.94299315810204L172.34296875,46.95569243431092L172.56914062500002,49.5518506705761L172.79531250000002,51.534366869926444L173.021484375,53.769186848402015L173.24765625,39.88876011371613L173.473828125,51.644007974863044L173.70000000000002,33.2458771407604L173.92617187500002,50.00728633403777L174.15234375,10.892657303810125L174.37851562499998,59.36054911613465L174.60468749999998,50.52915197014809L174.830859375,56.19251813888549L175.05703125,45.53415607810021L175.283203125,52.05997776389121L175.50937499999998,43.473367506265646L175.73554687499998,54.53660424947739L175.96171875,45.28232704997063L176.187890625,53.352329099178306L176.4140625,43.32991358041764L176.640234375,40.70052277445791L176.86640624999998,53.785460257530204L177.092578125,46.331227833032585L177.31875,41.82433750629423L177.544921875,50.10024961233138L177.77109375,51.54819619059562L177.997265625,49.29430704712867L178.2234375,46.90042790174482L178.449609375,56.51614885926246L178.67578125,42.31719058156014L178.901953125,41.14680629372597L179.128125,59.41812586188317L179.35429687500002,58.5134878396988L179.58046875,44.86358788013456L179.806640625,49.25624784231185L180.0328125,48.631352448463446L180.258984375,38.96716293096543L180.48515625000002,54.073308819532386L180.71132812500002,52.118539178371435L180.9375,51.67718779444694L181.163671875,36.86588864922524L181.38984375,47.69618969559667L181.61601562500002,65.09671043753623L181.84218750000002,59.3679253399372L182.068359375,30.55304553508759L182.29453124999998,54.23600774407387L182.52070312499998,44.36030786633492L182.746875,52.5345001757145L182.973046875,39.53524645566938L183.19921875,43.89224734306333L183.42539062499998,50.62188666462899L183.65156249999998,60.463545137643806L183.877734375,44.148498588800436L184.10390625,11.667002552747732L184.330078125,56.92311596274375L184.55625,50.03296684622764L184.78242187499998,50.7233339190483L185.00859375,46.173909419775015L185.234765625,54.54642456173896L185.4609375,45.214314574003225L185.687109375,32.75100197792051L185.91328125,47.569677346944815L186.139453125,46.93100538253785L186.365625,55.1538332939148L186.591796875,58.849418127536765L186.81796875,40.128711575269676L187.044140625,51.7056816458702L187.2703125,40.66077556610105L187.496484375,61.21170874834061L187.72265625,50.83622794747352L187.948828125,52.94997763037681L188.175,38.68327941894529L188.40117187500002,38.54037057757378L188.62734375,57.57676016688346L188.853515625,66.31179165244102L189.0796875,56.73060443401336L189.305859375,49.27721601128577L189.53203125000002,51.06606017947196L189.75820312500002,56.216044688224784L189.984375,58.967991584539405L190.210546875,62.33941819667815L190.43671875,59.032953345775596L190.66289062500002,55.427272284030906L190.88906250000002,40.00983040928841L191.115234375,46.66545253396032L191.34140624999998,47.62676175832749L191.56757812499998,58.234237545728675L191.79375,52.0651912331581L192.019921875,55.462526941299444L192.24609375,60.30200671553612L192.47226562499998,53.52083053588866L192.69843749999998,52.25010674595832L192.924609375,67.38051768541337L193.15078125,55.52335661053657L193.376953125,50.41554581522941L193.603125,52.30266343951226L193.82929687499998,50.80383937954902L194.05546875,43.719525897502905L194.281640625,50.74343171119689L194.5078125,59.400797450542456L194.733984375,46.72928895950318L194.96015625,35.686994010210014L195.186328125,58.03406845927239L195.4125,61.71435576081275L195.638671875,52.17872705459595L195.86484375,44.99755557775498L196.091015625,57.68070425987243L196.31718750000002,60.38632776737214L196.543359375,60.26339363455773L196.76953125,58.40411927700042L196.995703125,57.862560266256324L197.221875,51.022875422239295L197.44804687500002,63.085682803392416L197.67421875000002,53.71743019819259L197.900390625,64.46305852532386L198.1265625,60.431437903642646L198.352734375,59.19508960247039L198.57890625000002,49.90341257452964L198.80507812500002,59.946708345413214L199.03125,43.32114827036855L199.25742187499998,60.221369379758826L199.48359374999998,56.9845698416233L199.709765625,56.98909755945205L199.9359375,51.29362415671348L200.162109375,44.027146959304815L200.38828124999998,66.38865735530854L200.61445312499998,49.91056021451949L200.840625,54.62358918190003L201.066796875,48.037236744165426L201.29296875,53.43996461629867L201.519140625,57.60201867818833L201.74531249999998,39.84052013754845L201.971484375,54.59950875639916L202.19765625,45.81159528493882L202.423828125,56.80117529034614L202.65,61.66490253210067L202.876171875,58.3879865348339L203.10234375,45.29824000000954L203.328515625,59.16851233839989L203.5546875,52.82547857761382L203.780859375,59.71677061319352L204.00703125,44.096733146905876L204.233203125,36.44536476731301L204.459375,57.311901861429206L204.685546875,51.15670245289802L204.91171875,40.024239981174446L205.137890625,58.12673282027244L205.36406250000002,62.84410488009452L205.590234375,62.9251114666462L205.81640625,39.63759046196938L206.042578125,50.63655119538308L206.26875,51.80885207056998L206.49492187500002,59.619578534364706L206.72109375000002,46.20660569667814L206.947265625,66.26414071917534L207.1734375,46.734265053272225L207.399609375,44.21604510545731L207.62578125000002,59.08594962358474L207.85195312500002,61.88810583353042L208.078125,48.36674910187719L208.30429687499998,48.499072754383064L208.53046874999998,30.51522370576859L208.756640625,59.28590770959855L208.9828125,58.68056502342223L209.208984375,56.03825923204421L209.43515624999998,57.64960806965827L209.66132812499998,49.96958758831023L209.8875,61.116925591230384L210.113671875,43.39353021383286L210.33984375,58.761413359642034L210.566015625,42.281628215312935L210.79218749999998,54.81074657440186L211.018359375,50.357555860280996L211.24453125,57.772164160013205L211.470703125,56.31173338890075L211.696875,52.86447849273682L211.923046875,57.209716105461126L212.14921875,45.858446174860006L212.375390625,56.44316908121108L212.6015625,32.69155260324476L212.827734375,49.35421358942985L213.05390625,60.17526578307151L213.28007812500002,56.024306827783576L213.50625,59.82704471945763L213.732421875,43.55171021223069L213.95859375,61.88739370703696L214.184765625,52.35332992076874L214.41093750000002,59.473970645666114L214.63710937500002,47.23331626653672L214.86328125,53.45650177597999L215.089453125,48.350686693191506L215.315625,51.36033546328545L215.54179687500002,51.19339894652366L215.76796875000002,58.53928264379502L215.994140625,56.4842174589634L216.22031249999998,40.28318148255349L216.44648437499998,60.140230917930595L216.67265625,53.35070263743401L216.898828125,57.510400527715674L217.125,40.488660746812826L217.35117187499998,57.12464776039123L217.57734374999998,63.28201871514321L217.803515625,50.87657299041747L218.0296875,50.178293401002875L218.255859375,37.41243254542351L218.48203125,65.88574659228324L218.70820312499998,51.12915810346604L218.934375,46.178217345476156L219.160546875,63.58006563186645L219.38671875,61.283202731609336L219.612890625,64.11598038077354L219.8390625,52.88208823800086L220.065234375,54.21990137696265L220.29140625,49.0002515554428L220.517578125,54.49945058822631L220.74375,53.98049499988555L220.969921875,53.69538065195083L221.19609375,65.46138953566552L221.422265625,56.325184667110435L221.6484375,50.62754850983619L221.874609375,49.680956566333776L222.10078125,45.445342475175835L222.32695312500002,53.80079295635224L222.553125,62.10638579130172L222.779296875,60.83821159005166L223.00546875,49.16834857463836L223.231640625,49.23725780248641L223.45781250000002,64.4353823006153L223.68398437500002,63.32337480187417L223.91015625,49.79942452311515L224.136328125,50.16414757966996L224.3625,55.034811460971824L224.58867187500002,60.45157086253165L224.81484375000002,41.382230037450796L225.041015625,63.37588753700257L225.26718749999998,53.576015943288795L225.49335937499998,63.65248274207116L225.71953125,44.18399941325188L225.945703125,65.58419179320336L226.171875,52.696100139617926L226.39804687499998,50.93603115677833L226.62421874999998,39.00379788279534L226.850390625,57.90007438659667L227.0765625,67.02300381064416L227.302734375,59.39852919578553L227.52890625,56.23048063516616L227.75507812499998,50.10085623860358L227.98125,56.62819009423255L228.207421875,59.5759366095066L228.43359375,49.423412942886344L228.659765625,50.19946377873421L228.8859375,65.2891340494156L229.112109375,62.839761787652975L229.33828125,63.54770343899726L229.564453125,64.28818311691283L229.790625,54.24495767951011L230.016796875,63.3794042110443L230.24296875000002,55.02862211465835L230.469140625,60.35979446172715L230.6953125,53.727654927968985L230.921484375,72.1483276426792L231.14765625,68.4412257015705L231.37382812500002,56.318986529111854L231.60000000000002,52.746634745597845L231.826171875,55.87989460825919L232.05234375,69.59108140468597L232.278515625,58.0594412624836L232.50468750000002,50.83230685591698L232.73085937500002,56.605358088016516L232.95703125,67.82644953727721L233.18320312499998,62.85096239447593L233.40937499999998,64.26885020136832L233.635546875,52.52730857729911L233.86171875,54.96463623046874L234.087890625,57.28870060443877L234.31406249999998,55.08975070118903L234.54023437499998,54.661701136827475L234.76640625,60.87851267457009L234.992578125,61.626632326841346L235.21875,54.997438007593146L235.444921875,59.58046432733536L235.67109374999998,51.837847048044196L235.897265625,55.50121035575866L236.1234375,56.58934842944146L236.349609375,62.21636977195739L236.57578125,47.006139123439766L236.801953125,51.856652462482444L237.028125,49.368456119298926L237.254296875,53.64639338254929L237.48046875,58.257535511255256L237.706640625,52.444657945632926L237.9328125,56.00105282068253L238.158984375,59.137767815589896L238.38515625,47.83288281559945L238.611328125,41.49353277087212L238.8375,58.17771580219268L239.063671875,57.39801641702651L239.28984375000002,60.50491001605988L239.516015625,51.0500417292118L239.7421875,57.27662962079049L239.968359375,59.043433034420005L240.19453125,59.68942847251891L240.42070312500002,52.387089991569525L240.64687500000002,52.666656786203376L240.873046875,60.032119566202155L241.09921875,64.17137678861617L241.325390625,59.63552665114402L241.55156250000002,66.24074604511262L241.77773437500002,58.27174287438392L242.00390625,61.64372336268424L242.23007812499998,55.06284814476966L242.45624999999998,61.53613072037696L242.682421875,49.09691613316535L242.90859375,63.632692658901206L243.134765625,59.51752465367316L243.36093749999998,68.70460700392722L243.58710937499998,60.04608955383301L243.81328125,49.58727236986161L244.039453125,43.50303065180776L244.265625,63.04831814169883L244.491796875,64.51351400613784L244.71796874999998,56.628418678045264L244.944140625,51.66069459319115L245.1703125,64.46627628207206L245.396484375,73.14034622311591L245.62265625,66.80969115495681L245.848828125,45.63199874162672L246.075,58.242765480279914L246.301171875,66.85045819878579L246.52734375,50.193133765459066L246.753515625,50.87103422880172L246.9796875,61.27460446357726L247.20585937500002,59.18766062855721L247.43203125,58.046139442920676L247.658203125,54.51874833703042L247.884375,65.502622538805L248.110546875,58.17684542536735L248.33671875000002,70.38391556739806L248.56289062500002,45.09737637042997L248.7890625,39.21919416785238L249.015234375,58.70832916498183L249.24140625,66.396868789196L249.46757812500002,64.08682715296746L249.69375000000002,60.248016977310186L249.919921875,43.949270212650276L250.14609374999998,64.55494921803474L250.37226562499998,48.08028083443642L250.5984375,43.96308194994927L250.824609375,64.05119445323945L251.05078125,60.31833287477494L251.27695312499998,65.795508736372L251.50312499999998,59.9388661623001L251.729296875,39.84905686378477L251.95546875,45.93972530364991L252.181640625,67.72841345667838L252.4078125,49.8896535873413L252.63398437499998,45.17577182650567L252.86015625,65.81258218884467L253.086328125,62.37061109542846L253.3125,58.002664560079566L253.538671875,52.445079946517936L253.76484375,48.76689385771752L253.991015625,49.38038643598557" style="fill: none;" fill="none"></path></g></g></g></g></g></g><g transform="translate(58, 177)" clip-path="url(#clip_1)"><clipPath id="clip_1"><rect width="271" height="23"></rect></clipPath><g><g><line x1="0" y1="0" x2="0" y2="5" style="visibility: inherit;" fill="rgb(0, 0, 0)" stroke="rgb(204, 204, 204)" stroke-width="1px"></line><line x1="22.6171875" y1="0" x2="22.6171875" y2="5" style="visibility: inherit;" fill="rgb(0, 0, 0)" stroke="rgb(204, 204, 204)" stroke-width="1px"></line><line x1="45.234375" y1="0" x2="45.234375" y2="5" style="visibility: inherit;" fill="rgb(0, 0, 0)" stroke="rgb(204, 204, 204)" stroke-width="1px"></line><line x1="67.8515625" y1="0" x2="67.8515625" y2="5" style="visibility: inherit;" fill="rgb(0, 0, 0)" stroke="rgb(204, 204, 204)" stroke-width="1px"></line><line x1="90.46875" y1="0" x2="90.46875" y2="5" style="visibility: inherit;" fill="rgb(0, 0, 0)" stroke="rgb(204, 204, 204)" stroke-width="1px"></line><line x1="113.0859375" y1="0" x2="113.0859375" y2="5" style="visibility: inherit;" fill="rgb(0, 0, 0)" stroke="rgb(204, 204, 204)" stroke-width="1px"></line><line x1="135.703125" y1="0" x2="135.703125" y2="5" style="visibility: inherit;" fill="rgb(0, 0, 0)" stroke="rgb(204, 204, 204)" stroke-width="1px"></line><line x1="158.3203125" y1="0" x2="158.3203125" y2="5" style="visibility: inherit;" fill="rgb(0, 0, 0)" stroke="rgb(204, 204, 204)" stroke-width="1px"></line><line x1="180.9375" y1="0" x2="180.9375" y2="5" style="visibility: inherit;" fill="rgb(0, 0, 0)" stroke="rgb(204, 204, 204)" stroke-width="1px"></line><line x1="203.5546875" y1="0" x2="203.5546875" y2="5" style="visibility: inherit;" fill="rgb(0, 0, 0)" stroke="rgb(204, 204, 204)" stroke-width="1px"></line><line x1="226.171875" y1="0" x2="226.171875" y2="5" style="visibility: inherit;" fill="rgb(0, 0, 0)" stroke="rgb(204, 204, 204)" stroke-width="1px"></line><line x1="248.7890625" y1="0" x2="248.7890625" y2="5" style="visibility: inherit;" fill="rgb(0, 0, 0)" stroke="rgb(204, 204, 204)" stroke-width="1px"></line><line x1="271.40625" y1="0" x2="271.40625" y2="5" style="visibility: inherit;" fill="rgb(0, 0, 0)" stroke="rgb(204, 204, 204)" stroke-width="1px"></line></g><g transform="translate(0, 8)"><text x="0" y="0" dx="0em" dy="0.95em" style="text-anchor: middle; visibility: hidden; font-family: &quot;Helvetica Neue&quot;, sans-serif; font-size: 12px; font-weight: 200;" fill="rgb(50, 49, 63)" stroke="none" stroke-width="1px">-100</text><text x="22.6171875" y="0" dx="0em" dy="0.95em" style="text-anchor: middle; visibility: inherit; font-family: &quot;Helvetica Neue&quot;, sans-serif; font-size: 12px; font-weight: 200;" fill="rgb(50, 49, 63)" stroke="none" stroke-width="1px">0</text><text x="45.234375" y="0" dx="0em" dy="0.95em" style="text-anchor: middle; visibility: hidden; font-family: &quot;Helvetica Neue&quot;, sans-serif; font-size: 12px; font-weight: 200;" fill="rgb(50, 49, 63)" stroke="none" stroke-width="1px">100</text><text x="67.8515625" y="0" dx="0em" dy="0.95em" style="text-anchor: middle; visibility: inherit; font-family: &quot;Helvetica Neue&quot;, sans-serif; font-size: 12px; font-weight: 200;" fill="rgb(50, 49, 63)" stroke="none" stroke-width="1px">200</text><text x="90.46875" y="0" dx="0em" dy="0.95em" style="text-anchor: middle; visibility: hidden; font-family: &quot;Helvetica Neue&quot;, sans-serif; font-size: 12px; font-weight: 200;" fill="rgb(50, 49, 63)" stroke="none" stroke-width="1px">300</text><text x="113.0859375" y="0" dx="0em" dy="0.95em" style="text-anchor: middle; visibility: inherit; font-family: &quot;Helvetica Neue&quot;, sans-serif; font-size: 12px; font-weight: 200;" fill="rgb(50, 49, 63)" stroke="none" stroke-width="1px">400</text><text x="135.703125" y="0" dx="0em" dy="0.95em" style="text-anchor: middle; visibility: hidden; font-family: &quot;Helvetica Neue&quot;, sans-serif; font-size: 12px; font-weight: 200;" fill="rgb(50, 49, 63)" stroke="none" stroke-width="1px">500</text><text x="158.3203125" y="0" dx="0em" dy="0.95em" style="text-anchor: middle; visibility: inherit; font-family: &quot;Helvetica Neue&quot;, sans-serif; font-size: 12px; font-weight: 200;" fill="rgb(50, 49, 63)" stroke="none" stroke-width="1px">600</text><text x="180.9375" y="0" dx="0em" dy="0.95em" style="text-anchor: middle; visibility: hidden; font-family: &quot;Helvetica Neue&quot;, sans-serif; font-size: 12px; font-weight: 200;" fill="rgb(50, 49, 63)" stroke="none" stroke-width="1px">700</text><text x="203.5546875" y="0" dx="0em" dy="0.95em" style="text-anchor: middle; visibility: inherit; font-family: &quot;Helvetica Neue&quot;, sans-serif; font-size: 12px; font-weight: 200;" fill="rgb(50, 49, 63)" stroke="none" stroke-width="1px">800</text><text x="226.171875" y="0" dx="0em" dy="0.95em" style="text-anchor: middle; visibility: hidden; font-family: &quot;Helvetica Neue&quot;, sans-serif; font-size: 12px; font-weight: 200;" fill="rgb(50, 49, 63)" stroke="none" stroke-width="1px">900</text><text x="248.7890625" y="0" dx="0em" dy="0.95em" style="text-anchor: middle; visibility: inherit; font-family: &quot;Helvetica Neue&quot;, sans-serif; font-size: 12px; font-weight: 200;" fill="rgb(50, 49, 63)" stroke="none" stroke-width="1px">1k</text><text x="271.40625" y="0" dx="0em" dy="0.95em" style="text-anchor: middle; visibility: hidden; font-family: &quot;Helvetica Neue&quot;, sans-serif; font-size: 12px; font-weight: 200;" fill="rgb(50, 49, 63)" stroke="none" stroke-width="1px">1.1k</text></g><line x1="0" y1="0" x2="271.40625" y2="0" fill="rgb(0, 0, 0)" stroke="rgb(204, 204, 204)" stroke-width="1px"></line></g></g></g></g></svg>