<svg viewBox="0 0 330 200" xmlns="http://www.w3.org/2000/svg"><g><g><g><g><g><line x1="68.3125" y1="177" x2="63.3125" y2="177" style="visibility: inherit;" fill="rgb(0, 0, 0)" stroke="rgb(204, 204, 204)" stroke-width="1px"></line><line x1="68.3125" y1="163.38461538461536" x2="63.3125" y2="163.38461538461536" style="visibility: inherit;" fill="rgb(0, 0, 0)" stroke="rgb(204, 204, 204)" stroke-width="1px"></line><line x1="68.3125" y1="149.7692307692307" x2="63.3125" y2="149.7692307692307" style="visibility: inherit;" fill="rgb(0, 0, 0)" stroke="rgb(204, 204, 204)" stroke-width="1px"></line><line x1="68.3125" y1="136.15384615384616" x2="63.3125" y2="136.15384615384616" style="visibility: inherit;" fill="rgb(0, 0, 0)" stroke="rgb(204, 204, 204)" stroke-width="1px"></line><line x1="68.3125" y1="122.53846153846152" x2="63.3125" y2="122.53846153846152" style="visibility: inherit;" fill="rgb(0, 0, 0)" stroke="rgb(204, 204, 204)" stroke-width="1px"></line><line x1="68.3125" y1="108.92307692307686" x2="63.3125" y2="108.92307692307686" style="visibility: inherit;" fill="rgb(0, 0, 0)" stroke="rgb(204, 204, 204)" stroke-width="1px"></line><line x1="68.3125" y1="95.30769230769232" x2="63.3125" y2="95.30769230769232" style="visibility: inherit;" fill="rgb(0, 0, 0)" stroke="rgb(204, 204, 204)" stroke-width="1px"></line><line x1="68.3125" y1="81.69230769230768" x2="63.3125" y2="81.69230769230768" style="visibility: inherit;" fill="rgb(0, 0, 0)" stroke="rgb(204, 204, 204)" stroke-width="1px"></line><line x1="68.3125" y1="68.07692307692304" x2="63.3125" y2="68.07692307692304" style="visibility: inherit;" fill="rgb(0, 0, 0)" stroke="rgb(204, 204, 204)" stroke-width="1px"></line><line x1="68.3125" y1="54.46153846153848" x2="63.3125" y2="54.46153846153848" style="visibility: inherit;" fill="rgb(0, 0, 0)" stroke="rgb(204, 204, 204)" stroke-width="1px"></line><line x1="68.3125" y1="40.84615384615384" x2="63.3125" y2="40.84615384615384" style="visibility: inherit;" fill="rgb(0, 0, 0)" stroke="rgb(204, 204, 204)" stroke-width="1px"></line><line x1="68.3125" y1="27.230769230769198" x2="63.3125" y2="27.230769230769198" style="visibility: inherit;" fill="rgb(0, 0, 0)" stroke="rgb(204, 204, 204)" stroke-width="1px"></line><line x1="68.3125" y1="13.615384615384528" x2="63.3125" y2="13.615384615384528" style="visibility: inherit;" fill="rgb(0, 0, 0)" stroke="rgb(204, 204, 204)" stroke-width="1px"></line><line x1="68.3125" y1="0" x2="63.3125" y2="0" style="visibility: inherit;" fill="rgb(0, 0, 0)" stroke="rgb(204, 204, 204)" stroke-width="1px"></line></g><g transform="translate(58.3125, 0)"><text x="0" y="177" dx="0em" dy="0.3em" style="text-anchor: end; visibility: hidden; font-family: &quot;Helvetica Neue&quot;, sans-serif; font-size: 12px; font-weight: 200;" fill="rgb(50, 49, 63)" stroke="none" stroke-width="1px">7.8e-3</text><text x="0" y="163.38461538461536" dx="0em" dy="0.3em" style="text-anchor: end; visibility: inherit; font-family: &quot;Helvetica Neue&quot;, sans-serif; font-size: 12px; font-weight: 200;" fill="rgb(50, 49, 63)" stroke="none" stroke-width="1px">8e-3</text><text x="0" y="149.7692307692307" dx="0em" dy="0.3em" style="text-anchor: end; visibility: hidden; font-family: &quot;Helvetica Neue&quot;, sans-serif; font-size: 12px; font-weight: 200;" fill="rgb(50, 49, 63)" stroke="none" stroke-width="1px">8.2e-3</text><text x="0" y="136.15384615384616" dx="0em" dy="0.3em" style="text-anchor: end; visibility: inherit; font-family: &quot;Helvetica Neue&quot;, sans-serif; font-size: 12px; font-weight: 200;" fill="rgb(50, 49, 63)" stroke="none" stroke-width="1px">8.4e-3</text><text x="0" y="122.53846153846152" dx="0em" dy="0.3em" style="text-anchor: end; visibility: hidden; font-family: &quot;Helvetica Neue&quot;, sans-serif; font-size: 12px; font-weight: 200;" fill="rgb(50, 49, 63)" stroke="none" stroke-width="1px">8.6e-3</text><text x="0" y="108.92307692307686" dx="0em" dy="0.3em" style="text-anchor: end; visibility: inherit; font-family: &quot;Helvetica Neue&quot;, sans-serif; font-size: 12px; font-weight: 200;" fill="rgb(50, 49, 63)" stroke="none" stroke-width="1px">8.8e-3</text><text x="0" y="95.30769230769232" dx="0em" dy="0.3em" style="text-anchor: end; visibility: hidden; font-family: &quot;Helvetica Neue&quot;, sans-serif; font-size: 12px; font-weight: 200;" fill="rgb(50, 49, 63)" stroke="none" stroke-width="1px">9e-3</text><text x="0" y="81.69230769230768" dx="0em" dy="0.3em" style="text-anchor: end; visibility: inherit; font-family: &quot;Helvetica Neue&quot;, sans-serif; font-size: 12px; font-weight: 200;" fill="rgb(50, 49, 63)" stroke="none" stroke-width="1px">9.2e-3</text><text x="0" y="68.07692307692304" dx="0em" dy="0.3em" style="text-anchor: end; visibility: hidden; font-family: &quot;Helvetica Neue&quot;, sans-serif; font-size: 12px; font-weight: 200;" fill="rgb(50, 49, 63)" stroke="none" stroke-width="1px">9.4e-3</text><text x="0" y="54.46153846153848" dx="0em" dy="0.3em" style="text-anchor: end; visibility: inherit; font-family: &quot;Helvetica Neue&quot;, sans-serif; font-size: 12px; font-weight: 200;" fill="rgb(50, 49, 63)" stroke="none" stroke-width="1px">9.6e-3</text><text x="0" y="40.84615384615384" dx="0em" dy="0.3em" style="text-anchor: end; visibility: hidden; font-family: &quot;Helvetica Neue&quot;, sans-serif; font-size: 12px; font-weight: 200;" fill="rgb(50, 49, 63)" stroke="none" stroke-width="1px">9.8e-3</text><text x="0" y="27.230769230769198" dx="0em" dy="0.3em" style="text-anchor: end; visibility: inherit; font-family: &quot;Helvetica Neue&quot;, sans-serif; font-size: 12px; font-weight: 200;" fill="rgb(50, 49, 63)" stroke="none" stroke-width="1px">0.01</text><text x="0" y="13.615384615384528" dx="0em" dy="0.3em" style="text-anchor: end; visibility: hidden; font-family: &quot;Helvetica Neue&quot;, sans-serif; font-size: 12px; font-weight: 200;" fill="rgb(50, 49, 63)" stroke="none" stroke-width="1px">0.0102</text><text x="0" y="0" dx="0em" dy="0.3em" style="text-anchor: end; visibility: hidden; font-family: &quot;Helvetica Neue&quot;, sans-serif; font-size: 12px; font-weight: 200;" fill="rgb(50, 49, 63)" stroke="none" stroke-width="1px">0.0104</text></g><line x1="68.3125" y1="0" x2="68.3125" y2="177" fill="rgb(0, 0, 0)" stroke="rgb(204, 204, 204)" stroke-width="1px"></line></g></g><g transform="translate(68, 0)" clip-path="url(#clip_0)"><clipPath id="clip_0"><rect width="261" height="177"></rect></clipPath><g><g><g><line x1="0" y1="0" x2="0" y2="177" fill="rgb(0, 0, 0)" stroke="rgb(60, 60, 60)" stroke-width="1px" opacity="0.25"></line><line x1="21.807291666666664" y1="0" x2="21.807291666666664" y2="177" fill="rgb(0, 0, 0)" stroke="rgb(60, 60, 60)" stroke-width="1px" opacity="0.25"></line><line x1="43.61458333333333" y1="0" x2="43.61458333333333" y2="177" fill="rgb(0, 0, 0)" stroke="rgb(60, 60, 60)" stroke-width="1px" opacity="0.25"></line><line x1="65.421875" y1="0" x2="65.421875" y2="177" fill="rgb(0, 0, 0)" stroke="rgb(60, 60, 60)" stroke-width="1px" opacity="0.25"></line><line x1="87.22916666666666" y1="0" x2="87.22916666666666" y2="177" fill="rgb(0, 0, 0)" stroke="rgb(60, 60, 60)" stroke-width="1px" opacity="0.25"></line><line x1="109.03645833333334" y1="0" x2="109.03645833333334" y2="177" fill="rgb(0, 0, 0)" stroke="rgb(60, 60, 60)" stroke-width="1px" opacity="0.25"></line><line x1="130.84375" y1="0" x2="130.84375" y2="177" fill="rgb(0, 0, 0)" stroke="rgb(60, 60, 60)" stroke-width="1px" opacity="0.25"></line><line x1="152.65104166666669" y1="0" x2="152.65104166666669" y2="177" fill="rgb(0, 0, 0)" stroke="rgb(60, 60, 60)" stroke-width="1px" opacity="0.25"></line><line x1="174.45833333333331" y1="0" x2="174.45833333333331" y2="177" fill="rgb(0, 0, 0)" stroke="rgb(60, 60, 60)" stroke-width="1px" opacity="0.25"></line><line x1="196.265625" y1="0" x2="196.265625" y2="177" fill="rgb(0, 0, 0)" stroke="rgb(60, 60, 60)" stroke-width="1px" opacity="0.25"></line><line x1="218.07291666666669" y1="0" x2="218.07291666666669" y2="177" fill="rgb(0, 0, 0)" stroke="rgb(60, 60, 60)" stroke-width="1px" opacity="0.25"></line><line x1="239.88020833333331" y1="0" x2="239.88020833333331" y2="177" fill="rgb(0, 0, 0)" stroke="rgb(60, 60, 60)" stroke-width="1px" opacity="0.25"></line><line x1="261.6875" y1="0" x2="261.6875" y2="177" fill="rgb(0, 0, 0)" stroke="rgb(60, 60, 60)" stroke-width="1px" opacity="0.25"></line></g><g><line x1="0" y1="177" x2="261.6875" y2="177" fill="rgb(0, 0, 0)" stroke="rgb(60, 60, 60)" stroke-width="1px" opacity="0.25"></line><line x1="0" y1="163.38461538461536" x2="261.6875" y2="163.38461538461536" fill="rgb(0, 0, 0)" stroke="rgb(60, 60, 60)" stroke-width="1px" opacity="0.25"></line><line x1="0" y1="149.7692307692307" x2="261.6875" y2="149.7692307692307" fill="rgb(0, 0, 0)" stroke="rgb(60, 60, 60)" stroke-width="1px" opacity="0.25"></line><line x1="0" y1="136.15384615384616" x2="261.6875" y2="136.15384615384616" fill="rgb(0, 0, 0)" stroke="rgb(60, 60, 60)" stroke-width="1px" opacity="0.25"></line><line x1="0" y1="122.53846153846152" x2="261.6875" y2="122.53846153846152" fill="rgb(0, 0, 0)" stroke="rgb(60, 60, 60)" stroke-width="1px" opacity="0.25"></line><line x1="0" y1="108.92307692307686" x2="261.6875" y2="108.92307692307686" fill="rgb(0, 0, 0)" stroke="rgb(60, 60, 60)" stroke-width="1px" opacity="0.25"></line><line x1="0" y1="95.30769230769232" x2="261.6875" y2="95.30769230769232" fill="rgb(0, 0, 0)" stroke="rgb(60, 60, 60)" stroke-width="1px" opacity="0.25"></line><line x1="0" y1="81.69230769230768" x2="261.6875" y2="81.69230769230768" fill="rgb(0, 0, 0)" stroke="rgb(60, 60, 60)" stroke-width="1px" opacity="0.25"></line><line x1="0" y1="68.07692307692304" x2="261.6875" y2="68.07692307692304" fill="rgb(0, 0, 0)" stroke="rgb(60, 60, 60)" stroke-width="1px" opacity="0.25"></line><line x1="0" y1="54.46153846153848" x2="261.6875" y2="54.46153846153848" fill="rgb(0, 0, 0)" stroke="rgb(60, 60, 60)" stroke-width="1px" opacity="0.25"></line><line x1="0" y1="40.84615384615384" x2="261.6875" y2="40.84615384615384" fill="rgb(0, 0, 0)" stroke="rgb(60, 60, 60)" stroke-width="1px" opacity="0.25"></line><line x1="0" y1="27.230769230769198" x2="261.6875" y2="27.230769230769198" fill="rgb(0, 0, 0)" stroke="rgb(60, 60, 60)" stroke-width="1px" opacity="0.25"></line><line x1="0" y1="13.615384615384528" x2="261.6875" y2="13.615384615384528" fill="rgb(0, 0, 0)" stroke="rgb(60, 60, 60)" stroke-width="1px" opacity="0.25"></line><line x1="0" y1="0" x2="261.6875" y2="0" fill="rgb(0, 0, 0)" stroke="rgb(60, 60, 60)" stroke-width="1px" opacity="0.25"></line></g></g></g><g><g><line x1="0" y1="708" x2="261.6875" y2="708" fill="rgb(0, 0, 0)" stroke="rgb(153, 153, 153)" stroke-width="1.5px"></line></g></g><g><g><line x1="21.807291666666664" y1="0" x2="21.807291666666664" y2="177" fill="rgb(0, 0, 0)" stroke="rgb(153, 153, 153)" stroke-width="1.5px"></line></g></g><g><g><g><g><g><path stroke="rgb(0, 119, 187)" stroke-width="2px" d="M27.695260416666667,-4.146972162792366L27.913333333333334,3.530387988457278L28.13140625,8.228064306653437L28.34947916666667,-1.2916822204223308L28.567552083333332,22.821395091712446L28.785625,15.943084993614548L29.003697916666667,26.31120799940362L29.221770833333334,29.449839581663753L29.43984375,10.772813333341674L29.657916666666665,-7.633741794870474L29.875989583333332,31.948559064704597L30.0940625,21.19749054427325L30.312135416666667,19.185061143567907L30.530208333333334,29.30021186402209L30.966354166666665,11.671213654944495L31.184427083333336,22.851067028939696L31.4025,9.013419619546454L31.620572916666667,15.096166751132529L31.838645833333334,39.458222049360046L32.05671875,18.041360127238107L32.274791666666665,26.11973524208247L32.49286458333333,10.657042056895193L32.7109375,30.79820088297126L32.929010416666664,24.743604050805914L33.147083333333335,29.404761061645445L33.36515625,31.858782434119576L33.58322916666666,73.39626107192954L33.80130208333334,22.652683499913934L34.019375000000004,32.69130851901491L34.23744791666667,60.4270250390355L34.45552083333333,30.18815092570503L34.67359375,45.26054401351851L34.891666666666666,40.487990434926274L35.10973958333333,38.07169299973887L35.3278125,57.481007442451414L35.545885416666664,43.68387363965692L35.76395833333333,48.076651782370504L35.982031250000006,18.050172946200888L36.20010416666667,47.931271970272036L36.41817708333333,37.0046444879128L36.636250000000004,34.37347911412897L36.85432291666667,47.79521218973852L37.07239583333333,54.50709315274767L37.290468749999995,45.12036313059235L37.508541666666666,44.78706104938797L37.72661458333333,46.771466953823165L37.9446875,40.11829584951582L38.16276041666667,35.849594589609325L38.380833333333335,57.55708933277768L38.59890625,48.15958104282615L38.81697916666667,58.720254632715964L39.03505208333333,59.97947331919116L39.253125,49.48562498963794L39.47119791666667,75.75847696340999L39.68927083333333,69.17809086751477L39.90734375,50.72778865236499L40.125416666666666,50.27351636554184L40.34348958333334,65.56825877783388L40.5615625,47.54997489658683L40.779635416666665,67.91151759830802L40.997708333333335,58.19192930597522L41.21578125,50.97112389825854L41.43385416666666,52.97169720438808L41.651927083333334,84.62328521792702L41.87,59.2607530619089L42.08807291666667,58.11787626605765L42.30614583333333,68.82133020345978L42.52421875,70.06266964570831L42.74229166666667,61.19760778489018L42.96036458333333,76.24819073081015L43.1784375,56.952301706259036L43.396510416666665,62.10932243730011L43.61458333333333,77.65202841048054L43.83265625,41.60626741957202L44.05072916666667,53.005490244008L44.268802083333334,76.6397588596894L44.486875000000005,61.641292008642935L44.70494791666667,81.9992842221489L44.92302083333333,69.74800762763388L45.141093749999996,48.945316765170816L45.35916666666667,32.19164070429707L45.57723958333333,73.29107785855345L45.795312499999994,44.33760728228546L46.01338541666667,68.09113426105331L46.231458333333336,57.51714634035639L46.44953125,66.96499548107384L46.66760416666667,65.96274337917565L46.885677083333334,81.90012415842365L47.10375,91.40757077989667L47.32182291666667,78.39839175458135L47.53989583333333,83.52142924127668L47.757968749999996,49.46723853280909L47.97604166666666,68.51738305160629L48.19411458333334,64.40154298968038L48.4121875,61.45096047967668L48.630260416666665,79.5483061252878L48.848333333333336,95.164177516332L49.06640625,88.36968430074359L49.284479166666664,72.45088018305024L49.502552083333335,68.94572409414324L49.720625,88.71680792535724L49.93869791666666,74.68933619959992L50.15677083333334,106.43685079652528L50.374843750000004,64.91966066280233L50.59291666666667,86.76207395814929L50.81098958333333,52.302620380543715L51.0290625,86.7519297061058L51.247135416666666,78.28553695059738L51.46520833333333,62.49499421967906L51.68328125,85.34257608938672L51.901354166666664,71.94493561238049L52.11942708333333,81.08363867207211L52.337500000000006,78.57287288972961L52.55557291666667,92.8201578769546L52.77364583333333,81.7154353696566L52.991718750000004,98.44007350905581L53.20979166666667,74.6659410183246L53.42786458333333,85.60632664251783L53.645937499999995,90.50511275747645L53.864010416666666,61.87378558516498L54.08208333333333,80.01348348305773L54.30015625,75.20326936875395L54.51822916666667,84.9513883699591L54.736302083333335,60.02055753996737L54.954375,96.97575072657601L55.17244791666667,94.50296248782138L55.39052083333333,78.70050026075195L55.60859375,89.56404317571564L55.82666666666667,81.12104560148255L56.04473958333333,92.43461289772618L56.2628125,81.24892657880596L56.480885416666666,81.804134173462L56.69895833333334,95.57590734614773L56.91703125,71.76373391025338L57.135104166666665,87.55009213720373L57.353177083333335,75.01724914690621L57.57125,91.79279875124874L57.78932291666666,79.25012851678405L58.007395833333334,83.01504085958003L58.22546875,79.53277273934619L58.44354166666667,99.43928233534095L58.66161458333333,89.09671016438647L58.8796875,98.22178188539466L59.09776041666667,82.11714775057936L59.31583333333333,76.23601762835793L59.53390625,82.2382447593487L59.751979166666665,54.19661563864119L59.97005208333333,80.79655633924096L60.188125,68.92454796800243L60.40619791666667,95.84587125365547L60.624270833333334,127.01858716916577L60.842343750000005,102.62032957145799L61.06041666666667,105.81101384701634L61.27848958333333,102.11749167797655L61.496562499999996,105.62271116845879L61.71463541666667,103.7145773590757L61.93270833333333,95.40909780160736L62.150781249999994,76.75096522271632L62.36885416666667,76.4562747008525L62.586927083333336,99.24780957801981L62.805,82.42483559537389L63.02307291666667,77.24277124210042L63.241145833333334,105.15189107048968L63.45921875,95.25021345397597L63.67729166666667,81.93600945002756L63.89536458333333,88.43150083663369L64.1134375,76.14085186387481L64.33151041666666,107.97903071343896L64.54958333333333,93.42044399162894L64.76765625,88.33018511934918L64.98572916666666,106.69984053075311L65.20380208333333,100.1686540572689L65.421875,91.19866258937577L65.63994791666667,104.43260019902996L65.85802083333333,90.06770528967562L66.07609375,85.82442806145318L66.29416666666667,104.3865072538073L66.51223958333333,127.05542348439874L66.7303125,101.48296871265536L66.94838541666667,99.6057114704297L67.16645833333332,117.14721550563205L67.38453125,79.2434713513805L67.60260416666668,111.82414604895386L67.82067708333334,99.74608255808167L68.03875000000001,91.21039188080105L68.25682291666666,97.07655923125833L68.47489583333333,99.78450391269645L68.69296875,100.48147742966044L68.91104166666666,99.81506347197751L69.12911458333333,113.67927614140967L69.3471875,94.6409877171883L69.56526041666666,101.65586480842184L69.78333333333333,128.86382661587913L70.00140625,100.53010643789399L70.21947916666666,88.10732858226847L70.43755208333333,96.53967469185588L70.87369791666666,100.6239407692964L71.09177083333333,108.05511260376524L71.30984375,100.99762965394898L71.52791666666666,102.92345250283293L71.74598958333334,89.52967952191827L71.96406250000001,104.39899736413587L72.18213541666667,97.55397309305573L72.40020833333334,90.31801470884908L72.61828125000001,100.54037749308804L72.83635416666667,116.4318555318392L73.05442708333334,100.6514570529644L73.27250000000001,118.79090134455605L73.49057291666666,98.02897769499282L73.70864583333334,101.74545123428103L73.92671874999999,82.35046554757994L74.14479166666666,100.116918371847L74.36286458333333,122.07389831371029L74.58093749999999,101.0589389772369L74.79901041666666,87.72666552433597L75.01708333333333,115.01749319067366L75.23515624999999,94.20174160370458L75.45322916666666,95.28806419441331L75.67130208333334,109.81437951440992L75.889375,55.12976002349299L76.10744791666667,96.73558555944605L76.32552083333334,108.2048037229822L76.54359375,94.45040258192095L76.76166666666667,113.09141673548861L76.97973958333334,98.23275035791669L77.1978125,105.47035718308042L77.41588541666667,107.42959266213268L77.63395833333334,105.87853652468091L77.85203125,92.48108625240049L78.07010416666667,92.29284697541821L78.28817708333334,112.23593928034487L78.50625,91.92137714590015L78.72432291666667,124.74817675867904L78.94239583333334,96.77026622111978L79.16046874999999,101.46451885425124L79.37854166666666,112.27004932784114L79.59661458333332,92.065679131219L80.03276041666668,114.336687075404L80.25083333333333,105.27812360685603L80.46890625,113.1494291768624L80.68697916666667,82.48557430448437L80.90505208333333,92.70844430132551L81.123125,96.43690073834013L81.34119791666667,102.62197801241506L81.55927083333333,105.04005069171004L81.77734375,102.724561761205L81.99541666666667,115.72974648727818L82.21348958333333,105.69574978317203L82.4315625,117.37964568057883L82.64963541666667,122.67849573550313L82.86770833333333,110.65920550490799L83.08578125,98.20390264116797L83.30385416666667,97.10585075903396L83.52192708333332,105.26030776420463L83.74,103.07954718115235L83.95807291666668,74.9885916348833L84.17614583333334,124.30734560581351L84.39421875000001,96.51152439243516L84.83036458333333,104.18222737828124L85.0484375,121.4620097107612L85.26651041666666,84.50497787846965L85.48458333333333,108.52079717413734L85.70265625,134.0213545595224L85.92072916666666,104.14114315750504L86.13880208333333,124.94351701209176L86.356875,118.52398071266134L86.57494791666666,106.96029420197007L86.79302083333333,97.31900685509807L87.01109375,98.54798299016858L87.22916666666666,95.86292627740363L87.44723958333333,115.78839294440468L87.6653125,99.01499899362139L87.88338541666666,103.2924496709154L88.10145833333334,107.63704261642233L88.31953125000001,130.14853273561366L88.53760416666667,116.89500403920043L88.75567708333334,85.95110440884642L88.97375000000001,125.72722388402772L89.19182291666667,98.60669284887037L89.40989583333334,91.68584029376504L89.62796875000001,116.9338692048421L90.06411458333334,107.25435070808115L90.28218749999999,81.16536330259761L90.50026041666666,94.01565798028155L90.71833333333333,103.51340416073796L90.93640624999999,96.16275232686444L91.15447916666666,106.03488480930142L91.37255208333333,100.43379944505597L91.59062499999999,109.72428587594855L91.80869791666666,88.58765891652838L92.02677083333334,112.90171922227509L92.24484375,95.61160243302581L92.46291666666667,136.8621889427304L92.68098958333334,91.72914356967574L92.8990625,90.90485968956578L93.11713541666667,112.95992186837468L93.33520833333334,79.66084392139541L93.55328125,102.39519057766746L93.77135416666667,107.41995562269135L93.98942708333334,111.79910242672148L94.2075,119.66337042187266L94.42557291666667,100.90449273987456L94.64364583333334,95.28977603694564L94.86171875,124.55499215882556L95.07979166666667,128.5177808180451L95.29786458333334,113.77761198465637L95.51593749999999,101.93305649551058L95.73401041666666,111.3236540137575L95.95208333333332,94.21638736759238L96.17015625,111.3552279982429L96.38822916666668,111.88399713601055L96.60630208333333,120.61902236594601L96.824375,125.35689528286454L97.04244791666667,103.03465886585984L97.26052083333333,131.8155503542377L97.47859375,96.0270095542073L97.69666666666667,104.14088955120395L97.91473958333333,94.57866396869602L98.1328125,92.16927730521327L98.35088541666667,104.52529330207749L98.56895833333333,113.49458735264261L98.78703125,103.133565323284L99.00510416666667,98.98082554454984L99.22317708333333,123.19027325109792L99.44125,109.97205923211114L99.65932291666667,122.8121462561763L99.87739583333332,101.21059554528729L100.09546875,116.26751864873444L100.31354166666668,103.00638176328859L100.53161458333334,102.76951347807277L100.74968750000001,115.21194582203258L100.96776041666666,85.64493820185842L101.18583333333333,135.39139919957287L101.40390625,109.25790388824845L101.62197916666666,97.98402597812503L101.84005208333333,121.95939506876925L102.058125,112.17443975233111L102.49427083333333,91.32907962971005L102.71234375,104.19750715792176L102.93041666666666,115.6423791165535L103.14848958333333,116.47731446130915L103.3665625,119.24707567863737L103.58463541666666,85.87933382563862L103.80270833333333,94.31465980926383L104.02078125,118.96646030648394L104.23885416666666,110.0680492170728L104.45692708333334,83.5996667851622L104.67500000000001,116.1076198758987L104.89307291666667,113.07493232591791L105.11114583333334,109.24985188818893L105.32921875000001,100.76830615619052L105.54729166666667,97.8222885596064L105.76536458333334,132.08589467119708L105.98343750000001,118.6228871700855L106.20151041666666,116.293766900897L106.41958333333334,111.39872147887942L106.63765624999999,101.16145932445157L106.85572916666666,105.6994270745378L107.07380208333333,132.1612791441954L107.29187499999999,111.53332302318167L107.50994791666666,121.53175144356028L107.94609374999999,126.03941324066655L108.16416666666666,110.13633271364063L108.38223958333334,108.41066863789005L108.6003125,108.10900394274636L108.81838541666667,112.18001909095506L109.03645833333334,112.62611257456813L109.25453125,116.12220223821123L109.47260416666667,111.10136809085421L109.69067708333334,108.04883584781332L109.90875,90.01235571446324L110.12682291666667,115.90803171694276L110.34489583333334,104.27041896948445L110.56296875,101.56380572112704L110.78104166666667,113.34052152473191L110.99911458333334,113.74159988990195L111.2171875,115.758150393L111.43526041666667,95.67747666973332L111.65333333333334,106.6330786719918L111.87140624999999,137.4669131676738L112.08947916666666,120.43255833307136L112.30755208333332,125.17220649409751L112.525625,120.15638107118696L112.96177083333333,130.32288706761136L113.17984375,118.61445476057435L113.39791666666667,114.80883860645383L113.61598958333333,116.60659027328856L113.8340625,113.695443543104L114.05213541666667,109.41089188937954L114.27020833333333,115.25207901917969L114.48828125,118.40897025511813L114.70635416666667,96.51634291215582L114.92442708333333,113.16483575965347L115.1425,116.76851789653298L115.36057291666667,128.979217482874L115.57864583333333,115.21372106614018L116.01479166666667,108.09568961193926L116.23286458333332,150.42708277530392L116.4509375,127.49162632226941L116.66901041666668,123.77439196407792L116.88708333333334,102.57208097267608L117.10515625000001,121.70845163384307L117.32322916666666,116.06621864724616L117.54130208333333,96.7551132446298L117.759375,131.14691734142025L117.97744791666666,111.08329864190172L118.19552083333333,130.80315400029602L118.41359375,104.32912882818623L118.63166666666666,128.96850261665304L118.84973958333333,120.39413697845657L119.0678125,113.00734624667807L119.28588541666666,130.7116021256034L119.50395833333333,136.7064746738626L119.72203125,114.37777129618019L119.94010416666666,86.93420923501252L120.15817708333333,120.74664973696835L120.37625,131.32938707505278L120.59432291666666,97.916630103611L120.81239583333334,112.49157443184117L121.03046875000001,110.66567246558571L121.24854166666667,125.09732923370139L121.46661458333334,128.1743978863725L121.68468750000001,112.98553610478453L121.90276041666667,84.08170896195445L122.12083333333334,111.31750406095613L122.33890625000001,113.17276095656246L122.55697916666666,120.36509905698205L122.77505208333334,100.0711424345007L122.99312499999999,129.16954901184025L123.21119791666666,116.77999358165721L123.42927083333333,125.19661610057719L123.64734374999999,114.05810055365927L123.86541666666666,115.66824695926444L124.08348958333333,118.92531268413248L124.30156249999999,116.3296521925009L124.51963541666666,116.98338583512945L124.73770833333334,104.52484949105057L124.95578125,106.8462981696312L125.17385416666667,137.24532466209848L125.39192708333334,122.24280011023464L125.61,117.74870625023655L125.82807291666667,116.24348945170638L126.04614583333334,106.46671293847832L126.26421875,100.46296416968104L126.48229166666667,103.17065524481806L126.70036458333334,114.88606172513501L126.9184375,116.47306655576594L127.13651041666667,115.67858141603375L127.35458333333334,90.08437990397212L127.57265625,128.79028078856373L127.79072916666667,115.78934396803376L128.00880208333334,127.17994417823274L128.226875,114.19669639720364L128.44494791666668,123.82923432668812L128.66302083333332,123.78624805865377L128.88109375,135.77396430476352L129.09916666666666,106.69381738110228L129.31723958333333,105.15296889726929L129.75338541666667,117.81996962084217L129.97145833333332,108.12371310820944L130.18953125,117.0360725441804L130.40760416666666,102.48046569640817L130.62567708333333,129.94190700180252L130.84375,125.47583663807464L131.27989583333334,115.75605814101601L131.49796874999998,114.36680282365815L131.71604166666665,102.60492298866691L131.93411458333333,117.70071125775573L132.1521875,112.727745299729L132.37026041666667,127.84103240359286L132.58833333333334,103.30582740329776L132.80640624999998,101.83275520343045L133.02447916666665,119.25810755273469L133.24255208333332,110.0982283669022L133.460625,121.48369304950418L133.67869791666666,118.26130798630987L133.89677083333333,118.16620562340202L134.11484374999998,133.88421695220927L134.33291666666665,129.04274586129645L134.55098958333332,104.80825453251597L134.7690625,103.07713792129202L134.9871354166667,97.93317791475697L135.20520833333336,124.03516264317125L135.42328125,131.89226626031672L135.64135416666667,121.7589192877595L135.85942708333334,123.57258474998747L136.07750000000001,130.20521374390674L136.29557291666669,85.47483177540391L136.94979166666667,103.22847748146604L137.16786458333334,138.39682407218675L137.3859375,114.98477797783335L137.60401041666668,128.09780878344407L137.82208333333332,121.73558750805944L138.04015625,122.47840036394501L138.25822916666667,126.86965686885208L138.47630208333334,120.13742400018066L138.694375,116.49652513861653L138.91244791666668,104.65659796446559L139.13052083333332,116.21616337276419L139.34859375,139.240065023303L139.56666666666666,109.5177235437127L139.78473958333333,99.36427827179429L140.0028125,130.95202089903444L140.22088541666668,122.63024713672121L140.43895833333332,113.60275044005648L140.65703125,133.03989817431338L140.87510416666666,141.55333489867354L141.09317708333333,107.2151685345631L141.31125,122.00612202974463L141.52932291666667,120.19588025258136L141.74739583333331,133.20138198653092L141.96546874999999,129.82581871747968L142.18354166666666,112.65584791337065L142.40161458333333,119.99711631410395L142.6196875,109.5116369924866L142.83776041666664,115.70045495950257L143.0558333333333,117.56167160318446L143.27390625,134.90948382593115L143.49197916666668,120.67418173643256L143.71005208333335,117.34984694020105L143.92812500000002,131.1804567747391L144.14619791666667,122.35958581188548L144.36427083333334,143.38063169958497L144.58234375,132.43124305170312L144.80041666666668,135.17545343419678L145.01848958333335,124.45481766989596L145.23656250000002,123.33882314195998L145.45463541666666,133.82461947145367L145.67270833333333,119.17790456001572L145.89078125,123.85662380720558L146.10885416666667,109.27071100645337L146.32692708333335,146.49738973837628L146.54500000000002,105.03852905390352L146.76307291666666,120.5980998461063L146.98114583333333,117.10911115889363L147.19921875,121.16757279519848L147.41729166666667,110.4554328419841L147.63536458333334,114.3463875164206L147.85343749999998,143.55676127569032L148.07151041666665,125.06461402086109L148.28958333333333,133.23397039622066L148.50765625,115.86599647253749L148.72572916666667,112.40471427371867L148.94380208333334,108.1576329509799L149.16187499999998,99.75793865265751L149.37994791666665,124.43592400046492L149.59802083333332,132.43555435882163L149.81609375,110.6799378200219L150.03416666666666,128.01139243634844L150.25223958333333,122.70651923177331L150.47031249999998,123.32170471663656L150.68838541666665,99.38963890190306L150.90645833333332,125.93156716112904L151.12453125,129.24353865018256L151.3426041666667,121.20865701597468L151.56067708333336,103.70874441415069L151.77875,130.11600772749915L151.99682291666667,102.49752072015632L152.21489583333334,125.21646079363728L152.43296875000001,112.37745159635175L152.65104166666669,114.66846751880185L152.86911458333333,107.34761442530612L153.0871875,115.74420204644017L153.30526041666667,135.77929003708635L153.52333333333334,97.1909990746241L153.74140625,119.60383634269235L153.95947916666668,105.47346386026875L154.395625,110.48909907845348L154.61369791666667,127.19122965863116L154.83177083333334,127.35524953385956L155.04984375,109.62271655236296L155.26791666666668,127.58571425997292L155.48598958333332,124.27824428276372L155.7040625,124.44302497689537L155.92213541666666,143.58871566962733L156.14020833333333,123.20732827484605L156.35828125,97.3755610602406L156.57635416666668,141.78601867992143L156.79442708333332,139.9440127135469L157.0125,122.1135876998305L157.23057291666666,127.91052053009085L157.44864583333333,113.89915280445261L157.66671875,116.5110440993538L157.88479166666667,110.30181082510028L158.10286458333331,124.92525735841346L158.32093749999999,114.18078260181039L158.53901041666666,98.94373562301578L158.75708333333333,107.87200885437998L158.97515625,131.43425328055253L159.19322916666664,143.87662222293704L159.4113020833333,126.05925793372666L159.629375,107.06509700589451L159.84744791666668,106.04002033689845L160.06552083333335,105.1683120784851L160.28359375000002,108.11426627349393L160.50166666666667,104.10754032261094L160.71973958333334,132.52076607598707L160.9378125,103.21173946559426L161.15588541666668,101.20013428536743L161.37395833333335,120.44162475833524L161.59203125000002,134.112906434215L161.81010416666666,123.05351605323642L162.02817708333333,122.15048741663875L162.24625,131.8821220082732L162.46432291666667,128.00549608984818L162.68239583333335,128.9370554353182L162.90046875000002,136.43264327026327L163.11854166666666,99.16418290023617L163.33661458333333,116.00605055231313L163.5546875,117.0859695839194L163.77276041666667,129.72399578759303L163.99083333333334,126.6356416545235L164.20890624999998,135.4596826961407L164.42697916666665,150.24746611255864L164.64505208333333,109.0942010208964L164.863125,125.90861579088062L165.08119791666667,126.1099157923689L165.29927083333334,150.3790877828231L165.51734374999998,125.26153931365562L165.73541666666665,110.18318647776655L165.95348958333332,127.51666994450181L166.1715625,106.16752090477023L166.38963541666666,112.82221364688412L166.60770833333333,130.6161827548192L166.82578124999998,124.99423827230927L167.04385416666665,141.49101115018127L167.26192708333332,106.70041114493056L167.48,123.4759607492731L167.6980729166667,126.59316259909133L167.91614583333336,120.55042186150182L168.13421875,124.305126550679L168.35229166666667,120.75977386304963L168.57036458333334,119.41483624680681L168.78843750000001,115.76182768436576L169.00651041666669,134.71883528908856L169.22458333333333,118.41473979846788L169.44265625,119.9990183613621L169.66072916666667,151.94935459758224L169.87880208333334,118.48200886983136L170.096875,125.48845355155373L170.31494791666668,130.56818776233837L170.53302083333332,111.49065376302369L170.75109375,135.20956348169307L170.96916666666667,115.44976513087747L171.18723958333334,128.25853177675833L171.4053125,108.16955244713101L171.62338541666668,148.7118799594732L171.84145833333332,118.8688852821405L172.05953125,105.56076782941815L172.27760416666666,125.5268749061685L172.49567708333333,118.62326757953716L172.71375,111.58879940154458L172.93182291666668,111.40151114819139L173.14989583333332,155.33398429189734L173.36796875,134.1558293006741L173.58604166666666,115.99020015849514L173.80411458333333,136.6471307994081L174.0221875,131.2738472951146L174.24026041666667,126.84359882141533L174.45833333333331,132.44677643764476L174.67640624999999,139.28945485043982L174.89447916666666,117.82345670748214L175.11255208333333,124.03154875338075L175.330625,153.1648895986951L175.54869791666664,120.79743439876114L175.7667708333333,109.5246977169926L175.98484375,104.42106111233048L176.20291666666668,133.08706894631567L176.42098958333335,121.4509144350886L176.63906250000002,116.3675663345135L176.85713541666667,112.01073688497908L177.07520833333334,116.10413278925876L177.29328125,101.96158720438294L177.51135416666668,124.72947329397383L177.72942708333335,115.69810910121751L177.94750000000002,129.26268592591467L178.16557291666666,128.0225511135963L178.38364583333333,127.1850163042545L178.60171875,113.8391749142454L178.81979166666667,121.68524665729356L179.03786458333335,123.31016562993707L179.25593750000002,129.09074085377728L179.47401041666666,130.90053881991366L179.69208333333333,122.25351497645559L179.91015625,132.44157750847245L180.12822916666667,148.6739658174606L180.34630208333334,118.93552033775126L180.56437499999998,138.25626277980894L180.78244791666665,125.08483912337283L181.00052083333333,127.57271693704217L181.21859375,110.18997044632066L181.43666666666667,124.55232929266413L181.65473958333334,104.73147522486171L181.87281249999998,130.94339828479747L182.09088541666665,117.95824845651019L182.30895833333332,129.10189953102514L182.52703125,119.14163885896019L182.74510416666666,129.3386410130904L182.96317708333333,117.4223783423121L183.18124999999998,124.12570009265951L183.39932291666665,100.20555377407713L183.61739583333332,114.32743044541431L183.83546875,114.02658997074914L184.0535416666667,135.49886486965875L184.27161458333336,118.02735617355657L184.4896875,129.56999336125756L184.70776041666667,141.2411455420347L184.92583333333334,124.8087252630637L185.14390625000001,119.41084194756468L185.36197916666669,133.16118538780853L185.58005208333333,116.51186831983233L185.798125,117.93998880283189L186.01619791666667,145.81797845776262L186.23427083333334,120.58884321611659L186.45234375,133.4924586186042L186.67041666666668,114.06291907337993L186.88848958333332,119.83988040742963L187.1065625,125.17188948622115L187.32463541666667,111.52641225147704L187.54270833333334,124.221880282347L187.76078125,118.81600836836373L187.97885416666668,106.33471085876224L188.19692708333332,106.41846433969641L188.415,148.34801831898778L188.63307291666666,110.42899438509572L188.85114583333333,124.86217279101791L189.06921875,142.05515836695065L189.28729166666668,123.08648487237781L189.50536458333332,120.68407238217497L189.7234375,123.84964963392568L189.94151041666666,129.12732356270917L190.15958333333333,140.20890449503293L190.37765625,126.84137976628081L190.59572916666667,119.39518175847252L190.81380208333331,126.58650543368776L191.03187499999999,149.20926531748128L191.46802083333333,131.56080282479522L191.68609375,151.892166376687L191.90416666666664,137.0846650703595L192.1222395833333,118.18782556056973L192.3403125,123.24118471604125L192.55838541666668,129.94437966323812L192.77645833333335,142.3601199440085L192.99453125000002,136.57485300359815L193.21260416666667,122.81233646090212L193.43067708333334,132.79288563705404L193.64875,119.44083089266829L193.86682291666668,134.1000359144348L194.08489583333335,110.89442534916672L194.30296875000002,124.38412491346779L194.52104166666666,138.1507625585565L194.73911458333333,149.90332236198276L194.9571875,114.95916374142351L195.17526041666667,140.61004626177822L195.39333333333335,126.90021642813313L195.61140625000002,119.60928887816573L195.82947916666666,138.0427262742932L196.04755208333333,144.39695895119354L196.265625,129.9500858050126L196.48369791666667,128.04049375939826L196.70177083333334,123.8161736021821L196.91984374999998,128.074477003744L197.13791666666665,142.63617040274232L197.35598958333333,99.51162353272619L197.5740625,119.0132506690346L197.79213541666667,115.42142462673092L198.01020833333334,100.7087720770102L198.22828124999998,117.1881729232577L198.66442708333332,105.29181834711476L198.8825,101.31463753030847L199.10057291666666,140.45027429209304L199.31864583333333,126.16906946209758L199.53671874999998,102.25735555302636L199.75479166666665,122.27316946478987L199.97286458333332,116.62231386395598L200.1909375,111.00670953897327L200.4090104166667,86.45888762519907L200.62708333333336,118.87579605384512L200.84515625,114.71513107820196L201.06322916666667,100.38345859429008L201.28130208333334,114.36851466619049L201.49937500000001,150.64226772177676L201.71744791666669,132.78641867637631L201.93552083333333,145.16589325609112L202.15359375,118.26498527767563L202.37166666666667,134.79174710065124L202.58973958333334,136.53903111356954L202.8078125,144.9288347661495L203.02588541666668,130.45869324184378L203.24395833333332,144.3340645885238L203.46203125,106.28443340957162L203.68010416666667,119.68182028027678L203.89817708333334,113.10365323951609L204.11625,114.20760146815041L204.33432291666668,126.17674105270548L204.55239583333332,127.62083873267355L204.77046875,138.70977424772883L204.98854166666666,136.92755596683574L205.20661458333333,127.46252499921961L205.4246875,120.19385140217264L205.64276041666668,133.56429260338726L205.86083333333332,127.11311891789617L206.07890625,130.46535040724734L206.29697916666666,114.40287831998785L206.51505208333333,112.77650111111308L206.733125,133.47965150039926L206.95119791666667,134.38756205829287L207.16927083333331,148.22799913699808L207.38734374999999,126.52500590567402L207.60541666666666,122.7943304135249L207.82348958333333,152.26839132435043L208.0415625,131.96511467030413L208.25963541666664,120.54534973548007L208.4777083333333,143.7568566472484L208.69578125,139.71487942051425L209.13192708333335,151.13933607190845L209.35000000000002,132.36353016931275L209.56807291666667,136.47981404226556L209.78614583333334,116.18034148273557L210.00421875,143.47250058215394L210.44036458333335,139.17450779447188L210.65843750000002,133.73217997470726L210.87651041666666,120.78887518609943L211.09458333333333,131.65438354989655L211.31265625,114.72546553497128L211.53072916666667,128.59284828316703L211.74880208333335,139.77403309024294L211.96687500000002,119.79683073782002L212.18494791666666,126.89089639656817L212.40302083333333,112.747336386488L212.62109375,140.48894925300888L212.83916666666667,132.50130179237857L213.05723958333334,120.66555912219559L213.27531249999998,131.82334874799616L213.49338541666665,129.50500674660387L213.71145833333333,127.47672695208053L213.92953125,127.66940433933182L214.14760416666667,134.0867215836277L214.36567708333334,135.22782313537135L214.58374999999998,135.92625488856663L214.80182291666665,119.05059419686975L215.01989583333332,145.55917322750273L215.23796875,127.34098417942337L215.45604166666666,134.91170288106568L215.67411458333333,111.8269991198411L215.89218749999998,135.67398002055972L216.11026041666665,118.47611252333107L216.32833333333332,138.2872661501169L216.54640625,140.74826169587095L216.7644791666667,145.84175404848958L216.98255208333336,122.13051592042811L217.200625,144.46993416433148L217.41869791666667,130.49235947831318L217.63677083333334,149.04873252889283L217.85484375000001,154.72469515353438L218.07291666666669,153.86554040702487L218.29098958333333,131.62743788040598L218.5090625,130.1046588455255L218.72713541666667,135.1979609934183L218.94520833333334,140.99692267408736L219.16328125,132.74799732176155L219.38135416666668,127.90379996311204L219.59942708333332,134.31128996324077L219.8175,136.31554056073608L220.03557291666667,144.77711479652385L220.25364583333334,143.16944105235427L220.47171875,138.34020646546892L220.68979166666668,122.75521164158214L220.90786458333332,126.48569692900546L221.34401041666666,121.18405720476918L221.56208333333333,125.07938658789945L221.78015625,132.87213760614392L221.99822916666668,127.0864268547067L222.21630208333332,146.17987464941461L222.434375,157.02648934378072L222.65244791666666,110.0957557054666L222.87052083333333,151.65041617017522L223.08859375,117.20776401001672L223.30666666666667,146.570301549939L223.52473958333331,134.92336877091572L223.74281249999999,147.91073765433748L223.96088541666666,149.4833503273817L224.17895833333333,132.037138859813L224.61510416666664,127.63725974066897L224.8331770833333,128.05716837369476L225.05125,132.10827542726807L225.26932291666668,133.92435014935637L225.48739583333335,130.1908849878953L225.70546875000002,146.34471874512155L225.92354166666667,121.34351216657801L226.14161458333334,139.8332501615469L226.3596875,122.92988298145622L226.57776041666668,134.53389289402043L226.79583333333335,130.60629210907678L227.01390625000002,125.07944998947471L227.23197916666666,129.69800114173154L227.45005208333333,166.33174834171163L227.668125,139.92714789452458L227.88619791666667,126.35591390442387L228.32234375000002,140.18823558149427L228.54041666666666,152.030445212355L228.75848958333333,130.2788863743727L229.19463541666667,132.8855153385263L229.41270833333334,148.8890239607829L229.63078124999998,140.35846881109933L229.84885416666665,129.71467575602804L230.06692708333333,150.1430437180858L230.285,113.07258646763285L230.50307291666667,126.22524325778849L230.72114583333334,127.20936250915892L230.93921874999998,165.25138549907848L231.15729166666665,142.0010768232437L231.37536458333332,113.2888492408853L231.5934375,136.23216748925353L231.81151041666666,143.54680722837261L232.02958333333333,125.49377928387658L232.24765624999998,138.50409953754678L232.46572916666665,128.70614689817793L232.68380208333332,133.79291868381773L232.901875,144.16478238254783L233.1199479166667,166.43103520858745L233.33802083333336,131.24855006658112L233.55609375,130.051147915996L233.77416666666667,122.82019825623584L233.99223958333334,143.49475453507438L234.21031250000001,138.13782863720104L234.42838541666669,97.7747373781525L234.64645833333333,138.9849370844089L234.86453125,140.33697567708214L235.08260416666667,130.31375724077222L235.30067708333334,127.80742956869875L235.51875,127.06804039787785L235.73682291666668,138.37514073344374L235.95489583333332,130.70335992081806L236.17296875,152.3332511358536L236.39104166666667,119.42846758549027L236.60911458333334,125.13847685605285L236.8271875,136.31509674970917L237.04526041666668,157.94574878364799L237.26333333333332,138.1690222122348L237.48140625,113.24954026421673L237.69947916666666,124.42140503972766L237.91755208333333,139.71285057010556L238.135625,150.96269928320095L238.35369791666668,134.30127251434783L238.57177083333332,144.6806810005353L239.00791666666666,140.88882298824876L239.22598958333333,133.9737399764932L239.4440625,123.11932688836865L239.66213541666667,133.89131792863972L239.88020833333331,131.62591624259946L240.09828124999999,138.7734294293018L240.31635416666666,131.63346103005682L240.53442708333333,143.7980042695999L240.7525,121.76348420117907L240.97057291666664,140.8661252243014L241.40671875,105.258532520097L241.62479166666668,137.28425322931542L241.84286458333335,160.91915586074956L242.06093750000002,148.01287759210052L242.27901041666667,147.7010686449133L242.49708333333334,131.19022061733097L242.71515625,117.57023081584616L242.93322916666668,137.7333265869663L243.15130208333335,147.84854070899576L243.36937500000002,142.55469937851794L243.58744791666666,112.24145521739352L243.80552083333333,128.59107303905944L244.02359375,141.85658463319905L244.24166666666667,148.92383142560718L244.45973958333335,128.19138950854537L244.67781250000002,152.98806260526177L244.89588541666666,133.40559846048168" style="fill: none;" fill="none"></path></g></g></g></g></g></g><g transform="translate(68, 177)" clip-path="url(#clip_1)"><clipPath id="clip_1"><rect width="261" height="23"></rect></clipPath><g><g><line x1="0" y1="0" x2="0" y2="5" style="visibility: inherit;" fill="rgb(0, 0, 0)" stroke="rgb(204, 204, 204)" stroke-width="1px"></line><line x1="21.807291666666664" y1="0" x2="21.807291666666664" y2="5" style="visibility: inherit;" fill="rgb(0, 0, 0)" stroke="rgb(204, 204, 204)" stroke-width="1px"></line><line x1="43.61458333333333" y1="0" x2="43.61458333333333" y2="5" style="visibility: inherit;" fill="rgb(0, 0, 0)" stroke="rgb(204, 204, 204)" stroke-width="1px"></line><line x1="65.421875" y1="0" x2="65.421875" y2="5" style="visibility: inherit;" fill="rgb(0, 0, 0)" stroke="rgb(204, 204, 204)" stroke-width="1px"></line><line x1="87.22916666666666" y1="0" x2="87.22916666666666" y2="5" style="visibility: inherit;" fill="rgb(0, 0, 0)" stroke="rgb(204, 204, 204)" stroke-width="1px"></line><line x1="109.03645833333334" y1="0" x2="109.03645833333334" y2="5" style="visibility: inherit;" fill="rgb(0, 0, 0)" stroke="rgb(204, 204, 204)" stroke-width="1px"></line><line x1="130.84375" y1="0" x2="130.84375" y2="5" style="visibility: inherit;" fill="rgb(0, 0, 0)" stroke="rgb(204, 204, 204)" stroke-width="1px"></line><line x1="152.65104166666669" y1="0" x2="152.65104166666669" y2="5" style="visibility: inherit;" fill="rgb(0, 0, 0)" stroke="rgb(204, 204, 204)" stroke-width="1px"></line><line x1="174.45833333333331" y1="0" x2="174.45833333333331" y2="5" style="visibility: inherit;" fill="rgb(0, 0, 0)" stroke="rgb(204, 204, 204)" stroke-width="1px"></line><line x1="196.265625" y1="0" x2="196.265625" y2="5" style="visibility: inherit;" fill="rgb(0, 0, 0)" stroke="rgb(204, 204, 204)" stroke-width="1px"></line><line x1="218.07291666666669" y1="0" x2="218.07291666666669" y2="5" style="visibility: inherit;" fill="rgb(0, 0, 0)" stroke="rgb(204, 204, 204)" stroke-width="1px"></line><line x1="239.88020833333331" y1="0" x2="239.88020833333331" y2="5" style="visibility: inherit;" fill="rgb(0, 0, 0)" stroke="rgb(204, 204, 204)" stroke-width="1px"></line><line x1="261.6875" y1="0" x2="261.6875" y2="5" style="visibility: inherit;" fill="rgb(0, 0, 0)" stroke="rgb(204, 204, 204)" stroke-width="1px"></line></g><g transform="translate(0, 8)"><text x="0" y="0" dx="0em" dy="0.95em" style="text-anchor: middle; visibility: hidden; font-family: &quot;Helvetica Neue&quot;, sans-serif; font-size: 12px; font-weight: 200;" fill="rgb(50, 49, 63)" stroke="none" stroke-width="1px">-100</text><text x="21.807291666666664" y="0" dx="0em" dy="0.95em" style="text-anchor: middle; visibility: inherit; font-family: &quot;Helvetica Neue&quot;, sans-serif; font-size: 12px; font-weight: 200;" fill="rgb(50, 49, 63)" stroke="none" stroke-width="1px">0</text><text x="43.61458333333333" y="0" dx="0em" dy="0.95em" style="text-anchor: middle; visibility: hidden; font-family: &quot;Helvetica Neue&quot;, sans-serif; font-size: 12px; font-weight: 200;" fill="rgb(50, 49, 63)" stroke="none" stroke-width="1px">100</text><text x="65.421875" y="0" dx="0em" dy="0.95em" style="text-anchor: middle; visibility: inherit; font-family: &quot;Helvetica Neue&quot;, sans-serif; font-size: 12px; font-weight: 200;" fill="rgb(50, 49, 63)" stroke="none" stroke-width="1px">200</text><text x="87.22916666666666" y="0" dx="0em" dy="0.95em" style="text-anchor: middle; visibility: hidden; font-family: &quot;Helvetica Neue&quot;, sans-serif; font-size: 12px; font-weight: 200;" fill="rgb(50, 49, 63)" stroke="none" stroke-width="1px">300</text><text x="109.03645833333334" y="0" dx="0em" dy="0.95em" style="text-anchor: middle; visibility: inherit; font-family: &quot;Helvetica Neue&quot;, sans-serif; font-size: 12px; font-weight: 200;" fill="rgb(50, 49, 63)" stroke="none" stroke-width="1px">400</text><text x="130.84375" y="0" dx="0em" dy="0.95em" style="text-anchor: middle; visibility: hidden; font-family: &quot;Helvetica Neue&quot;, sans-serif; font-size: 12px; font-weight: 200;" fill="rgb(50, 49, 63)" stroke="none" stroke-width="1px">500</text><text x="152.65104166666669" y="0" dx="0em" dy="0.95em" style="text-anchor: middle; visibility: inherit; font-family: &quot;Helvetica Neue&quot;, sans-serif; font-size: 12px; font-weight: 200;" fill="rgb(50, 49, 63)" stroke="none" stroke-width="1px">600</text><text x="174.45833333333331" y="0" dx="0em" dy="0.95em" style="text-anchor: middle; visibility: hidden; font-family: &quot;Helvetica Neue&quot;, sans-serif; font-size: 12px; font-weight: 200;" fill="rgb(50, 49, 63)" stroke="none" stroke-width="1px">700</text><text x="196.265625" y="0" dx="0em" dy="0.95em" style="text-anchor: middle; visibility: inherit; font-family: &quot;Helvetica Neue&quot;, sans-serif; font-size: 12px; font-weight: 200;" fill="rgb(50, 49, 63)" stroke="none" stroke-width="1px">800</text><text x="218.07291666666669" y="0" dx="0em" dy="0.95em" style="text-anchor: middle; visibility: hidden; font-family: &quot;Helvetica Neue&quot;, sans-serif; font-size: 12px; font-weight: 200;" fill="rgb(50, 49, 63)" stroke="none" stroke-width="1px">900</text><text x="239.88020833333331" y="0" dx="0em" dy="0.95em" style="text-anchor: middle; visibility: inherit; font-family: &quot;Helvetica Neue&quot;, sans-serif; font-size: 12px; font-weight: 200;" fill="rgb(50, 49, 63)" stroke="none" stroke-width="1px">1k</text><text x="261.6875" y="0" dx="0em" dy="0.95em" style="text-anchor: middle; visibility: hidden; font-family: &quot;Helvetica Neue&quot;, sans-serif; font-size: 12px; font-weight: 200;" fill="rgb(50, 49, 63)" stroke="none" stroke-width="1px">1.1k</text></g><line x1="0" y1="0" x2="261.6875" y2="0" fill="rgb(0, 0, 0)" stroke="rgb(204, 204, 204)" stroke-width="1px"></line></g></g></g></g></svg>