<svg viewBox="0 0 330 200" xmlns="http://www.w3.org/2000/svg"><g><g><g><g><g><line x1="58.59375" y1="177" x2="53.59375" y2="177" style="visibility: inherit;" fill="rgb(0, 0, 0)" stroke="rgb(204, 204, 204)" stroke-width="1px"></line><line x1="58.59375" y1="157.33333333333334" x2="53.59375" y2="157.33333333333334" style="visibility: inherit;" fill="rgb(0, 0, 0)" stroke="rgb(204, 204, 204)" stroke-width="1px"></line><line x1="58.59375" y1="137.66666666666666" x2="53.59375" y2="137.66666666666666" style="visibility: inherit;" fill="rgb(0, 0, 0)" stroke="rgb(204, 204, 204)" stroke-width="1px"></line><line x1="58.59375" y1="118" x2="53.59375" y2="118" style="visibility: inherit;" fill="rgb(0, 0, 0)" stroke="rgb(204, 204, 204)" stroke-width="1px"></line><line x1="58.59375" y1="98.33333333333333" x2="53.59375" y2="98.33333333333333" style="visibility: inherit;" fill="rgb(0, 0, 0)" stroke="rgb(204, 204, 204)" stroke-width="1px"></line><line x1="58.59375" y1="78.66666666666666" x2="53.59375" y2="78.66666666666666" style="visibility: inherit;" fill="rgb(0, 0, 0)" stroke="rgb(204, 204, 204)" stroke-width="1px"></line><line x1="58.59375" y1="58.999999999999986" x2="53.59375" y2="58.999999999999986" style="visibility: inherit;" fill="rgb(0, 0, 0)" stroke="rgb(204, 204, 204)" stroke-width="1px"></line><line x1="58.59375" y1="39.33333333333334" x2="53.59375" y2="39.33333333333334" style="visibility: inherit;" fill="rgb(0, 0, 0)" stroke="rgb(204, 204, 204)" stroke-width="1px"></line><line x1="58.59375" y1="19.666666666666657" x2="53.59375" y2="19.666666666666657" style="visibility: inherit;" fill="rgb(0, 0, 0)" stroke="rgb(204, 204, 204)" stroke-width="1px"></line><line x1="58.59375" y1="0" x2="53.59375" y2="0" style="visibility: inherit;" fill="rgb(0, 0, 0)" stroke="rgb(204, 204, 204)" stroke-width="1px"></line></g><g transform="translate(48.59375, 0)"><text x="0" y="177" dx="0em" dy="0.3em" style="text-anchor: end; visibility: hidden; font-family: &quot;Helvetica Neue&quot;, sans-serif; font-size: 12px; font-weight: 200;" fill="rgb(50, 49, 63)" stroke="none" stroke-width="1px">-0.02</text><text x="0" y="157.33333333333334" dx="0em" dy="0.3em" style="text-anchor: end; visibility: inherit; font-family: &quot;Helvetica Neue&quot;, sans-serif; font-size: 12px; font-weight: 200;" fill="rgb(50, 49, 63)" stroke="none" stroke-width="1px">0</text><text x="0" y="137.66666666666666" dx="0em" dy="0.3em" style="text-anchor: end; visibility: hidden; font-family: &quot;Helvetica Neue&quot;, sans-serif; font-size: 12px; font-weight: 200;" fill="rgb(50, 49, 63)" stroke="none" stroke-width="1px">0.02</text><text x="0" y="118" dx="0em" dy="0.3em" style="text-anchor: end; visibility: inherit; font-family: &quot;Helvetica Neue&quot;, sans-serif; font-size: 12px; font-weight: 200;" fill="rgb(50, 49, 63)" stroke="none" stroke-width="1px">0.04</text><text x="0" y="98.33333333333333" dx="0em" dy="0.3em" style="text-anchor: end; visibility: hidden; font-family: &quot;Helvetica Neue&quot;, sans-serif; font-size: 12px; font-weight: 200;" fill="rgb(50, 49, 63)" stroke="none" stroke-width="1px">0.06</text><text x="0" y="78.66666666666666" dx="0em" dy="0.3em" style="text-anchor: end; visibility: inherit; font-family: &quot;Helvetica Neue&quot;, sans-serif; font-size: 12px; font-weight: 200;" fill="rgb(50, 49, 63)" stroke="none" stroke-width="1px">0.08</text><text x="0" y="58.999999999999986" dx="0em" dy="0.3em" style="text-anchor: end; visibility: hidden; font-family: &quot;Helvetica Neue&quot;, sans-serif; font-size: 12px; font-weight: 200;" fill="rgb(50, 49, 63)" stroke="none" stroke-width="1px">0.1</text><text x="0" y="39.33333333333334" dx="0em" dy="0.3em" style="text-anchor: end; visibility: inherit; font-family: &quot;Helvetica Neue&quot;, sans-serif; font-size: 12px; font-weight: 200;" fill="rgb(50, 49, 63)" stroke="none" stroke-width="1px">0.12</text><text x="0" y="19.666666666666657" dx="0em" dy="0.3em" style="text-anchor: end; visibility: hidden; font-family: &quot;Helvetica Neue&quot;, sans-serif; font-size: 12px; font-weight: 200;" fill="rgb(50, 49, 63)" stroke="none" stroke-width="1px">0.14</text><text x="0" y="0" dx="0em" dy="0.3em" style="text-anchor: end; visibility: hidden; font-family: &quot;Helvetica Neue&quot;, sans-serif; font-size: 12px; font-weight: 200;" fill="rgb(50, 49, 63)" stroke="none" stroke-width="1px">0.16</text></g><line x1="58.59375" y1="0" x2="58.59375" y2="177" fill="rgb(0, 0, 0)" stroke="rgb(204, 204, 204)" stroke-width="1px"></line></g></g><g transform="translate(58, 0)" clip-path="url(#clip_0)"><clipPath id="clip_0"><rect width="271" height="177"></rect></clipPath><g><g><g><line x1="0" y1="0" x2="0" y2="177" fill="rgb(0, 0, 0)" stroke="rgb(60, 60, 60)" stroke-width="1px" opacity="0.25"></line><line x1="22.6171875" y1="0" x2="22.6171875" y2="177" fill="rgb(0, 0, 0)" stroke="rgb(60, 60, 60)" stroke-width="1px" opacity="0.25"></line><line x1="45.234375" y1="0" x2="45.234375" y2="177" fill="rgb(0, 0, 0)" stroke="rgb(60, 60, 60)" stroke-width="1px" opacity="0.25"></line><line x1="67.8515625" y1="0" x2="67.8515625" y2="177" fill="rgb(0, 0, 0)" stroke="rgb(60, 60, 60)" stroke-width="1px" opacity="0.25"></line><line x1="90.46875" y1="0" x2="90.46875" y2="177" fill="rgb(0, 0, 0)" stroke="rgb(60, 60, 60)" stroke-width="1px" opacity="0.25"></line><line x1="113.0859375" y1="0" x2="113.0859375" y2="177" fill="rgb(0, 0, 0)" stroke="rgb(60, 60, 60)" stroke-width="1px" opacity="0.25"></line><line x1="135.703125" y1="0" x2="135.703125" y2="177" fill="rgb(0, 0, 0)" stroke="rgb(60, 60, 60)" stroke-width="1px" opacity="0.25"></line><line x1="158.3203125" y1="0" x2="158.3203125" y2="177" fill="rgb(0, 0, 0)" stroke="rgb(60, 60, 60)" stroke-width="1px" opacity="0.25"></line><line x1="180.9375" y1="0" x2="180.9375" y2="177" fill="rgb(0, 0, 0)" stroke="rgb(60, 60, 60)" stroke-width="1px" opacity="0.25"></line><line x1="203.5546875" y1="0" x2="203.5546875" y2="177" fill="rgb(0, 0, 0)" stroke="rgb(60, 60, 60)" stroke-width="1px" opacity="0.25"></line><line x1="226.171875" y1="0" x2="226.171875" y2="177" fill="rgb(0, 0, 0)" stroke="rgb(60, 60, 60)" stroke-width="1px" opacity="0.25"></line><line x1="248.7890625" y1="0" x2="248.7890625" y2="177" fill="rgb(0, 0, 0)" stroke="rgb(60, 60, 60)" stroke-width="1px" opacity="0.25"></line><line x1="271.40625" y1="0" x2="271.40625" y2="177" fill="rgb(0, 0, 0)" stroke="rgb(60, 60, 60)" stroke-width="1px" opacity="0.25"></line></g><g><line x1="0" y1="177" x2="271.40625" y2="177" fill="rgb(0, 0, 0)" stroke="rgb(60, 60, 60)" stroke-width="1px" opacity="0.25"></line><line x1="0" y1="157.33333333333334" x2="271.40625" y2="157.33333333333334" fill="rgb(0, 0, 0)" stroke="rgb(60, 60, 60)" stroke-width="1px" opacity="0.25"></line><line x1="0" y1="137.66666666666666" x2="271.40625" y2="137.66666666666666" fill="rgb(0, 0, 0)" stroke="rgb(60, 60, 60)" stroke-width="1px" opacity="0.25"></line><line x1="0" y1="118" x2="271.40625" y2="118" fill="rgb(0, 0, 0)" stroke="rgb(60, 60, 60)" stroke-width="1px" opacity="0.25"></line><line x1="0" y1="98.33333333333333" x2="271.40625" y2="98.33333333333333" fill="rgb(0, 0, 0)" stroke="rgb(60, 60, 60)" stroke-width="1px" opacity="0.25"></line><line x1="0" y1="78.66666666666666" x2="271.40625" y2="78.66666666666666" fill="rgb(0, 0, 0)" stroke="rgb(60, 60, 60)" stroke-width="1px" opacity="0.25"></line><line x1="0" y1="58.999999999999986" x2="271.40625" y2="58.999999999999986" fill="rgb(0, 0, 0)" stroke="rgb(60, 60, 60)" stroke-width="1px" opacity="0.25"></line><line x1="0" y1="39.33333333333334" x2="271.40625" y2="39.33333333333334" fill="rgb(0, 0, 0)" stroke="rgb(60, 60, 60)" stroke-width="1px" opacity="0.25"></line><line x1="0" y1="19.666666666666657" x2="271.40625" y2="19.666666666666657" fill="rgb(0, 0, 0)" stroke="rgb(60, 60, 60)" stroke-width="1px" opacity="0.25"></line><line x1="0" y1="0" x2="271.40625" y2="0" fill="rgb(0, 0, 0)" stroke="rgb(60, 60, 60)" stroke-width="1px" opacity="0.25"></line></g></g></g><g><g><line x1="0" y1="157.33333333333334" x2="271.40625" y2="157.33333333333334" fill="rgb(0, 0, 0)" stroke="rgb(153, 153, 153)" stroke-width="1.5px"></line></g></g><g><g><line x1="22.6171875" y1="0" x2="22.6171875" y2="177" fill="rgb(0, 0, 0)" stroke="rgb(153, 153, 153)" stroke-width="1.5px"></line></g></g><g><g><g><g><g><path stroke="rgb(187, 187, 187)" stroke-width="2px" d="M28.271484375,-4.233720362186432L28.49765625,6.707619667053223L28.723828125,15.48964857061705L28.950000000000003,21.72944450378418L29.176171874999998,27.031929582357407L29.40234375,32.82270485162735L29.628515625,38.015403762459755L29.8546875,41.9801826675733L30.080859375000003,46.993003701170295L30.307031249999998,50.4445386826992L30.533203125,54.5301446467638L30.759375,58.54451598227023L30.985546875,58.46277529001236L31.211718750000003,61.40557208657265L31.437890624999998,63.636601383487374L31.6640625,65.86305167774358L32.11640625,66.98454833527406L32.342578125,68.54475740591683L32.56875,70.30680891374745L32.794921875,71.5051155934731L33.02109375,71.14553567270436L33.247265625,72.26010887821514L33.4734375,72.77911135554314L33.699609375,74.24833381175995L33.92578125,75.17047900954881L34.151953125,77.1164452433586L34.378125000000004,77.85108577708402L34.604296875,78.43883190552394L34.83046875,80.25973641872406L35.056640625,81.00543249646822L35.2828125,82.1922440479199L35.508984375,82.54041675726573L35.735156249999996,84.0968014448881L35.961328125,85.06144711375237L36.1875,86.05194033682346L36.413671875,87.3579817910989L36.639843750000004,87.12888513008754L36.866015625,86.16047368943691L37.092187499999994,88.23031476636727L37.318359375,88.01675740877786L37.54453125,88.28714568416278L37.770703125,89.27177778383096L37.996875,89.51560051739214L38.223046875,90.67101110021272L38.44921875,91.56029737492402L38.675390625,89.90636161466439L38.901562500000004,90.64130253096421L39.127734375,92.67029890418053L39.353906249999994,92.97022724151611L39.580078125,92.71627209087212L39.80625,93.67290267348288L40.032421875,92.31633100907007L40.25859375,92.71838209529717L40.484765625,93.71324185530344L40.7109375,95.02052147189775L40.937109375000006,95.49868657191594L41.163281250000004,94.53727917373179L41.389453124999996,94.41712614397207L41.615624999999994,94.14721408486366L41.841796875,94.85965561370054L42.06796875,94.99594138562678L42.294140625,95.42658010125159L42.5203125,96.9684475188454L42.746484375,96.61711346606413L42.97265625,96.85294675578673L43.198828125000006,95.89691327512263L43.425000000000004,96.72514129678407L43.651171874999996,98.06785506755114L43.877343749999994,97.51845900217691L44.103515625,98.17620892326036L44.3296875,98.00610080609718L44.555859375,97.67116324603556L44.78203125,97.48875409613052L45.008203125,97.33311929057041L45.234375,98.74028343955675L45.460546875000006,98.7434850782156L45.68671875,98.4864967962106L45.912890624999996,98.20080732554196L46.1390625,99.62720694889624L46.365234375,99.52829682826994L46.59140625,98.6598578368624L46.817578125,98.48753348241249L47.04375,99.59701850016911L47.269921875,99.04434753209351L47.49609375,99.65332558006048L47.722265625000006,99.9407221029202L47.9484375,99.9129403779904L48.174609374999996,98.93343309809764L48.40078125,99.90509013583262L48.626953125,99.83996206521988L48.853125,99.62301990886529L49.079296875000004,99.30405757327874L49.30546875,99.01945607364176L49.531640625,100.21569304416576L49.7578125,99.6911481420199L49.983984375,100.11733606706062L50.21015625,101.16078820327917L50.436328124999996,99.98292219142118L50.6625,100.9512383888165L50.888671875,100.45474995175996L51.11484375,100.6105093061924L51.341015625000004,100.02794294555981L51.5671875,100.55794235567251L51.793359375,100.63018436481555L52.01953125,99.26930843790372L52.245703125,100.42504504571357L52.471875,100.11646788815656L52.698046874999996,100.71783013890186L52.92421875,99.44892989099026L53.150390625,100.05032877375682L53.3765625,99.9610308955113L53.602734375000004,100.02938624719778L53.82890625,100.1105847855409L54.055078124999994,99.7193804408113L54.28125,99.5077462643385L54.507421875,99.04529996464649L54.73359375,100.18511995921531L54.959765625,100.97892853369315L55.1859375,100.08312175919612L55.412109375,100.17889617880185L55.63828125,100.51820393900076L55.864453125000004,100.97086216260989L56.090625,100.1013535161813L56.316796874999994,100.76308167477448L56.54296875,100.60974003374575L56.769140625,100.61477693667014L56.9953125,100.1724709222714L57.221484375,100.0732164606452L57.44765625,100.06155648827553L57.673828125,99.91419685631989L57.900000000000006,99.93905168275037L58.126171875000004,100.73481640716393L58.352343749999996,99.91159964601198L58.578515624999994,99.14270450919867L58.8046875,99.80994945019482L59.030859375,100.5861160432299L59.25703125,100.31994777669509L59.483203125,100.41691640019417L59.709375,100.42197161912918L59.935546875,100.54252393792072L60.161718750000006,100.16271947820981L60.387890625000004,99.99503273765245L60.614062499999996,99.8515341207385L60.840234374999994,99.80039215584596L61.06640625,101.08690507958332L61.292578125,101.74197719991207L61.51875,100.21277713527282L61.744921875,101.0655815800031L61.97109375,101.27535851299763L62.197265625,101.3256029933691L62.423437500000006,100.19773602734008L62.649609375,100.1586350078384L62.875781249999996,101.12518187860647L63.101953125,100.6138977681597L63.328125,100.1789035052061L63.554296875,100.60494490216175L63.78046875,99.74959819515546L64.006640625,100.45062884936729L64.2328125,100.51309010883172L64.458984375,100.83399760474761L64.68515625,101.86981562773386L64.911328125,100.58333567281564L65.1375,100.69311085095008L65.36367187500001,101.5232767065366L65.58984375,100.01340369631846L65.81601562499999,100.24233917643626L66.0421875,101.06200629472731L66.268359375,101.29013953357935L66.49453125,102.20805373291174L66.720703125,101.43130469073851L66.946875,101.77322065085173L67.173046875,101.14082741489013L67.39921875,99.75023559232552L67.62539062500001,100.21873716513315L67.8515625,101.42411748816569L68.077734375,100.6732562954227L68.30390625,101.53948637594779L68.530078125,101.34601435561974L68.75625000000001,101.3042428617676L68.982421875,100.44357352207103L69.20859375,101.58666109293699L69.43476562500001,100.40866320580243L69.6609375,100.82834528386593L69.88710937500001,101.39982679486275L70.11328125,102.19206385562816L70.33945312499999,100.88654990245898L70.565625,101.74485647678374L70.79179687499999,101.62996746848026L71.01796875,100.47669619570175L71.244140625,100.6271878654758L71.47031249999999,100.8032376964887L71.696484375,100.99260693043469L71.92265625,100.76012913386026L72.148828125,101.29017982880274L72.375,101.42108435680468L72.601171875,100.91330593079329L72.82734375,102.58621707806984L73.053515625,101.25809750457604L73.505859375,101.06884182989597L73.73203125,100.98541972786187L73.95820312500001,100.39628158261378L74.18437499999999,101.13192583372195L74.410546875,101.16608153035243L74.63671875,101.09065986176331L74.86289062499999,101.84358343730369L75.0890625,100.41963449617226L75.315234375,101.27488595992325L75.54140625,100.59987869362035L75.767578125,102.04838207860787L75.99375,101.78421758363643L76.219921875,101.50145867466927L76.44609375,100.94762647151947L76.672265625,101.65376729269822L76.8984375,101.79386279483636L77.124609375,101.00149385879436L77.35078125,101.08749851832786L77.576953125,101.28761558731397L77.80312500000001,100.32724487533171L78.029296875,101.16714019576708L78.25546875,101.1781517813603L78.48164062500001,100.93576868623494L78.70781249999999,100.46784589936335L78.933984375,101.06169858574867L79.16015625,101.00218254079421L79.38632812499999,101.75052711367606L79.6125,101.92422516892353L79.838671875,100.15523921946684L80.06484375,100.65043088297048L80.291015625,101.8610935434699L80.5171875,101.77702305465937L80.743359375,101.80705032249291L80.96953125,101.66119626661141L81.19570312500001,101.1125914528966L81.421875,100.77216275284687L81.648046875,101.06719705214103L81.87421875000001,100.77176712701717L82.100390625,101.64348468432823L82.32656250000001,102.16463379810253L82.552734375,102.94221438715854L83.005078125,99.99034750213225L83.23124999999999,101.38108951598406L83.457421875,101.79214475303888L83.68359375,101.52228397876023L83.90976562499999,102.39638994385798L84.1359375,101.66314509014288L84.362109375,102.89808745433886L84.58828125,101.73259573926528L84.814453125,102.10792376597722L85.040625,101.4615151186784L85.266796875,101.93104605128367L85.49296875,101.13095874836047L85.71914062500001,101.42755723496278L85.9453125,102.76397762447596L86.171484375,101.92470871160427L86.39765625000001,102.72718808551629L86.623828125,101.90459773192802L86.85000000000001,102.53810458133617L87.076171875,102.84017222871383L87.30234374999999,101.75880228728055L87.528515625,102.75137987236181L87.980859375,102.98007358113924L88.20703125,102.83008743325868L88.43320312499999,102.52914438893397L88.659375,103.46041462322076L88.885546875,102.70199990769227L89.11171875,102.22424874951442L89.337890625,102.51424614588419L89.5640625,101.97745515902837L89.790234375,102.41733979682127L90.01640625,103.01749685406685L90.24257812500001,102.72511837631463L90.46875,103.30087118099132L90.694921875,102.05660230418046L90.92109375000001,102.52575959016879L91.14726562499999,102.35015666981538L91.3734375,102.83810251951216L91.599609375,102.15155250330766L91.82578124999999,102.44523508101702L92.051953125,102.94128759702046L92.278125,102.87486641605695L92.504296875,102.55355963110924L92.73046875,102.9341370264689L92.956640625,101.8732077529033L93.408984375,102.5594280809164L93.63515625,103.15337967375913L93.861328125,102.70079471419254L94.0875,102.55760380625723L94.313671875,103.8890239248673L94.53984375,103.09294050186872L94.76601562500001,102.8035658498605L94.9921875,103.68052911261717L95.218359375,103.05495675901571L95.44453125000001,102.20000934104124L95.67070312499999,102.21803595870733L95.896875,102.03036645054816L96.123046875,102.63843236118555L96.34921874999999,102.60402390360831L96.575390625,102.27077141652504L96.8015625,102.9027763530612L97.027734375,102.82118218888839L97.25390625,103.20382929344972L97.480078125,103.34026891986528L97.70625,102.50348732123771L97.932421875,103.45785404493411L98.15859375000001,102.61727370570102L98.384765625,102.88087773074706L98.6109375,103.51557512084642L98.83710937500001,102.48707251250744L99.06328125,103.1140808413426L99.28945312500001,102.49109837164481L99.515625,102.14018558710812L99.74179687499999,102.08313487718502L99.96796875,102.14306486397982L100.19414062499999,102.4419968103369L100.4203125,102.08995942274728L100.646484375,103.05207748214403L100.87265624999999,102.61301706482966L101.098828125,102.8446633145213L101.325,102.37416163335243L101.551171875,102.76060381531715L101.77734375,102.96942465255657L102.003515625,102.27010471373796L102.2296875,102.59261669218539L102.455859375,103.06720284372567L102.68203125000001,102.00443830589452L102.908203125,103.14108596742152L103.134375,102.53361715873082L103.36054687500001,102.6419233928124L103.58671875,103.24406956881285L103.81289062500001,102.95020383099714L104.0390625,102.72797933717568L104.26523437499999,102.7914516404271L104.49140625,102.37993117670217L104.71757812499999,102.7444674099485L104.94375,102.27836157133181L105.169921875,102.69139493753512L105.39609374999999,103.09391125043233L105.622265625,102.51108480244874L105.8484375,103.03207273532946L106.30078125,102.65945547819138L106.526953125,102.28087086478868L106.753125,102.56014606853326L106.979296875,102.7561310455203L107.20546875000001,102.05868666619061L107.431640625,103.03180898477633L107.6578125,103.60671558976173L107.88398437500001,102.48105020821093L108.11015624999999,102.48781980574131L108.336328125,102.19782240937153L108.5625,101.67234339068332L108.78867187499999,102.27352980772653L109.01484375,102.06836850941181L109.241015625,102.70403298487265L109.4671875,101.40747189770141L109.693359375,102.42876898745695L109.91953125,102.30106609811385L110.145703125,101.82449449102083L110.371875,101.33035416652758L110.598046875,102.16338830937941L110.82421875,102.1406471505761L111.050390625,102.00899899254242L111.2765625,101.78894677758217L111.502734375,102.01673567543426L111.955078125,102.50748387475808L112.18125,102.4931717440486L112.40742187500001,102.22178341448306L112.63359374999999,103.89020347595213L112.859765625,102.8249003390471L113.0859375,101.87340922902027L113.31210937499999,102.34554103513558L113.53828125,102.2413742194573L113.764453125,102.27911252776781L113.990625,102.45800866683324L114.216796875,102.57139942546685L114.44296875,103.22878668953975L114.669140625,103.52622038622697L114.8953125,101.92887010922034L115.12148437500001,101.19691470265387L115.34765625,101.93755556146303L115.573828125,102.12529467046261L115.80000000000001,102.6039396499594L116.026171875,102.17535965392986L116.25234375000001,102.08473569651444L116.478515625,102.14905419945715L116.70468749999999,102.094139136374L117.15703124999999,101.50133046259482L117.383203125,102.3246607830127L117.609375,102.28312373409668L117.83554687499999,102.16084238390127L118.06171875,102.4157169982791L118.287890625,101.98877445360024L118.5140625,102.55208336065212L118.740234375,101.83360121150811L118.96640625,101.4978174517552L119.192578125,102.03176213055849L119.41875,101.9194556797544L119.64492187500001,101.39851903170346L119.87109375,102.54466171314319L120.32343750000001,102.1139570598801L120.549609375,101.97534881780544L120.77578125000001,101.59107891470194L121.001953125,102.55975410590568L121.22812499999999,101.69119789203008L121.454296875,102.13400576512018L121.68046874999999,101.58430931717157L121.906640625,102.27219273895024L122.1328125,102.69301407287517L122.35898437499999,102.51197129736343L122.58515625,101.96159715702136L122.811328125,102.91818744440873L123.0375,102.55030670762062L123.263671875,102.67683370908101L123.48984375,102.54320009549458L123.716015625,101.73460317403077L123.9421875,103.40351410458484L124.16835937500001,103.32794224470854L124.39453125,102.06622187296549L124.620703125,101.61507655183473L124.84687500000001,101.51667927950619L125.07304687499999,102.85984362413485L125.29921875,102.14935091882943L125.525390625,102.67081873118876L125.75156249999999,103.15441635996103L125.977734375,102.49646862596273L126.20390625,102.00825169930854L126.430078125,102.53737926731506L126.65625,101.82991603016852L126.882421875,101.52086265633503L127.10859375,101.60121133178471L127.334765625,102.14230658113956L127.5609375,102.89835486809412L127.787109375,102.55587477485338L128.01328125,102.7346207226316L128.23945312499998,102.3488086114327L128.465625,102.0681633700927L128.691796875,101.25629520912965L128.91796875,102.20853727559248L129.144140625,102.84009896467128L129.3703125,102.18622837464014L129.596484375,102.7810151775678L129.82265625,102.0762480571866L130.048828125,101.83419831345478L130.275,102.0025773992141L130.501171875,102.58352828770876L130.72734375000002,103.22727378706136L130.953515625,101.76787237574656L131.1796875,101.31908615678549L131.405859375,102.12851096192995L131.63203124999998,101.73195834209521L131.858203125,101.97910359998544L132.084375,102.4344432875514L132.310546875,102.89868089308341L132.53671875,102.063723569115L132.762890625,101.41005811840294L132.9890625,101.87888205299774L133.215234375,101.48160778234401L133.44140625,102.2246956601739L133.667578125,101.65138254811366L133.89375,102.10932310918966L134.119921875,102.59652166565259L134.572265625,102.40776052325963L134.7984375,101.87150436391433L135.024609375,101.95847244560719L135.25078125000002,102.24875190854071L135.476953125,102.40854078531265L135.703125,101.38549634814261L136.15546875,101.36246213316917L136.381640625,101.40765139460562L136.6078125,102.39493565261363L136.833984375,102.19821070879696L137.06015625,102.47306442757447L137.286328125,101.68107280135155L137.51250000000002,102.37690170854329L137.738671875,101.61807305117448L137.96484375,101.72147425760825L138.191015625,102.35842085381348L138.4171875,101.93720389405885L138.64335937500002,101.07314609239498L138.86953125000002,102.54426608731349L139.095703125,101.80788553257783L139.321875,102.66382201512654L139.548046875,102.05882586787143L139.77421875000002,103.15288147826989L140.00039062500002,101.67862944553295L140.2265625,102.42225947727759L140.45273437499998,102.73304554571708L140.67890624999998,101.74083794405063L140.905078125,102.110777400434L141.13125,101.24279630929232L141.357421875,101.29833411673704L142.0359375,102.52995029340187L142.262109375,102.00381189833084L142.48828125,102.22042436649402L142.714453125,102.4927358229955L142.94062499999998,102.42554536958535L143.166796875,102.26738661775985L143.39296875,101.79741243769725L143.619140625,102.473628560702L143.8453125,102.09566302845874L144.071484375,101.94311630229154L144.29765625,101.40842799345651L144.523828125,101.44656559079885L144.75,101.85059480617443L144.976171875,101.54602885494629L145.20234375,101.98654722670713L145.42851562500002,102.40070519596337L145.6546875,102.14049695928891L145.880859375,103.07691032936175L146.10703125,103.62790721406539L146.333203125,102.32286581397055L146.55937500000002,102.12691746900478L146.78554687500002,102.7232025216023L147.01171875,102.29531487077475L147.237890625,102.41746434569359L147.4640625,103.33933480332294L147.69023437500002,102.69902538756529L147.91640625000002,102.32898336152235L148.142578125,102.60091384500265L148.36874999999998,102.04522806157668L148.59492187499998,102.20915269354978L148.82109375,102.93443374584118L149.047265625,103.54831682145594L149.2734375,103.88634612411259L149.49960937499998,103.40484018375476L149.72578124999998,103.4952626650532L149.951953125,104.23941653470197L150.178125,103.58647273480892L150.404296875,103.85512098918358L150.63046875,103.16374653577805L150.85664062499998,102.68854496628046L151.0828125,103.11060446252425L151.308984375,103.8219763363401L151.53515625,103.64744307100773L151.761328125,103.11508455872536L151.9875,103.28831006089845L152.213671875,103.11225290348132L152.43984375,102.35179045796394L152.666015625,102.76911709705988L152.8921875,103.0210281809171L153.118359375,102.89942452311514L153.34453125,102.54243082304795L153.570703125,102.54103514303763L153.796875,102.4068410595258L154.023046875,102.63081656396389L154.24921875,102.82287458827098L154.47539062500002,103.03897787133852L154.7015625,103.02807251860698L154.927734375,103.11618718256553L155.15390625,103.83663647125164L155.380078125,103.34205289930105L155.60625000000002,103.40745571007331L155.83242187500002,103.07150344302256L156.05859375,102.16117573529482L156.284765625,102.37719110151131L156.5109375,102.36709897965193L156.73710937500002,102.50085347890854L156.96328125000002,102.56186411033073L157.189453125,102.71974445879458L157.41562499999998,102.67917449524005L157.64179687499998,103.67397930721441L157.86796875,102.61777190119027L158.094140625,102.8393223658204L158.3203125,102.67472736785808L158.54648437499998,102.94820005943377L158.77265624999998,101.71593183279037L158.998828125,102.1603405252099L159.225,102.18128305176893L159.451171875,102.79108898341654L159.67734375,103.01003857453664L160.1296875,102.3781178916494L160.355859375,103.06467523425817L160.58203125,102.57765983790159L160.808203125,103.34744513283172L161.034375,102.63071033110221L161.260546875,102.09776204327741L161.48671875,102.85555401444435L161.712890625,103.61826200286546L161.9390625,103.10771419604619L162.165234375,103.25466721256574L162.39140625000002,102.18575215836366L162.617578125,102.45447367678085L162.84375,101.69633370141187L163.069921875,102.74751519411802L163.29609375,103.14222156008084L163.52226562500002,102.44170375416675L163.74843750000002,101.46725901961325L163.974609375,102.17670771231253L164.20078125,102.47804638246694L164.426953125,101.46478269497553L164.65312500000002,102.89233256379762L164.87929687500002,102.53271601100762L165.10546875,102.16619065900643L165.33164062499998,102.7805499508977L165.55781249999998,102.48050439109404L165.783984375,102.34044185777505L166.01015625,102.67562851558128L166.236328125,102.41232120990753L166.46249999999998,102.64446565508842L166.68867187499998,102.5601643845439L166.91484375,102.72324648002783L167.141015625,102.76491174101828L167.3671875,102.77032595376173L167.593359375,102.52857659260431L167.81953124999998,102.65922835965951L168.045703125,102.43469971170028L168.271875,101.8319894025723L168.498046875,103.17911366870005L168.72421875,102.42231808851162L168.950390625,103.03180898477633L169.1765625,102.37666726360717L169.402734375,102.86137484262386L169.62890625,102.31015450259049L169.855078125,102.11802321424086L170.08125,102.922008164227L170.307421875,102.61868037531772L170.53359375,102.3638716985782L170.759765625,102.49001772701739L170.9859375,102.41115631163119L171.212109375,103.38286097099383L171.43828125000002,102.41314909358819L171.664453125,103.1695856799682L171.890625,102.32197931905587L172.116796875,102.97941054155429L172.34296875,103.26569345096746L172.56914062500002,102.37134463091691L172.79531250000002,102.98732305814822L173.021484375,103.30359660337368L173.24765625,103.46335983773072L173.473828125,102.95466194798549L173.70000000000002,102.6893838395675L173.92617187500002,102.80453659842411L174.15234375,102.1714729964733L174.37851562499998,102.7783520296216L174.60468749999998,102.95866216470797L174.830859375,102.58020576337972L175.05703125,102.7365329141418L175.283203125,102.91201128562291L175.50937499999998,103.17784253756204L175.73554687499998,103.11712862551212L175.96171875,103.4524032001694L176.187890625,102.8642211506764L176.4140625,102.90969980508089L176.640234375,102.45529423405726L176.86640624999998,103.35928460210562L177.092578125,102.69882391144832L177.31875,103.11747662971416L177.544921875,102.56229270497957L177.77109375,103.34044841676949L177.997265625,103.44638455907503L178.2234375,102.84625680744648L178.449609375,103.06598666061957L178.67578125,102.99331972002982L178.901953125,102.77269604553778L179.128125,103.14256956428288L179.35429687500002,102.96396648138762L179.58046875,102.88933606445788L179.806640625,102.62474663803974L180.0328125,102.88637986034155L180.258984375,102.55262917776902L180.48515625000002,102.67795831213394L180.71132812500002,102.92723921686411L180.9375,102.84653521080811L181.163671875,102.28336550543705L181.38984375,102.59159099558988L181.61601562500002,102.80565753827491L181.84218750000002,102.0571004996697L182.068359375,102.33860293030739L182.29453124999998,102.66233109186092L182.52070312499998,102.25307815025249L182.746875,102.4865633274118L182.973046875,103.21996203561623L183.19921875,102.16422351946433L183.42539062499998,103.5802306383848L183.65156249999998,103.34470139443873L183.877734375,102.37689438213904L184.10390625,103.1625376790762L184.330078125,103.11216132342815L184.55625,102.24597520132859L184.78242187499998,102.39105998476346L185.00859375,102.48898470401764L185.234765625,103.18798960745335L185.4609375,102.97175444910923L185.687109375,102.58714386820792L185.91328125,103.4548355663816L186.139453125,102.2205452521642L186.365625,103.08296560247739L186.591796875,102.8947869092226L186.81796875,103.19348441064358L187.044140625,102.88737625132003L187.2703125,103.02675010263918L187.496484375,101.96165210505326L187.72265625,103.34131659567356L187.948828125,102.87547450761L188.175,102.64290146778026L188.40117187500002,102.8902665177981L188.62734375,103.54160217195749L188.853515625,103.11542157332102L189.0796875,103.10233661532402L189.305859375,102.92107771088679L189.53203125000002,103.30959326525529L189.75820312500002,102.66829478492339L189.984375,103.28365046779314L190.210546875,103.66960910707711L190.43671875,103.857241983215L190.66289062500002,102.83299235254525L190.88906250000002,102.84762318183978L191.115234375,103.78001069277525L191.34140624999998,103.22839472691217L191.56757812499998,103.73960557331641L191.79375,104.27212160329023L192.019921875,104.01288411517938L192.24609375,104.34490210314591L192.47226562499998,104.3898898884654L192.69843749999998,103.82814516872168L192.924609375,104.613389176627L193.15078125,104.2301193277041L193.376953125,103.14881532390912L193.603125,104.15432767570019L193.82929687499998,104.83739764988421L194.05546875,104.53886132935682L194.281640625,104.39509163548549L194.5078125,104.76731692999601L194.733984375,105.0569480061531L194.96015625,104.47266360372303L195.186328125,104.86754214018583L195.4125,105.36120991160472L195.638671875,105.18771699567635L195.86484375,104.11524863541125L196.091015625,105.52129550774892L196.31718750000002,105.2297082816561L196.543359375,104.07090557366608L196.76953125,104.92894107103348L196.995703125,104.73387922098239L197.221875,104.09443432092667L197.44804687500002,102.31614383806784L197.67421875000002,103.59677732239166L197.900390625,103.84436582773924L198.1265625,104.4034107675155L198.57890625000002,105.51659195621808L198.80507812500002,104.16448207199574L199.03125,104.72656380633512L199.25742187499998,105.16038584460814L199.48359374999998,104.70138661811748L199.709765625,104.70249656836191L199.9359375,105.45276432236035L200.162109375,105.81149438023566L200.38828124999998,106.22410281499226L200.61445312499998,106.07740255941947L200.840625,105.51522191862264L201.066796875,105.75819845249255L201.29296875,105.87181632965803L201.519140625,105.7440694818894L201.74531249999998,103.02047503739595L201.971484375,103.69398039082685L202.19765625,105.49101547896862L202.423828125,105.66227750480174L202.65,105.44407887011766L202.876171875,105.65897329648335L203.10234375,105.90429427971442L203.328515625,106.07819014787674L203.5546875,105.65255170315503L203.780859375,106.77954316387573L204.00703125,106.12974971781173L204.233203125,106.59342685341835L204.459375,105.38987446824709L204.685546875,105.43501977125803L204.91171875,104.869655807813L205.137890625,106.12620007495084L205.36406250000002,105.95848036557436L205.590234375,106.25917431215444L206.042578125,105.5397324040532L206.26875,106.21438800295194L206.49492187500002,105.90444080779949L206.72109375000002,105.4096667493383L206.947265625,106.11669040222962L207.1734375,106.30336351941028L207.399609375,106.11806410302718L207.62578125000002,107.10174377014239L207.85195312500002,106.73370917886496L208.078125,105.9148772706588L208.30429687499998,106.41384203235307L208.53046874999998,106.03664210935433L208.756640625,106.271841665109L208.9828125,105.91721073041359L209.208984375,106.40984547883271L209.43515624999998,105.91246688365936L209.66132812499998,107.14362882326046L209.8875,106.88566612948973L210.113671875,106.59950410574675L210.33984375,105.57830592244862L210.566015625,106.17285095403591L210.79218749999998,105.78651500493288L211.018359375,106.42428215841451L211.24453125,105.64325449615716L211.470703125,106.2397886464993L211.696875,105.95760119706392L211.923046875,106.70244374871253L212.14921875,105.92514156301816L212.375390625,106.72036047031482L212.6015625,107.09521960715452L212.827734375,106.47480504214764L213.05390625,107.38472247123718L213.28007812500002,106.98379598806301L213.50625,107.01886382202306L213.732421875,107.59688048561414L213.95859375,108.19434875249861L214.184765625,107.18720261255899L214.41093750000002,107.04096392045417L214.63710937500002,107.89402112613121L214.86328125,107.5385549813509L215.089453125,107.4287724768122L215.315625,108.2392669369777L215.54179687500002,106.44482905914386L215.76796875000002,106.94372788319984L215.994140625,108.17923804372549L216.22031249999998,108.06029753386973L216.44648437499998,108.41498707979918L216.898828125,107.41678281625111L217.125,107.99755787104367L217.35117187499998,108.43137258291245L217.57734374999998,108.27214417606592L217.803515625,108.32316525528827L218.255859375,108.28864690164724L218.48203125,108.7261064996322L218.70820312499998,108.50704701244831L218.934375,107.69302122543255L219.160546875,108.68609334280093L219.38671875,108.01154031356175L219.612890625,108.30999604364236L219.8390625,107.20909024526675L220.065234375,107.63351617008446L220.29140625,108.60432700812817L220.517578125,108.69610853741565L220.74375,107.90335496515036L220.969921875,108.96410107860962L221.19609375,108.54852911333242L221.422265625,109.06607729941605L221.6484375,108.86359746505816L221.874609375,108.24014610548814L222.10078125,108.74266783644755L222.32695312500002,109.18788609653711L222.553125,109.34247322628894L222.779296875,109.07151715457438L223.00546875,109.05077610413232L223.231640625,109.86144639799991L223.45781250000002,108.47944478442271L223.68398437500002,108.88781489431857L223.91015625,108.61388796567917L224.136328125,109.16236090411742L224.3625,108.0544327472647L224.58867187500002,107.67510816703239L224.81484375000002,108.57593352844317L225.041015625,108.92621624221404L225.26718749999998,108.26221689830223L225.49335937499998,108.4004185249408L225.71953125,108.32083545873562L225.945703125,107.90132921437421L226.171875,108.0725436185797L226.39804687499998,108.53117286165555L226.62421874999998,108.10192616283894L226.850390625,108.76988909145196L227.0765625,108.90574260552724L227.302734375,108.80084314942359L227.52890625,109.41050255298613L227.75507812499998,108.77383802334467L227.98125,109.21926142275333L228.207421875,108.60889135797818L228.43359375,108.20249205082654L228.659765625,108.60572268813848L228.8859375,109.01392429073651L229.112109375,108.50072798877953L229.564453125,109.57897321879862L229.790625,109.18100660294293L230.016796875,108.87495705485343L230.24296875000002,108.21679685513178L230.469140625,108.70099524905284L230.6953125,108.17921606451272L230.921484375,108.68016628175974L231.14765625,108.60708173612753L231.37382812500002,109.18682376792033L231.60000000000002,109.14405221988757L231.826171875,108.71663345893224L232.05234375,109.64227335155009L232.278515625,109.30994399140278L232.50468750000002,108.80682149529457L232.95703125,109.61214717725912L233.18320312499998,109.26037354022264L233.40937499999998,109.28977073729037L233.635546875,109.08402332663536L233.86171875,108.99061167240141L234.087890625,109.04953061540921L234.31406249999998,109.84860687454541L234.54023437499998,109.34850652019182L234.76640625,109.63476378719011L234.992578125,109.23774227748314L235.21875,109.42668291678031L235.444921875,109.8330748975277L235.67109374999998,109.76206738750139L235.897265625,108.62863601744175L236.1234375,109.57651521017154L236.349609375,109.43145606915155L236.801953125,109.4847153648734L237.028125,109.69197201480468L237.254296875,109.69738256434599L237.706640625,108.88450702279806L237.9328125,109.85145684580007L238.158984375,109.66209493825832L238.38515625,110.47518660873175L238.611328125,110.40579823404549L238.8375,109.91587425520022L239.063671875,109.98129171878098L239.28984375000002,110.12067655970652L239.516015625,108.98699975510438L239.7421875,110.73011250793932L239.968359375,110.11995490888754L240.19453125,109.45643178125222L240.42070312500002,109.51824099073806L240.64687500000002,110.15100421011448L240.873046875,109.79312767833471L241.09921875,110.5843243896961L241.325390625,109.55606721589962L241.55156250000002,110.06101398666699L241.77773437500002,108.95984810094038L242.00390625,109.92019317050774L242.23007812499998,110.15022761126359L242.45624999999998,109.01185091833273L242.682421875,110.2095055480798L242.90859375,109.9110498179992L243.134765625,110.41770730415979L243.36093749999998,110.47280919055143L243.58710937499998,109.44708328942457L243.81328125,109.15772695342699L244.039453125,108.54897236078978L244.265625,109.681813955307L244.491796875,110.93186702827612L244.71796874999998,109.95611086736122L244.944140625,109.79450870553651L245.1703125,110.52939833700655L245.396484375,109.78953774025042L245.62265625,110.07075810432434L245.848828125,110.3504838819305L246.075,109.62421010186274L246.301171875,110.05778304239114L246.52734375,109.82781087607145L246.753515625,109.22600171466668L246.9796875,110.28355717907348L247.20585937500002,110.09154311319192L247.43203125,109.55736765265465L247.884375,109.87554239978392L248.110546875,110.22283227741718L248.33671875000002,109.8439472814401L248.56289062500002,109.19927865515152L248.7890625,109.01431259016195L249.015234375,109.62101945281029L249.24140625,110.01864905407031L249.46757812500002,109.87458996723095L249.69375000000002,109.87476946413516L249.919921875,109.78072041273117L250.37226562499998,109.78380849212407L250.5984375,108.84982382506132L250.824609375,109.1474296922485L251.05078125,109.59091159452994L251.27695312499998,109.34766764690478L251.50312499999998,109.60213564584652L251.729296875,109.73912475258112L251.95546875,109.44384868194659L252.181640625,109.79627803216377L252.4078125,109.88663823902606L252.63398437499998,109.69703822334607L252.86015625,110.49518036593993L253.086328125,110.03882963458696L253.3125,109.9919479737679L253.538671875,109.85949024806419L253.76484375,109.66781685998042L253.991015625,109.38911311576763" style="fill: none;" fill="none"></path></g><g><path stroke="rgb(238, 51, 119)" stroke-width="2px" d="M27.140625,-38.1596023440361L29.40234375,14.926555792490632L31.6640625,51.55566847821076L33.92578125,46.356134032209724L36.1875,53.42800434927145L38.44921875,27.40576668580374L40.7109375,46.97262164453667L42.97265625,29.910092840592057L45.234375,68.37052818636099L47.49609375,56.80927178760368L49.7578125,27.574288636446L52.01953125,72.34667767087618L54.28125,56.24509470164776L56.54296875,71.92745349307853L58.8046875,70.13830894231796L61.06640625,62.71258062620957L63.328125,70.24989007910092L65.58984375,39.709077939391136L67.8515625,45.471741795539856L70.11328125,52.45010521511237L72.375,37.64953046043715L74.63671875,56.750785102446855L76.8984375,43.04235742986202L79.16015625,62.03406767547129L81.421875,43.67680205901465L83.68359375,43.86495877305666L85.9453125,71.60059329370657L88.20703125,48.014216537276894L90.46875,53.606475556890175L92.73046875,28.5340915520986L94.9921875,39.370737264553725L97.25390625,69.0269740074873L99.515625,48.26453046500683L101.77734375,21.3086011906465L104.0390625,46.842534010609L106.30078125,50.48650432626407L108.5625,50.23849088946979L110.82421875,41.483672251304L113.0859375,57.323072517911584L115.34765625,59.7312835752964L117.609375,79.17966325084367L119.87109375,37.6573770393928L122.1328125,49.918173169096306L124.39453125,54.28355985879897L126.65625,-2.464877277612686L128.91796875,46.559888660907745L131.1796875,48.55127127468586L133.44140625,51.58206551273665L135.703125,38.921709274252265L136.15546875,60.22687819103399L136.6078125,8.32147999604544L137.06015625,58.56493467092514L137.51250000000002,62.12364029387632L137.96484375,42.47948444386324L138.4171875,60.50599221388498L138.86953125000002,59.66404916346073L139.321875,46.78388614455858L139.77421875000002,67.8398620734612L140.2265625,59.96785316864647L140.67890624999998,46.22979019085565L141.13125,41.26568974554539L141.58359374999998,50.2511655688286L142.0359375,66.32590459287167L142.48828125,55.07705339789389L142.94062499999998,48.03442276020846L143.39296875,41.917842293779074L143.8453125,46.98419736325741L144.29765625,46.342294454574585L144.75,49.10712556540966L145.20234375,60.08458476761976L145.6546875,21.139185418685287L146.10703125,43.12941709160805L146.55937500000002,47.226166516542435L147.01171875,63.88461482028164L147.4640625,34.17427990833917L147.91640625000002,44.04944495856762L148.36874999999998,60.984040091435105L148.82109375,58.26506494482358L149.2734375,56.885290558139474L149.72578124999998,46.75762098530927L150.178125,56.82002694904804L150.63046875,54.524195606509835L151.0828125,33.59939161936441L151.53515625,71.25492621461548L151.9875,54.43602233131726L152.43984375,39.1767780383428L152.8921875,52.020133202274636L153.34453125,48.329361816247314L153.796875,18.905525942643493L154.24921875,40.36076159775257L154.7015625,44.61704347531L155.15390625,29.118035276730865L155.60625000000002,36.84983878334364L156.05859375,42.825371315081924L156.5109375,49.55762616296609L156.96328125000002,58.195361534754426L157.41562499999998,26.20489576458931L157.86796875,60.25923159221806L158.3203125,47.92352297902107L158.77265624999998,46.32674782474837L159.225,37.87810694674653L159.67734375,55.28359206020832L160.1296875,41.48073436319828L160.58203125,62.50508953134218L161.034375,25.720254123210907L161.48671875,32.10492237408957L161.9390625,54.403178061048166L162.39140625000002,58.29322764277457L162.84375,49.98690949380398L163.29609375,49.71650656561056L163.74843750000002,60.703790475924805L164.20078125,68.077838336428L164.65312500000002,23.31027740240097L165.10546875,44.37901592751345L165.55781249999998,58.028847018877656L166.01015625,43.52998824417591L166.46249999999998,43.503781696160644L166.91484375,55.08520768582821L167.3671875,48.874512230356544L167.81953124999998,46.8728286921978L168.271875,58.44380722939968L168.72421875,65.03968838850656L169.1765625,59.10777726769447L169.62890625,47.265135660767555L170.08125,74.72783964375654L170.53359375,55.72084651887417L170.9859375,53.16185073554517L171.43828125000002,46.21842693785828L171.890625,55.15442755321661L172.34296875,66.31235074500242L172.79531250000002,56.359437892834336L173.24765625,10.667819569508254L173.70000000000002,55.19255416095257L174.15234375,53.277109727263465L174.60468749999998,61.243827059865L175.05703125,56.94800457855064L175.50937499999998,63.137394850452736L175.96171875,58.43374074995516L176.4140625,47.990178604920715L176.86640624999998,31.500332842270524L177.31875,39.622428556283324L177.77109375,12.234424591064453L178.2234375,50.95256620645523L178.67578125,58.48679124315578L179.128125,56.060952857136726L179.58046875,60.223185683290154L180.0328125,65.53973013162613L180.48515625000002,45.21699539323649L180.9375,55.48691443105538L181.38984375,53.15692006548247L181.84218750000002,57.32412752012411L182.29453124999998,57.31348958114782L182.746875,69.49022254844506L183.19921875,45.37909208734831L183.65156249999998,46.95421039064726L184.10390625,57.84461725751558L184.55625,-7.149849047263444L185.00859375,61.42256201803683L185.4609375,67.75211372971533L185.91328125,44.51134544114271L186.365625,63.241671562194824L186.81796875,56.2391749670108L187.2703125,65.01647833983102L187.72265625,34.93599883218607L188.175,59.23546916743119L188.62734375,60.547664801279694L189.0796875,42.53588310380778L189.53203125000002,41.09669890503088L189.984375,51.55889942248662L190.43671875,52.09078171849251L190.88906250000002,34.035210102796555L191.34140624999998,49.032366936405495L191.79375,34.22937446832657L192.24609375,40.29758601387343L192.69843749999998,63.51159094770749L193.15078125,37.837562625606864L193.603125,49.96398517489433L194.05546875,21.30681354800859L194.5078125,50.78493807713191L194.96015625,31.885408649841935L195.4125,51.11801106731096L195.86484375,55.15376817683378L196.31718750000002,47.24103911717734L196.76953125,39.906693041324615L197.221875,64.63862636685371L197.67421875000002,61.30937639872232L198.1265625,47.9066575964292L198.57890625000002,67.29767885307469L199.03125,70.2051843603452L199.48359374999998,37.15334240595499L199.9359375,49.123126432299614L200.38828124999998,54.80996200442314L200.840625,41.58164825538793L201.29296875,63.74062167108059L201.74531249999998,50.69132860998312L202.19765625,52.13706994056702L202.65,64.18439662953216L203.10234375,47.56534240146479L203.5546875,46.74521738290787L204.00703125,45.301908418536186L204.459375,29.4339351753394L204.91171875,57.80721596380074L205.36406250000002,59.79111099243164L205.81640625,14.061937520901353L206.26875,57.95808860659599L206.72109375000002,60.86210674544175L207.1734375,6.0098236203193665L207.62578125000002,48.64174504081407L208.078125,-3.398202568292618L208.53046874999998,53.76704103251299L208.9828125,18.77208281556767L209.43515624999998,60.360753575960786L209.8875,62.48450966179371L210.33984375,51.57270969450474L210.79218749999998,47.18275024493536L211.24453125,13.12074367205301L211.696875,21.81720017393431L212.14921875,43.118288283546775L212.6015625,57.2584170003732L213.05390625,71.83664271235466L213.50625,52.249508266647666L213.95859375,58.21101806064446L214.41093750000002,51.11169570684433L214.86328125,12.244622945785522L215.315625,77.7456954518954L215.76796875000002,36.45123843351999L216.22031249999998,36.79676631093025L216.67265625,55.132272506753594L217.125,48.284157902002335L217.57734374999998,38.047412822643906L218.0296875,60.96644206841785L218.48203125,69.77376904586949L218.934375,60.70839878420033L219.38671875,73.99761693179607L219.8390625,38.83475218216577L220.29140625,31.664634784062713L220.74375,52.22454720735551L221.19609375,36.97827064990997L221.6484375,-3.229270339012146L222.10078125,52.16194308300814L222.553125,51.31178713341555L223.00546875,28.238852113485336L223.45781250000002,69.19541536768277L223.91015625,39.88820119698843L224.3625,53.91092428565025L224.81484375000002,65.96856655180453L225.26718749999998,49.90132976571718L225.71953125,51.9434916873773L226.171875,57.71908664703369L226.62421874999998,59.12703838447729L227.0765625,59.545302803317696L227.52890625,59.45068229238191L227.98125,13.427236467599869L228.43359375,63.18386623263359L228.8859375,31.67641564210257L229.33828125,54.49958621462186L229.790625,69.49449384212494L230.24296875000002,58.762850155433014L230.6953125,68.84498612582684L231.14765625,62.32976135114828L231.60000000000002,57.62710364162922L232.05234375,38.82576268414658L232.50468750000002,49.10226815938951L232.95703125,57.731204519669205L233.40937499999998,25.571161796649307L233.86171875,35.77604434390864L234.31406249999998,48.06934772928557L234.76640625,46.15369815627733L235.21875,67.50791002313295L235.67109374999998,56.934326181809084L236.1234375,66.0395960410436L236.57578125,61.03836537897587L237.028125,58.886102254192025L237.48046875,68.71699384351571L237.9328125,80.7631776134173L238.38515625,70.21380021174747L238.8375,73.05325807631016L239.28984375000002,47.44133568306765L239.7421875,68.40737267335254L240.19453125,35.85692784686884L240.64687500000002,68.72545584042865L241.09921875,49.51716975867748L241.55156250000002,55.57332204282284L242.00390625,56.430240263541535L242.45624999999998,65.6798036545515L242.90859375,60.22919333477813L243.36093749999998,54.11593172947565L243.81328125,57.80850541094938L244.265625,65.46034854153791L244.71796874999998,54.002958575884506L245.1703125,75.20107407371202L245.62265625,30.29143218199411L246.075,44.09770398338637L246.52734375,50.819232975443214L246.9796875,57.14841104050477L247.43203125,79.10112419724464L247.884375,54.22514643768467L248.33671875000002,56.478213558594376L248.7890625,69.11377724508444L249.015234375,66.68113995591798L249.24140625,59.542767867445946L249.46757812500002,33.39775432149568L249.69375000000002,58.46144188443817L249.919921875,64.73077787955602L250.14609374999998,68.8597195247809L250.37226562499998,57.177020649115235L250.5984375,14.716170767943055L250.824609375,68.10531235237914L251.05078125,45.573351696133614L251.27695312499998,50.10832266509533L251.50312499999998,58.88214599589506L251.729296875,55.55673506359258L251.95546875,60.922014753023774L252.181640625,76.71985232830048L252.4078125,53.80274260044098L252.63398437499998,69.39809301495552L252.86015625,44.125002165635436L253.086328125,50.87874535719554L253.3125,12.838559885819762L253.538671875,67.32163619498411L253.76484375,38.3579131613175L253.991015625,58.74135448535283" style="fill: none;" fill="none"></path></g><g><path stroke="rgb(187, 187, 187)" stroke-width="2px" d="M27.140625,-29.32564388712248L29.40234375,6.788092891375214L31.6640625,33.51358477274576L33.92578125,41.56223328411579L36.1875,60.23347195486227L38.44921875,49.214926277597755L40.7109375,60.44883893430233L42.97265625,24.869790464639664L45.234375,79.74799440801144L47.49609375,78.16985762615998L49.7578125,72.2706735531489L52.01953125,81.28368200361729L54.28125,61.51830346882342L56.54296875,72.33866991102694L58.8046875,62.49630517264207L61.06640625,75.35226907829443L63.328125,71.0007659246524L65.58984375,22.257663597663253L67.8515625,38.55795330305895L70.11328125,51.70033565660317L72.375,48.7185330837965L74.63671875,49.32852217555046L76.8984375,58.37296822667122L79.16015625,68.14527788758278L81.421875,56.496368388334886L83.68359375,41.098530506094306L85.9453125,70.28104194998741L88.20703125,70.72942521671453L90.46875,35.80145964026451L92.73046875,69.62746807932854L94.9921875,51.14766835172972L97.25390625,65.84678706030049L99.515625,67.23908227185407L101.77734375,43.370704889297485L104.0390625,76.70346316198507L106.30078125,64.568791081508L108.5625,28.85914945602417L110.82421875,28.36757703622183L113.0859375,49.12534633278848L115.34765625,59.605291401346506L117.609375,64.76212756335735L119.87109375,31.355167468388885L122.1328125,44.55245389540991L124.39453125,63.37573010722795L126.65625,64.54755183557667L128.91796875,31.734689861536026L131.1796875,54.572102963924394L133.44140625,33.50568690896034L135.703125,67.21166686713696L136.15546875,68.59928050637244L136.6078125,62.764187817772225L137.06015625,34.91621754070124L137.51250000000002,48.02318405608335L137.96484375,60.87528694669403L138.4171875,45.35746454199156L138.86953125000002,42.19648742675781L139.321875,61.89110022286573L139.77421875000002,72.02620609601338L140.2265625,47.88597515722117L140.67890624999998,71.35060905416806L141.13125,63.27634010712303L141.58359374999998,53.48373630642891L142.0359375,54.62003962695597L142.48828125,26.31783961256346L142.94062499999998,42.37690013150376L143.39296875,71.04278285304704L143.8453125,61.53085359930992L144.29765625,44.05616327126822L144.75,59.73138614495595L145.20234375,71.39154167473315L145.6546875,57.34853909909724L146.10703125,64.50392309824625L146.55937500000002,55.611807644367204L147.01171875,46.79654617110887L147.4640625,76.9127199202776L147.91640625000002,67.08674434820809L148.36874999999998,71.98363236089546L148.82109375,71.45454142491022L149.2734375,61.78178294499715L149.72578124999998,55.199316432078675L150.178125,31.563281307617814L150.63046875,65.78690835833548L151.0828125,43.23219921688238L151.53515625,38.562041436632484L151.9875,52.37042324244976L152.43984375,62.96585442125797L152.8921875,62.72389259437719L153.34453125,51.84436543782553L153.796875,33.93858948349953L154.24921875,64.09031827251115L154.7015625,47.59274315337339L155.15390625,30.767472624778748L155.60625000000002,43.04752254486084L156.05859375,69.19551061093807L156.5109375,62.340597103039414L156.96328125000002,43.44108232855797L157.41562499999998,49.575949500004455L157.86796875,74.50510230163732L158.3203125,62.917815188566834L158.77265624999998,57.286894733707086L159.225,23.78392943739891L159.67734375,53.34915026028952L160.1296875,71.8356096893549L160.58203125,49.308696925640106L161.034375,61.72914273043472L161.48671875,62.33744674921034L161.9390625,59.57334095239638L162.39140625000002,73.9170118321975L162.84375,71.72868081927298L163.29609375,67.58481528858343L163.74843750000002,61.720915178457886L164.20078125,59.11356512705483L164.65312500000002,42.413861840963364L165.10546875,59.9177991747856L165.55781249999998,55.169300153851495L166.01015625,68.78466783960658L166.46249999999998,72.75383526086807L166.91484375,67.29261630773544L167.3671875,59.44364161789416L167.81953124999998,66.62228695054849L168.271875,63.275446285804094L168.72421875,65.77912771701811L169.1765625,72.28887234131494L169.62890625,55.44777677953243L170.08125,77.41537718971568L170.53359375,66.71426995595296L170.9859375,52.53608789543311L171.43828125000002,65.47410752872624L171.890625,61.83326558768749L172.34296875,61.50710139671959L172.79531250000002,51.37558546165626L173.24765625,49.41421179970105L173.70000000000002,62.74033304552235L174.15234375,53.43042206267516L174.60468749999998,59.72244793176651L175.05703125,65.78821978469689L175.50937499999998,70.74244423707326L175.96171875,67.47716843088467L176.4140625,62.56553969283898L176.86640624999998,51.0002684245507L177.31875,53.07100332280001L177.77109375,74.09571748475234L178.2234375,65.30641346176465L178.67578125,63.28162244458993L179.128125,65.49246749778587L179.58046875,53.046430562933296L180.0328125,54.95446067551771L180.48515625000002,44.06622975071272L180.9375,59.837992653250694L181.38984375,62.133465001980454L181.84218750000002,49.66297985613346L182.29453124999998,57.75199685494104L182.746875,56.03888572752474L183.19921875,43.56714044014615L183.65156249999998,79.96143454313278L184.10390625,58.80640562872091L184.55625,36.53327950835228L185.00859375,67.28303337097167L185.4609375,59.43361909687518L185.91328125,57.03266117970148L186.365625,65.1042413363854L186.81796875,63.88681274155775L187.2703125,61.83916334311165L187.72265625,67.39216016232966L188.175,51.638530110319465L188.62734375,53.49920234580836L189.0796875,45.59133069217205L189.53203125000002,45.15394435822964L189.984375,31.154731700817734L190.43671875,50.23487164576848L190.88906250000002,53.20007258653641L191.34140624999998,63.088959991931915L191.79375,68.87471667428811L192.24609375,54.752903968095765L192.69843749999998,45.45989499986172L193.15078125,44.73644921183586L193.603125,66.32750174899894L194.05546875,41.315194259087235L194.5078125,53.10027963419756L194.96015625,58.45542690654595L195.4125,17.940184265375137L195.86484375,59.12434959411621L196.31718750000002,68.75637326637903L196.76953125,66.81450249254704L197.221875,42.6944704502821L197.67421875000002,50.614284142851844L198.1265625,60.009174088637025L198.57890625000002,57.858749891320855L199.03125,59.107425600290284L199.48359374999998,44.939463873704284L199.9359375,54.696014439066246L200.38828124999998,70.70031008621056L200.840625,53.08010271688303L201.29296875,69.82906141877174L201.74531249999998,70.6051327685515L202.19765625,47.854522903760284L202.65,72.8065853714943L203.10234375,49.20379746953647L203.5546875,42.9087238162756L204.00703125,56.09700609246889L204.459375,43.37367208302021L204.91171875,41.05745135744414L205.36406250000002,67.31766528387864L205.81640625,64.95602085192998L206.26875,55.49596986671288L206.72109375000002,69.19137851893902L207.1734375,56.32794900735219L207.62578125000002,63.249503488341944L208.078125,57.538586025436715L208.53046874999998,34.14284963409105L208.9828125,37.26054235299429L209.43515624999998,69.51418721675873L209.8875,50.5609186142683L210.33984375,1.5784773131211693L210.79218749999998,65.60852506756783L211.24453125,47.8319355994463L211.696875,52.18443514406681L212.14921875,49.117917358875275L212.6015625,72.94509837031363L213.05390625,64.77318310737608L213.50625,49.332002217570945L213.95859375,51.791798487305655L214.41093750000002,48.2685160289208L214.86328125,42.48792446156344L215.315625,71.5829513122638L215.76796875000002,53.15020907918611L216.22031249999998,46.880565375089645L216.67265625,59.75573178629078L217.125,53.379430289069816L217.57734374999998,71.27260482807954L218.0296875,76.90408208966255L218.48203125,42.60744742055735L218.934375,72.66218194365501L219.38671875,63.90392722189425L219.8390625,54.00100975235304L220.29140625,36.995055442055076L220.74375,39.96071794629097L221.19609375,39.840381756424904L221.6484375,51.37329962352912L222.10078125,24.023400286833436L222.553125,42.50575692951679L223.00546875,59.50715421636899L223.45781250000002,55.63437296946843L223.91015625,65.67782552540302L224.3625,58.1575939208269L224.81484375000002,34.755065952738136L225.26718749999998,59.2551112572352L225.71953125,48.62216888864836L226.171875,59.50128576656182L226.62421874999998,44.083095133304596L227.0765625,47.091983422636986L227.52890625,75.81397174795468L227.98125,38.23353279630342L228.43359375,60.922351767619446L228.8859375,44.127031579613686L229.33828125,71.17513434588908L229.790625,38.33303269247213L230.24296875000002,64.06559898455937L230.6953125,68.67278632024923L231.14765625,67.91522146761417L231.60000000000002,70.54589879016079L232.05234375,64.09332209825516L232.50468750000002,61.63014102975525L232.95703125,58.0118351082007L233.40937499999998,65.70740221937497L233.86171875,58.39581928153832L234.31406249999998,61.7391652514537L234.76640625,81.27296347419421L235.21875,64.60090271135171L235.67109374999998,69.19627988338469L236.1234375,71.60602215925852L236.57578125,73.45979292194048L237.028125,59.471247509121895L237.48046875,61.40820959210396L237.9328125,77.48272149761517L238.38515625,63.09537059565383L238.8375,58.16362355152765L239.28984375000002,54.20683042705059L239.7421875,47.29465374350548L240.19453125,78.24949564039707L240.64687500000002,57.522431304057434L241.09921875,70.63053341209888L241.55156250000002,57.79328114291032L242.00390625,75.17762225369613L242.45624999999998,67.57498325407505L242.90859375,49.6881167491277L243.36093749999998,70.36877564092477L243.81328125,77.60861110190551L244.265625,65.42677895724773L244.71796874999998,35.14113082488379L245.1703125,69.31060109535852L245.62265625,63.04273038109143L246.075,59.13823313017686L246.52734375,62.12921568751334L246.9796875,63.61108351747194L247.43203125,65.91229976713657L247.884375,57.65416737894215L248.33671875000002,60.172347764174134L248.7890625,74.18942952156067L249.015234375,73.14983473718165L249.24140625,66.70023989180723L249.46757812500002,72.87368790805338L249.69375000000002,67.89210666219391L249.919921875,77.84556899468103L250.14609374999998,69.83444632589817L250.37226562499998,57.38736904164155L250.5984375,56.20420603950818L250.824609375,72.41836653649807L251.05078125,67.12883454064527L251.27695312499998,59.80066462357837L251.50312499999998,78.23150199155012L251.729296875,59.073621571063995L251.95546875,71.25970303018886L252.181640625,69.60545956095058L252.4078125,62.46836959322292L252.63398437499998,64.92352092266081L252.86015625,73.9334815889597L253.086328125,64.32907846073309L253.3125,71.197604427735L253.538671875,69.49713134765625L253.76484375,70.56503535807133L253.991015625,65.12070376674333" style="fill: none;" fill="none"></path></g><g><path stroke="rgb(0, 119, 187)" stroke-width="2px" d="M28.49765625,-19.079916636149107L28.950000000000003,18.801403085390717L29.40234375,4.610714852809906L29.8546875,19.71622187892595L30.307031249999998,12.26340784629187L30.759375,28.658962786197662L31.211718750000003,48.43437116841474L31.6640625,35.17039980987707L32.11640625,9.897814482450485L32.56875,51.30378669997056L33.02109375,56.91445697347322L33.4734375,51.36907961467902L33.92578125,38.979990820089995L34.378125000000004,51.11741030216217L34.83046875,51.842482551932335L35.2828125,57.9625284075737L35.735156249999996,62.52248974144459L36.1875,53.8464372754097L36.639843750000004,49.42797811329365L37.092187499999994,60.20393921931583L37.54453125,73.64448424677053L37.996875,70.27690985798836L38.44921875,48.716034779946L38.901562500000004,72.31077829003333L39.353906249999994,60.85975496967632L39.80625,57.408205335338906L40.25859375,66.86684232453503L40.7109375,57.989372352759034L41.163281250000004,55.612474347154276L41.615624999999994,33.68606298168501L42.06796875,45.29383472104868L42.5203125,73.84169639647007L42.97265625,20.944141884644836L43.425000000000004,62.27721637984115L43.877343749999994,65.06663490335146L44.3296875,38.26666279633841L44.78203125,63.493509382009506L45.234375,71.59381636977196L45.68671875,69.57397067546843L46.1390625,13.206389337778091L46.59140625,39.092224006851524L47.04375,38.30382231871286L47.49609375,71.6958878338337L47.9484375,56.74242567519346L48.40078125,65.95866857965787L48.853125,52.99013447264831L49.30546875,79.91997442146142L49.7578125,67.34042109549046L50.21015625,62.64210794369379L50.6625,39.48751282195252L51.11484375,63.69577675064404L51.5671875,58.71895766754943L52.01953125,74.2909002204736L52.471875,56.39827516178289L52.92421875,49.88750484089057L53.3765625,50.57510253290336L53.82890625,67.47496318320432L54.28125,55.653304398059845L54.73359375,34.155114034811646L55.1859375,62.62917684018612L55.63828125,60.94193524618943L56.090625,50.35208678742251L56.54296875,65.62113380928834L56.9953125,65.33018764356771L57.44765625,35.09502576291561L57.900000000000006,51.46843298276265L58.352343749999996,65.200532267491L58.8046875,49.136248022317886L59.25703125,76.38805413246155L59.709375,53.956985389192894L60.161718750000006,30.633164982000977L60.614062499999996,58.39980484545231L61.06640625,66.0867854108413L61.51875,38.84133129318556L61.97109375,54.49077255030471L62.423437500000006,63.56926440199214L62.875781249999996,38.22879993915558L63.328125,64.35852327942848L63.78046875,30.93570151925087L64.2328125,56.21283654371895L64.68515625,50.11886536081633L65.1375,55.96258122722307L65.58984375,19.953963696956635L66.0421875,30.016530841588974L66.49453125,17.01946039001149L66.946875,55.5167182435592L67.39921875,56.11393741269906L67.8515625,36.74807502826056L68.30390625,48.12612736225128L68.75625000000001,10.523474752902985L69.20859375,49.59894708295664L69.6609375,49.024307891726494L70.11328125,45.0214976221323L70.565625,56.89435332020123L71.01796875,50.77013874053955L71.47031249999999,46.766559198498726L71.92265625,39.112965057293565L72.375,41.50820105274519L72.82734375,58.244118755062416L73.27968750000001,53.90090176463127L73.73203125,38.614146823684365L74.18437499999999,46.57508362332982L74.63671875,44.14916464686394L75.0890625,46.14153632521629L75.54140625,49.9037621319294L75.99375,65.71083830296993L76.44609375,22.932952930529922L76.8984375,54.167626837889344L77.35078125,48.63383252422014L77.80312500000001,50.96247883141041L78.25546875,47.189534495274216L78.70781249999999,62.40622703234352L79.16015625,64.30533358454704L79.6125,44.68054142097631L80.06484375,40.64876254896322L80.5171875,50.48328070839247L80.96953125,56.15911202132702L81.421875,46.175457576910645L81.87421875000001,40.84867814183235L82.32656250000001,50.517531648278236L82.77890624999999,37.791999717553466L83.23124999999999,56.49598741531372L83.68359375,31.34473466873169L84.1359375,63.44294253985086L84.58828125,42.91736164689064L85.040625,41.422526081403106L85.49296875,55.09366235633691L85.9453125,63.71266411244869L86.39765625000001,54.600734551747635L86.85000000000001,46.32624962925911L87.30234374999999,44.32906450331211L87.75468749999999,59.10705195367336L88.20703125,64.28654135763645L88.659375,66.84619651734828L89.11171875,53.10562058289847L89.5640625,30.564355393250793L90.01640625,57.52548641463119L90.46875,35.10286501546702L90.92109375000001,61.03576450546582L91.3734375,-19.51763998468715L91.82578124999999,55.20154365897177L92.278125,43.70769017934799L92.73046875,63.51143709321815L93.1828125,52.48864942789078L93.63515625,8.843676785627991L94.0875,38.38035393754643L94.53984375,43.56423185765743L94.9921875,45.18600470324358L95.44453125000001,56.90932116409142L95.896875,44.95374303559464L96.34921874999999,49.26734670003256L96.8015625,66.28081057469049L97.25390625,57.91257698337235L97.70625,48.632418528199196L98.15859375000001,49.06197293599446L98.6109375,43.57995432118574L99.06328125,36.46165658036867L99.515625,61.38530725240706L99.96796875,29.17976755897203L100.4203125,36.99796402454376L100.87265624999999,54.251418923338235L101.325,50.07070890565714L101.77734375,41.61908618112406L102.2296875,25.11664632956186L102.68203125000001,54.170813823739664L103.134375,65.61537525554496L103.58671875,69.85534123082955L104.0390625,67.97133439779282L104.49140625,65.6283283382654L104.94375,58.6140875170628L105.39609374999999,33.32218978802362L105.8484375,53.3352447450161L106.30078125,60.726048092047364L106.753125,64.47980457544327L107.20546875000001,60.23446834584075L107.6578125,38.70421031117439L108.11015624999999,46.24511702855429L108.5625,21.336309651533753L109.01484375,50.989227533340454L109.4671875,25.0567749540011L109.91953125,63.308561633030564L110.371875,65.13227215905984L110.82421875,20.71585112810135L111.2765625,69.85244730114937L111.72890625000001,54.903417617082596L112.18125,29.719078828891128L112.63359374999999,75.35758804778257L113.0859375,41.995135858654976L113.53828125,63.84069302678107L113.990625,65.97208322584629L114.44296875,35.41769525905451L114.8953125,36.62111576894918L115.34765625,60.56107944746812L115.80000000000001,61.904192507267L116.25234375000001,44.623776440819114L116.70468749999999,29.6446279088656L117.15703124999999,7.883097271124512L117.609375,58.21635900934537L118.06171875,19.764898508787155L118.5140625,39.29492363333702L118.96640625,47.8894771784544L119.41875,67.59085957209268L119.87109375,22.485617339611053L120.32343750000001,55.48388862609862L120.77578125000001,52.16874931255977L121.22812499999999,53.867302874724075L121.68046874999999,58.374799827734606L122.1328125,40.300135602553695L122.58515625,11.005610764026642L123.0375,-3.391755332549394L123.48984375,52.374174361427634L123.9421875,60.45034817357856L124.39453125,55.90728152791657L124.84687500000001,47.14803774158159L125.29921875,44.30725379784903L125.75156249999999,40.694384068250656L126.20390625,45.89610910912356L126.65625,58.90796424448489L127.10859375,63.9228073656559L127.5609375,52.980595494310066L128.01328125,52.60885374248028L128.465625,54.08480183780193L128.91796875,29.902444074551255L129.3703125,46.59271095196405L129.82265625,44.75241344670454L130.275,61.76000887155533L130.72734375000002,42.37459964056811L131.1796875,49.88496257861456L131.63203124999998,24.05497708916664L132.084375,47.89692080517611L132.53671875,64.30429323514302L132.9890625,33.91539408763251L133.44140625,29.250086386998504L133.89375,59.03899698456128L134.34609375,42.079667910933495L134.7984375,59.70632984240849L135.25078125000002,74.9788422534863L135.703125,59.19138619303703L135.929296875,50.62041634321214L136.15546875,61.20471871395905L136.381640625,57.91537566979724L136.6078125,55.813371678193406L136.833984375,65.70479401946068L137.06015625,30.538947423299163L137.286328125,59.785645494858414L137.51250000000002,40.32478895286721L137.738671875,44.822497829794884L137.96484375,51.47359809776148L138.191015625,30.456496069828688L138.4171875,41.092090596755355L138.64335937500002,32.998685081799835L138.86953125000002,35.55343155066171L139.095703125,52.31563639144102L139.321875,55.406521797180176L139.548046875,56.4373542020718L139.77421875000002,66.63087349633375L140.00039062500002,-20.399006416400283L140.2265625,40.23204400142035L140.45273437499998,47.685956994692475L140.67890624999998,64.28799931208292L140.905078125,29.067497740189225L141.13125,60.73046591381231L141.357421875,65.89106052120525L141.58359374999998,47.68128274877867L141.80976562499998,47.46426732838154L142.0359375,48.59440181652704L142.262109375,58.54588601986566L142.48828125,24.82594926158589L142.714453125,49.023135667045906L142.94062499999998,39.385463337103516L143.166796875,56.66312467555203L143.39296875,66.47076958417892L143.619140625,49.60007534921169L143.8453125,53.96314689517021L144.071484375,54.42221205929914L144.29765625,38.42638573547205L144.523828125,59.7387418548266L144.75,57.99889667828877L144.976171875,43.404259820779174L145.20234375,62.26502524316311L145.42851562500002,64.31170022984345L145.6546875,52.11056300997734L145.880859375,55.7556542654832L146.10703125,59.25018791357674L146.333203125,14.728669613599777L146.55937500000002,46.83277524014315L146.78554687500002,45.40612651904425L147.01171875,39.3202949712674L147.237890625,54.49890485902627L147.4640625,70.53737085560957L147.69023437500002,20.58283293247223L147.91640625000002,59.42400685449441L148.142578125,70.19033373892307L148.36874999999998,64.00070169568062L148.59492187499998,51.61934958398342L148.82109375,65.87385079761344L149.047265625,49.04819196959336L149.2734375,55.844955806930855L149.49960937499998,49.4457006851832L149.72578124999998,50.375538607438415L149.951953125,47.10912720859051L150.178125,34.51925830543041L150.404296875,55.95726958413918L150.63046875,57.05573935310045L150.85664062499998,57.6613692343235L151.0828125,36.14643071095148L151.308984375,52.08007051547368L151.53515625,34.285553336143494L151.761328125,50.16793761650722L151.9875,49.08845788737139L152.213671875,-9.28811873992285L152.43984375,55.49909824132919L152.666015625,51.350902805725724L152.8921875,58.2089886466662L153.118359375,64.16382408638793L153.34453125,48.63402301073074L153.570703125,56.23727742830911L153.796875,28.794354736804962L154.023046875,64.57219785948594L154.24921875,58.96833381553489L154.47539062500002,41.91135109961033L154.7015625,43.674765318632126L154.927734375,51.667711178461715L155.15390625,25.39093225200972L155.380078125,61.0979217191537L155.60625000000002,36.223196774721146L155.83242187500002,39.16114349166551L156.05859375,62.66155222058296L156.284765625,56.17925230662027L156.5109375,56.96232769886652L156.73710937500002,46.127015391985566L156.96328125000002,38.146876086791366L157.189453125,71.51147491236527L157.41562499999998,46.758954390883446L157.64179687499998,61.66152001917361L157.86796875,68.73651871085167L158.094140625,56.39605526129404L158.3203125,56.71623377998668L158.54648437499998,49.3760558863481L158.77265624999998,51.731201797723784L158.998828125,53.956172158320754L159.225,21.373088200887054L159.451171875,51.554195870955795L159.67734375,45.42215669155121L159.90351562499998,56.024503995974854L160.1296875,65.28022889296213L160.355859375,47.11220429837704L160.58203125,41.020833988984435L160.808203125,28.5809805393219L161.034375,57.818667133649186L161.260546875,50.72467840214571L161.48671875,54.79717010259628L161.712890625,57.891330411036805L161.9390625,54.766824136177675L162.165234375,59.775989294052124L162.39140625000002,68.14069155851998L162.617578125,52.75169664621353L162.84375,66.7320731182893L163.069921875,27.811796009540558L163.29609375,61.66823100546995L163.52226562500002,53.67264031370482L163.74843750000002,52.865351155400276L163.974609375,39.72507880628109L164.20078125,56.22345982988675L164.426953125,57.22718453903991L164.65312500000002,41.45107707877955L164.87929687500002,51.03413839141527L165.10546875,56.28823256989318L165.33164062499998,60.012624825040476L165.55781249999998,49.12303118904431L165.783984375,68.36786870161691L166.01015625,66.6049160460631L166.236328125,48.23984780907631L166.46249999999998,69.46454350153604L166.68867187499998,61.01760234932104L166.91484375,58.560516849160194L167.141015625,52.22442998488745L167.3671875,53.981821899612754L167.593359375,36.47866116464138L167.81953124999998,59.23837042351563L168.045703125,51.31317915022373L168.271875,53.92134243249893L168.498046875,49.09975520273049L168.72421875,57.626773953437805L168.950390625,60.238900820414216L169.1765625,64.11020213365555L169.402734375,48.53680162628493L169.62890625,45.64932650824389L169.855078125,33.77443406979242L170.08125,68.9054875721534L170.307421875,56.692129909992204L170.53359375,59.75558525820573L170.759765625,24.792804608742387L170.9859375,47.13110642135143L171.212109375,67.86606129507221L171.43828125000002,59.301714514692605L171.664453125,42.272235120336205L171.890625,58.40032502015431L172.116796875,50.6206581145525L172.34296875,53.07406575977802L172.56914062500002,53.12976841131845L172.79531250000002,44.17564227183661L173.021484375,53.45914889375369L173.24765625,46.440065319339425L173.473828125,25.675548404455185L173.70000000000002,57.43136409918465L173.92617187500002,56.045398900906235L174.15234375,51.81390957534313L174.37851562499998,64.4867500066757L174.60468749999998,55.184641644358635L174.830859375,51.75433125595252L175.05703125,58.862687066197395L175.283203125,45.84230399628481L175.50937499999998,64.91295624772707L175.73554687499998,63.79842700064181L175.96171875,59.72949593265851L176.187890625,42.81257208685079L176.4140625,55.87133818864821L176.640234375,48.02775573233765L176.86640624999998,44.77459047238034L177.092578125,55.66353205839792L177.31875,49.13741292059423L177.544921875,50.414244001110404L177.77109375,70.79823480546473L177.997265625,59.460829362273216L178.2234375,59.52008531987667L178.449609375,16.149904121955245L178.67578125,55.50600704054037L178.901953125,62.5868082443873L179.128125,59.52835683027902L179.35429687500002,53.76187591751416L179.58046875,44.51559475560984L179.806640625,48.66852304836115L180.0328125,50.57586447894573L180.258984375,67.53624855478604L180.48515625000002,45.615852167209L180.71132812500002,47.214744652311026L180.9375,54.215285097559274L181.163671875,56.45660066604613L181.38984375,55.5409906208515L181.61601562500002,69.99827205141385L181.84218750000002,43.72958880166212L182.068359375,49.899754588802665L182.29453124999998,53.854635521769524L182.52070312499998,58.2270702123642L182.746875,45.45793152352175L182.973046875,22.776783297459275L183.19921875,39.099044889211655L183.42539062499998,37.5648445536693L183.65156249999998,71.01118407150108L183.877734375,67.61597448587418L184.10390625,55.43734397987522L184.330078125,31.209840913613647L184.55625,31.783307880163193L184.78242187499998,48.51220688720545L185.00859375,61.12290475765863L185.234765625,61.1006251623233L185.4609375,52.03219246367614L185.687109375,49.94212318460147L185.91328125,55.27689572672048L186.139453125,59.38641507426895L186.365625,56.19946585595608L186.591796875,58.589243680238724L186.81796875,58.51627269387245L187.044140625,51.50951945781709L187.2703125,57.95690905551115L187.496484375,53.54505098362765L187.72265625,62.70017702380814L187.948828125,57.97947438061237L188.175,49.38953647017479L188.40117187500002,50.44418701529503L188.62734375,49.11430544157824L188.853515625,73.89868116875489L189.0796875,42.922482803463936L189.305859375,19.936365673939378L189.53203125000002,39.98866817851862L189.75820312500002,42.34062710404396L189.984375,20.108653396368027L190.210546875,49.81575003763041L190.43671875,44.83778070906797L190.66289062500002,42.78385990858078L190.88906250000002,46.81040772795677L191.115234375,16.88859615723291L191.34140624999998,56.04630004862943L191.56757812499998,42.47014327843985L191.79375,63.66877895096937L192.019921875,57.117471635341644L192.24609375,49.49436998864016L192.47226562499998,49.00586000581582L192.69843749999998,40.81587782998881L192.924609375,61.891964738567665L193.15078125,37.50936902066073L193.376953125,61.15879681209722L193.603125,60.32949913541475L193.82929687499998,45.348555634419114L194.05546875,35.211456979314505L194.281640625,59.63718323906262L194.5078125,47.321505015095084L194.733984375,55.86161605020362L194.96015625,54.88608334461847L195.186328125,42.14874125023684L195.4125,16.211387306451797L195.638671875,55.809107710917786L195.86484375,55.207895651459694L196.091015625,58.35297446946301L196.31718750000002,66.60558274885018L196.543359375,35.75584544738135L196.76953125,60.82894743978977L196.995703125,54.03498961528142L197.221875,41.01906832555929L197.44804687500002,51.918105696638435L197.67421875000002,43.4945577532053L197.900390625,62.70572311182816L198.1265625,55.880041956901536L198.352734375,60.664447685082735L198.57890625000002,52.52914979060492L198.80507812500002,31.382729401191085L199.03125,53.40008342266084L199.25742187499998,49.698344409465804L199.48359374999998,40.02667756378651L199.709765625,41.438959206144006L199.9359375,48.87166225910187L200.162109375,58.40825218955675L200.38828124999998,64.53245944281419L200.61445312499998,33.16106750567755L200.840625,45.79263097544512L201.066796875,47.07904499272507L201.29296875,64.49709488948186L201.519140625,47.352752129236876L201.74531249999998,63.893714214364664L201.971484375,26.33246311545372L202.19765625,42.66383142769337L202.423828125,29.355527997016907L202.65,67.77325040598708L202.876171875,62.93129577239354L203.10234375,43.420942043264716L203.328515625,61.56377846002579L203.5546875,38.26302889982858L203.780859375,58.26859627167383L204.00703125,53.086242243647575L204.233203125,30.430677821238845L204.459375,35.11035992701849L204.685546875,54.37791661918162L204.91171875,34.1204015314579L205.137890625,45.97416462004185L205.36406250000002,61.776559218764305L205.590234375,38.94851658741632L205.81640625,57.25555970271428L206.042578125,47.254754145940154L206.26875,49.14513495067756L206.49492187500002,66.76662444074948L206.72109375000002,63.561666920781136L206.947265625,-0.5379303892453606L207.1734375,50.6601034750541L207.399609375,68.05336081981659L207.62578125000002,55.62531020740667L207.85195312500002,60.591242253780365L208.078125,52.00411035617192L208.30429687499998,39.72809728483358L208.53046874999998,30.01179798444113L208.756640625,44.63859043021998L208.9828125,32.62398346265158L209.208984375,59.63970352212587L209.43515624999998,62.080539057652146L209.66132812499998,64.42063653469086L209.8875,45.97772525250912L210.113671875,34.20097732543945L210.33984375,-10.804098308086395L210.566015625,28.532890021800995L210.79218749999998,60.42408301432927L211.018359375,50.5675563365221L211.24453125,42.05829678972563L211.470703125,65.86155709127583L211.696875,41.999839410185814L211.923046875,51.34363501270613L212.14921875,41.28688503305119L212.375390625,60.14431694149971L212.6015625,68.43604089319706L212.827734375,6.466375827789307L213.05390625,59.06493978202343L213.28007812500002,49.030769780278206L213.50625,39.678878501057625L213.732421875,64.10056058565773L213.95859375,47.342729608217894L214.184765625,41.60600122312704L214.41093750000002,41.808239286144584L214.63710937500002,62.8846485565106L214.86328125,36.88515937825045L215.089453125,63.017871891458825L215.315625,66.73916507760683L215.54179687500002,8.750440965096146L215.76796875000002,46.35312288006148L215.994140625,34.7469629496336L216.22031249999998,39.49223102629185L216.44648437499998,36.13108189404011L216.67265625,55.28811245163281L216.898828125,-13.289038797219575L217.125,45.186795954902976L217.35117187499998,31.721736778815597L217.57734374999998,63.55353461205958L217.803515625,63.37917351722717L218.0296875,71.22790643572807L218.255859375,52.4669486184915L218.48203125,37.30580487847328L218.70820312499998,45.73058365782103L218.934375,66.2861368705829L219.160546875,61.07140013575554L219.38671875,57.96092392504215L219.612890625,49.95022618770601L219.8390625,45.857557569940894L220.065234375,56.962965096036584L220.29140625,30.410779307285935L220.517578125,54.68500285347302L220.74375,36.582578882575035L220.969921875,46.428965816895186L221.19609375,32.92426346739134L221.422265625,43.71324359377226L221.6484375,43.75720934569836L221.874609375,55.78396349151929L222.10078125,15.868277142445237L222.32695312500002,67.00924564401308L222.553125,35.73761735359827L222.779296875,64.37867089112599L223.00546875,50.78989072640738L223.231640625,44.4209815710783L223.45781250000002,49.63402590652308L223.68398437500002,40.79772300024828L223.91015625,58.746585537989915L224.136328125,70.51154528061547L224.3625,56.08504940072693L224.58867187500002,27.3908354739348L224.81484375000002,24.80712040265402L225.041015625,65.50786027312277L225.26718749999998,53.2478627214829L225.49335937499998,45.84532980124155L225.71953125,41.87090202172598L225.945703125,56.21444102625051L226.171875,50.4359594633182L226.39804687499998,40.471859191854804L226.62421874999998,40.13665421803793L226.850390625,49.63529337445895L227.0765625,42.749308586120605L227.302734375,48.700217073162406L227.52890625,71.08444078763324L227.75507812499998,55.71524914602438L227.98125,36.583260238170624L228.207421875,53.28918364147346L228.43359375,53.83176248768966L228.659765625,45.72487638890743L228.8859375,37.35846707224846L229.112109375,63.93976799150306L229.33828125,65.38135525087515L229.564453125,29.988573282957077L229.790625,33.74886491894722L230.016796875,64.99770076572894L230.24296875000002,54.726206550995485L230.469140625,72.16358350217342L230.6953125,61.65591531991957L230.921484375,65.31526375810303L231.14765625,65.43091837565102L231.37382812500002,69.22448653976122L231.60000000000002,64.99958365162212L231.826171875,27.50184515118599L232.05234375,59.56832969188689L232.278515625,48.06498119235039L232.50468750000002,59.23182061811286L232.73085937500002,54.39892874658108L232.95703125,49.832358996073395L233.18320312499998,62.46357812484105L233.40937499999998,61.66519787410894L233.635546875,65.4063969006141L233.86171875,50.583564529816314L234.087890625,17.075683216253907L234.31406249999998,55.85037734607853L234.54023437499998,64.25477406879266L234.76640625,75.22835760315257L234.992578125,48.83624642093977L235.21875,55.85724951326847L235.444921875,55.30943228801091L235.67109374999998,64.78080256779987L235.897265625,75.610920454065L236.1234375,66.22449250519276L236.349609375,34.522401332855225L236.57578125,65.93637433151403L236.801953125,62.54703319569427L237.028125,53.026480764150634L237.254296875,53.936163748304054L237.48046875,53.75235159198442L237.706640625,61.1773545940717L237.9328125,71.51492564876874L238.158984375,66.1278425802787L238.38515625,58.90728288888931L238.611328125,64.07298400004704L238.8375,52.85304279625416L239.063671875,61.82414421439171L239.28984375000002,46.14221035440764L239.516015625,50.63103962937991L239.7421875,38.522793889045715L239.968359375,63.454042042295114L240.19453125,74.82558852930863L240.42070312500002,58.921833127737045L240.64687500000002,51.27927255133788L240.873046875,48.43292054037252L241.09921875,65.81057264407475L241.325390625,64.80188063283761L241.55156250000002,51.53705941140652L241.77773437500002,49.510143736998245L242.00390625,68.7967417538166L242.23007812499998,65.62461385130882L242.45624999999998,64.1989468683799L242.682421875,63.39140861233075L242.90859375,46.798868641257286L243.134765625,26.044989665349334L243.36093749999998,64.01271699865659L243.58710937499998,67.37215175231296L243.81328125,70.28600192566711L244.039453125,67.94994862377644L244.265625,59.923052206635475L244.491796875,62.722324743866906L244.71796874999998,32.36961070696515L244.944140625,71.07109940548737L245.1703125,61.03677554925282L245.396484375,49.34139466782412L245.62265625,58.46580842137337L245.848828125,42.38514233628911L246.075,57.62981441120306L246.301171875,31.81806434194246L246.52734375,57.05058156450589L246.753515625,72.66987466812132L246.9796875,58.359260524312646L247.20585937500002,68.95297732452549L247.43203125,60.695489659905434L247.658203125,40.468239948153496L247.884375,53.65230954190096L248.110546875,24.402820110321045L248.33671875000002,59.38741146524747L248.56289062500002,39.645601972937584L248.7890625,69.38648799061775L249.015234375,68.59744890530904L249.24140625,61.796919296185166L249.46757812500002,66.50012648602325L249.69375000000002,61.602630381782845L249.919921875,71.89760572214921L250.14609374999998,64.69200654824574L250.37226562499998,53.722423230608314L250.5984375,53.123790065447494L250.824609375,68.34070239464441L251.05078125,58.04547795653343L251.27695312499998,55.398455426096916L251.50312499999998,71.52023729185262L251.729296875,52.14260870218277L251.95546875,66.3367403447628L252.181640625,63.6338320026795L252.4078125,56.28010758757591L252.63398437499998,59.47682290275891L252.86015625,67.21162290871142L253.086328125,61.157346184055L253.3125,61.50369461874166L253.538671875,63.86351477603115L253.76484375,62.66553045809269L253.991015625,59.57072542607784" style="fill: none;" fill="none"></path></g></g></g></g></g></g><g transform="translate(58, 177)" clip-path="url(#clip_1)"><clipPath id="clip_1"><rect width="271" height="23"></rect></clipPath><g><g><line x1="0" y1="0" x2="0" y2="5" style="visibility: inherit;" fill="rgb(0, 0, 0)" stroke="rgb(204, 204, 204)" stroke-width="1px"></line><line x1="22.6171875" y1="0" x2="22.6171875" y2="5" style="visibility: inherit;" fill="rgb(0, 0, 0)" stroke="rgb(204, 204, 204)" stroke-width="1px"></line><line x1="45.234375" y1="0" x2="45.234375" y2="5" style="visibility: inherit;" fill="rgb(0, 0, 0)" stroke="rgb(204, 204, 204)" stroke-width="1px"></line><line x1="67.8515625" y1="0" x2="67.8515625" y2="5" style="visibility: inherit;" fill="rgb(0, 0, 0)" stroke="rgb(204, 204, 204)" stroke-width="1px"></line><line x1="90.46875" y1="0" x2="90.46875" y2="5" style="visibility: inherit;" fill="rgb(0, 0, 0)" stroke="rgb(204, 204, 204)" stroke-width="1px"></line><line x1="113.0859375" y1="0" x2="113.0859375" y2="5" style="visibility: inherit;" fill="rgb(0, 0, 0)" stroke="rgb(204, 204, 204)" stroke-width="1px"></line><line x1="135.703125" y1="0" x2="135.703125" y2="5" style="visibility: inherit;" fill="rgb(0, 0, 0)" stroke="rgb(204, 204, 204)" stroke-width="1px"></line><line x1="158.3203125" y1="0" x2="158.3203125" y2="5" style="visibility: inherit;" fill="rgb(0, 0, 0)" stroke="rgb(204, 204, 204)" stroke-width="1px"></line><line x1="180.9375" y1="0" x2="180.9375" y2="5" style="visibility: inherit;" fill="rgb(0, 0, 0)" stroke="rgb(204, 204, 204)" stroke-width="1px"></line><line x1="203.5546875" y1="0" x2="203.5546875" y2="5" style="visibility: inherit;" fill="rgb(0, 0, 0)" stroke="rgb(204, 204, 204)" stroke-width="1px"></line><line x1="226.171875" y1="0" x2="226.171875" y2="5" style="visibility: inherit;" fill="rgb(0, 0, 0)" stroke="rgb(204, 204, 204)" stroke-width="1px"></line><line x1="248.7890625" y1="0" x2="248.7890625" y2="5" style="visibility: inherit;" fill="rgb(0, 0, 0)" stroke="rgb(204, 204, 204)" stroke-width="1px"></line><line x1="271.40625" y1="0" x2="271.40625" y2="5" style="visibility: inherit;" fill="rgb(0, 0, 0)" stroke="rgb(204, 204, 204)" stroke-width="1px"></line></g><g transform="translate(0, 8)"><text x="0" y="0" dx="0em" dy="0.95em" style="text-anchor: middle; visibility: hidden; font-family: &quot;Helvetica Neue&quot;, sans-serif; font-size: 12px; font-weight: 200;" fill="rgb(50, 49, 63)" stroke="none" stroke-width="1px">-100</text><text x="22.6171875" y="0" dx="0em" dy="0.95em" style="text-anchor: middle; visibility: inherit; font-family: &quot;Helvetica Neue&quot;, sans-serif; font-size: 12px; font-weight: 200;" fill="rgb(50, 49, 63)" stroke="none" stroke-width="1px">0</text><text x="45.234375" y="0" dx="0em" dy="0.95em" style="text-anchor: middle; visibility: hidden; font-family: &quot;Helvetica Neue&quot;, sans-serif; font-size: 12px; font-weight: 200;" fill="rgb(50, 49, 63)" stroke="none" stroke-width="1px">100</text><text x="67.8515625" y="0" dx="0em" dy="0.95em" style="text-anchor: middle; visibility: inherit; font-family: &quot;Helvetica Neue&quot;, sans-serif; font-size: 12px; font-weight: 200;" fill="rgb(50, 49, 63)" stroke="none" stroke-width="1px">200</text><text x="90.46875" y="0" dx="0em" dy="0.95em" style="text-anchor: middle; visibility: hidden; font-family: &quot;Helvetica Neue&quot;, sans-serif; font-size: 12px; font-weight: 200;" fill="rgb(50, 49, 63)" stroke="none" stroke-width="1px">300</text><text x="113.0859375" y="0" dx="0em" dy="0.95em" style="text-anchor: middle; visibility: inherit; font-family: &quot;Helvetica Neue&quot;, sans-serif; font-size: 12px; font-weight: 200;" fill="rgb(50, 49, 63)" stroke="none" stroke-width="1px">400</text><text x="135.703125" y="0" dx="0em" dy="0.95em" style="text-anchor: middle; visibility: hidden; font-family: &quot;Helvetica Neue&quot;, sans-serif; font-size: 12px; font-weight: 200;" fill="rgb(50, 49, 63)" stroke="none" stroke-width="1px">500</text><text x="158.3203125" y="0" dx="0em" dy="0.95em" style="text-anchor: middle; visibility: inherit; font-family: &quot;Helvetica Neue&quot;, sans-serif; font-size: 12px; font-weight: 200;" fill="rgb(50, 49, 63)" stroke="none" stroke-width="1px">600</text><text x="180.9375" y="0" dx="0em" dy="0.95em" style="text-anchor: middle; visibility: hidden; font-family: &quot;Helvetica Neue&quot;, sans-serif; font-size: 12px; font-weight: 200;" fill="rgb(50, 49, 63)" stroke="none" stroke-width="1px">700</text><text x="203.5546875" y="0" dx="0em" dy="0.95em" style="text-anchor: middle; visibility: inherit; font-family: &quot;Helvetica Neue&quot;, sans-serif; font-size: 12px; font-weight: 200;" fill="rgb(50, 49, 63)" stroke="none" stroke-width="1px">800</text><text x="226.171875" y="0" dx="0em" dy="0.95em" style="text-anchor: middle; visibility: hidden; font-family: &quot;Helvetica Neue&quot;, sans-serif; font-size: 12px; font-weight: 200;" fill="rgb(50, 49, 63)" stroke="none" stroke-width="1px">900</text><text x="248.7890625" y="0" dx="0em" dy="0.95em" style="text-anchor: middle; visibility: inherit; font-family: &quot;Helvetica Neue&quot;, sans-serif; font-size: 12px; font-weight: 200;" fill="rgb(50, 49, 63)" stroke="none" stroke-width="1px">1k</text><text x="271.40625" y="0" dx="0em" dy="0.95em" style="text-anchor: middle; visibility: hidden; font-family: &quot;Helvetica Neue&quot;, sans-serif; font-size: 12px; font-weight: 200;" fill="rgb(50, 49, 63)" stroke="none" stroke-width="1px">1.1k</text></g><line x1="0" y1="0" x2="271.40625" y2="0" fill="rgb(0, 0, 0)" stroke="rgb(204, 204, 204)" stroke-width="1px"></line></g></g></g></g></svg>