<svg viewBox="0 0 330 200" xmlns="http://www.w3.org/2000/svg"><g><g><g><g><g><line x1="48.875" y1="177" x2="43.875" y2="177" style="visibility: inherit;" fill="rgb(0, 0, 0)" stroke="rgb(204, 204, 204)" stroke-width="1px"></line><line x1="48.875" y1="164.35714285714278" x2="43.875" y2="164.35714285714278" style="visibility: inherit;" fill="rgb(0, 0, 0)" stroke="rgb(204, 204, 204)" stroke-width="1px"></line><line x1="48.875" y1="151.71428571428567" x2="43.875" y2="151.71428571428567" style="visibility: inherit;" fill="rgb(0, 0, 0)" stroke="rgb(204, 204, 204)" stroke-width="1px"></line><line x1="48.875" y1="139.07142857142858" x2="43.875" y2="139.07142857142858" style="visibility: inherit;" fill="rgb(0, 0, 0)" stroke="rgb(204, 204, 204)" stroke-width="1px"></line><line x1="48.875" y1="126.42857142857136" x2="43.875" y2="126.42857142857136" style="visibility: inherit;" fill="rgb(0, 0, 0)" stroke="rgb(204, 204, 204)" stroke-width="1px"></line><line x1="48.875" y1="113.78571428571426" x2="43.875" y2="113.78571428571426" style="visibility: inherit;" fill="rgb(0, 0, 0)" stroke="rgb(204, 204, 204)" stroke-width="1px"></line><line x1="48.875" y1="101.14285714285705" x2="43.875" y2="101.14285714285705" style="visibility: inherit;" fill="rgb(0, 0, 0)" stroke="rgb(204, 204, 204)" stroke-width="1px"></line><line x1="48.875" y1="88.49999999999994" x2="43.875" y2="88.49999999999994" style="visibility: inherit;" fill="rgb(0, 0, 0)" stroke="rgb(204, 204, 204)" stroke-width="1px"></line><line x1="48.875" y1="75.85714285714285" x2="43.875" y2="75.85714285714285" style="visibility: inherit;" fill="rgb(0, 0, 0)" stroke="rgb(204, 204, 204)" stroke-width="1px"></line><line x1="48.875" y1="63.21428571428562" x2="43.875" y2="63.21428571428562" style="visibility: inherit;" fill="rgb(0, 0, 0)" stroke="rgb(204, 204, 204)" stroke-width="1px"></line><line x1="48.875" y1="50.57142857142853" x2="43.875" y2="50.57142857142853" style="visibility: inherit;" fill="rgb(0, 0, 0)" stroke="rgb(204, 204, 204)" stroke-width="1px"></line><line x1="48.875" y1="37.9285714285713" x2="43.875" y2="37.9285714285713" style="visibility: inherit;" fill="rgb(0, 0, 0)" stroke="rgb(204, 204, 204)" stroke-width="1px"></line><line x1="48.875" y1="25.285714285714192" x2="43.875" y2="25.285714285714192" style="visibility: inherit;" fill="rgb(0, 0, 0)" stroke="rgb(204, 204, 204)" stroke-width="1px"></line><line x1="48.875" y1="12.64285714285711" x2="43.875" y2="12.64285714285711" style="visibility: inherit;" fill="rgb(0, 0, 0)" stroke="rgb(204, 204, 204)" stroke-width="1px"></line><line x1="48.875" y1="0" x2="43.875" y2="0" style="visibility: inherit;" fill="rgb(0, 0, 0)" stroke="rgb(204, 204, 204)" stroke-width="1px"></line></g><g transform="translate(38.875, 0)"><text x="0" y="177" dx="0em" dy="0.3em" style="text-anchor: end; visibility: hidden; font-family: &quot;Helvetica Neue&quot;, sans-serif; font-size: 12px; font-weight: 200;" fill="rgb(50, 49, 63)" stroke="none" stroke-width="1px">3.4</text><text x="0" y="164.35714285714278" dx="0em" dy="0.3em" style="text-anchor: end; visibility: inherit; font-family: &quot;Helvetica Neue&quot;, sans-serif; font-size: 12px; font-weight: 200;" fill="rgb(50, 49, 63)" stroke="none" stroke-width="1px">3.45</text><text x="0" y="151.71428571428567" dx="0em" dy="0.3em" style="text-anchor: end; visibility: hidden; font-family: &quot;Helvetica Neue&quot;, sans-serif; font-size: 12px; font-weight: 200;" fill="rgb(50, 49, 63)" stroke="none" stroke-width="1px">3.5</text><text x="0" y="139.07142857142858" dx="0em" dy="0.3em" style="text-anchor: end; visibility: inherit; font-family: &quot;Helvetica Neue&quot;, sans-serif; font-size: 12px; font-weight: 200;" fill="rgb(50, 49, 63)" stroke="none" stroke-width="1px">3.55</text><text x="0" y="126.42857142857136" dx="0em" dy="0.3em" style="text-anchor: end; visibility: hidden; font-family: &quot;Helvetica Neue&quot;, sans-serif; font-size: 12px; font-weight: 200;" fill="rgb(50, 49, 63)" stroke="none" stroke-width="1px">3.6</text><text x="0" y="113.78571428571426" dx="0em" dy="0.3em" style="text-anchor: end; visibility: inherit; font-family: &quot;Helvetica Neue&quot;, sans-serif; font-size: 12px; font-weight: 200;" fill="rgb(50, 49, 63)" stroke="none" stroke-width="1px">3.65</text><text x="0" y="101.14285714285705" dx="0em" dy="0.3em" style="text-anchor: end; visibility: hidden; font-family: &quot;Helvetica Neue&quot;, sans-serif; font-size: 12px; font-weight: 200;" fill="rgb(50, 49, 63)" stroke="none" stroke-width="1px">3.7</text><text x="0" y="88.49999999999994" dx="0em" dy="0.3em" style="text-anchor: end; visibility: inherit; font-family: &quot;Helvetica Neue&quot;, sans-serif; font-size: 12px; font-weight: 200;" fill="rgb(50, 49, 63)" stroke="none" stroke-width="1px">3.75</text><text x="0" y="75.85714285714285" dx="0em" dy="0.3em" style="text-anchor: end; visibility: hidden; font-family: &quot;Helvetica Neue&quot;, sans-serif; font-size: 12px; font-weight: 200;" fill="rgb(50, 49, 63)" stroke="none" stroke-width="1px">3.8</text><text x="0" y="63.21428571428562" dx="0em" dy="0.3em" style="text-anchor: end; visibility: inherit; font-family: &quot;Helvetica Neue&quot;, sans-serif; font-size: 12px; font-weight: 200;" fill="rgb(50, 49, 63)" stroke="none" stroke-width="1px">3.85</text><text x="0" y="50.57142857142853" dx="0em" dy="0.3em" style="text-anchor: end; visibility: hidden; font-family: &quot;Helvetica Neue&quot;, sans-serif; font-size: 12px; font-weight: 200;" fill="rgb(50, 49, 63)" stroke="none" stroke-width="1px">3.9</text><text x="0" y="37.9285714285713" dx="0em" dy="0.3em" style="text-anchor: end; visibility: inherit; font-family: &quot;Helvetica Neue&quot;, sans-serif; font-size: 12px; font-weight: 200;" fill="rgb(50, 49, 63)" stroke="none" stroke-width="1px">3.95</text><text x="0" y="25.285714285714192" dx="0em" dy="0.3em" style="text-anchor: end; visibility: hidden; font-family: &quot;Helvetica Neue&quot;, sans-serif; font-size: 12px; font-weight: 200;" fill="rgb(50, 49, 63)" stroke="none" stroke-width="1px">4</text><text x="0" y="12.64285714285711" dx="0em" dy="0.3em" style="text-anchor: end; visibility: inherit; font-family: &quot;Helvetica Neue&quot;, sans-serif; font-size: 12px; font-weight: 200;" fill="rgb(50, 49, 63)" stroke="none" stroke-width="1px">4.05</text><text x="0" y="0" dx="0em" dy="0.3em" style="text-anchor: end; visibility: hidden; font-family: &quot;Helvetica Neue&quot;, sans-serif; font-size: 12px; font-weight: 200;" fill="rgb(50, 49, 63)" stroke="none" stroke-width="1px">4.1</text></g><line x1="48.875" y1="0" x2="48.875" y2="177" fill="rgb(0, 0, 0)" stroke="rgb(204, 204, 204)" stroke-width="1px"></line></g></g><g transform="translate(48, 0)" clip-path="url(#clip_0)"><clipPath id="clip_0"><rect width="281" height="177"></rect></clipPath><g><g><g><line x1="0" y1="0" x2="0" y2="177" fill="rgb(0, 0, 0)" stroke="rgb(60, 60, 60)" stroke-width="1px" opacity="0.25"></line><line x1="23.427083333333332" y1="0" x2="23.427083333333332" y2="177" fill="rgb(0, 0, 0)" stroke="rgb(60, 60, 60)" stroke-width="1px" opacity="0.25"></line><line x1="46.854166666666664" y1="0" x2="46.854166666666664" y2="177" fill="rgb(0, 0, 0)" stroke="rgb(60, 60, 60)" stroke-width="1px" opacity="0.25"></line><line x1="70.28125" y1="0" x2="70.28125" y2="177" fill="rgb(0, 0, 0)" stroke="rgb(60, 60, 60)" stroke-width="1px" opacity="0.25"></line><line x1="93.70833333333333" y1="0" x2="93.70833333333333" y2="177" fill="rgb(0, 0, 0)" stroke="rgb(60, 60, 60)" stroke-width="1px" opacity="0.25"></line><line x1="117.13541666666667" y1="0" x2="117.13541666666667" y2="177" fill="rgb(0, 0, 0)" stroke="rgb(60, 60, 60)" stroke-width="1px" opacity="0.25"></line><line x1="140.5625" y1="0" x2="140.5625" y2="177" fill="rgb(0, 0, 0)" stroke="rgb(60, 60, 60)" stroke-width="1px" opacity="0.25"></line><line x1="163.98958333333334" y1="0" x2="163.98958333333334" y2="177" fill="rgb(0, 0, 0)" stroke="rgb(60, 60, 60)" stroke-width="1px" opacity="0.25"></line><line x1="187.41666666666666" y1="0" x2="187.41666666666666" y2="177" fill="rgb(0, 0, 0)" stroke="rgb(60, 60, 60)" stroke-width="1px" opacity="0.25"></line><line x1="210.84375" y1="0" x2="210.84375" y2="177" fill="rgb(0, 0, 0)" stroke="rgb(60, 60, 60)" stroke-width="1px" opacity="0.25"></line><line x1="234.27083333333334" y1="0" x2="234.27083333333334" y2="177" fill="rgb(0, 0, 0)" stroke="rgb(60, 60, 60)" stroke-width="1px" opacity="0.25"></line><line x1="257.69791666666663" y1="0" x2="257.69791666666663" y2="177" fill="rgb(0, 0, 0)" stroke="rgb(60, 60, 60)" stroke-width="1px" opacity="0.25"></line><line x1="281.125" y1="0" x2="281.125" y2="177" fill="rgb(0, 0, 0)" stroke="rgb(60, 60, 60)" stroke-width="1px" opacity="0.25"></line></g><g><line x1="0" y1="177" x2="281.125" y2="177" fill="rgb(0, 0, 0)" stroke="rgb(60, 60, 60)" stroke-width="1px" opacity="0.25"></line><line x1="0" y1="164.35714285714278" x2="281.125" y2="164.35714285714278" fill="rgb(0, 0, 0)" stroke="rgb(60, 60, 60)" stroke-width="1px" opacity="0.25"></line><line x1="0" y1="151.71428571428567" x2="281.125" y2="151.71428571428567" fill="rgb(0, 0, 0)" stroke="rgb(60, 60, 60)" stroke-width="1px" opacity="0.25"></line><line x1="0" y1="139.07142857142858" x2="281.125" y2="139.07142857142858" fill="rgb(0, 0, 0)" stroke="rgb(60, 60, 60)" stroke-width="1px" opacity="0.25"></line><line x1="0" y1="126.42857142857136" x2="281.125" y2="126.42857142857136" fill="rgb(0, 0, 0)" stroke="rgb(60, 60, 60)" stroke-width="1px" opacity="0.25"></line><line x1="0" y1="113.78571428571426" x2="281.125" y2="113.78571428571426" fill="rgb(0, 0, 0)" stroke="rgb(60, 60, 60)" stroke-width="1px" opacity="0.25"></line><line x1="0" y1="101.14285714285705" x2="281.125" y2="101.14285714285705" fill="rgb(0, 0, 0)" stroke="rgb(60, 60, 60)" stroke-width="1px" opacity="0.25"></line><line x1="0" y1="88.49999999999994" x2="281.125" y2="88.49999999999994" fill="rgb(0, 0, 0)" stroke="rgb(60, 60, 60)" stroke-width="1px" opacity="0.25"></line><line x1="0" y1="75.85714285714285" x2="281.125" y2="75.85714285714285" fill="rgb(0, 0, 0)" stroke="rgb(60, 60, 60)" stroke-width="1px" opacity="0.25"></line><line x1="0" y1="63.21428571428562" x2="281.125" y2="63.21428571428562" fill="rgb(0, 0, 0)" stroke="rgb(60, 60, 60)" stroke-width="1px" opacity="0.25"></line><line x1="0" y1="50.57142857142853" x2="281.125" y2="50.57142857142853" fill="rgb(0, 0, 0)" stroke="rgb(60, 60, 60)" stroke-width="1px" opacity="0.25"></line><line x1="0" y1="37.9285714285713" x2="281.125" y2="37.9285714285713" fill="rgb(0, 0, 0)" stroke="rgb(60, 60, 60)" stroke-width="1px" opacity="0.25"></line><line x1="0" y1="25.285714285714192" x2="281.125" y2="25.285714285714192" fill="rgb(0, 0, 0)" stroke="rgb(60, 60, 60)" stroke-width="1px" opacity="0.25"></line><line x1="0" y1="12.64285714285711" x2="281.125" y2="12.64285714285711" fill="rgb(0, 0, 0)" stroke="rgb(60, 60, 60)" stroke-width="1px" opacity="0.25"></line><line x1="0" y1="0" x2="281.125" y2="0" fill="rgb(0, 0, 0)" stroke="rgb(60, 60, 60)" stroke-width="1px" opacity="0.25"></line></g></g></g><g><g><line x1="0" y1="1036.714285714286" x2="281.125" y2="1036.714285714286" fill="rgb(0, 0, 0)" stroke="rgb(153, 153, 153)" stroke-width="1.5px"></line></g></g><g><g><line x1="23.427083333333332" y1="0" x2="23.427083333333332" y2="177" fill="rgb(0, 0, 0)" stroke="rgb(153, 153, 153)" stroke-width="1.5px"></line></g></g><g><g><g><g><g><path stroke="rgb(0, 119, 187)" stroke-width="2px" d="M32.329375,185.7874811717442L32.56364583333333,168.61783259255543L32.797916666666666,164.46932274954656L33.26645833333333,115.60240398134499L33.500729166666666,114.55330978121071L33.735,86.51303897585183L33.96927083333333,77.60851887294218L34.203541666666666,88.67597436904902L34.4378125,52.3870934077671L34.67208333333333,48.180528300149035L34.90635416666667,15.011560167585031L35.140625,29.3654982703072L35.37489583333333,22.708615166800286L35.60916666666667,26.390452316829055L35.8434375,30.368292944771838L36.077708333333334,75.40651825496123L36.31197916666667,15.430064473833284L36.54625,24.966199329921096L36.780520833333334,56.82328728267119L37.01479166666666,18.794858387538284L37.2490625,34.8779149736676L37.483333333333334,30.058423723493235L37.71760416666666,25.54892226627888L37.951875,46.8351894787379L38.186145833333335,30.49537549700048L38.42041666666666,33.010500771658684L38.6546875,-2.6240979603359733L38.888958333333335,31.421486582074778L39.12322916666667,17.57756669180725L39.3575,11.959408623831536L39.591770833333335,30.236869812011633L39.82604166666667,33.79500041689184L40.060312499999995,22.715849467686155L40.294583333333335,20.972624097551545L40.52885416666667,22.191242081778313L40.763124999999995,15.322876249040803L40.997395833333336,8.613665035792678L41.23166666666667,30.81905017580297L41.465937499999995,19.505025591169016L41.700208333333336,30.86595255987976L41.93447916666667,31.28319086347301L42.168749999999996,17.888641629900178L42.403020833333336,49.32891327994204L42.63729166666667,39.74135460172374L42.871562499999996,16.31578404562805L43.10583333333333,14.707960673740843L43.34010416666667,32.65167944771895L43.574374999999996,9.685064996991741L43.80864583333333,33.27340732301977L44.04291666666667,20.47635105678006L44.277187500000004,10.245602743966145L44.51145833333333,13.725422041756673L44.74572916666667,47.978992734636506L44.980000000000004,15.358565466744466L45.21427083333333,17.13844462803425L45.448541666666664,26.394310610634875L45.682812500000004,29.718954154423216L45.91708333333333,16.680633953639358L46.151354166666664,33.863063131059846L46.385625000000005,9.718101637703938L46.61989583333333,16.069456100463782L46.854166666666664,31.681499413081497L47.088437500000005,-11.794780050005329L47.32270833333333,2.6081101553779718L47.556979166666665,29.635880265917024L47.791250000000005,11.635553087506906L48.02552083333333,35.921824591500354L48.259791666666665,22.277089118957434L48.4940625,-2.903824261256716L48.72833333333333,-22.71182237352653L48.962604166666665,26.73281560625341L49.196875,-6.19121115548279L49.43114583333334,19.138849394661946L49.665416666666665,6.488589150564934L49.8996875,18.29581219809387L50.13395833333334,18.99187251499714L50.368229166666666,35.27525894982466L50.6025,47.14144154957356L50.83677083333334,31.20246812275471L51.071041666666666,36.94439302171972L51.3053125,1.1075955799646806L51.53958333333333,20.492628233773274L51.773854166666666,17.567197527204172L52.008125,13.861547470092688L52.24239583333333,35.523214612688264L52.47666666666667,53.116491794586096L52.7109375,45.05030659266873L52.94520833333333,26.71316242218009L53.17947916666667,23.129651478358596L53.41375,46.337349006107814L53.648020833333334,30.580257960728147L53.88229166666667,66.98223515919271L54.1165625,20.17058127267012L54.350833333333334,43.716542652675L54.58510416666666,5.582734107971106L54.819375,42.5554976463317L55.053645833333334,36.32610143933971L55.28791666666666,17.150501796177366L55.5221875,42.536387034824855L55.756458333333335,28.260880810873772L55.99072916666666,38.45798962456831L56.225,34.620795863015246L56.459270833333335,52.29455464226852L56.69354166666667,39.112030710492746L56.9278125,59.06995970862246L57.162083333333335,30.43388393947049L57.39635416666667,44.86456591742373L57.630624999999995,52.115565981183664L57.864895833333335,17.56755924224845L58.09916666666667,39.34226233618591L58.333437499999995,32.43097298485884L58.567708333333336,44.566151005881096L58.80197916666667,14.942472594124837L59.036249999999995,59.222422599792424L59.270520833333336,51.72479316166462L59.50479166666667,37.197533266884875L59.739062499999996,49.0354418073381L59.973333333333336,39.82129362651273L60.20760416666667,52.37153966086245L60.441874999999996,41.389870916094026L60.67614583333333,40.01927232742301L60.91041666666667,57.72317402703415L61.144687499999996,29.645767143794387L61.37895833333333,46.83024603979922L61.61322916666667,35.20122793742581L61.847500000000004,53.44577305657516L62.08177083333333,37.74715927668973L62.31604166666667,43.54991258893688L62.550312500000004,40.18234552655895L62.78458333333333,62.677464417048796L63.018854166666664,52.66121312550129L63.253125000000004,62.433728763035305L63.48739583333333,42.02642910821089L63.721666666666664,34.36060217448636L63.955937500000005,41.839904717036575L64.19020833333333,9.31973280225472L64.42447916666666,39.75286919730041L64.65875,27.483555180685784L64.89302083333334,56.56900160653244L65.12729166666666,95.68667507171627L65.3615625,66.80270392554141L65.59583333333333,71.03790480749942L65.83010416666667,66.1114061900547L66.064375,71.47527858189169L66.29864583333334,65.97859648295805L66.53291666666667,57.9790271350315L66.76718749999999,37.21941702706465L67.00145833333333,39.07061433792106L67.23572916666667,64.07645763669689L67.47,43.571856634957385L67.70427083333334,38.562826701572874L67.93854166666667,69.27110767364496L68.17281249999999,56.51685435431338L68.40708333333333,45.126327037811194L68.64135416666667,49.40824944632388L68.875625,38.032733304159905L69.10989583333333,74.49746806280947L69.34416666666667,56.87428910391665L69.57843749999999,52.05003527232573L69.81270833333333,73.26926462990892L70.04697916666667,65.48045458112438L70.28125,53.42835044860831L70.51552083333334,71.95726387841356L70.74979166666667,54.17848716463355L70.98406250000001,50.68582698277058L71.21833333333333,70.72773415701724L71.45260416666666,97.25989437103267L71.686875,67.83045693806234L71.92114583333334,65.00280986513404L72.15541666666667,85.53158548900053L72.38968750000001,41.63861029488692L72.62395833333333,79.18270274571005L72.85822916666666,65.65962409973139L73.0925,54.06273835045944L73.32677083333333,62.80912869317184L73.56104166666667,68.01245989118297L73.79531250000001,67.44613470349987L74.02958333333332,65.64672292981822L74.26385416666666,80.9010300636291L74.498125,60.55009766987385L74.73239583333333,69.88126066752837L74.96666666666667,100.52021292277739L75.20093750000001,64.93854515893112L75.43520833333332,53.69535643713809L75.66947916666666,62.87471968787051L76.13802083333333,68.07111801419933L76.37229166666667,76.63996655600405L76.60656250000001,67.50642054421554L76.84083333333332,69.49922929491309L77.07510416666666,56.10238919939307L77.309375,71.2165920393807L77.54364583333333,64.50653682436256L77.77791666666667,58.46360472270415L78.01218750000001,70.13536548614496L78.24645833333334,89.22825295584536L78.48072916666666,65.89317144666393L78.715,89.9873119762965L78.94927083333333,64.86698586600161L79.18354166666667,69.53739023208612L79.4178125,49.35272618702473L79.65208333333334,67.38651200703207L79.88635416666666,92.2178880827767L80.12062499999999,68.0129421779087L80.35489583333333,53.02003444944103L80.58916666666667,85.91247143064221L80.8234375,62.84487819671625L81.05770833333334,61.98369496209274L81.29197916666668,80.70407622201097L81.52624999999999,17.377658843994055L81.76052083333333,63.02670029231474L81.99479166666667,78.6850431306021L82.2290625,62.60524197987141L82.46333333333334,83.940581866673L82.69760416666668,66.89602640696928L82.93187499999999,74.18084682737071L83.16614583333333,76.78989744186396L83.40041666666667,75.89031212670457L83.6346875,61.82007919039039L83.86895833333334,59.342089993613044L84.10322916666668,83.9978534153529L84.33749999999999,59.92577750342227L84.57177083333333,99.20188215800688L84.80604166666667,65.96949332100998L85.0403125,70.11125114985869L85.27458333333334,85.32480505534575L85.50885416666667,60.534604208809924L85.97739583333333,87.83751889637533L86.21166666666666,76.74637106486723L86.4459375,84.1796755109514L86.68020833333334,46.74048042297355L86.91447916666667,64.74647447041097L87.14874999999999,66.47306094850806L87.38302083333333,74.21822404861445L87.61729166666666,75.0431152071271L87.8515625,72.51605333600719L88.08583333333334,89.83442708424154L88.32010416666667,77.952268736703L88.55437500000001,92.3286331721714L88.78864583333333,95.55531222479678L89.02291666666666,81.99467550005225L89.2571875,68.04073395047863L89.49145833333334,65.44410221917282L89.72572916666667,78.70240545272821L89.96000000000001,73.31894016265863L90.19427083333333,41.18152305058064L90.42854166666666,98.6029423304966L90.6628125,64.97248608725405L91.13135416666667,75.07868385314936L91.36562500000001,95.08255066190442L91.59989583333332,53.47223854064933L91.83416666666666,82.06852565492896L92.0684375,110.7567486763L92.30270833333333,76.58100700378412L92.53697916666667,102.03218180792666L92.77125000000001,92.93999188286912L93.00552083333332,79.20410421916411L93.23979166666666,70.29259095873145L93.4740625,70.80918032782412L93.70833333333333,67.08936309814447L93.94260416666667,88.88950681686396L94.17687500000001,69.59261206218169L94.41114583333332,75.0857975823538L94.64541666666666,81.04053149904517L94.8796875,106.65658807754512L95.11395833333333,91.02362557819906L95.34822916666667,55.74875245775489L95.58250000000001,101.71562085832863L95.81677083333334,72.07373612267625L96.05104166666666,62.93916525159557L96.2853125,91.63196999686099L96.75385416666667,80.83266592025751L96.988125,50.342016833169055L97.22239583333334,66.75248582022525L97.45666666666666,76.53615433829165L97.69093749999999,67.79971115929733L97.92520833333333,78.26901054382319L98.15947916666667,73.72876330784383L98.39375,83.44123424802503L98.62802083333334,57.29454169954566L98.86229166666668,87.68035370962954L99.09656249999999,66.9714439937046L99.33083333333333,115.43083047866816L99.56510416666667,65.06737600054053L99.799375,62.68307100023536L100.03364583333334,88.82548325402391L100.26791666666668,49.394926275525705L100.50218749999999,75.29926974432803L100.73645833333333,81.051382950374L100.97072916666667,86.44117825371873L101.205,95.60522890090938L101.43927083333334,75.890432698386L101.67354166666668,67.05656760079513L101.90781249999999,103.34599113464351L102.14208333333333,104.93663304192674L102.37635416666667,90.42571060998094L102.610625,75.29541145052222L102.84489583333334,87.85524293354574L103.07916666666667,68.01631818498878L103.31343749999999,87.6101809910365L103.54770833333333,86.61190775462553L103.78197916666666,97.32705279758993L104.01625,103.33489853995181L104.25052083333334,80.13793189185L104.48479166666667,110.52054875237597L104.71906249999999,69.34079810551229L104.95333333333333,80.34447118214193L105.18760416666666,65.7227433749607L105.421875,64.95590748105724L105.65614583333334,81.71012633187425L105.89041666666667,90.00871344975057L106.12468750000001,76.48665966306407L106.35895833333333,72.82339055197573L106.59322916666666,100.69992501395083L106.8275,85.0505044800894L107.06177083333334,103.27382898330684L107.29604166666667,74.6705487115042L107.53031250000001,95.42081451416011L107.76458333333333,79.65896088736392L107.99885416666666,80.9768093654087L108.233125,91.2067739622933L108.46739583333333,57.431691987173835L108.70166666666667,113.58542060852045L108.93593750000001,86.71969883782518L109.17020833333332,72.95716483252383L109.40447916666666,100.04600449970785L109.63875,88.61183023452753L110.10729166666667,65.69115359442569L110.34156250000001,82.12507377352027L110.57583333333332,93.26137569972441L110.81010416666666,93.5719683510916L111.044375,98.80254874910622L111.27864583333333,60.9370121955871L111.51291666666667,68.92138951165329L111.74718750000001,98.07718951361514L111.98145833333332,86.49386807850424L112.21572916666666,57.71967744827265L112.45,95.68830278941557L112.68427083333333,92.25122615269247L112.91854166666667,86.95535618918277L113.15281250000001,76.23466484887254L113.38708333333334,74.76332862036563L113.62135416666666,112.82606015886574L113.855625,98.68396650041848L114.08989583333333,95.0471025875636L114.32416666666667,88.47588566371367L114.5584375,77.8265124729701L114.79270833333334,83.73319857461107L115.02697916666666,115.47387456893915L115.26124999999999,91.58790104729783L115.49552083333333,102.22147934777391L115.9640625,107.8110619272504L116.19833333333334,86.89585406439639L116.43260416666668,87.44560064588269L116.66687499999999,88.65427146639136L116.90114583333333,92.51178155626563L117.13541666666667,92.46258831024164L117.3696875,96.69477490016386L117.60395833333334,90.40424885068616L117.83822916666668,88.92652232306338L118.07249999999999,65.90981033870146L118.30677083333333,95.91817270006446L118.54104166666667,83.67665045601976L118.7753125,81.16104289463583L119.00958333333334,93.53670113427293L119.24385416666668,93.52175024577544L119.47812499999999,96.82270145416256L119.71239583333333,73.19035046441209L119.94666666666667,84.19498811449317L120.1809375,124.16636937005174L120.41520833333334,98.93101787567134L120.64947916666667,106.27455670492985L120.88374999999999,100.92455005645748L121.35229166666666,114.23289053780687L121.5865625,98.05699375697539L121.82083333333334,95.77638040270118L122.05510416666667,96.11609111513404L122.28937499999999,95.53216246196196L122.52364583333333,90.4702015604291L122.75791666666666,97.91713060651502L122.9921875,99.60218014035901L123.22645833333334,76.14514037540975L123.46072916666667,94.70654787336072L123.69500000000001,98.0962398392813L123.92927083333333,112.38543094907483L124.16354166666666,94.85798590523851L124.63208333333334,89.88922691345209L124.86635416666667,138.08492313112527L125.10062500000001,109.55356386729643L125.33489583333333,105.43688494818547L125.56916666666666,82.12561634608672L125.8034375,105.61448703493386L126.03770833333333,98.9331881659371L126.27197916666667,76.97835097994117L126.50625000000001,115.19173683438977L126.74052083333332,91.22739171981806L126.97479166666666,116.324809210641L127.2090625,83.36997638429908L127.44333333333333,112.67932442256378L127.67760416666667,104.13947337014329L127.91187500000001,94.12430722372866L128.14614583333332,113.01168026242932L128.38041666666666,122.46299294063019L128.6146875,96.95545087541846L128.84895833333331,64.32573958805624L129.08322916666665,104.2352072851998L129.3175,115.18040309633523L129.55177083333334,77.77207435880383L129.78604166666668,95.53397103718343L130.02031250000002,94.27116353171206L130.25458333333333,109.83533988680153L130.48885416666667,111.13751404626025L130.723125,95.19703347342349L130.95739583333332,62.83179616928095L131.19166666666666,95.34612035751339L131.4259375,94.34664140428809L131.66020833333334,103.74839912142068L131.89447916666666,82.49890627179822L132.12875,114.72253213609963L132.36302083333334,100.8819882529122L132.59729166666668,110.10228558949058L132.8315625,96.64497879573271L133.06583333333333,99.75235216958177L133.30010416666667,102.00059202739165L133.53437499999998,99.72896126338408L133.76864583333332,100.40157038824893L134.00291666666666,86.5990668705531L134.2371875,89.07705606733043L134.47145833333335,123.84673384257721L134.70572916666669,107.74052749361306L134.94,101.86567231586997L135.17427083333334,98.98937456948411L135.40854166666668,88.45116846902025L135.6428125,80.97150421142572L135.87708333333333,82.22635398592261L136.11135416666667,98.09340640476766L136.34562499999998,101.32014574323377L136.57989583333332,98.17226028442379L136.81416666666667,70.26877805164877L137.0484375,113.04929862703591L137.28270833333335,99.07256902967175L137.5169791666667,110.88425322941367L137.75125,97.26290866306844L137.98552083333334,108.22058364323203L138.21979166666665,109.78277063369747L138.4540625,123.36969198499403L138.68833333333333,90.85928637640811L138.92260416666667,87.91450391496926L139.39114583333333,101.17515829631255L139.62541666666667,89.52974244526449L139.8596875,100.20485768999367L140.09395833333335,84.33322354725424L140.32822916666666,118.07671574183868L140.5625,110.02554171425952L141.03104166666668,98.90648153850005L141.2653125,98.26359333310803L141.49958333333333,85.25855091639922L141.73385416666667,103.49851431165418L141.96812500000001,96.15985863549363L142.20239583333333,114.6428342546735L142.43666666666667,85.85917874744955L142.67093749999998,82.39376776559007L142.90520833333332,104.08985812323428L143.13947916666666,93.65787567411145L143.37375,107.54158421925132L143.60802083333334,100.51261690684721L143.84229166666668,102.33282729557578L144.0765625,119.3193274906703L144.31083333333333,116.0423097610473L144.54510416666668,85.86183132444104L144.77937500000002,84.20499556405198L145.01364583333336,77.76918063844947L145.24791666666667,109.24080092566349L145.48218749999998,119.44068288803095L145.71645833333332,104.6873510905674L145.95072916666666,107.68578795024321L146.185,118.05905199050898L146.41927083333334,66.6150341033935L147.12208333333334,87.89961331231248L147.35635416666668,126.84788356508524L147.59062500000002,100.49495315551754L147.82489583333336,114.26387745993473L148.05916666666664,105.24656254904606L148.29343749999998,108.01109034674504L148.52770833333332,112.5440429959978L148.76197916666666,104.56846741267607L148.99625,100.66658694403506L149.23052083333334,86.95270361219129L149.46479166666666,99.50385393415173L149.6990625,127.11507041113713L149.93333333333334,92.79952587400159L150.16760416666668,79.1310377802167L150.40187500000002,116.56426456996368L150.63614583333336,105.24837112426754L150.87041666666664,97.4576922144208L151.10468749999998,118.52789497375483L151.33895833333332,131.0199048859732L151.57322916666666,90.58058493477952L151.8075,107.51493787765499L152.04177083333335,105.08047505787437L152.27604166666666,120.39301831381657L152.5103125,116.69436141422813L152.74458333333334,96.14303888593396L152.97885416666668,103.08441087177818L153.21312500000002,91.21991627556932L153.44739583333333,99.85013580322261L153.68166666666664,103.24742378507337L153.91593749999998,122.64174045835219L154.15020833333332,105.19097900390621L154.38447916666667,105.0456298419407L154.61875,118.63562577111375L154.85302083333332,108.1543897901262L155.08729166666666,130.28116219384324L155.3215625,118.84246649060927L155.55583333333334,121.29706478118892L155.79010416666668,110.07780953816001L156.02437500000002,108.74085044860836L156.25864583333333,120.26762376512795L156.49291666666667,103.63060058866223L156.72718749999999,109.34352799824302L156.96145833333333,92.11100128718779L157.19572916666667,134.1140153748648L157.43,89.4463671275547L157.66427083333332,105.65210539954045L157.89854166666666,102.0295895167759L158.1328125,107.88020978655129L158.36708333333334,95.21035664422166L158.60135416666668,97.4426207542419L158.835625,131.9602434294564L159.06989583333333,110.93682248251774L159.30416666666667,120.2589426040649L159.53843750000001,99.69007689612246L159.77270833333333,96.93139682497291L160.00697916666667,90.7343138286045L160.24124999999998,80.19586658477778L160.47552083333332,109.00731386457166L160.70979166666666,119.5338847977774L160.9440625,92.73381430762149L161.17833333333334,112.98593820844373L161.41260416666668,107.21851239885598L161.646875,109.92793893814083L161.88114583333333,81.18377065658564L162.11541666666668,112.97713647569924L162.34968750000002,115.79971953800742L162.58395833333336,106.70156131471902L162.81822916666667,86.6847933360508L163.05249999999998,116.47498123986375L163.28677083333332,84.05488382066993L163.52104166666666,111.30004467282971L163.7553125,95.20462948935366L163.98958333333334,98.46374232428408L164.22385416666665,91.17054217202318L164.458125,99.72769526072905L164.69239583333334,122.78690876279555L164.92666666666668,78.66834395272386L165.16093750000002,104.85325772421695L165.39520833333336,89.66020100457322L165.86374999999998,94.68635211672095L166.09802083333332,115.4916588919503L166.33229166666666,112.48761544908791L166.5665625,96.06587300981788L166.80083333333334,112.92541122436519L167.03510416666666,108.47336217335288L167.269375,112.466394833156L167.50364583333334,132.86730418886452L167.73791666666668,111.48277105603894L167.97218750000002,80.24656697681966L168.20645833333336,131.924493925912L168.44072916666664,127.17547682353424L168.67499999999998,106.57628733771183L168.90927083333332,117.16748469216478L169.14354166666666,98.6310355322701L169.3778125,101.78187499727517L169.61208333333335,94.86980193001878L169.84635416666666,111.02948181969775L170.080625,98.55513565880906L170.31489583333334,81.18624237605498L170.54916666666668,91.8365198544093L170.78343750000002,118.07195316042214L171.01770833333333,133.57638624736236L171.25197916666664,112.53361354555398L171.48624999999998,90.02981349400106L171.72052083333332,89.49833352225161L171.95479166666667,89.80681616919375L172.1890625,91.3624922888619L172.42333333333332,87.15218945911947L172.65760416666666,119.94895281110487L172.891875,86.3518949236188L173.12614583333334,85.97426441737578L173.36041666666668,105.5104336738586L173.59468750000002,122.35405642645695L173.82895833333333,108.82338176454812L174.06322916666667,107.48015294756203L174.29749999999999,119.99832691465102L174.53177083333333,116.43000800268986L174.76604166666667,116.97324371337885L175.0003125,124.29749107360836L175.23458333333332,81.41442428316383L175.46885416666666,101.59408460344582L175.703125,103.35509429659157L175.93739583333334,119.36803844996857L176.17166666666668,111.87746245520451L176.4059375,124.45248597008836L176.64020833333333,140.7789164951869L176.87447916666667,92.55012335096082L177.10875000000001,112.0674231392996L177.34302083333333,112.84113161904467L177.57729166666667,143.5530900274004L177.81156249999998,112.50913749422341L178.04583333333332,95.41870450973506L178.28010416666666,116.09807416370933L178.514375,89.97398880549834L178.74864583333334,96.212789603642L178.98291666666668,118.64720065253117L179.2171875,114.5055633953639L179.45145833333333,131.370225906372L179.68572916666668,92.19606460843762L179.92000000000002,111.8778241702488L180.15427083333336,114.3206667218889L180.38854166666667,106.79596894127977L180.62281249999998,111.32271214893882L180.85708333333332,108.53081457955491L181.09135416666666,104.77416270119798L181.325625,99.80534342357085L181.55989583333334,122.75658498491555L181.79416666666665,102.73023155757353L182.0284375,106.27310984475267L182.26270833333334,143.37199136189048L182.49697916666668,104.89093637466426L182.73125000000002,113.52127647399897L182.96552083333336,117.87554189137046L183.19979166666664,96.36567449569698L183.43406249999998,124.86508226394649L183.66833333333332,100.90429401397701L183.90260416666666,116.42705399649479L184.136875,95.47121347699841L184.37114583333334,141.46099049704412L184.60541666666666,105.8330232075282L184.8396875,89.32000800541464L185.07395833333334,112.75564629690983L185.30822916666668,104.61922809055869L185.54250000000002,96.18379211425777L185.77677083333336,95.99105828148973L186.01104166666664,145.7552715029035L186.24531249999998,123.86391530718119L186.47958333333332,104.24654102325435L186.71385416666666,125.82121569769718L186.948125,121.05423341478615L187.18239583333335,114.06523561477655L187.41666666666666,121.69772447858534L187.6509375,128.99629007066994L187.88520833333334,105.42916836057385L188.11947916666668,112.1934808322361L188.35375000000002,144.67326123373846L188.58802083333333,108.71281753267556L188.82229166666664,93.68759659358427L189.05656249999998,87.72870295388353L189.29083333333332,120.39030545098436L189.52510416666667,107.93910905293052L189.759375,102.70237949916289L189.99364583333332,97.47047281265255L190.22791666666666,102.64661509650088L190.4621875,86.90549979891091L190.69645833333334,112.11800295966007L190.93072916666668,101.42293310165401L191.16500000000002,116.79365219388686L191.39927083333333,116.41162082127158L191.63354166666667,115.2122340202331L191.86781249999999,97.61316939762655L192.10208333333333,108.84116608755924L192.33635416666667,113.31491804122919L192.570625,116.00330482210427L192.80489583333332,119.26157365526467L193.03916666666666,110.24606731959746L193.2734375,123.31248072215485L193.50770833333334,140.45234809603005L193.74197916666668,106.60112510408669L193.97625,127.62201404571529L194.21052083333333,113.57077114922654L194.44479166666667,116.63636643545964L194.67906250000001,95.7010231018066L194.91333333333333,113.47961895806444L195.14760416666667,88.73023162569312L195.38187499999998,118.41075958524428L195.61614583333332,102.80154970714018L195.85041666666666,116.73698350361411L196.0846875,108.98687696456905L196.31895833333334,118.66992841448098L196.55322916666668,103.42641244615822L196.7875,111.92231512069698L197.02177083333333,84.05138724190843L197.25604166666668,100.7847471918378L197.49031250000002,98.43160997118264L197.72458333333336,124.49118947982784L197.95885416666667,105.5516089030674L198.19312499999998,119.13666139330178L198.42739583333332,132.43915414810175L198.66166666666666,112.01611988885058L198.8959375,106.27413470404484L199.13020833333334,122.57150745391841L199.36447916666665,102.11007111413133L199.59875,105.18169498443599L199.83302083333334,137.2607554027012L200.06729166666668,107.33498464311867L200.30156250000002,124.06671687534873L200.53583333333336,102.32577385221204L200.77010416666664,108.05280814852028L201.00437499999998,114.4678847449166L201.23864583333332,98.34907865524288L201.47291666666666,109.7606457301548L201.7071875,106.57713133948185L201.94145833333334,91.84634644644595L202.17572916666666,91.85243531635824L202.41,141.53773437227517L202.64427083333334,96.59777498245235L202.87854166666668,112.0873174667358L203.11281250000002,133.58042539869032L203.34708333333336,111.37323168345854L203.58135416666664,110.16594743728633L203.81562499999998,113.39015477044236L204.04989583333332,117.40947205679753L204.28416666666666,131.22421360015863L204.5184375,116.30105658939902L204.75270833333335,105.66844286237439L204.98697916666666,115.67372213091164L205.22125,142.26032045909332L205.68979166666668,119.55124711990351L205.92406250000002,144.0597925186157L206.15833333333333,127.27392360142295L206.39260416666664,105.31100811277112L206.62687499999998,111.5272017206464L206.86114583333332,119.41349397386819L207.09541666666667,133.16596024377003L207.3296875,126.1699692862374L207.56395833333332,111.33284017017905L207.79822916666666,122.98452574866154L208.0325,107.4453680174691L208.26677083333334,124.39485270636418L208.50104166666668,96.4745507240295L208.73531250000002,113.77640615190774L208.96958333333333,130.72100768770486L209.20385416666667,142.6008751732962L209.43812499999999,103.18629394258767L209.67239583333333,130.81294359479628L209.90666666666667,116.8400120053972L210.1409375,106.75376885277879L210.37520833333332,128.25278479712347L210.60947916666666,136.53003072738642L210.84375,121.2927844864981L211.07802083333334,117.28781523023329L211.31229166666668,111.82838978086194L211.5465625,117.34635278156821L211.78083333333333,136.20575319017678L212.01510416666667,85.84700100762498L212.24937500000001,105.5484740393502L212.48364583333333,102.36423621858864L212.71791666666667,55.51472282409662L212.95218749999998,71.38828611373896L213.42072916666666,60.18585062026972L213.655,57.30684001105166L213.88927083333334,101.54663964680259L214.12354166666668,84.43902519771025L214.3578125,57.1686045782906L214.59208333333333,79.78556115286685L214.82635416666668,74.10030494417457L215.06062500000002,69.03948947361532L215.29489583333336,41.31077589307506L215.52916666666667,74.31534453800741L215.76343749999998,73.37440313611705L215.99770833333332,56.15296901975353L216.23197916666666,95.62910209383277L216.46625,142.51502813611708L216.70052083333334,122.6141295433044L216.93479166666665,137.666418824877L217.1690625,105.65620483670911L217.40333333333334,126.2153042384556L217.63760416666668,128.15596573693406L217.87187500000002,136.31890971320013L218.10614583333336,119.98958546774723L218.34041666666664,136.3430843353271L218.57468749999998,92.35280779429839L218.80895833333332,107.88726322991502L219.04322916666666,100.51086861746646L219.2775,102.04634898049486L219.51177083333334,114.90712738037104L219.74604166666666,117.00079434258592L219.9803125,127.23329094478058L220.21458333333334,127.20133944920127L220.44885416666668,116.15618971415924L220.68312500000002,109.51612636021201L220.91739583333336,123.74340391159053L221.15166666666664,118.38941839763092L221.38593749999998,120.56049237932473L221.62020833333332,102.54280287878848L221.85447916666666,99.14690147127419L222.08875,122.21437413351872L222.32302083333335,125.98597690037315L222.55729166666666,142.57495226178847L222.7915625,116.21587269646776L223.02583333333334,111.0408155577523L223.26010416666668,146.80557141985207L223.49437500000002,122.75857441765916L223.72864583333333,109.25569152832027L223.96291666666664,137.3718019212995L224.19718749999998,132.6315865516662L224.66572916666667,146.13495172773085L224.9,121.23231778826027L225.13427083333332,127.9822822298322L225.36854166666666,105.0686590330941L225.6028125,135.65666975293837L226.07135416666668,130.2982833726065L226.30562500000002,124.05881943021498L226.53989583333333,110.76808241435454L226.77416666666667,119.05822951453068L227.00843749999999,104.34956952503745L227.24270833333333,119.78943647657118L227.47697916666667,133.09265266145974L227.71125,107.38839789799277L227.94552083333332,114.92129455293923L228.17979166666666,101.56617225919446L228.4140625,134.45149551119118L228.64833333333334,124.18969999040873L228.88260416666668,110.67072078159873L229.116875,123.69240209034507L229.35114583333333,121.61483144760128L229.58541666666667,118.13356528963357L229.81968750000001,119.39112792696267L230.05395833333333,125.93973766054422L230.28822916666667,126.78874315534316L230.52249999999998,129.4236563955034L230.75677083333332,109.01906960351123L230.99104166666666,138.13285037449424L231.2253125,117.14246606826777L231.45958333333334,126.77566112790785L231.69385416666668,99.23889766420632L231.928125,127.06406858989166L232.16239583333333,105.98506409781315L232.39666666666668,129.31682988575523L232.63093750000002,133.56366593497137L232.86520833333336,139.61298833574563L233.09947916666667,111.88077817644387L233.33374999999998,135.90426370075767L233.56802083333332,121.95912388392853L233.80229166666666,143.5766015052795L234.0365625,149.833246912275L234.27083333333334,149.95731517246787L234.50510416666665,122.15451029368805L234.739375,121.57305335998531L234.97364583333334,126.88845593588688L235.20791666666668,135.63412284851069L235.44218750000002,123.47115305491852L235.67645833333336,118.31966767992287L235.91072916666664,127.11543212618143L236.14499999999998,129.67522920880995L236.37927083333332,138.84790073122292L236.61354166666666,136.73596715927118L236.8478125,132.25051975250238L237.08208333333334,113.87183863776066L237.31635416666666,117.79144314357208L237.78489583333334,112.39712640217368L238.01916666666668,116.1718037469046L238.25343750000002,123.57936613900316L238.48770833333336,118.19047512326918L238.72197916666664,141.02235071999684L238.95624999999998,152.73926557813368L239.19052083333332,99.15238748277932L239.42479166666666,145.11431244441437L239.6590625,111.00036375863208L239.89333333333335,141.36332743508473L240.12760416666666,126.98491328103196L240.361875,142.03925228118894L240.59614583333334,145.381981577192L240.83041666666668,123.80543804168697L241.29895833333333,118.85982881273537L241.53322916666664,119.94352708544045L241.76749999999998,125.87282037734981L242.00177083333332,128.15518202100478L242.23604166666667,121.84964479718886L242.4703125,139.14010620117182L242.70458333333332,112.67335612433293L242.93885416666666,131.2606262479509L243.173125,114.15102236611497L243.40739583333334,128.34236955642695L243.64166666666668,122.77611759730743L243.87593750000002,117.3978368895394L244.11020833333333,122.95046424865718L244.34447916666667,163.70073856626234L244.57874999999999,131.96536772591722L244.81302083333333,119.78786904471256L245.2815625,132.20180879320412L245.51583333333332,146.58661324637274L245.75010416666666,124.79008667809617L246.21864583333334,125.29606573922288L246.45291666666668,143.8982867513384L246.6871875,134.17062377929682L246.92145833333333,122.22540644236969L247.15572916666667,143.64020306723455L247.39000000000001,104.41449737548824L247.62427083333333,116.5977834974016L247.85854166666667,119.99850777217316L248.09281249999998,161.943888596126L248.32708333333332,136.91055495398382L248.56135416666666,104.15773997988015L248.795625,128.86257607596258L249.02989583333334,137.53511626379827L249.26416666666668,117.45263671874994L249.4984375,133.09150723048614L249.73270833333333,121.26704243251251L249.96697916666668,126.99992445537018L250.20125000000002,139.97174937384466L250.43552083333336,166.80678565161566L250.66979166666667,124.58806882585795L250.90406249999998,123.31694187436781L251.13833333333332,117.0821802275521L251.37260416666666,137.92323650632582L251.606875,133.02543394906178L251.84114583333334,83.71547453744066L252.07541666666665,132.0479593276977L252.3096875,131.63988447189325L252.54395833333334,122.9247824805123L252.77822916666668,119.85677576065059L253.01250000000002,116.52200419562199L253.24677083333336,131.69438287190025L253.48104166666664,121.44289622988015L253.71531249999998,148.56543568202423L253.94958333333332,109.48417486463269L254.18385416666666,118.9160755021231L254.418125,130.31009939738678L254.65239583333334,155.83198949268882L254.88666666666666,131.43352603912348L255.1209375,103.33471768242967L255.35520833333334,115.46579626628326L255.58947916666668,133.73620401109963L255.82375000000002,145.12263189043313L256.05802083333333,125.72331149237492L256.29229166666664,139.11894587108063L256.7608333333333,136.04671914236883L256.9951041666667,96.625627040863L257.229375,94.85286160877767L257.4636458333334,127.95563588823588L257.69791666666663,125.25374507904048L257.9321875,132.63586684635703L258.1664583333333,125.34815270560124L258.4007291666667,137.96567773818964L258.635,114.19882903780251L258.8692708333333,133.9555238996233L259.3378125,94.25518778392241L259.57208333333335,131.20383698599676L259.80635416666667,158.77044194085255L260.04062500000003,143.33907529285972L260.27489583333335,141.40703466960358L260.50916666666666,126.36764655794413L260.74343749999997,105.77237565176823L260.97770833333334,131.98899977547777L261.21197916666665,143.50600678580145L261.44625,136.99338769912714L261.68052083333333,101.44957944325034L261.91479166666664,120.07073020935054L262.1490625,137.4956290381295L262.3833333333333,144.29484701156613L262.6176041666667,118.94127498354226L262.851875,149.4131148883274L263.0861458333333,126.17750501632686" style="fill: none;" fill="none"></path></g></g></g></g></g></g><g transform="translate(48, 177)" clip-path="url(#clip_1)"><clipPath id="clip_1"><rect width="281" height="23"></rect></clipPath><g><g><line x1="0" y1="0" x2="0" y2="5" style="visibility: inherit;" fill="rgb(0, 0, 0)" stroke="rgb(204, 204, 204)" stroke-width="1px"></line><line x1="23.427083333333332" y1="0" x2="23.427083333333332" y2="5" style="visibility: inherit;" fill="rgb(0, 0, 0)" stroke="rgb(204, 204, 204)" stroke-width="1px"></line><line x1="46.854166666666664" y1="0" x2="46.854166666666664" y2="5" style="visibility: inherit;" fill="rgb(0, 0, 0)" stroke="rgb(204, 204, 204)" stroke-width="1px"></line><line x1="70.28125" y1="0" x2="70.28125" y2="5" style="visibility: inherit;" fill="rgb(0, 0, 0)" stroke="rgb(204, 204, 204)" stroke-width="1px"></line><line x1="93.70833333333333" y1="0" x2="93.70833333333333" y2="5" style="visibility: inherit;" fill="rgb(0, 0, 0)" stroke="rgb(204, 204, 204)" stroke-width="1px"></line><line x1="117.13541666666667" y1="0" x2="117.13541666666667" y2="5" style="visibility: inherit;" fill="rgb(0, 0, 0)" stroke="rgb(204, 204, 204)" stroke-width="1px"></line><line x1="140.5625" y1="0" x2="140.5625" y2="5" style="visibility: inherit;" fill="rgb(0, 0, 0)" stroke="rgb(204, 204, 204)" stroke-width="1px"></line><line x1="163.98958333333334" y1="0" x2="163.98958333333334" y2="5" style="visibility: inherit;" fill="rgb(0, 0, 0)" stroke="rgb(204, 204, 204)" stroke-width="1px"></line><line x1="187.41666666666666" y1="0" x2="187.41666666666666" y2="5" style="visibility: inherit;" fill="rgb(0, 0, 0)" stroke="rgb(204, 204, 204)" stroke-width="1px"></line><line x1="210.84375" y1="0" x2="210.84375" y2="5" style="visibility: inherit;" fill="rgb(0, 0, 0)" stroke="rgb(204, 204, 204)" stroke-width="1px"></line><line x1="234.27083333333334" y1="0" x2="234.27083333333334" y2="5" style="visibility: inherit;" fill="rgb(0, 0, 0)" stroke="rgb(204, 204, 204)" stroke-width="1px"></line><line x1="257.69791666666663" y1="0" x2="257.69791666666663" y2="5" style="visibility: inherit;" fill="rgb(0, 0, 0)" stroke="rgb(204, 204, 204)" stroke-width="1px"></line><line x1="281.125" y1="0" x2="281.125" y2="5" style="visibility: inherit;" fill="rgb(0, 0, 0)" stroke="rgb(204, 204, 204)" stroke-width="1px"></line></g><g transform="translate(0, 8)"><text x="0" y="0" dx="0em" dy="0.95em" style="text-anchor: middle; visibility: hidden; font-family: &quot;Helvetica Neue&quot;, sans-serif; font-size: 12px; font-weight: 200;" fill="rgb(50, 49, 63)" stroke="none" stroke-width="1px">-100</text><text x="23.427083333333332" y="0" dx="0em" dy="0.95em" style="text-anchor: middle; visibility: inherit; font-family: &quot;Helvetica Neue&quot;, sans-serif; font-size: 12px; font-weight: 200;" fill="rgb(50, 49, 63)" stroke="none" stroke-width="1px">0</text><text x="46.854166666666664" y="0" dx="0em" dy="0.95em" style="text-anchor: middle; visibility: hidden; font-family: &quot;Helvetica Neue&quot;, sans-serif; font-size: 12px; font-weight: 200;" fill="rgb(50, 49, 63)" stroke="none" stroke-width="1px">100</text><text x="70.28125" y="0" dx="0em" dy="0.95em" style="text-anchor: middle; visibility: inherit; font-family: &quot;Helvetica Neue&quot;, sans-serif; font-size: 12px; font-weight: 200;" fill="rgb(50, 49, 63)" stroke="none" stroke-width="1px">200</text><text x="93.70833333333333" y="0" dx="0em" dy="0.95em" style="text-anchor: middle; visibility: hidden; font-family: &quot;Helvetica Neue&quot;, sans-serif; font-size: 12px; font-weight: 200;" fill="rgb(50, 49, 63)" stroke="none" stroke-width="1px">300</text><text x="117.13541666666667" y="0" dx="0em" dy="0.95em" style="text-anchor: middle; visibility: inherit; font-family: &quot;Helvetica Neue&quot;, sans-serif; font-size: 12px; font-weight: 200;" fill="rgb(50, 49, 63)" stroke="none" stroke-width="1px">400</text><text x="140.5625" y="0" dx="0em" dy="0.95em" style="text-anchor: middle; visibility: hidden; font-family: &quot;Helvetica Neue&quot;, sans-serif; font-size: 12px; font-weight: 200;" fill="rgb(50, 49, 63)" stroke="none" stroke-width="1px">500</text><text x="163.98958333333334" y="0" dx="0em" dy="0.95em" style="text-anchor: middle; visibility: inherit; font-family: &quot;Helvetica Neue&quot;, sans-serif; font-size: 12px; font-weight: 200;" fill="rgb(50, 49, 63)" stroke="none" stroke-width="1px">600</text><text x="187.41666666666666" y="0" dx="0em" dy="0.95em" style="text-anchor: middle; visibility: hidden; font-family: &quot;Helvetica Neue&quot;, sans-serif; font-size: 12px; font-weight: 200;" fill="rgb(50, 49, 63)" stroke="none" stroke-width="1px">700</text><text x="210.84375" y="0" dx="0em" dy="0.95em" style="text-anchor: middle; visibility: inherit; font-family: &quot;Helvetica Neue&quot;, sans-serif; font-size: 12px; font-weight: 200;" fill="rgb(50, 49, 63)" stroke="none" stroke-width="1px">800</text><text x="234.27083333333334" y="0" dx="0em" dy="0.95em" style="text-anchor: middle; visibility: hidden; font-family: &quot;Helvetica Neue&quot;, sans-serif; font-size: 12px; font-weight: 200;" fill="rgb(50, 49, 63)" stroke="none" stroke-width="1px">900</text><text x="257.69791666666663" y="0" dx="0em" dy="0.95em" style="text-anchor: middle; visibility: inherit; font-family: &quot;Helvetica Neue&quot;, sans-serif; font-size: 12px; font-weight: 200;" fill="rgb(50, 49, 63)" stroke="none" stroke-width="1px">1k</text><text x="281.125" y="0" dx="0em" dy="0.95em" style="text-anchor: middle; visibility: hidden; font-family: &quot;Helvetica Neue&quot;, sans-serif; font-size: 12px; font-weight: 200;" fill="rgb(50, 49, 63)" stroke="none" stroke-width="1px">1.1k</text></g><line x1="0" y1="0" x2="281.125" y2="0" fill="rgb(0, 0, 0)" stroke="rgb(204, 204, 204)" stroke-width="1px"></line></g></g></g></g></svg>