<svg viewBox="0 0 330 200" xmlns="http://www.w3.org/2000/svg"><g><g><g><g><g><line x1="58.59375" y1="177" x2="53.59375" y2="177" style="visibility: inherit;" fill="rgb(0, 0, 0)" stroke="rgb(204, 204, 204)" stroke-width="1px"></line><line x1="58.59375" y1="151.71428571428572" x2="53.59375" y2="151.71428571428572" style="visibility: inherit;" fill="rgb(0, 0, 0)" stroke="rgb(204, 204, 204)" stroke-width="1px"></line><line x1="58.59375" y1="126.42857142857142" x2="53.59375" y2="126.42857142857142" style="visibility: inherit;" fill="rgb(0, 0, 0)" stroke="rgb(204, 204, 204)" stroke-width="1px"></line><line x1="58.59375" y1="101.14285714285712" x2="53.59375" y2="101.14285714285712" style="visibility: inherit;" fill="rgb(0, 0, 0)" stroke="rgb(204, 204, 204)" stroke-width="1px"></line><line x1="58.59375" y1="75.85714285714285" x2="53.59375" y2="75.85714285714285" style="visibility: inherit;" fill="rgb(0, 0, 0)" stroke="rgb(204, 204, 204)" stroke-width="1px"></line><line x1="58.59375" y1="50.57142857142857" x2="53.59375" y2="50.57142857142857" style="visibility: inherit;" fill="rgb(0, 0, 0)" stroke="rgb(204, 204, 204)" stroke-width="1px"></line><line x1="58.59375" y1="25.285714285714278" x2="53.59375" y2="25.285714285714278" style="visibility: inherit;" fill="rgb(0, 0, 0)" stroke="rgb(204, 204, 204)" stroke-width="1px"></line><line x1="58.59375" y1="0" x2="53.59375" y2="0" style="visibility: inherit;" fill="rgb(0, 0, 0)" stroke="rgb(204, 204, 204)" stroke-width="1px"></line></g><g transform="translate(48.59375, 0)"><text x="0" y="177" dx="0em" dy="0.3em" style="text-anchor: end; visibility: hidden; font-family: &quot;Helvetica Neue&quot;, sans-serif; font-size: 12px; font-weight: 200;" fill="rgb(50, 49, 63)" stroke="none" stroke-width="1px">-0.05</text><text x="0" y="151.71428571428572" dx="0em" dy="0.3em" style="text-anchor: end; visibility: inherit; font-family: &quot;Helvetica Neue&quot;, sans-serif; font-size: 12px; font-weight: 200;" fill="rgb(50, 49, 63)" stroke="none" stroke-width="1px">0</text><text x="0" y="126.42857142857142" dx="0em" dy="0.3em" style="text-anchor: end; visibility: inherit; font-family: &quot;Helvetica Neue&quot;, sans-serif; font-size: 12px; font-weight: 200;" fill="rgb(50, 49, 63)" stroke="none" stroke-width="1px">0.05</text><text x="0" y="101.14285714285712" dx="0em" dy="0.3em" style="text-anchor: end; visibility: inherit; font-family: &quot;Helvetica Neue&quot;, sans-serif; font-size: 12px; font-weight: 200;" fill="rgb(50, 49, 63)" stroke="none" stroke-width="1px">0.1</text><text x="0" y="75.85714285714285" dx="0em" dy="0.3em" style="text-anchor: end; visibility: inherit; font-family: &quot;Helvetica Neue&quot;, sans-serif; font-size: 12px; font-weight: 200;" fill="rgb(50, 49, 63)" stroke="none" stroke-width="1px">0.15</text><text x="0" y="50.57142857142857" dx="0em" dy="0.3em" style="text-anchor: end; visibility: inherit; font-family: &quot;Helvetica Neue&quot;, sans-serif; font-size: 12px; font-weight: 200;" fill="rgb(50, 49, 63)" stroke="none" stroke-width="1px">0.2</text><text x="0" y="25.285714285714278" dx="0em" dy="0.3em" style="text-anchor: end; visibility: inherit; font-family: &quot;Helvetica Neue&quot;, sans-serif; font-size: 12px; font-weight: 200;" fill="rgb(50, 49, 63)" stroke="none" stroke-width="1px">0.25</text><text x="0" y="0" dx="0em" dy="0.3em" style="text-anchor: end; visibility: hidden; font-family: &quot;Helvetica Neue&quot;, sans-serif; font-size: 12px; font-weight: 200;" fill="rgb(50, 49, 63)" stroke="none" stroke-width="1px">0.3</text></g><line x1="58.59375" y1="0" x2="58.59375" y2="177" fill="rgb(0, 0, 0)" stroke="rgb(204, 204, 204)" stroke-width="1px"></line></g></g><g transform="translate(58, 0)" clip-path="url(#clip_0)"><clipPath id="clip_0"><rect width="271" height="177"></rect></clipPath><g><g><g><line x1="0" y1="0" x2="0" y2="177" fill="rgb(0, 0, 0)" stroke="rgb(60, 60, 60)" stroke-width="1px" opacity="0.25"></line><line x1="22.6171875" y1="0" x2="22.6171875" y2="177" fill="rgb(0, 0, 0)" stroke="rgb(60, 60, 60)" stroke-width="1px" opacity="0.25"></line><line x1="45.234375" y1="0" x2="45.234375" y2="177" fill="rgb(0, 0, 0)" stroke="rgb(60, 60, 60)" stroke-width="1px" opacity="0.25"></line><line x1="67.8515625" y1="0" x2="67.8515625" y2="177" fill="rgb(0, 0, 0)" stroke="rgb(60, 60, 60)" stroke-width="1px" opacity="0.25"></line><line x1="90.46875" y1="0" x2="90.46875" y2="177" fill="rgb(0, 0, 0)" stroke="rgb(60, 60, 60)" stroke-width="1px" opacity="0.25"></line><line x1="113.0859375" y1="0" x2="113.0859375" y2="177" fill="rgb(0, 0, 0)" stroke="rgb(60, 60, 60)" stroke-width="1px" opacity="0.25"></line><line x1="135.703125" y1="0" x2="135.703125" y2="177" fill="rgb(0, 0, 0)" stroke="rgb(60, 60, 60)" stroke-width="1px" opacity="0.25"></line><line x1="158.3203125" y1="0" x2="158.3203125" y2="177" fill="rgb(0, 0, 0)" stroke="rgb(60, 60, 60)" stroke-width="1px" opacity="0.25"></line><line x1="180.9375" y1="0" x2="180.9375" y2="177" fill="rgb(0, 0, 0)" stroke="rgb(60, 60, 60)" stroke-width="1px" opacity="0.25"></line><line x1="203.5546875" y1="0" x2="203.5546875" y2="177" fill="rgb(0, 0, 0)" stroke="rgb(60, 60, 60)" stroke-width="1px" opacity="0.25"></line><line x1="226.171875" y1="0" x2="226.171875" y2="177" fill="rgb(0, 0, 0)" stroke="rgb(60, 60, 60)" stroke-width="1px" opacity="0.25"></line><line x1="248.7890625" y1="0" x2="248.7890625" y2="177" fill="rgb(0, 0, 0)" stroke="rgb(60, 60, 60)" stroke-width="1px" opacity="0.25"></line><line x1="271.40625" y1="0" x2="271.40625" y2="177" fill="rgb(0, 0, 0)" stroke="rgb(60, 60, 60)" stroke-width="1px" opacity="0.25"></line></g><g><line x1="0" y1="177" x2="271.40625" y2="177" fill="rgb(0, 0, 0)" stroke="rgb(60, 60, 60)" stroke-width="1px" opacity="0.25"></line><line x1="0" y1="151.71428571428572" x2="271.40625" y2="151.71428571428572" fill="rgb(0, 0, 0)" stroke="rgb(60, 60, 60)" stroke-width="1px" opacity="0.25"></line><line x1="0" y1="126.42857142857142" x2="271.40625" y2="126.42857142857142" fill="rgb(0, 0, 0)" stroke="rgb(60, 60, 60)" stroke-width="1px" opacity="0.25"></line><line x1="0" y1="101.14285714285712" x2="271.40625" y2="101.14285714285712" fill="rgb(0, 0, 0)" stroke="rgb(60, 60, 60)" stroke-width="1px" opacity="0.25"></line><line x1="0" y1="75.85714285714285" x2="271.40625" y2="75.85714285714285" fill="rgb(0, 0, 0)" stroke="rgb(60, 60, 60)" stroke-width="1px" opacity="0.25"></line><line x1="0" y1="50.57142857142857" x2="271.40625" y2="50.57142857142857" fill="rgb(0, 0, 0)" stroke="rgb(60, 60, 60)" stroke-width="1px" opacity="0.25"></line><line x1="0" y1="25.285714285714278" x2="271.40625" y2="25.285714285714278" fill="rgb(0, 0, 0)" stroke="rgb(60, 60, 60)" stroke-width="1px" opacity="0.25"></line><line x1="0" y1="0" x2="271.40625" y2="0" fill="rgb(0, 0, 0)" stroke="rgb(60, 60, 60)" stroke-width="1px" opacity="0.25"></line></g></g></g><g><g><line x1="0" y1="151.71428571428572" x2="271.40625" y2="151.71428571428572" fill="rgb(0, 0, 0)" stroke="rgb(153, 153, 153)" stroke-width="1.5px"></line></g></g><g><g><line x1="22.6171875" y1="0" x2="22.6171875" y2="177" fill="rgb(0, 0, 0)" stroke="rgb(153, 153, 153)" stroke-width="1.5px"></line></g></g><g><g><g><g><g><path stroke="rgb(0, 153, 136)" stroke-width="2px" d="M24.200390625,-9.870531371661599L24.4265625,16.554304974419722L24.652734375,20.289570450782776L24.87890625,21.66288190228596L25.105078125,22.127896734646384L25.33125,22.77470351968492L25.557421875,22.939208507537842L25.78359375,23.087360961096607L26.009765625,23.168927703584927L26.2359375,23.063909769058228L26.462109375,23.58716072354997L26.68828125,23.607763409614563L26.914453125,23.735644749232705L27.140625,23.87359382425035L27.366796875,23.992598073823103L27.59296875,23.738824827330433L27.819140625,24.17410366875785L28.0453125,23.962892225810464L28.271484375,24.263025283813477L28.49765625,24.25904641832622L28.723828125,24.35875919886996L28.950000000000003,24.34442624023984L29.176171874999998,24.352986829621443L29.40234375,24.504183718136375L29.628515625,25.016598292759483L29.8546875,31.293801171439014L30.080859375000003,35.87190791538785L30.307031249999998,38.05252966710498L30.533203125,46.091752026762265L30.759375,54.418326846190865L30.985546875,56.49125547919954L31.211718750000003,58.48671680688858L31.437890624999998,59.59838017395565L31.6640625,60.32960974318641L32.11640625,61.18016759838376L32.342578125,61.88600175721305L32.56875,61.99810327802385L32.794921875,62.33477709123066L33.02109375,63.12911086423057L33.247265625,63.411143098558696L33.4734375,63.77775636741093L33.699609375,63.81590223312378L33.92578125,64.10520644698823L34.151953125,64.56508191142763L34.378125000000004,65.1180010352816L34.604296875,65.79286334344319L34.83046875,65.2745708993503L35.056640625,65.49794501066208L35.2828125,65.98379613671983L35.508984375,66.02656894070762L35.735156249999996,66.71305888039726L35.961328125,66.34948251077107L36.1875,67.35991087981633L36.413671875,67.6507071682385L36.639843750000004,67.87516642468316L36.866015625,67.8398163148335L37.092187499999994,68.58216108594623L37.318359375,68.35893015350614L37.54453125,69.00116275038037L37.770703125,69.50479066371918L37.996875,69.49491132157189L38.223046875,70.26727090563092L38.44921875,69.92490761620658L38.675390625,70.30529619966235L38.901562500000004,70.53145853110722L39.127734375,70.60967187370572L39.353906249999994,71.06479982818875L39.580078125,71.30906298330852L39.80625,71.55625753743308L40.032421875,71.50230170999255L40.25859375,71.90556123426983L40.484765625,72.23483496052879L40.7109375,71.53262548787254L40.937109375000006,72.38853371143341L41.163281250000004,73.00705136571612L41.389453124999996,72.96851364203862L41.615624999999994,73.01934967722211L41.841796875,72.95382650409427L42.06796875,73.75925287178585L42.294140625,73.98554331064224L42.5203125,74.15517259495599L42.746484375,73.98855006694794L42.97265625,74.24238359928131L43.198828125000006,74.12674782105854L43.425000000000004,74.59819816691535L43.651171874999996,74.89883611883435L43.877343749999994,75.21678364276886L44.103515625,74.86601047856468L44.3296875,75.3094203727586L44.555859375,75.51776070254189L44.78203125,75.65677231550217L45.008203125,75.72307920455933L45.234375,75.97403408799853L45.460546875000006,76.43650184358869L45.68671875,76.35844675132206L45.912890624999996,76.34857494490487L46.1390625,76.58825637613025L46.365234375,76.85872126477105L46.59140625,76.79744070768356L46.817578125,76.9331139922142L47.04375,77.26601994037628L47.269921875,77.37643345764705L47.49609375,77.73627210514886L47.722265625000006,77.35908620698112L47.9484375,77.66741813932147L48.174609374999996,77.3663883294378L48.40078125,77.39769928795951L48.626953125,77.83879571301597L48.853125,77.53952172824314L49.079296875000004,78.16676575796944L49.30546875,77.80674625294549L49.531640625,77.91217111689704L49.7578125,78.00058030230659L49.983984375,78.24904839481626L50.21015625,78.21048052821841L50.436328124999996,78.3128684929439L50.6625,78.43108902658734L50.888671875,78.25344172545842L51.11484375,78.50986001321247L51.341015625000004,78.33944701296943L51.5671875,78.82538103205817L51.793359375,79.02715020520347L52.01953125,78.68141090869904L52.245703125,78.88367744003024L52.471875,78.77618778603417L52.698046874999996,78.77391199554715L52.92421875,78.9898031268801L53.150390625,79.14318537712097L53.3765625,79.1671188558851L53.602734375000004,78.97473166670117L53.82890625,78.97906471150262L54.055078124999994,79.70023408106395L54.28125,79.36525580712727L54.507421875,79.2255282998085L54.73359375,79.52651289531163L54.959765625,79.61532147441592L55.1859375,79.36099811962673L55.412109375,79.85800966194698L55.63828125,79.62076980727059L55.864453125000004,79.97766952003751L56.090625,79.92601209027427L56.316796874999994,79.67715967553002L56.54296875,79.58018990073886L56.769140625,80.10870079483304L56.9953125,79.40781761067254L57.221484375,80.0380156465939L57.44765625,80.25779521465302L57.673828125,80.62729466812951L57.900000000000006,79.9971945966993L58.126171875000004,80.14952938045774L58.352343749999996,80.30130652018956L58.578515624999994,80.24396714993885L58.8046875,80.39638482672828L59.030859375,80.39039392130715L59.25703125,80.8187097481319L59.483203125,80.27647628954479L59.709375,80.78134006261826L59.935546875,80.78696171726499L60.161718750000006,80.88742053508759L60.387890625000004,80.74831849336624L60.614062499999996,80.54340692077365L60.840234374999994,81.0051738534655L61.06640625,80.67032368694034L61.292578125,80.9210826413972L61.51875,80.73983326128551L61.744921875,81.0964616877692L61.97109375,81.5506175330707L62.197265625,80.83404495886394L62.423437500000006,81.14927961996624L62.649609375,81.3877402629171L62.875781249999996,81.20558659519467L63.101953125,81.58824343340737L63.328125,81.53089652742658L63.554296875,81.22449374198914L63.78046875,81.78392373664039L64.006640625,81.52577223096576L64.2328125,81.46561449766159L64.458984375,81.73219094957624L64.68515625,81.66802420786449L64.911328125,81.4849059666906L65.1375,81.47021882874625L65.36367187500001,81.78102248055595L65.58984375,81.69364569016865L65.81601562499999,82.11331803458077L66.0421875,81.51324784755707L66.268359375,81.44180159057889L66.49453125,82.1882307274001L66.720703125,81.52070822034564L66.946875,82.23080006667546L67.173046875,81.97876757383347L67.39921875,81.86157943521228L67.62539062500001,81.89506068399974L67.8515625,81.97673292670932L68.077734375,81.93368883643832L68.30390625,82.10902266842979L68.530078125,82.1822247505188L68.75625000000001,82.53929024934769L68.982421875,81.82512910876956L69.20859375,82.46732402699334L69.43476562500001,81.98811941487449L69.6609375,82.43449085099357L69.88710937500001,82.62249978099551L70.11328125,82.34548634290695L70.33945312499999,82.13065021378654L70.565625,82.3337984255382L70.79179687499999,82.4871580685888L71.01796875,82.36195191315242L71.244140625,82.27121418714523L71.47031249999999,82.30003081900733L71.696484375,82.77716310535159L71.92265625,82.66241654327938L72.148828125,82.56772255897522L72.375,82.72348609992436L72.601171875,82.64600372314453L72.82734375,82.9179305434227L73.053515625,82.59801619393485L73.505859375,83.07691937685013L73.73203125,82.86680061476571L73.95820312500001,82.90862391676221L74.18437499999999,82.65693806750434L74.410546875,83.12593176535198L74.63671875,83.04679152795246L74.86289062499999,83.26367737565722L75.0890625,83.56593550954547L75.315234375,83.209073475429L75.54140625,83.32275749955859L75.767578125,83.24912588085446L75.99375,83.30984125818524L76.219921875,83.41003632545471L76.44609375,83.46973437922341L76.672265625,83.9050885779517L76.8984375,83.39565061671394L77.124609375,83.80502161809376L77.35078125,83.45216859238488L77.576953125,83.66059935092926L77.80312500000001,83.35844671726227L78.029296875,83.81002534287316L78.25546875,83.61191099882126L78.48164062500001,84.15171795231956L78.70781249999999,83.8723533664431L78.933984375,83.52045737845557L79.16015625,84.25826564005443L79.38632812499999,83.99504258802959L79.6125,84.21686433894294L79.838671875,84.07617979390281L80.06484375,84.14648815563747L80.291015625,84.13657867056983L80.5171875,84.05039252553668L80.743359375,84.50456344229835L80.96953125,84.25704485177994L81.19570312500001,84.40890488454274L81.421875,84.58687622206551L81.648046875,84.24317157268524L81.87421875000001,84.43757833753314L82.100390625,84.66090723446437L82.32656250000001,84.3785434280123L82.552734375,85.3162369302341L83.005078125,84.76435773713249L83.23124999999999,84.64159315824509L83.457421875,84.90122920274734L83.68359375,84.78346834863935L83.90976562499999,85.08760287931987L84.1359375,84.99350421769279L84.362109375,85.25265797546932L84.58828125,85.26128638642174L84.814453125,85.00253955807004L85.040625,84.80627900362015L85.266796875,85.39331991331917L85.49296875,84.95769442830768L85.71914062500001,85.30041189704623L85.9453125,85.33385546718326L86.171484375,85.55079406499863L86.39765625000001,85.20218365533012L86.623828125,85.43900904485157L86.85000000000001,85.99632149934769L87.076171875,85.70480178083692L87.30234374999999,85.49511255536761L87.528515625,85.48843589850834L87.980859375,85.74536661590848L88.20703125,85.79021174567086L88.43320312499999,85.7770995753152L88.659375,86.37824737174171L88.885546875,86.14617702790669L89.11171875,85.62619658027377L89.337890625,85.99983314956937L89.5640625,85.7688780937876L89.790234375,85.92400109767914L90.01640625,86.27940873588834L90.24257812500001,86.06672028984342L90.46875,86.09687828166145L90.694921875,85.88535787378039L90.92109375000001,86.25836144174848L91.14726562499999,86.60724313770022L91.3734375,86.35141263689313L91.599609375,86.60821524688176L91.82578124999999,86.41150254862649L92.051953125,86.67668489047459L92.278125,86.66563751016345L92.504296875,86.83936623164585L92.73046875,86.86908715111869L92.956640625,86.80811555896487L93.408984375,86.88778329747063L93.63515625,87.2433642574719L93.861328125,87.26987495592662L94.0875,87.1308256643159L94.313671875,87.22616772140775L94.53984375,87.3408916762897L94.76601562500001,87.14208404506955L94.9921875,87.22982255050114L95.218359375,86.979462989739L95.44453125000001,87.55545651912689L95.67070312499999,87.23048569474902L95.896875,87.40568388359887L96.123046875,87.53394200972149L96.34921874999999,87.35520956345967L96.575390625,87.72375197921481L96.8015625,87.64217016526631L97.027734375,87.26861648900169L97.25390625,87.7547162941524L97.480078125,87.50235222918647L97.70625,87.93444345678601L97.932421875,87.65051975420543L98.15859375000001,87.77699944802693L98.384765625,87.88304224184581L98.6109375,88.21200700317111L98.83710937500001,88.02527914728437L99.06328125,87.72702248607364L99.28945312500001,88.65937315566198L99.515625,88.68099316528865L99.74179687499999,88.21682987042836L99.96796875,88.06936316830772L100.19414062499999,88.21408686467579L100.4203125,88.27672385317939L100.646484375,88.4165719321796L100.87265624999999,87.86755631651197L101.098828125,88.30306122984204L101.325,88.26808037076678L101.551171875,88.54259571433067L101.77734375,88.39712221281869L102.003515625,88.96010907207216L102.2296875,88.63934695294925L102.455859375,88.76054409997805L102.68203125000001,89.11615897076472L102.908203125,88.8351478278637L103.134375,88.92414480022022L103.36054687500001,89.1849790258067L103.58671875,88.89970265967504L103.81289062500001,88.93513189469064L104.0390625,89.00318330526352L104.26523437499999,89.08643051556179L104.49140625,89.01001444458961L104.71757812499999,89.12740981578827L104.94375,89.22859959942953L105.169921875,89.24377655982971L105.39609374999999,88.97587758728436L105.622265625,89.57639991811344L105.8484375,89.13325754233769L106.30078125,89.89366545847484L106.526953125,89.76386627554893L106.753125,89.718131929636L106.979296875,89.83033895066806L107.20546875000001,89.87163098369325L107.431640625,89.94453540444374L107.6578125,89.97038672651564L107.88398437500001,90.1558109010969L108.11015624999999,89.71079966425896L108.336328125,90.42143408315523L108.5625,89.9876171733652L108.78867187499999,90.3479117325374L109.01484375,90.32152160576412L109.241015625,90.09861470971788L109.4671875,90.25117556537901L109.693359375,90.21963853495463L109.91953125,90.2061759531498L110.145703125,90.31479219879424L110.371875,90.00370218924114L110.598046875,90.97088300330297L110.82421875,90.60659450718335L111.050390625,90.81892123818398L111.2765625,90.64077281100408L111.502734375,90.10462822232927L111.955078125,90.71917077898979L112.18125,90.75586978452547L112.40742187500001,90.50470013277872L112.63359374999999,90.7129123551505L112.859765625,91.20704148071154L113.0859375,90.90810660379275L113.31210937499999,90.89726645605906L113.53828125,91.46284937432834L113.764453125,91.61550442661559L113.990625,91.0567714869976L114.216796875,91.08708396128246L114.44296875,91.80857736723765L114.669140625,91.68248199565069L114.8953125,91.28654720102037L115.12148437500001,91.10516217776707L115.34765625,91.14198929071426L115.573828125,91.24030042546137L115.80000000000001,91.6704285953726L116.026171875,91.86893856525421L116.25234375000001,91.35335521612848L116.478515625,91.6479532803808L116.70468749999999,91.92512873666628L117.15703124999999,91.84174211536134L117.383203125,91.70752699460303L117.609375,92.02108872362545L117.83554687499999,91.90411912117685L118.06171875,92.16753433431899L118.287890625,92.14560912762369L118.5140625,91.877175118242L118.740234375,92.02877516831671L118.96640625,92.33283434169634L119.192578125,92.6373946411269L119.41875,92.29850155540875L119.64492187500001,92.18478362049376L119.87109375,92.54725223779678L120.32343750000001,92.09926061970846L120.549609375,92.28233741436685L120.77578125000001,92.45098705376898L121.001953125,92.20479098388127L121.22812499999999,92.68914249965123L121.454296875,92.20073676109314L121.68046874999999,92.8547816148826L121.906640625,92.85108157140867L122.1328125,92.81264181222235L122.35898437499999,92.74297398754528L122.58515625,92.5590456553868L122.811328125,93.01503645096506L123.0375,92.51071525045803L123.263671875,92.80648512073925L123.48984375,93.05249279737473L123.716015625,92.77787572145462L123.9421875,93.20589765480587L124.16835937500001,93.23136088677815L124.39453125,93.033310596432L124.620703125,93.26540731532232L124.84687500000001,92.99534935610636L125.07304687499999,93.5977066372122L125.29921875,93.59222816143716L125.525390625,93.41555296948978L125.75156249999999,93.02360080821173L125.977734375,93.07984372973442L126.20390625,93.59779329810823L126.430078125,93.54963244710649L126.65625,93.60666662028858L126.882421875,93.58797424180166L127.10859375,93.32025235891342L127.334765625,93.36472447003638L127.5609375,93.4513552231448L127.787109375,93.90791496634483L128.01328125,93.44646453431675L128.23945312499998,93.64866324407713L128.465625,93.63025345546858L128.691796875,93.54571763532503L128.91796875,93.75276558739797L129.144140625,94.07529106736183L129.3703125,93.89385329399789L129.596484375,93.84368040306227L129.82265625,93.89536044001579L130.048828125,93.70539598805563L130.275,93.71837251526968L130.501171875,93.79450222849846L130.72734375000002,94.47010303820883L130.953515625,94.08923216802732L131.1796875,93.92609491518566L131.405859375,94.2624597634588L131.63203124999998,94.43956825988634L131.858203125,93.96039755855287L132.084375,94.02534801619394L132.310546875,93.32493581516401L132.53671875,93.89836342845643L132.762890625,94.00633160131319L132.9890625,94.01848296608244L133.215234375,93.88074865937233L133.44140625,94.58146605747088L133.667578125,94.33561286330223L133.89375,94.0715307380472L134.119921875,93.98245840838977L134.572265625,93.95720994472504L134.7984375,94.32324296236038L135.024609375,94.61694050686701L135.25078125000002,94.16169951643263L135.476953125,94.23157834155218L135.703125,94.24421199304716L136.15546875,94.11130055359432L136.381640625,94.53348229612624L136.6078125,94.34489688277245L136.833984375,94.25822845101357L137.06015625,94.29384231141636L137.286328125,94.12549033335277L137.51250000000002,94.61049368977547L137.738671875,94.15675607749394L137.96484375,94.38105708360672L138.191015625,94.35208596927778L138.4171875,93.91794879095896L138.64335937500002,93.72217429109982L138.86953125000002,94.31707119941711L139.095703125,94.54751005768776L139.321875,94.73577520251274L139.548046875,94.48356938787869L139.77421875000002,94.20498475006649L140.00039062500002,94.09594650353705L140.2265625,94.14457833766937L140.45273437499998,94.46428545457975L140.67890624999998,94.43084565230778L140.905078125,94.27807756406919L141.13125,94.44483196735382L141.357421875,94.54312049491064L142.0359375,94.50446596741676L142.262109375,94.46560420734541L142.48828125,94.21566287960326L142.714453125,94.31887600677355L142.94062499999998,94.33165660500526L143.166796875,94.02393129893711L143.39296875,94.42877332653319L143.619140625,94.56614968606404L143.8453125,94.30836743116379L144.071484375,94.35510026131357L144.29765625,93.90600465876715L144.523828125,94.49524600165232L144.75,94.43635803886822L144.976171875,94.61660893474306L145.20234375,94.14189184989249L145.42851562500002,94.34525859781674L145.6546875,94.66330785410746L145.880859375,94.35361572248594L146.10703125,94.33339359079088L146.333203125,94.76922254051482L146.55937500000002,94.71486731937954L146.78554687500002,94.25281779680932L147.01171875,94.25485621179854L147.237890625,94.48258974296705L147.4640625,94.56222733855247L147.69023437500002,94.26019150870188L147.91640625000002,94.3282391514097L148.142578125,94.3955784354891L148.36874999999998,94.4449563069003L148.59492187499998,94.3241886964866L148.82109375,94.60011322157725L149.047265625,94.71056064963341L149.2734375,94.60547866140092L149.49960937499998,94.49471850054606L149.72578124999998,94.14025659646308L149.951953125,94.46135782344L150.178125,94.47953023655073L150.404296875,94.46961698361805L150.63046875,94.47515951309884L150.85664062499998,94.270142440285L151.0828125,94.69067762579238L151.308984375,94.90098854899406L151.53515625,94.41759030308043L151.761328125,94.23262204016959L151.9875,94.78889456391335L152.213671875,94.68297987750599L152.43984375,94.77386455024993L152.666015625,94.34279441407749L152.8921875,94.50326025060245L153.118359375,94.74331846833229L153.34453125,94.48841486232622L153.570703125,94.98402475884983L153.796875,95.00522653545653L154.023046875,94.53839559214457L154.24921875,94.89346035463468L154.47539062500002,94.76464081662043L154.7015625,94.80638122558594L154.927734375,94.6926180762904L155.15390625,94.76547728266036L155.380078125,94.68132955261639L155.60625000000002,94.29710151468004L155.83242187500002,94.85515623858997L156.05859375,94.66725657667433L156.284765625,94.80485147237778L156.5109375,95.06285979918071L156.73710937500002,94.79976108670235L156.96328125000002,94.85754506502832L157.189453125,94.79064662115915L157.41562499999998,94.86870171342576L157.64179687499998,94.96214853440011L157.86796875,95.25938787204878L158.094140625,94.86747338942119L158.3203125,94.9483656840665L158.54648437499998,94.86639201215336L158.77265624999998,94.62847394176892L158.998828125,94.94678694861277L159.225,95.144592327731L159.451171875,95.2515469448907L159.67734375,94.81024705512182L160.1296875,95.2135141151292L160.355859375,95.37393850513867L160.58203125,94.85340794920921L160.808203125,95.3753062401499L161.034375,94.83809534566744L161.260546875,95.04793905360357L161.48671875,95.09092662589892L161.712890625,95.06940458076342L161.9390625,95.3699822468417L162.165234375,95.42315812621797L162.39140625000002,94.94273649368967L162.617578125,95.31936851569584L162.84375,95.46258129818098L163.069921875,95.08345118165016L163.29609375,95.33456431542123L163.52226562500002,95.21332948974201L163.74843750000002,95.30399562631334L163.974609375,94.8494479230472L164.20078125,95.42414907472475L164.426953125,95.13408751998628L164.65312500000002,95.63802063039371L164.87929687500002,95.47617952312743L165.10546875,94.96888170923506L165.33164062499998,95.55704544271742L165.55781249999998,95.26639233316695L165.783984375,95.25681442022324L166.01015625,95.59786272474697L166.236328125,95.20354434422084L166.46249999999998,95.29392035518373L166.68867187499998,94.92102982316698L166.91484375,95.48361352086067L167.141015625,95.61368399006979L167.3671875,95.53622045261518L167.593359375,95.62598606944084L167.81953124999998,95.41817700862885L168.045703125,95.72533336707524L168.271875,95.48562932865961L168.498046875,95.38144409230777L168.72421875,95.26228912813322L168.950390625,95.59115215710231L169.1765625,95.75239417382649L169.402734375,95.94062540786608L169.62890625,95.76341894694737L169.855078125,95.59562084504536L170.08125,95.76806849241257L170.307421875,95.54897467579161L170.53359375,95.4534253861223L170.759765625,95.46978168828146L170.9859375,95.90837625094822L171.212109375,95.81727304203169L171.43828125000002,95.57252760018622L171.664453125,95.89128521510533L171.890625,96.00910635505403L172.116796875,95.99748625925609L172.34296875,95.77512193577631L172.56914062500002,95.59600139941489L172.79531250000002,95.60263660975865L173.021484375,95.78097719805582L173.24765625,95.88582181079046L173.473828125,95.86834645271301L173.70000000000002,95.64490828769549L173.92617187500002,95.86385515757969L174.15234375,95.81940188578197L174.37851562499998,95.70571409378732L174.60468749999998,95.9241334625653L174.830859375,95.97861302324704L175.05703125,96.10144165584019L175.283203125,95.79647819484984L175.50937499999998,95.95042939271246L175.73554687499998,95.96556490659714L175.96171875,95.8410859491144L176.187890625,96.0696258034025L176.4140625,95.4932517196451L176.640234375,95.87254385437285L176.86640624999998,96.20343776260103L177.092578125,96.18750722919191L177.31875,96.42449086904526L177.544921875,96.44483734028681L177.77109375,96.35598731466702L177.997265625,96.43060611401285L178.2234375,95.70743977597782L178.449609375,96.23515565054758L178.67578125,95.75996758256639L178.901953125,96.02386508243426L179.128125,95.85779643058777L179.35429687500002,96.09276049477712L179.58046875,96.03397426434925L179.806640625,96.46311148575374L180.0328125,96.41125812700817L180.258984375,96.44891040240014L180.48515625000002,96.66592812538147L180.71132812500002,96.41270498718535L180.9375,95.955191974129L181.163671875,96.0108885552202L181.38984375,96.49535687480653L181.61601562500002,96.42369584952081L181.84218750000002,95.70689343554632L182.068359375,96.38621312805584L182.29453124999998,96.26407024690083L182.52070312499998,96.32687302146638L182.746875,95.83048317687853L182.973046875,96.20296301160539L183.19921875,96.27669636266573L183.42539062499998,96.45611079250062L183.65156249999998,96.34998133778572L183.877734375,96.77967243535177L184.10390625,96.4197358233588L184.330078125,96.33975535205433L184.55625,96.30148137892996L184.78242187499998,96.25085257632391L185.00859375,96.4676404595375L185.234765625,96.87259929094995L185.4609375,96.59899953859194L185.687109375,96.58250759329115L185.91328125,96.38489060742513L186.139453125,96.6014147400856L186.365625,96.59478329760687L186.591796875,96.74399075337818L186.81796875,96.5819989315101L187.044140625,96.81843246306693L187.2703125,96.50903799278395L187.496484375,96.63554406166077L187.72265625,96.56779784815653L187.948828125,96.98895096353122L188.175,96.79435203756606L188.40117187500002,96.6116821723325L188.62734375,96.66607883998326L188.853515625,96.78232878020832L189.0796875,97.06740168162754L189.305859375,97.33367670433863L189.53203125000002,96.67406294601305L189.75820312500002,97.05592099683626L189.984375,96.4368343949318L190.210546875,96.83055745278085L190.43671875,96.9056057887418L190.66289062500002,96.7762210709708L190.88906250000002,97.12736725381443L191.115234375,97.27789723021642L191.34140624999998,97.0063095177923L191.56757812499998,97.05160302349499L191.79375,97.1413648724556L192.019921875,96.66424012184143L192.24609375,97.02481727089202L192.47226562499998,97.10403663345745L192.69843749999998,97.07861108013562L192.924609375,97.08020488704955L193.15078125,97.11003507460867L193.376953125,97.30366189139231L193.603125,97.59452976925031L193.82929687499998,97.1852605002267L194.05546875,97.13862940243312L194.281640625,97.2030410553728L194.5078125,97.3811593396323L194.733984375,97.4247007880892L194.96015625,97.423419713974L195.186328125,97.20577652539527L195.4125,97.11499735287258L195.638671875,97.71089274542673L195.86484375,97.78820556827954L196.091015625,97.45962512918881L196.31718750000002,97.435382685491L196.543359375,97.65494748524257L196.76953125,97.65640188114985L196.995703125,97.2120801636151L197.221875,97.39892859118326L197.44804687500002,97.393348383052L197.67421875000002,97.3501686496394L197.900390625,97.60111599734851L198.1265625,97.82582016502107L198.57890625000002,97.30027081285203L198.80507812500002,97.6673399933747L199.03125,97.33683040738106L199.25742187499998,97.7694265288966L199.48359374999998,97.77443025367602L199.709765625,97.64990608181273L199.9359375,98.16370723077229L200.162109375,97.84153593012265L200.38828124999998,98.12482663137571L200.61445312499998,97.66312375238964L200.840625,97.66374921798706L201.066796875,97.6042056466852L201.29296875,98.2818561749799L201.519140625,97.80199595434324L201.74531249999998,97.8933365387576L201.971484375,97.78493506142071L202.19765625,98.16713975582803L202.423828125,97.3923122201647L202.65,97.56228061233247L202.876171875,97.85349513377463L203.10234375,98.15301402977535L203.328515625,97.9734112066882L203.5546875,97.91885628870556L203.780859375,97.7625953895705L204.00703125,97.94252978478158L204.233203125,97.82756091867174L204.459375,98.52754358308657L204.685546875,98.44341469236782L204.91171875,98.17827379703522L205.137890625,98.27274547730173L205.36406250000002,98.14973221932138L205.590234375,97.84311466557638L206.042578125,98.63002951230322L206.26875,98.2207866183349L206.49492187500002,98.54082153950418L206.72109375000002,97.7096606535571L206.947265625,98.19432113426073L207.1734375,98.31225907802582L207.399609375,98.26606128471239L207.62578125000002,98.61657823409354L207.85195312500002,98.69397771784237L208.078125,98.5735906617982L208.30429687499998,98.40739013467515L208.53046874999998,98.56665025438582L208.756640625,98.42815483893668L208.9828125,98.59002985698835L209.208984375,98.85542319927896L209.43515624999998,98.4648161658219L209.66132812499998,98.46922456792423L209.8875,98.77701392769814L210.113671875,98.53988334110805L210.33984375,98.56796523928642L210.566015625,98.55119447197234L210.79218749999998,98.71370249135153L211.018359375,98.66504428216389L211.24453125,98.92894178203174L211.470703125,98.81058560524667L211.696875,98.6492079453809L211.923046875,98.95928816710199L212.14921875,98.90866690022604L212.375390625,99.04634468896047L212.6015625,99.13104252730096L212.827734375,98.84058911459788L213.05390625,99.20106453129223L213.28007812500002,98.82947768058096L213.50625,99.3459050314767L213.732421875,99.00175577402115L213.95859375,98.94496651206697L214.184765625,99.40685024857521L214.41093750000002,99.09418903929846L214.63710937500002,99.39769433651651L214.86328125,99.03371480533055L215.089453125,99.45536904675619L215.315625,99.45180841428892L215.54179687500002,99.21752256580761L215.76796875000002,99.45006389277323L215.994140625,99.67626390286854L216.22031249999998,99.52910239781653L216.44648437499998,99.57106887868473L216.898828125,99.72757468904769L217.125,99.85969487684115L217.35117187499998,99.58864596911839L217.57734374999998,100.13542724081448L217.803515625,99.47842084509985L218.255859375,99.52338277867862L218.48203125,100.14890112621444L218.70820312499998,99.97650246109282L218.934375,99.35428099547113L219.160546875,100.11223226359913L219.38671875,99.5207942553929L219.612890625,99.90732822673662L219.8390625,99.71713770287379L220.065234375,100.17387076786586L220.29140625,100.3829307598727L220.517578125,100.4383899654661L220.74375,100.22636466366905L220.969921875,100.10684798445021L221.19609375,100.12560818450793L221.422265625,99.99489341037615L221.6484375,99.90423104166985L221.874609375,100.20005366206169L222.10078125,99.84584420493671L222.32695312500002,100.35264466064318L222.553125,100.39924561551639L222.779296875,100.2711155968053L223.00546875,100.23893049359322L223.231640625,100.37320213232721L223.45781250000002,100.26998146942684L223.68398437500002,100.45853297199523L223.91015625,100.68308265720094L224.136328125,99.89330046517509L224.3625,100.61764614496911L224.58867187500002,100.35149169393948L224.81484375000002,100.71781483718327L225.041015625,100.13726972682136L225.26718749999998,100.28409212401935L225.49335937499998,100.15851294994354L225.71953125,101.10269094790732L225.945703125,100.62057000824383L226.171875,100.36061746307782L226.39804687499998,100.53973046370915L226.62421874999998,100.73715528845787L226.850390625,100.60056264485632L227.0765625,100.99264668141092L227.302734375,100.84973532812937L227.52890625,100.64472202318056L227.75507812499998,100.62162501045636L227.98125,101.17979653818267L228.207421875,101.10307903800691L228.43359375,100.8045963048935L228.659765625,101.1810210943222L228.8859375,101.00364507947648L229.112109375,101.09180935365814L229.564453125,101.20541802048683L229.790625,101.02879557865008L230.016796875,101.62307078923499L230.24296875000002,100.98373944844519L230.469140625,101.01836612820625L230.6953125,101.25558337569237L230.921484375,101.42692327073642L231.14765625,100.958958200046L231.37382812500002,101.50426246864455L231.60000000000002,101.38641118577549L231.826171875,101.40500559977123L232.05234375,100.97358128428459L232.278515625,101.35346120595932L232.50468750000002,101.3224780516965L232.95703125,101.33147571342333L233.18320312499998,101.31206367271288L233.40937499999998,101.50776281527111L233.635546875,101.94766859497344L233.86171875,101.30146090047701L234.087890625,101.66298755151885L234.31406249999998,101.92446231416294L234.54023437499998,101.30328077929362L234.76640625,101.93125577483858L234.992578125,101.62382059437888L235.21875,101.87172727499689L235.444921875,101.91028007013458L235.67109374999998,101.55201639022147L235.897265625,101.3317093210561L236.1234375,101.88369024651392L236.349609375,101.79395854047367L236.801953125,101.80779790878296L237.028125,101.93404399497169L237.254296875,101.79039414014136L237.706640625,101.70364281535149L237.9328125,102.09665374670709L238.158984375,101.91604490365302L238.38515625,101.66794229405268L238.611328125,101.65009391733578L238.8375,102.38077337827002L239.063671875,102.0913975749697L239.28984375000002,102.28861893500601L239.516015625,101.99622130393982L239.7421875,101.84305758987153L239.968359375,101.87987716708864L240.19453125,102.19036055036953L240.42070312500002,101.85607179573604L240.64687500000002,102.02530168635505L240.873046875,102.56033852270672L241.09921875,102.28656544855663L241.325390625,102.3829549721309L241.55156250000002,102.34602235896247L241.77773437500002,101.91908180287906L242.00390625,102.4698419400624L242.23007812499998,102.13948683653558L242.45624999999998,101.99299601146153L242.682421875,102.06818375842913L242.90859375,102.45412994282587L243.134765625,102.26350988234793L243.36093749999998,102.17306604981422L243.58710937499998,102.30685163395746L243.81328125,102.39063764895712L244.039453125,101.72959210191453L244.265625,102.71692722610065L244.491796875,102.22994574052947L244.71796874999998,101.90953780072077L244.944140625,102.14787410412515L245.1703125,102.56281777790615L245.396484375,102.18993854948452L245.62265625,102.34172322494643L245.848828125,102.26791074872017L246.075,102.42163587468012L246.301171875,102.18351433958327L246.52734375,102.11678168177605L246.753515625,102.39490287218774L246.9796875,102.4785946905613L247.20585937500002,102.59279868006706L247.43203125,102.30311391183308L247.884375,102.43269832645143L248.110546875,102.11906124012812L248.33671875000002,102.38027225221907L248.56289062500002,102.1591061098235L248.7890625,102.31874301603862L249.015234375,102.32778966001102L249.24140625,102.43807506987027L249.46757812500002,102.16744816303253L249.69375000000002,102.15931334240096L249.919921875,102.50368113602912L250.37226562499998,102.41837667141641L250.5984375,102.04561047894614L250.824609375,102.18969740612167L251.05078125,102.26763946243695L251.27695312499998,102.32332473993301L251.50312499999998,102.5275354896273L251.729296875,102.36457909430777L251.95546875,102.10524071114405L252.181640625,102.27218727554595L252.4078125,102.12962633371353L252.63398437499998,102.56147265008518L252.86015625,102.35959797671863L253.086328125,102.33215284773281L253.3125,102.39659464359283L253.538671875,102.36566423944065L253.76484375,102.43199373568808L253.991015625,102.57348460384777" style="fill: none;" fill="none"></path></g><g><path stroke="rgb(51, 187, 238)" stroke-width="2px" d="M22.6171875,-59.1685391153608L24.87890625,9.885756560734336L27.140625,3.242950201034546L29.40234375,16.834468347685657L31.6640625,-5.796489613396773L33.92578125,18.17162336621965L36.1875,24.063825794628684L38.44921875,26.291221823011142L40.7109375,15.948809061731595L42.97265625,-8.639404075486311L45.234375,-2.9370568309511498L47.49609375,23.421239018440247L49.7578125,35.05317344835828L52.01953125,17.028905255453907L54.28125,21.096029213496593L56.54296875,36.71089842489789L58.8046875,12.670600686754483L61.06640625,46.13520304645809L63.328125,27.534165143966675L65.58984375,43.88695565291812L67.8515625,32.62808507680893L70.11328125,44.39803640331539L72.375,12.545296566826948L74.63671875,44.32918997321809L76.8984375,26.426691642829354L79.16015625,43.716708438737044L81.421875,42.67137456791741L83.68359375,35.97883992535728L85.9453125,25.096341388566145L88.20703125,45.86672005483081L90.46875,50.54319821936744L92.73046875,38.13155686855316L94.9921875,50.77226180689675L97.25390625,45.10528727940152L99.515625,46.791602815900546L101.77734375,41.290037563868935L104.0390625,34.91334797654832L106.30078125,23.235664129257202L108.5625,26.01036516257693L110.82421875,34.014056554862435L113.0859375,41.47006615570615L115.34765625,44.646738103457864L117.609375,50.843692992414745L119.87109375,38.479270526341026L122.1328125,21.732451762471896L124.39453125,40.98684499944957L126.65625,46.01831633704049L128.91796875,49.36947811501366L131.1796875,64.18060896226338L133.44140625,35.63271630661828L135.703125,51.79286341156278L136.15546875,60.194524245602736L136.6078125,38.04656136887414L137.06015625,32.416956526892506L137.51250000000002,59.83433141878673L137.96484375,45.450725146702354L138.4171875,34.79044021878923L138.86953125000002,62.18043780326843L139.321875,57.27638812576021L139.77421875000002,59.26210575444358L140.2265625,57.11216195992061L140.67890624999998,40.42596814462115L141.13125,60.04729115111488L141.58359374999998,54.447354478495456L142.0359375,42.01434933287757L142.48828125,43.80058865036281L142.94062499999998,53.5725541796003L143.39296875,43.70389769758495L143.8453125,61.57836311204093L144.29765625,62.29645790372575L144.75,46.20032682589124L145.20234375,53.37098093543733L145.6546875,59.80976493869508L146.10703125,48.26028646741594L146.55937500000002,49.69044746671403L147.01171875,24.563309056418262L147.4640625,68.10497604949134L147.91640625000002,62.08874303953988L148.36874999999998,63.623296507767265L148.82109375,54.30334667648587L149.2734375,55.71478138651166L149.72578124999998,46.062159214700955L150.178125,55.460073709487915L150.63046875,61.83984541041511L151.0828125,37.86514620270046L151.53515625,38.52380669116974L151.9875,53.530354091099326L152.43984375,51.2913002882685L152.8921875,34.25235894748141L153.34453125,53.27055979626519L153.796875,54.82701209613255L154.24921875,47.669711300304954L154.7015625,33.19209679535459L155.15390625,58.228361836501534L155.60625000000002,44.964971985135776L156.05859375,19.44746768474579L156.5109375,23.22386317593711L156.96328125000002,47.95807354790824L157.41562499999998,36.628525359289966L157.86796875,57.03534272738865L158.3203125,56.537698183740886L158.77265624999998,37.606565160410725L159.225,48.72568562201093L159.67734375,55.6579092315265L160.1296875,44.47636278186525L160.58203125,34.920650099005L161.034375,52.62305218832833L161.48671875,54.27480886663709L161.9390625,51.43061333043235L162.39140625000002,52.0114900129182L162.84375,46.19526281527112L163.29609375,43.21546935183662L163.74843750000002,32.83884437595094L164.20078125,49.06036246674401L164.65312500000002,32.3978835940361L165.10546875,52.59355734075818L165.55781249999998,55.64157930442265L166.01015625,60.25041675567627L166.46249999999998,40.98057527201516L166.91484375,51.83169502871377L167.3671875,55.24133407218116L167.81953124999998,36.266079349177204L168.271875,44.869991643088184L168.72421875,46.94490217311042L169.1765625,31.79461825745446L169.62890625,59.697678489344455L170.08125,60.40571308135986L170.53359375,40.46902730635236L170.9859375,63.54500027213777L171.43828125000002,40.38027901308877L171.890625,37.7397968683924L172.34296875,50.32631237166268L172.79531250000002,51.86159680570874L173.24765625,49.52413390363965L173.70000000000002,45.71800242151531L174.15234375,58.739450122628895L174.60468749999998,32.66446758168084L175.05703125,61.83845130034855L175.50937499999998,50.38362913472312L175.96171875,56.29747417994908L176.4140625,53.526608833244865L176.86640624999998,33.620239300387226L177.31875,21.499401773725253L177.77109375,42.39834753104617L178.2234375,60.94643185819898L178.67578125,51.90778329542705L179.128125,53.54354915448597L179.58046875,58.44718436683927L180.0328125,54.20783883333206L180.48515625000002,48.66359874180387L180.9375,60.416421353816986L181.38984375,42.710537757192355L181.84218750000002,47.40360959938596L182.29453124999998,48.76704924447196L182.746875,63.141032389232095L183.19921875,50.42491739988327L183.65156249999998,58.329717406204765L184.10390625,30.36952126877648L184.55625,50.493876865931924L185.00859375,34.1903172816549L185.4609375,48.52665191888809L185.91328125,54.960017732211526L186.365625,48.77677033628734L186.81796875,48.08858485732759L187.2703125,58.395421436854775L187.72265625,42.522295219557606L188.175,51.756563799721846L188.62734375,52.76623859575817L189.0796875,36.63776416437966L189.53203125000002,54.95297182457787L189.984375,56.16674433435712L190.43671875,42.91755179847988L190.88906250000002,33.24895387887955L191.34140624999998,59.495087921619415L191.79375,54.22621847902025L192.24609375,48.391573957034524L192.69843749999998,41.594880453177865L193.15078125,51.02810737916401L193.603125,58.936381357056746L194.05546875,42.0100313595363L194.5078125,43.16620074851173L194.96015625,59.25380137988499L195.4125,53.05864753041948L195.86484375,38.7568416084562L196.31718750000002,32.02073537451881L196.76953125,49.47680198294776L197.221875,60.350852966308594L197.67421875000002,62.252547204494476L198.1265625,61.128457418509896L198.57890625000002,59.2811033299991L199.03125,58.02079768691743L199.48359374999998,45.15824085474014L199.9359375,71.03801784345082L200.38828124999998,56.669724174908225L200.840625,48.41119699818748L201.29296875,50.65953482048852L201.74531249999998,35.742376250880085L202.19765625,50.942222663334434L202.65,56.77137363808495L203.10234375,58.093133160046165L203.5546875,43.40576914378573L204.00703125,60.935542728219716L204.459375,55.66931079115186L204.91171875,57.71942876917976L205.36406250000002,39.58033112117221L205.81640625,48.59304923670632L206.26875,45.70941922494342L206.72109375000002,52.19083285331726L207.1734375,50.40426949943814L207.62578125000002,45.785974706922275L208.078125,49.20577945028032L208.53046874999998,59.512389957904816L208.9828125,58.5050813811166L209.43515624999998,63.52752491406032L209.8875,61.32388904264995L210.33984375,53.59806262595313L210.79218749999998,42.36364549398422L211.24453125,51.0483483501843L211.696875,54.85897112744195L212.14921875,52.486127972602844L212.6015625,59.898799589702065L213.05390625,55.77099039724895L213.50625,37.8918754373278L213.95859375,60.336030185222626L214.41093750000002,61.01684572015489L214.86328125,47.51103896754128L215.315625,33.04330380473817L215.76796875000002,54.77179026603699L216.22031249999998,67.9549321276801L216.67265625,42.23794198036194L217.125,56.26861233370644L217.57734374999998,65.34415583099637L218.0296875,68.58576316492898L218.48203125,55.23645091908318L218.934375,54.10795273099626L219.38671875,62.16373862539018L219.8390625,54.04578295775822L220.29140625,58.263063873563496L220.74375,60.4399328316961L221.19609375,57.5991359097617L221.6484375,57.133895005498616L222.10078125,57.911604957921156L222.553125,44.25681682143892L223.00546875,49.80230784416199L223.45781250000002,61.208577300821034L223.91015625,63.15434802430016L224.3625,64.56118593897138L224.81484375000002,41.4332616499492L225.26718749999998,44.60976027590888L225.71953125,34.75880522387368L226.171875,57.57590325389589L226.62421874999998,55.88450863531658L227.0765625,61.79255870410374L227.52890625,50.2201263989721L227.98125,59.50165154252733L228.43359375,64.24311030762536L228.8859375,67.00252134459359L229.33828125,54.23859968355724L229.790625,53.41454499108451L230.24296875000002,60.1725274494716L230.6953125,69.07514101266861L231.14765625,59.04892748594284L231.60000000000002,56.45148943151746L232.05234375,65.04363845075879L232.50468750000002,31.794249006680076L232.95703125,47.31495173488344L233.40937499999998,48.85985176052364L233.86171875,54.18844939981187L234.31406249999998,52.59327851874488L234.76640625,53.22763627767563L235.21875,53.30531458343778L235.67109374999998,55.0462641630854L236.1234375,56.46096184423992L236.57578125,56.513244739600594L237.028125,48.50427080052239L237.48046875,52.04381075927189L237.9328125,56.30777552298137L238.38515625,63.01124450990132L238.8375,65.6341307248388L239.28984375000002,52.300696262291495L239.7421875,47.288471179349074L240.19453125,60.32529930557523L240.64687500000002,49.2536991579192L241.09921875,44.116825563567005L241.55156250000002,57.81350482361657L242.00390625,61.44999948569706L242.45624999999998,70.93480094841549L242.90859375,41.2761868919645L243.36093749999998,69.20639835936683L243.81328125,44.756096618516096L244.265625,65.54104938677379L244.71796874999998,57.704613523823866L245.1703125,56.28606508459363L245.62265625,57.431631701333174L246.075,49.91996319804872L246.52734375,65.91620817354747L246.9796875,49.919066446168074L247.43203125,52.67690251554761L247.884375,56.46336574213845L248.33671875000002,52.93543834345681L248.7890625,54.335064564432415L249.015234375,48.01845735311508L249.24140625,47.67355452265056L249.46757812500002,57.008583349840976L249.69375000000002,53.85244626658303L249.919921875,57.03975866522107L250.14609374999998,46.315156280994415L250.37226562499998,66.36549593721116L250.5984375,41.524383698190945L250.824609375,63.85237516675676L251.05078125,46.12789338827133L251.27695312499998,39.15499190773281L251.50312499999998,54.99709352425167L251.729296875,38.721536712987074L251.95546875,53.386685396943776L252.181640625,49.07403228112629L252.4078125,56.300360364573336L252.63398437499998,41.18925470965249L252.86015625,46.331018992832725L253.086328125,56.93551691089357L253.3125,54.771451158182956L253.538671875,60.58024059023175L253.76484375,26.490172633102958L253.991015625,55.533275791576926" style="fill: none;" fill="none"></path></g><g><path stroke="rgb(0, 153, 136)" stroke-width="2px" d="M22.6171875,-59.20596155098508L24.87890625,5.258652499743846L27.140625,-16.61959152562278L29.40234375,20.30072333131517L31.6640625,16.551396182605174L33.92578125,37.81564399174283L36.1875,34.296578611646396L38.44921875,36.925425589084625L40.7109375,37.017044995512265L42.97265625,17.04555921895161L45.234375,-45.41153633594513L47.49609375,43.44616819279534L49.7578125,41.33521426575524L52.01953125,34.99869765554155L54.28125,37.40833778040749L56.54296875,27.035224454743513L58.8046875,32.50632275002343L61.06640625,51.98722496203014L63.328125,55.02145653963089L65.58984375,52.27401977777481L67.8515625,52.64025626012257L70.11328125,57.5735370346478L72.375,54.3152682014874L74.63671875,52.28995031118393L76.8984375,55.13508781364986L79.16015625,59.474658557346885L81.421875,51.02751959221703L83.68359375,55.084688850811546L85.9453125,37.79510159151894L88.20703125,58.208459973335266L90.46875,69.11428913048336L92.73046875,55.892036829675945L94.9921875,57.27156525850296L97.25390625,59.918309594903675L99.515625,49.99331599473953L101.77734375,34.959398823125014L104.0390625,49.98541854960578L106.30078125,32.98506014687675L108.5625,56.052585559231886L110.82421875,62.316382374082295L113.0859375,64.84770946843284L115.34765625,70.48864051273891L117.609375,65.25066756350654L119.87109375,59.00905593803951L122.1328125,54.809830631528584L124.39453125,65.38376362834657L126.65625,52.3429491009031L128.91796875,67.7042560662542L131.1796875,69.2306558745248L133.44140625,66.10298124381474L135.703125,62.02117768355778L136.15546875,53.02454081603459L136.6078125,58.77052747351783L137.06015625,67.50508671998978L137.51250000000002,70.59129976374763L137.96484375,71.84890761545726L138.4171875,54.487452098301475L138.86953125000002,70.67786269528526L139.321875,72.04721035276141L139.77421875000002,76.00532243932996L140.2265625,66.81823506525585L140.67890624999998,71.08951702288219L141.13125,73.55147772175926L141.58359374999998,71.09487492697579L142.0359375,73.27885761431286L142.48828125,69.67766784770149L142.94062499999998,64.25649376426423L143.39296875,69.68702722447259L143.8453125,64.4134630220277L144.29765625,76.7177654334477L144.75,64.0873693738665L145.20234375,78.55769682782037L145.6546875,77.40046490090234L146.10703125,55.810146050793776L146.55937500000002,59.47298562526703L147.01171875,52.766818846975056L147.4640625,78.24210045167378L147.91640625000002,68.17217969042915L148.36874999999998,69.80605408123562L148.82109375,67.69688612222672L149.2734375,64.87180873325893L149.72578124999998,64.39460862534386L150.178125,67.98392208133426L150.63046875,73.80327660696847L151.0828125,74.17981443234852L151.53515625,59.14830115863255L151.9875,60.12542160068239L152.43984375,65.81220002685274L152.8921875,63.87627850260053L153.34453125,75.23349035637719L153.796875,62.97791397571564L154.24921875,71.8774755682264L154.7015625,76.68353061165128L155.15390625,69.23083673204694L155.60625000000002,72.00063200507846L156.05859375,57.51330394404275L156.5109375,53.71501715694154L156.96328125000002,76.72303290878024L157.41562499999998,50.88412972007478L157.86796875,64.02388838359288L158.3203125,74.88149640389851L158.77265624999998,59.622961725507466L159.225,72.81446071181979L159.67734375,71.67554060901914L160.1296875,55.70723058496202L160.58203125,68.32623262064797L161.034375,64.4687300665038L161.48671875,68.51094843660083L161.9390625,60.04244567666734L162.39140625000002,60.91591215133667L162.84375,78.25852080753872L163.29609375,72.01019484656197L163.74843750000002,67.78122601338795L164.20078125,61.81223449536732L164.65312500000002,54.42442325183323L165.10546875,67.86503086771283L165.55781249999998,69.77944541828973L166.01015625,58.15769175972257L166.46249999999998,67.56654813459942L166.91484375,70.12480039255959L167.3671875,68.10310718842915L167.81953124999998,66.49611274685178L168.271875,79.6151180097035L168.72421875,58.084678070885786L169.1765625,63.86220175879342L169.62890625,65.65712223734174L170.08125,73.07253686019352L170.53359375,75.66399908065796L170.9859375,76.85149449961526L171.43828125000002,59.74879334654126L171.890625,62.2859154173306L172.34296875,71.47318364892688L172.79531250000002,74.1889175942966L173.24765625,65.42452439240047L173.70000000000002,75.52635143484387L174.15234375,58.78724925858634L174.60468749999998,66.62070850815091L175.05703125,65.1400807244437L175.50937499999998,62.782188458102084L175.96171875,70.39401435000556L176.4140625,70.6070494396346L176.86640624999998,76.69327431065696L177.31875,49.05993293012891L177.77109375,74.77345664160592L178.2234375,68.68464701516288L178.67578125,66.59269066367831L179.128125,73.7233225107193L179.58046875,73.87344178983143L180.0328125,73.3117887548038L180.48515625000002,72.3742459671838L180.9375,78.53595624651227L181.38984375,64.29272555453437L181.84218750000002,65.56146367958614L182.29453124999998,58.79373752219337L182.746875,79.03539429392133L183.19921875,60.92312384503228L183.65156249999998,75.12684470415115L184.10390625,46.12301023517335L184.55625,60.457121832030154L185.00859375,59.15764546394348L185.4609375,70.04596912009376L185.91328125,70.23445280109134L186.365625,68.12068051099777L186.81796875,55.09370911972863L187.2703125,52.86422569411141L187.72265625,68.19121494463512L188.175,63.93007607970918L188.62734375,71.43243795633316L189.0796875,67.61776095628738L189.53203125000002,76.93177263225827L189.984375,77.180918940476L190.43671875,65.71250231776918L190.88906250000002,64.27548380408967L191.34140624999998,65.00186789887292L191.79375,67.91681640488761L192.24609375,64.11837890318462L192.69843749999998,65.20926626239503L193.15078125,69.72221154826028L193.603125,75.22419880117688L194.05546875,60.29331013134548L194.5078125,74.02717821938651L194.96015625,70.03767981699535L195.4125,81.84967298167092L195.86484375,71.1209711602756L196.31718750000002,71.59583519186292L196.76953125,74.69262086493629L197.221875,77.88913439001355L197.67421875000002,76.57569431407111L198.1265625,79.91418099403381L198.57890625000002,75.14649035249438L199.03125,70.0741000005177L199.48359374999998,69.73747140169144L199.9359375,77.44695281982422L200.38828124999998,81.45234407697406L200.840625,72.57363384962082L201.29296875,68.58414298295975L201.74531249999998,60.8523256608418L202.19765625,48.35146126576831L202.65,78.18012660741806L203.10234375,70.50796966041837L203.5546875,69.16890056644168L204.00703125,69.49231149469104L204.459375,76.17548676048007L204.91171875,60.393196233681266L205.36406250000002,80.22669525657382L205.81640625,56.77963279826301L206.26875,73.64445355960301L206.72109375000002,60.77207767111915L207.1734375,76.78458475215095L207.62578125000002,61.056219909872326L208.078125,52.105641424655914L208.53046874999998,65.0158240709986L208.9828125,76.53564944437572L209.43515624999998,74.09251299926213L209.8875,82.43266720431191L210.33984375,81.77528025422778L210.79218749999998,76.63953701938901L211.24453125,76.96581906080246L211.696875,66.31230875423977L212.14921875,53.060147140707286L212.6015625,63.2765851020813L213.05390625,73.9905093567712L213.50625,71.12061698096139L213.95859375,73.45969252926963L214.41093750000002,74.85564884969166L214.86328125,68.29852374110904L215.315625,64.52767454726356L215.76796875000002,73.60394147464207L216.22031249999998,70.4151520729065L216.67265625,74.60103160142899L217.125,64.16676582608903L217.57734374999998,83.23847789423806L218.0296875,83.14174926280975L218.48203125,79.80502594368798L218.934375,56.544231661728446L219.38671875,75.87779527902603L219.8390625,76.63427707978657L220.29140625,75.11470464297703L220.74375,74.53500353438514L221.19609375,82.49143836327961L221.6484375,67.85488023928234L222.10078125,65.09128687211445L222.553125,75.73552823066711L223.00546875,66.79949370452336L223.45781250000002,81.0694385596684L223.91015625,67.7662525177002L224.3625,80.10597286054066L224.81484375000002,66.76964467763901L225.26718749999998,60.06531661748886L225.71953125,61.78136814492089L226.171875,60.98602458408901L226.62421874999998,65.16861853429249L227.0765625,85.93641998086657L227.52890625,69.97340003933225L227.98125,78.7760219999722L228.43359375,78.38849708012172L228.8859375,79.65305287497384L229.33828125,76.25737753936222L229.790625,75.42515411547252L230.24296875000002,73.94894226959774L230.6953125,71.93626179865429L231.14765625,78.76844105550221L231.60000000000002,78.37580691065106L232.05234375,84.48492532968521L232.50468750000002,68.15945184230804L232.95703125,74.10264855623245L233.40937499999998,72.08379632234573L233.86171875,80.24943055425372L234.31406249999998,63.697387806006844L234.76640625,74.48538828747613L235.21875,79.75510173184531L235.67109374999998,65.08601939678192L236.1234375,71.76369357960564L236.57578125,63.04483125891004L237.028125,64.62942197493145L237.48046875,83.74181191410337L237.9328125,75.28791339908328L238.38515625,76.6700115118708L238.8375,79.48568430968693L239.28984375000002,78.50178924628666L239.7421875,77.29927511726108L240.19453125,82.2399183000837L240.64687500000002,69.3545583486557L241.09921875,76.08303842374256L241.55156250000002,80.84394690820149L242.00390625,75.38229841845376L242.45624999999998,75.4348224571773L242.90859375,81.08228697947094L243.36093749999998,88.53008263451711L243.81328125,66.3190004825592L244.265625,84.61134473766599L244.71796874999998,76.21275094577244L245.1703125,78.66844945294517L245.62265625,86.60807960374015L246.075,78.58130627019065L246.52734375,60.27703295435224L246.9796875,72.86326209987912L247.43203125,79.81431749888829L247.884375,84.52105915546417L248.33671875000002,84.86704713106155L248.7890625,64.1861703310694L249.015234375,80.56186192376273L249.24140625,79.00300572599683L249.46757812500002,77.01899870804378L249.69375000000002,78.5257151893207L249.919921875,62.96878067084721L250.14609374999998,86.85703751870564L250.37226562499998,69.0360381092344L250.5984375,60.180907181331094L250.824609375,85.3073673759188L251.05078125,74.3948992405619L251.27695312499998,85.15932795831135L251.50312499999998,79.73520740440914L251.729296875,55.67380962201527L251.95546875,69.80246707371303L252.181640625,77.92182438714164L252.4078125,69.65996641772134L252.63398437499998,66.72773094688144L252.86015625,81.31251860516412L253.086328125,83.0946057353701L253.3125,74.12934011220932L253.538671875,77.89667012010302L253.76484375,57.646671295166016L253.991015625,65.87664559057781" style="fill: none;" fill="none"></path></g><g><path stroke="rgb(255, 112, 67)" stroke-width="2px" d="M24.4265625,-16.401010138647905L24.87890625,5.326519284929532L25.33125,-9.195420384407043L25.78359375,4.323815039225963L26.2359375,-12.990429128919345L27.59296875,-2.493006399699624L28.0453125,17.83400758675168L28.49765625,1.4176305873053252L28.950000000000003,13.663433126040843L29.40234375,20.388725587299888L29.8546875,-141.10311566080372L30.759375,-54.706286685807385L31.211718750000003,13.25249469280243L31.6640625,7.815510647637495L32.11640625,19.541242309979026L32.56875,13.819995454379466L33.02109375,36.97667608942302L33.4734375,0.6913067783628151L33.92578125,34.320052410875064L34.378125000000004,36.47915211745669L34.83046875,17.96383314473286L35.2828125,38.94635014874595L35.735156249999996,27.3447545681681L36.1875,29.073096871376038L36.639843750000004,39.34193829979213L37.092187499999994,-2.3341984237943336L37.54453125,19.611505457333152L37.996875,31.508418764386874L38.44921875,29.01556910787309L38.901562500000004,42.00535167115075L39.353906249999994,24.679916943822604L39.80625,26.000749570982777L40.25859375,16.671756863594055L40.7109375,31.14616114752633L41.163281250000004,36.86244949272702L41.615624999999994,27.524444052151267L42.06796875,34.798676771777L42.5203125,43.72199098552974L42.97265625,12.501333117485046L43.425000000000004,19.485161406653248L43.877343749999994,1.417962159429294L44.3296875,45.39435788563321L44.78203125,26.615695289203103L45.234375,-42.16226516451155L45.68671875,43.22721755504608L46.1390625,53.38660250391278L46.59140625,22.448436549731667L47.04375,19.254809209278648L47.49609375,34.23884738343102L47.9484375,8.153201784406406L48.40078125,37.121527893202625L48.853125,39.39010668652398L49.30546875,27.252456946032368L49.7578125,35.74355936050415L50.21015625,43.00121347393306L50.6625,43.81587111098426L51.11484375,27.93731163229259L51.5671875,37.775244942733224L52.01953125,29.4297554407801L52.471875,31.930427185126717L52.92421875,22.794281346457325L53.3765625,14.295032807758872L53.82890625,38.143840108598965L54.28125,30.173034642423886L54.73359375,23.55650537354606L55.1859375,21.517231311116916L55.63828125,40.033914250986896L56.090625,13.1322395120348L56.54296875,22.587636555944187L56.9953125,8.909939799989957L57.44765625,41.56572471346172L57.900000000000006,20.53231138842446L58.352343749999996,15.87428069114685L58.8046875,30.231526979378287L59.25703125,35.25482204982211L59.709375,45.74715062550138L60.161718750000006,36.259771943092346L60.614062499999996,53.3241011585508L61.06640625,45.33949023485184L61.51875,40.63776737451553L61.97109375,24.621243749346036L62.423437500000006,42.71719180686134L62.875781249999996,39.169015901429304L63.328125,45.96695280075073L63.78046875,25.78228121995926L64.2328125,47.80773573262351L64.68515625,46.33531435898374L65.1375,41.85021359579903L65.58984375,45.24970954656601L66.0421875,57.39275486980165L66.49453125,44.46482557909829L66.946875,27.824162644999348L67.39921875,31.784867022718686L67.8515625,45.115309800420505L68.30390625,37.44495389291217L68.75625000000001,53.029107468468794L69.20859375,51.009803090776714L69.6609375,59.39640753609794L70.11328125,45.62190679141452L70.565625,41.64958985362733L71.01796875,34.87728197234017L71.47031249999999,-20.799872006688815L71.92265625,40.328704476356506L72.375,47.364227873938404L72.82734375,39.79490349973949L73.27968750000001,36.09605820689882L73.73203125,52.80308831589562L74.18437499999999,51.757995588438845L74.63671875,47.0561596921512L75.0890625,46.19498399325778L75.54140625,57.04370738778795L75.99375,48.399222723075326L76.44609375,35.3936151266098L76.8984375,48.58101467575344L77.35078125,40.98724439314435L77.80312500000001,44.51925615753444L78.25546875,46.22251201527459L78.70781249999999,48.65063728604997L79.16015625,53.39193780081612L79.6125,30.07082753522056L80.06484375,52.75000663314546L80.5171875,5.986227239881259L80.96953125,46.432208776474L81.421875,46.05888117211205L81.87421875000001,45.534952001912245L82.32656250000001,20.30504884038652L82.77890624999999,58.328526760850636L83.23124999999999,50.512286654540475L83.68359375,49.11679001365388L84.1359375,47.58082736389977L84.58828125,54.254922074931L85.040625,39.3275299838611L85.49296875,51.8306023478508L85.9453125,31.541214261736172L86.39765625000001,43.23504717860902L86.85000000000001,40.744865170546944L87.30234374999999,56.43543079069683L87.75468749999999,29.820159009524758L88.20703125,54.26348266431263L88.659375,57.27185915197644L89.11171875,45.17674107210976L89.5640625,38.753767030579695L90.01640625,54.31857638699668L90.46875,60.274983235767905L90.92109375000001,56.66121633563722L91.3734375,34.528664026941556L91.82578124999999,60.39647427627018L92.278125,46.68430155515671L92.73046875,45.16920534202029L93.1828125,51.4115554690361L93.63515625,60.51348155736923L94.0875,58.87151379244668L94.53984375,57.78397229739598L94.9921875,53.61177765471595L95.44453125000001,65.51218000480107L95.896875,59.297259935310905L96.34921874999999,59.30331112657274L96.8015625,62.83347663709095L97.25390625,53.67497228724616L97.70625,22.189584221158725L98.15859375000001,54.25746161597115L98.6109375,31.336280081953305L99.06328125,55.118260528360096L99.515625,43.42454064743859L99.96796875,41.1416439669473L100.4203125,60.00196373462677L100.87265624999999,52.32741796118873L101.325,51.82656319652284L101.77734375,31.93430808612277L102.2296875,41.790274398667464L102.68203125000001,42.252704475607175L103.134375,46.80726206302643L103.58671875,38.86008111068179L104.0390625,47.703674835818134L104.49140625,54.35594607251031L104.94375,57.38536985431398L105.39609374999999,57.30218292985643L105.8484375,53.74354743106025L106.30078125,27.19667747191022L106.753125,59.41672386441911L107.20546875000001,54.67531031370163L107.6578125,58.68648901156017L108.11015624999999,48.71096834114621L108.5625,48.15199049030031L109.01484375,34.76319101878573L109.4671875,56.704983855996815L109.91953125,57.19261341435569L110.371875,47.067681823457974L110.82421875,55.50930463416236L111.2765625,50.20800140925816L111.72890625000001,62.25521485294614L112.18125,50.0193594779287L112.63359374999999,54.997854632990695L113.0859375,57.66978337935039L113.53828125,47.06563210487366L113.990625,42.56037326369966L114.44296875,62.568075759070254L114.8953125,62.76796853542328L115.34765625,61.428153404167716L115.80000000000001,66.43346068688801L116.25234375000001,25.131638748305164L116.70468749999999,44.30685406923294L117.15703124999999,51.15050270727703L117.609375,59.31314525433949L118.06171875,56.531089348452426L118.5140625,53.22034169094903L118.96640625,52.723654185022625L119.41875,49.06535112006324L119.87109375,52.6477392401014L120.32343750000001,40.24999377557208L120.77578125000001,57.88695558479854L121.22812499999999,66.73576403515679L121.68046874999999,50.65359666517803L122.1328125,45.4607778106417L122.58515625,67.03408851793834L123.0375,54.847230459962574L123.48984375,71.89505642652512L123.9421875,60.156672273363384L124.39453125,56.70674721683774L124.84687500000001,56.28791133846555L125.29921875,65.50326523610524L125.75156249999999,49.06407758167812L126.20390625,56.11113818202699L126.65625,51.05206346511841L127.10859375,66.29221849782127L127.5609375,36.40227259908403L128.01328125,60.17502931186131L128.465625,54.569697056497844L128.91796875,57.670672595500946L129.3703125,58.66633846930095L129.82265625,64.29461702278682L130.275,57.551962239401675L130.72734375000002,54.50421156202043L131.1796875,64.31547592367444L131.63203124999998,59.12499314546585L132.084375,53.07093830619539L132.53671875,65.59531417914799L132.9890625,56.82986597503934L133.44140625,59.519089221954346L133.89375,67.68029998029981L134.34609375,66.1641412292208L134.7984375,49.147241898945396L135.25078125000002,56.42190415518624L135.703125,55.13796646254403L135.929296875,59.78004401922226L136.15546875,42.12740789140972L136.381640625,54.81972504513604L136.6078125,48.50782012939453L136.833984375,59.17045620509556L137.06015625,51.77975124120712L137.286328125,66.2255498937198L137.51250000000002,62.0544856105532L137.738671875,36.78100332192014L137.96484375,65.74727971213204L138.191015625,67.65148334843772L138.4171875,43.18689386333736L138.64335937500002,63.832149267196655L138.86953125000002,62.546387927872786L139.095703125,63.323525164808544L139.321875,65.59166688578469L139.548046875,45.66492827449525L139.77421875000002,68.12826899119786L140.00039062500002,56.48616132565907L140.2265625,59.02060067653656L140.45273437499998,51.45869146074567L140.67890624999998,64.46562534570694L140.905078125,64.91162753105164L141.13125,65.56436493567058L141.357421875,56.55010953119823L141.58359374999998,63.27051883935928L141.80976562499998,66.64247923237937L142.0359375,65.68997802053178L142.262109375,50.97151404619217L142.48828125,62.85585021972656L142.714453125,58.94736845152718L142.94062499999998,56.14183874641145L143.166796875,55.89844220025199L143.39296875,60.691083644117626L143.619140625,53.23808079957962L143.8453125,60.42923963069916L144.071484375,57.85081422328949L144.29765625,70.67719955103738L144.523828125,51.75649597815105L144.75,56.00502003090722L144.976171875,72.38440413134438L145.20234375,72.79631467376437L145.42851562500002,68.8483532156263L145.6546875,68.90248990058899L145.880859375,57.25289925507137L146.10703125,41.963211868490475L146.333203125,59.36600086518696L146.55937500000002,50.55233152423585L146.78554687500002,66.42145626885551L147.01171875,39.935354437146884L147.237890625,60.913583610739025L147.4640625,71.41749460356576L147.69023437500002,64.32423997776849L147.91640625000002,59.57993270669664L148.142578125,59.83350248847688L148.36874999999998,60.91665065288544L148.59492187499998,43.75704720190595L148.82109375,60.966944115502486L149.047265625,52.338585913181305L149.2734375,56.423132479190826L149.49960937499998,57.152365079947884L149.72578124999998,55.797214737960275L149.951953125,59.68999204465321L150.178125,60.32226240634918L150.404296875,50.842095417635775L150.63046875,64.03093429122652L150.85664062499998,50.502633384295876L151.0828125,61.27763473136085L151.308984375,59.685425392219L151.53515625,47.74215980938504L151.761328125,44.11029208557946L151.9875,52.6121329154287L152.213671875,59.02902562277657L152.43984375,55.72369615520749L152.666015625,45.30646866559982L152.8921875,51.9193280339241L153.118359375,68.34359494277409L153.34453125,63.85738642726625L153.570703125,41.902006668703876L153.796875,54.598445866789135L154.023046875,63.97242688281196L154.24921875,67.1676744052342L154.47539062500002,66.58210296290261L154.7015625,67.50162028414863L154.927734375,46.769628626959644L155.15390625,57.50952100753784L155.380078125,59.47994863986969L155.60625000000002,66.00403710774013L155.83242187500002,59.07877651282719L156.05859375,47.559433426175815L156.284765625,55.641142232077456L156.5109375,40.44459646940231L156.73710937500002,62.01982125214168L156.96328125000002,65.72082929951804L157.189453125,55.733296675341464L157.41562499999998,44.493958711624146L157.64179687499998,48.02341586351395L157.86796875,59.39484010423932L158.094140625,54.509667430605205L158.3203125,68.66952280487332L158.54648437499998,55.367723337241586L158.77265624999998,49.53627396481377L158.998828125,66.54135727030891L159.225,62.51652382952827L159.451171875,47.06998022113527L159.67734375,61.80720816339765L159.90351562499998,50.24062358481544L160.1296875,48.13179473366054L160.355859375,49.77730429172516L160.58203125,61.682619937828605L160.808203125,62.38371412243161L161.034375,52.8871117063931L161.260546875,60.81008789369038L161.48671875,59.17881332976478L161.712890625,60.925881922245026L161.9390625,51.253425708838876L162.165234375,60.35623347759247L162.39140625000002,48.4029453737395L162.617578125,54.3127738748278L162.84375,66.19956669637135L163.069921875,61.13701047216142L163.29609375,64.36168502058301L163.52226562500002,57.31748046193803L163.74843750000002,56.708035826683044L163.974609375,61.26429648910249L164.20078125,55.63394560984203L164.426953125,52.69816834586007L164.65312500000002,44.54465910366605L164.87929687500002,47.33200509207589L165.10546875,59.247652224132L165.33164062499998,71.1591547046389L165.55781249999998,59.564620103154866L165.783984375,71.37236311605999L166.01015625,49.96725744009018L166.236328125,64.38390035288674L166.46249999999998,58.29341779436383L166.68867187499998,51.819630324840546L166.91484375,58.60848666940416L167.141015625,48.991674286978565L167.3671875,60.148616577897755L167.593359375,65.66399482318333L167.81953124999998,55.10914983068193L168.045703125,43.67368695565631L168.271875,71.37870820079532L168.498046875,62.41184500285557L168.72421875,50.20474597385952L168.950390625,48.93415405920575L169.1765625,53.83064539943422L169.402734375,57.91682721887315L169.62890625,56.80441027879715L169.855078125,55.61726903915405L170.08125,68.7178042275565L170.307421875,56.71434323276792L170.53359375,68.43140880550656L170.759765625,68.03892537525722L170.9859375,67.65519092764173L171.212109375,65.88218435219356L171.43828125000002,45.038776925631936L171.664453125,67.92562567336219L171.890625,54.707420059612815L172.116796875,57.574252929006306L172.34296875,56.86066450391496L172.56914062500002,55.76683067423957L172.79531250000002,63.34176163162503L173.021484375,66.02363754170281L173.24765625,56.15890717506409L173.473828125,68.18465885945729L173.70000000000002,66.25784803288323L173.92617187500002,50.752201693398604L174.15234375,49.46344866922924L174.37851562499998,69.77342436994824L174.60468749999998,57.72794414418084L174.830859375,66.10554339204515L175.05703125,57.91416710615158L175.283203125,58.36392208508083L175.50937499999998,55.08796689340046L175.73554687499998,66.4470551439694L175.96171875,62.302494023527416L176.187890625,48.09597740854534L176.4140625,62.24884716102055L176.640234375,68.60757910353797L176.86640624999998,63.055501852716716L177.092578125,64.6319539802415L177.31875,40.917780033179696L177.544921875,52.41786179372242L177.77109375,65.47259481464113L177.997265625,55.41604997430528L178.2234375,58.40310788154602L178.449609375,61.95765147890363L178.67578125,56.20356391157422L178.901953125,21.6732209239687L179.128125,65.08806911536625L179.35429687500002,66.16405833618981L179.58046875,64.058688385146L179.806640625,60.086823591164176L180.0328125,61.92373315777097L180.258984375,46.95292018992561L180.48515625000002,62.205230355262756L180.71132812500002,68.80083290168217L180.9375,70.47196394205093L181.163671875,64.6854350566864L181.38984375,55.862278231552665L181.61601562500002,65.28787899868829L181.84218750000002,55.40446755715779L182.068359375,46.033274761268075L182.29453124999998,49.27592202595302L182.52070312499998,53.048406473227914L182.746875,68.17113222394671L182.973046875,57.49929502180645L183.19921875,52.92351681845528L183.42539062499998,63.62038771595273L183.65156249999998,68.60607949325016L183.877734375,64.24417284556797L184.10390625,35.08055075577329L184.330078125,66.00372060707637L184.55625,53.068195300442824L184.78242187499998,66.15078037977219L185.00859375,48.69142065729412L185.234765625,61.31394941466195L185.4609375,57.49009389536721L185.687109375,48.875676793711506L185.91328125,61.13426746640886L186.139453125,57.05798006057739L186.365625,57.186373829841614L186.591796875,66.66412938492638L186.81796875,47.606245381491505L187.044140625,66.01405962875911L187.2703125,46.232677715165266L187.496484375,63.28722555296761L187.72265625,57.65251148598534L187.948828125,60.72876983029502L188.175,53.46932221310479L188.40117187500002,65.54289564064571L188.62734375,60.854744630200514L188.853515625,72.5204542023795L189.0796875,58.42927947214672L189.305859375,65.14870913539613L189.53203125000002,66.5025407246181L189.75820312500002,56.93596151896885L189.984375,67.0198158451489L190.210546875,54.50642706666673L190.43671875,57.7697297675269L190.66289062500002,46.23104999746593L190.88906250000002,50.914845355919425L191.115234375,65.88212406635284L191.34140624999998,55.46427864687783L191.56757812499998,62.20094252484185L191.79375,59.863019943237305L192.019921875,67.43652664763587L192.24609375,56.554382290158955L192.47226562499998,49.08174133300781L192.69843749999998,57.23504711048943L192.924609375,67.36149338313511L193.15078125,60.57666111843926L193.376953125,63.85028023379189L193.603125,65.09909388848713L193.82929687499998,64.78675294773919L194.05546875,48.82147228717804L194.281640625,58.70882491554532L194.5078125,63.320473194122314L194.733984375,60.28230796541486L194.96015625,60.51470234564373L195.186328125,61.02446434327534L195.4125,72.05519822665623L195.638671875,53.876756531851626L195.86484375,59.94728447709764L196.091015625,51.56302364383424L196.31718750000002,60.99319106340408L196.543359375,69.66774329117366L196.76953125,64.0344534771783L196.995703125,64.82975182362965L197.221875,67.852325626782L197.44804687500002,62.050039529800415L197.67421875000002,68.96581264053073L197.900390625,67.37865224054882L198.1265625,70.5665750333241L198.352734375,73.76662281581334L198.57890625000002,63.32614006314958L198.80507812500002,69.2337982739721L199.03125,58.57591724395752L199.25742187499998,66.55442422628403L199.48359374999998,60.92686910288674L199.709765625,61.62217584678105L199.9359375,67.37538173368999L200.162109375,44.29419404268265L200.38828124999998,74.86809034006936L200.61445312499998,68.52980283328465L200.840625,64.36754028286252L201.066796875,42.63173662764686L201.29296875,55.73174431494304L201.519140625,65.08451225076402L201.74531249999998,51.5015019433839L201.971484375,57.294511556625366L202.19765625,35.966797828674316L202.423828125,63.529838383197784L202.65,69.54686264480863L202.876171875,71.79995551279613L203.10234375,62.508867527757374L203.328515625,48.239570745400016L203.5546875,58.26603295121873L203.780859375,72.36570044926235L204.00703125,59.82228178637368L204.233203125,45.99661343438285L204.459375,64.21363806724548L204.685546875,50.90025618246624L204.91171875,48.790869687284726L205.137890625,72.0372029032026L205.36406250000002,69.66838382823127L205.590234375,69.49124895674842L205.81640625,46.59567383357455L206.042578125,58.36399744238172L206.26875,62.572212874889374L206.49492187500002,71.914589038917L206.72109375000002,49.87194552591869L206.947265625,67.34709260293415L207.1734375,67.11713979925428L207.399609375,60.7093351823943L207.62578125000002,48.773236078875385L207.85195312500002,61.59535618339265L208.078125,40.50075273002895L208.30429687499998,60.56238090991974L208.53046874999998,57.133631254945485L208.756640625,65.75137161357063L208.9828125,65.16443620409284L209.208984375,52.6920719402177L209.43515624999998,65.94418080363954L209.66132812499998,42.146932968071525L209.8875,75.14078580481666L210.113671875,55.942383042403634L210.33984375,71.43475142547062L210.566015625,59.06094697543553L210.79218749999998,62.78488624947411L211.018359375,41.57494091136115L211.24453125,67.93550501550946L211.470703125,64.52418550423214L211.696875,54.00322115421295L211.923046875,59.77761751413345L212.14921875,40.05108817986081L212.375390625,66.17508310931069L212.6015625,50.69340792724064L212.827734375,55.12398014749799L213.05390625,66.06436816283635L213.28007812500002,68.74832393441882L213.50625,61.0327837892941L213.732421875,57.131287642887656L213.95859375,61.64798572233745L214.184765625,61.38882442883083L214.41093750000002,63.98917127507073L214.63710937500002,55.80363517999649L214.86328125,53.72236449377877L215.089453125,52.09169278826032L215.315625,54.18688196795327L215.54179687500002,60.41826007195881L215.76796875000002,61.65637298992702L215.994140625,65.65048325913293L216.22031249999998,60.14533853530884L216.44648437499998,53.33694957835334L216.67265625,64.90201947518757L216.898828125,40.457836747169495L217.125,55.45755677563804L217.35117187499998,55.70120200089046L217.57734374999998,70.70224831785474L217.803515625,44.95709714719226L218.0296875,74.27073301587787L218.255859375,57.12097876412528L218.48203125,65.18847518307822L218.70820312499998,50.8251400249345L218.934375,47.444129220076974L219.160546875,71.02496595893588L219.38671875,65.74804082087108L219.612890625,67.89642471926553L219.8390625,63.825095823832925L220.065234375,66.0491007736751L220.29140625,64.44081018652234L220.517578125,60.55113760062626L220.74375,66.50486926521573L220.969921875,59.12598786183766L221.19609375,71.72752207517624L221.422265625,64.35556600775037L221.6484375,58.66862179551805L221.874609375,60.742115608283456L222.10078125,53.1620904973575L222.32695312500002,54.120439435754506L222.553125,63.357805200985496L222.779296875,72.36134479727063L223.00546875,56.56122473308018L223.231640625,58.57967003754207L223.45781250000002,72.45793778555733L223.68398437500002,70.07804872308459L223.91015625,57.64355150290898L224.136328125,58.04476884433201L224.3625,69.52877689259392L224.58867187500002,61.89577559913907L224.81484375000002,55.452688694000244L225.041015625,69.92097396509988L225.26718749999998,49.130716042859206L225.49335937499998,67.21902287006378L225.71953125,50.97385765824998L225.945703125,73.35758338655744L226.171875,48.600584966795765L226.39804687499998,69.21345933846065L226.62421874999998,53.993582955428536L226.850390625,64.7872503059251L227.0765625,76.19457476479667L227.302734375,67.83494823319572L227.52890625,59.02511457886014L227.75507812499998,53.76353972298759L227.98125,71.03250922475543L228.207421875,66.69293848105839L228.43359375,68.5030962058476L228.659765625,61.571181561265675L228.8859375,68.73705048220498L229.112109375,62.604699407305034L229.33828125,64.98237296513149L229.564453125,69.00922598157611L229.790625,68.48625384909766L230.016796875,63.93304515736443L230.24296875000002,61.871563298361636L230.469140625,64.02726439067295L230.6953125,59.89656147786549L230.921484375,73.37043180635997L231.14765625,67.98780298233032L231.37382812500002,60.19053784438542L231.60000000000002,66.08219770022801L231.826171875,64.28149731670106L232.05234375,76.08693439619881L232.278515625,66.94286096947533L232.50468750000002,55.451912513801034L232.73085937500002,58.77547091245651L232.95703125,62.19293957948685L233.18320312499998,68.78397547347205L233.40937499999998,60.01173004082271L233.635546875,66.0214295727866L233.86171875,73.23695141928536L234.087890625,59.87843051127025L234.31406249999998,52.7039407151086L234.54023437499998,44.75468743698937L234.76640625,61.873816481658395L234.992578125,71.23943283728191L235.21875,68.38396384886333L235.444921875,61.49134803669793L235.67109374999998,56.47675673450742L235.897265625,69.29338329178947L236.1234375,62.5864930834089L236.349609375,73.08335816860199L236.57578125,49.53857236249107L236.801953125,62.83352185147149L237.028125,58.080917741571156L237.254296875,57.81006099496568L237.48046875,73.50364090715136L237.706640625,59.96745762654713L237.9328125,63.808336360113955L238.158984375,59.337131483214236L238.38515625,65.38030472823552L238.611328125,56.290156986032216L238.8375,69.56310214315143L239.063671875,66.1815035513469L239.28984375000002,66.94112775155476L239.516015625,63.15066305228642L239.7421875,68.8614352430616L239.968359375,67.67822011879512L240.19453125,70.88591666732516L240.42070312500002,68.33572764056069L240.64687500000002,62.31336808204651L240.873046875,64.11427946601594L241.09921875,65.25835400819778L241.325390625,74.56912532023021L241.55156250000002,69.34614093814578L241.77773437500002,68.68830937998635L242.00390625,63.8572131054742L242.23007812499998,56.54552780730384L242.45624999999998,65.2707728913852L242.682421875,50.806466485772816L242.90859375,70.65074913842338L243.134765625,60.37632373401097L243.36093749999998,78.54654394728797L243.58710937499998,70.31110624756131L243.81328125,57.00345151765006L244.039453125,51.95246263912746L244.265625,71.30163275344032L244.491796875,69.30170273780823L244.71796874999998,65.65125943933214L244.944140625,54.033205824238905L245.1703125,69.69133012635368L245.396484375,72.98745846748352L245.62265625,74.25257944209235L245.848828125,56.95671491963523L246.075,69.61427728618894L246.301171875,70.04558479785919L246.52734375,49.00058905567441L246.753515625,60.88438265664237L246.9796875,63.61731313807624L247.20585937500002,66.75495000396457L247.43203125,69.25296917131969L247.658203125,70.88821506500244L247.884375,74.6738041469029L248.110546875,63.48150421040398L248.33671875000002,75.1658496430942L248.56289062500002,50.11301353148052L248.7890625,51.59306859970093L249.015234375,70.75095927715302L249.24140625,68.54895112344197L249.46757812500002,66.29707904372896L249.69375000000002,68.01258046286446L249.919921875,53.67400017806462L250.14609374999998,76.43804666825703L250.37226562499998,58.58763530424663L250.5984375,52.889251853738514L250.824609375,72.60933813878468L251.05078125,66.23868467126573L251.27695312499998,72.9377829347338L251.50312499999998,68.86901618753161L251.729296875,42.853844736303586L251.95546875,61.47463378735951L252.181640625,70.00495967694691L252.4078125,61.017712329115184L252.63398437499998,57.34509891271591L252.86015625,71.77450735228402L253.086328125,74.87194863387516L253.3125,61.10655105113983L253.538671875,65.78145424808774L253.76484375,49.34461020571845L253.991015625,57.5312163744654" style="fill: none;" fill="none"></path></g></g></g></g></g></g><g transform="translate(58, 177)" clip-path="url(#clip_1)"><clipPath id="clip_1"><rect width="271" height="23"></rect></clipPath><g><g><line x1="0" y1="0" x2="0" y2="5" style="visibility: inherit;" fill="rgb(0, 0, 0)" stroke="rgb(204, 204, 204)" stroke-width="1px"></line><line x1="22.6171875" y1="0" x2="22.6171875" y2="5" style="visibility: inherit;" fill="rgb(0, 0, 0)" stroke="rgb(204, 204, 204)" stroke-width="1px"></line><line x1="45.234375" y1="0" x2="45.234375" y2="5" style="visibility: inherit;" fill="rgb(0, 0, 0)" stroke="rgb(204, 204, 204)" stroke-width="1px"></line><line x1="67.8515625" y1="0" x2="67.8515625" y2="5" style="visibility: inherit;" fill="rgb(0, 0, 0)" stroke="rgb(204, 204, 204)" stroke-width="1px"></line><line x1="90.46875" y1="0" x2="90.46875" y2="5" style="visibility: inherit;" fill="rgb(0, 0, 0)" stroke="rgb(204, 204, 204)" stroke-width="1px"></line><line x1="113.0859375" y1="0" x2="113.0859375" y2="5" style="visibility: inherit;" fill="rgb(0, 0, 0)" stroke="rgb(204, 204, 204)" stroke-width="1px"></line><line x1="135.703125" y1="0" x2="135.703125" y2="5" style="visibility: inherit;" fill="rgb(0, 0, 0)" stroke="rgb(204, 204, 204)" stroke-width="1px"></line><line x1="158.3203125" y1="0" x2="158.3203125" y2="5" style="visibility: inherit;" fill="rgb(0, 0, 0)" stroke="rgb(204, 204, 204)" stroke-width="1px"></line><line x1="180.9375" y1="0" x2="180.9375" y2="5" style="visibility: inherit;" fill="rgb(0, 0, 0)" stroke="rgb(204, 204, 204)" stroke-width="1px"></line><line x1="203.5546875" y1="0" x2="203.5546875" y2="5" style="visibility: inherit;" fill="rgb(0, 0, 0)" stroke="rgb(204, 204, 204)" stroke-width="1px"></line><line x1="226.171875" y1="0" x2="226.171875" y2="5" style="visibility: inherit;" fill="rgb(0, 0, 0)" stroke="rgb(204, 204, 204)" stroke-width="1px"></line><line x1="248.7890625" y1="0" x2="248.7890625" y2="5" style="visibility: inherit;" fill="rgb(0, 0, 0)" stroke="rgb(204, 204, 204)" stroke-width="1px"></line><line x1="271.40625" y1="0" x2="271.40625" y2="5" style="visibility: inherit;" fill="rgb(0, 0, 0)" stroke="rgb(204, 204, 204)" stroke-width="1px"></line></g><g transform="translate(0, 8)"><text x="0" y="0" dx="0em" dy="0.95em" style="text-anchor: middle; visibility: hidden; font-family: &quot;Helvetica Neue&quot;, sans-serif; font-size: 12px; font-weight: 200;" fill="rgb(50, 49, 63)" stroke="none" stroke-width="1px">-100</text><text x="22.6171875" y="0" dx="0em" dy="0.95em" style="text-anchor: middle; visibility: inherit; font-family: &quot;Helvetica Neue&quot;, sans-serif; font-size: 12px; font-weight: 200;" fill="rgb(50, 49, 63)" stroke="none" stroke-width="1px">0</text><text x="45.234375" y="0" dx="0em" dy="0.95em" style="text-anchor: middle; visibility: hidden; font-family: &quot;Helvetica Neue&quot;, sans-serif; font-size: 12px; font-weight: 200;" fill="rgb(50, 49, 63)" stroke="none" stroke-width="1px">100</text><text x="67.8515625" y="0" dx="0em" dy="0.95em" style="text-anchor: middle; visibility: inherit; font-family: &quot;Helvetica Neue&quot;, sans-serif; font-size: 12px; font-weight: 200;" fill="rgb(50, 49, 63)" stroke="none" stroke-width="1px">200</text><text x="90.46875" y="0" dx="0em" dy="0.95em" style="text-anchor: middle; visibility: hidden; font-family: &quot;Helvetica Neue&quot;, sans-serif; font-size: 12px; font-weight: 200;" fill="rgb(50, 49, 63)" stroke="none" stroke-width="1px">300</text><text x="113.0859375" y="0" dx="0em" dy="0.95em" style="text-anchor: middle; visibility: inherit; font-family: &quot;Helvetica Neue&quot;, sans-serif; font-size: 12px; font-weight: 200;" fill="rgb(50, 49, 63)" stroke="none" stroke-width="1px">400</text><text x="135.703125" y="0" dx="0em" dy="0.95em" style="text-anchor: middle; visibility: hidden; font-family: &quot;Helvetica Neue&quot;, sans-serif; font-size: 12px; font-weight: 200;" fill="rgb(50, 49, 63)" stroke="none" stroke-width="1px">500</text><text x="158.3203125" y="0" dx="0em" dy="0.95em" style="text-anchor: middle; visibility: inherit; font-family: &quot;Helvetica Neue&quot;, sans-serif; font-size: 12px; font-weight: 200;" fill="rgb(50, 49, 63)" stroke="none" stroke-width="1px">600</text><text x="180.9375" y="0" dx="0em" dy="0.95em" style="text-anchor: middle; visibility: hidden; font-family: &quot;Helvetica Neue&quot;, sans-serif; font-size: 12px; font-weight: 200;" fill="rgb(50, 49, 63)" stroke="none" stroke-width="1px">700</text><text x="203.5546875" y="0" dx="0em" dy="0.95em" style="text-anchor: middle; visibility: inherit; font-family: &quot;Helvetica Neue&quot;, sans-serif; font-size: 12px; font-weight: 200;" fill="rgb(50, 49, 63)" stroke="none" stroke-width="1px">800</text><text x="226.171875" y="0" dx="0em" dy="0.95em" style="text-anchor: middle; visibility: hidden; font-family: &quot;Helvetica Neue&quot;, sans-serif; font-size: 12px; font-weight: 200;" fill="rgb(50, 49, 63)" stroke="none" stroke-width="1px">900</text><text x="248.7890625" y="0" dx="0em" dy="0.95em" style="text-anchor: middle; visibility: inherit; font-family: &quot;Helvetica Neue&quot;, sans-serif; font-size: 12px; font-weight: 200;" fill="rgb(50, 49, 63)" stroke="none" stroke-width="1px">1k</text><text x="271.40625" y="0" dx="0em" dy="0.95em" style="text-anchor: middle; visibility: hidden; font-family: &quot;Helvetica Neue&quot;, sans-serif; font-size: 12px; font-weight: 200;" fill="rgb(50, 49, 63)" stroke="none" stroke-width="1px">1.1k</text></g><line x1="0" y1="0" x2="271.40625" y2="0" fill="rgb(0, 0, 0)" stroke="rgb(204, 204, 204)" stroke-width="1px"></line></g></g></g></g></svg>