<svg viewBox="0 0 330 200" xmlns="http://www.w3.org/2000/svg"><g><g><g><g><g><line x1="58.59375" y1="177" x2="53.59375" y2="177" style="visibility: inherit;" fill="rgb(0, 0, 0)" stroke="rgb(204, 204, 204)" stroke-width="1px"></line><line x1="58.59375" y1="165.2" x2="53.59375" y2="165.2" style="visibility: inherit;" fill="rgb(0, 0, 0)" stroke="rgb(204, 204, 204)" stroke-width="1px"></line><line x1="58.59375" y1="153.4" x2="53.59375" y2="153.4" style="visibility: inherit;" fill="rgb(0, 0, 0)" stroke="rgb(204, 204, 204)" stroke-width="1px"></line><line x1="58.59375" y1="141.6" x2="53.59375" y2="141.6" style="visibility: inherit;" fill="rgb(0, 0, 0)" stroke="rgb(204, 204, 204)" stroke-width="1px"></line><line x1="58.59375" y1="129.8" x2="53.59375" y2="129.8" style="visibility: inherit;" fill="rgb(0, 0, 0)" stroke="rgb(204, 204, 204)" stroke-width="1px"></line><line x1="58.59375" y1="118" x2="53.59375" y2="118" style="visibility: inherit;" fill="rgb(0, 0, 0)" stroke="rgb(204, 204, 204)" stroke-width="1px"></line><line x1="58.59375" y1="106.2" x2="53.59375" y2="106.2" style="visibility: inherit;" fill="rgb(0, 0, 0)" stroke="rgb(204, 204, 204)" stroke-width="1px"></line><line x1="58.59375" y1="94.39999999999999" x2="53.59375" y2="94.39999999999999" style="visibility: inherit;" fill="rgb(0, 0, 0)" stroke="rgb(204, 204, 204)" stroke-width="1px"></line><line x1="58.59375" y1="82.6" x2="53.59375" y2="82.6" style="visibility: inherit;" fill="rgb(0, 0, 0)" stroke="rgb(204, 204, 204)" stroke-width="1px"></line><line x1="58.59375" y1="70.79999999999998" x2="53.59375" y2="70.79999999999998" style="visibility: inherit;" fill="rgb(0, 0, 0)" stroke="rgb(204, 204, 204)" stroke-width="1px"></line><line x1="58.59375" y1="58.999999999999986" x2="53.59375" y2="58.999999999999986" style="visibility: inherit;" fill="rgb(0, 0, 0)" stroke="rgb(204, 204, 204)" stroke-width="1px"></line><line x1="58.59375" y1="47.19999999999999" x2="53.59375" y2="47.19999999999999" style="visibility: inherit;" fill="rgb(0, 0, 0)" stroke="rgb(204, 204, 204)" stroke-width="1px"></line><line x1="58.59375" y1="35.400000000000006" x2="53.59375" y2="35.400000000000006" style="visibility: inherit;" fill="rgb(0, 0, 0)" stroke="rgb(204, 204, 204)" stroke-width="1px"></line><line x1="58.59375" y1="23.599999999999994" x2="53.59375" y2="23.599999999999994" style="visibility: inherit;" fill="rgb(0, 0, 0)" stroke="rgb(204, 204, 204)" stroke-width="1px"></line><line x1="58.59375" y1="11.800000000000011" x2="53.59375" y2="11.800000000000011" style="visibility: inherit;" fill="rgb(0, 0, 0)" stroke="rgb(204, 204, 204)" stroke-width="1px"></line><line x1="58.59375" y1="0" x2="53.59375" y2="0" style="visibility: inherit;" fill="rgb(0, 0, 0)" stroke="rgb(204, 204, 204)" stroke-width="1px"></line></g><g transform="translate(48.59375, 0)"><text x="0" y="177" dx="0em" dy="0.3em" style="text-anchor: end; visibility: hidden; font-family: &quot;Helvetica Neue&quot;, sans-serif; font-size: 12px; font-weight: 200;" fill="rgb(50, 49, 63)" stroke="none" stroke-width="1px">-0.04</text><text x="0" y="165.2" dx="0em" dy="0.3em" style="text-anchor: end; visibility: inherit; font-family: &quot;Helvetica Neue&quot;, sans-serif; font-size: 12px; font-weight: 200;" fill="rgb(50, 49, 63)" stroke="none" stroke-width="1px">-0.02</text><text x="0" y="153.4" dx="0em" dy="0.3em" style="text-anchor: end; visibility: hidden; font-family: &quot;Helvetica Neue&quot;, sans-serif; font-size: 12px; font-weight: 200;" fill="rgb(50, 49, 63)" stroke="none" stroke-width="1px">0</text><text x="0" y="141.6" dx="0em" dy="0.3em" style="text-anchor: end; visibility: hidden; font-family: &quot;Helvetica Neue&quot;, sans-serif; font-size: 12px; font-weight: 200;" fill="rgb(50, 49, 63)" stroke="none" stroke-width="1px">0.02</text><text x="0" y="129.8" dx="0em" dy="0.3em" style="text-anchor: end; visibility: inherit; font-family: &quot;Helvetica Neue&quot;, sans-serif; font-size: 12px; font-weight: 200;" fill="rgb(50, 49, 63)" stroke="none" stroke-width="1px">0.04</text><text x="0" y="118" dx="0em" dy="0.3em" style="text-anchor: end; visibility: hidden; font-family: &quot;Helvetica Neue&quot;, sans-serif; font-size: 12px; font-weight: 200;" fill="rgb(50, 49, 63)" stroke="none" stroke-width="1px">0.06</text><text x="0" y="106.2" dx="0em" dy="0.3em" style="text-anchor: end; visibility: hidden; font-family: &quot;Helvetica Neue&quot;, sans-serif; font-size: 12px; font-weight: 200;" fill="rgb(50, 49, 63)" stroke="none" stroke-width="1px">0.08</text><text x="0" y="94.39999999999999" dx="0em" dy="0.3em" style="text-anchor: end; visibility: inherit; font-family: &quot;Helvetica Neue&quot;, sans-serif; font-size: 12px; font-weight: 200;" fill="rgb(50, 49, 63)" stroke="none" stroke-width="1px">0.1</text><text x="0" y="82.6" dx="0em" dy="0.3em" style="text-anchor: end; visibility: hidden; font-family: &quot;Helvetica Neue&quot;, sans-serif; font-size: 12px; font-weight: 200;" fill="rgb(50, 49, 63)" stroke="none" stroke-width="1px">0.12</text><text x="0" y="70.79999999999998" dx="0em" dy="0.3em" style="text-anchor: end; visibility: hidden; font-family: &quot;Helvetica Neue&quot;, sans-serif; font-size: 12px; font-weight: 200;" fill="rgb(50, 49, 63)" stroke="none" stroke-width="1px">0.14</text><text x="0" y="58.999999999999986" dx="0em" dy="0.3em" style="text-anchor: end; visibility: inherit; font-family: &quot;Helvetica Neue&quot;, sans-serif; font-size: 12px; font-weight: 200;" fill="rgb(50, 49, 63)" stroke="none" stroke-width="1px">0.16</text><text x="0" y="47.19999999999999" dx="0em" dy="0.3em" style="text-anchor: end; visibility: hidden; font-family: &quot;Helvetica Neue&quot;, sans-serif; font-size: 12px; font-weight: 200;" fill="rgb(50, 49, 63)" stroke="none" stroke-width="1px">0.18</text><text x="0" y="35.400000000000006" dx="0em" dy="0.3em" style="text-anchor: end; visibility: hidden; font-family: &quot;Helvetica Neue&quot;, sans-serif; font-size: 12px; font-weight: 200;" fill="rgb(50, 49, 63)" stroke="none" stroke-width="1px">0.2</text><text x="0" y="23.599999999999994" dx="0em" dy="0.3em" style="text-anchor: end; visibility: inherit; font-family: &quot;Helvetica Neue&quot;, sans-serif; font-size: 12px; font-weight: 200;" fill="rgb(50, 49, 63)" stroke="none" stroke-width="1px">0.22</text><text x="0" y="11.800000000000011" dx="0em" dy="0.3em" style="text-anchor: end; visibility: hidden; font-family: &quot;Helvetica Neue&quot;, sans-serif; font-size: 12px; font-weight: 200;" fill="rgb(50, 49, 63)" stroke="none" stroke-width="1px">0.24</text><text x="0" y="0" dx="0em" dy="0.3em" style="text-anchor: end; visibility: hidden; font-family: &quot;Helvetica Neue&quot;, sans-serif; font-size: 12px; font-weight: 200;" fill="rgb(50, 49, 63)" stroke="none" stroke-width="1px">0.26</text></g><line x1="58.59375" y1="0" x2="58.59375" y2="177" fill="rgb(0, 0, 0)" stroke="rgb(204, 204, 204)" stroke-width="1px"></line></g></g><g transform="translate(58, 0)" clip-path="url(#clip_0)"><clipPath id="clip_0"><rect width="271" height="177"></rect></clipPath><g><g><g><line x1="0" y1="0" x2="0" y2="177" fill="rgb(0, 0, 0)" stroke="rgb(60, 60, 60)" stroke-width="1px" opacity="0.25"></line><line x1="22.6171875" y1="0" x2="22.6171875" y2="177" fill="rgb(0, 0, 0)" stroke="rgb(60, 60, 60)" stroke-width="1px" opacity="0.25"></line><line x1="45.234375" y1="0" x2="45.234375" y2="177" fill="rgb(0, 0, 0)" stroke="rgb(60, 60, 60)" stroke-width="1px" opacity="0.25"></line><line x1="67.8515625" y1="0" x2="67.8515625" y2="177" fill="rgb(0, 0, 0)" stroke="rgb(60, 60, 60)" stroke-width="1px" opacity="0.25"></line><line x1="90.46875" y1="0" x2="90.46875" y2="177" fill="rgb(0, 0, 0)" stroke="rgb(60, 60, 60)" stroke-width="1px" opacity="0.25"></line><line x1="113.0859375" y1="0" x2="113.0859375" y2="177" fill="rgb(0, 0, 0)" stroke="rgb(60, 60, 60)" stroke-width="1px" opacity="0.25"></line><line x1="135.703125" y1="0" x2="135.703125" y2="177" fill="rgb(0, 0, 0)" stroke="rgb(60, 60, 60)" stroke-width="1px" opacity="0.25"></line><line x1="158.3203125" y1="0" x2="158.3203125" y2="177" fill="rgb(0, 0, 0)" stroke="rgb(60, 60, 60)" stroke-width="1px" opacity="0.25"></line><line x1="180.9375" y1="0" x2="180.9375" y2="177" fill="rgb(0, 0, 0)" stroke="rgb(60, 60, 60)" stroke-width="1px" opacity="0.25"></line><line x1="203.5546875" y1="0" x2="203.5546875" y2="177" fill="rgb(0, 0, 0)" stroke="rgb(60, 60, 60)" stroke-width="1px" opacity="0.25"></line><line x1="226.171875" y1="0" x2="226.171875" y2="177" fill="rgb(0, 0, 0)" stroke="rgb(60, 60, 60)" stroke-width="1px" opacity="0.25"></line><line x1="248.7890625" y1="0" x2="248.7890625" y2="177" fill="rgb(0, 0, 0)" stroke="rgb(60, 60, 60)" stroke-width="1px" opacity="0.25"></line><line x1="271.40625" y1="0" x2="271.40625" y2="177" fill="rgb(0, 0, 0)" stroke="rgb(60, 60, 60)" stroke-width="1px" opacity="0.25"></line></g><g><line x1="0" y1="177" x2="271.40625" y2="177" fill="rgb(0, 0, 0)" stroke="rgb(60, 60, 60)" stroke-width="1px" opacity="0.25"></line><line x1="0" y1="165.2" x2="271.40625" y2="165.2" fill="rgb(0, 0, 0)" stroke="rgb(60, 60, 60)" stroke-width="1px" opacity="0.25"></line><line x1="0" y1="153.4" x2="271.40625" y2="153.4" fill="rgb(0, 0, 0)" stroke="rgb(60, 60, 60)" stroke-width="1px" opacity="0.25"></line><line x1="0" y1="141.6" x2="271.40625" y2="141.6" fill="rgb(0, 0, 0)" stroke="rgb(60, 60, 60)" stroke-width="1px" opacity="0.25"></line><line x1="0" y1="129.8" x2="271.40625" y2="129.8" fill="rgb(0, 0, 0)" stroke="rgb(60, 60, 60)" stroke-width="1px" opacity="0.25"></line><line x1="0" y1="118" x2="271.40625" y2="118" fill="rgb(0, 0, 0)" stroke="rgb(60, 60, 60)" stroke-width="1px" opacity="0.25"></line><line x1="0" y1="106.2" x2="271.40625" y2="106.2" fill="rgb(0, 0, 0)" stroke="rgb(60, 60, 60)" stroke-width="1px" opacity="0.25"></line><line x1="0" y1="94.39999999999999" x2="271.40625" y2="94.39999999999999" fill="rgb(0, 0, 0)" stroke="rgb(60, 60, 60)" stroke-width="1px" opacity="0.25"></line><line x1="0" y1="82.6" x2="271.40625" y2="82.6" fill="rgb(0, 0, 0)" stroke="rgb(60, 60, 60)" stroke-width="1px" opacity="0.25"></line><line x1="0" y1="70.79999999999998" x2="271.40625" y2="70.79999999999998" fill="rgb(0, 0, 0)" stroke="rgb(60, 60, 60)" stroke-width="1px" opacity="0.25"></line><line x1="0" y1="58.999999999999986" x2="271.40625" y2="58.999999999999986" fill="rgb(0, 0, 0)" stroke="rgb(60, 60, 60)" stroke-width="1px" opacity="0.25"></line><line x1="0" y1="47.19999999999999" x2="271.40625" y2="47.19999999999999" fill="rgb(0, 0, 0)" stroke="rgb(60, 60, 60)" stroke-width="1px" opacity="0.25"></line><line x1="0" y1="35.400000000000006" x2="271.40625" y2="35.400000000000006" fill="rgb(0, 0, 0)" stroke="rgb(60, 60, 60)" stroke-width="1px" opacity="0.25"></line><line x1="0" y1="23.599999999999994" x2="271.40625" y2="23.599999999999994" fill="rgb(0, 0, 0)" stroke="rgb(60, 60, 60)" stroke-width="1px" opacity="0.25"></line><line x1="0" y1="11.800000000000011" x2="271.40625" y2="11.800000000000011" fill="rgb(0, 0, 0)" stroke="rgb(60, 60, 60)" stroke-width="1px" opacity="0.25"></line><line x1="0" y1="0" x2="271.40625" y2="0" fill="rgb(0, 0, 0)" stroke="rgb(60, 60, 60)" stroke-width="1px" opacity="0.25"></line></g></g></g><g><g><line x1="0" y1="153.4" x2="271.40625" y2="153.4" fill="rgb(0, 0, 0)" stroke="rgb(153, 153, 153)" stroke-width="1.5px"></line></g></g><g><g><line x1="22.6171875" y1="0" x2="22.6171875" y2="177" fill="rgb(0, 0, 0)" stroke="rgb(153, 153, 153)" stroke-width="1.5px"></line></g></g><g><g><g><g><g><path stroke="rgb(51, 187, 238)" stroke-width="2px" d="M23.295703125,-40.435890591144556L23.521875,2.306750380992895L23.748046875,11.185147875547415L23.97421875,12.714224123954779L24.200390625,13.38891562223435L24.4265625,14.00870304703713L24.652734375,14.272066766023642L24.87890625,14.915037864446646L25.105078125,15.038719290494925L25.33125,15.476668292284018L25.557421875,15.43462645411492L25.78359375,15.75019519925118L26.009765625,26.473017895221716L26.2359375,39.55243420004845L26.462109375,41.02045219540594L26.68828125,41.819625163078314L26.914453125,42.422778719663626L27.140625,42.70742710828779L27.366796875,43.03447779417036L27.59296875,45.24235125780106L27.819140625,50.78842755556106L28.0453125,57.0951956152916L28.271484375,60.39548870325088L28.49765625,62.626229339838034L28.723828125,63.85327603816987L28.950000000000003,64.21055253744126L29.176171874999998,65.39182972311973L29.40234375,66.18156042099L29.628515625,66.37885462641715L29.8546875,67.40865107774734L30.080859375000003,67.79298838376998L30.307031249999998,68.08407228589058L30.533203125,68.5029609143734L30.759375,69.35458507537842L30.985546875,69.39925562739371L31.211718750000003,70.0697534918785L31.437890624999998,70.66386040449142L31.6640625,70.60251202583312L32.11640625,71.36562150120734L32.342578125,71.65704827904702L32.56875,71.74507063031196L32.794921875,71.78953897356986L33.02109375,72.19672586917876L33.247265625,72.31699612140655L33.4734375,72.56083350777625L33.699609375,72.8252873957157L33.92578125,72.83726167082786L34.151953125,73.22226714491843L34.378125000000004,73.80161281824111L34.604296875,74.47313930988312L34.83046875,73.98588653802872L35.056640625,74.17867940068244L35.2828125,74.521563911438L35.508984375,74.4262356698513L35.735156249999996,75.03162231445312L35.961328125,74.51186668276786L36.1875,75.39039340019225L36.413671875,75.73741879463195L36.639843750000004,75.86248051524161L36.866015625,75.65116357207297L37.092187499999994,75.97272824645042L37.318359375,76.10741686224938L37.54453125,76.38042505979539L37.770703125,76.56553398966788L37.996875,76.8680998325348L38.223046875,77.23221626281737L38.44921875,77.23471310138703L38.675390625,77.68844317793847L38.901562500000004,77.49904390573502L39.127734375,77.47211497426034L39.353906249999994,77.77768757343291L39.580078125,78.19353427886962L39.80625,78.02775826454163L40.032421875,78.41146256923676L40.25859375,78.3572442471981L40.484765625,78.57193719744681L40.7109375,78.40105321407317L40.937109375000006,78.66701048016549L41.163281250000004,78.98809161186217L41.389453124999996,79.06915094852448L41.615624999999994,79.10122301578522L41.841796875,79.0247441470623L42.06796875,79.65745974481106L42.294140625,79.8502965658903L42.5203125,79.8826851338148L42.746484375,79.87841677069665L42.97265625,79.94389724135398L43.198828125000006,79.75629586875438L43.425000000000004,80.08802812695502L43.651171874999996,80.40473099946976L43.877343749999994,80.6086101770401L44.103515625,80.49905259311198L44.3296875,80.85394654572009L44.555859375,80.96511740386485L44.78203125,80.91362890005111L45.008203125,80.7312322050333L45.234375,80.98714497089387L45.460546875000006,81.18813168406486L45.68671875,81.80791031718255L45.912890624999996,81.41814854145049L46.1390625,81.8258321672678L46.365234375,81.74185399115086L46.59140625,81.70417282879352L46.817578125,81.85688000321387L47.04375,82.15517308712005L47.269921875,82.11652483940125L47.49609375,82.22782757282258L47.722265625000006,82.08272960186004L47.9484375,82.4774718672037L48.174609374999996,82.18784738481044L48.40078125,82.67678376436234L48.626953125,82.5069943457842L48.853125,82.43513111174106L49.079296875000004,82.58734155595302L49.30546875,82.35826540887356L49.531640625,82.66487542688847L49.7578125,82.78294775784015L49.983984375,83.11555478870868L50.21015625,83.07287115752698L50.436328124999996,82.88778420686722L50.6625,82.96267178058623L50.888671875,82.93789681196213L51.11484375,82.94179152846336L51.341015625000004,83.02232775986194L51.5671875,83.15374586880206L51.793359375,83.26749708652495L52.01953125,82.90423344969749L52.245703125,83.34133844971656L52.471875,83.2038013279438L52.698046874999996,83.22828177511691L52.92421875,83.26132092773915L53.150390625,83.29189840853213L53.3765625,83.41805469393731L53.602734375000004,83.34623981416225L53.82890625,83.65409385561942L54.055078124999994,83.6059505879879L54.28125,83.82988799512387L54.507421875,84.18205212950706L54.73359375,83.77399046123027L54.959765625,83.59984036684035L55.1859375,83.51264003813266L55.412109375,84.15452975928783L55.63828125,84.01612665653228L55.864453125000004,84.34030685722827L56.090625,84.15128562748431L56.316796874999994,84.10223681628705L56.54296875,83.98685913681985L56.769140625,84.36487522125243L56.9953125,84.00176543891429L57.221484375,84.404134491086L57.44765625,84.64312326312066L57.673828125,84.85797446370125L57.900000000000006,84.6665794789791L58.126171875000004,84.50411792993545L58.352343749999996,84.28105969130993L58.578515624999994,84.55243703126906L58.8046875,84.48363330364228L59.030859375,84.66076817512513L59.25703125,84.74595960378647L59.483203125,84.59048304855823L59.709375,85.0276803612709L59.935546875,85.21684225797652L60.161718750000006,84.94531106352805L60.387890625000004,85.19990068078042L60.614062499999996,84.88368135094642L60.840234374999994,85.06890457272529L61.06640625,84.85717442035674L61.292578125,85.20805057287217L61.51875,84.96882882118226L61.744921875,85.15099693238734L61.97109375,85.72914693653583L62.197265625,85.17139364182948L62.423437500000006,85.38147974908352L62.649609375,85.64640399217606L62.875781249999996,85.36640200912952L63.101953125,85.57792555689811L63.328125,85.6578815370798L63.554296875,85.50587330162524L63.78046875,86.17665689587592L64.006640625,85.72772707939147L64.2328125,85.57958718538283L64.458984375,85.67931566536426L64.68515625,85.9603199005127L64.911328125,85.58485340476035L65.1375,85.66104654371738L65.36367187500001,85.7359429091215L65.58984375,85.8400320649147L65.81601562499999,86.19881194233893L66.0421875,85.58167960643769L66.268359375,85.71408677995204L66.49453125,86.0700972765684L66.720703125,85.63842553794385L66.946875,86.22474301755429L67.173046875,86.1505675703287L67.39921875,86.15731079280376L67.62539062500001,86.12842571139335L67.8515625,86.03135232031345L68.077734375,86.04741912484168L68.30390625,86.42233174443246L68.530078125,86.44519452154636L68.75625000000001,86.40295047461986L68.982421875,86.03541847467422L69.20859375,86.44712429642678L69.43476562500001,86.26488585174084L69.6609375,86.5549147516489L69.88710937500001,86.8753628820181L70.11328125,86.49762373566627L70.33945312499999,86.45442579090594L70.565625,86.8013281017542L70.79179687499999,86.79913018047809L71.01796875,86.67340468764304L71.244140625,86.78006541132926L71.47031249999999,86.48318778872489L71.696484375,86.79816309511662L71.92265625,86.8726946055889L72.148828125,86.91691238582133L72.375,87.02503692507743L72.601171875,86.97426933944226L72.82734375,87.33262282013892L73.053515625,86.83616515398025L73.505859375,87.37016771137714L73.73203125,86.89066920578479L73.95820312500001,87.10457969605922L74.18437499999999,87.06039708256722L74.410546875,87.20637422204017L74.63671875,87.21809353828431L74.86289062499999,87.27229427695275L75.0890625,87.63902183771133L75.315234375,87.62943010926246L75.54140625,87.48985331654548L75.767578125,87.50567834973334L75.99375,87.30892922878266L76.219921875,87.41732631027698L76.44609375,87.39533390998841L76.672265625,88.01134530603885L76.8984375,87.44545091092586L77.124609375,87.66868058741092L77.35078125,87.74006907045842L77.576953125,87.83386316299438L77.80312500000001,87.62290228307246L78.029296875,87.84732323288918L78.25546875,87.83032011389732L78.48164062500001,88.24729655086993L78.70781249999999,88.08603067100049L78.933984375,87.8626471400261L79.16015625,88.3134759604931L79.38632812499999,88.12033143043519L79.6125,88.48155100047589L79.838671875,88.21911480426787L80.06484375,88.2434765636921L80.291015625,88.2169608414173L80.5171875,88.29143960177899L80.743359375,88.66563130319118L80.96953125,88.42925805747508L81.19570312500001,88.44982180893422L81.421875,88.80807418525218L81.648046875,88.58835239112376L81.87421875000001,88.63446477949618L82.100390625,88.59102506339549L82.32656250000001,88.7640542179346L82.552734375,89.02401995062827L83.005078125,89.19393245279788L83.23124999999999,88.73082164824008L83.457421875,88.80846101939677L83.68359375,89.03653491437434L83.90976562499999,88.94758504033088L84.1359375,89.26542643606662L84.362109375,88.84068694114684L84.58828125,89.28344499468803L84.814453125,89.19484678804874L85.040625,89.15391709804534L85.266796875,89.4416118055582L85.49296875,88.90253205001353L85.71914062500001,89.3821580350399L85.9453125,89.42272287011146L86.171484375,89.58302166461944L86.39765625000001,89.28642098009585L86.623828125,89.77316823005675L86.85000000000001,89.91929043233394L87.076171875,89.88995257914065L87.30234374999999,89.48938142657279L87.528515625,89.54983744919299L87.980859375,89.78826355338096L88.20703125,89.80470400452613L88.43320312499999,89.74257316589355L88.659375,90.11668574213981L88.885546875,90.35335790514945L89.11171875,89.4902913659811L89.337890625,89.9548088401556L89.5640625,89.9574375540018L89.790234375,90.10416638255118L90.01640625,90.37017639875411L90.24257812500001,90.2978164345026L90.46875,90.10573569834231L90.694921875,90.01977499723434L90.92109375000001,90.35730976760387L91.14726562499999,90.85013646781444L91.3734375,90.52246596813201L91.599609375,90.91093536615371L91.82578124999999,90.29767576754092L92.051953125,90.89833688139915L92.278125,90.80325920283794L92.504296875,90.81103544831275L92.73046875,90.98954621851443L92.956640625,90.63928548395633L93.408984375,90.57436328530311L93.63515625,91.12128961980342L93.861328125,91.0293110102415L94.0875,91.05673667192458L94.313671875,91.00303705930709L94.53984375,91.24938886761664L94.76601562500001,90.97393658161162L94.9921875,91.37798484563827L95.218359375,90.97602021098136L95.44453125000001,91.27860803306102L95.67070312499999,91.46247293949126L95.896875,91.32490504682063L96.123046875,91.38591494560241L96.34921874999999,91.41242187619208L96.575390625,91.58977214395999L96.8015625,91.7286104351282L97.027734375,91.34613696634769L97.25390625,91.53523292541503L97.480078125,91.84474419951438L97.70625,91.85333367586135L97.932421875,91.85863506197929L98.15859375000001,91.681632065773L98.384765625,91.8061487019062L98.6109375,92.04002510905265L98.83710937500001,91.75458546876906L99.06328125,91.99946027398109L99.28945312500001,92.68081586956977L99.515625,92.34919350743293L99.74179687499999,92.21758637726306L99.96796875,92.01020810902118L100.19414062499999,92.1571083754301L100.4203125,92.38968800902366L100.646484375,92.53627177476882L100.87265624999999,92.25044530034064L101.098828125,92.3777884632349L101.325,92.55064617991447L101.551171875,92.67024826407432L101.77734375,92.70257089436053L102.003515625,92.952663564682L102.2296875,92.807609552145L102.455859375,92.79565286040305L102.68203125000001,92.99556698799132L102.908203125,92.80180703997611L103.134375,92.9833509415388L103.36054687500001,93.05137220919131L103.58671875,92.93262291848659L103.81289062500001,93.09282060861587L104.0390625,92.95342404544353L104.26523437499999,93.25685147345065L104.49140625,93.23366779983043L104.71757812499999,93.40382646918296L104.94375,93.42646066248416L105.169921875,93.39983943998813L105.39609374999999,93.4120686739683L105.622265625,93.50920800268649L105.8484375,93.48432313799857L106.30078125,93.99850923717021L106.526953125,93.7146345168352L106.753125,93.984297478199L106.979296875,93.92439972758292L107.20546875000001,93.71544774770736L107.431640625,94.29068330824374L107.6578125,93.82675048112868L107.88398437500001,93.99142313897609L108.11015624999999,94.08032905459403L108.336328125,94.51287117004394L108.5625,94.05273635089397L108.78867187499999,94.40098378956317L109.01484375,94.42595217525958L109.241015625,94.45714507400989L109.4671875,94.5215529590845L109.693359375,94.5002155393362L109.91953125,94.25004813969134L110.145703125,94.3127240628004L110.371875,94.54314533770084L110.598046875,95.11892598271369L110.82421875,94.53257333636283L111.050390625,94.609157705307L111.2765625,94.81208298504352L111.502734375,94.64995991587638L111.955078125,94.91596553623675L112.18125,94.7122534006834L112.40742187500001,94.83383800983428L112.63359374999999,95.12959029674529L112.859765625,95.36263149380683L113.0859375,95.32423820495605L113.31210937499999,95.22060621678828L113.53828125,95.39068136513232L113.764453125,95.55557821094989L113.990625,95.15031669437884L114.216796875,95.51223520338534L114.44296875,95.92763792872428L114.669140625,95.6751099616289L114.8953125,95.43137807548045L115.12148437500001,95.43635416924953L115.34765625,95.72676550745963L115.573828125,95.25306072235107L115.80000000000001,95.90711373984813L116.026171875,96.07545692622661L116.25234375000001,95.66962395012378L116.478515625,95.82401033639907L116.70468749999999,95.97205352187156L117.15703124999999,96.08775209784507L117.383203125,95.91382179558276L117.609375,96.30310882031917L117.83554687499999,95.83976064026355L118.06171875,96.19759980738162L118.287890625,96.29857231080531L118.5140625,96.33208181858062L118.740234375,96.11002583205699L118.96640625,96.4224647372961L119.192578125,96.48630555868148L119.41875,96.573448741436L119.64492187500001,96.58786710500716L119.87109375,96.89017359316348L120.32343750000001,96.34594191014766L120.549609375,96.51438620090484L120.77578125000001,96.68574053943156L121.001953125,96.49944033622741L121.22812499999999,96.852690243721L121.454296875,96.81203749179839L121.68046874999999,97.09445279240607L121.906640625,97.19545606672763L122.1328125,97.00625021159648L122.35898437499999,97.02998336553573L122.58515625,96.9413148254156L122.811328125,97.00550291836261L123.0375,97.21444171071052L123.263671875,97.11958822011947L123.48984375,97.28619065284728L123.716015625,96.98506225049495L123.9421875,97.3181088656187L124.16835937500001,97.62065712511539L124.39453125,97.29792315661906L124.620703125,97.31540102660655L124.84687500000001,97.11582098305225L125.07304687499999,97.66931470632552L125.29921875,97.79961627125739L125.525390625,98.0347103267908L125.75156249999999,97.28037934899329L125.977734375,97.44920607805251L126.20390625,97.77204115092754L126.430078125,97.86656055748462L126.65625,97.90231634080409L126.882421875,97.61864822506904L127.10859375,97.98454057574271L127.334765625,97.90535386800765L127.5609375,97.63864491283893L127.787109375,98.02637580931186L128.01328125,97.99184646606444L128.23945312499998,98.09030015170573L128.465625,97.87659626603126L128.691796875,97.90563520193099L128.91796875,98.11144415438174L129.144140625,98.10165461301803L129.3703125,98.26552283167838L129.596484375,97.93770726919173L129.82265625,98.22275128364562L130.048828125,98.15329257547855L130.275,97.99505103528499L130.501171875,97.8689343124628L130.72734375000002,98.55171855688094L130.953515625,98.24461180865764L131.1796875,98.27459585070609L131.405859375,98.45966961383819L131.63203124999998,98.33357926607131L131.858203125,98.35798058807849L132.084375,98.4683557987213L132.310546875,98.09426959753036L132.53671875,98.20867579579352L132.762890625,98.43869704902171L132.9890625,98.53881236314773L133.215234375,98.32463812232017L133.44140625,98.72675221562385L133.667578125,98.91453821361064L133.89375,98.51004157364368L134.119921875,98.37879050672053L134.572265625,98.3487405270338L134.7984375,98.68730832040309L135.024609375,98.79287008345126L135.25078125000002,98.61991126239299L135.476953125,98.37453972697257L135.703125,98.20031929910182L136.15546875,98.62080801427363L136.381640625,98.75852976143359L136.6078125,98.55370108187198L136.833984375,98.53012178242206L137.06015625,98.88085287213325L137.286328125,98.42941742539405L137.51250000000002,98.92721582353114L137.738671875,98.40345557928084L137.96484375,98.71949028372764L138.191015625,98.69163822531699L138.4171875,98.29949390292167L138.64335937500002,98.11917204558848L138.86953125000002,98.53602539896964L139.095703125,98.76443337798118L139.321875,98.7167077153921L139.548046875,98.4412818044424L139.77421875000002,98.66034861803054L140.00039062500002,98.24683170914649L140.2265625,98.36651291847228L140.45273437499998,98.69438562691211L140.67890624999998,98.55574514865874L140.905078125,98.4895657390356L141.13125,98.61603412926196L141.357421875,98.93445138037204L142.0359375,98.59011624157428L142.262109375,98.63865073919295L142.48828125,98.80636092424392L142.714453125,98.51994540691375L142.94062499999998,98.66924580335616L143.166796875,98.52697875499724L143.39296875,98.82486742138862L143.619140625,98.79867259562015L143.8453125,98.74961938858031L144.071484375,98.74095518290996L144.29765625,98.18564597666263L144.523828125,98.52905359268188L144.75,98.67935624122619L144.976171875,98.63399114608764L145.20234375,98.5551605015993L145.42851562500002,98.78101010024547L145.6546875,98.731776663661L145.880859375,98.43171205520629L146.10703125,98.71915180385112L146.333203125,98.91017314195632L146.55937500000002,98.78110241293906L146.78554687500002,98.76544002592563L147.01171875,98.65929801166057L147.237890625,98.6839059382677L147.4640625,98.9094390362501L147.69023437500002,98.79239533245563L147.91640625000002,98.62579289972781L148.142578125,98.73092826604842L148.36874999999998,98.66036620140075L148.59492187499998,98.67420431375503L148.82109375,98.7667851537466L149.047265625,99.07205883562564L149.2734375,98.92831918001174L149.49960937499998,98.93515911102294L149.72578124999998,98.68398066759109L149.951953125,98.9407989770174L150.178125,98.77357233464717L150.404296875,98.99734269976615L150.63046875,98.86339698135852L150.85664062499998,98.61434172987937L151.0828125,99.07886359989642L151.308984375,98.98807186782359L151.53515625,98.62892713546752L151.761328125,98.59672758877277L151.9875,98.7973626345396L152.213671875,98.98965437114238L152.43984375,98.93762957453727L152.666015625,98.89915276467799L152.8921875,98.92011653780936L153.118359375,98.8970471560955L153.34453125,98.77308439612388L153.570703125,99.05895922482013L153.796875,99.15916245579719L154.023046875,98.91651194691657L154.24921875,99.29039593935012L154.47539062500002,99.11245662868022L154.7015625,99.0680454313755L154.927734375,98.851475456357L155.15390625,98.95449202656745L155.380078125,99.21628203392028L155.60625000000002,98.89094133079051L155.83242187500002,98.8970471560955L156.05859375,99.10219233632087L156.284765625,99.09000706076621L156.5109375,99.43558182716369L156.73710937500002,99.23297744393348L156.96328125000002,99.14849814176559L157.189453125,99.1177448272705L157.41562499999998,99.09198958575725L157.64179687499998,98.84369921088218L157.86796875,99.33913704156875L158.094140625,99.01309739947318L158.3203125,99.28685289025306L158.54648437499998,98.97544261217116L158.77265624999998,99.01667121946811L158.998828125,99.37490601241588L159.225,99.40827045738696L159.451171875,99.34063602387904L159.67734375,99.30075694024562L160.1296875,99.34007775187492L160.355859375,99.51365638673305L160.58203125,98.91741749048232L160.808203125,99.33409061431884L161.034375,99.20452755093574L161.260546875,98.88098035156726L161.48671875,99.35039919018745L161.712890625,99.30971127152442L161.9390625,99.54306457340716L162.165234375,99.62862964868545L162.39140625000002,99.2793008327484L162.617578125,99.53665103912353L162.84375,99.56028308868407L163.069921875,99.47594445347785L163.29609375,99.3921509027481L163.52226562500002,99.62648447751998L163.74843750000002,99.44406140744685L163.974609375,99.18327365219592L164.20078125,99.64199301004409L164.426953125,99.31634459793567L164.65312500000002,99.95972011387347L164.87929687500002,99.45951718986034L165.10546875,99.01769984662532L165.33164062499998,99.5197929829359L165.55781249999998,99.76926144361495L165.783984375,99.2710542321205L166.01015625,99.90615237653255L166.236328125,99.33668416142463L166.46249999999998,99.55524545311927L166.68867187499998,99.49878085553645L166.91484375,99.79088459312915L167.141015625,99.95976846814155L167.3671875,100.09989474117755L167.593359375,99.88648098111152L167.81953124999998,99.69374086856841L168.045703125,99.8615125954151L168.271875,99.54388220012187L168.498046875,99.91515506207942L168.72421875,99.66718997955321L168.950390625,99.76654920876025L169.1765625,99.9350242704153L169.402734375,99.85407043397426L169.62890625,99.61841810643672L169.855078125,99.77793004512786L170.08125,100.00491816699504L170.307421875,99.6435095757246L170.53359375,99.71415076553821L170.759765625,99.68342822194099L170.9859375,100.15102718174457L171.212109375,100.16555983722209L171.43828125000002,99.98292576670646L171.664453125,100.12596648335456L171.890625,100.1467676103115L172.116796875,100.30738730132579L172.34296875,100.1634630203247L172.56914062500002,99.89893440306186L172.79531250000002,100.02124432623386L173.021484375,100.02559621036052L173.24765625,100.22165518403052L173.473828125,100.13390977084636L173.70000000000002,99.9030489116907L173.92617187500002,100.19660327732562L174.15234375,100.11062499284743L174.37851562499998,99.90185763835906L174.60468749999998,100.4224792510271L174.830859375,99.95275709927081L175.05703125,100.38566406965255L175.283203125,100.23020070195197L175.50937499999998,100.23280304074287L175.73554687499998,100.31526904702186L175.96171875,100.21972540915012L176.187890625,100.4417022705078L176.4140625,99.68601737320422L176.640234375,100.13387020826339L176.86640624999998,100.47189291715621L177.092578125,100.58698926270007L177.31875,100.65451819598674L177.544921875,100.52171539664268L177.77109375,100.72416592538356L177.997265625,100.58186810612678L178.2234375,100.01623746156692L178.449609375,100.45999337136745L178.67578125,100.26784669756888L178.901953125,100.51920537054538L179.128125,100.41908126473426L179.35429687500002,100.46056922674178L179.58046875,100.36178585290908L179.806640625,100.59990424811839L180.0328125,100.77666107714175L180.258984375,101.01801481246947L180.48515625000002,100.56275937855243L180.71132812500002,100.6835175693035L180.9375,100.40586296617984L181.163671875,100.15086453557014L181.38984375,100.78194927573203L181.61601562500002,100.86841110289096L181.84218750000002,100.16026724278926L182.068359375,100.61043229103088L182.29453124999998,100.40912907719611L182.52070312499998,100.72650011777877L182.746875,100.38167704045772L182.973046875,100.525196903944L183.19921875,100.65421927869319L183.42539062499998,100.757939183712L183.65156249999998,100.74446592628955L183.877734375,100.83938535451888L184.10390625,100.78574288785457L184.330078125,100.7274540156126L184.55625,100.65126087665557L184.78242187499998,100.7931586742401L185.00859375,100.85052002370357L185.234765625,101.07033413052558L185.4609375,100.84214594364165L185.687109375,100.99565755724906L185.91328125,100.74954752027988L186.139453125,101.15540687143802L186.365625,100.94561968147754L186.591796875,101.24727118909358L186.81796875,101.25004496574401L187.044140625,100.99104192256927L187.2703125,100.99178481996059L187.496484375,101.14618439376353L187.72265625,100.93501251339912L187.948828125,101.27998065352439L188.175,101.23267699182033L188.40117187500002,101.18205886483192L188.62734375,101.36323791146278L188.853515625,100.96705380976199L189.0796875,101.11540910005569L189.305859375,101.5437312066555L189.53203125000002,101.09531570374965L189.75820312500002,101.28555458188056L189.984375,101.10397551357745L190.210546875,101.52376528978347L190.43671875,101.34360168278216L190.66289062500002,101.40045751035213L190.88906250000002,101.37572650015353L191.115234375,101.67557131648063L191.34140624999998,101.49784740209579L191.56757812499998,101.41265597343444L191.79375,101.63594279587268L192.019921875,101.08207542598247L192.24609375,101.63489658534526L192.47226562499998,101.65832203030585L192.69843749999998,101.56522687673568L192.924609375,101.59502629339694L193.15078125,101.56069476306438L193.376953125,101.80364418923854L193.603125,102.00792338848113L193.82929687499998,101.89276110529899L194.05546875,101.80023301541804L194.281640625,101.89734157323836L194.5078125,101.71234253942966L194.733984375,102.1992700189352L194.96015625,101.78614434003829L195.186328125,101.83311831355094L195.4125,101.53514612615108L195.638671875,101.95457104742526L195.86484375,102.15837549567222L196.091015625,101.87280837595462L196.31718750000002,101.86489585936069L196.543359375,102.01557655036449L196.76953125,102.28925291597842L196.995703125,101.69936161637305L197.221875,102.0170271784067L197.44804687500002,102.06372860968112L197.67421875000002,101.9023396462202L197.900390625,102.26835947632789L198.1265625,102.30667803585528L198.57890625000002,101.9014472901821L198.80507812500002,102.07642380297183L199.03125,102.0064375936985L199.25742187499998,102.36255798637866L199.48359374999998,101.97891522347926L199.709765625,102.3486539363861L199.9359375,102.32563730478286L200.162109375,102.42000725269317L200.38828124999998,102.29222890138625L200.61445312499998,102.41623122394084L200.840625,102.18686055541038L201.066796875,102.1422603368759L201.29296875,102.61021096408366L201.519140625,102.43681695461272L201.74531249999998,102.11101908385753L201.971484375,102.32234921455382L202.19765625,102.67967406809329L202.423828125,102.16692101359367L202.65,102.65278030335902L202.876171875,102.44645703732967L203.10234375,102.5185576468706L203.328515625,102.51200784146785L203.5546875,102.61105496585368L203.780859375,102.44078640043735L204.00703125,102.52557780742644L204.233203125,102.84205649197101L204.459375,102.90738310813903L204.685546875,102.61827733516692L204.91171875,102.91280318200587L205.137890625,102.5728726774454L205.36406250000002,102.84120809435844L205.590234375,102.64686789512633L206.042578125,103.10494985580443L206.26875,103.07905834317206L206.49492187500002,102.78945144414901L206.72109375000002,102.6233721166849L206.947265625,102.65130769610404L207.1734375,103.14860057234763L207.399609375,102.98707094192504L207.62578125000002,103.2648266494274L207.85195312500002,103.30494310855865L208.078125,102.90555004179477L208.30429687499998,103.15277222692966L208.53046874999998,103.24097480773925L208.756640625,103.26083962023257L208.9828125,103.38186156153678L209.208984375,103.54874532818793L209.43515624999998,103.26273862421512L209.66132812499998,103.18759169578551L209.8875,103.57201252281665L210.113671875,103.30689046680926L210.33984375,103.3079806357622L210.566015625,103.37363254427909L210.79218749999998,103.53808540999889L211.018359375,103.47718980312347L211.24453125,103.69819518327712L211.470703125,103.822390922904L211.696875,103.38598925769328L211.923046875,103.69249817132949L212.14921875,103.63677207529544L212.375390625,103.48311100304126L212.6015625,103.62511430084705L212.827734375,103.72046452164649L213.05390625,103.97389363646506L213.28007812500002,103.77747859954833L213.50625,104.0289779394865L213.732421875,103.70110523104667L213.95859375,103.95326394736766L214.184765625,103.96685589253902L214.41093750000002,103.92663832902907L214.63710937500002,103.94132483899593L214.86328125,103.9365465581417L215.089453125,104.19027459025382L215.315625,104.07034721374511L215.54179687500002,103.77188708782195L215.76796875000002,104.01781249940395L215.994140625,104.42917544543742L216.22031249999998,104.3470523148775L216.44648437499998,104.08215005099773L216.898828125,104.27867498397826L217.125,104.54105403423308L217.35117187499998,104.32613250017165L217.57734374999998,104.5199539899826L217.803515625,104.27243728339671L218.255859375,104.46893584132194L218.48203125,104.58501685559749L218.70820312499998,104.7873267173767L218.934375,104.37380980849265L219.160546875,104.89793490767478L219.38671875,104.39098876118659L219.612890625,104.6030354142189L219.8390625,104.55843959152698L220.065234375,104.70973130464553L220.29140625,104.8297729730606L220.517578125,105.1738004028797L220.74375,104.88262418806552L220.969921875,104.86311983466148L221.19609375,104.82871797084807L221.422265625,105.13697642982005L221.6484375,104.88029439151286L221.874609375,105.2549520522356L222.10078125,104.88698925971984L222.32695312500002,105.14512192606925L222.553125,105.02931345403194L222.779296875,104.83188297748565L223.00546875,104.84275829195975L223.231640625,104.91994049549102L223.45781250000002,105.37905108332633L223.68398437500002,105.18167335689067L223.91015625,105.416719058156L224.136328125,104.99682378172874L224.3625,105.35729605853557L224.58867187500002,105.24838026762008L224.81484375000002,105.63274834454059L225.041015625,105.18994633257388L225.26718749999998,105.4931451767683L225.49335937499998,105.36824170649051L225.71953125,105.52191596627235L225.945703125,105.70123996734618L226.171875,105.22384707033633L226.39804687499998,105.49070548415183L226.62421874999998,105.72614241540431L226.850390625,105.5952649950981L227.0765625,105.63732441663741L227.302734375,105.64654249846934L227.52890625,105.66645566523074L227.75507812499998,105.59056583940982L227.98125,106.10903348922729L228.207421875,106.01657573282718L228.43359375,105.48251602947711L228.659765625,105.9682346522808L228.8859375,105.86079586446284L229.112109375,105.98981384336948L229.564453125,106.27215881049632L229.790625,105.99913742542266L230.016796875,106.2015000373125L230.24296875000002,106.01003911495208L230.469140625,106.02513883411883L230.6953125,105.82665775120257L230.921484375,106.18438702225684L231.14765625,106.11390408277511L231.37382812500002,106.10516514778136L231.60000000000002,106.44502092301845L231.826171875,106.27211045622825L232.05234375,105.89012492597102L232.278515625,106.29604142308234L232.50468750000002,106.37362804412841L232.95703125,106.32282089591025L233.18320312499998,106.34236920773982L233.40937499999998,106.37746121883391L233.635546875,106.69073973000049L233.86171875,106.1184274047613L234.087890625,106.7235590904951L234.31406249999998,106.60970676839351L234.54023437499998,106.2563117980957L234.76640625,106.62443723678588L234.992578125,106.55813474357127L235.21875,106.82540197074412L235.444921875,106.63974795639514L235.67109374999998,106.56005572676658L235.897265625,106.67161781489848L236.1234375,107.03749258220195L236.349609375,106.84665586948394L236.801953125,106.47939201593398L237.028125,106.6139179855585L237.254296875,106.82180177569388L237.706640625,106.83597836792468L237.9328125,106.62514496743678L238.158984375,106.91704649627208L238.38515625,107.06119056940078L238.611328125,106.73937093615531L238.8375,106.89470242857932L239.063671875,106.96456995010375L239.28984375000002,107.28456970453261L239.516015625,106.93117033839225L239.7421875,106.71936106085776L239.968359375,106.72745380699634L240.19453125,107.09831345975398L240.42070312500002,106.6966873049736L240.64687500000002,106.92065987884997L240.873046875,107.070602068305L241.09921875,107.22591158151626L241.325390625,107.14841727316379L241.55156250000002,107.38063205182551L241.77773437500002,106.9089361667633L242.00390625,107.30492685139178L242.23007812499998,107.06009160876273L242.45624999999998,107.19208117723464L242.682421875,107.11812552213668L242.90859375,107.4581527352333L243.134765625,107.3179429411888L243.36093749999998,107.28508841395377L243.58710937499998,107.26478841304778L243.81328125,107.18474451601504L244.039453125,107.08887998163699L244.265625,107.66980815827846L244.491796875,107.37778794169425L244.71796874999998,107.01479684710502L244.944140625,107.15229440629481L245.1703125,107.40016717612743L245.396484375,107.49944288432597L245.62265625,107.26350043117999L245.848828125,107.20275428295135L246.075,107.13068884015082L246.301171875,107.35318001508712L246.52734375,107.4208276361227L246.753515625,107.1048852443695L246.9796875,107.24784683585166L247.20585937500002,107.46464099884032L247.43203125,107.48338047564029L247.884375,107.17442747354507L248.110546875,107.29992877840995L248.33671875000002,107.27576043605804L248.56289062500002,107.35381301641463L248.7890625,107.23349880576133L249.015234375,107.25594837367534L249.24140625,107.35841106772422L249.46757812500002,107.31431637108325L249.69375000000002,107.25146461427211L249.919921875,107.61813063323497L250.37226562499998,107.55836915373801L250.5984375,107.03909266889094L250.824609375,107.31406580805778L251.05078125,107.48106826245784L251.27695312499998,107.51957584321498L251.50312499999998,107.54459258317947L251.729296875,107.3990198612213L251.95546875,107.32147719860076L252.181640625,107.23402630686759L252.4078125,107.12150592505931L252.63398437499998,107.42869179844855L252.86015625,107.30481695532798L253.086328125,107.19458241164683L253.3125,107.2347428292036L253.538671875,107.29950677752494L253.76484375,107.47778456807136L253.991015625,107.49370630979537" style="fill: none;" fill="none"></path></g><g><path stroke="rgb(0, 119, 187)" stroke-width="2px" d="M27.140625,-13.957110977172846L29.40234375,4.479017519950872L31.6640625,-44.35754481554031L36.1875,-3.9551449179649296L38.44921875,19.469526374340063L40.7109375,4.300616645812994L42.97265625,14.848010057210928L45.234375,18.24211921691895L47.49609375,10.941829198598867L49.7578125,11.17091413736344L52.01953125,15.66318389177323L54.28125,13.57114087939263L56.54296875,16.494965219497686L58.8046875,-11.931875979900354L61.06640625,-8.769331014156336L63.328125,5.2162178993225154L65.58984375,23.3281793832779L67.8515625,15.268700981140142L70.11328125,-20.105048453807825L72.375,1.5479048728942928L74.63671875,34.55097641944886L76.8984375,19.818837606906897L79.16015625,9.916103297472006L81.421875,4.251594209671026L83.68359375,4.843837285041815L85.9453125,34.607357496023155L88.20703125,27.73430820703507L90.46875,12.24586468338967L92.73046875,22.862844282388693L94.9921875,33.8380850493908L97.25390625,41.32705342173577L99.515625,38.83094456195832L101.77734375,23.87466173768044L104.0390625,27.079107874631887L106.30078125,17.253687644004827L108.5625,18.566928023099905L110.82421875,30.136891120672203L113.0859375,11.915314906835562L115.34765625,20.757648909091955L117.609375,27.874957585334784L119.87109375,32.71816503405569L122.1328125,47.86493729948995L124.39453125,33.327833229303366L126.65625,34.11271091699601L128.91796875,44.40872367620466L131.1796875,34.43775709867478L133.44140625,32.94376846551896L135.703125,30.988427364826208L136.15546875,37.73720618486402L136.6078125,40.71905564665795L137.06015625,27.626108938455587L137.51250000000002,41.38012882471082L137.96484375,31.104802900552727L138.4171875,30.367101395130163L138.86953125000002,38.23147472143171L139.321875,43.834943139553076L139.77421875000002,48.56348943114281L140.2265625,46.388197952508904L140.67890624999998,36.627299898862844L141.13125,30.931509995460516L141.58359374999998,42.03022118806837L142.0359375,39.085762763023354L142.48828125,40.891337507963186L142.94062499999998,49.91179105043412L143.39296875,34.327940160036064L143.8453125,47.61563148498536L144.29765625,41.49477239847184L144.75,32.56588425636292L145.20234375,17.907789015769964L145.6546875,40.28383206725121L146.10703125,34.4241124033928L146.55937500000002,26.210761928558355L147.01171875,31.80233519673348L147.4640625,65.68963926434517L147.91640625000002,43.45726113915444L148.36874999999998,53.06637954115868L148.82109375,39.80479072928429L149.2734375,37.08342131376264L149.72578124999998,48.71519874930382L150.178125,40.006876403093344L150.63046875,43.82486786842347L151.0828125,22.14622523784638L151.53515625,31.117313468456274L151.9875,37.236326301097876L152.43984375,39.612024241685845L152.8921875,40.69994252324102L153.34453125,41.656636112928396L153.796875,51.863457226753226L154.24921875,40.79888414740563L154.7015625,31.92126911282537L155.15390625,56.72352712750434L155.60625000000002,33.26153513193131L156.05859375,29.93371527791024L156.5109375,31.40466090440748L156.96328125000002,40.36084722876549L157.41562499999998,53.726617509126655L157.86796875,36.84047188758851L158.3203125,40.09789671897889L158.77265624999998,28.298866266012197L159.225,34.38803132772446L159.67734375,55.9450585782528L160.1296875,38.19608818888665L160.58203125,40.331175291538244L161.034375,45.24779331088064L161.48671875,30.77894788384438L161.9390625,55.712351465225225L162.39140625000002,42.393265032768255L162.84375,37.54757832884789L163.29609375,32.18288328647611L163.74843750000002,36.461330467462545L164.20078125,42.448503190278984L164.65312500000002,32.25506302118302L165.10546875,28.52507632374764L165.55781249999998,35.56370820999146L166.01015625,45.69325041174889L166.46249999999998,39.24965735673902L166.91484375,28.612131589651113L167.3671875,40.178762638568884L167.81953124999998,40.14308598041532L168.271875,25.13240020871163L168.72421875,37.03550662994385L169.1765625,32.711949312686926L169.62890625,45.50711285471914L170.08125,42.31864120960236L170.53359375,46.50881108045576L170.9859375,55.17742138504981L171.43828125000002,33.19480624198914L171.890625,32.59318243861199L172.34296875,47.064981871843315L172.79531250000002,35.186087751388555L173.24765625,44.98003374934194L173.70000000000002,19.341818356513983L174.15234375,32.11298938989637L174.60468749999998,37.72590007781983L175.05703125,50.89366402626037L175.50937499999998,41.36399608254433L175.96171875,51.826831066608435L176.4140625,34.99534335136414L176.86640624999998,39.27787866592405L177.31875,45.83038311600686L177.77109375,23.72303154468537L178.2234375,58.51563301086425L178.67578125,42.40837793946267L179.128125,47.45164018273351L179.58046875,48.72818406820298L180.0328125,45.477775001525885L180.48515625000002,38.975260072946554L180.9375,43.83513655662537L181.38984375,49.30709894895553L181.84218750000002,57.52053734064101L182.29453124999998,44.21945627927778L182.746875,45.16647022366524L183.19921875,40.3224891066551L183.65156249999998,56.0677817106247L184.10390625,48.24570518136025L184.55625,47.46024724245072L185.00859375,39.86600723266602L185.4609375,48.732861244678475L185.91328125,51.86077576279641L186.365625,51.426818186044684L186.81796875,56.08194511532784L187.2703125,54.442761802673346L187.72265625,49.360921645164495L188.175,48.816250377893454L188.62734375,45.349425190687185L189.0796875,37.82638024687765L189.53203125000002,50.632893854379645L189.984375,46.77147146463395L190.43671875,45.848124736547476L190.88906250000002,29.953786695003515L191.34140624999998,48.978439384698845L191.79375,39.64050050973893L192.24609375,52.835254931449896L192.69843749999998,40.61995577216149L193.15078125,40.128271991014486L193.603125,59.102803283929816L194.05546875,44.792366439104086L194.5078125,43.053933793306356L194.96015625,41.25935744643209L195.4125,48.73007428050042L195.86484375,46.85508918166158L196.31718750000002,33.04957639575005L196.76953125,40.93217488527296L197.221875,57.458740586042396L197.67421875000002,50.480824077129355L198.1265625,53.11389859914779L198.57890625000002,50.577488654851905L199.03125,52.56132360696793L199.48359374999998,46.550896877050405L199.9359375,62.373213434219366L200.38828124999998,55.73781218528747L200.840625,35.40436770915986L201.29296875,52.16080960035323L201.74531249999998,35.09666752219198L202.19765625,52.586538159847265L202.65,51.42054971456528L203.10234375,48.66387289166451L203.5546875,37.26836320161817L204.00703125,45.36599751710892L204.459375,51.33139323592185L204.91171875,47.81053435206414L205.36406250000002,50.13335909843444L205.81640625,44.70103841423986L206.26875,53.518360072374335L206.72109375000002,52.493513339757925L207.1734375,38.23492106199265L207.62578125000002,43.09196662306786L208.078125,53.61422460675239L208.53046874999998,57.15825837254525L208.9828125,48.997174465656286L209.43515624999998,45.89832525849343L209.8875,50.11403497457505L210.33984375,57.80130859613419L210.79218749999998,49.55463763475417L211.24453125,50.08835446238517L211.696875,49.2786754310131L212.14921875,54.73948996663093L212.6015625,57.10037391781806L213.05390625,51.08708989024163L213.50625,40.99805977344511L213.95859375,41.47594060897828L214.41093750000002,57.21115794181823L214.86328125,46.71835210323334L215.315625,48.675688916444784L215.76796875000002,53.019361609220496L216.22031249999998,60.919007176160804L216.67265625,46.217419469356514L217.125,51.1244809269905L217.57734374999998,49.378030264377585L218.0296875,65.36672067046165L218.48203125,56.15154009461402L218.934375,59.063952827453605L219.38671875,58.929062002897254L219.8390625,59.6811554968357L220.29140625,43.05377554297448L220.74375,61.38185423016549L221.19609375,51.18807118535041L221.6484375,43.11117645502088L222.10078125,55.26565473675727L222.553125,44.80691667795182L223.00546875,55.765259826183325L223.45781250000002,51.34951289892196L223.91015625,58.39211862683295L224.3625,60.48300113677978L224.81484375000002,53.16183965802192L225.26718749999998,60.20627405643462L225.71953125,36.45874571204186L226.171875,58.88037365078925L226.62421874999998,56.602228248119346L227.0765625,60.07597249150277L227.52890625,57.03539457321166L227.98125,37.83549722433091L228.43359375,54.56704106330872L228.8859375,60.08970510363578L229.33828125,57.20954906344413L229.790625,53.44625946283341L230.24296875000002,60.95399808287621L230.6953125,60.88628452420234L231.14765625,68.47563635706902L231.60000000000002,50.79401906728744L232.05234375,63.76839231848716L232.50468750000002,46.01567667126653L232.95703125,54.550037944316855L233.40937499999998,50.282158368825904L233.86171875,54.53722845911979L234.31406249999998,60.64866285920142L234.76640625,43.692245298624016L235.21875,51.63711529374123L235.67109374999998,55.1478285729885L236.1234375,58.683483862876884L236.57578125,56.706849300861364L237.028125,47.5268002986908L237.48046875,48.9432902276516L237.9328125,56.46899026036262L238.38515625,58.4388903915882L238.8375,63.88518106341361L239.28984375000002,54.36538618206977L239.7421875,47.02757325172425L240.19453125,62.234216892719274L240.64687500000002,53.6260845899582L241.09921875,53.17573931217193L241.55156250000002,58.96864216923714L242.00390625,54.55055665373803L242.45624999999998,67.76916291713714L242.90859375,38.0135288476944L243.36093749999998,67.18899082541465L243.81328125,47.408657634258276L244.265625,68.33765085935592L244.71796874999998,61.1456919848919L245.1703125,56.53665986061095L245.62265625,54.630912655591956L246.075,48.918207550048834L246.52734375,61.68274965286254L246.9796875,53.204602414369575L247.43203125,53.40927284359931L247.884375,69.28989585638045L248.33671875000002,44.08613916635514L248.7890625,55.54057072997094L249.015234375,51.33912991881371L249.24140625,53.26290007829667L249.46757812500002,63.99954330325126L249.69375000000002,62.45496731400489L249.919921875,50.8329750239849L250.14609374999998,55.91347005367278L250.37226562499998,62.71032180786132L250.5984375,43.36039435267446L250.824609375,56.35141026377677L251.05078125,43.97073950767515L251.27695312499998,48.85126765966416L251.50312499999998,56.41358506083489L251.729296875,49.39497184157372L251.95546875,45.23362111449242L252.181640625,55.71721326708793L252.4078125,51.238658541440955L252.63398437499998,45.96711140275002L252.86015625,53.334385269880286L253.086328125,55.464047902822486L253.3125,51.99342470765113L253.538671875,64.0931747496128L253.76484375,42.75797050595284L253.991015625,54.09403961300849" style="fill: none;" fill="none"></path></g><g><path stroke="rgb(51, 187, 238)" stroke-width="2px" d="M27.140625,-25.738478934764856L29.40234375,8.55559002757073L31.6640625,-5.204882955551142L36.1875,-9.61790446043014L38.44921875,28.135560715198523L40.7109375,24.413187617063528L42.97265625,26.886860096454626L45.234375,27.038692498207098L47.49609375,19.192043209075933L49.7578125,33.039439582824684L52.01953125,16.017101967334753L54.28125,-1.4219615221023503L61.06640625,-13.814720845222467L63.328125,9.214799368381506L65.58984375,45.98357822895048L67.8515625,30.53037177920342L70.11328125,-7.953374719619745L72.375,38.46313562393189L74.63671875,48.38922944068909L76.8984375,32.9835508406162L79.16015625,2.7209969997406063L81.421875,35.761494749784475L83.68359375,39.16952993869779L85.9453125,45.15714224576948L88.20703125,40.86949017047883L90.46875,21.954012626409536L92.73046875,29.185947293043142L94.9921875,34.127305114269234L97.25390625,58.21785863637923L99.515625,34.4142569243908L101.77734375,25.023269021511084L104.0390625,36.487643980979925L106.30078125,40.389736706018454L108.5625,41.45671319365502L110.82421875,46.95214938521383L113.0859375,42.811168992519384L115.34765625,35.37831794619561L117.609375,33.09509094953535L119.87109375,46.12082522511483L122.1328125,49.948593044281L124.39453125,52.399389559030524L126.65625,46.46411415338517L128.91796875,58.74121885895728L131.1796875,50.58220978975295L133.44140625,56.34054374098777L135.703125,44.33304485082627L136.15546875,49.37177937626838L136.6078125,42.30913739800451L137.06015625,58.46076410412789L137.51250000000002,60.17701532840729L137.96484375,51.3493634402752L138.4171875,44.64587059020997L138.86953125000002,49.89178996682166L139.321875,52.08304714560508L139.77421875000002,53.181225323677054L140.2265625,52.16546919345855L140.67890624999998,53.03428109884263L141.13125,39.618626797199255L141.58359374999998,46.99852552413941L142.0359375,56.66716363430022L142.48828125,52.2054010272026L142.94062499999998,61.62650045156478L143.39296875,54.49841316938401L143.8453125,50.019946360588065L144.29765625,53.92630305290221L144.75,52.37384971380234L145.20234375,43.946957999467855L145.6546875,60.25814499855042L146.10703125,53.81994124650956L146.55937500000002,47.684672588109976L147.01171875,52.34197106361388L147.4640625,70.21261837482453L147.91640625000002,39.90751277804375L148.36874999999998,57.42393430471421L148.82109375,62.276531273126594L149.2734375,49.631345087289816L149.72578124999998,53.77151664495469L150.178125,52.070686036348334L150.63046875,53.98166429400443L151.0828125,51.412311905622474L151.53515625,44.022135698795324L151.9875,52.40267764925957L152.43984375,51.35437470078469L152.8921875,48.969208115339256L153.34453125,55.712703132629386L153.796875,60.52593972682952L154.24921875,47.68942888975144L154.7015625,48.16836472749711L155.15390625,60.5631109714508L155.60625000000002,47.741642707586294L156.05859375,57.769210153818136L156.5109375,54.0749528646469L156.96328125000002,55.951889717578894L157.41562499999998,58.81191279888152L157.86796875,45.105455929040914L158.3203125,58.56830399632453L158.77265624999998,50.118219816684714L159.225,53.87598823904992L159.67734375,54.04679309725762L160.1296875,46.31235208511353L160.58203125,59.49645977616311L161.034375,44.39299535155297L161.48671875,51.39090415239335L161.9390625,62.91440319418908L162.39140625000002,53.48338674902915L162.84375,55.60629736781121L163.29609375,55.29782351255416L163.74843750000002,56.593797022104255L164.20078125,49.266375863552085L164.65312500000002,47.16494333148L165.10546875,42.79325153827665L165.55781249999998,45.755680167675024L166.01015625,49.836384767293936L166.46249999999998,54.702063763141624L166.91484375,59.59739711284638L167.3671875,54.32223659157752L167.81953124999998,62.27374430894851L168.271875,49.88145094513892L168.72421875,58.185188734531394L169.1765625,49.01133787035941L169.62890625,44.65894382596014L170.08125,59.32277124524116L170.53359375,57.35157873630523L170.9859375,72.42465030550956L171.43828125000002,55.02512302398682L171.890625,46.50724616050721L172.34296875,56.282791161537176L172.79531250000002,52.190428787469855L173.24765625,58.96923121213912L173.70000000000002,39.836317712068535L174.15234375,38.25507160425187L174.60468749999998,57.84525822997092L175.05703125,60.80076780319213L175.50937499999998,50.13414155840873L175.96171875,52.468175703287116L176.4140625,35.0843855381012L176.86640624999998,62.59413968920707L177.31875,62.206303292512885L177.77109375,52.30947699546813L178.2234375,66.53583895564078L178.67578125,51.2870303928852L179.128125,54.74652331471444L179.58046875,56.2852880001068L180.0328125,58.62144094109536L180.48515625000002,66.79503541588782L180.9375,64.7234594464302L181.38984375,65.49650352597236L181.84218750000002,64.86925196051597L182.29453124999998,62.66910638809203L182.746875,58.544012570381156L183.19921875,52.86715995669364L183.65156249999998,66.4953972041607L184.10390625,58.16894170045852L184.55625,59.66955047249793L185.00859375,58.924156242609016L185.4609375,52.95492734909057L185.91328125,59.2550664782524L186.365625,66.2868056833744L186.81796875,57.553998494148246L187.2703125,57.10355650782586L187.72265625,64.8640912413597L188.175,63.89597725272179L188.62734375,63.712055200338355L189.0796875,50.58585833907128L189.53203125000002,62.95565378069878L189.984375,60.87569933533668L190.43671875,61.880254858732215L190.88906250000002,54.894988501071936L191.34140624999998,56.18055265545844L191.79375,57.11222510933875L192.24609375,55.455836468935004L192.69843749999998,62.636823320388785L193.15078125,58.057173007726675L193.603125,69.32571318149566L194.05546875,59.16052069664002L194.5078125,65.12720000147819L194.96015625,58.57358779907226L195.4125,60.819687509536735L195.86484375,62.95393940210343L196.31718750000002,63.781078720092765L196.76953125,66.73993792533874L197.221875,55.795195513963705L197.67421875000002,55.760318899154655L198.1265625,64.01577275395394L198.57890625000002,66.10993456244468L199.03125,46.551239752769476L199.48359374999998,55.47532763481139L199.9359375,68.52824580073356L200.38828124999998,68.19947194457053L200.840625,65.39212864041329L201.29296875,61.18376877307891L201.74531249999998,62.766061091423026L202.19765625,54.40777968764304L202.65,73.57459392547608L203.10234375,53.96200608611106L203.5546875,63.74008309245109L204.00703125,57.9333245396614L204.459375,60.92835273742675L204.91171875,57.47240286469459L205.36406250000002,73.2499609529972L205.81640625,49.386338406801215L206.26875,70.42365398406982L206.72109375000002,47.59568315148354L207.1734375,58.45480334162713L207.62578125000002,65.03781493902206L208.078125,58.88614099621773L208.53046874999998,63.60450651645661L208.9828125,63.12398817539214L209.43515624999998,53.76300629377364L209.8875,62.776593530178076L210.33984375,66.99935417771339L210.79218749999998,65.66512804627418L211.24453125,73.99379905462266L211.696875,67.95062329769134L212.14921875,58.8375845193863L212.6015625,57.130933815240866L213.05390625,57.86256905794143L213.50625,64.39702417850495L213.95859375,72.01677765846253L214.41093750000002,71.83522936105727L214.86328125,61.83954056501389L215.315625,68.01961165070534L215.76796875000002,72.07961183190345L216.22031249999998,62.619538867473594L216.67265625,64.79800414443017L217.125,59.881658667325965L217.57734374999998,69.18158229589461L218.0296875,77.21237342953683L218.48203125,71.49737369418145L218.934375,57.848308944702154L219.38671875,68.81127651929854L219.8390625,73.14271118640899L220.29140625,59.14754416942597L220.74375,70.4660299062729L221.19609375,67.21153270602227L221.6484375,53.08425303697585L222.10078125,65.27475964426995L222.553125,69.21483244895934L223.00546875,64.35888584852219L223.45781250000002,66.67472120523453L223.91015625,62.35058363676072L224.3625,69.71433203816413L224.81484375000002,57.70327251553536L225.26718749999998,72.04903435111046L225.71953125,58.96069448590278L226.171875,64.2202849328518L226.62421874999998,61.40809741020203L227.0765625,77.48167153596877L227.52890625,69.3209305047989L227.98125,68.89479752779006L228.43359375,65.78819405436515L228.8859375,70.5063134074211L229.33828125,73.83446734547616L229.790625,64.47442617416381L230.24296875000002,67.07956072092055L230.6953125,62.89521973729133L231.14765625,71.22096311450005L231.60000000000002,64.61812626719475L232.05234375,74.82481550574302L232.50468750000002,68.26831963062286L232.95703125,75.06374713182448L233.40937499999998,75.44643160104752L233.86171875,72.86095526218413L234.31406249999998,73.39795138835906L234.76640625,72.8968605041504L235.21875,71.3467985033989L235.67109374999998,66.1415230870247L236.1234375,66.86731185913087L236.57578125,64.5976855993271L237.028125,65.09068813323975L237.48046875,75.24890002012252L237.9328125,72.03436982035637L238.38515625,63.62596701979636L238.8375,74.38384216427802L239.28984375000002,70.81509497165679L239.7421875,67.0979529261589L240.19453125,73.72663732767104L240.64687500000002,71.65748786330222L241.09921875,74.60633333921433L241.55156250000002,79.05346658229827L242.00390625,68.00521966218948L242.45624999999998,76.2509323298931L242.90859375,74.66976534724236L243.36093749999998,75.0176787018776L243.81328125,62.406674587726584L244.265625,79.47937097549438L244.71796874999998,67.60538261532783L245.1703125,73.19376450181008L245.62265625,75.00530000925063L246.075,70.82608457803725L246.52734375,68.46907775998115L246.9796875,69.91892334222793L247.43203125,68.51595502495765L247.884375,80.51062245070933L248.33671875000002,73.40762224197387L248.7890625,59.017242604494086L249.015234375,73.43828763961793L249.24140625,77.19728689789773L249.46757812500002,75.55665295720101L249.69375000000002,75.60008388161658L249.919921875,60.17564382553101L250.14609374999998,75.44899877309798L250.37226562499998,65.23350905776024L250.5984375,62.82146629095077L250.824609375,74.88106470704078L251.05078125,73.08876540660859L251.27695312499998,75.03239598274232L251.50312499999998,72.52152588367461L251.729296875,58.063459062576285L251.95546875,58.368785494565955L252.181640625,74.37489222884179L252.4078125,64.2641642332077L252.63398437499998,65.76684784293174L252.86015625,69.88091688752174L253.086328125,75.49781020879746L253.3125,69.50753402113915L253.538671875,73.09174578785897L253.76484375,65.28843071460723L253.991015625,62.11884360909461" style="fill: none;" fill="none"></path></g><g><path stroke="rgb(0, 153, 136)" stroke-width="2px" d="M28.49765625,-10.040907597541803L28.950000000000003,3.0352118253707943L29.40234375,3.450847530364996L29.8546875,11.25178884863854L30.307031249999998,4.5012780666351375L30.759375,0.3546094536781368L31.211718750000003,11.934964323043829L31.6640625,-4.036274588108057L32.11640625,11.584765130281454L32.56875,-4.424163734912867L33.02109375,18.66873573660851L33.4734375,16.601749026775366L33.92578125,-8.118095731735224L34.378125000000004,12.309762650728231L34.83046875,23.14957630038262L35.2828125,33.518445754051214L35.735156249999996,22.6439752817154L36.1875,-9.419458544254297L36.639843750000004,2.7509766459465084L37.092187499999994,10.75280796885491L37.54453125,25.16046326756478L37.996875,7.649844253063208L38.44921875,27.046394014358526L38.901562500000004,23.698924744129187L39.353906249999994,-1.1060411095619145L39.80625,-3.6800003409385624L40.25859375,20.184800291061407L40.7109375,25.371534043550497L41.163281250000004,15.198552125692373L41.615624999999994,18.571218365430838L42.06796875,29.3317134320736L42.5203125,29.60947793126107L42.97265625,28.302180731296545L43.425000000000004,21.518446171283728L43.877343749999994,29.621162080764776L44.3296875,26.17093559503556L44.78203125,-0.6448996424674931L45.234375,27.127602809667593L45.68671875,28.895135933160788L46.1390625,9.686200731992727L46.59140625,2.9123392343521175L47.04375,27.639762425422674L47.49609375,12.769761198759085L47.9484375,33.923030310869194L48.40078125,21.882650518417364L48.853125,29.139052444696432L49.30546875,-11.348477339744562L49.7578125,28.793099635839468L50.21015625,14.24961280226708L50.6625,9.31167494654656L51.11484375,15.026103222370153L51.5671875,29.154851102828985L52.01953125,12.456794792413717L52.471875,34.32873141169546L52.92421875,36.774622166156746L53.3765625,27.62724306583405L53.82890625,21.361444258689886L54.28125,-2.2176441907882634L54.73359375,16.617336684465414L55.1859375,-17.828037178516382L55.63828125,34.2985759317875L56.090625,39.18218117356301L56.54296875,-10.247160530090326L56.9953125,28.420815730094915L57.44765625,21.091803276538855L57.900000000000006,32.65009980797768L58.352343749999996,38.651260101795174L58.8046875,-2.937946951389307L59.25703125,33.202841842174536L59.709375,31.906991416215902L60.161718750000006,31.331725084781652L60.614062499999996,36.53579604029653L61.06640625,-19.86032310724258L61.51875,12.03076731562615L61.97109375,-14.65689394474029L62.423437500000006,36.21013444066048L62.875781249999996,18.70977532267571L63.328125,5.848199391365057L63.78046875,34.23821222186086L64.2328125,46.03054341077805L64.68515625,28.01607292294503L65.1375,41.07101317644117L65.58984375,40.50439786314962L66.0421875,22.379477435350424L66.49453125,29.263850414752966L66.946875,13.696404808759695L67.39921875,10.419269019365316L67.8515625,26.861390584707266L68.30390625,27.779119426012045L68.75625000000001,47.089062297344185L69.20859375,33.98551281690595L69.6609375,37.56757941246033L70.11328125,-11.021074986457819L70.565625,21.157573872804647L71.01796875,29.71387040019036L71.47031249999999,26.41784127950669L71.92265625,23.764994257688528L72.375,33.47575333118439L72.82734375,36.55713346004484L73.27968750000001,29.22414716482163L73.73203125,36.77330341339109L74.18437499999999,34.54518269896508L74.63671875,45.639181548357016L75.0890625,41.85786020159719L75.54140625,39.89007886648179L75.99375,53.65463998317718L76.44609375,40.54069873094559L76.8984375,24.842555934190756L77.35078125,28.077227884531027L77.80312500000001,38.64787530303002L78.25546875,35.58144983053208L78.70781249999999,39.50368430614472L79.16015625,1.9554170608520565L79.6125,31.01559367179871L80.06484375,36.13595899343491L80.5171875,49.92297407388688L80.96953125,34.96779900193212L81.421875,28.308079952001577L81.87421875000001,36.7511307835579L82.32656250000001,25.655285680294043L82.77890624999999,39.48356013894082L83.23124999999999,26.992131733894354L83.68359375,36.64680864810941L84.1359375,42.99376350045205L84.58828125,38.27167030572889L85.040625,33.05587124228475L85.49296875,44.67454027533532L85.9453125,38.62049799561501L86.39765625000001,50.850716644525534L86.85000000000001,50.30882354974746L87.30234374999999,49.50088527202605L87.75468749999999,10.510755294561392L88.20703125,37.487153077125555L88.659375,50.1507842183113L89.11171875,38.14504366517065L89.5640625,35.01410480737687L90.01640625,35.762294793128945L90.46875,14.67135872840882L90.92109375000001,56.48193162083625L91.3734375,26.108022296428686L91.82578124999999,26.608445012569433L92.278125,33.49181573987008L92.73046875,26.14252966046334L93.1828125,38.114237600564934L93.63515625,40.646040701866156L94.0875,48.33740245699883L94.53984375,43.83273642659188L94.9921875,28.634726220369345L95.44453125000001,40.78505482673643L95.896875,41.95382144451142L96.34921874999999,46.94518637061117L96.8015625,42.582892888784414L97.25390625,52.75248121619224L97.70625,37.562515401840216L98.15859375000001,44.846804553270346L98.6109375,43.90568103790284L99.06328125,37.30954345464707L99.515625,29.35479160547257L99.96796875,30.055743867158895L100.4203125,45.54571714401246L100.87265624999999,45.91015886664391L101.325,45.480368548631645L101.77734375,19.53051429390908L102.2296875,37.003944480419165L102.68203125000001,38.06008961200712L103.134375,31.4125470459461L103.58671875,48.67911767363549L104.0390625,29.275982940196997L104.49140625,43.42977833151818L104.94375,50.2449079990387L105.39609374999999,29.62780859470368L105.8484375,47.020021194219595L106.30078125,33.302864843606955L106.753125,37.91588839292527L107.20546875000001,13.314678633213049L107.6578125,42.414831036329275L108.11015624999999,32.19876986145974L108.5625,34.73551388978956L109.01484375,43.376782053709036L109.4671875,31.42629724144936L109.91953125,48.69378220438958L110.371875,33.09325348734856L110.82421875,42.86116730570791L111.2765625,33.00455417633057L111.72890625000001,40.35029720664025L112.18125,49.206346237659446L112.63359374999999,42.77687262892721L113.0859375,38.197591567039495L113.53828125,53.77303760647773L113.990625,41.951254272460915L114.44296875,32.63423960804937L114.8953125,55.43824430704116L115.34765625,31.145200693607336L115.80000000000001,48.624371850490576L116.25234375000001,26.02522220611573L116.70468749999999,38.56805559396744L117.15703124999999,41.44684892296792L117.609375,24.488101565837866L118.06171875,45.54326426386834L118.5140625,40.38892787098882L118.96640625,39.740039968490606L119.41875,50.98892193436623L119.87109375,39.59145169854162L120.32343750000001,35.165805333852774L120.77578125000001,47.27315139174462L121.22812499999999,40.91093417406083L121.68046874999999,38.7068323433399L122.1328125,44.84525721669195L122.58515625,54.53276228308677L123.0375,36.14623647332189L123.48984375,52.99295138716698L123.9421875,44.21998378038404L124.39453125,45.13249915242196L124.84687500000001,41.640195661783224L125.29921875,54.31134369373321L125.75156249999999,39.85512312650678L126.20390625,42.27630045413969L126.65625,46.56295906901357L127.10859375,44.395360314846045L127.5609375,33.621449136734014L128.01328125,49.77366488575936L128.465625,55.12378331422805L128.91796875,51.48597743511199L129.3703125,60.98561298251151L129.82265625,49.065116608142844L130.275,49.685528242588035L130.72734375000002,40.34816082715989L131.1796875,46.11577879786492L131.63203124999998,47.00619187355039L132.084375,50.60835626125336L132.53671875,40.17954509854317L132.9890625,47.173682266473776L133.44140625,49.9358978509903L133.89375,45.91321837306023L134.34609375,45.67041840553284L134.7984375,28.998359107971197L135.25078125000002,46.000467056036L135.703125,42.48233359456063L135.929296875,39.304666930437094L136.15546875,44.85200043916703L136.381640625,52.214931213855735L136.6078125,36.13721620440481L136.833984375,55.18306564688682L137.06015625,50.7539113998413L137.286328125,40.867837333679205L137.51250000000002,53.66047766208649L137.738671875,49.754455053806296L137.96484375,45.76802369356156L138.191015625,56.21251043081283L138.4171875,37.332208418846136L138.64335937500002,38.767767512798315L138.86953125000002,42.744703853130346L139.095703125,47.31430526971815L139.321875,46.30541544556618L139.548046875,46.941001528501516L139.77421875000002,47.49846469759942L140.00039062500002,41.750698351860024L140.2265625,47.22372453808785L140.45273437499998,52.14643519520759L140.67890624999998,48.81618883609772L140.905078125,39.38031938076017L141.13125,36.30052175521851L141.357421875,45.17379369735718L141.58359374999998,40.21267216801644L141.80976562499998,51.27735074758529L142.0359375,52.23451908826827L142.262109375,48.94390564560891L142.48828125,49.32761874198913L142.714453125,50.73145743608474L142.94062499999998,54.919376635551444L143.166796875,42.813744956254936L143.39296875,45.314460659027105L143.619140625,33.53280257582665L143.8453125,43.646159285306936L144.071484375,52.276947760581976L144.29765625,48.225756847858435L144.523828125,46.978014522790914L144.75,47.708146387338644L144.976171875,55.617796891927725L145.20234375,39.030946606397634L145.42851562500002,46.971271300315834L145.6546875,54.32275530099869L145.880859375,48.14914610385895L146.10703125,45.57983767390252L146.333203125,48.49397357702256L146.55937500000002,40.37751626372338L146.78554687500002,44.940022790431954L147.01171875,44.089734965562826L147.237890625,49.96930625438689L147.4640625,66.81342762112618L147.69023437500002,54.47792854309081L147.91640625000002,33.5274660229683L148.142578125,36.31448295116422L148.36874999999998,52.623603904247275L148.59492187499998,42.48492714166639L148.82109375,53.62066891193389L149.047265625,49.92249053120612L149.2734375,43.387762868404394L149.49960937499998,37.58654307723046L149.72578124999998,49.48783841133118L149.951953125,38.97108402252195L150.178125,46.81736406087876L150.404296875,26.22962009310723L150.63046875,47.58053507804868L150.85664062499998,37.33921539187432L151.0828125,41.602092498540884L151.308984375,44.39491193890572L151.53515625,36.22660126686094L151.761328125,51.18349950909614L151.9875,46.21751617789269L152.213671875,50.49666669368743L152.43984375,44.230094218254095L152.666015625,48.41819804310799L152.8921875,43.65546088814736L153.118359375,50.327206963300696L153.34453125,48.67360528707505L153.570703125,48.31483420133591L153.796875,56.85597386360169L154.023046875,51.87638100385665L154.24921875,43.902700656652456L154.47539062500002,44.40535646080971L154.7015625,42.35270898938177L154.927734375,51.5525568664074L155.15390625,54.92956619858742L155.380078125,46.529972666502005L155.60625000000002,43.81495084762574L155.83242187500002,49.703894072771064L156.05859375,51.94827940464019L156.284765625,52.44995933175086L156.5109375,47.700928413867956L156.73710937500002,46.989039295911795L156.96328125000002,52.046790236234656L157.189453125,45.90335410237313L157.41562499999998,54.874046707153326L157.64179687499998,33.626996690034844L157.86796875,41.3019619524479L158.094140625,40.60173060894013L158.3203125,52.543968820571905L158.54648437499998,53.63869186639786L158.77265624999998,39.91190862059591L158.998828125,56.90023999810218L159.225,47.96830114126203L159.451171875,50.81896107792855L159.67734375,50.832078272104255L159.90351562499998,50.173203015327445L160.1296875,42.59815525412557L160.355859375,55.85161175727845L160.58203125,54.46947094202041L160.808203125,48.82624652385712L161.034375,38.86006262302399L161.260546875,42.737802380323416L161.48671875,48.25240444540978L161.712890625,59.48396679162978L161.9390625,57.186523640155784L162.165234375,54.290982151031486L162.39140625000002,45.87082486748693L162.617578125,49.51713230609893L162.84375,49.58353590369224L163.069921875,54.97270699739455L163.29609375,50.72979580760001L163.52226562500002,40.18879395127294L163.74843750000002,50.37217643260955L163.974609375,51.35996621251107L164.20078125,44.83406540155411L164.426953125,50.00887762904168L164.65312500000002,41.876199656724935L164.87929687500002,32.81182285547254L165.10546875,38.57762094736097L165.33164062499998,54.48204305171966L165.55781249999998,38.127741628885246L165.783984375,61.593223923444754L166.01015625,43.75721585154534L166.236328125,47.78752651214597L166.46249999999998,48.22663601636887L166.68867187499998,47.722292208671576L166.91484375,49.90415986776351L167.141015625,46.68332602977753L167.3671875,48.30129500627518L167.593359375,53.771595770120626L167.81953124999998,56.74563821554183L168.045703125,54.761688971519476L168.271875,41.37194376587868L168.498046875,39.1737147808075L168.72421875,48.39461874365807L168.950390625,48.43251090645791L169.1765625,44.704774880409246L169.402734375,52.91129421591759L169.62890625,39.67532437443731L169.855078125,39.4453602671623L170.08125,54.25065469145774L170.307421875,50.89954566359519L170.53359375,53.153461182117454L170.759765625,60.25543715953826L170.9859375,67.11353179216384L171.212109375,60.06590601205825L171.43828125000002,48.2287108540535L171.664453125,45.75334157943726L171.890625,40.71504663825036L172.116796875,37.10931282639504L172.34296875,50.922228211164466L172.56914062500002,22.530246043205267L172.79531250000002,45.50720077157021L173.021484375,54.1366792857647L173.24765625,53.363775873184196L173.473828125,53.46418570876121L173.70000000000002,37.52188023328779L173.92617187500002,46.980089360475546L174.15234375,33.13103135824204L174.37851562499998,51.00290950536727L174.60468749999998,51.07491340637206L174.830859375,43.605014199018484L175.05703125,54.77848988175393L175.283203125,39.557164126634575L175.50937499999998,43.87600910067559L175.73554687499998,63.29404574036599L175.96171875,47.49245997667313L176.187890625,62.34525587558747L176.4140625,30.60781773328779L176.640234375,48.666677439212805L176.86640624999998,54.56998627781867L177.092578125,55.1335420846939L177.31875,58.54241248369216L177.544921875,35.93482282161713L177.77109375,47.59709861278532L177.997265625,52.148553991317755L178.2234375,59.76668980121612L178.449609375,56.27488743662833L178.67578125,44.515278899669624L178.901953125,48.55651762485502L179.128125,50.48803325891495L179.35429687500002,56.26842554807662L179.58046875,48.33041306734086L179.806640625,53.356848025321966L180.0328125,51.43284928202628L180.258984375,40.605862700939156L180.48515625000002,61.908678376674644L180.71132812500002,38.47873207330704L180.9375,59.5654745042324L181.163671875,35.670623892545706L181.38984375,57.432479822635656L181.61601562500002,52.58021693825721L181.84218750000002,59.38717033863067L182.068359375,28.217279428243643L182.29453124999998,57.234306448698035L182.52070312499998,56.095642560720435L182.746875,52.24135022759437L182.973046875,34.2177100121975L183.19921875,48.62928640246389L183.42539062499998,42.94834565520287L183.65156249999998,60.39652612209319L183.877734375,48.89723938107491L184.10390625,51.28543030619622L184.330078125,46.1045342326164L184.55625,55.1075890302658L184.78242187499998,56.52479987740516L185.00859375,48.84442772865293L185.234765625,50.72037991285323L185.4609375,46.303665900230385L185.687109375,48.6781857550144L185.91328125,56.82771738767623L186.139453125,56.36610116958617L186.365625,60.28273534178733L186.591796875,56.3468385875225L186.81796875,54.45160623788833L187.044140625,61.304997318983084L187.2703125,52.43341338038444L187.496484375,51.76664319038392L187.72265625,58.53571321964263L187.948828125,49.44034572839736L188.175,55.38179289698601L188.40117187500002,57.14355867505073L188.62734375,57.237700039148336L188.853515625,59.13207959532737L189.0796875,41.18516441583631L189.305859375,49.38053589463233L189.53203125000002,55.54141473174096L189.75820312500002,50.71000572443009L189.984375,52.599743270874015L190.210546875,56.14717062711716L190.43671875,57.799734884500495L190.66289062500002,52.76187952756882L190.88906250000002,46.11435454487801L191.115234375,50.749084764719L191.34140624999998,49.15823813676833L191.56757812499998,51.65442612171172L191.79375,50.80752309560775L192.019921875,61.510722750425344L192.24609375,51.14407759308814L192.47226562499998,57.95562025308608L192.69843749999998,56.028720253705984L192.924609375,56.369433218240744L193.15078125,51.47150632143021L193.376953125,55.81882756352425L193.603125,63.03946491479873L193.82929687499998,52.04329114556313L194.05546875,50.927538388967506L194.281640625,54.12309613227845L194.5078125,59.47308268547057L194.733984375,61.923518741130835L194.96015625,52.16148656010627L195.186328125,59.43305414319039L195.4125,55.21316837668418L195.638671875,55.290746206045156L195.86484375,57.12337296605109L196.091015625,51.49068977832793L196.31718750000002,58.49690672159194L196.543359375,53.31854265332221L196.76953125,60.077678078413L196.995703125,47.55594473481179L197.221875,49.59983568787574L197.44804687500002,54.61456012129783L197.67421875000002,50.17817910909653L197.900390625,59.45464652180671L198.1265625,58.89131929874419L198.352734375,62.145183497667304L198.57890625000002,57.94356685280799L198.80507812500002,53.2080399632454L199.03125,40.77119913101197L199.25742187499998,60.74711214900017L199.48359374999998,50.42707171440124L199.709765625,62.7649972975254L199.9359375,64.56455852985383L200.162109375,51.965563857555395L200.38828124999998,64.35576480031013L200.61445312499998,55.28516348600387L200.840625,59.698598200082785L201.066796875,43.373239004611946L201.29296875,54.7295729458332L201.519140625,60.98527889847756L201.74531249999998,54.33521311879157L201.971484375,58.20585798621177L202.19765625,48.3146144092083L202.423828125,46.95681777000425L202.65,67.37068858146667L202.876171875,63.16325184106827L203.10234375,48.127404266595846L203.328515625,52.46876474618911L203.5546875,57.79982280135154L203.780859375,63.743801975250236L204.00703125,50.25853511095046L204.233203125,58.40775024294854L204.459375,55.6491304576397L204.685546875,61.821069234609595L204.91171875,48.905336523056036L205.137890625,65.21662023067474L205.36406250000002,66.89539250135421L205.590234375,64.55332275629044L205.81640625,43.6412535250187L206.042578125,58.41633092761039L206.26875,63.95767729878425L206.49492187500002,59.26225807666778L206.72109375000002,43.49857326745985L206.947265625,60.42896744012832L207.1734375,51.13493424057961L207.399609375,51.264084094762794L207.62578125000002,57.928128653764716L207.85195312500002,63.650689238309866L208.078125,51.367562228441244L208.30429687499998,51.26559626460076L208.53046874999998,57.43877466917037L208.756640625,67.6558380961418L208.9828125,55.90382557511329L209.208984375,65.68953376412392L209.43515624999998,50.94718780517577L209.66132812499998,46.78320836424828L209.8875,59.27625443935395L210.113671875,49.390584790706626L210.33984375,61.887059623003L210.566015625,48.56820177435873L210.79218749999998,59.68711625933646L211.018359375,59.96111791729926L211.24453125,68.56785234212875L211.470703125,58.2507834970951L211.696875,59.51934453248977L211.923046875,55.851743632555014L212.14921875,50.890059435367576L212.375390625,58.27377375364303L212.6015625,49.853431844711295L212.827734375,52.73291971683503L213.05390625,52.86992054581641L213.28007812500002,60.186844432353965L213.50625,59.7897943496704L213.732421875,58.15527942180633L213.95859375,63.72193705439567L214.184765625,47.9032602548599L214.41093750000002,67.12569069266318L214.63710937500002,56.22692000269889L214.86328125,53.30652441978455L215.089453125,54.52293317914008L215.315625,61.40951287150382L215.54179687500002,59.39454656243325L215.76796875000002,65.64621713161468L215.994140625,51.52269151210784L216.22031249999998,56.45114313960076L216.44648437499998,60.514501744508735L216.67265625,58.99007629752158L216.898828125,59.6040700018406L217.125,53.285187000036245L217.35117187499998,57.84430872797965L217.57734374999998,62.034918183088294L217.803515625,62.06331532597541L218.0296875,71.14498537182807L218.255859375,48.5829805970192L218.48203125,64.60950162410737L218.70820312499998,52.58434023857116L218.934375,51.40838202238082L219.160546875,66.31860520839692L219.38671875,64.43031828999518L219.612890625,60.6592568397522L219.8390625,66.72928240299224L220.065234375,54.75858550667762L220.29140625,53.35365664362908L220.517578125,51.27518799304961L220.74375,64.98999696373939L220.969921875,59.079760277271276L221.19609375,60.716174209117895L221.422265625,62.24901329874993L221.6484375,48.79497449994085L221.874609375,54.18810185194015L222.10078125,59.772017562389365L222.32695312500002,59.77017130851745L222.553125,59.96612038612366L222.779296875,62.32753183841706L223.00546875,59.375002646446234L223.231640625,57.02209275364875L223.45781250000002,60.96525143980979L223.68398437500002,66.19975041747092L223.91015625,56.31543468832969L224.136328125,53.66249095797538L224.3625,63.47097840309142L224.58867187500002,65.72215091586112L224.81484375000002,49.37938418388367L225.041015625,67.48163085579871L225.26718749999998,65.86199145913123L225.49335937499998,63.28407596945763L225.71953125,53.68953418135642L225.945703125,69.96405106186866L226.171875,57.160596960782996L226.39804687499998,56.34666275382041L226.62421874999998,55.21579709053039L226.850390625,66.22214283943175L227.0765625,70.69115858674049L227.302734375,65.60711171627045L227.52890625,63.30035817027091L227.75507812499998,54.167476558685294L227.98125,61.00227322578429L228.207421875,60.25865491628646L228.43359375,59.942497128248206L228.659765625,62.01643806099892L228.8859375,63.01476907134055L229.112109375,65.77993866205215L229.33828125,66.18254508972167L229.564453125,66.76832627654076L229.790625,61.266243571043006L230.016796875,68.40920638442039L230.24296875000002,61.308971160650245L230.469140625,66.40124704837798L230.6953125,56.246041917800895L230.921484375,72.41389807462691L231.14765625,65.25698285698891L231.37382812500002,58.02174251675605L231.60000000000002,55.38269844055175L231.826171875,63.003076130151754L232.05234375,66.03519644737243L232.278515625,69.48480751514434L232.50468750000002,61.60706203579902L232.73085937500002,53.610637599229804L232.95703125,70.43619092702865L233.18320312499998,65.32299962043763L233.40937499999998,67.81982939839362L233.635546875,60.2498808145523L233.86171875,67.61128183603286L234.087890625,67.39072483181954L234.31406249999998,66.13134231567383L234.54023437499998,61.731534713506704L234.76640625,64.82030864953994L234.992578125,68.08578666448594L235.21875,64.89189934134484L235.444921875,64.4042069852352L235.67109374999998,60.643748307228094L235.897265625,65.60941513776778L236.1234375,62.591387891769415L236.349609375,69.48482509851456L236.57578125,56.64938684701919L236.801953125,62.016394102573386L237.028125,58.316580468416205L237.254296875,68.37463747859L237.48046875,68.63036122322082L237.706640625,64.92958050370216L237.9328125,63.5982556283474L238.158984375,65.68162124752999L238.38515625,56.41534339785575L238.611328125,52.15444442033767L238.8375,68.18685587644578L239.063671875,59.974112027883535L239.28984375000002,64.13779255151748L239.516015625,63.767117524147025L239.7421875,61.99028279781341L239.968359375,62.92078595757485L240.19453125,65.15915777683259L240.42070312500002,66.32007341980933L240.64687500000002,64.89035200476646L240.873046875,62.55891140699386L241.09921875,65.7433916270733L241.325390625,68.20050936341285L241.55156250000002,71.15538593530654L241.77773437500002,60.67366641163825L242.00390625,59.979554080963126L242.23007812499998,57.32515093088149L242.45624999999998,70.12893032431603L242.682421875,54.113645070791236L242.90859375,69.77992680072784L243.134765625,66.94750961065292L243.36093749999998,70.23207437396049L243.58710937499998,65.99246885776519L243.81328125,54.89881288409234L244.039453125,54.64893561005593L244.265625,71.04208748936654L244.491796875,64.4756042599678L244.71796874999998,62.49291222691535L244.944140625,52.57701676487923L245.1703125,67.08776336312293L245.396484375,69.6752442061901L245.62265625,65.52003007531165L245.848828125,59.80395775437354L246.075,63.50433405637742L246.301171875,67.42799278497696L246.52734375,60.42395617961883L246.753515625,62.64112245440482L246.9796875,63.185415679216376L247.20585937500002,68.29779815077781L247.43203125,61.70149352550507L247.658203125,71.12421061992644L247.884375,74.58069678544999L248.110546875,62.16573845744132L248.33671875000002,66.04634430408477L248.56289062500002,58.05756863355637L248.7890625,51.52447622418403L249.015234375,67.62084718942643L249.24140625,70.1884060740471L249.46757812500002,68.98763772249221L249.69375000000002,68.52616217136382L249.919921875,52.166770362853995L250.14609374999998,69.30182617306708L250.37226562499998,58.49459450840949L250.5984375,55.29799055457114L250.824609375,65.90139579176902L251.05078125,66.1806021273136L251.27695312499998,68.99761628508567L251.50312499999998,65.55657711029053L251.729296875,49.542302900552755L251.95546875,50.250675344467155L252.181640625,67.60961141586304L252.4078125,57.66598697900771L252.63398437499998,57.13930349946021L252.86015625,63.56254380345345L253.086328125,68.93137972950935L253.3125,60.80075901150704L253.538671875,65.998095536232L253.76484375,59.00497820377349L253.991015625,55.6946186363697" style="fill: none;" fill="none"></path></g></g></g></g></g></g><g transform="translate(58, 177)" clip-path="url(#clip_1)"><clipPath id="clip_1"><rect width="271" height="23"></rect></clipPath><g><g><line x1="0" y1="0" x2="0" y2="5" style="visibility: inherit;" fill="rgb(0, 0, 0)" stroke="rgb(204, 204, 204)" stroke-width="1px"></line><line x1="22.6171875" y1="0" x2="22.6171875" y2="5" style="visibility: inherit;" fill="rgb(0, 0, 0)" stroke="rgb(204, 204, 204)" stroke-width="1px"></line><line x1="45.234375" y1="0" x2="45.234375" y2="5" style="visibility: inherit;" fill="rgb(0, 0, 0)" stroke="rgb(204, 204, 204)" stroke-width="1px"></line><line x1="67.8515625" y1="0" x2="67.8515625" y2="5" style="visibility: inherit;" fill="rgb(0, 0, 0)" stroke="rgb(204, 204, 204)" stroke-width="1px"></line><line x1="90.46875" y1="0" x2="90.46875" y2="5" style="visibility: inherit;" fill="rgb(0, 0, 0)" stroke="rgb(204, 204, 204)" stroke-width="1px"></line><line x1="113.0859375" y1="0" x2="113.0859375" y2="5" style="visibility: inherit;" fill="rgb(0, 0, 0)" stroke="rgb(204, 204, 204)" stroke-width="1px"></line><line x1="135.703125" y1="0" x2="135.703125" y2="5" style="visibility: inherit;" fill="rgb(0, 0, 0)" stroke="rgb(204, 204, 204)" stroke-width="1px"></line><line x1="158.3203125" y1="0" x2="158.3203125" y2="5" style="visibility: inherit;" fill="rgb(0, 0, 0)" stroke="rgb(204, 204, 204)" stroke-width="1px"></line><line x1="180.9375" y1="0" x2="180.9375" y2="5" style="visibility: inherit;" fill="rgb(0, 0, 0)" stroke="rgb(204, 204, 204)" stroke-width="1px"></line><line x1="203.5546875" y1="0" x2="203.5546875" y2="5" style="visibility: inherit;" fill="rgb(0, 0, 0)" stroke="rgb(204, 204, 204)" stroke-width="1px"></line><line x1="226.171875" y1="0" x2="226.171875" y2="5" style="visibility: inherit;" fill="rgb(0, 0, 0)" stroke="rgb(204, 204, 204)" stroke-width="1px"></line><line x1="248.7890625" y1="0" x2="248.7890625" y2="5" style="visibility: inherit;" fill="rgb(0, 0, 0)" stroke="rgb(204, 204, 204)" stroke-width="1px"></line><line x1="271.40625" y1="0" x2="271.40625" y2="5" style="visibility: inherit;" fill="rgb(0, 0, 0)" stroke="rgb(204, 204, 204)" stroke-width="1px"></line></g><g transform="translate(0, 8)"><text x="0" y="0" dx="0em" dy="0.95em" style="text-anchor: middle; visibility: hidden; font-family: &quot;Helvetica Neue&quot;, sans-serif; font-size: 12px; font-weight: 200;" fill="rgb(50, 49, 63)" stroke="none" stroke-width="1px">-100</text><text x="22.6171875" y="0" dx="0em" dy="0.95em" style="text-anchor: middle; visibility: inherit; font-family: &quot;Helvetica Neue&quot;, sans-serif; font-size: 12px; font-weight: 200;" fill="rgb(50, 49, 63)" stroke="none" stroke-width="1px">0</text><text x="45.234375" y="0" dx="0em" dy="0.95em" style="text-anchor: middle; visibility: hidden; font-family: &quot;Helvetica Neue&quot;, sans-serif; font-size: 12px; font-weight: 200;" fill="rgb(50, 49, 63)" stroke="none" stroke-width="1px">100</text><text x="67.8515625" y="0" dx="0em" dy="0.95em" style="text-anchor: middle; visibility: inherit; font-family: &quot;Helvetica Neue&quot;, sans-serif; font-size: 12px; font-weight: 200;" fill="rgb(50, 49, 63)" stroke="none" stroke-width="1px">200</text><text x="90.46875" y="0" dx="0em" dy="0.95em" style="text-anchor: middle; visibility: hidden; font-family: &quot;Helvetica Neue&quot;, sans-serif; font-size: 12px; font-weight: 200;" fill="rgb(50, 49, 63)" stroke="none" stroke-width="1px">300</text><text x="113.0859375" y="0" dx="0em" dy="0.95em" style="text-anchor: middle; visibility: inherit; font-family: &quot;Helvetica Neue&quot;, sans-serif; font-size: 12px; font-weight: 200;" fill="rgb(50, 49, 63)" stroke="none" stroke-width="1px">400</text><text x="135.703125" y="0" dx="0em" dy="0.95em" style="text-anchor: middle; visibility: hidden; font-family: &quot;Helvetica Neue&quot;, sans-serif; font-size: 12px; font-weight: 200;" fill="rgb(50, 49, 63)" stroke="none" stroke-width="1px">500</text><text x="158.3203125" y="0" dx="0em" dy="0.95em" style="text-anchor: middle; visibility: inherit; font-family: &quot;Helvetica Neue&quot;, sans-serif; font-size: 12px; font-weight: 200;" fill="rgb(50, 49, 63)" stroke="none" stroke-width="1px">600</text><text x="180.9375" y="0" dx="0em" dy="0.95em" style="text-anchor: middle; visibility: hidden; font-family: &quot;Helvetica Neue&quot;, sans-serif; font-size: 12px; font-weight: 200;" fill="rgb(50, 49, 63)" stroke="none" stroke-width="1px">700</text><text x="203.5546875" y="0" dx="0em" dy="0.95em" style="text-anchor: middle; visibility: inherit; font-family: &quot;Helvetica Neue&quot;, sans-serif; font-size: 12px; font-weight: 200;" fill="rgb(50, 49, 63)" stroke="none" stroke-width="1px">800</text><text x="226.171875" y="0" dx="0em" dy="0.95em" style="text-anchor: middle; visibility: hidden; font-family: &quot;Helvetica Neue&quot;, sans-serif; font-size: 12px; font-weight: 200;" fill="rgb(50, 49, 63)" stroke="none" stroke-width="1px">900</text><text x="248.7890625" y="0" dx="0em" dy="0.95em" style="text-anchor: middle; visibility: inherit; font-family: &quot;Helvetica Neue&quot;, sans-serif; font-size: 12px; font-weight: 200;" fill="rgb(50, 49, 63)" stroke="none" stroke-width="1px">1k</text><text x="271.40625" y="0" dx="0em" dy="0.95em" style="text-anchor: middle; visibility: hidden; font-family: &quot;Helvetica Neue&quot;, sans-serif; font-size: 12px; font-weight: 200;" fill="rgb(50, 49, 63)" stroke="none" stroke-width="1px">1.1k</text></g><line x1="0" y1="0" x2="271.40625" y2="0" fill="rgb(0, 0, 0)" stroke="rgb(204, 204, 204)" stroke-width="1px"></line></g></g></g></g></svg>