<svg viewBox="0 0 330 200" xmlns="http://www.w3.org/2000/svg"><g><g><g><g><g><line x1="48.875" y1="177" x2="43.875" y2="177" style="visibility: inherit;" fill="rgb(0, 0, 0)" stroke="rgb(204, 204, 204)" stroke-width="1px"></line><line x1="48.875" y1="151.71428571428572" x2="43.875" y2="151.71428571428572" style="visibility: inherit;" fill="rgb(0, 0, 0)" stroke="rgb(204, 204, 204)" stroke-width="1px"></line><line x1="48.875" y1="126.42857142857143" x2="43.875" y2="126.42857142857143" style="visibility: inherit;" fill="rgb(0, 0, 0)" stroke="rgb(204, 204, 204)" stroke-width="1px"></line><line x1="48.875" y1="101.14285714285715" x2="43.875" y2="101.14285714285715" style="visibility: inherit;" fill="rgb(0, 0, 0)" stroke="rgb(204, 204, 204)" stroke-width="1px"></line><line x1="48.875" y1="75.85714285714286" x2="43.875" y2="75.85714285714286" style="visibility: inherit;" fill="rgb(0, 0, 0)" stroke="rgb(204, 204, 204)" stroke-width="1px"></line><line x1="48.875" y1="50.57142857142857" x2="43.875" y2="50.57142857142857" style="visibility: inherit;" fill="rgb(0, 0, 0)" stroke="rgb(204, 204, 204)" stroke-width="1px"></line><line x1="48.875" y1="25.285714285714306" x2="43.875" y2="25.285714285714306" style="visibility: inherit;" fill="rgb(0, 0, 0)" stroke="rgb(204, 204, 204)" stroke-width="1px"></line><line x1="48.875" y1="0" x2="43.875" y2="0" style="visibility: inherit;" fill="rgb(0, 0, 0)" stroke="rgb(204, 204, 204)" stroke-width="1px"></line></g><g transform="translate(38.875, 0)"><text x="0" y="177" dx="0em" dy="0.3em" style="text-anchor: end; visibility: hidden; font-family: &quot;Helvetica Neue&quot;, sans-serif; font-size: 12px; font-weight: 200;" fill="rgb(50, 49, 63)" stroke="none" stroke-width="1px">94</text><text x="0" y="151.71428571428572" dx="0em" dy="0.3em" style="text-anchor: end; visibility: inherit; font-family: &quot;Helvetica Neue&quot;, sans-serif; font-size: 12px; font-weight: 200;" fill="rgb(50, 49, 63)" stroke="none" stroke-width="1px">94.5</text><text x="0" y="126.42857142857143" dx="0em" dy="0.3em" style="text-anchor: end; visibility: inherit; font-family: &quot;Helvetica Neue&quot;, sans-serif; font-size: 12px; font-weight: 200;" fill="rgb(50, 49, 63)" stroke="none" stroke-width="1px">95</text><text x="0" y="101.14285714285715" dx="0em" dy="0.3em" style="text-anchor: end; visibility: inherit; font-family: &quot;Helvetica Neue&quot;, sans-serif; font-size: 12px; font-weight: 200;" fill="rgb(50, 49, 63)" stroke="none" stroke-width="1px">95.5</text><text x="0" y="75.85714285714286" dx="0em" dy="0.3em" style="text-anchor: end; visibility: inherit; font-family: &quot;Helvetica Neue&quot;, sans-serif; font-size: 12px; font-weight: 200;" fill="rgb(50, 49, 63)" stroke="none" stroke-width="1px">96</text><text x="0" y="50.57142857142857" dx="0em" dy="0.3em" style="text-anchor: end; visibility: inherit; font-family: &quot;Helvetica Neue&quot;, sans-serif; font-size: 12px; font-weight: 200;" fill="rgb(50, 49, 63)" stroke="none" stroke-width="1px">96.5</text><text x="0" y="25.285714285714306" dx="0em" dy="0.3em" style="text-anchor: end; visibility: inherit; font-family: &quot;Helvetica Neue&quot;, sans-serif; font-size: 12px; font-weight: 200;" fill="rgb(50, 49, 63)" stroke="none" stroke-width="1px">97</text><text x="0" y="0" dx="0em" dy="0.3em" style="text-anchor: end; visibility: hidden; font-family: &quot;Helvetica Neue&quot;, sans-serif; font-size: 12px; font-weight: 200;" fill="rgb(50, 49, 63)" stroke="none" stroke-width="1px">97.5</text></g><line x1="48.875" y1="0" x2="48.875" y2="177" fill="rgb(0, 0, 0)" stroke="rgb(204, 204, 204)" stroke-width="1px"></line></g></g><g transform="translate(48, 0)" clip-path="url(#clip_0)"><clipPath id="clip_0"><rect width="281" height="177"></rect></clipPath><g><g><g><line x1="0" y1="0" x2="0" y2="177" fill="rgb(0, 0, 0)" stroke="rgb(60, 60, 60)" stroke-width="1px" opacity="0.25"></line><line x1="23.427083333333332" y1="0" x2="23.427083333333332" y2="177" fill="rgb(0, 0, 0)" stroke="rgb(60, 60, 60)" stroke-width="1px" opacity="0.25"></line><line x1="46.854166666666664" y1="0" x2="46.854166666666664" y2="177" fill="rgb(0, 0, 0)" stroke="rgb(60, 60, 60)" stroke-width="1px" opacity="0.25"></line><line x1="70.28125" y1="0" x2="70.28125" y2="177" fill="rgb(0, 0, 0)" stroke="rgb(60, 60, 60)" stroke-width="1px" opacity="0.25"></line><line x1="93.70833333333333" y1="0" x2="93.70833333333333" y2="177" fill="rgb(0, 0, 0)" stroke="rgb(60, 60, 60)" stroke-width="1px" opacity="0.25"></line><line x1="117.13541666666667" y1="0" x2="117.13541666666667" y2="177" fill="rgb(0, 0, 0)" stroke="rgb(60, 60, 60)" stroke-width="1px" opacity="0.25"></line><line x1="140.5625" y1="0" x2="140.5625" y2="177" fill="rgb(0, 0, 0)" stroke="rgb(60, 60, 60)" stroke-width="1px" opacity="0.25"></line><line x1="163.98958333333334" y1="0" x2="163.98958333333334" y2="177" fill="rgb(0, 0, 0)" stroke="rgb(60, 60, 60)" stroke-width="1px" opacity="0.25"></line><line x1="187.41666666666666" y1="0" x2="187.41666666666666" y2="177" fill="rgb(0, 0, 0)" stroke="rgb(60, 60, 60)" stroke-width="1px" opacity="0.25"></line><line x1="210.84375" y1="0" x2="210.84375" y2="177" fill="rgb(0, 0, 0)" stroke="rgb(60, 60, 60)" stroke-width="1px" opacity="0.25"></line><line x1="234.27083333333334" y1="0" x2="234.27083333333334" y2="177" fill="rgb(0, 0, 0)" stroke="rgb(60, 60, 60)" stroke-width="1px" opacity="0.25"></line><line x1="257.69791666666663" y1="0" x2="257.69791666666663" y2="177" fill="rgb(0, 0, 0)" stroke="rgb(60, 60, 60)" stroke-width="1px" opacity="0.25"></line><line x1="281.125" y1="0" x2="281.125" y2="177" fill="rgb(0, 0, 0)" stroke="rgb(60, 60, 60)" stroke-width="1px" opacity="0.25"></line></g><g><line x1="0" y1="177" x2="281.125" y2="177" fill="rgb(0, 0, 0)" stroke="rgb(60, 60, 60)" stroke-width="1px" opacity="0.25"></line><line x1="0" y1="151.71428571428572" x2="281.125" y2="151.71428571428572" fill="rgb(0, 0, 0)" stroke="rgb(60, 60, 60)" stroke-width="1px" opacity="0.25"></line><line x1="0" y1="126.42857142857143" x2="281.125" y2="126.42857142857143" fill="rgb(0, 0, 0)" stroke="rgb(60, 60, 60)" stroke-width="1px" opacity="0.25"></line><line x1="0" y1="101.14285714285715" x2="281.125" y2="101.14285714285715" fill="rgb(0, 0, 0)" stroke="rgb(60, 60, 60)" stroke-width="1px" opacity="0.25"></line><line x1="0" y1="75.85714285714286" x2="281.125" y2="75.85714285714286" fill="rgb(0, 0, 0)" stroke="rgb(60, 60, 60)" stroke-width="1px" opacity="0.25"></line><line x1="0" y1="50.57142857142857" x2="281.125" y2="50.57142857142857" fill="rgb(0, 0, 0)" stroke="rgb(60, 60, 60)" stroke-width="1px" opacity="0.25"></line><line x1="0" y1="25.285714285714306" x2="281.125" y2="25.285714285714306" fill="rgb(0, 0, 0)" stroke="rgb(60, 60, 60)" stroke-width="1px" opacity="0.25"></line><line x1="0" y1="0" x2="281.125" y2="0" fill="rgb(0, 0, 0)" stroke="rgb(60, 60, 60)" stroke-width="1px" opacity="0.25"></line></g></g></g><g><g><line x1="0" y1="4930.714285714286" x2="281.125" y2="4930.714285714286" fill="rgb(0, 0, 0)" stroke="rgb(153, 153, 153)" stroke-width="1.5px"></line></g></g><g><g><line x1="23.427083333333332" y1="0" x2="23.427083333333332" y2="177" fill="rgb(0, 0, 0)" stroke="rgb(153, 153, 153)" stroke-width="1.5px"></line></g></g><g><g><g><g><g><path stroke="rgb(0, 119, 187)" stroke-width="2px" d="M25.769791666666666,203.0473414829799L28.1125,171.77046857561385L30.455208333333335,154.6747545514788L32.797916666666666,190.419917515346L35.140625,121.45523071289062L37.483333333333334,163.99986485072546L39.82604166666667,176.6269029889788L42.168749999999996,161.08569553920202L44.51145833333333,166.7195761544364L46.854166666666664,99.50308227539062L49.196875,138.55094473702567L51.53958333333333,150.9839106968471L53.88229166666667,74.83160836356026L56.225,141.65918622698103L58.567708333333336,99.30901009695872L60.91041666666667,146.32154846191406L63.253125000000004,113.68462698800224L65.59583333333333,118.92997741699219L67.93854166666667,134.47118486676897L70.28125,119.31850760323661L72.62395833333333,116.59879629952567L74.96666666666667,80.07657296316964L77.309375,105.52549307686941L79.65208333333334,293.57526070731024L81.99479166666667,114.26761518205916L84.33749999999999,128.6432320731027L86.68020833333334,88.23570687430245L89.02291666666666,136.80236598423548L91.36562500000001,97.3663591657366L93.70833333333333,154.09215218680245L96.05104166666666,163.41687665666853L98.39375,141.0761980329241L100.73645833333333,96.58929879324778L103.07916666666667,97.94896153041294L105.421875,1044.2205963134766L107.76458333333333,129.61436462402344L110.10729166666667,134.27711268833704L112.45,97.1719011579241L114.79270833333334,112.32496425083706L117.13541666666667,78.52245221819196L119.47812499999999,110.96491568429128L121.82083333333334,90.17835780552456L124.16354166666666,1078.411638532366L126.50625000000001,121.2611585344587L128.84895833333331,95.4237082345145L131.19166666666666,127.86617170061385L133.53437499999998,175.65577043805803L135.87708333333333,113.10202462332589L138.21979166666665,1110.465571812221L140.5625,89.98428562709263L141.03104166666668,186.9231458391462L141.49958333333333,80.85363333565849L141.96812500000001,118.34698922293526L142.43666666666667,66.08948625837054L142.90520833333332,91.53840637207031L143.37375,123.59233965192522L143.84229166666668,160.6971653529576L144.31083333333333,79.2995125906808L144.77937500000002,118.34698922293526L145.24791666666667,104.16583033970424L145.71645833333332,109.60525294712612L146.185,179.92960248674666L146.65354166666665,151.3724408830915L147.12208333333334,96.97782897949219L147.59062500000002,143.60183715820312L148.05916666666664,105.91402326311385L148.52770833333332,85.90452575683594L148.99625,166.9136483328683L149.46479166666666,95.229250226702L149.93333333333334,152.34357343401228L150.40187500000002,157.58892386300224L150.87041666666664,105.71995108468191L151.33895833333332,107.85667419433594L151.8075,86.87604413713727L152.27604166666666,204.6014622279576L152.74458333333334,133.88858250209265L153.21312500000002,121.2611585344587L153.68166666666664,123.59233965192522L154.15020833333332,92.12100873674666L154.61875,99.50308227539062L155.08729166666666,159.72564697265625L155.55583333333334,117.95845903669084L156.02437500000002,94.06365966796875L156.49291666666667,108.82819257463728L156.96145833333333,87.65310450962612L157.43,89.20722525460378L157.89854166666666,126.70058114188058L158.36708333333334,115.4332057407924L158.835625,149.23533194405692L159.30416666666667,101.64019121442522L159.77270833333333,101.0572030203683L160.24124999999998,195.2767377580915L160.70979166666666,101.0572030203683L161.17833333333334,111.15937369210378L161.646875,187.89427839006697L162.11541666666668,96.97782897949219L162.58395833333336,110.77084350585938L163.05249999999998,121.64968872070312L163.52104166666666,92.8980691092355L163.98958333333334,109.0222647530692L164.458125,142.04771641322546L164.92666666666668,162.25128609793526L165.39520833333336,130.77995518275668L165.86374999999998,111.54790387834822L166.33229166666666,87.84717668805804L166.80083333333334,108.05113220214844L167.269375,124.95200238909041L167.73791666666668,120.67817034040178L168.20645833333336,109.79932512555803L168.67499999999998,114.8502175467355L169.14354166666666,100.86313084193638L169.61208333333335,104.74843270438059L170.080625,81.82515171595982L170.54916666666668,77.16278948102679L171.01770833333333,118.34698922293526L171.48624999999998,91.92693655831472L171.95479166666667,106.10848127092635L172.42333333333332,157.0059356689453L172.891875,128.8373042515346L173.36041666666668,109.2167227608817L173.82895833333333,120.67817034040178L174.29749999999999,132.72299194335938L174.76604166666667,115.62727791922433L175.23458333333332,91.53840637207031L175.703125,115.044675554548L176.17166666666668,112.9075666155134L176.64020833333333,152.9265616280692L177.10875000000001,85.90452575683594L177.57729166666667,80.27103097098214L178.04583333333332,88.62423706054688L178.514375,83.57334463936942L178.98291666666668,130.97441319056918L179.45145833333333,162.05721391950334L179.92000000000002,135.63677542550224L180.38854166666667,67.44914899553571L180.85708333333332,85.51599557059151L181.325625,112.71349443708147L181.79416666666665,116.9873264857701L182.26270833333334,143.60183715820312L182.73125000000002,129.0317622593471L183.19979166666664,92.31546674455916L183.66833333333332,194.3052193777902L184.136875,108.43966238839285L184.60541666666666,93.4810573032924L185.07395833333334,126.11759294782365L185.54250000000002,155.45181492396762L186.01104166666664,159.72564697265625L186.47958333333332,214.12025887625558L186.948125,110.96491568429128L187.41666666666666,128.6432320731027L187.88520833333334,135.63677542550224L188.35375000000002,103.38876996721541L188.82229166666664,173.130131312779L189.29083333333332,117.3758566720145L189.759375,97.94896153041294L190.22791666666666,209.06936645507812L190.69645833333334,107.66260201590403L191.16500000000002,79.88250078473773L191.63354166666667,104.16583033970424L192.10208333333333,134.08265468052454L192.570625,121.0667005266462L193.03916666666666,143.79590933663505L193.50770833333334,87.65310450962612L193.97625,144.5729697091239L194.44479166666667,131.94554574148995L194.91333333333333,125.53499058314732L195.38187499999998,118.34698922293526L195.85041666666666,127.67171369280135L196.31895833333334,148.45827157156808L196.7875,93.092527117048L197.25604166666668,141.46472821916853L197.72458333333336,87.45864650181362L198.19312499999998,125.14646039690291L198.66166666666666,145.93301827566964L199.13020833333334,98.72602190290178L199.59875,104.94289071219309L200.06729166666668,133.88858250209265L200.53583333333336,117.56992885044643L201.00437499999998,85.71045357840401L201.47291666666666,87.0701163155692L201.94145833333334,72.11151123046875L202.41,166.33104596819197L202.87854166666668,102.61132376534597L203.34708333333336,115.044675554548L203.81562499999998,135.0541730608259L204.28416666666666,74.83160836356026L204.75270833333335,119.51257978166853L205.22125,92.8980691092355L205.68979166666668,97.56043134416853L206.15833333333333,160.8916233607701L206.62687499999998,181.67779541015625L207.09541666666667,103.19431195940291L207.56395833333332,117.56992885044643L208.0325,124.36940002441406L208.50104166666668,154.28622436523438L208.96958333333333,113.10202462332589L209.43812499999999,117.3758566720145L209.90666666666667,137.1908961704799L210.37520833333332,101.44573320661272L210.84375,77.74539184570312L211.31229166666668,136.60829380580358L211.78083333333333,125.72906276157924L212.24937500000001,105.136962890625L212.71791666666667,154.8692125592913L213.18645833333332,162.05721391950334L213.655,75.41421072823661L214.12354166666668,100.66867283412388L214.59208333333333,144.7674277169364L215.06062500000002,146.7100786481585L215.52916666666667,75.41421072823661L215.99770833333332,110.18785531180247L216.46625,132.72299194335938L216.93479166666665,151.95504324776786L217.40333333333334,117.95845903669084L217.87187500000002,118.73551940917969L218.34041666666664,99.11455208914622L218.80895833333332,98.92047991071428L219.2775,145.54448808942522L219.74604166666666,98.53194972446987L220.21458333333334,116.21026611328125L220.68312500000002,141.85325840541296L221.15166666666664,133.88858250209265L221.62020833333332,123.59233965192522L222.08875,81.2421635219029L222.55729166666666,74.44269234793526L223.02583333333334,116.59879629952567L223.49437500000002,136.21976361955916L223.96291666666664,131.36294337681363L224.43145833333332,166.7195761544364L224.9,86.09898376464844L225.36854166666666,90.17835780552456L225.83708333333334,128.8373042515346L226.30562500000002,94.45218985421316L226.77416666666667,96.97782897949219L227.24270833333333,106.69108363560268L227.71125,100.08607046944753L228.17979166666666,192.36256844656808L228.64833333333334,115.82173592703683L229.116875,149.81832013811385L229.58541666666667,85.71045357840401L230.05395833333333,88.23570687430245L230.52249999999998,128.6432320731027L230.99104166666666,91.34394836425781L231.45958333333334,97.1719011579241L231.928125,292.99265834263394L232.39666666666668,116.7928684779576L232.86520833333336,63.95237731933594L233.33374999999998,78.91098240443638L233.80229166666666,159.53157479422433L234.27083333333334,140.10506548200334L234.739375,89.40129743303572L235.20791666666668,129.4202924455915L235.67645833333336,102.02872140066965L236.14499999999998,103.38838413783482L236.61354166666666,86.68158612932477L237.08208333333334,125.53499058314732L237.550625,82.60221208844867L238.01916666666668,154.09215218680245L238.48770833333336,60.45560564313617L238.95624999999998,112.13050624302456L239.42479166666666,110.96491568429128L239.89333333333335,123.0093514578683L240.361875,169.24482945033483L240.83041666666668,80.27103097098214L241.29895833333333,117.56992885044643L241.76749999999998,91.34394836425781L242.23604166666667,158.9485866001674L242.70458333333332,99.50308227539062L243.173125,150.40092250279017L243.64166666666668,152.53803144182478L244.11020833333333,79.2995125906808L244.57874999999999,110.77084350585938L245.04729166666667,118.15291704450334L245.51583333333332,90.37281581333706L245.984375,67.83767918178013L246.45291666666668,98.33749171665737L246.92145833333333,93.67512948172434L247.39000000000001,88.04163469587054L247.85854166666667,169.43928745814733L248.32708333333332,113.49055480957031L248.795625,107.85667419433594L249.26416666666668,110.57638549804688L249.73270833333333,98.33749171665737L250.20125000000002,112.51903642926897L250.66979166666667,157.78299604143416L251.13833333333332,110.38231331961497L251.606875,107.66260201590403L252.07541666666665,83.184814453125L252.54395833333334,156.42333330426897L253.01250000000002,99.11455208914622L253.48104166666664,108.82819257463728L253.94958333333332,163.80540684291296L254.418125,118.73551940917969L254.88666666666666,147.48713902064733L255.35520833333334,90.17835780552456L255.82375000000002,113.68462698800224L256.29229166666664,98.92047991071428L256.7608333333333,97.75488935198103L257.229375,126.70058114188058L257.69791666666663,114.65614536830357L257.9321875,109.60525294712612L258.1664583333333,106.30255344935826L258.4007291666667,153.1206338065011L258.635,118.73551940917969L258.8692708333333,89.40129743303572L259.1035416666667,165.55398559570312L259.3378125,106.69108363560268L259.57208333333335,130.39142499651228L259.80635416666667,106.69108363560268L260.04062500000003,70.16886029924665L260.27489583333335,128.8373042515346L260.50916666666666,140.29913766043526L260.74343749999997,176.04430062430245L260.97770833333334,80.07657296316964L261.21197916666665,141.65918622698103L261.44625,178.5695539202009L261.68052083333333,153.3150918143136L261.91479166666664,78.13392203194755L262.1490625,123.98086983816964L262.3833333333333,114.26761518205916L262.6176041666667,84.35040501185826L262.851875,93.86958748953684L263.0861458333333,118.15291704450334" style="fill: none;" fill="none"></path></g><g><path stroke="rgb(51, 187, 238)" stroke-width="2px" d="M23.427083333333332,4415.923990794591L25.769791666666666,171.7534920828683L28.1125,130.93197195870536L30.455208333333335,133.48770577566964L32.797916666666666,109.17466735839844L35.140625,114.49293954031808L37.483333333333334,119.88066101074219L39.82604166666667,105.72110857282365L42.168749999999996,100.47151402064732L44.51145833333333,89.76552036830357L46.854166666666664,95.15285600934709L49.196875,102.6128670828683L51.53958333333333,98.26109749930247L53.88229166666667,89.83458382742747L56.225,94.80753871372768L58.567708333333336,87.5551038469587L60.91041666666667,92.5975080217634L63.253125000000004,90.24896458217076L65.59583333333333,89.76552036830357L67.93854166666667,102.05997358049666L70.28125,93.0118887765067L72.62395833333333,103.23443821498326L74.96666666666667,97.43233598981584L77.309375,81.54581124441964L79.65208333333334,89.28207615443638L81.99479166666667,90.0417742047991L84.33749999999999,97.6395263671875L86.68020833333334,93.08095223563059L89.02291666666666,84.99937002999442L91.36562500000001,84.58498927525112L93.70833333333333,81.20049394880023L96.05104166666666,85.96664428710938L98.39375,87.83135768345424L100.73645833333333,80.09547860281808L103.07916666666667,91.42304338727678L105.421875,1002.822261265346L107.76458333333333,82.78933933803013L110.10729166666667,92.1827414376395L112.45,88.52199227469309L114.79270833333334,88.17667497907367L117.13541666666667,80.16454206194196L119.47812499999999,85.27562386648995L121.82083333333334,83.13465663364956L124.16354166666666,1010.4890768868582L126.50625000000001,91.42304338727678L128.84895833333331,87.41697692871094L131.19166666666666,94.11690412248885L133.53437499999998,97.57046290806362L135.87708333333333,103.16537475585938L138.21979166666665,526.5047018868584L140.5625,98.26109749930247L141.03104166666668,85.5518777029855L141.49958333333333,80.50985935756138L141.96812500000001,88.10761151994977L142.43666666666667,85.0684334891183L142.90520833333332,79.26633126395089L143.37375,79.95735168457031L143.84229166666668,78.57569667271206L144.31083333333333,90.38709150041853L144.77937500000002,111.4537615094866L145.24791666666667,91.42304338727678L145.71645833333332,92.66657148088728L146.185,80.92424011230469L146.65354166666665,87.00259617396763L147.12208333333334,91.8374241420201L147.59062500000002,78.09225245884487L148.05916666666664,79.05914088657924L148.52770833333332,88.24573843819755L148.99625,83.61810084751674L149.46479166666666,111.79907880510603L149.93333333333334,81.61487470354352L150.40187500000002,92.04461451939174L150.87041666666664,90.80147225516184L151.33895833333332,87.48604038783482L151.8075,84.44686235700335L152.27604166666666,78.7828870500837L152.74458333333334,88.17667497907367L153.21312500000002,83.20372009277344L153.68166666666664,88.4529288155692L154.15020833333332,79.61203438895089L154.61875,86.45008850097656L155.08729166666666,83.7562277657645L155.55583333333334,97.01795523507253L156.02437500000002,80.99330357142857L156.49291666666667,78.85195050920758L156.96145833333333,81.61487470354352L157.43,104.47758047921316L157.89854166666666,89.90364728655135L158.36708333333334,90.59428187779018L158.835625,85.75906808035714L159.30416666666667,81.338620867048L159.77270833333333,97.70858982631138L160.24124999999998,95.29098292759487L160.70979166666666,92.80469839913503L161.17833333333334,86.93353271484375L161.646875,87.20978655133929L162.11541666666668,87.83135768345424L162.58395833333336,80.37173243931362L163.05249999999998,83.96341814313617L163.52104166666666,80.57892281668526L163.98958333333334,91.42304338727678L164.458125,81.82206508091518L164.92666666666668,103.30350167410715L165.39520833333336,91.28491646902903L165.86374999999998,90.80147225516184L166.33229166666666,99.2283717564174L166.80083333333334,91.97555106026785L167.269375,91.00866263253347L167.73791666666668,79.33539472307477L168.20645833333336,89.42020307268416L168.67499999999998,78.43756975446429L169.14354166666666,83.13465663364956L169.61208333333335,80.99330357142857L170.080625,89.55832999093191L170.54916666666668,84.86124311174665L171.01770833333333,79.12820434570312L171.48624999999998,84.93030657087054L171.95479166666667,80.99330357142857L172.42333333333332,91.49210684640066L172.891875,87.69323076520648L173.36041666666668,93.56439644949778L173.82895833333333,82.65121241978237L174.29749999999999,84.10154506138393L174.76604166666667,81.68393816266742L175.23458333333332,80.92424011230469L175.703125,91.42304338727678L176.17166666666668,87.69323076520648L176.64020833333333,96.05106680733816L177.10875000000001,78.85195050920758L177.57729166666667,84.58498927525112L178.04583333333332,92.1827414376395L178.514375,90.110837663923L178.98291666666668,98.67547825404576L179.45145833333333,96.05106680733816L179.92000000000002,86.86446925571987L180.38854166666667,83.7562277657645L180.85708333333332,91.97555106026785L181.325625,84.79217965262276L181.79416666666665,90.38709150041853L182.26270833333334,85.96664428710938L182.73125000000002,83.47997392926898L183.19979166666664,103.23443821498326L183.66833333333332,92.73563494001115L184.136875,97.70858982631138L184.60541666666666,91.21585300990513L185.07395833333334,89.76552036830357L185.54250000000002,122.16014099121094L186.01104166666664,112.00626918247768L186.47958333333332,77.9541255405971L186.948125,86.86446925571987L187.41666666666666,82.78933933803013L187.88520833333334,74.63869367327008L188.35375000000002,85.13749694824219L188.82229166666664,91.90648760114397L189.29083333333332,89.55832999093191L189.759375,91.00866263253347L190.22791666666666,89.83458382742747L190.69645833333334,85.69000462123326L191.16500000000002,95.42910984584263L191.63354166666667,96.05106680733816L192.10208333333333,93.15001569475447L192.570625,96.8107648577009L193.03916666666666,98.67547825404576L193.50770833333334,86.38102504185268L193.97625,119.397216796875L194.44479166666667,89.69645690917969L194.91333333333333,82.51269967215401L195.38187499999998,96.25825718470982L195.85041666666666,110.97031729561941L196.31895833333334,83.82529122488839L196.7875,90.80147225516184L197.25604166666668,99.71181597028459L197.72458333333336,96.18919372558594L198.19312499999998,99.91900634765625L198.66166666666666,79.26633126395089L199.13020833333334,83.96341814313617L199.59875,81.20049394880023L200.06729166666668,86.93353271484375L200.53583333333336,83.54903738839286L201.00437499999998,83.54903738839286L201.47291666666666,79.81922476632255L201.94145833333334,82.65121241978237L202.41,86.24289812360492L202.87854166666668,99.84994288853237L203.34708333333336,85.75906808035714L203.81562499999998,100.74776785714285L204.28416666666666,92.11367797851562L204.75270833333335,92.5284445626395L205.22125,84.79217965262276L205.68979166666668,96.25825718470982L206.15833333333333,90.24896458217076L206.62687499999998,90.110837663923L207.09541666666667,89.21262686593191L207.56395833333332,87.34791346958706L208.0325,98.74454171316965L208.50104166666668,95.49817330496653L208.96958333333333,83.47997392926898L209.43812499999999,98.26109749930247L209.90666666666667,85.69000462123326L210.37520833333332,100.12619672502791L210.84375,86.03570774623326L211.31229166666668,91.56117030552456L211.78083333333333,114.90732029506138L212.24937500000001,84.79217965262276L212.71791666666667,109.65811157226562L213.18645833333332,80.8551766531808L213.655,94.2550310407366L214.12354166666668,95.29098292759487L214.59208333333333,85.82813153948102L215.06062500000002,91.00866263253347L215.52916666666667,88.4529288155692L215.99770833333332,89.00543648856028L216.46625,84.654052734375L216.93479166666665,88.72918265206472L217.40333333333334,100.26432364327566L217.87187500000002,109.3818577357701L218.34041666666664,90.80147225516184L218.80895833333332,93.56439644949778L219.2775,91.00866263253347L219.74604166666666,95.56723676409041L220.21458333333334,87.48604038783482L220.68312500000002,90.0417742047991L221.15166666666664,88.72918265206472L221.62020833333332,90.0417742047991L222.08875,98.4682878766741L222.55729166666666,86.10477120535714L223.02583333333334,83.68716430664062L223.49437500000002,85.5518777029855L223.96291666666664,108.75990077427456L224.43145833333332,85.89719499860492L224.9,88.79824611118862L225.36854166666666,93.8406502859933L225.83708333333334,87.76229422433036L226.30562500000002,91.28491646902903L226.77416666666667,102.05997358049666L227.24270833333333,101.57652936662947L227.71125,94.80753871372768L228.17979166666666,97.6395263671875L228.64833333333334,92.5975080217634L229.116875,82.99652971540179L229.58541666666667,97.08701869419643L230.05395833333333,81.61487470354352L230.52249999999998,86.58821541922433L230.99104166666666,86.65727887834821L231.45958333333334,102.95818437848772L231.928125,85.82813153948102L232.39666666666668,85.62094116210938L232.86520833333336,86.86446925571987L233.33374999999998,87.76229422433036L233.80229166666666,84.2396719796317L234.27083333333334,92.2518048967634L234.739375,81.06236703055245L235.20791666666668,102.2671639578683L235.67645833333336,103.30350167410715L236.14499999999998,93.49533299037388L236.61354166666666,99.98806980678013L237.08208333333334,81.82206508091518L237.550625,79.81922476632255L238.01916666666668,94.73847525460378L238.48770833333336,84.51592581612724L238.95624999999998,80.50985935756138L239.42479166666666,107.51675851004465L239.89333333333335,96.3963841029576L240.361875,86.3119615827288L240.83041666666668,100.12619672502791L241.29895833333333,77.88506208147321L241.76749999999998,86.38102504185268L242.23604166666667,92.04461451939174L242.70458333333332,87.5551038469587L243.173125,90.52521841866628L243.64166666666668,80.92424011230469L244.11020833333333,84.79217965262276L244.57874999999999,86.24289812360492L245.04729166666667,95.08379255022322L245.51583333333332,98.26109749930247L245.984375,84.10154506138393L246.45291666666668,101.71465628487722L246.92145833333333,102.6128670828683L247.39000000000001,88.79824611118862L247.85854166666667,105.44446890694753L248.32708333333332,93.21907915387834L248.795625,90.87053571428572L249.26416666666668,97.36327253069197L249.73270833333333,97.2251456124442L250.20125000000002,95.84387642996653L250.66979166666667,109.31279427664622L251.13833333333332,109.51998465401785L251.606875,100.33338710239956L252.07541666666665,100.12619672502791L252.54395833333334,88.66011919294084L253.01250000000002,80.37173243931362L253.48104166666664,93.97877720424107L253.94958333333332,92.11367797851562L254.418125,92.38993181501115L254.88666666666666,80.71704973493304L255.35520833333334,102.82005746023997L255.82375000000002,92.1827414376395L256.29229166666664,85.41375078473773L256.7608333333333,89.83458382742747L257.229375,96.05106680733816L257.69791666666663,101.57652936662947L257.9321875,110.27968270438059L258.1664583333333,92.80469839913503L258.4007291666667,97.98484366280691L258.635,88.10761151994977L258.8692708333333,94.87660217285156L259.1035416666667,100.81683131626674L259.3378125,121.19286673409599L259.57208333333335,99.29743521554128L259.80635416666667,102.95818437848772L260.04062500000003,92.5975080217634L260.27489583333335,92.04461451939174L260.50916666666666,99.15930829729353L260.74343749999997,97.01795523507253L260.97770833333334,85.75906808035714L261.21197916666665,83.20372009277344L261.44625,90.0417742047991L261.68052083333333,97.57046290806362L261.91479166666664,93.28814261300222L262.1490625,135.28335571289062L262.3833333333333,93.35720607212612L262.6176041666667,78.57569667271206L262.851875,98.39922441755022L263.0861458333333,101.0240216936384" style="fill: none;" fill="none"></path></g><g><path stroke="rgb(0, 153, 136)" stroke-width="2px" d="M24.364166666666666,214.7032470703125L24.832708333333333,136.60829380580358L25.30125,126.31205095563615L25.769791666666666,103.58284214564732L26.238333333333333,122.42674909319197L26.706875,99.50308227539062L27.175416666666667,94.8407200404576L27.64395833333333,101.0572030203683L28.1125,74.63715035574776L28.581041666666668,74.24862016950335L29.049583333333334,80.85363333565849L29.518124999999998,86.68158612932477L29.986666666666668,75.22013854980469L30.455208333333335,102.61132376534597L30.923750000000002,103.58284214564732L31.392291666666665,84.93339320591518L31.860833333333332,82.60221208844867L32.329375,95.4237082345145L32.797916666666666,70.75184849330357L33.26645833333333,101.44573320661272L33.735,83.3792724609375L34.203541666666666,88.23570687430245L34.67208333333333,114.07315717424666L35.140625,84.15633283342633L35.60916666666667,85.1274653843471L36.077708333333334,71.91743905203683L36.54625,82.60221208844867L37.01479166666666,71.72298104422433L37.483333333333334,77.3568616594587L37.951875,104.74843270438059L38.42041666666666,79.10544041224888L38.888958333333335,72.88857160295758L39.3575,72.50004141671317L39.82604166666667,76.57980128696987L40.294583333333335,62.98124476841518L40.763124999999995,61.038593837193076L41.23166666666667,96.58929879324778L41.700208333333336,64.14683532714844L42.168749999999996,69.97478812081474L42.63729166666667,76.38572910853794L43.10583333333333,62.59271458217076L43.574374999999996,69.00326974051339L44.04291666666667,70.16886029924665L44.51145833333333,49.965290614536826L44.980000000000004,82.40775408063617L45.448541666666664,72.69449942452567L45.91708333333333,67.44914899553571L46.385625000000005,51.51941135951451L46.854166666666664,61.815654209681924L47.32270833333333,63.95237731933594L47.791250000000005,63.758305140904014L48.259791666666665,67.2550768171038L48.72833333333333,81.82515171595982L49.196875,77.93984985351562L49.665416666666665,65.50649806431362L50.13395833333334,69.58625793457031L50.6025,75.22013854980469L51.071041666666666,83.76780264718192L51.53958333333333,69.00326974051339L52.008125,75.99719892229352L52.47666666666667,63.758305140904014L52.94520833333333,65.70095607212612L53.41375,62.59271458217076L53.88229166666667,63.95237731933594L54.350833333333334,71.52890886579242L54.819375,65.50649806431362L55.28791666666666,57.73589433942523L55.756458333333335,60.844135829380576L56.225,62.98124476841518L56.69354166666667,66.67208862304688L57.162083333333335,75.22013854980469L57.630624999999995,63.175316946847104L58.09916666666667,70.9459206717355L58.567708333333336,59.290015084402896L59.036249999999995,55.4047132219587L59.50479166666667,57.15329197474888L59.973333333333336,72.11151123046875L60.441874999999996,57.347364153180806L60.91041666666667,62.59271458217076L61.37895833333333,76.38572910853794L61.847500000000004,87.0701163155692L62.31604166666667,69.78033011300224L62.78458333333333,66.08948625837054L63.253125000000004,62.78678676060268L63.721666666666664,60.45560564313617L64.19020833333333,85.51599557059151L64.65875,63.563847133091514L65.12729166666666,55.793243408203125L65.59583333333333,61.038593837193076L66.064375,63.175316946847104L66.53291666666667,61.4271240234375L67.00145833333333,70.55739048549107L67.47,82.01922389439174L67.93854166666667,72.69449942452567L68.40708333333333,76.57980128696987L68.875625,72.88857160295758L69.34416666666667,94.06365966796875L69.81270833333333,73.86008998325893L70.28125,60.65006365094867L70.74979166666667,48.217097691127236L71.21833333333333,75.99719892229352L71.686875,54.62765284946987L72.15541666666667,62.98124476841518L72.62395833333333,74.24862016950335L73.0925,52.296471732003354L73.56104166666667,49.38268824986049L74.02958333333332,79.2995125906808L74.498125,51.51941135951451L74.96666666666667,67.64360700334821L75.43520833333332,59.67854527064732L75.90375,61.038593837193076L76.37229166666667,80.46510314941406L76.84083333333332,58.51295471191406L77.309375,48.799700055803555L77.77791666666667,73.08302961077008L78.24645833333334,46.66297694614957L78.715,55.01618303571429L79.18354166666667,62.20418439592633L79.65208333333334,63.369774954659604L80.12062499999999,46.07998875209262L80.58916666666667,53.07353210449219L81.05770833333334,55.01618303571429L81.52624999999999,54.433580671037944L81.99479166666667,63.175316946847104L82.46333333333334,63.369774954659604L82.93187499999999,71.33445085797992L83.40041666666667,61.232666015625L83.86895833333334,61.4271240234375L84.33749999999999,76.96833147321429L84.80604166666667,68.03213718959263L85.27458333333334,41.22316850934712L85.74312499999999,61.4271240234375L86.21166666666666,52.490929739815854L86.68020833333334,62.39825657435826L87.14874999999999,57.541822160993306L87.61729166666666,53.07353210449219L88.08583333333334,70.9459206717355L88.55437500000001,81.4366215297154L89.02291666666666,51.51941135951451L89.49145833333334,54.433580671037944L89.96000000000001,51.51941135951451L90.42854166666666,40.64056614467074L90.89708333333333,64.72943769182477L91.36562500000001,55.01618303571429L91.83416666666666,62.78678676060268L92.30270833333333,52.296471732003354L92.77125000000001,48.799700055803555L93.23979166666666,46.07998875209262L93.70833333333333,38.50345720563618L94.17687500000001,57.15329197474888L94.64541666666666,43.74880763462613L95.11395833333333,60.844135829380576L95.58250000000001,51.32533918108258L96.05104166666666,45.88553074428012L96.51958333333333,68.80919756208148L96.988125,61.038593837193076L97.45666666666666,55.987701416015625L97.92520833333333,61.4271240234375L98.39375,70.9459206717355L98.86229166666668,67.64360700334821L99.33083333333333,57.73589433942523L99.799375,49.38268824986049L100.26791666666668,50.54827880859375L100.73645833333333,49.18823024204799L101.205,52.10239955357143L101.67354166666668,51.90794154575893L102.14208333333333,62.98124476841518L102.610625,44.52586800711495L103.07916666666667,54.239122663225444L103.54770833333333,56.57030378069196L104.01625,54.04505048479352L104.48479166666667,130.00289481026786L104.95333333333333,1003.036396571568L105.89041666666667,1015.080832345145L106.35895833333333,63.175316946847104L106.8275,54.82211085728237L107.29604166666667,54.82211085728237L107.76458333333333,47.24557931082589L108.233125,53.26799011230469L108.70166666666667,52.296471732003354L109.17020833333332,53.07353210449219L109.63875,78.32838003976005L110.10729166666667,56.76476178850446L110.57583333333332,58.12442452566964L111.044375,45.88553074428012L111.51291666666667,53.85059247698102L111.98145833333332,50.35382080078125L112.45,55.01618303571429L112.91854166666667,54.239122663225444L113.38708333333334,54.82211085728237L113.855625,60.06707545689174L114.32416666666667,56.76476178850446L114.79270833333334,51.51941135951451L115.26124999999999,58.51295471191406L115.72979166666667,31.898444039481006L116.19833333333334,68.03213718959263L116.66687499999999,69.39179992675781L117.13541666666667,54.82211085728237L117.60395833333334,80.85363333565849L118.07249999999999,50.159748622349326L118.54104166666667,56.18177359444755L119.00958333333334,46.66297694614957L119.47812499999999,48.60562787737163L119.94666666666667,67.2550768171038L120.41520833333334,55.01618303571429L120.88374999999999,53.46206229073661L121.35229166666666,61.038593837193076L121.82083333333334,53.26799011230469L122.28937499999999,55.21064104352679L122.75791666666666,43.16581944056918L123.22645833333334,291.6326097760882L124.63208333333334,1007.6987588065011L125.10062500000001,56.76476178850446L125.56916666666666,52.10239955357143L126.03770833333333,57.73589433942523L126.50625000000001,52.490929739815854L126.97479166666666,45.497000558035694L127.44333333333333,54.04505048479352L127.91187500000001,42.00022888183594L128.38041666666666,58.12442452566964L128.84895833333331,44.52586800711495L129.3175,41.806156703404014L129.78604166666668,58.51295471191406L130.25458333333333,51.13088117327008L130.723125,69.39179992675781L131.19166666666666,55.987701416015625L131.66020833333334,52.10239955357143L132.12875,58.901484898158486L132.59729166666668,58.901484898158486L133.06583333333333,56.37623160226005L133.53437499999998,63.369774954659604L134.00291666666666,63.175316946847104L134.47145833333335,64.53536551339286L134.94,71.33445085797992L135.40854166666668,50.742350987025674L135.87708333333333,64.14683532714844L136.34562499999998,68.80919756208148L136.81416666666667,60.45560564313617L137.28270833333335,51.90794154575893L137.75125,56.37623160226005L138.21979166666665,477.93418448311945L139.62541666666667,181.48372323172433L140.09395833333335,69.19772774832589L140.5625,65.70095607212612L140.79677083333334,84.15633283342633L141.03104166666668,50.936808994838174L141.2653125,65.3124258858817L141.49958333333333,66.08948625837054L141.73385416666667,64.53536551339286L141.96812500000001,56.95883396693638L142.20239583333333,53.46206229073661L142.43666666666667,54.04505048479352L142.67093749999998,57.93035234723773L142.90520833333332,48.41116986955913L143.13947916666666,65.50649806431362L143.37375,67.2550768171038L143.60802083333334,55.793243408203125L143.84229166666668,47.44003731863839L144.0765625,52.10239955357143L144.31083333333333,62.59271458217076L144.54510416666668,51.13088117327008L144.77937500000002,72.88857160295758L145.01364583333336,51.32533918108258L145.24791666666667,65.3124258858817L145.48218749999998,49.57676042829242L145.71645833333332,64.92389569963727L145.95072916666666,43.74880763462613L146.185,55.01618303571429L146.41927083333334,48.022639683314736L146.65354166666665,59.290015084402896L146.8878125,59.095942905970986L147.12208333333334,63.95237731933594L147.35635416666668,49.77121843610492L147.59062500000002,59.095942905970986L147.82489583333336,53.26799011230469L148.05916666666664,53.65652029854911L148.29343749999998,52.685001918247764L148.52770833333332,46.85704912458149L148.76197916666666,58.12442452566964L148.99625,46.27444675990512L149.23052083333334,51.32533918108258L149.46479166666666,76.57980128696987L149.6990625,61.038593837193076L149.93333333333334,62.20418439592633L150.16760416666668,49.965290614536826L150.40187500000002,66.08948625837054L150.63614583333336,53.07353210449219L150.87041666666664,58.70741271972656L151.10468749999998,46.07998875209262L151.33895833333332,61.621196201869424L151.57322916666666,46.46851893833707L151.8075,62.59271458217076L152.04177083333335,48.994158063616055L152.27604166666666,41.806156703404014L152.5103125,52.296471732003354L152.74458333333334,48.799700055803555L152.97885416666668,51.90794154575893L153.21312500000002,45.3029283796038L153.44739583333333,60.45560564313617L153.68166666666664,58.901484898158486L153.91593749999998,44.719940185546875L154.15020833333332,46.46851893833707L154.38447916666667,44.33140999930245L154.61875,48.799700055803555L154.85302083333332,57.93035234723773L155.08729166666666,56.95883396693638L155.3215625,75.60866873604911L155.55583333333334,64.72943769182477L155.79010416666668,54.62765284946987L156.02437500000002,49.57676042829242L156.25864583333333,84.35040501185826L156.49291666666667,40.834638323102695L156.72718749999999,55.21064104352679L156.96145833333333,48.60562787737163L157.19572916666667,76.38572910853794L157.43,83.57334463936942L157.66427083333332,52.685001918247764L157.89854166666666,47.82856750488281L158.1328125,42.19468688964844L158.36708333333334,61.232666015625L158.60135416666668,74.44269234793526L158.835625,53.65652029854911L159.06989583333333,54.239122663225444L159.30416666666667,44.719940185546875L159.53843750000001,78.13392203194755L159.77270833333333,74.05416216169085L160.00697916666667,48.60562787737163L160.24124999999998,58.12442452566964L160.47552083333332,63.95237731933594L160.70979166666666,54.62765284946987L160.9440625,52.490929739815854L161.17833333333334,49.38268824986049L161.41260416666668,51.90794154575893L161.646875,50.159748622349326L161.88114583333333,56.18177359444755L162.11541666666668,60.45560564313617L162.34968750000002,64.92389569963727L162.58395833333336,47.82856750488281L162.81822916666667,52.685001918247764L163.05249999999998,50.159748622349326L163.28677083333332,58.31888253348214L163.52104166666666,53.07353210449219L163.7553125,63.563847133091514L163.98958333333334,51.71386936732701L164.22385416666665,53.85059247698102L164.458125,51.71386936732701L164.69239583333334,46.27444675990512L164.92666666666668,65.50649806431362L165.16093750000002,50.159748622349326L165.39520833333336,61.4271240234375L165.62947916666664,70.75184849330357L165.86374999999998,74.63715035574776L166.09802083333332,51.90794154575893L166.33229166666666,67.2550768171038L166.5665625,44.914398193359375L166.80083333333334,60.65006365094867L167.03510416666666,58.51295471191406L167.269375,54.62765284946987L167.50364583333334,46.27444675990512L167.73791666666668,45.1084703717913L167.97218750000002,43.942879813058056L168.20645833333336,50.54827880859375L168.44072916666664,51.51941135951451L168.67499999999998,49.18823024204799L168.90927083333332,44.137337820870556L169.14354166666666,44.137337820870556L169.3778125,44.52586800711495L169.61208333333335,49.57676042829242L169.84635416666666,55.793243408203125L170.080625,51.71386936732701L170.31489583333334,45.3029283796038L170.54916666666668,45.497000558035694L170.78343750000002,54.04505048479352L171.01770833333333,35.58967372349332L171.25197916666664,45.88553074428012L171.48624999999998,57.15329197474888L171.72052083333332,34.035552978515625L171.95479166666667,45.1084703717913L172.1890625,45.1084703717913L172.42333333333332,62.98124476841518L172.65760416666666,36.17227608816964L172.891875,55.4047132219587L173.12614583333334,60.45560564313617L173.36041666666668,61.4271240234375L173.59468750000002,58.12442452566964L173.82895833333333,55.5991712297712L174.06322916666667,51.71386936732701L174.29749999999999,40.64056614467074L174.53177083333333,44.52586800711495L174.76604166666667,49.57676042829242L175.0003125,42.58321707589286L175.23458333333332,49.38268824986049L175.46885416666666,57.93035234723773L175.703125,69.78033011300224L175.93739583333334,81.63069370814732L176.17166666666668,58.31888253348214L176.4059375,58.51295471191406L176.64020833333333,70.16886029924665L176.87447916666667,74.83160836356026L177.10875000000001,58.31888253348214L177.34302083333333,44.914398193359375L177.57729166666667,51.90794154575893L177.81156249999998,55.21064104352679L178.04583333333332,68.03213718959263L178.28010416666666,35.00668552943637L178.514375,51.13088117327008L178.74864583333334,62.59271458217076L178.98291666666668,60.26153346470424L179.2171875,48.217097691127236L179.45145833333333,62.00972638811383L179.68572916666668,64.92389569963727L179.92000000000002,45.88553074428012L180.15427083333336,44.52586800711495L180.38854166666667,62.39825657435826L180.62281249999998,81.2421635219029L180.85708333333332,55.01618303571429L181.09135416666666,72.11151123046875L181.325625,46.46851893833707L181.55989583333334,49.57676042829242L181.79416666666665,47.24557931082589L182.0284375,53.85059247698102L182.26270833333334,50.936808994838174L182.49697916666668,55.793243408203125L182.73125000000002,50.742350987025674L182.96552083333336,67.83767918178013L183.19979166666664,71.33445085797992L183.43406249999998,56.37623160226005L183.66833333333332,58.12442452566964L183.90260416666666,39.086445399693076L184.136875,60.65006365094867L184.37114583333334,68.61473955426898L184.60541666666666,62.78678676060268L184.8396875,50.936808994838174L185.07395833333334,49.38268824986049L185.30822916666668,66.08948625837054L185.54250000000002,83.184814453125L185.77677083333336,55.5991712297712L186.01104166666664,87.2645743233817L186.24531249999998,60.06707545689174L186.47958333333332,40.05757795061382L186.71385416666666,41.806156703404014L186.948125,47.24557931082589L187.18239583333335,76.77425929478237L187.41666666666666,48.799700055803555L187.6509375,47.44003731863839L187.88520833333334,50.54827880859375L188.11947916666668,52.10239955357143L188.35375000000002,32.86996241978238L188.58802083333333,48.217097691127236L188.82229166666664,50.159748622349326L189.05656249999998,38.50345720563618L189.29083333333332,59.67854527064732L189.52510416666667,42.97174726213726L189.759375,54.04505048479352L189.99364583333332,58.31888253348214L190.22791666666666,56.76476178850446L190.4621875,53.85059247698102L190.69645833333334,42.77728925432476L190.93072916666668,68.03213718959263L191.16500000000002,73.4715597970145L191.39927083333333,49.965290614536826L191.63354166666667,64.72943769182477L191.86781249999999,68.61473955426898L192.10208333333333,59.290015084402896L192.33635416666667,52.296471732003354L192.570625,55.01618303571429L192.80489583333332,42.19468688964844L193.03916666666666,71.52890886579242L193.2734375,59.290015084402896L193.50770833333334,46.66297694614957L193.74197916666668,39.4749755859375L193.97625,97.1719011579241L194.21052083333333,72.30596923828125L194.44479166666667,51.71386936732701L194.67906250000001,43.16581944056918L194.91333333333333,40.834638323102695L195.14760416666667,32.48143223353793L195.38187499999998,62.39825657435826L195.61614583333332,59.67854527064732L195.85041666666666,79.2995125906808L196.0846875,58.31888253348214L196.31895833333334,42.77728925432476L196.55322916666668,49.57676042829242L196.7875,67.64360700334821L197.02177083333333,51.13088117327008L197.25604166666668,62.98124476841518L197.49031250000002,47.63410949707031L197.72458333333336,60.06707545689174L197.95885416666667,57.73589433942523L198.19312499999998,65.50649806431362L198.42739583333332,70.9459206717355L198.66166666666666,49.57676042829242L198.8959375,58.31888253348214L199.13020833333334,46.85704912458149L199.36447916666665,55.01618303571429L199.59875,57.15329197474888L199.83302083333334,63.369774954659604L200.06729166666668,46.07998875209262L200.30156250000002,37.726396833147305L200.53583333333336,40.64056614467074L200.77010416666664,32.86996241978238L201.00437499999998,37.920854840959805L201.23864583333332,47.44003731863839L201.47291666666666,41.611698695591514L201.7071875,70.75184849330357L201.94145833333334,48.41116986955913L202.17572916666666,60.65006365094867L202.41,44.33140999930245L202.64427083333334,59.290015084402896L202.87854166666668,76.19127110072544L203.11281250000002,49.77121843610492L203.34708333333336,49.57676042829242L203.58135416666664,60.844135829380576L203.81562499999998,62.20418439592633L204.04989583333332,68.03213718959263L204.28416666666666,50.159748622349326L204.5184375,42.58321707589286L204.75270833333335,48.994158063616055L204.98697916666666,49.77121843610492L205.22125,40.25203595842632L205.45552083333334,54.433580671037944L205.68979166666668,56.37623160226005L205.92406250000002,57.347364153180806L206.15833333333333,72.11151123046875L206.39260416666664,60.844135829380576L206.62687499999998,52.10239955357143L206.86114583333332,67.64360700334821L207.09541666666667,47.44003731863839L207.3296875,43.55434962681363L207.56395833333332,62.59271458217076L207.79822916666666,64.34090750558036L208.0325,67.0606188092913L208.26677083333334,60.844135829380576L208.50104166666668,55.01618303571429L208.73531250000002,69.78033011300224L208.96958333333333,46.07998875209262L209.20385416666667,63.369774954659604L209.43812499999999,67.83767918178013L209.67239583333333,57.93035234723773L209.90666666666667,50.742350987025674L210.1409375,58.51295471191406L210.37520833333332,66.67208862304688L210.60947916666666,41.611698695591514L210.84375,52.879459926060264L211.07802083333334,48.022639683314736L211.31229166666668,53.26799011230469L211.5465625,55.01618303571429L211.78083333333333,87.45864650181362L212.01510416666667,62.39825657435826L212.24937500000001,54.82211085728237L212.48364583333333,49.965290614536826L212.71791666666667,79.68804277692523L212.95218749999998,58.12442452566964L213.18645833333332,34.812613351004444L213.42072916666666,60.65006365094867L213.655,49.38268824986049L213.88927083333334,61.815654209681924L214.12354166666668,47.05150713239399L214.3578125,56.95883396693638L214.59208333333333,52.879459926060264L214.82635416666668,68.61473955426898L215.06062500000002,64.92389569963727L215.29489583333336,52.10239955357143L215.52916666666667,49.77121843610492L215.76343749999998,38.891987391880576L215.99770833333332,50.742350987025674L216.23197916666666,62.20418439592633L216.46625,41.029096330915195L216.70052083333334,73.08302961077008L216.93479166666665,55.793243408203125L217.1690625,73.86008998325893L217.40333333333334,67.64360700334821L217.63760416666668,60.26153346470424L217.87187500000002,106.69108363560268L218.10614583333336,106.88554164341518L218.34041666666664,67.44914899553571L218.57468749999998,67.64360700334821L218.80895833333332,62.20418439592633L219.04322916666666,59.484473092215396L219.2775,69.78033011300224L219.51177083333334,51.13088117327008L219.74604166666666,66.67208862304688L219.9803125,50.159748622349326L220.21458333333334,42.77728925432476L220.44885416666668,42.19468688964844L220.68312500000002,53.26799011230469L220.91739583333336,53.85059247698102L221.15166666666664,63.175316946847104L221.38593749999998,54.62765284946987L221.62020833333332,54.62765284946987L221.85447916666666,66.28355843680245L222.08875,68.22620936802456L222.32302083333335,55.5991712297712L222.55729166666666,56.18177359444755L222.7915625,65.50649806431362L223.02583333333334,46.27444675990512L223.26010416666668,59.87300327845982L223.49437500000002,48.994158063616055L223.72864583333333,51.51941135951451L223.96291666666664,77.3568616594587L224.19718749999998,71.33445085797992L224.43145833333332,42.38875906808036L224.66572916666667,46.07998875209262L224.9,59.67854527064732L225.13427083333332,46.85704912458149L225.36854166666666,53.85059247698102L225.6028125,44.719940185546875L225.83708333333334,51.32533918108258L226.07135416666668,45.691458565848194L226.30562500000002,56.95883396693638L226.53989583333333,45.3029283796038L226.77416666666667,72.50004141671317L227.00843749999999,50.54827880859375L227.24270833333333,77.5513196672712L227.47697916666667,49.18823024204799L227.71125,55.21064104352679L227.94552083333332,58.12442452566964L228.17979166666666,52.10239955357143L228.4140625,50.35382080078125L228.64833333333334,49.38268824986049L228.88260416666668,64.34090750558036L229.116875,49.57676042829242L229.35114583333333,63.563847133091514L229.58541666666667,59.484473092215396L229.81968750000001,56.95883396693638L230.05395833333333,42.38875906808036L230.28822916666667,39.863505772181924L230.52249999999998,52.10239955357143L230.75677083333332,47.05150713239399L230.99104166666666,54.433580671037944L231.2253125,59.67854527064732L231.45958333333334,78.52245221819196L231.69385416666668,59.484473092215396L231.928125,41.806156703404014L232.16239583333333,43.55434962681363L232.39666666666668,35.39521571568082L232.63093750000002,39.4749755859375L232.86520833333336,45.1084703717913L233.09947916666667,55.4047132219587L233.33374999999998,45.691458565848194L233.56802083333332,52.490929739815854L233.80229166666666,40.834638323102695L234.0365625,73.4715597970145L234.27083333333334,57.15329197474888L234.50510416666665,93.2865992954799L234.739375,46.46851893833707L234.97364583333334,58.901484898158486L235.20791666666668,61.621196201869424L235.44218750000002,37.53232465471538L235.67645833333336,64.14683532714844L235.91072916666664,46.85704912458149L236.14499999999998,47.05150713239399L236.37927083333332,69.97478812081474L236.61354166666666,53.07353210449219L236.8478125,41.41762651715962L237.08208333333334,45.1084703717913L237.31635416666666,52.10239955357143L237.550625,48.217097691127236L237.78489583333334,36.56080627441406L238.01916666666668,47.82856750488281L238.25343750000002,60.45560564313617L238.48770833333336,38.30938502720426L238.72197916666664,57.347364153180806L238.95624999999998,50.35382080078125L239.19052083333332,51.90794154575893L239.42479166666666,61.232666015625L239.6590625,59.290015084402896L239.89333333333335,79.68804277692523L240.12760416666666,60.06707545689174L240.361875,50.742350987025674L240.59614583333334,66.47801644461495L240.83041666666668,68.42066737583706L241.06468750000002,54.62765284946987L241.29895833333333,28.59613037109375L241.53322916666664,36.56080627441406L241.76749999999998,47.63410949707031L242.00177083333332,78.52245221819196L242.23604166666667,59.095942905970986L242.4703125,59.67854527064732L242.70458333333332,51.32533918108258L242.93885416666666,56.37623160226005L243.173125,50.35382080078125L243.40739583333334,41.029096330915195L243.64166666666668,41.22316850934712L243.87593750000002,39.863505772181924L244.11020833333333,38.11492701939176L244.34447916666667,61.621196201869424L244.57874999999999,43.36027744838168L244.81302083333333,46.66297694614957L245.04729166666667,53.85059247698102L245.2815625,45.88553074428012L245.51583333333332,38.891987391880576L245.75010416666666,47.24557931082589L245.984375,43.942879813058056L246.21864583333334,24.904900687081494L246.45291666666668,53.46206229073661L246.6871875,33.4525647844587L246.92145833333333,58.70741271972656L247.15572916666667,67.83767918178013L247.39000000000001,42.97174726213726L247.62427083333333,52.296471732003354L247.85854166666667,70.55739048549107L248.09281249999998,65.3124258858817L248.32708333333332,49.965290614536826L248.56135416666666,42.97174726213726L248.795625,43.942879813058056L249.02989583333334,44.914398193359375L249.26416666666668,40.64056614467074L249.4984375,54.62765284946987L249.73270833333333,52.685001918247764L249.96697916666668,37.33786664690288L250.20125000000002,56.18177359444755L250.43552083333336,47.05150713239399L250.66979166666667,85.51599557059151L250.90406249999998,42.38875906808036L251.13833333333332,90.9554181780134L251.37260416666666,50.936808994838174L251.606875,54.433580671037944L251.84114583333334,55.793243408203125L252.07541666666665,46.66297694614957L252.3096875,43.55434962681363L252.54395833333334,55.793243408203125L252.77822916666668,66.67208862304688L253.01250000000002,33.258492606026806L253.24677083333336,53.85059247698102L253.48104166666664,55.01618303571429L253.71531249999998,64.14683532714844L253.94958333333332,53.26799011230469L254.18385416666666,39.863505772181924L254.418125,60.26153346470424L254.65239583333334,55.21064104352679L254.88666666666666,48.994158063616055L255.1209375,52.296471732003354L255.35520833333334,72.30596923828125L255.58947916666668,49.77121843610492L255.82375000000002,48.60562787737163L256.05802083333333,50.936808994838174L256.29229166666664,43.55434962681363L256.5265625,67.44914899553571L256.7608333333333,51.32533918108258L256.9951041666667,60.844135829380576L257.229375,53.85059247698102L257.4636458333334,66.47801644461495L257.69791666666663,66.86654663085938L257.9321875,67.2550768171038L258.1664583333333,72.69449942452567L258.4007291666667,48.60562787737163L258.635,56.95883396693638L258.8692708333333,70.36331830705915L259.1035416666667,52.10239955357143L259.3378125,81.63069370814732L259.57208333333335,52.490929739815854L259.80635416666667,69.00326974051339L260.04062500000003,41.611698695591514L260.27489583333335,55.01618303571429L260.50916666666666,60.45560564313617L260.74343749999997,56.57030378069196L260.97770833333334,44.914398193359375L261.21197916666665,44.137337820870556L261.44625,58.901484898158486L261.68052083333333,59.095942905970986L261.91479166666664,61.038593837193076L262.1490625,97.56043134416853L262.3833333333333,48.022639683314736L262.6176041666667,43.36027744838168L262.851875,56.76476178850446L263.0861458333333,59.87300327845982" style="fill: none;" fill="none"></path></g></g></g></g></g></g><g transform="translate(48, 177)" clip-path="url(#clip_1)"><clipPath id="clip_1"><rect width="281" height="23"></rect></clipPath><g><g><line x1="0" y1="0" x2="0" y2="5" style="visibility: inherit;" fill="rgb(0, 0, 0)" stroke="rgb(204, 204, 204)" stroke-width="1px"></line><line x1="23.427083333333332" y1="0" x2="23.427083333333332" y2="5" style="visibility: inherit;" fill="rgb(0, 0, 0)" stroke="rgb(204, 204, 204)" stroke-width="1px"></line><line x1="46.854166666666664" y1="0" x2="46.854166666666664" y2="5" style="visibility: inherit;" fill="rgb(0, 0, 0)" stroke="rgb(204, 204, 204)" stroke-width="1px"></line><line x1="70.28125" y1="0" x2="70.28125" y2="5" style="visibility: inherit;" fill="rgb(0, 0, 0)" stroke="rgb(204, 204, 204)" stroke-width="1px"></line><line x1="93.70833333333333" y1="0" x2="93.70833333333333" y2="5" style="visibility: inherit;" fill="rgb(0, 0, 0)" stroke="rgb(204, 204, 204)" stroke-width="1px"></line><line x1="117.13541666666667" y1="0" x2="117.13541666666667" y2="5" style="visibility: inherit;" fill="rgb(0, 0, 0)" stroke="rgb(204, 204, 204)" stroke-width="1px"></line><line x1="140.5625" y1="0" x2="140.5625" y2="5" style="visibility: inherit;" fill="rgb(0, 0, 0)" stroke="rgb(204, 204, 204)" stroke-width="1px"></line><line x1="163.98958333333334" y1="0" x2="163.98958333333334" y2="5" style="visibility: inherit;" fill="rgb(0, 0, 0)" stroke="rgb(204, 204, 204)" stroke-width="1px"></line><line x1="187.41666666666666" y1="0" x2="187.41666666666666" y2="5" style="visibility: inherit;" fill="rgb(0, 0, 0)" stroke="rgb(204, 204, 204)" stroke-width="1px"></line><line x1="210.84375" y1="0" x2="210.84375" y2="5" style="visibility: inherit;" fill="rgb(0, 0, 0)" stroke="rgb(204, 204, 204)" stroke-width="1px"></line><line x1="234.27083333333334" y1="0" x2="234.27083333333334" y2="5" style="visibility: inherit;" fill="rgb(0, 0, 0)" stroke="rgb(204, 204, 204)" stroke-width="1px"></line><line x1="257.69791666666663" y1="0" x2="257.69791666666663" y2="5" style="visibility: inherit;" fill="rgb(0, 0, 0)" stroke="rgb(204, 204, 204)" stroke-width="1px"></line><line x1="281.125" y1="0" x2="281.125" y2="5" style="visibility: inherit;" fill="rgb(0, 0, 0)" stroke="rgb(204, 204, 204)" stroke-width="1px"></line></g><g transform="translate(0, 8)"><text x="0" y="0" dx="0em" dy="0.95em" style="text-anchor: middle; visibility: hidden; font-family: &quot;Helvetica Neue&quot;, sans-serif; font-size: 12px; font-weight: 200;" fill="rgb(50, 49, 63)" stroke="none" stroke-width="1px">-100</text><text x="23.427083333333332" y="0" dx="0em" dy="0.95em" style="text-anchor: middle; visibility: inherit; font-family: &quot;Helvetica Neue&quot;, sans-serif; font-size: 12px; font-weight: 200;" fill="rgb(50, 49, 63)" stroke="none" stroke-width="1px">0</text><text x="46.854166666666664" y="0" dx="0em" dy="0.95em" style="text-anchor: middle; visibility: hidden; font-family: &quot;Helvetica Neue&quot;, sans-serif; font-size: 12px; font-weight: 200;" fill="rgb(50, 49, 63)" stroke="none" stroke-width="1px">100</text><text x="70.28125" y="0" dx="0em" dy="0.95em" style="text-anchor: middle; visibility: inherit; font-family: &quot;Helvetica Neue&quot;, sans-serif; font-size: 12px; font-weight: 200;" fill="rgb(50, 49, 63)" stroke="none" stroke-width="1px">200</text><text x="93.70833333333333" y="0" dx="0em" dy="0.95em" style="text-anchor: middle; visibility: hidden; font-family: &quot;Helvetica Neue&quot;, sans-serif; font-size: 12px; font-weight: 200;" fill="rgb(50, 49, 63)" stroke="none" stroke-width="1px">300</text><text x="117.13541666666667" y="0" dx="0em" dy="0.95em" style="text-anchor: middle; visibility: inherit; font-family: &quot;Helvetica Neue&quot;, sans-serif; font-size: 12px; font-weight: 200;" fill="rgb(50, 49, 63)" stroke="none" stroke-width="1px">400</text><text x="140.5625" y="0" dx="0em" dy="0.95em" style="text-anchor: middle; visibility: hidden; font-family: &quot;Helvetica Neue&quot;, sans-serif; font-size: 12px; font-weight: 200;" fill="rgb(50, 49, 63)" stroke="none" stroke-width="1px">500</text><text x="163.98958333333334" y="0" dx="0em" dy="0.95em" style="text-anchor: middle; visibility: inherit; font-family: &quot;Helvetica Neue&quot;, sans-serif; font-size: 12px; font-weight: 200;" fill="rgb(50, 49, 63)" stroke="none" stroke-width="1px">600</text><text x="187.41666666666666" y="0" dx="0em" dy="0.95em" style="text-anchor: middle; visibility: hidden; font-family: &quot;Helvetica Neue&quot;, sans-serif; font-size: 12px; font-weight: 200;" fill="rgb(50, 49, 63)" stroke="none" stroke-width="1px">700</text><text x="210.84375" y="0" dx="0em" dy="0.95em" style="text-anchor: middle; visibility: inherit; font-family: &quot;Helvetica Neue&quot;, sans-serif; font-size: 12px; font-weight: 200;" fill="rgb(50, 49, 63)" stroke="none" stroke-width="1px">800</text><text x="234.27083333333334" y="0" dx="0em" dy="0.95em" style="text-anchor: middle; visibility: hidden; font-family: &quot;Helvetica Neue&quot;, sans-serif; font-size: 12px; font-weight: 200;" fill="rgb(50, 49, 63)" stroke="none" stroke-width="1px">900</text><text x="257.69791666666663" y="0" dx="0em" dy="0.95em" style="text-anchor: middle; visibility: inherit; font-family: &quot;Helvetica Neue&quot;, sans-serif; font-size: 12px; font-weight: 200;" fill="rgb(50, 49, 63)" stroke="none" stroke-width="1px">1k</text><text x="281.125" y="0" dx="0em" dy="0.95em" style="text-anchor: middle; visibility: hidden; font-family: &quot;Helvetica Neue&quot;, sans-serif; font-size: 12px; font-weight: 200;" fill="rgb(50, 49, 63)" stroke="none" stroke-width="1px">1.1k</text></g><line x1="0" y1="0" x2="281.125" y2="0" fill="rgb(0, 0, 0)" stroke="rgb(204, 204, 204)" stroke-width="1px"></line></g></g></g></g></svg>