<svg viewBox="0 0 330 200" xmlns="http://www.w3.org/2000/svg"><g><g><g><g><g><line x1="58.59375" y1="177" x2="53.59375" y2="177" style="visibility: inherit;" fill="rgb(0, 0, 0)" stroke="rgb(204, 204, 204)" stroke-width="1px"></line><line x1="58.59375" y1="165.2" x2="53.59375" y2="165.2" style="visibility: inherit;" fill="rgb(0, 0, 0)" stroke="rgb(204, 204, 204)" stroke-width="1px"></line><line x1="58.59375" y1="153.4" x2="53.59375" y2="153.4" style="visibility: inherit;" fill="rgb(0, 0, 0)" stroke="rgb(204, 204, 204)" stroke-width="1px"></line><line x1="58.59375" y1="141.6" x2="53.59375" y2="141.6" style="visibility: inherit;" fill="rgb(0, 0, 0)" stroke="rgb(204, 204, 204)" stroke-width="1px"></line><line x1="58.59375" y1="129.8" x2="53.59375" y2="129.8" style="visibility: inherit;" fill="rgb(0, 0, 0)" stroke="rgb(204, 204, 204)" stroke-width="1px"></line><line x1="58.59375" y1="118" x2="53.59375" y2="118" style="visibility: inherit;" fill="rgb(0, 0, 0)" stroke="rgb(204, 204, 204)" stroke-width="1px"></line><line x1="58.59375" y1="106.2" x2="53.59375" y2="106.2" style="visibility: inherit;" fill="rgb(0, 0, 0)" stroke="rgb(204, 204, 204)" stroke-width="1px"></line><line x1="58.59375" y1="94.39999999999999" x2="53.59375" y2="94.39999999999999" style="visibility: inherit;" fill="rgb(0, 0, 0)" stroke="rgb(204, 204, 204)" stroke-width="1px"></line><line x1="58.59375" y1="82.6" x2="53.59375" y2="82.6" style="visibility: inherit;" fill="rgb(0, 0, 0)" stroke="rgb(204, 204, 204)" stroke-width="1px"></line><line x1="58.59375" y1="70.79999999999998" x2="53.59375" y2="70.79999999999998" style="visibility: inherit;" fill="rgb(0, 0, 0)" stroke="rgb(204, 204, 204)" stroke-width="1px"></line><line x1="58.59375" y1="58.999999999999986" x2="53.59375" y2="58.999999999999986" style="visibility: inherit;" fill="rgb(0, 0, 0)" stroke="rgb(204, 204, 204)" stroke-width="1px"></line><line x1="58.59375" y1="47.19999999999999" x2="53.59375" y2="47.19999999999999" style="visibility: inherit;" fill="rgb(0, 0, 0)" stroke="rgb(204, 204, 204)" stroke-width="1px"></line><line x1="58.59375" y1="35.400000000000006" x2="53.59375" y2="35.400000000000006" style="visibility: inherit;" fill="rgb(0, 0, 0)" stroke="rgb(204, 204, 204)" stroke-width="1px"></line><line x1="58.59375" y1="23.599999999999994" x2="53.59375" y2="23.599999999999994" style="visibility: inherit;" fill="rgb(0, 0, 0)" stroke="rgb(204, 204, 204)" stroke-width="1px"></line><line x1="58.59375" y1="11.800000000000011" x2="53.59375" y2="11.800000000000011" style="visibility: inherit;" fill="rgb(0, 0, 0)" stroke="rgb(204, 204, 204)" stroke-width="1px"></line><line x1="58.59375" y1="0" x2="53.59375" y2="0" style="visibility: inherit;" fill="rgb(0, 0, 0)" stroke="rgb(204, 204, 204)" stroke-width="1px"></line></g><g transform="translate(48.59375, 0)"><text x="0" y="177" dx="0em" dy="0.3em" style="text-anchor: end; visibility: hidden; font-family: &quot;Helvetica Neue&quot;, sans-serif; font-size: 12px; font-weight: 200;" fill="rgb(50, 49, 63)" stroke="none" stroke-width="1px">-0.04</text><text x="0" y="165.2" dx="0em" dy="0.3em" style="text-anchor: end; visibility: inherit; font-family: &quot;Helvetica Neue&quot;, sans-serif; font-size: 12px; font-weight: 200;" fill="rgb(50, 49, 63)" stroke="none" stroke-width="1px">-0.02</text><text x="0" y="153.4" dx="0em" dy="0.3em" style="text-anchor: end; visibility: hidden; font-family: &quot;Helvetica Neue&quot;, sans-serif; font-size: 12px; font-weight: 200;" fill="rgb(50, 49, 63)" stroke="none" stroke-width="1px">0</text><text x="0" y="141.6" dx="0em" dy="0.3em" style="text-anchor: end; visibility: hidden; font-family: &quot;Helvetica Neue&quot;, sans-serif; font-size: 12px; font-weight: 200;" fill="rgb(50, 49, 63)" stroke="none" stroke-width="1px">0.02</text><text x="0" y="129.8" dx="0em" dy="0.3em" style="text-anchor: end; visibility: inherit; font-family: &quot;Helvetica Neue&quot;, sans-serif; font-size: 12px; font-weight: 200;" fill="rgb(50, 49, 63)" stroke="none" stroke-width="1px">0.04</text><text x="0" y="118" dx="0em" dy="0.3em" style="text-anchor: end; visibility: hidden; font-family: &quot;Helvetica Neue&quot;, sans-serif; font-size: 12px; font-weight: 200;" fill="rgb(50, 49, 63)" stroke="none" stroke-width="1px">0.06</text><text x="0" y="106.2" dx="0em" dy="0.3em" style="text-anchor: end; visibility: hidden; font-family: &quot;Helvetica Neue&quot;, sans-serif; font-size: 12px; font-weight: 200;" fill="rgb(50, 49, 63)" stroke="none" stroke-width="1px">0.08</text><text x="0" y="94.39999999999999" dx="0em" dy="0.3em" style="text-anchor: end; visibility: inherit; font-family: &quot;Helvetica Neue&quot;, sans-serif; font-size: 12px; font-weight: 200;" fill="rgb(50, 49, 63)" stroke="none" stroke-width="1px">0.1</text><text x="0" y="82.6" dx="0em" dy="0.3em" style="text-anchor: end; visibility: hidden; font-family: &quot;Helvetica Neue&quot;, sans-serif; font-size: 12px; font-weight: 200;" fill="rgb(50, 49, 63)" stroke="none" stroke-width="1px">0.12</text><text x="0" y="70.79999999999998" dx="0em" dy="0.3em" style="text-anchor: end; visibility: hidden; font-family: &quot;Helvetica Neue&quot;, sans-serif; font-size: 12px; font-weight: 200;" fill="rgb(50, 49, 63)" stroke="none" stroke-width="1px">0.14</text><text x="0" y="58.999999999999986" dx="0em" dy="0.3em" style="text-anchor: end; visibility: inherit; font-family: &quot;Helvetica Neue&quot;, sans-serif; font-size: 12px; font-weight: 200;" fill="rgb(50, 49, 63)" stroke="none" stroke-width="1px">0.16</text><text x="0" y="47.19999999999999" dx="0em" dy="0.3em" style="text-anchor: end; visibility: hidden; font-family: &quot;Helvetica Neue&quot;, sans-serif; font-size: 12px; font-weight: 200;" fill="rgb(50, 49, 63)" stroke="none" stroke-width="1px">0.18</text><text x="0" y="35.400000000000006" dx="0em" dy="0.3em" style="text-anchor: end; visibility: hidden; font-family: &quot;Helvetica Neue&quot;, sans-serif; font-size: 12px; font-weight: 200;" fill="rgb(50, 49, 63)" stroke="none" stroke-width="1px">0.2</text><text x="0" y="23.599999999999994" dx="0em" dy="0.3em" style="text-anchor: end; visibility: inherit; font-family: &quot;Helvetica Neue&quot;, sans-serif; font-size: 12px; font-weight: 200;" fill="rgb(50, 49, 63)" stroke="none" stroke-width="1px">0.22</text><text x="0" y="11.800000000000011" dx="0em" dy="0.3em" style="text-anchor: end; visibility: hidden; font-family: &quot;Helvetica Neue&quot;, sans-serif; font-size: 12px; font-weight: 200;" fill="rgb(50, 49, 63)" stroke="none" stroke-width="1px">0.24</text><text x="0" y="0" dx="0em" dy="0.3em" style="text-anchor: end; visibility: hidden; font-family: &quot;Helvetica Neue&quot;, sans-serif; font-size: 12px; font-weight: 200;" fill="rgb(50, 49, 63)" stroke="none" stroke-width="1px">0.26</text></g><line x1="58.59375" y1="0" x2="58.59375" y2="177" fill="rgb(0, 0, 0)" stroke="rgb(204, 204, 204)" stroke-width="1px"></line></g></g><g transform="translate(58, 0)" clip-path="url(#clip_0)"><clipPath id="clip_0"><rect width="271" height="177"></rect></clipPath><g><g><g><line x1="0" y1="0" x2="0" y2="177" fill="rgb(0, 0, 0)" stroke="rgb(60, 60, 60)" stroke-width="1px" opacity="0.25"></line><line x1="22.6171875" y1="0" x2="22.6171875" y2="177" fill="rgb(0, 0, 0)" stroke="rgb(60, 60, 60)" stroke-width="1px" opacity="0.25"></line><line x1="45.234375" y1="0" x2="45.234375" y2="177" fill="rgb(0, 0, 0)" stroke="rgb(60, 60, 60)" stroke-width="1px" opacity="0.25"></line><line x1="67.8515625" y1="0" x2="67.8515625" y2="177" fill="rgb(0, 0, 0)" stroke="rgb(60, 60, 60)" stroke-width="1px" opacity="0.25"></line><line x1="90.46875" y1="0" x2="90.46875" y2="177" fill="rgb(0, 0, 0)" stroke="rgb(60, 60, 60)" stroke-width="1px" opacity="0.25"></line><line x1="113.0859375" y1="0" x2="113.0859375" y2="177" fill="rgb(0, 0, 0)" stroke="rgb(60, 60, 60)" stroke-width="1px" opacity="0.25"></line><line x1="135.703125" y1="0" x2="135.703125" y2="177" fill="rgb(0, 0, 0)" stroke="rgb(60, 60, 60)" stroke-width="1px" opacity="0.25"></line><line x1="158.3203125" y1="0" x2="158.3203125" y2="177" fill="rgb(0, 0, 0)" stroke="rgb(60, 60, 60)" stroke-width="1px" opacity="0.25"></line><line x1="180.9375" y1="0" x2="180.9375" y2="177" fill="rgb(0, 0, 0)" stroke="rgb(60, 60, 60)" stroke-width="1px" opacity="0.25"></line><line x1="203.5546875" y1="0" x2="203.5546875" y2="177" fill="rgb(0, 0, 0)" stroke="rgb(60, 60, 60)" stroke-width="1px" opacity="0.25"></line><line x1="226.171875" y1="0" x2="226.171875" y2="177" fill="rgb(0, 0, 0)" stroke="rgb(60, 60, 60)" stroke-width="1px" opacity="0.25"></line><line x1="248.7890625" y1="0" x2="248.7890625" y2="177" fill="rgb(0, 0, 0)" stroke="rgb(60, 60, 60)" stroke-width="1px" opacity="0.25"></line><line x1="271.40625" y1="0" x2="271.40625" y2="177" fill="rgb(0, 0, 0)" stroke="rgb(60, 60, 60)" stroke-width="1px" opacity="0.25"></line></g><g><line x1="0" y1="177" x2="271.40625" y2="177" fill="rgb(0, 0, 0)" stroke="rgb(60, 60, 60)" stroke-width="1px" opacity="0.25"></line><line x1="0" y1="165.2" x2="271.40625" y2="165.2" fill="rgb(0, 0, 0)" stroke="rgb(60, 60, 60)" stroke-width="1px" opacity="0.25"></line><line x1="0" y1="153.4" x2="271.40625" y2="153.4" fill="rgb(0, 0, 0)" stroke="rgb(60, 60, 60)" stroke-width="1px" opacity="0.25"></line><line x1="0" y1="141.6" x2="271.40625" y2="141.6" fill="rgb(0, 0, 0)" stroke="rgb(60, 60, 60)" stroke-width="1px" opacity="0.25"></line><line x1="0" y1="129.8" x2="271.40625" y2="129.8" fill="rgb(0, 0, 0)" stroke="rgb(60, 60, 60)" stroke-width="1px" opacity="0.25"></line><line x1="0" y1="118" x2="271.40625" y2="118" fill="rgb(0, 0, 0)" stroke="rgb(60, 60, 60)" stroke-width="1px" opacity="0.25"></line><line x1="0" y1="106.2" x2="271.40625" y2="106.2" fill="rgb(0, 0, 0)" stroke="rgb(60, 60, 60)" stroke-width="1px" opacity="0.25"></line><line x1="0" y1="94.39999999999999" x2="271.40625" y2="94.39999999999999" fill="rgb(0, 0, 0)" stroke="rgb(60, 60, 60)" stroke-width="1px" opacity="0.25"></line><line x1="0" y1="82.6" x2="271.40625" y2="82.6" fill="rgb(0, 0, 0)" stroke="rgb(60, 60, 60)" stroke-width="1px" opacity="0.25"></line><line x1="0" y1="70.79999999999998" x2="271.40625" y2="70.79999999999998" fill="rgb(0, 0, 0)" stroke="rgb(60, 60, 60)" stroke-width="1px" opacity="0.25"></line><line x1="0" y1="58.999999999999986" x2="271.40625" y2="58.999999999999986" fill="rgb(0, 0, 0)" stroke="rgb(60, 60, 60)" stroke-width="1px" opacity="0.25"></line><line x1="0" y1="47.19999999999999" x2="271.40625" y2="47.19999999999999" fill="rgb(0, 0, 0)" stroke="rgb(60, 60, 60)" stroke-width="1px" opacity="0.25"></line><line x1="0" y1="35.400000000000006" x2="271.40625" y2="35.400000000000006" fill="rgb(0, 0, 0)" stroke="rgb(60, 60, 60)" stroke-width="1px" opacity="0.25"></line><line x1="0" y1="23.599999999999994" x2="271.40625" y2="23.599999999999994" fill="rgb(0, 0, 0)" stroke="rgb(60, 60, 60)" stroke-width="1px" opacity="0.25"></line><line x1="0" y1="11.800000000000011" x2="271.40625" y2="11.800000000000011" fill="rgb(0, 0, 0)" stroke="rgb(60, 60, 60)" stroke-width="1px" opacity="0.25"></line><line x1="0" y1="0" x2="271.40625" y2="0" fill="rgb(0, 0, 0)" stroke="rgb(60, 60, 60)" stroke-width="1px" opacity="0.25"></line></g></g></g><g><g><line x1="0" y1="153.4" x2="271.40625" y2="153.4" fill="rgb(0, 0, 0)" stroke="rgb(153, 153, 153)" stroke-width="1.5px"></line></g></g><g><g><line x1="22.6171875" y1="0" x2="22.6171875" y2="177" fill="rgb(0, 0, 0)" stroke="rgb(153, 153, 153)" stroke-width="1.5px"></line></g></g><g><g><g><g><g><path stroke="rgb(51, 187, 238)" stroke-width="2px" d="M23.521875,-10.428198909759516L23.748046875,10.031502956151968L23.97421875,11.83976795673371L24.200390625,12.972928249835974L24.4265625,13.36917828917504L24.652734375,14.082913661003118L24.87890625,14.195280188322073L25.105078125,14.546675050258642L25.33125,14.778863453865057L25.557421875,15.096885079145437L25.78359375,16.597282850742346L26.009765625,35.51081743240357L26.2359375,39.533910119533545L26.462109375,40.8233689904213L26.68828125,41.34298395514489L26.914453125,41.88882451653478L27.140625,42.3396445453167L27.366796875,42.904941105842596L27.59296875,46.53489601016042L27.819140625,53.49258285164832L28.0453125,58.9422319471836L28.271484375,61.28940086960792L28.49765625,62.860132122039786L28.723828125,64.28022664189338L28.950000000000003,65.25066163539886L29.176171874999998,66.2083311021328L29.40234375,66.7227677643299L29.628515625,67.37593721747398L29.8546875,67.62873333096505L30.080859375000003,68.52096628546714L30.307031249999998,68.81974291205405L30.533203125,69.40640326738357L30.759375,69.71300449371337L30.985546875,70.15346791744231L31.211718750000003,70.36604207158089L31.437890624999998,70.6573545575142L31.6640625,70.85943143963813L32.11640625,71.4979187786579L32.342578125,71.95184227228165L32.56875,72.0708465218544L32.794921875,71.73392277359962L33.02109375,72.73082953095437L33.247265625,72.74501931071282L33.4734375,72.67622437477111L33.699609375,72.96012547016143L33.92578125,73.48459344506263L34.151953125,73.9667558312416L34.378125000000004,73.66568457484244L34.604296875,74.05310776233672L34.83046875,74.54722684025765L35.056640625,74.3350922703743L35.2828125,74.7453210890293L35.508984375,74.90537371635438L35.735156249999996,74.85419731736182L35.961328125,75.46933394074439L36.1875,75.22002812623978L36.413671875,75.29557507634162L36.639843750000004,76.14593323469161L36.866015625,75.83664175271987L37.092187499999994,76.38802107572556L37.318359375,76.21869322061539L37.54453125,76.60304811000823L37.770703125,76.50772866010665L37.996875,76.94015648365021L38.223046875,76.84052031636237L38.44921875,77.32270907759666L38.675390625,77.23619010448456L38.901562500000004,77.34279807806016L39.127734375,77.44109790921212L39.353906249999994,77.65890311598778L39.580078125,77.94973205924033L39.80625,78.30867897868157L40.032421875,77.92144041657448L40.25859375,78.28895922899245L40.484765625,78.21568932533263L40.7109375,78.63710995912551L40.937109375000006,78.59228115677833L41.163281250000004,78.55772983431815L41.389453124999996,78.96067913770675L41.615624999999994,79.32920899391175L41.841796875,79.00135826468467L42.06796875,79.13473691940307L42.294140625,79.27665230035781L42.5203125,79.42580323815345L42.746484375,79.37181349992751L42.97265625,79.89567484855651L43.198828125000006,79.81888387501239L43.425000000000004,80.16873140037059L43.651171874999996,79.8827862381935L43.877343749999994,80.46077799201012L44.103515625,80.56008007526398L44.3296875,80.31928900778294L44.555859375,80.84810007512569L44.78203125,80.95708619952201L45.008203125,80.70964422225951L45.234375,80.9764498859644L45.460546875000006,81.53405811786652L45.68671875,81.24258738160134L45.912890624999996,81.3087184369564L46.1390625,81.59465920329093L46.365234375,81.6206342369318L46.59140625,81.35792989432811L46.817578125,81.46439720094203L47.04375,81.68336291015147L47.269921875,81.63844619095325L47.49609375,81.40681166350842L47.722265625000006,81.79969009160995L47.9484375,82.02284503877162L48.174609374999996,82.02989157438277L48.40078125,82.40732740759849L48.626953125,82.42179852128028L48.853125,82.4472900122404L49.079296875000004,82.1474100291729L49.30546875,82.60705690979957L49.531640625,82.84672264158725L49.7578125,82.46041160225867L49.983984375,82.36692521870135L50.21015625,82.66680520176887L50.436328124999996,82.79099214971065L50.6625,82.82061573266982L50.888671875,82.92987879514695L51.11484375,82.90599178671836L51.341015625000004,83.07095017433166L51.5671875,82.79890466630458L51.793359375,83.15637018680572L52.01953125,83.10092982053756L52.245703125,83.07860773205758L52.471875,83.44698373377322L52.698046874999996,83.42539575099944L52.92421875,83.11182711422444L53.150390625,83.58941342830659L53.3765625,83.0641805768013L53.602734375000004,83.43511495888232L53.82890625,83.5813030987978L54.055078124999994,83.94620198905469L54.28125,83.57913155257701L54.507421875,83.66274487376212L54.73359375,83.8857635498047L54.959765625,84.11998722851277L55.1859375,84.06501282155513L55.412109375,83.7664120286703L55.63828125,83.90505250692367L55.864453125000004,83.92260510623454L56.090625,83.81604109108449L56.316796874999994,84.19519130289554L56.54296875,83.99639811515807L56.769140625,83.85123420655727L56.9953125,84.1328186929226L57.221484375,84.30692922472953L57.44765625,84.13663868010043L57.673828125,84.25791997611522L57.900000000000006,84.46167607009411L58.126171875000004,84.29434832334518L58.352343749999996,84.43301957249642L58.578515624999994,84.2437653630972L58.8046875,84.64078027904033L59.030859375,84.77728437781333L59.25703125,84.54186942577363L59.483203125,84.79234893023967L59.709375,84.10359952747821L59.935546875,84.98719904720784L60.161718750000006,84.25094816982745L60.387890625000004,84.71117530167102L60.614062499999996,84.79515787363052L60.840234374999994,84.96096026301383L61.06640625,85.05296085178851L61.292578125,84.82704971134663L61.51875,84.86286703646184L61.744921875,84.70080990493297L61.97109375,85.01751277744769L62.197265625,85.2704803287983L62.423437500000006,85.18395695984364L62.649609375,85.2207897245884L62.875781249999996,85.4494570583105L63.101953125,85.29957201480866L63.328125,85.07451806366443L63.554296875,85.31087812185287L63.78046875,85.30740980207919L64.006640625,85.40055770576L64.2328125,85.8179121851921L64.458984375,85.74555661678313L64.68515625,85.53288575410843L64.911328125,85.82028594017028L65.1375,85.17382454276084L65.36367187500001,85.71951124966144L65.58984375,85.85937816798686L65.81601562499999,85.49851905703545L66.0421875,85.31506735980511L66.268359375,85.49450565278529L66.49453125,85.96854891777039L66.720703125,85.74499394893647L66.946875,85.87301407158374L67.173046875,85.90599607825278L67.39921875,85.85877154171466L67.62539062500001,85.93632299602031L67.8515625,86.2495443612337L68.077734375,86.0297126710415L68.30390625,86.05552505850791L68.530078125,86.19149286448955L68.75625000000001,86.24270882606505L68.982421875,86.66857805252074L69.20859375,86.34625289738179L69.43476562500001,86.32948275804519L69.6609375,86.30876954793929L69.88710937500001,86.56859021782874L70.11328125,86.48835290372371L70.33945312499999,86.56444933414458L70.565625,86.63962263762951L70.79179687499999,86.55866440534592L71.01796875,86.60803850889207L71.244140625,86.76311504244804L71.47031249999999,86.69447396099567L71.696484375,86.942869836092L71.92265625,86.57495100200177L72.148828125,86.59018259644509L72.375,86.78540196418761L72.601171875,87.22764130830765L72.82734375,87.15807709991932L73.053515625,86.96622494757176L73.505859375,87.3892676472664L73.73203125,86.94334458708764L73.95820312500001,87.30037931501865L74.18437499999999,87.01469350755214L74.410546875,87.20220256745816L74.63671875,87.07366373538972L74.86289062499999,87.21889358162879L75.0890625,87.32629720270634L75.315234375,87.73472372591495L75.54140625,87.32951056361198L75.767578125,87.35331405103206L75.99375,87.30354432165622L76.219921875,87.6266695201397L76.44609375,87.49286007285117L76.672265625,87.64996308982371L76.8984375,88.04513175189494L77.124609375,87.75355991125107L77.35078125,88.08570098280907L77.576953125,87.63892952501773L77.80312500000001,88.2875580728054L78.029296875,88.02168872356415L78.25546875,88.3550650268793L78.48164062500001,88.02257668375968L78.70781249999999,88.34851522147656L78.933984375,88.23383208513259L79.16015625,88.54326862990855L79.38632812499999,88.70746653676032L79.6125,88.40297091901301L79.838671875,88.29722453057765L80.06484375,88.29587061107159L80.291015625,88.57138004302978L80.5171875,88.431104311347L80.743359375,88.62437192499637L80.96953125,88.69383942484855L81.19570312500001,88.30005545318126L81.421875,88.72746322453021L81.648046875,88.57627261579036L81.87421875000001,88.68997108340263L82.100390625,88.5328021287918L82.32656250000001,88.80057487785815L82.552734375,88.84646307826041L83.005078125,89.31058932244777L83.23124999999999,89.21358186900615L83.457421875,89.23537645637988L83.68359375,88.92203640341758L83.90976562499999,89.24939040243625L84.1359375,89.12670683264732L84.362109375,89.23603143692016L84.58828125,89.50979132354259L84.814453125,89.14133180081843L85.040625,89.3408415108919L85.266796875,89.52992867827415L85.49296875,89.04848721027373L85.71914062500001,89.56474814713L85.9453125,89.45457074940204L86.171484375,89.58543058633803L86.39765625000001,89.70112037062644L86.623828125,89.73776411414146L86.85000000000001,89.64966263771056L87.076171875,89.65016815960406L87.30234374999999,89.41393118500709L87.528515625,89.84699200987815L87.980859375,89.9625587105751L88.20703125,90.22284094393252L88.43320312499999,89.69124291241168L88.659375,90.03140639662742L88.885546875,90.06749626398086L89.11171875,89.87418469190597L89.337890625,89.79888830482959L89.5640625,90.28229911029338L89.790234375,90.13986941576003L90.01640625,90.40831912457942L90.24257812500001,90.02142783403396L90.46875,90.39290730059146L90.694921875,90.52494522333144L90.92109375000001,90.57674143612384L91.14726562499999,90.48877183496951L91.3734375,90.41211273670196L91.599609375,90.33529099225997L91.82578124999999,90.36731030941009L92.051953125,90.54666947722434L92.278125,90.65247301161288L92.504296875,90.87818194329738L92.73046875,90.58240328133105L92.956640625,90.86059857308864L93.408984375,90.92665050327777L93.63515625,90.79672258496284L93.861328125,91.06142264008521L94.0875,91.07499700188636L94.313671875,91.26559633910655L94.53984375,91.36095974743365L94.76601562500001,91.05703558921813L94.9921875,91.23487819135188L95.218359375,91.06458764672279L95.44453125000001,91.37253400087356L95.67070312499999,91.07736196517943L95.896875,91.7335293829441L96.123046875,91.75503824055194L96.34921874999999,91.3132868349552L96.575390625,91.91718768477439L96.8015625,91.49174925088882L97.027734375,91.50147285461425L97.25390625,91.47173937559127L97.480078125,91.61285910904407L97.70625,91.8156261384487L97.932421875,91.64704997241496L98.15859375000001,91.73690539002418L98.384765625,92.03996796309947L98.6109375,91.76139023303985L98.83710937500001,92.39586856365203L99.06328125,91.88619259893893L99.28945312500001,92.23732371032237L99.515625,92.02549245357513L99.74179687499999,92.5523341834545L99.96796875,92.10728589594363L100.19414062499999,92.1806525081396L100.4203125,92.3254032075405L100.646484375,92.73200106024741L100.87265624999999,92.24618133306502L101.098828125,92.3667285233736L101.325,92.66856026053428L101.551171875,92.41387833058833L101.77734375,92.95957822501659L102.003515625,92.67500016987323L102.2296875,92.93597255051135L102.455859375,93.0112997084856L102.68203125000001,92.73236591517924L102.908203125,92.53650915026664L103.134375,92.99868803620338L103.36054687500001,92.95115139484405L103.58671875,93.21743834912776L103.81289062500001,92.8166825711727L104.0390625,93.16065285503863L104.26523437499999,93.4420219451189L104.49140625,93.08753680586814L104.71757812499999,93.32521561682223L104.94375,93.37687995433807L105.169921875,93.55980415046214L105.39609374999999,93.71724125146865L105.622265625,93.19869447648524L105.8484375,93.65805562734603L106.30078125,93.91702350378036L106.526953125,93.58545389175414L106.753125,93.54789141714572L106.979296875,93.69241792857646L107.20546875000001,93.78324922323226L107.431640625,93.67751602232455L107.6578125,94.13998942971229L107.88398437500001,94.10222914218902L108.11015624999999,94.12179064154624L108.336328125,94.16726123690604L108.5625,94.1456600666046L108.78867187499999,94.1152672111988L109.01484375,94.33953430652618L109.241015625,94.34265535473823L109.4671875,94.38584450781345L109.693359375,94.15147576630115L109.91953125,94.85805031061172L110.145703125,94.61149189770221L110.371875,94.69612945020198L110.598046875,94.8155776798725L110.82421875,94.44932487010955L111.050390625,94.85369842648505L111.2765625,94.61339969336986L111.502734375,95.0217690706253L111.955078125,94.66092314720153L112.18125,94.98544622361659L112.40742187500001,94.52158812582492L112.63359374999999,94.92898162603377L112.859765625,94.88173950612544L113.0859375,95.20522955954074L113.31210937499999,95.15070792436599L113.53828125,94.90938056409358L113.764453125,95.30107211470603L113.990625,95.39996538460254L114.216796875,95.36592397987842L114.44296875,95.55596064925193L114.669140625,95.4359057933092L114.8953125,95.37440795600413L115.12148437500001,95.34658666849135L115.34765625,95.37370462119578L115.573828125,95.60202907919883L115.80000000000001,95.68017397224902L116.026171875,95.74100364148616L116.25234375000001,95.40704708695411L116.478515625,95.96143316626548L116.70468749999999,95.81821222007274L117.15703124999999,95.97597021758556L117.383203125,95.94361242055892L117.609375,95.91221731305122L117.83554687499999,96.07780870199203L118.06171875,96.21340286135673L118.287890625,96.36920031309127L118.5140625,96.3032626748085L118.740234375,96.47460822165012L118.96640625,96.48934308588504L119.192578125,96.530110129714L119.41875,96.52957823276519L119.64492187500001,96.38582538962363L119.87109375,96.2932137787342L120.32343750000001,96.34547595083713L120.549609375,96.84027638435363L120.77578125000001,96.57422240972518L121.001953125,96.8065207093954L121.22812499999999,96.98317203819751L121.454296875,96.87779490053653L121.68046874999999,96.63266513645648L121.906640625,97.06688206791877L122.1328125,96.90259624421596L122.35898437499999,97.13027890920638L122.58515625,97.05518912672996L122.811328125,97.00357753932475L123.0375,96.7327892422676L123.263671875,97.14458737671374L123.48984375,97.32152003943919L123.716015625,97.12345216572284L123.9421875,96.86708223223685L124.16835937500001,97.4680818259716L124.39453125,97.41191614568233L124.620703125,97.64719043076038L124.84687500000001,97.38566417396068L125.07304687499999,97.49044347703456L125.29921875,97.517394387722L125.525390625,97.78931241631507L125.75156249999999,97.47518990337848L125.977734375,97.69924599826335L126.20390625,98.02122827768325L126.430078125,97.68157471120357L126.65625,97.59114783406257L126.882421875,97.78396267592906L127.10859375,98.14727906286716L127.334765625,97.65174891948699L127.5609375,97.75461603105067L127.787109375,98.14300190806388L128.01328125,97.71119829416274L128.23945312499998,97.98789899945258L128.465625,97.91251469552516L128.691796875,97.96049971282481L128.91796875,97.9904354006052L129.144140625,98.22697568833827L129.3703125,97.72586722075938L129.596484375,97.68826078772544L129.82265625,98.47983334362506L130.048828125,98.10820881426334L130.275,98.30742400288581L130.501171875,98.3324495345354L130.72734375000002,98.2993620276451L130.953515625,98.36179617941379L131.1796875,98.45989380180835L131.405859375,98.50413356125354L131.63203124999998,98.37719042003154L131.858203125,98.29875979721545L132.084375,98.4305163860321L132.310546875,98.53617925345897L132.53671875,98.1643657028675L132.762890625,98.37855313122272L132.9890625,98.14032923579215L133.215234375,98.69922984540462L133.44140625,98.5020411401987L133.667578125,98.46303243339061L133.89375,98.68237178921699L134.119921875,98.26316666007041L134.572265625,98.19458712041377L134.7984375,98.38624145984649L135.024609375,98.59834086298942L135.25078125000002,98.72064199447631L135.476953125,98.65075249373912L135.703125,98.5686469465494L136.15546875,98.66587858796119L136.381640625,98.47514297962188L136.6078125,98.32533706128596L136.833984375,98.3474261701107L137.06015625,98.88125728964805L137.286328125,98.73077880740165L137.51250000000002,98.17621689438819L137.738671875,98.68225749731063L137.96484375,98.64003103375434L138.191015625,98.0935398876667L138.4171875,98.89649767577647L138.64335937500002,98.47362201809882L138.86953125000002,98.56577646136283L139.095703125,98.37923888266086L139.321875,98.47721781730651L139.548046875,98.65587804615497L139.77421875000002,98.36868886053561L140.00039062500002,98.57032615840434L140.2265625,98.34553595781325L140.45273437499998,98.86691805124282L140.67890624999998,98.46963059306144L140.905078125,98.58484123051166L141.13125,98.384263330698L141.357421875,98.52957669794559L142.0359375,98.63738913238048L142.262109375,99.05364025533198L142.48828125,98.89074351787566L142.714453125,98.24306886792182L142.94062499999998,98.58249824643134L143.166796875,98.36839433908462L143.39296875,98.74510046243667L143.619140625,98.65642752647399L143.8453125,99.04265944063663L144.071484375,98.96019343435763L144.29765625,98.86142764389514L144.523828125,98.81031278669833L144.75,98.923202419281L144.976171875,98.90773344933986L145.20234375,98.56094982624053L145.42851562500002,98.87077320516109L145.6546875,98.83564602732658L145.880859375,98.66183880865573L146.10703125,98.82005397379397L146.333203125,98.55051409602164L146.55937500000002,99.0401054561138L146.78554687500002,99.00149677097797L147.01171875,98.69734842479228L147.237890625,98.51283293366431L147.4640625,98.7028080612421L147.69023437500002,98.74146949648856L147.91640625000002,98.65086238980292L148.142578125,98.89915716052055L148.36874999999998,98.4217818468809L148.59492187499998,98.92991487085818L148.82109375,98.99864826500415L149.047265625,98.76722034215926L149.2734375,99.04665086567401L149.49960937499998,99.22616388797759L149.72578124999998,98.92478492259978L149.951953125,98.6185133844614L150.178125,99.02252208590507L150.404296875,98.93204245865344L150.63046875,99.03403040170669L150.85664062499998,98.96413210928439L151.0828125,98.77724286317824L151.308984375,99.08956308066844L151.53515625,99.11237750351428L151.761328125,99.13500730097293L151.9875,99.34492197036742L152.213671875,99.20753870308398L152.43984375,98.91782190799712L152.666015625,99.28449232280254L152.8921875,98.99241496026515L153.118359375,99.1109136879444L153.34453125,99.08074502050876L153.570703125,99.31084100306033L153.796875,99.03373148441314L154.023046875,99.05462492406367L154.24921875,99.3633933007717L154.47539062500002,98.9984504520893L154.7015625,99.16759807765483L154.927734375,99.0966271996498L155.15390625,99.3968764334917L155.380078125,99.01954610049724L155.60625000000002,99.15641065835952L155.83242187500002,99.2346390724182L156.05859375,99.17727332711219L156.284765625,99.32792764306068L156.5109375,99.25171252489089L156.73710937500002,99.06882789134978L156.96328125000002,99.21235654652118L157.189453125,99.02120333313941L157.41562499999998,99.19401269555091L157.64179687499998,99.47541695237159L157.86796875,99.47666976749896L158.094140625,99.59923464953899L158.3203125,99.25280708968639L158.54648437499998,99.23936899900436L158.77265624999998,99.40576043128966L158.998828125,99.3782776236534L159.225,99.30914860367774L159.451171875,99.07127637565135L159.67734375,99.20182410776614L160.1296875,99.59064077734946L160.355859375,99.34884745776652L160.58203125,99.15099498033523L160.808203125,99.37857654094695L161.034375,99.67569593489169L161.260546875,99.39402792751788L161.48671875,99.8675348997116L161.712890625,99.69578933119773L161.9390625,99.45971939861774L162.165234375,99.50246457159518L162.39140625000002,99.54512622356414L162.617578125,99.46834843754768L162.84375,99.48866162598132L163.069921875,99.71908290088176L163.29609375,99.86044000983237L163.52226562500002,99.93519131243228L163.74843750000002,99.55165844559669L163.974609375,99.74740531444549L164.20078125,99.54817693829536L164.426953125,99.2138159662485L164.65312500000002,99.46135465204715L164.87929687500002,99.59097925722598L165.10546875,99.93850138187408L165.33164062499998,99.66088634133338L165.55781249999998,99.76692285537719L165.783984375,99.72745258510112L166.01015625,99.8709636569023L166.236328125,99.7582806289196L166.46249999999998,99.9682128816843L166.68867187499998,99.59512014091014L166.91484375,100.08093107640742L167.141015625,100.0266644001007L167.3671875,99.81176044940948L167.593359375,99.93740681707858L167.81953124999998,99.60963960886001L168.045703125,99.94075644910335L168.271875,99.8101032167673L168.498046875,100.0459885239601L168.72421875,100.02385545670985L168.950390625,99.88942179977893L169.1765625,99.94971078038215L169.402734375,99.95701227486133L169.62890625,100.01523960530757L169.855078125,100.03346916437148L170.08125,99.93718702495097L170.307421875,99.9919504314661L170.53359375,100.07456589639186L170.759765625,100.18811490535735L170.9859375,100.25053147375583L171.212109375,100.46454746425151L171.43828125000002,100.21231401860713L171.664453125,100.07168661952018L171.890625,100.0233455389738L172.116796875,99.92639962732791L172.34296875,100.55205550193786L172.56914062500002,100.03739025592803L172.79531250000002,100.11451531350612L173.021484375,100.1360109835863L173.24765625,100.21257337331771L173.473828125,100.46969939172267L173.70000000000002,100.1443498969078L173.92617187500002,100.6206438332796L174.15234375,100.68750899434089L174.37851562499998,100.14238935112952L174.60468749999998,99.98213891088962L174.830859375,100.37510085999965L175.05703125,100.283060708642L175.283203125,100.54598044753074L175.50937499999998,100.34040447473525L175.73554687499998,100.67653257548808L175.96171875,100.63106198012828L176.187890625,99.7396730273962L176.4140625,100.54900478720664L176.640234375,100.58065924942493L176.86640624999998,100.37432279586791L177.092578125,100.2753108382225L177.31875,100.35000059902667L177.544921875,100.42156051993369L177.77109375,100.47418754696845L177.997265625,100.3273268431425L178.2234375,100.59466000795364L178.449609375,100.45106541514396L178.67578125,100.73623251318931L178.901953125,100.59535894691943L179.128125,100.67484017610549L179.35429687500002,100.6688354551792L179.58046875,100.55216100215911L179.806640625,100.73811393380164L180.0328125,100.65137956440448L180.258984375,100.81051785647868L180.48515625000002,100.88054362833499L180.71132812500002,100.81846553981303L180.9375,100.85977327227592L181.163671875,100.83996560573577L181.38984375,100.86329873800277L181.61601562500002,100.91609720289706L181.84218750000002,100.83243113160133L182.068359375,101.04195457100867L182.29453124999998,100.91319155097007L182.52070312499998,101.10629212260245L182.746875,100.88310200870036L182.973046875,101.10994946360587L183.19921875,100.9337816774845L183.42539062499998,100.98923523128032L183.65156249999998,100.89762147665023L183.877734375,101.11978296339511L184.10390625,100.70349667370319L184.330078125,101.0259273290634L184.55625,101.42110917866229L184.78242187499998,101.0931969076395L185.00859375,100.9877933949232L185.234765625,101.12649101912974L185.4609375,101.31415832936763L185.687109375,101.30480397641658L185.91328125,101.35467041432857L186.139453125,100.97463224232196L186.365625,101.25702556371688L186.591796875,100.95119360983371L186.81796875,101.34644139707088L187.044140625,101.22216653227805L187.2703125,101.27730358541011L187.496484375,101.32959213256835L187.72265625,100.89146290123462L187.948828125,101.39685291945933L188.175,101.23768385648727L188.40117187500002,101.51430104076861L188.62734375,101.47742871344089L188.853515625,101.29273738861083L189.0796875,101.1746782451868L189.305859375,101.56424220800399L189.53203125000002,101.11730370819568L189.75820312500002,101.42134215831756L189.984375,101.59740444421767L190.210546875,101.48395214378833L190.43671875,101.70297499895095L190.66289062500002,101.26529853940009L190.88906250000002,101.89078737199306L191.115234375,101.89230393767356L191.34140624999998,101.37356374561786L191.56757812499998,101.75963301360606L191.79375,101.78348485529422L192.019921875,101.65287118554114L192.24609375,101.61323826909064L192.47226562499998,101.90574202835559L192.69843749999998,101.91304791867732L192.924609375,101.70765217542647L193.15078125,101.68092105686664L193.376953125,101.59591864943503L193.603125,101.91356223225593L193.82929687499998,101.87465023398399L194.05546875,102.03221041858195L194.281640625,101.78922582566737L194.5078125,101.8973195940256L194.733984375,101.60816107094287L194.96015625,102.05108616650104L195.186328125,101.88386391997336L195.4125,101.9979975759983L195.638671875,101.98715303242206L195.86484375,101.76763784289359L196.091015625,102.01767336726188L196.31718750000002,101.91980872452258L196.543359375,101.86251770853995L196.76953125,102.39846762418746L196.995703125,101.90113958120345L197.221875,102.26476807296275L197.44804687500002,102.3872933924198L197.67421875000002,102.32559334635734L197.900390625,101.96477379798888L198.1265625,102.28774953782558L198.57890625000002,102.14803647398948L198.80507812500002,102.4635173022747L199.03125,102.26943206191062L199.25742187499998,102.17351038157939L199.48359374999998,102.34900999963283L199.709765625,102.37504217922687L199.9359375,102.59898398220538L200.162109375,102.63447161912917L200.38828124999998,102.62863833606242L200.61445312499998,102.45893683433532L200.840625,102.61397820115089L201.066796875,102.79934208989143L201.29296875,102.53513876497745L201.519140625,102.59955544173717L201.74531249999998,102.83618364632129L201.971484375,102.55398813784122L202.19765625,102.73657385408877L202.423828125,102.8829861819744L202.65,102.4598028153181L202.876171875,102.81953659057616L203.10234375,102.95267786979674L203.328515625,102.74349291026591L203.5546875,102.79128890633582L203.780859375,103.30962028503417L204.00703125,102.61253196895122L204.233203125,103.20847634375095L204.459375,103.07966936528682L204.685546875,102.772646138072L204.91171875,102.94781606793403L205.137890625,102.82003332078456L205.36406250000002,103.01350753903388L205.590234375,102.97728579640388L206.042578125,102.81982671618461L206.26875,103.36612884104251L206.49492187500002,102.90765125453471L206.72109375000002,103.17319970726966L206.947265625,103.26321337521075L207.1734375,102.95533295869826L207.399609375,103.13291620612144L207.62578125000002,103.03923200964927L207.85195312500002,103.19051932692527L208.078125,103.24233751893043L208.30429687499998,103.05151399374007L208.53046874999998,103.51129274964332L208.756640625,103.19614600539207L208.9828125,103.48261427283286L209.208984375,103.6771171182394L209.43515624999998,103.60305156707763L209.66132812499998,103.76931551992892L209.8875,103.67981176972388L210.113671875,103.40562988221645L210.33984375,103.7859669715166L210.566015625,103.49534463286399L210.79218749999998,103.57628967761993L211.018359375,103.70493840575217L211.24453125,103.62666603326797L211.470703125,103.92996598184108L211.696875,103.61846778690814L211.923046875,103.48353739976882L212.14921875,103.77337727844714L212.375390625,103.60600996911525L212.6015625,103.93351342678069L212.827734375,104.00311280190944L213.05390625,104.027166852355L213.28007812500002,103.6743125706911L213.50625,103.85818626880645L213.732421875,103.96758560240268L213.95859375,104.05008237957954L214.184765625,103.83649278581142L214.41093750000002,104.18652054071426L214.63710937500002,104.26084105074405L214.86328125,104.34198830425738L215.089453125,103.93313978016376L215.315625,104.38019696772098L215.54179687500002,104.01370238661765L215.76796875000002,104.38287403583526L215.994140625,104.54069797098636L216.22031249999998,104.30489618480205L216.44648437499998,104.48475647866725L216.898828125,104.68007695078849L217.125,104.78850480318069L217.35117187499998,104.53449983298778L217.57734374999998,104.43123269975185L217.803515625,104.83845476210116L218.255859375,104.41825177669524L218.48203125,104.33937277793883L218.70820312499998,104.73717015385627L218.934375,104.89510398507117L219.160546875,104.75143466293811L219.38671875,104.8091432839632L219.612890625,104.9052056312561L219.8390625,104.96857170164584L220.065234375,104.85393691956996L220.29140625,104.6077785283327L220.517578125,104.71765700876712L220.74375,104.85014330744742L220.969921875,105.00221748054027L221.19609375,104.97768867909907L221.422265625,105.02424065172671L221.6484375,104.59060836732387L221.874609375,105.47921914756297L222.10078125,105.13654563724994L222.32695312500002,105.4458810776472L222.553125,105.2704430013895L222.779296875,104.99709192812442L223.00546875,105.27432453036307L223.231640625,105.32213371396064L223.45781250000002,105.28468992710113L223.68398437500002,105.46676572561263L223.91015625,105.26252169311046L224.136328125,105.48700858056544L224.3625,105.61775852143764L224.58867187500002,105.62667329013347L224.81484375000002,105.59580128788947L225.041015625,105.76897110939025L225.26718749999998,105.60827229321002L225.49335937499998,105.49239348769187L225.71953125,105.45283530056476L225.945703125,105.68458411991595L226.171875,105.93125242888927L226.39804687499998,105.9568713992834L226.62421874999998,105.61568807959556L226.850390625,105.44062804579734L227.0765625,105.74536103904246L227.302734375,106.02127928435802L227.52890625,106.03655923306941L227.75507812499998,105.79127561450004L227.98125,106.22935209572314L228.207421875,106.27958338856696L228.43359375,105.79426918327808L228.659765625,106.30555402636527L228.8859375,106.36589575707912L229.112109375,106.00217495262622L229.564453125,106.09769221544265L229.790625,106.00845221579074L230.016796875,106.33769642710685L230.24296875000002,106.38127681016921L230.469140625,106.12518381476401L230.6953125,106.4031944811344L230.921484375,106.40505831837653L231.14765625,106.1132798731327L231.37382812500002,106.30265277028083L231.60000000000002,106.4218856036663L231.826171875,106.67478282153606L232.05234375,106.57396856844424L232.278515625,106.50176245868205L232.50468750000002,106.373298355937L232.95703125,106.24535735845565L233.18320312499998,106.5574709713459L233.40937499999998,106.82627234756946L233.635546875,106.54172506332397L233.86171875,106.22708384096622L234.087890625,106.77433986365794L234.31406249999998,106.6946740090847L234.54023437499998,106.89097475409507L234.76640625,106.54589232206344L234.992578125,106.8390290826559L235.21875,106.61695990860461L235.444921875,106.91818941533565L235.67109374999998,106.95500020086764L235.897265625,106.72715049386024L236.1234375,106.82719107866286L236.349609375,106.89430240690707L236.801953125,106.97316382229327L237.028125,106.72883849740028L237.254296875,107.24448841214179L237.706640625,107.16567095518111L237.9328125,107.07262855172156L238.158984375,106.83319579958915L238.38515625,106.80933077037334L238.611328125,107.13180538415908L238.8375,107.34928529858588L239.063671875,107.33923200666904L239.28984375000002,106.95494745075702L239.516015625,107.22502801716327L239.7421875,106.97601232826709L239.968359375,107.05105815231799L240.19453125,107.22197730243205L240.42070312500002,107.35117990672587L240.64687500000002,107.10252467691897L240.873046875,107.4238431841135L241.09921875,107.23019752800464L241.325390625,107.31356028616428L241.55156250000002,107.45516795814036L241.77773437500002,107.2897567987442L242.00390625,107.13765185475349L242.23007812499998,107.9176589488983L242.45624999999998,107.08162244558333L242.682421875,107.3009266346693L242.90859375,107.43403714299201L243.134765625,107.3422695338726L243.36093749999998,107.43540425002574L243.58710937499998,107.2697513192892L243.81328125,107.65458095967769L244.039453125,107.33812865018844L244.265625,107.55306337177753L244.491796875,107.5488741338253L244.71796874999998,107.56240014135837L244.944140625,107.55308535099029L245.1703125,107.6695839703083L245.396484375,107.29504499733447L245.62265625,107.37580102086066L245.848828125,107.6383075505495L246.075,107.4114776790142L246.301171875,107.85464015007018L246.52734375,107.53092590868472L246.753515625,107.66208905875682L246.9796875,107.72988613843917L247.20585937500002,107.58654210865497L247.43203125,107.47857581973075L247.884375,107.7102367222309L248.110546875,107.81624246537685L248.33671875000002,107.40748625397681L248.56289062500002,107.28482466340064L248.7890625,107.5106566786766L249.015234375,107.55008299052714L249.24140625,107.66227807998656L249.46757812500002,107.42934238314628L249.69375000000002,107.98914414048194L249.919921875,107.5744315624237L250.37226562499998,107.73908224105834L250.5984375,107.66036588847636L250.824609375,107.6111588269472L251.05078125,107.33253713846206L251.27695312499998,107.47143257558345L251.50312499999998,107.5679960489273L251.729296875,107.49315682947635L251.95546875,107.66129341125487L252.181640625,107.71038178503512L252.4078125,107.70195495486259L252.63398437499998,107.38793794214725L252.86015625,107.85375658571719L253.086328125,107.65935924053191L253.3125,107.63590302467345L253.538671875,107.79990751445293L253.76484375,107.53070172071456L253.991015625,107.57736798524856" style="fill: none;" fill="none"></path></g><g><path stroke="rgb(0, 119, 187)" stroke-width="2px" d="M36.1875,-8.800312912464136L38.44921875,4.275085592269903L40.7109375,-3.614238536357874L42.97265625,38.1815027832985L45.234375,22.902582699060446L47.49609375,16.414916926622396L49.7578125,22.37371888160706L52.01953125,22.917247229814535L54.28125,-4.255679881572718L56.54296875,21.843175852298742L58.8046875,32.634512150287634L61.06640625,45.35321440696714L63.328125,33.132807278633095L65.58984375,34.20837324261666L67.8515625,42.33770158290861L70.11328125,24.0522186100483L72.375,28.420314604043966L74.63671875,29.376955443620687L76.8984375,37.66421761512757L79.16015625,23.952107691764837L81.421875,17.20482345819474L83.68359375,6.772179120779043L85.9453125,32.46150937080381L88.20703125,28.023897522687918L90.46875,-1.8953058481216374L92.73046875,31.438253933191305L94.9921875,31.148198658227926L97.25390625,30.879665428400017L99.515625,51.51092823743819L101.77734375,37.25888576507569L104.0390625,39.88691385984421L106.30078125,49.315020257234565L108.5625,32.045785748958565L110.82421875,37.70555611848829L113.0859375,44.87965908050538L115.34765625,52.34838020205497L117.609375,34.36561253070832L119.87109375,25.66950183510781L122.1328125,35.605925881862646L124.39453125,17.598181033134466L126.65625,51.0343485713005L128.91796875,46.15700300931931L131.1796875,54.88239001631736L133.44140625,32.11254101395605L135.703125,42.55843442082403L136.15546875,44.76345937848092L136.6078125,32.091194802522665L137.06015625,47.763771378993994L137.51250000000002,58.61782755851746L137.96484375,46.19011249542237L138.4171875,56.875781530141836L138.86953125000002,43.8866997897625L139.321875,39.581912720203405L139.77421875000002,34.590117001533514L140.2265625,46.34954091310502L140.67890624999998,49.94050469398498L141.13125,28.86349465847016L141.58359374999998,40.04012655615807L142.0359375,32.27255847454069L142.48828125,47.61096310019494L142.94062499999998,48.7443168103695L143.39296875,36.252844446897484L143.8453125,41.28228616118432L144.29765625,50.48412975072861L144.75,32.64667984247208L145.20234375,39.557427877187706L145.6546875,45.69970350861547L146.10703125,38.662205749750115L146.55937500000002,44.78669580221177L147.01171875,38.44271253943441L147.4640625,54.48832910656928L147.91640625000002,49.81030862927436L148.36874999999998,44.16915904879568L148.82109375,23.55979632735253L149.2734375,39.83976405262948L149.72578124999998,40.252832585573174L150.178125,42.45863121151922L150.63046875,36.29601162075997L151.0828125,34.057182633876806L151.53515625,45.94965990781782L151.9875,41.85362260937691L152.43984375,52.05591600537299L152.8921875,51.29009869098664L153.34453125,49.575456345081335L153.796875,48.31890475153921L154.24921875,42.43616845607758L154.7015625,39.084276968240744L155.15390625,50.246200376749044L155.60625000000002,34.902002030611044L156.05859375,34.24914907813073L156.5109375,28.340327852964407L156.96328125000002,39.674735331535345L157.41562499999998,44.29265584945679L157.86796875,25.677598977088934L158.3203125,40.54740678668023L158.77265624999998,43.54474719762803L159.225,43.543147110939L159.67734375,23.686124050617224L160.1296875,48.25755637288091L160.58203125,17.570900434255606L161.034375,37.88619887232778L161.48671875,44.028254711627966L161.9390625,39.5772795021534L162.39140625000002,48.93757563233376L162.84375,34.31550871729851L163.29609375,32.78958868384359L163.74843750000002,18.53156786561013L164.20078125,45.54938327670098L164.65312500000002,40.3824396073818L165.10546875,33.27350940704346L165.55781249999998,51.109543853998176L166.01015625,39.361540341377236L166.46249999999998,13.088319116830831L166.91484375,38.89979224801061L167.3671875,35.25451343655587L167.81953124999998,30.489499235153176L168.271875,28.394678050279623L168.72421875,58.54820620417594L169.1765625,54.26588189005851L169.62890625,38.857170158624626L170.08125,38.287178838253L170.53359375,41.57096114158631L170.9859375,47.432878726720816L171.43828125000002,56.150643342733375L171.890625,32.246499919891335L172.34296875,25.105436110496527L172.79531250000002,32.85770666003228L173.24765625,25.837053769826895L173.70000000000002,37.88644503951073L174.15234375,53.86725809574128L174.60468749999998,38.40467091798783L175.05703125,28.39032616615296L175.50937499999998,40.17849009633065L175.96171875,34.77650072574613L176.4140625,27.344537639617926L176.86640624999998,44.064318203926064L177.31875,43.540535980463005L177.77109375,51.419732087850576L178.2234375,37.07586046457291L178.67578125,40.5079233288765L179.128125,36.927395278215414L179.58046875,42.832128369808174L180.0328125,47.2286478817463L180.48515625000002,36.19801070690153L180.9375,54.0801751255989L181.38984375,36.9289777815342L181.84218750000002,30.681782180070883L182.29453124999998,48.96429356336594L182.746875,47.060199195146566L183.19921875,30.78563835620878L183.65156249999998,34.56294190287588L184.10390625,39.2059538900852L184.55625,43.05641304850579L185.00859375,41.502992624044424L185.4609375,24.595887625217443L185.91328125,16.405122989416128L186.365625,27.35683720707894L186.81796875,49.151371830701834L187.2703125,34.31640546917916L187.72265625,32.58551608920098L188.175,42.5862776875496L188.62734375,50.072925055027L189.0796875,51.76893782019616L189.53203125000002,53.792695814371115L189.984375,44.05894648432732L190.43671875,51.28000583648681L190.88906250000002,29.92359604835508L191.34140624999998,44.90442525744439L191.79375,32.95390527844427L192.24609375,41.15708377361298L192.69843749999998,30.245837682485586L193.15078125,25.03921713829041L193.603125,11.673640275001532L194.05546875,39.228038603067404L194.5078125,43.970291131734825L194.96015625,59.163756036758414L195.4125,48.43205373883245L195.86484375,40.80603178739548L196.31718750000002,48.08550309538842L196.76953125,31.33942660093308L197.221875,34.12402581572533L197.67421875000002,41.27495389580727L198.1265625,38.57919465899468L198.57890625000002,31.80724095702172L199.03125,35.939693415164925L199.48359374999998,45.088822060823446L199.9359375,39.552803450822836L200.38828124999998,52.6956693470478L200.840625,49.4005633533001L201.29296875,38.5985451579094L201.74531249999998,21.982743853330618L202.19765625,42.21474986672402L202.65,39.13073223233221L203.10234375,36.82236980795861L203.5546875,54.336074703931814L204.00703125,44.97118052244187L204.459375,44.739414119720436L204.91171875,25.372852796316153L205.36406250000002,41.206457877159124L205.81640625,32.41181876659391L206.26875,41.03377159833906L206.72109375000002,35.289970302581764L207.1734375,49.22511648535729L207.62578125000002,37.65914481282235L208.078125,8.901367002725607L208.53046874999998,33.359615170955664L208.9828125,46.9494151711464L209.43515624999998,49.95529230833053L209.8875,25.90444203615189L210.33984375,35.60818534493444L210.79218749999998,40.334735924005514L211.24453125,46.61379259228707L211.696875,39.16847493648527L212.14921875,45.737191253900534L212.6015625,44.210356885194756L213.05390625,42.932863497734076L213.50625,39.80422806143761L213.95859375,49.303775691986075L214.41093750000002,27.63025861382485L214.86328125,44.90943651795388L215.315625,46.417272055149084L215.76796875000002,25.442148858308798L216.22031249999998,45.888135695457464L216.67265625,22.710739338397985L217.125,45.00313829779623L217.57734374999998,31.83548864126206L218.0296875,53.547952884435645L218.48203125,44.98487796783448L218.934375,22.7421520292759L219.38671875,35.07781814932824L219.8390625,38.88617392778397L220.29140625,32.688167804479605L220.74375,47.7177644908428L221.19609375,22.492626422643667L221.6484375,45.750273281335836L222.10078125,45.44137742519379L222.553125,36.79004278182984L223.00546875,40.46819370388985L223.45781250000002,49.28237673044205L223.91015625,46.0749062538147L224.3625,50.73086839318276L224.81484375000002,50.021256321668616L225.26718749999998,48.782815599441506L225.71953125,45.03603678345681L226.171875,43.016006463766104L226.62421874999998,32.95177769064904L227.0765625,43.51634126305581L227.52890625,34.076313340663916L227.98125,53.915243113040916L228.43359375,38.92220225334168L228.8859375,41.494746023416525L229.33828125,43.41264333724973L229.790625,32.199297362566L230.24296875000002,34.16111793518064L230.6953125,52.25195299983024L231.14765625,46.87825527191163L231.60000000000002,49.92024865150451L232.05234375,59.25029259324073L232.50468750000002,36.22801672816277L232.95703125,52.82846775054931L233.40937499999998,49.46789007782935L233.86171875,28.657101058959967L234.31406249999998,53.32889925837516L234.76640625,46.92408632636068L235.21875,40.071416163444525L235.67109374999998,26.310107970237738L236.1234375,42.73688804507253L236.57578125,35.297698193788506L237.028125,37.43529092669485L237.48046875,44.64787509441376L237.9328125,56.071096175909034L238.38515625,19.352790379524237L238.8375,50.868168139457694L239.28984375000002,30.48474293351174L239.7421875,41.91746782660482L240.19453125,55.3924220442772L240.64687500000002,38.12298532724381L241.09921875,38.58613129854203L241.55156250000002,50.46350445747376L242.00390625,46.85499247312546L242.45624999999998,42.25019794106484L242.90859375,31.74334298968313L243.36093749999998,47.929907852411276L243.81328125,32.197820359468466L244.265625,19.320296311378485L244.71796874999998,34.887425416708L245.1703125,40.23707788586617L245.62265625,52.00189110040664L246.075,47.57496994137762L246.52734375,47.32583996057511L246.9796875,25.664288365840918L247.43203125,36.49217169880865L247.884375,48.12059071063993L248.33671875000002,47.2755251467228L248.7890625,47.154929602146154L249.015234375,46.50027435421944L249.24140625,49.180815184116355L249.46757812500002,51.08150717020034L249.69375000000002,39.08926185369492L249.919921875,25.45285713076592L250.14609374999998,39.82669960856438L250.37226562499998,47.93114748001099L250.5984375,46.73152204751966L250.824609375,43.56024693846703L251.05078125,46.78487878441808L251.27695312499998,61.55675601363181L251.50312499999998,50.3998086988926L251.729296875,53.668478095531455L251.95546875,53.37207522392272L252.181640625,34.57219954729078L252.4078125,41.96365934014321L252.63398437499998,47.66263183355332L252.86015625,53.96215554475785L253.086328125,43.58104806542394L253.3125,36.888105237483984L253.538671875,47.57829319834707L253.76484375,48.37821345925332L253.991015625,44.67307206392289" style="fill: none;" fill="none"></path></g><g><path stroke="rgb(51, 187, 238)" stroke-width="2px" d="M27.140625,-49.86084077358245L29.40234375,9.114011490345007L31.6640625,14.368555510044104L33.92578125,-22.513741588592524L36.1875,6.613990330696112L38.44921875,30.932951831817633L40.7109375,25.110183620452887L42.97265625,41.46556642055512L45.234375,30.780020469427086L47.49609375,27.25989129543305L49.7578125,49.13201254010201L52.01953125,14.333467894792562L54.28125,23.256632649898535L56.54296875,9.61603429317475L58.8046875,54.74756952524184L61.06640625,53.912939691543585L63.328125,44.89994149804116L65.58984375,14.58656292557717L67.8515625,44.575836026668526L70.11328125,40.85543226599694L72.375,36.23199056982995L74.63671875,46.995457226037956L76.8984375,55.07893692851066L79.16015625,51.946881526708594L81.421875,41.75021480917931L83.68359375,28.110662662982946L85.9453125,51.71747129559516L88.20703125,32.904012465476995L90.46875,38.255344146490074L92.73046875,47.33101826310158L94.9921875,55.12000288963317L97.25390625,52.38220181465148L99.515625,49.41041004061698L101.77734375,51.01084839701652L104.0390625,59.1939027249813L106.30078125,62.66621392369271L108.5625,52.07457196116448L110.82421875,49.764451199769965L113.0859375,48.069379144907L115.34765625,60.697333627939216L117.609375,63.8467086493969L119.87109375,57.03983437418938L122.1328125,51.50387730598449L124.39453125,60.531241112947455L126.65625,65.99331285953521L128.91796875,64.15625509023666L131.1796875,66.75341557860374L133.44140625,49.53922581076621L135.703125,49.6156431376934L136.15546875,67.66436603069306L136.6078125,69.28324934244155L137.06015625,49.71026804447173L137.51250000000002,68.59393727183341L137.96484375,66.76026430130004L138.4171875,65.99858787059783L138.86953125000002,64.71063237786292L139.321875,56.231377387046805L139.77421875000002,58.20817899107932L140.2265625,53.542976790666586L140.67890624999998,34.1736548781395L141.13125,53.439419531822196L141.58359374999998,66.53852041959763L142.0359375,60.530880653858176L142.48828125,56.8656535089016L142.94062499999998,63.56583189368247L143.39296875,54.85117074251174L143.8453125,62.906754428148275L144.29765625,72.27011006474496L144.75,61.35743092894555L145.20234375,64.15697600841521L145.6546875,52.81800564527512L146.10703125,59.05276101231574L146.55937500000002,59.20852329730988L147.01171875,60.46266596913337L147.4640625,64.93193667531014L147.91640625000002,65.02707149982453L148.36874999999998,60.4604944229126L148.82109375,66.74408760070801L149.2734375,61.02014672160149L149.72578124999998,65.4838874578476L150.178125,61.357589179277426L150.63046875,44.062269741296774L151.0828125,55.7229981958866L151.53515625,64.3269544482231L151.9875,69.20017670989036L152.43984375,62.308823132514945L152.8921875,50.43359514474869L153.34453125,64.2981440961361L153.796875,65.95302935838698L154.24921875,64.52160235643386L154.7015625,60.70581760406493L155.15390625,50.83366077542304L155.60625000000002,62.83155035376548L156.05859375,52.98954021334647L156.5109375,54.7279640674591L156.96328125000002,52.78908100128173L157.41562499999998,67.1114129960537L157.86796875,49.46430307030677L158.3203125,55.14346789717675L158.77265624999998,50.98398100733756L159.225,63.372124695777885L159.67734375,55.376271718740455L160.1296875,58.6855059504509L160.58203125,56.143715494871145L161.034375,68.73827036619186L161.48671875,62.98678513765334L161.9390625,69.90793373584748L162.39140625000002,34.248296284675604L162.84375,60.761381053924566L163.29609375,62.12919142246247L163.74843750000002,64.8288717508316L164.20078125,68.51475056409836L164.65312500000002,51.484438890218726L165.10546875,61.045027190446845L165.55781249999998,49.91166796684264L166.01015625,63.32127358913421L166.46249999999998,44.02078177928925L166.91484375,55.470219665765754L167.3671875,59.197876566648475L167.81953124999998,54.33065902590751L168.271875,46.88709970712662L168.72421875,65.85143264532088L169.1765625,67.35171612501145L169.62890625,56.42805617451667L170.08125,62.74211254119872L170.53359375,59.09869756698609L170.9859375,68.53995632529258L171.43828125000002,49.71367042660712L171.890625,52.12151955962182L172.34296875,47.56397154331205L172.79531250000002,62.552985811233526L173.24765625,66.49720829129218L173.70000000000002,48.613927328586584L174.15234375,60.172944778203956L174.60468749999998,41.7363063633442L175.05703125,58.03474541902541L175.50937499999998,56.28874313235282L175.96171875,57.44914006590842L176.4140625,35.32209511995313L176.86640624999998,59.38271295428275L177.31875,56.77607502937316L177.77109375,58.24588652849198L178.2234375,63.662215137481695L178.67578125,53.355045729875556L179.128125,66.52294155359267L179.58046875,48.8169976711273L180.0328125,46.07717450857163L180.48515625000002,64.64903783202172L180.9375,59.22972884178162L181.38984375,58.981987947225576L181.84218750000002,56.33561160564422L182.29453124999998,45.706833565235144L182.746875,63.25353365540505L183.19921875,49.94225423932076L183.65156249999998,50.78537684082984L184.10390625,66.26360442638396L184.55625,67.92700883150101L185.00859375,51.426897311210624L185.4609375,41.654833817482L185.91328125,48.46164655089376L186.365625,67.48289685845374L186.81796875,57.3321754872799L187.2703125,66.71685096025466L187.72265625,55.76691266298293L188.175,55.15389483571052L188.62734375,55.74697312116622L189.0796875,67.91528951525687L189.53203125000002,64.62461453080178L189.984375,63.46964206695556L190.43671875,61.60503994822503L190.88906250000002,56.3542851448059L191.34140624999998,57.97955121994019L191.79375,63.65861933827399L192.24609375,57.0155605316162L192.69843749999998,63.40055700540542L193.15078125,58.10489427447318L193.603125,37.8908672571182L194.05546875,52.60938774943351L194.5078125,71.02421399354934L194.96015625,70.74274819493293L195.4125,61.25854205489158L195.86484375,60.65959971547127L196.31718750000002,64.33119204044343L196.76953125,58.79788126945495L197.221875,48.11578165888787L197.67421875000002,65.3318176805973L198.1265625,63.39551057815552L198.57890625000002,56.71918403506278L199.03125,57.44957965016364L199.48359374999998,63.2504213988781L199.9359375,67.82493736743928L200.38828124999998,61.63558226227761L200.840625,69.49031990170478L201.29296875,52.64238294363021L201.74531249999998,50.108584129810325L202.19765625,69.3426635503769L202.65,61.99544351696969L203.10234375,68.10389753580093L203.5546875,53.75599932074546L204.00703125,58.42542153000832L204.459375,57.76146467924117L204.91171875,38.3299767613411L205.36406250000002,45.549128317832924L205.81640625,58.51514946818352L206.26875,48.828681820631004L206.72109375000002,52.79258888363837L207.1734375,53.921599501371375L207.62578125000002,61.73044454455375L208.078125,34.6018187344074L208.53046874999998,50.3123314321041L208.9828125,54.745230937004095L209.43515624999998,61.70533549189567L209.8875,61.12700086235999L210.33984375,63.85882359147071L210.79218749999998,60.26424642801284L211.24453125,46.223274731636025L211.696875,50.429041051864615L212.14921875,42.11340811252592L212.6015625,67.53007304072379L213.05390625,53.30618154406548L213.50625,46.18802886605263L213.95859375,55.029738658666616L214.41093750000002,50.10684337615966L214.86328125,58.377032095193854L215.315625,54.22624897360802L215.76796875000002,28.937925064563757L216.22031249999998,52.793494427204124L216.67265625,53.49969532489777L217.125,54.97370924949645L217.57734374999998,52.042403185367576L218.0296875,67.61349734067916L218.48203125,63.86800211071967L218.934375,53.364901208877555L219.38671875,41.414231771230675L219.8390625,58.75809889435767L220.29140625,47.05940794348717L220.74375,45.69039311408994L221.19609375,62.62593921422959L221.6484375,59.00236707329749L222.10078125,57.675587499141685L222.553125,60.474666619300834L223.00546875,54.89490058422088L223.45781250000002,56.68250512480736L223.91015625,58.609888666868216L224.3625,56.64567675590514L224.81484375000002,53.31059496998786L225.26718749999998,55.088387989997855L225.71953125,52.127198988199225L226.171875,64.3044037759304L226.62421874999998,47.05700781345368L227.0765625,49.771168047189704L227.52890625,54.73021473884582L227.98125,65.91396790146827L228.43359375,60.5516202390194L228.8859375,66.47836771011352L229.33828125,62.18142282366752L229.790625,55.57303842306138L230.24296875000002,57.33507674336434L230.6953125,71.56378608345986L231.14765625,59.26556375026702L231.60000000000002,60.743235015869146L232.05234375,63.57628520727158L232.50468750000002,64.23304166793822L232.95703125,58.331121915578834L233.40937499999998,69.35376744866372L233.86171875,53.02882146239281L234.31406249999998,60.7858131468296L234.76640625,43.28752007484434L235.21875,69.6993597984314L235.67109374999998,60.08044745922088L236.1234375,45.46922069191933L236.57578125,63.390455359220496L237.028125,53.96154012680053L237.48046875,56.70518767237664L237.9328125,54.35112606883048L238.38515625,47.17728685736654L238.8375,57.71470170617103L239.28984375000002,64.32356085777282L239.7421875,33.30183621644974L240.19453125,59.720638954639426L240.64687500000002,63.578263336420065L241.09921875,62.78332796096801L241.55156250000002,63.50690122842788L242.00390625,61.12470623254775L242.45624999999998,55.64615886807441L242.90859375,53.77449702620507L243.36093749999998,54.88743644356727L243.81328125,55.97793948054313L244.265625,57.03615944981574L244.71796874999998,71.94010537266732L245.1703125,62.54597883820533L245.62265625,72.03388627767562L246.075,74.45307668447494L246.52734375,38.981194460392004L246.9796875,59.80252470970153L247.43203125,64.05992459654809L247.884375,70.04918974041938L248.33671875000002,56.832253897190085L248.7890625,44.93514340519903L249.015234375,65.59443410634994L249.24140625,67.36849945187568L249.46757812500002,56.984728091955176L249.69375000000002,68.16413816213607L249.919921875,68.82217820882798L250.14609374999998,63.351525777578345L250.37226562499998,62.3145641028881L250.5984375,65.34716796278953L250.824609375,58.31246595978736L251.05078125,66.09120827317237L251.27695312499998,64.43483721613883L251.50312499999998,56.89034056067467L251.729296875,62.19553347826003L251.95546875,63.707668149471274L252.181640625,38.13257705569268L252.4078125,50.57270597815513L252.63398437499998,63.30693435072898L252.86015625,61.83733385205268L253.086328125,59.217200690507894L253.3125,57.50450130701064L253.538671875,63.32653101682662L253.76484375,63.81694000363349L253.991015625,56.08168136477471" style="fill: none;" fill="none"></path></g><g><path stroke="rgb(0, 153, 136)" stroke-width="2px" d="M26.2359375,-14.516736900806421L26.68828125,8.964790219068533L27.140625,-45.60531351566314L28.49765625,-10.139620637893671L28.950000000000003,10.978754276037222L29.40234375,8.762317711114889L29.8546875,15.564110392332083L30.307031249999998,-30.519309377670282L30.759375,4.42014839649201L31.211718750000003,18.985139691829687L31.6640625,10.798700565099722L32.11640625,-82.7983615159988L33.02109375,-8.233214056491846L33.4734375,9.545164519548422L33.92578125,-21.077901160717005L34.378125000000004,27.369708234071737L34.83046875,-1.6382721424102726L35.2828125,10.888630712032324L35.735156249999996,14.223976248502737L36.1875,-1.158738470077509L36.639843750000004,15.123497509956366L37.092187499999994,7.737347894907003L37.54453125,34.39906489253045L37.996875,-26.72260258197784L38.44921875,25.248635077476507L38.901562500000004,-2.6211473703384343L39.353906249999994,38.08972638249398L39.80625,26.748470181226736L40.25859375,-10.588207578659052L40.7109375,20.002750867605215L41.163281250000004,28.73355355262757L41.615624999999994,23.248852008581167L42.06796875,13.258710765838629L42.5203125,25.512236171960836L42.97265625,38.3647830426693L43.425000000000004,8.959541583061224L43.877343749999994,8.342470788955694L44.3296875,31.876071059703833L44.78203125,37.03238558173177L45.234375,27.33353924155236L45.68671875,7.724986785650259L46.1390625,6.775924378633505L46.59140625,14.848388099670416L47.04375,37.39838343262673L47.49609375,25.37004824876786L47.9484375,37.4072278678417L48.40078125,16.446901077032095L48.853125,12.321561092138296L49.30546875,29.95870124697683L49.7578125,45.34446668028832L50.21015625,39.42442726492882L50.6625,27.824370229244238L51.11484375,16.206237488985067L51.5671875,39.675957375764824L52.01953125,10.144159609079367L52.471875,34.9489847958088L52.92421875,48.38960748314858L53.3765625,32.44400512576104L53.82890625,34.80041410923005L54.28125,22.716735267639166L54.73359375,4.001453185081488L55.1859375,-3.0540147781372013L55.63828125,33.16487934589384L56.090625,27.772595995664602L56.54296875,3.145688140392309L56.9953125,11.816927158832556L57.44765625,29.107912296056753L57.900000000000006,45.936700963974005L58.352343749999996,28.451155835390097L58.8046875,49.3164972603321L59.25703125,42.69346591234208L59.709375,43.603484445810324L60.161718750000006,41.182553285360314L60.614062499999996,45.720372760295874L61.06640625,50.84211837649346L61.51875,27.03434940576554L61.97109375,44.95539065599442L62.423437500000006,31.131960415840155L62.875781249999996,30.34899052381516L63.328125,39.40600868463514L63.78046875,38.9666969716549L64.2328125,18.234760576486593L64.68515625,39.419196212291695L65.1375,25.617727601528173L65.58984375,9.84179597496987L66.0421875,38.889031225442864L66.49453125,39.69150986671448L66.946875,18.683707976341253L67.39921875,-5.204390621185297L67.8515625,41.3369704425335L68.30390625,36.759614759683586L68.75625000000001,25.505308324098593L69.20859375,38.945104593038536L69.6609375,26.359306240081793L70.11328125,37.10154976844788L70.565625,48.99218958020211L71.01796875,17.373562270402914L71.47031249999999,38.08297436833382L71.92265625,52.94266294836997L72.375,35.15564214587209L72.82734375,37.443238610029226L73.27968750000001,41.67071160078049L73.73203125,42.405590975284554L74.18437499999999,25.981395655870443L74.63671875,42.27571141123772L75.0890625,31.943090075254446L75.54140625,47.77822490930558L75.99375,34.91656106114388L76.44609375,38.23531668782235L76.8984375,49.20115914344787L77.35078125,33.511465156078344L77.80312500000001,49.56217210888862L78.25546875,36.22717272639275L78.70781249999999,53.99318140149116L79.16015625,45.469062441587454L79.6125,24.82274826765061L80.06484375,33.719687426090246L80.5171875,47.13765394091607L80.96953125,46.178595387935616L81.421875,35.56347083449364L81.87421875000001,38.071633094549185L82.32656250000001,35.048682504892355L82.77890624999999,36.93328570723534L83.23124999999999,42.04992335438726L83.68359375,27.5834868490696L84.1359375,37.368535661697365L84.58828125,42.168048435449606L85.040625,45.61033602952958L85.49296875,36.606920772790914L85.9453125,46.91752772927285L86.39765625000001,46.2515399992466L86.85000000000001,43.563148194551474L87.30234374999999,24.462491387128836L87.75468749999999,51.271469110250464L88.20703125,29.10446595549584L88.659375,28.021339142322546L89.11171875,41.82531338334081L89.5640625,22.4094043314457L90.01640625,52.333557420969L90.46875,32.75284823179243L90.92109375000001,34.982155823707586L91.3734375,14.30453445911408L91.82578124999999,44.360114449262596L92.278125,36.32176246643064L92.73046875,41.940308624505974L93.1828125,37.98889454603196L93.63515625,15.92091214060784L94.0875,32.50039499402047L94.53984375,30.18399696946142L94.9921875,49.88011460900307L95.44453125000001,41.504926794767385L95.896875,43.98134227991102L96.34921874999999,51.64255734682082L96.8015625,43.647381329536415L97.25390625,48.96606069207192L97.70625,40.44704090952874L98.15859375000001,51.320087128877645L98.6109375,57.875950002670294L99.06328125,42.66279172301293L99.515625,44.582438582181936L99.96796875,51.2793816268444L100.4203125,49.60186656713485L100.87265624999999,39.39805220961571L101.325,41.109494382143L101.77734375,48.873325997591024L102.2296875,54.66546397805213L102.68203125000001,44.09580122828484L103.134375,55.501377397775656L103.58671875,55.73078762888909L104.0390625,52.196864300966254L104.49140625,49.942043238878256L104.94375,56.30171965956687L105.39609374999999,39.1039000093937L105.8484375,51.15941029191018L106.30078125,59.996653908491126L106.753125,48.13511457443238L107.20546875000001,55.98375957608222L107.6578125,56.39238830804824L108.11015624999999,44.27523952126501L108.5625,46.66929450035096L109.01484375,42.63893108963964L109.4671875,43.33357092142103L109.91953125,46.131823623180395L110.371875,43.668103331327444L110.82421875,45.764955395460106L111.2765625,54.39235907196999L111.72890625000001,52.779172772169105L112.18125,50.95753561854363L112.63359374999999,53.945521676540366L113.0859375,42.76394006013871L113.53828125,51.74553435444831L113.990625,60.43764483332633L114.44296875,58.92536070346833L114.8953125,43.502960318326956L115.34765625,55.69763418436051L115.80000000000001,54.207522684335714L116.25234375000001,51.77153136730193L116.70468749999999,53.901765459775916L117.15703124999999,52.90816437602042L117.609375,58.00131064057351L118.06171875,57.17718687057494L118.5140625,48.47784083485601L118.96640625,62.067649626731864L119.41875,51.02385129928588L119.87109375,53.08507066369056L120.32343750000001,58.298575097322455L120.77578125000001,53.48357137441634L121.22812499999999,48.765091562271095L121.68046874999999,61.31533634066582L122.1328125,45.29052969217301L122.58515625,46.45959522724149L123.0375,59.37100242972373L123.48984375,38.18293582797051L123.9421875,51.12583484649659L124.39453125,52.853990012407294L124.84687500000001,64.08776786327361L125.29921875,54.20055966973305L125.75156249999999,37.25504379868505L126.20390625,58.663139903545385L126.65625,59.43381901979447L127.10859375,63.22358917593955L127.5609375,53.241008782386785L128.01328125,58.73041387796401L128.465625,59.72041037082673L128.91796875,58.592164629697805L129.3703125,48.2586817085743L129.82265625,53.97275831699372L130.275,60.89048694968224L130.72734375000002,51.83653708696366L131.1796875,61.40094977021218L131.63203124999998,56.3365874826908L132.084375,61.38334002494811L132.53671875,57.947795653343206L132.9890625,53.96649863719939L133.44140625,40.46235602498052L133.89375,62.13115196824073L134.34609375,52.78133552670478L134.7984375,59.97926395535468L135.25078125000002,59.537965321540824L135.703125,44.5248794198036L135.929296875,54.5257816851139L136.15546875,60.03832649588584L136.381640625,57.3343909919262L136.6078125,62.934131735563284L136.833984375,71.30773704648018L137.06015625,42.945330107212044L137.286328125,50.47394897937775L137.51250000000002,61.746348702907554L137.738671875,53.615719193220144L137.96484375,57.16929193735122L138.191015625,63.55838533639907L138.4171875,61.67390521764756L138.64335937500002,49.66846358180045L138.86953125000002,58.00873082280158L139.095703125,46.547353827953344L139.321875,49.247306698560706L139.548046875,39.05086856484411L139.77421875000002,52.6846094071865L140.00039062500002,62.25467514395713L140.2265625,47.32425745725632L140.45273437499998,57.123276257514945L140.67890624999998,26.087001377344137L140.905078125,64.65660747289658L141.13125,47.43314247727395L141.357421875,48.24575793147088L141.58359374999998,60.88429760336875L141.80976562499998,52.470426374673835L142.0359375,54.146569931507116L142.262109375,58.678736352920524L142.48828125,50.45092355608941L142.714453125,38.396837526559835L142.94062499999998,58.03849946856499L143.166796875,51.155067199468604L143.39296875,48.52537747621537L143.619140625,44.482529872655874L143.8453125,55.89321401119231L144.071484375,61.140302681922904L144.29765625,65.05645331144333L144.523828125,50.58017891049384L144.75,55.53379234075547L144.976171875,60.07160302400588L145.20234375,57.58525293469428L145.42851562500002,60.54358463883399L145.6546875,45.551546031236654L145.880859375,57.91198711991309L146.10703125,55.32740753293038L146.333203125,61.33405383825301L146.55937500000002,52.40891974568366L146.78554687500002,53.03839560747147L147.01171875,53.73617407083512L147.237890625,51.47718575000762L147.4640625,58.7863202035427L147.69023437500002,61.93219613432885L147.91640625000002,60.46419572234153L148.142578125,64.5458058655262L148.36874999999998,55.62445219755172L148.59492187499998,55.89180734157563L148.82109375,60.9115342438221L149.047265625,56.95772003531455L149.2734375,53.71124964356423L149.49960937499998,61.40876557826995L149.72578124999998,60.67433457970618L149.951953125,36.63600366711617L150.178125,51.4576242506504L150.404296875,63.17220177650451L150.63046875,39.42741643786431L150.85664062499998,46.39916118383408L151.0828125,50.10261457562447L151.308984375,58.62874683141709L151.53515625,59.414195978641516L151.761328125,59.14834421277045L151.9875,63.73374428749085L152.213671875,54.82932340502738L152.43984375,59.03809648156165L152.666015625,58.2075284063816L152.8921875,44.70467817187307L153.118359375,51.538340711593634L153.34453125,57.17726599574088L153.570703125,53.14701687693595L153.796875,58.94017469286918L154.023046875,50.486943089962L154.24921875,58.0250569820404L154.47539062500002,47.46923234462736L154.7015625,55.15561800599097L154.927734375,59.10234611630439L155.15390625,42.68602814674378L155.380078125,64.62970491647721L155.60625000000002,56.35492693781853L155.83242187500002,58.653469049930564L156.05859375,46.05407875180242L156.284765625,49.92373895049096L156.5109375,51.29840683341027L156.73710937500002,60.10660272240638L156.96328125000002,45.826215857267385L157.189453125,63.43568857908248L157.41562499999998,61.185096317529684L157.64179687499998,50.85009243488311L157.86796875,43.6545377612114L158.094140625,52.51839380860328L158.3203125,45.632702076435095L158.54648437499998,55.352393501996985L158.77265624999998,44.47481956481931L158.998828125,59.28925734162331L159.225,56.62382062673569L159.451171875,65.31703006625175L159.67734375,48.43806725144384L159.90351562499998,33.3886541068554L160.1296875,51.15815308094024L160.355859375,53.14809825420379L160.58203125,52.38918241262435L160.808203125,60.72266247272492L161.034375,62.19823252558707L161.260546875,31.964515411853796L161.48671875,59.43267610073089L161.712890625,51.275214368104926L161.9390625,64.97887548208236L162.165234375,63.946344816684714L162.39140625000002,31.014019960165L162.617578125,53.113801890611654L162.84375,56.055851393938056L163.069921875,49.1338236272335L163.29609375,54.95344441533088L163.52226562500002,40.090784245729424L163.74843750000002,57.73340162038802L163.974609375,56.77821140885352L164.20078125,61.98318790793418L164.426953125,42.40069400668145L164.65312500000002,43.58704399466515L164.87929687500002,66.49889629483222L165.10546875,54.97773584127425L165.33164062499998,64.78447374105454L165.55781249999998,43.39896347522736L165.783984375,55.00228222608567L166.01015625,54.899964594840995L166.236328125,54.880570137500754L166.46249999999998,36.06554638743401L166.68867187499998,57.318935209512716L166.91484375,49.74514465928077L167.141015625,58.29080324769021L167.3671875,52.408444994688026L167.593359375,57.84181188941001L167.81953124999998,49.69965648055077L168.045703125,34.6116214632988L168.271875,41.346131378412224L168.498046875,47.901879960298544L168.72421875,58.95992081761359L168.950390625,51.87944051027297L169.1765625,61.64848845601081L169.402734375,59.45820715427398L169.62890625,52.454249674081794L169.855078125,48.14111929535866L170.08125,53.66746705174447L170.307421875,48.13345294594765L170.53359375,51.45723741650582L170.759765625,41.873843485116936L170.9859375,61.7084213733673L171.212109375,37.45791193246842L171.43828125000002,42.89416249990461L171.664453125,57.58740689754487L171.890625,44.11418464183808L172.116796875,52.1585325539112L172.34296875,42.632223033905035L172.56914062500002,61.332831794023505L172.79531250000002,55.936996603012076L173.021484375,53.61176293492318L173.24765625,58.88451453447341L173.473828125,51.15714203715325L173.70000000000002,42.66597431302071L173.92617187500002,55.24763178229331L174.15234375,56.65001105666161L174.37851562499998,61.631054544448844L174.60468749999998,36.60794060826302L174.830859375,60.80873306989669L175.05703125,52.85981889963149L175.283203125,52.51967739462853L175.50937499999998,49.22655832171439L175.73554687499998,60.19337665438651L175.96171875,51.490874403715125L176.187890625,45.08967485427854L176.4140625,29.955782407522207L176.640234375,50.79950507879256L176.86640624999998,53.04985117316245L177.092578125,48.68821706771851L177.31875,53.1483004629612L177.544921875,52.31739830374717L177.77109375,53.12848400473594L177.997265625,47.62932013869286L178.2234375,59.18392416238784L178.449609375,53.953399026393896L178.67578125,48.84521018862725L178.901953125,42.91730221509934L179.128125,58.686455452442175L179.35429687500002,43.42234935760496L179.58046875,41.469258928298956L179.806640625,55.20995061993598L180.0328125,39.74382918477059L180.258984375,52.5323198378086L180.48515625000002,58.451058083772665L180.71132812500002,58.62063210606574L180.9375,56.00285511612891L181.163671875,50.774061942100516L181.38984375,53.50150641202926L181.61601562500002,48.68878852725027L181.84218750000002,50.90689551234246L182.068359375,46.54965724945069L182.29453124999998,36.55775766968728L182.52070312499998,63.42068117260932L182.746875,57.59746458530425L182.973046875,50.062788242101675L183.19921875,41.69838782548905L183.42539062499998,49.04271539449691L183.65156249999998,44.126563334465004L183.877734375,52.936895602941505L184.10390625,60.570583903789526L184.330078125,50.45713048577308L184.55625,63.461922967433935L184.78242187499998,45.04918035268784L185.00859375,49.586551451683036L185.234765625,53.75537511110306L185.4609375,35.623043292760855L185.687109375,56.48674067258834L185.91328125,43.641693109273916L186.139453125,49.56174131631852L186.365625,61.196393632888785L186.591796875,53.71875774264335L186.81796875,49.23421587944031L187.044140625,53.61622031927109L187.2703125,59.560208284854895L187.496484375,42.008250766992546L187.72265625,49.328919911384574L187.948828125,53.19910761117934L188.175,47.878177577257134L188.40117187500002,47.78082724809644L188.62734375,47.572490686178185L188.853515625,53.76744609475135L189.0796875,59.69876524209975L189.305859375,48.525852227211004L189.53203125000002,57.11994420886039L189.75820312500002,52.5327154636383L189.984375,55.53220983743668L190.210546875,54.526098185777656L190.43671875,54.59892850518227L190.66289062500002,36.81676071286202L190.88906250000002,51.08083900213242L191.115234375,44.185230249166494L191.34140624999998,49.277699553966514L191.56757812499998,47.65062239170075L191.79375,56.806503051519385L192.019921875,46.454856508970266L192.24609375,49.94446095228194L192.47226562499998,42.4321858227253L192.69843749999998,55.122657978534704L192.924609375,44.079510235786415L193.15078125,52.457528972625724L193.376953125,54.094830864667884L193.603125,34.22617640495301L193.82929687499998,46.632167214155174L194.05546875,46.67824443578718L194.281640625,51.05328586101531L194.5078125,63.90492718815803L194.733984375,42.156601661443716L194.96015625,63.2572525382042L195.186328125,44.03687056303025L195.4125,54.50018908977508L195.638671875,38.475918734073616L195.86484375,52.319411599636084L196.091015625,57.081814670562736L196.31718750000002,56.682083123922354L196.543359375,51.27408024072646L196.76953125,50.15502181053162L196.995703125,56.10057469606399L197.221875,44.43645265102387L197.44804687500002,38.718235158920294L197.67421875000002,56.272003763914114L197.900390625,48.17764874696732L198.1265625,56.05359193086625L198.352734375,52.696021014451986L198.57890625000002,50.83280798196793L198.80507812500002,30.14744993448258L199.03125,49.63574092984199L199.25742187499998,57.98106338977813L199.48359374999998,58.71479984521865L199.709765625,47.0731493473053L199.9359375,60.64895298480987L200.162109375,61.88897621035575L200.38828124999998,55.06425481438636L200.61445312499998,54.70094721913338L200.840625,64.81296759247779L201.066796875,59.57788836359977L201.29296875,47.246002668142324L201.519140625,45.21076273322103L201.74531249999998,43.67568176388738L201.971484375,51.291769111156455L202.19765625,61.84287261366843L202.423828125,54.1747296988964L202.65,55.57746943235398L202.876171875,50.71337293982505L203.10234375,59.571224266290656L203.328515625,51.46496530771256L203.5546875,46.99860464930535L203.780859375,46.17930751442907L204.00703125,51.81900646686553L204.233203125,57.06744905710221L204.459375,48.22900977134705L204.685546875,51.4204090476036L204.91171875,34.690948837995535L205.137890625,58.659825438261024L205.36406250000002,40.41381713151932L205.590234375,41.52394320964814L205.81640625,51.86372097730636L206.042578125,48.31937071084977L206.26875,42.65756067037583L206.49492187500002,49.26707919836045L206.72109375000002,46.82798441648484L206.947265625,26.63708832263947L207.1734375,50.642872416973105L207.399609375,40.5533851325512L207.62578125000002,54.1367144525051L207.85195312500002,52.20737036466599L208.078125,30.84891211390493L208.30429687499998,41.09652664661408L208.53046874999998,44.85891949534414L208.756640625,55.28481181859971L208.9828125,48.48137509226797L209.208984375,49.18257352113724L209.43515624999998,56.56258653998374L209.66132812499998,47.34328266382218L209.8875,56.97266589999198L210.113671875,51.577780210971824L210.33984375,58.66361465454102L210.566015625,58.174348586797706L210.79218749999998,53.80556684136391L211.018359375,37.89150905013085L211.24453125,39.45168148875237L211.470703125,49.38241731524468L211.696875,44.58198141455648L211.923046875,60.0145098209381L212.14921875,35.67169647812841L212.375390625,42.96116393208504L212.6015625,63.54225259423255L212.827734375,47.77204435467718L213.05390625,48.26989110708237L213.28007812500002,52.19470154643058L213.50625,41.25235926508904L213.732421875,48.52314438819886L213.95859375,47.46773775815964L214.184765625,55.77334817647933L214.41093750000002,41.617319697141625L214.63710937500002,64.18743919730186L214.86328125,52.83329438567161L215.089453125,42.644390726089455L215.315625,45.974645876884466L215.54179687500002,50.603793376684195L215.76796875000002,24.640426301956182L215.994140625,45.26001375317574L216.22031249999998,46.477064305543905L216.44648437499998,53.619130367040626L216.67265625,47.65908878445626L216.898828125,50.722656959295264L217.125,49.02340006232262L217.35117187499998,47.84361746311188L217.57734374999998,45.040318334102636L217.803515625,36.880825722217565L218.0296875,61.63458001017571L218.255859375,55.625261032581335L218.48203125,59.831484520435325L218.70820312499998,44.789808058738714L218.934375,46.67406838536263L219.160546875,60.46234067678452L219.38671875,36.98822494745255L219.612890625,45.25720041394234L219.8390625,55.038372093439094L220.065234375,47.89523344635964L220.29140625,40.96299853324891L220.517578125,46.080867016315466L220.74375,38.69689773917199L220.969921875,57.75419395565986L221.19609375,55.96740704178809L221.422265625,52.49955322742463L221.6484375,50.74794184565543L221.874609375,42.58124884366987L222.10078125,52.899777108430854L222.32695312500002,53.15619539618491L222.553125,54.44626968502999L222.779296875,48.73784613013265L223.00546875,47.55024772286416L223.231640625,44.86882772445679L223.45781250000002,49.443844819068914L223.68398437500002,35.9998021662235L223.91015625,52.76556324362754L224.136328125,57.949070447683326L224.3625,51.09387707114219L224.58867187500002,52.10822653174401L224.81484375000002,48.37583970427514L225.041015625,50.211367720365516L225.26718749999998,48.4602574646473L225.49335937499998,52.35227491855622L225.71953125,45.355781579017645L225.945703125,57.04241912961007L226.171875,60.61390053629874L226.39804687499998,50.43456223011016L226.62421874999998,43.029686325788504L226.850390625,43.70174911022187L227.0765625,42.9979483425617L227.302734375,54.08787664175033L227.52890625,48.849790656566626L227.75507812499998,40.3821846485138L227.98125,58.90878837704658L228.207421875,40.42706620097158L228.43359375,55.153024458885184L228.659765625,60.277759248018256L228.8859375,58.13118141293526L229.112109375,59.66508429646491L229.33828125,53.055310809612266L229.564453125,53.7476296365261L229.790625,48.86553656458855L230.016796875,57.924102061986915L230.24296875000002,52.93726485371589L230.469140625,44.03554301857946L230.6953125,65.40920209288596L230.921484375,52.50117089748382L231.14765625,53.64372950196267L231.37382812500002,60.098487997055045L231.60000000000002,52.784201616048804L231.826171875,38.463926875591284L232.05234375,55.709177666902534L232.278515625,55.290790164470664L232.50468750000002,56.47487189769744L232.73085937500002,45.6250708937645L232.95703125,51.15765195488929L233.18320312499998,43.260476851463324L233.40937499999998,62.33787965178489L233.635546875,45.37187036275864L233.86171875,47.529200428724295L234.087890625,46.86295773983002L234.31406249999998,54.11640565991401L234.54023437499998,55.249829703569404L234.76640625,38.77951320409775L234.992578125,54.333542698621756L235.21875,63.10193862915038L235.444921875,51.06786247491837L235.67109374999998,53.22187807559966L235.897265625,46.36293944120408L236.1234375,39.89032503366471L236.349609375,40.253483170270925L236.57578125,56.928760224580756L236.801953125,57.813212537765494L237.028125,47.37852852940557L237.254296875,50.51325660347938L237.48046875,54.08418413400649L237.706640625,63.206498140096656L237.9328125,47.01572206020356L238.158984375,55.33976864218711L238.38515625,40.04839074015618L238.611328125,48.817824089527136L238.8375,51.01767074465752L239.063671875,64.7997009396553L239.28984375000002,57.35995721220969L239.516015625,47.02864583730698L239.7421875,27.084822469949728L239.968359375,44.0118230521679L240.19453125,54.5257816851139L240.42070312500002,52.01894696950913L240.64687500000002,56.71613332033158L240.873046875,66.14077579379081L241.09921875,56.049011462926856L241.325390625,49.78019710779189L241.55156250000002,56.040158236026755L241.77773437500002,63.61849408745765L242.00390625,55.27476292252541L242.23007812499998,53.92019283175469L242.45624999999998,47.002437824010855L242.682421875,53.38638808727265L242.90859375,45.4824345946312L243.134765625,56.98687326312066L243.36093749999998,48.02826922535897L243.58710937499998,48.45881562829018L243.81328125,48.71124249100686L244.039453125,59.84562155008315L244.265625,50.895932281017295L244.491796875,44.64458700418473L244.71796874999998,62.90085520744323L244.944140625,57.93029140830039L245.1703125,56.02408703565597L245.396484375,47.48384412527082L245.62265625,64.50876649618148L245.848828125,49.01076641082764L246.075,66.20967622995377L246.301171875,61.376227551698676L246.52734375,32.45493319034577L246.753515625,41.309742593765264L246.9796875,55.06483506560325L247.20585937500002,59.61740698814391L247.43203125,57.206401640176765L247.658203125,55.12854840755462L247.884375,61.66052427291869L248.110546875,37.65271809101105L248.33671875000002,48.81800871491433L248.56289062500002,46.64747353792191L248.7890625,37.115757131576515L249.015234375,59.49002426266671L249.24140625,58.74332007169724L249.46757812500002,47.726134175062185L249.69375000000002,59.77572765350341L249.919921875,61.39602642655372L250.14609374999998,58.96378036737441L250.37226562499998,55.019900763034826L250.5984375,59.24927275776864L250.824609375,52.77177017331124L251.05078125,59.91608690619469L251.27695312499998,57.267961019277564L251.50312499999998,52.38753836750985L251.729296875,53.746214175224296L251.95546875,55.01568075418473L252.181640625,32.96427946686745L252.4078125,44.12815462946892L252.63398437499998,57.10079591870307L252.86015625,55.49691122174262L253.086328125,54.452828282117835L253.3125,48.89978896975515L253.538671875,57.1935745716095L253.76484375,55.827082955837255L253.991015625,48.01197823286054" style="fill: none;" fill="none"></path></g></g></g></g></g></g><g transform="translate(58, 177)" clip-path="url(#clip_1)"><clipPath id="clip_1"><rect width="271" height="23"></rect></clipPath><g><g><line x1="0" y1="0" x2="0" y2="5" style="visibility: inherit;" fill="rgb(0, 0, 0)" stroke="rgb(204, 204, 204)" stroke-width="1px"></line><line x1="22.6171875" y1="0" x2="22.6171875" y2="5" style="visibility: inherit;" fill="rgb(0, 0, 0)" stroke="rgb(204, 204, 204)" stroke-width="1px"></line><line x1="45.234375" y1="0" x2="45.234375" y2="5" style="visibility: inherit;" fill="rgb(0, 0, 0)" stroke="rgb(204, 204, 204)" stroke-width="1px"></line><line x1="67.8515625" y1="0" x2="67.8515625" y2="5" style="visibility: inherit;" fill="rgb(0, 0, 0)" stroke="rgb(204, 204, 204)" stroke-width="1px"></line><line x1="90.46875" y1="0" x2="90.46875" y2="5" style="visibility: inherit;" fill="rgb(0, 0, 0)" stroke="rgb(204, 204, 204)" stroke-width="1px"></line><line x1="113.0859375" y1="0" x2="113.0859375" y2="5" style="visibility: inherit;" fill="rgb(0, 0, 0)" stroke="rgb(204, 204, 204)" stroke-width="1px"></line><line x1="135.703125" y1="0" x2="135.703125" y2="5" style="visibility: inherit;" fill="rgb(0, 0, 0)" stroke="rgb(204, 204, 204)" stroke-width="1px"></line><line x1="158.3203125" y1="0" x2="158.3203125" y2="5" style="visibility: inherit;" fill="rgb(0, 0, 0)" stroke="rgb(204, 204, 204)" stroke-width="1px"></line><line x1="180.9375" y1="0" x2="180.9375" y2="5" style="visibility: inherit;" fill="rgb(0, 0, 0)" stroke="rgb(204, 204, 204)" stroke-width="1px"></line><line x1="203.5546875" y1="0" x2="203.5546875" y2="5" style="visibility: inherit;" fill="rgb(0, 0, 0)" stroke="rgb(204, 204, 204)" stroke-width="1px"></line><line x1="226.171875" y1="0" x2="226.171875" y2="5" style="visibility: inherit;" fill="rgb(0, 0, 0)" stroke="rgb(204, 204, 204)" stroke-width="1px"></line><line x1="248.7890625" y1="0" x2="248.7890625" y2="5" style="visibility: inherit;" fill="rgb(0, 0, 0)" stroke="rgb(204, 204, 204)" stroke-width="1px"></line><line x1="271.40625" y1="0" x2="271.40625" y2="5" style="visibility: inherit;" fill="rgb(0, 0, 0)" stroke="rgb(204, 204, 204)" stroke-width="1px"></line></g><g transform="translate(0, 8)"><text x="0" y="0" dx="0em" dy="0.95em" style="text-anchor: middle; visibility: hidden; font-family: &quot;Helvetica Neue&quot;, sans-serif; font-size: 12px; font-weight: 200;" fill="rgb(50, 49, 63)" stroke="none" stroke-width="1px">-100</text><text x="22.6171875" y="0" dx="0em" dy="0.95em" style="text-anchor: middle; visibility: inherit; font-family: &quot;Helvetica Neue&quot;, sans-serif; font-size: 12px; font-weight: 200;" fill="rgb(50, 49, 63)" stroke="none" stroke-width="1px">0</text><text x="45.234375" y="0" dx="0em" dy="0.95em" style="text-anchor: middle; visibility: hidden; font-family: &quot;Helvetica Neue&quot;, sans-serif; font-size: 12px; font-weight: 200;" fill="rgb(50, 49, 63)" stroke="none" stroke-width="1px">100</text><text x="67.8515625" y="0" dx="0em" dy="0.95em" style="text-anchor: middle; visibility: inherit; font-family: &quot;Helvetica Neue&quot;, sans-serif; font-size: 12px; font-weight: 200;" fill="rgb(50, 49, 63)" stroke="none" stroke-width="1px">200</text><text x="90.46875" y="0" dx="0em" dy="0.95em" style="text-anchor: middle; visibility: hidden; font-family: &quot;Helvetica Neue&quot;, sans-serif; font-size: 12px; font-weight: 200;" fill="rgb(50, 49, 63)" stroke="none" stroke-width="1px">300</text><text x="113.0859375" y="0" dx="0em" dy="0.95em" style="text-anchor: middle; visibility: inherit; font-family: &quot;Helvetica Neue&quot;, sans-serif; font-size: 12px; font-weight: 200;" fill="rgb(50, 49, 63)" stroke="none" stroke-width="1px">400</text><text x="135.703125" y="0" dx="0em" dy="0.95em" style="text-anchor: middle; visibility: hidden; font-family: &quot;Helvetica Neue&quot;, sans-serif; font-size: 12px; font-weight: 200;" fill="rgb(50, 49, 63)" stroke="none" stroke-width="1px">500</text><text x="158.3203125" y="0" dx="0em" dy="0.95em" style="text-anchor: middle; visibility: inherit; font-family: &quot;Helvetica Neue&quot;, sans-serif; font-size: 12px; font-weight: 200;" fill="rgb(50, 49, 63)" stroke="none" stroke-width="1px">600</text><text x="180.9375" y="0" dx="0em" dy="0.95em" style="text-anchor: middle; visibility: hidden; font-family: &quot;Helvetica Neue&quot;, sans-serif; font-size: 12px; font-weight: 200;" fill="rgb(50, 49, 63)" stroke="none" stroke-width="1px">700</text><text x="203.5546875" y="0" dx="0em" dy="0.95em" style="text-anchor: middle; visibility: inherit; font-family: &quot;Helvetica Neue&quot;, sans-serif; font-size: 12px; font-weight: 200;" fill="rgb(50, 49, 63)" stroke="none" stroke-width="1px">800</text><text x="226.171875" y="0" dx="0em" dy="0.95em" style="text-anchor: middle; visibility: hidden; font-family: &quot;Helvetica Neue&quot;, sans-serif; font-size: 12px; font-weight: 200;" fill="rgb(50, 49, 63)" stroke="none" stroke-width="1px">900</text><text x="248.7890625" y="0" dx="0em" dy="0.95em" style="text-anchor: middle; visibility: inherit; font-family: &quot;Helvetica Neue&quot;, sans-serif; font-size: 12px; font-weight: 200;" fill="rgb(50, 49, 63)" stroke="none" stroke-width="1px">1k</text><text x="271.40625" y="0" dx="0em" dy="0.95em" style="text-anchor: middle; visibility: hidden; font-family: &quot;Helvetica Neue&quot;, sans-serif; font-size: 12px; font-weight: 200;" fill="rgb(50, 49, 63)" stroke="none" stroke-width="1px">1.1k</text></g><line x1="0" y1="0" x2="271.40625" y2="0" fill="rgb(0, 0, 0)" stroke="rgb(204, 204, 204)" stroke-width="1px"></line></g></g></g></g></svg>