<svg viewBox="0 0 330 200" xmlns="http://www.w3.org/2000/svg"><g><g><g><g><g><line x1="58.59375" y1="177" x2="53.59375" y2="177" style="visibility: inherit;" fill="rgb(0, 0, 0)" stroke="rgb(204, 204, 204)" stroke-width="1px"></line><line x1="58.59375" y1="157.33333333333334" x2="53.59375" y2="157.33333333333334" style="visibility: inherit;" fill="rgb(0, 0, 0)" stroke="rgb(204, 204, 204)" stroke-width="1px"></line><line x1="58.59375" y1="137.66666666666666" x2="53.59375" y2="137.66666666666666" style="visibility: inherit;" fill="rgb(0, 0, 0)" stroke="rgb(204, 204, 204)" stroke-width="1px"></line><line x1="58.59375" y1="118" x2="53.59375" y2="118" style="visibility: inherit;" fill="rgb(0, 0, 0)" stroke="rgb(204, 204, 204)" stroke-width="1px"></line><line x1="58.59375" y1="98.33333333333333" x2="53.59375" y2="98.33333333333333" style="visibility: inherit;" fill="rgb(0, 0, 0)" stroke="rgb(204, 204, 204)" stroke-width="1px"></line><line x1="58.59375" y1="78.66666666666666" x2="53.59375" y2="78.66666666666666" style="visibility: inherit;" fill="rgb(0, 0, 0)" stroke="rgb(204, 204, 204)" stroke-width="1px"></line><line x1="58.59375" y1="58.999999999999986" x2="53.59375" y2="58.999999999999986" style="visibility: inherit;" fill="rgb(0, 0, 0)" stroke="rgb(204, 204, 204)" stroke-width="1px"></line><line x1="58.59375" y1="39.33333333333334" x2="53.59375" y2="39.33333333333334" style="visibility: inherit;" fill="rgb(0, 0, 0)" stroke="rgb(204, 204, 204)" stroke-width="1px"></line><line x1="58.59375" y1="19.666666666666657" x2="53.59375" y2="19.666666666666657" style="visibility: inherit;" fill="rgb(0, 0, 0)" stroke="rgb(204, 204, 204)" stroke-width="1px"></line><line x1="58.59375" y1="0" x2="53.59375" y2="0" style="visibility: inherit;" fill="rgb(0, 0, 0)" stroke="rgb(204, 204, 204)" stroke-width="1px"></line></g><g transform="translate(48.59375, 0)"><text x="0" y="177" dx="0em" dy="0.3em" style="text-anchor: end; visibility: hidden; font-family: &quot;Helvetica Neue&quot;, sans-serif; font-size: 12px; font-weight: 200;" fill="rgb(50, 49, 63)" stroke="none" stroke-width="1px">-0.02</text><text x="0" y="157.33333333333334" dx="0em" dy="0.3em" style="text-anchor: end; visibility: inherit; font-family: &quot;Helvetica Neue&quot;, sans-serif; font-size: 12px; font-weight: 200;" fill="rgb(50, 49, 63)" stroke="none" stroke-width="1px">0</text><text x="0" y="137.66666666666666" dx="0em" dy="0.3em" style="text-anchor: end; visibility: hidden; font-family: &quot;Helvetica Neue&quot;, sans-serif; font-size: 12px; font-weight: 200;" fill="rgb(50, 49, 63)" stroke="none" stroke-width="1px">0.02</text><text x="0" y="118" dx="0em" dy="0.3em" style="text-anchor: end; visibility: inherit; font-family: &quot;Helvetica Neue&quot;, sans-serif; font-size: 12px; font-weight: 200;" fill="rgb(50, 49, 63)" stroke="none" stroke-width="1px">0.04</text><text x="0" y="98.33333333333333" dx="0em" dy="0.3em" style="text-anchor: end; visibility: hidden; font-family: &quot;Helvetica Neue&quot;, sans-serif; font-size: 12px; font-weight: 200;" fill="rgb(50, 49, 63)" stroke="none" stroke-width="1px">0.06</text><text x="0" y="78.66666666666666" dx="0em" dy="0.3em" style="text-anchor: end; visibility: inherit; font-family: &quot;Helvetica Neue&quot;, sans-serif; font-size: 12px; font-weight: 200;" fill="rgb(50, 49, 63)" stroke="none" stroke-width="1px">0.08</text><text x="0" y="58.999999999999986" dx="0em" dy="0.3em" style="text-anchor: end; visibility: hidden; font-family: &quot;Helvetica Neue&quot;, sans-serif; font-size: 12px; font-weight: 200;" fill="rgb(50, 49, 63)" stroke="none" stroke-width="1px">0.1</text><text x="0" y="39.33333333333334" dx="0em" dy="0.3em" style="text-anchor: end; visibility: inherit; font-family: &quot;Helvetica Neue&quot;, sans-serif; font-size: 12px; font-weight: 200;" fill="rgb(50, 49, 63)" stroke="none" stroke-width="1px">0.12</text><text x="0" y="19.666666666666657" dx="0em" dy="0.3em" style="text-anchor: end; visibility: hidden; font-family: &quot;Helvetica Neue&quot;, sans-serif; font-size: 12px; font-weight: 200;" fill="rgb(50, 49, 63)" stroke="none" stroke-width="1px">0.14</text><text x="0" y="0" dx="0em" dy="0.3em" style="text-anchor: end; visibility: hidden; font-family: &quot;Helvetica Neue&quot;, sans-serif; font-size: 12px; font-weight: 200;" fill="rgb(50, 49, 63)" stroke="none" stroke-width="1px">0.16</text></g><line x1="58.59375" y1="0" x2="58.59375" y2="177" fill="rgb(0, 0, 0)" stroke="rgb(204, 204, 204)" stroke-width="1px"></line></g></g><g transform="translate(58, 0)" clip-path="url(#clip_0)"><clipPath id="clip_0"><rect width="271" height="177"></rect></clipPath><g><g><g><line x1="0" y1="0" x2="0" y2="177" fill="rgb(0, 0, 0)" stroke="rgb(60, 60, 60)" stroke-width="1px" opacity="0.25"></line><line x1="22.6171875" y1="0" x2="22.6171875" y2="177" fill="rgb(0, 0, 0)" stroke="rgb(60, 60, 60)" stroke-width="1px" opacity="0.25"></line><line x1="45.234375" y1="0" x2="45.234375" y2="177" fill="rgb(0, 0, 0)" stroke="rgb(60, 60, 60)" stroke-width="1px" opacity="0.25"></line><line x1="67.8515625" y1="0" x2="67.8515625" y2="177" fill="rgb(0, 0, 0)" stroke="rgb(60, 60, 60)" stroke-width="1px" opacity="0.25"></line><line x1="90.46875" y1="0" x2="90.46875" y2="177" fill="rgb(0, 0, 0)" stroke="rgb(60, 60, 60)" stroke-width="1px" opacity="0.25"></line><line x1="113.0859375" y1="0" x2="113.0859375" y2="177" fill="rgb(0, 0, 0)" stroke="rgb(60, 60, 60)" stroke-width="1px" opacity="0.25"></line><line x1="135.703125" y1="0" x2="135.703125" y2="177" fill="rgb(0, 0, 0)" stroke="rgb(60, 60, 60)" stroke-width="1px" opacity="0.25"></line><line x1="158.3203125" y1="0" x2="158.3203125" y2="177" fill="rgb(0, 0, 0)" stroke="rgb(60, 60, 60)" stroke-width="1px" opacity="0.25"></line><line x1="180.9375" y1="0" x2="180.9375" y2="177" fill="rgb(0, 0, 0)" stroke="rgb(60, 60, 60)" stroke-width="1px" opacity="0.25"></line><line x1="203.5546875" y1="0" x2="203.5546875" y2="177" fill="rgb(0, 0, 0)" stroke="rgb(60, 60, 60)" stroke-width="1px" opacity="0.25"></line><line x1="226.171875" y1="0" x2="226.171875" y2="177" fill="rgb(0, 0, 0)" stroke="rgb(60, 60, 60)" stroke-width="1px" opacity="0.25"></line><line x1="248.7890625" y1="0" x2="248.7890625" y2="177" fill="rgb(0, 0, 0)" stroke="rgb(60, 60, 60)" stroke-width="1px" opacity="0.25"></line><line x1="271.40625" y1="0" x2="271.40625" y2="177" fill="rgb(0, 0, 0)" stroke="rgb(60, 60, 60)" stroke-width="1px" opacity="0.25"></line></g><g><line x1="0" y1="177" x2="271.40625" y2="177" fill="rgb(0, 0, 0)" stroke="rgb(60, 60, 60)" stroke-width="1px" opacity="0.25"></line><line x1="0" y1="157.33333333333334" x2="271.40625" y2="157.33333333333334" fill="rgb(0, 0, 0)" stroke="rgb(60, 60, 60)" stroke-width="1px" opacity="0.25"></line><line x1="0" y1="137.66666666666666" x2="271.40625" y2="137.66666666666666" fill="rgb(0, 0, 0)" stroke="rgb(60, 60, 60)" stroke-width="1px" opacity="0.25"></line><line x1="0" y1="118" x2="271.40625" y2="118" fill="rgb(0, 0, 0)" stroke="rgb(60, 60, 60)" stroke-width="1px" opacity="0.25"></line><line x1="0" y1="98.33333333333333" x2="271.40625" y2="98.33333333333333" fill="rgb(0, 0, 0)" stroke="rgb(60, 60, 60)" stroke-width="1px" opacity="0.25"></line><line x1="0" y1="78.66666666666666" x2="271.40625" y2="78.66666666666666" fill="rgb(0, 0, 0)" stroke="rgb(60, 60, 60)" stroke-width="1px" opacity="0.25"></line><line x1="0" y1="58.999999999999986" x2="271.40625" y2="58.999999999999986" fill="rgb(0, 0, 0)" stroke="rgb(60, 60, 60)" stroke-width="1px" opacity="0.25"></line><line x1="0" y1="39.33333333333334" x2="271.40625" y2="39.33333333333334" fill="rgb(0, 0, 0)" stroke="rgb(60, 60, 60)" stroke-width="1px" opacity="0.25"></line><line x1="0" y1="19.666666666666657" x2="271.40625" y2="19.666666666666657" fill="rgb(0, 0, 0)" stroke="rgb(60, 60, 60)" stroke-width="1px" opacity="0.25"></line><line x1="0" y1="0" x2="271.40625" y2="0" fill="rgb(0, 0, 0)" stroke="rgb(60, 60, 60)" stroke-width="1px" opacity="0.25"></line></g></g></g><g><g><line x1="0" y1="157.33333333333334" x2="271.40625" y2="157.33333333333334" fill="rgb(0, 0, 0)" stroke="rgb(153, 153, 153)" stroke-width="1.5px"></line></g></g><g><g><line x1="22.6171875" y1="0" x2="22.6171875" y2="177" fill="rgb(0, 0, 0)" stroke="rgb(153, 153, 153)" stroke-width="1.5px"></line></g></g><g><g><g><g><g><path stroke="rgb(187, 187, 187)" stroke-width="2px" d="M28.49765625,-6.2497416734695435L28.723828125,2.8233066598574226L28.950000000000003,13.857999732097L29.176171874999998,20.25632440050444L29.40234375,25.017153759797424L29.628515625,27.902115921179444L29.8546875,30.227663159370422L30.080859375000003,33.6878359715144L30.307031249999998,36.77023007472357L30.533203125,39.60102812945843L30.759375,42.37180828054747L30.985546875,45.72345506648222L31.211718750000003,49.1842432965835L31.437890624999998,51.75961359341939L31.6640625,53.6570130934318L32.11640625,56.36644926170507L32.342578125,58.37510753671327L32.56875,59.34509415427843L32.794921875,61.01215150455633L33.02109375,62.14761228859423L33.247265625,63.88201394677162L33.4734375,64.70213896532852L33.699609375,65.43133598069349L33.92578125,67.19459634522596L34.151953125,68.5812209198872L34.378125000000004,69.68004968265691L34.604296875,70.60779225329557L34.83046875,71.71840187410511L35.056640625,71.6571824401617L35.2828125,73.28177595138548L35.508984375,74.43166975180308L35.735156249999996,73.62775073945521L35.961328125,74.9157545864582L36.1875,74.67297220230103L36.413671875,76.16021761298178L36.639843750000004,77.02101882795492L36.866015625,77.45324004689851L37.092187499999994,78.01965901255606L37.318359375,78.39605303108692L37.54453125,78.46933905283609L37.770703125,80.69181843598682L37.996875,79.66105929513772L38.223046875,80.28560595214365L38.44921875,81.68615069488683L38.675390625,81.82633411387602L38.901562500000004,81.9857346912225L39.127734375,81.56014386812845L39.353906249999994,81.58881208797295L39.580078125,81.78074922660987L39.80625,81.84336800376573L40.032421875,81.84226171672343L40.25859375,83.26973099509874L40.484765625,82.6967182656129L40.7109375,83.61567647755146L40.937109375000006,84.1553101092577L41.163281250000004,83.54247837265332L41.389453124999996,84.44145015378793L41.615624999999994,84.5092047403256L41.841796875,86.37582601606846L42.06796875,85.85989330212274L42.294140625,86.37183312575021L42.5203125,86.8771352271239L42.746484375,87.33290350933869L42.97265625,87.4261906147003L43.198828125000006,87.73568723599115L43.425000000000004,88.41982686519623L43.651171874999996,88.21254823605219L43.877343749999994,88.34022548298041L44.103515625,88.47804247339566L44.3296875,88.31096382439137L44.555859375,88.71525679032007L44.78203125,89.23973209162553L45.008203125,88.5464198042949L45.234375,89.27735317746797L45.460546875000006,89.07430920998254L45.68671875,89.50874300301074L45.912890624999996,90.28059434394041L46.1390625,90.80317943294843L46.365234375,90.71127701799074L46.59140625,90.58519692718983L46.817578125,90.6717583934466L47.04375,91.54542477428912L47.269921875,90.25798506041367L47.49609375,90.19061877330144L47.722265625000006,90.95698263744512L47.9484375,90.86488973597685L48.174609374999996,90.79485663771628L48.40078125,91.11313761770724L48.626953125,91.02634170651436L48.853125,90.16693983475366L49.079296875000004,91.97174091140428L49.30546875,91.83529395858446L49.531640625,93.12195707360902L49.7578125,92.83304764827092L49.983984375,91.45743465920289L50.21015625,91.16256154080232L50.436328124999996,91.54488994677861L50.6625,92.80192508300145L50.888671875,90.96395004789034L51.11484375,90.50564682980378L51.341015625000004,93.56174646814664L51.5671875,91.80063274006048L51.793359375,92.97150203585625L52.01953125,92.30283577243486L52.245703125,92.79341180125871L52.471875,92.09381345907846L52.698046874999996,92.55745762586594L52.92421875,91.47613896926244L53.150390625,92.4040060887734L53.3765625,92.20815665026505L53.602734375000004,93.02076477805772L53.82890625,92.98309973378976L54.055078124999994,93.81781894961992L54.28125,93.7856780141592L54.507421875,93.81359894076982L54.73359375,94.25230402747789L54.959765625,94.2235405643781L55.1859375,92.30881411830583L55.412109375,94.0293249140183L55.63828125,94.3913152217865L55.864453125000004,94.31995604435602L56.090625,93.23066625992456L56.316796874999994,93.67323968807855L56.54296875,93.30331488450368L56.769140625,93.18786540627478L56.9953125,93.21180809537569L57.221484375,94.41649607320626L57.44765625,93.17448006570338L57.673828125,93.03552748262882L57.900000000000006,93.67606035371621L58.126171875000004,92.95784561832745L58.352343749999996,94.18664479255676L58.578515624999994,93.84494862457116L58.8046875,93.19720657169819L59.030859375,93.36301775276661L59.25703125,93.7404301414887L59.483203125,94.46559030810991L59.709375,92.94471670190492L59.935546875,93.65997156997521L60.161718750000006,94.10102110604444L60.387890625000004,94.92450894415379L60.614062499999996,94.84675381580988L60.840234374999994,95.00515067577362L61.06640625,95.2939062466224L61.292578125,95.06805518269539L61.51875,94.81097898383935L61.744921875,94.09825905164082L61.97109375,94.7090980062882L62.197265625,94.08820722500482L62.423437500000006,94.21737173199654L62.649609375,93.98668524126211L62.875781249999996,94.37327028810978L63.101953125,94.26883972187836L63.328125,94.0526521851619L63.554296875,94.89636822541554L63.78046875,94.59043223659197L64.006640625,95.26310604314008L64.2328125,95.04140905042489L64.458984375,95.99722273896137L64.68515625,96.10844121873377L64.911328125,96.52724412828682L65.1375,95.9339372590184L65.36367187500001,95.15304879844189L65.58984375,95.74247999986012L65.81601562499999,95.54745111862817L66.0421875,95.06948383152485L66.268359375,95.75577742358048L66.49453125,96.1012063945333L66.720703125,95.66161114970842L66.946875,96.01116854945818L67.173046875,96.14505126078923L67.39921875,95.43759901324907L67.62539062500001,96.36001895119746L67.8515625,96.51268656303485L68.077734375,95.17089591920376L68.30390625,96.07711351414521L68.530078125,96.23509643226862L68.75625000000001,96.55620174109936L68.982421875,96.34710616370042L69.20859375,96.44577451298633L69.43476562500001,96.03670106828211L69.6609375,96.5995996966958L69.88710937500001,95.75433412194252L70.11328125,96.12152617673078L70.33945312499999,96.11366128176451L70.565625,95.72924851377805L70.79179687499999,95.43148879210153L71.01796875,95.4251880844434L71.244140625,95.97005276878674L71.47031249999999,95.91025465726852L71.696484375,96.74114949007829L71.92265625,95.42326856652895L72.148828125,96.01935580621162L72.375,97.0083581060171L72.601171875,97.01852715512116L72.82734375,96.95980236182609L73.053515625,96.56155734260876L73.505859375,96.81269915401936L73.73203125,96.67872852583726L73.95820312500001,96.30575227489074L74.18437499999999,96.70658351480961L74.410546875,97.39469771832228L74.63671875,96.79488866527875L74.86289062499999,96.22680294265349L75.0890625,97.38212560862301L75.315234375,96.17617748926082L75.54140625,96.87460360676049L75.767578125,95.87399628261724L75.99375,96.34667756905158L76.219921875,96.81876175353923L76.44609375,97.48771008352438L76.672265625,96.3157454902927L76.8984375,97.36121971408525L77.124609375,97.87203127145767L77.35078125,97.84934506068626L77.576953125,97.44459053128958L77.80312500000001,97.15428176273902L78.029296875,96.70518050839503L78.25546875,96.60636563102403L78.48164062500001,97.27693309634924L78.70781249999999,98.2178155730168L78.933984375,97.3596555267771L79.16015625,97.0479646474123L79.38632812499999,96.840158517162L79.6125,96.87910934537649L79.838671875,96.7425451700886L80.06484375,97.01927811155716L80.291015625,96.60273539771636L80.5171875,96.58191742002964L80.743359375,96.5662205989162L80.96953125,96.28258252143858L81.19570312500001,96.94771013160546L81.421875,97.33920020610093L81.648046875,96.67072076598802L81.87421875000001,97.6385790631175L82.100390625,96.42548037320375L82.32656250000001,97.24009959896405L82.552734375,97.44727932165065L83.005078125,98.94569383561611L83.23124999999999,97.48820095260938L83.457421875,97.08857856939235L83.68359375,98.59504113843043L83.90976562499999,96.99503870308398L84.1359375,97.05515551318724L84.362109375,98.2965267971158L84.58828125,97.80815967917442L84.814453125,98.76627019544442L85.040625,97.46383333206177L85.266796875,97.16547650843859L85.49296875,97.84208093086878L85.71914062500001,98.13608220716317L85.9453125,96.76489436626434L86.171484375,97.10872618108988L86.39765625000001,97.156765413781L86.623828125,97.53611563642819L86.85000000000001,98.62733226517835L87.076171875,98.21923323223987L87.30234374999999,97.60822943349679L87.528515625,98.62146381537119L87.980859375,97.4824936836958L88.20703125,98.37880231688419L88.43320312499999,97.93382216493288L88.659375,97.1553037961324L88.885546875,98.6321310599645L89.11171875,97.59672331561644L89.337890625,97.47362140814462L89.5640625,97.13877542813619L89.790234375,98.35632490863402L90.01640625,97.63047606001297L90.24257812500001,97.8304063056906L90.46875,97.92939335356155L90.694921875,99.02056968708833L90.92109375000001,98.39378115038076L91.14726562499999,97.94688514371713L91.3734375,98.65252776940663L91.599609375,98.65787970771392L91.82578124999999,98.11003684004147L92.051953125,97.41392952948809L92.278125,98.50493735571702L92.504296875,98.41142313182354L92.73046875,98.36173912137747L92.956640625,97.73922920475403L93.408984375,98.12954705456892L93.63515625,98.67621403435865L93.861328125,98.00927313913901L94.0875,97.82109078268209L94.313671875,98.29118218521276L94.53984375,98.00591398278871L94.76601562500001,98.51958283782004L94.9921875,96.99902060379584L95.218359375,97.68701392163833L95.44453125000001,97.99149561921755L95.67070312499999,96.85035687188306L95.896875,98.3081501374642L96.123046875,98.79251703868309L96.34921874999999,98.38937065502007L96.575390625,98.66433060665925L96.8015625,98.38304064174493L97.027734375,98.03947990387678L97.25390625,98.32344400634368L97.480078125,97.65475576370955L97.70625,97.89701797316471L97.932421875,98.07320700585842L98.15859375000001,98.32856149971484L98.384765625,98.26847765843073L98.6109375,98.21814159800608L98.83710937500001,97.83647256841262L99.06328125,98.00988123069206L99.28945312500001,98.35301337391138L99.515625,97.95581969370444L99.74179687499999,97.18872318913539L99.96796875,96.59150401999553L100.19414062499999,98.05719881256421L100.4203125,97.81339439501365L100.646484375,97.49227443337439L100.87265624999999,96.48849111298719L101.098828125,97.1121183062593L101.325,97.43569627652565L101.551171875,97.92042217155297L101.77734375,98.0250322346886L102.003515625,98.95728054394324L102.2296875,98.06910421947637L102.455859375,97.35456367582081L102.68203125000001,97.72419542322555L102.908203125,97.81535420815149L103.134375,97.93884807825089L103.36054687500001,98.44023787975311L103.58671875,98.05623172720273L103.81289062500001,98.1343385229508L104.0390625,98.10746527214845L104.26523437499999,97.73071958621343L104.49140625,97.40378245959678L104.71757812499999,97.94809033721685L104.94375,97.9875686665376L105.169921875,98.3397562454144L105.39609374999999,98.91942501316467L105.622265625,99.02386656900246L105.8484375,98.69099139173825L106.30078125,97.94185190399487L106.526953125,98.23782031983137L106.753125,98.41393975168467L106.979296875,98.06706381589174L107.20546875000001,98.07772373408079L107.431640625,98.3390712266167L107.6578125,98.83865506947039L107.88398437500001,97.62368814647196L108.11015624999999,97.46754415581623L108.336328125,97.78826116522153L108.5625,97.77034810682137L108.78867187499999,98.33724328875542L109.01484375,98.36692255238691L109.241015625,98.81549264242251L109.4671875,98.83518968025842L109.693359375,98.75076386084159L109.91953125,98.12588018923998L110.145703125,98.65521655976771L110.371875,97.93045934538046L110.598046875,98.7824652120471L110.82421875,98.62961810330549L111.050390625,99.38246475160122L111.2765625,99.56611206382512L111.502734375,98.69316733380158L111.955078125,98.42771705488363L112.18125,98.26368985325098L112.40742187500001,98.38622762759526L112.63359374999999,98.7382137303551L112.859765625,99.1900477334857L113.0859375,98.93359794219334L113.31210937499999,100.01706323524316L113.53828125,98.42199513316153L113.764453125,99.31872503459454L113.990625,99.13793135682741L114.216796875,98.94081078718105L114.44296875,98.69225153326988L114.669140625,98.51121242096026L114.8953125,98.87932393948236L115.12148437500001,98.96611618747313L115.34765625,98.12195689976215L115.573828125,98.055517402788L115.80000000000001,99.48435671875873L116.026171875,99.02820380032063L116.25234375000001,99.60681756585836L116.478515625,99.48069717983404L116.70468749999999,98.50691182166338L117.15703124999999,99.25825289388497L117.383203125,98.29838037739196L117.609375,99.31787150849898L117.83554687499999,99.17668070892492L118.06171875,97.8181016097466L118.287890625,99.40940760324398L118.5140625,98.93996825069188L118.740234375,99.12903343886137L118.96640625,98.41057326893011L119.192578125,99.36670565605164L119.41875,98.89729560911655L119.64492187500001,99.43111573904753L119.87109375,99.2869247769316L120.32343750000001,99.88963874926169L120.549609375,98.64955324927965L120.77578125000001,98.6428129573663L121.001953125,100.27738503118356L121.22812499999999,99.33801545699437L121.454296875,98.9406386166811L121.68046874999999,99.7101198658347L121.906640625,98.8806793242693L122.1328125,99.03482320656379L122.35898437499999,99.49599104871352L122.58515625,99.75454718122879L122.811328125,99.17275009304285L123.0375,98.66333787888288L123.263671875,99.53469277918337L123.48984375,97.67458467682202L123.716015625,98.82373851040998L123.9421875,98.62314888834953L124.16835937500001,98.612272841235L124.39453125,98.91931511710087L124.620703125,98.74327993889649L124.84687500000001,98.67145919799805L125.07304687499999,98.7130695109566L125.29921875,98.96430656562248L125.525390625,99.58567722638448L125.75156249999999,98.95084429780641L125.977734375,98.01640173047781L126.20390625,98.59499718000491L126.430078125,98.33137850215037L126.65625,99.23015613357225L126.882421875,98.78469610214233L127.10859375,98.85156785696745L127.334765625,98.89819675683974L127.5609375,99.02747482309738L127.787109375,98.87684028844038L128.01328125,98.8797525341312L128.23945312499998,98.36801052341858L128.465625,99.54637106756368L128.691796875,97.86465724557637L128.91796875,98.12180304527283L129.144140625,98.83299908538659L129.3703125,97.99237478772798L129.596484375,98.5324956253171L129.82265625,99.32050535082817L130.048828125,98.88173798968394L130.275,98.85934849828482L130.501171875,99.05377295116583L130.72734375000002,98.24201102306445L130.953515625,97.83795616527398L131.1796875,98.44195225834846L131.405859375,98.88919260601202L131.63203124999998,98.6827491869529L131.858203125,98.60965731491645L132.084375,98.82127683858076L132.310546875,99.11538801093896L132.53671875,98.59516202410062L132.762890625,98.31773307422796L132.9890625,98.55118528256813L133.215234375,98.27289914339781L133.44140625,98.57091895242532L133.667578125,98.21714154382546L133.89375,98.61656977732976L134.119921875,98.34179664899905L134.572265625,99.23739828417698L134.7984375,97.78364553054173L135.024609375,98.52082466334105L135.25078125000002,97.8141123826305L135.476953125,98.20471962541342L135.703125,98.37912467867136L136.15546875,98.00780053188403L136.381640625,97.33901338279247L136.6078125,98.28875348220268L136.833984375,98.36778706808884L137.06015625,98.47859893242517L137.286328125,98.08821148176987L137.51250000000002,98.51073620468378L137.738671875,97.49841762334108L137.96484375,98.91704026858011L138.191015625,97.89746122062205L138.4171875,98.60409657408793L138.64335937500002,98.25571506222089L138.86953125000002,98.62442734589179L139.095703125,98.84353811790545L139.321875,99.0283503284057L139.548046875,99.10565121968587L139.77421875000002,99.76467227190733L140.00039062500002,97.5501163949569L140.2265625,99.10489293684562L140.45273437499998,98.18589809288581L140.67890624999998,97.19464658697446L140.905078125,98.5686221246918L141.13125,99.2633117760221L141.357421875,98.51307332764068L142.0359375,98.15459236750999L142.262109375,98.30782777567704L142.48828125,99.3692149495085L142.714453125,98.59415098031361L142.94062499999998,99.12033333381017L143.166796875,98.25188335279623L143.39296875,98.17758628726006L143.619140625,98.9121205881238L143.8453125,99.72946889946857L144.071484375,98.96780858685572L144.29765625,98.40334943433602L144.523828125,97.27570592363675L144.75,98.7252789636453L144.976171875,97.87571645279725L145.20234375,97.8582686210672L145.42851562500002,98.40760241200526L145.6546875,97.94518175472815L145.880859375,98.720677981774L146.10703125,98.81847448895374L146.333203125,98.72259383648634L146.55937500000002,98.41817075014113L146.78554687500002,98.35416728258133L147.01171875,99.05794167518616L147.237890625,97.33760671317577L147.4640625,98.19569715857504L147.69023437500002,98.61673462142546L147.91640625000002,97.92696831375359L148.142578125,98.33265695969263L148.36874999999998,98.63765516877174L148.59492187499998,98.86043646931648L148.82109375,98.58465229719877L149.047265625,98.48225480814774L149.2734375,98.73819907754658L149.49960937499998,98.22660725812116L149.72578124999998,98.83499186734358L149.951953125,99.3577015052239L150.178125,99.37070587277411L150.404296875,98.4741921002666L150.63046875,99.15564660231271L150.85664062499998,98.94059465825556L151.0828125,98.36443890134493L151.308984375,98.72973708063364L151.53515625,98.91518668830395L151.761328125,99.15973839908837L151.9875,98.77067702760299L152.213671875,99.27293134480715L152.43984375,98.99485400815804L152.666015625,99.21257642656565L152.8921875,98.39784364153941L153.118359375,96.85193571199973L153.34453125,98.10118654370308L153.570703125,99.39832641681035L153.796875,98.45505186915398L154.023046875,99.03926667074361L154.24921875,97.86665002753337L154.47539062500002,98.93749558925627L154.7015625,99.54673006137212L154.927734375,99.74127539992331L155.15390625,99.96834631015857L155.380078125,99.6968151157101L155.60625000000002,98.79876646151145L155.83242187500002,98.81900565326212L156.05859375,99.37561090042193L156.284765625,99.0934454301993L156.5109375,98.47391003370285L156.73710937500002,98.58864152431488L156.96328125000002,99.40665653844674L157.189453125,99.03911281625429L157.41562499999998,99.87896417826414L157.64179687499998,99.55500157177447L157.86796875,98.94559492915869L158.094140625,100.03618515034516L158.3203125,99.08746708432832L158.54648437499998,99.19782837480307L158.77265624999998,100.28473341464995L158.998828125,99.33462333182493L159.225,98.78265203535557L159.451171875,98.52715467661619L159.67734375,99.19248376290003L160.1296875,99.45973267406225L160.355859375,100.01274798313776L160.58203125,99.8151914924383L160.808203125,99.3489464521408L161.034375,99.68330522626638L161.260546875,100.12379429241021L161.48671875,99.6788983941078L161.712890625,99.15832073986529L161.9390625,99.7560783997178L162.165234375,99.6404347717762L162.39140625000002,100.24564338475466L162.617578125,99.4984344045321L162.84375,100.0621535902222L163.069921875,100.28696796794732L163.29609375,100.18393674492836L163.52226562500002,100.18852673719326L163.74843750000002,100.15468607594569L163.974609375,99.68294989566007L164.20078125,99.41592077662547L164.426953125,98.3752123787999L164.65312500000002,99.00060523549715L164.87929687500002,99.65168446550766L165.10546875,100.1883142714699L165.33164062499998,100.44757373879352L165.55781249999998,99.85318256169558L165.783984375,100.17312297224998L166.01015625,99.82176694025596L166.236328125,99.73793822278579L166.46249999999998,98.88703864316145L166.68867187499998,98.75990721335013L166.91484375,99.8419328679641L167.141015625,98.67459856222072L167.3671875,98.92667449017365L167.593359375,98.30715374648571L167.81953124999998,98.38222374767065L168.045703125,99.23672425498565L168.271875,99.46794557323058L168.498046875,97.79769391069809L168.72421875,98.42878304670253L168.950390625,98.5891507094105L169.1765625,99.28399787843226L169.402734375,99.54151732474564L169.62890625,98.5955283443133L169.855078125,98.71645064651966L170.08125,99.98259982963403L170.307421875,98.64703662941852L170.53359375,99.18933707227309L170.759765625,99.48997607082129L170.9859375,99.59342856208482L171.212109375,99.72224140167236L171.43828125000002,98.3236931040883L171.664453125,100.14816557615995L171.890625,99.43756663799284L172.116796875,99.92423036694527L172.34296875,100.29912613580623L172.56914062500002,98.97046074519554L172.79531250000002,100.08898654580116L173.021484375,100.36638252685466L173.24765625,100.56906383732954L173.473828125,100.05414583037296L173.70000000000002,100.3156068821748L173.92617187500002,99.99528183539708L174.15234375,100.19325226793686L174.37851562499998,100.56102310866117L174.60468749999998,99.60845135400692L174.830859375,99.45477636158465L175.05703125,97.98401536047459L175.283203125,99.5706580976645L175.50937499999998,101.02546585351229L175.73554687499998,99.73672936608394L175.96171875,99.70070543636878L176.187890625,99.45895973841348L176.4140625,99.99967767794926L176.640234375,99.14770111689964L176.86640624999998,99.0298668940862L177.092578125,99.07392422606547L177.31875,99.7016798481345L177.544921875,99.02393250664075L177.77109375,99.1272751018405L177.997265625,98.50775069495042L178.2234375,100.4827954272429L178.449609375,98.85175101707378L178.67578125,99.01315902918576L178.901953125,99.83439033478498L179.128125,100.32051190982261L179.35429687500002,100.62213264654079L179.58046875,100.12530353168646L179.806640625,99.83570908755064L180.0328125,99.53011011332272L180.258984375,99.05466310928264L180.48515625000002,99.40840022265911L180.71132812500002,100.2580653031667L180.9375,99.62652925650278L181.163671875,99.82047382990518L181.38984375,99.98206133892138L181.61601562500002,99.66275099913278L181.84218750000002,99.50462521612643L182.068359375,100.03584080934525L182.29453124999998,99.4888441413641L182.52070312499998,99.53592727830012L182.746875,99.21921781202157L182.973046875,99.25540292263031L183.19921875,99.8395005017519L183.42539062499998,99.16504637897013L183.65156249999998,99.57235782345136L183.877734375,99.5278242751956L184.10390625,98.92378056049346L184.330078125,98.93367853264013L184.55625,100.1824275056521L184.78242187499998,99.67316548277934L185.00859375,100.74330770969391L185.234765625,100.97843400140603L185.4609375,100.78353333224852L185.687109375,99.15688110142946L185.91328125,100.77232759694257L186.139453125,99.52797446648279L186.365625,100.64891431728998L186.591796875,100.2119272723794L186.81796875,100.52951957037051L187.044140625,100.01673721025386L187.2703125,99.50320389370123L187.496484375,100.1101745069027L187.72265625,99.67109577357769L187.948828125,100.86375013242164L188.175,99.76356964806715L188.40117187500002,99.6086125349005L188.62734375,99.92917568981647L188.853515625,100.89691676447788L189.0796875,100.23882982879877L189.305859375,99.97745669384797L189.53203125000002,99.44913503030935L189.75820312500002,99.57477187365294L189.984375,100.15588760624328L190.210546875,100.89621709287167L190.43671875,100.54164476941028L190.66289062500002,101.34126318246126L190.88906250000002,101.7402188628912L191.115234375,101.13225918511549L191.34140624999998,101.2229490801692L191.56757812499998,101.03856912751992L191.79375,100.95308830589056L192.019921875,101.31599075098832L192.24609375,100.78206805139779L192.47226562499998,100.21128987520933L192.69843749999998,100.36581473052502L192.924609375,101.20936958988507L193.15078125,101.32496925940116L193.376953125,101.14524523665507L193.603125,102.03594184418519L193.82929687499998,101.08383531620105L194.05546875,101.50832351545492L194.281640625,101.04795425136884L194.5078125,101.49869662026563L194.733984375,101.60935829331477L194.96015625,100.93606174240509L195.186328125,101.69059346367915L195.4125,101.89678045858939L195.638671875,101.56055711458126L195.86484375,101.79026919354995L196.091015625,100.72125889609256L196.31718750000002,100.55693497508764L196.543359375,100.29582192748785L196.76953125,101.10096078614393L196.995703125,101.14157837132612L197.221875,100.65359588960806L197.44804687500002,101.11254016806681L197.67421875000002,100.24646760523319L197.900390625,99.82395020872355L198.1265625,100.83440422018369L198.57890625000002,101.03644080708423L198.80507812500002,101.41330371548732L199.03125,101.52850409597158L199.25742187499998,100.88690523306528L199.48359374999998,102.17078065127133L199.709765625,101.16587639103332L199.9359375,101.39765451600154L200.162109375,101.61165145784616L200.38828124999998,100.29793925831714L200.61445312499998,101.19464718053737L200.840625,100.52724472184975L201.066796875,101.35258247703314L201.29296875,101.15708104272683L201.519140625,100.32550485432148L201.74531249999998,100.78925891717275L201.971484375,100.8683327982823L202.19765625,100.6005673756202L202.423828125,102.51125330974658L202.65,100.16308946162462L202.876171875,101.137299751242L203.10234375,99.98467320203781L203.328515625,101.06406135112047L203.5546875,101.2636362661918L203.780859375,101.21159315357605L204.00703125,101.18507889658211L204.233203125,102.08667719364165L204.459375,101.32288856059311L204.685546875,101.92955879122019L204.91171875,102.1478856379787L205.137890625,102.28281968832016L205.36406250000002,102.0187760790189L205.590234375,101.82457141826549L206.042578125,101.77651753276587L206.26875,102.60687021166086L206.49492187500002,101.96820191045602L206.72109375000002,102.93754014124472L206.947265625,101.06477933873732L207.1734375,101.535881785055L207.399609375,103.11561938623586L207.62578125000002,102.07382668058077L207.85195312500002,102.22836252550283L208.078125,102.30483919630447L208.30429687499998,102.43017932027577L208.53046874999998,103.9859266107281L208.756640625,102.43645072231689L208.9828125,102.72677414367595L209.208984375,102.44943677385648L209.43515624999998,103.0062911187609L209.66132812499998,102.47084452708562L209.8875,101.52404597898324L210.113671875,102.26040455450614L210.33984375,102.30516522129376L210.566015625,102.22606203456719L210.79218749999998,103.77597018082936L211.018359375,102.27068349967399L211.24453125,103.25596032291651L211.470703125,102.90981702754894L211.696875,102.07721514254807L211.923046875,103.3863117073973L212.14921875,104.03650444249311L212.375390625,102.80454392482837L212.6015625,103.34400172283252L212.827734375,103.55983026574054L213.05390625,103.08378249655166L213.28007812500002,103.38467425604661L213.50625,103.30314969271421L213.732421875,103.6104264135162L213.95859375,102.50039191544056L214.184765625,102.99096061786015L214.41093750000002,103.30335116883118L214.63710937500002,103.20086942613125L214.86328125,102.99308161189158L215.089453125,103.033907999595L215.315625,103.92764140168825L215.54179687500002,103.59164883941412L215.76796875000002,103.34849280863999L215.994140625,103.64008369793494L216.22031249999998,103.28513772785664L216.44648437499998,103.90682342400153L216.898828125,104.44766957561174L217.125,104.643313874801L217.35117187499998,104.37450810273488L217.57734374999998,103.78965224077304L217.803515625,103.5170880233248L218.255859375,103.65759380410114L218.48203125,103.33533092339833L218.70820312499998,103.53101918101311L218.934375,103.43276111036538L219.160546875,104.11343535035847L219.38671875,104.02880439162253L219.612890625,103.99480621268351L219.8390625,104.40191251784562L220.065234375,104.23609767357507L220.29140625,104.92951253056525L220.517578125,103.9426165719827L220.74375,104.03202434629202L220.969921875,104.8229866127173L221.19609375,104.6087185939153L221.422265625,105.13150149583817L221.6484375,103.50363674511512L221.874609375,104.55032715201378L222.10078125,104.48599399626255L222.32695312500002,104.45721588035424L222.553125,104.09422551840544L222.779296875,104.36140116552511L223.00546875,104.55077772587538L223.231640625,104.00863480071226L223.45781250000002,104.02874211718638L223.68398437500002,105.1630306765437L223.91015625,104.26852800200382L224.136328125,104.09634651243687L224.3625,105.03851477305093L224.58867187500002,104.39956074208021L224.81484375000002,103.44374705354372L225.041015625,104.73112082978089L225.26718749999998,104.29427664975324L225.49335937499998,104.83084418127933L225.71953125,103.97285996874173L225.945703125,104.2943792194128L226.171875,104.3623426084717L226.39804687499998,105.06494843959807L226.62421874999998,104.45365158468485L226.850390625,105.06789365410805L227.0765625,104.46049078305562L227.302734375,104.60132625202337L227.52890625,104.63699118793011L227.75507812499998,105.11163228750227L227.98125,105.6734722505013L228.207421875,104.75366417566934L228.43359375,103.87737494210401L228.659765625,104.90117766211429L228.8859375,104.76301633069912L229.112109375,105.17459174245596L229.564453125,105.4910960694154L229.790625,105.38814910004535L230.016796875,104.82910049706697L230.24296875000002,104.91785988459984L230.469140625,104.25846884896357L230.6953125,104.53193787733713L230.921484375,104.85114198426405L231.14765625,104.17523723344007L231.37382812500002,104.74234854429959L231.60000000000002,104.59031100322802L231.826171875,104.74668211241563L232.05234375,104.9459346656998L232.278515625,105.11495114862919L232.50468750000002,105.5403185163935L232.95703125,105.31220359355211L233.18320312499998,105.01106273631254L233.40937499999998,105.13116814444462L233.635546875,105.34436284502347L233.86171875,105.2947484354178L234.087890625,104.98139079908529L234.31406249999998,105.73609102765718L234.54023437499998,105.58995490521193L234.76640625,105.70858037968476L234.992578125,105.34917995582023L235.21875,105.68298924962679L235.444921875,105.2691939373811L235.67109374999998,105.8212787931164L235.897265625,105.30134952565034L236.1234375,105.7320908109347L236.349609375,105.96777757257223L236.801953125,106.27411285042761L237.028125,104.94456096490224L237.254296875,105.4876673122247L237.706640625,105.02870838095744L237.9328125,105.85125843932231L238.158984375,106.37299732863903L238.38515625,105.37380033731459L238.611328125,104.88520243763922L238.8375,104.41161634027958L239.063671875,105.23027241478363L239.28984375000002,105.51787041376033L239.516015625,104.93456042309602L239.7421875,105.72331744184096L239.968359375,105.73383815834919L240.19453125,105.4508448044459L240.42070312500002,105.51494351526101L240.64687500000002,104.60708480576673L240.873046875,103.96836521973212L241.09921875,104.46909930805364L241.325390625,104.95622460047403L241.55156250000002,105.87671769410372L241.77773437500002,105.59625561287005L242.00390625,104.61815500259398L242.23007812499998,105.64809724936882L242.45624999999998,105.41869654258092L242.682421875,105.60514986763397L242.90859375,105.66644989202419L243.134765625,105.5008878087004L243.36093749999998,105.03084036459525L243.58710937499998,105.61446539064248L243.81328125,104.96215532471736L244.039453125,104.77493272721767L244.265625,105.891370502611L244.491796875,105.47552013397217L244.71796874999998,105.12976513803004L244.944140625,104.35848159343004L245.1703125,105.8310851852099L245.396484375,104.2147924900055L245.62265625,105.48685408135255L245.848828125,105.48984325428803L246.075,106.4471991509199L246.301171875,106.17148457964261L246.52734375,105.50068633258343L246.753515625,105.07222355902195L246.9796875,105.6558522482713L247.20585937500002,105.97493913273016L247.43203125,105.33154530078173L247.884375,105.99025131762026L248.110546875,106.51299758752187L248.33671875000002,105.33109839012225L248.56289062500002,105.70344457030296L248.7890625,105.87240610520044L249.015234375,104.84221109747885L249.24140625,106.15653138856092L249.46757812500002,106.01705496758221L249.69375000000002,105.55117258429526L249.919921875,105.22191665073235L250.37226562499998,106.42208790034056L250.5984375,106.05175281812747L250.824609375,105.89766388386488L251.05078125,104.24658542126417L251.27695312499998,104.96118823935588L251.50312499999998,106.07653071731328L251.729296875,105.80478705714145L251.95546875,104.74327533443768L252.181640625,105.23348137984672L252.4078125,105.38752269248167L252.63398437499998,105.50640092790125L252.86015625,106.9854187866052L253.086328125,105.6874839986364L253.3125,106.36348399271567L253.538671875,107.05339316527048L253.76484375,105.52423705905674L253.991015625,105.75964175413051" style="fill: none;" fill="none"></path></g><g><path stroke="rgb(238, 51, 119)" stroke-width="2px" d="M27.140625,-47.68281426032385L29.40234375,7.407598982254683L31.6640625,33.65895528594655L33.92578125,31.243630290031433L36.1875,56.18502551317215L38.44921875,54.21210543811321L40.7109375,58.15870753427346L42.97265625,62.62357946733633L45.234375,45.330532679955155L47.49609375,60.024874572952584L49.7578125,63.313572893540055L52.01953125,74.9488186488549L54.28125,61.361086159944534L56.54296875,72.78335334360598L58.8046875,51.98059992492199L61.06640625,64.2580709507068L63.328125,71.14442938566208L65.58984375,41.215752974152565L67.8515625,27.740304956833512L70.11328125,53.705374687910094L72.375,62.600318133831024L74.63671875,47.880656187733024L76.8984375,56.319311176737145L79.16015625,60.772753919164316L81.421875,33.858980774879456L83.68359375,58.11924752096334L85.9453125,20.28545418381691L88.20703125,43.196746746699006L90.46875,39.31351072092852L92.73046875,64.12579272190729L94.9921875,44.344303424159676L97.25390625,51.47976693014304L99.515625,47.961832746863365L101.77734375,42.42027244468531L104.0390625,16.164044082164764L106.30078125,28.387402286132186L108.5625,44.78708931803703L110.82421875,42.48306705554327L113.0859375,58.75902577241261L115.34765625,55.31568171083926L117.609375,62.179811835289L119.87109375,50.28545314073564L122.1328125,55.11164135237533L124.39453125,45.893207853039115L126.65625,52.626129403710365L128.91796875,56.76359898348649L131.1796875,50.091376692056656L133.44140625,69.96849754452705L135.703125,56.874718556801454L136.15546875,50.84721251328787L136.6078125,40.75025522708893L137.06015625,60.750049392382294L137.51250000000002,45.06161701182526L137.96484375,53.08243251343569L138.4171875,48.649496376514435L138.86953125000002,64.67413012186685L139.321875,64.20443434516588L139.77421875000002,50.62728851040205L140.2265625,40.05711877346039L140.67890624999998,38.244588340322196L141.13125,62.79446784655251L141.58359374999998,37.707702110211045L142.0359375,51.91892625391485L142.48828125,63.43695686757563L142.94062499999998,64.35292590657869L143.39296875,49.68328132232031L143.8453125,45.6978712628285L144.29765625,45.648777027924865L144.75,48.400581791996956L145.20234375,38.53507294257483L145.6546875,49.03342193861802L146.10703125,63.461024105548844L146.55937500000002,37.15129833916822L147.01171875,55.181974833210305L147.4640625,38.75431558986506L147.91640625000002,63.18963211278118L148.36874999999998,49.48647212485473L148.82109375,52.389252101381615L149.2734375,55.861220424373926L149.72578124999998,69.36351238687833L150.178125,58.53204644223054L150.63046875,43.47307673593363L151.0828125,46.17597042520842L151.53515625,42.19085342188677L151.9875,52.02617015937963L152.43984375,40.21492219467959L152.8921875,49.794928396741554L153.34453125,46.18660836418471L153.796875,50.87778559823832L154.24921875,58.62460823357105L154.7015625,43.66065466403961L155.15390625,49.818900391459465L155.60625000000002,55.02043494582176L156.05859375,62.52460707227388L156.5109375,54.16593443850674L156.96328125000002,57.00936321417488L157.41562499999998,65.21555139621098L157.86796875,61.08729110658169L158.3203125,61.130678072571754L158.77265624999998,32.86121243238449L159.225,39.08628229300183L159.67734375,60.17242102821666L160.1296875,62.182705764969185L160.58203125,43.00601846476397L161.034375,44.77988013625145L161.48671875,56.678319637974084L161.9390625,66.78918243944645L162.39140625000002,34.627879574894905L162.84375,43.88272530337176L163.29609375,53.85610080262025L163.74843750000002,49.03280652066073L164.20078125,28.21386907498041L164.65312500000002,44.30607424676418L165.10546875,45.69773206114769L165.55781249999998,51.90883779525758L166.01015625,52.117061530550316L166.46249999999998,66.78982716302075L166.91484375,3.3417083720366065L167.3671875,51.53357204298179L167.81953124999998,55.48972044388452L168.271875,52.55674102902414L168.72421875,57.94797084232171L169.1765625,58.49696029225984L169.62890625,21.86483645439148L170.08125,46.43271693587303L170.53359375,59.39520675937334L170.9859375,59.02377271652222L171.43828125000002,50.697541400790215L171.890625,45.58431199689707L172.34296875,60.1186818530162L172.79531250000002,50.19653989871344L173.24765625,72.78595421711603L173.70000000000002,51.183721587061896L174.15234375,60.491698399186134L174.60468749999998,56.39123448729515L175.05703125,51.33000790079436L175.50937499999998,51.00779996812345L175.96171875,54.312477176388086L176.4140625,54.26432072122891L176.86640624999998,70.77541305621465L177.31875,40.9221106916666L177.77109375,55.922073538104684L178.2234375,30.304531792799622L178.67578125,60.391612390677125L179.128125,53.169873148202896L179.58046875,46.03852708141008L180.0328125,50.235237965981156L180.48515625000002,66.29361712932587L180.9375,51.14503084619841L181.38984375,29.179401238759368L181.84218750000002,45.27110088864964L182.29453124999998,47.38438754280409L182.746875,36.7893959482511L183.19921875,46.62557720144591L183.65156249999998,57.14896052082379L184.10390625,56.10151183108488L184.55625,60.44445774455865L185.00859375,47.77536843220392L185.4609375,46.21244126558304L185.91328125,52.33598914245765L186.365625,32.30708717306456L186.81796875,43.56257609029612L187.2703125,46.67714776098728L187.72265625,58.03915526966253L188.175,48.82295632362366L188.62734375,51.0022612065077L189.0796875,46.234486415982246L189.53203125000002,50.80244818329811L189.984375,58.410779799024255L190.43671875,60.520227417349815L190.88906250000002,53.17996893326442L191.34140624999998,62.823326552907616L191.79375,38.9025653799375L192.24609375,51.21575995286305L192.69843749999998,31.841889808575303L193.15078125,60.21062822639941L193.603125,47.07179917891821L194.05546875,51.00236377616724L194.5078125,32.042867730061204L194.96015625,65.99241399765015L195.4125,57.66562587519486L195.86484375,39.73925539851189L196.31718750000002,25.285607864459365L196.76953125,47.47935972114405L197.221875,26.289647608995438L197.67421875000002,38.36683672169846L198.1265625,37.140762969851494L198.57890625000002,51.761305992801994L199.03125,56.746623704830796L199.48359374999998,65.1021533111731L199.9359375,69.01681961119175L200.38828124999998,33.31983068585396L200.840625,47.949641610185296L201.29296875,21.805521885553986L201.74531249999998,47.44266176223755L202.19765625,50.88448193172614L202.65,53.75507701436679L203.10234375,41.585216214259475L203.5546875,53.82675122718017L204.00703125,64.80250337719917L204.459375,35.70967444777489L204.91171875,47.419656852881104L205.36406250000002,32.25145045916241L205.81640625,66.45540611445904L206.26875,45.285350744922965L206.72109375000002,32.201660215854645L207.1734375,43.8484523842732L207.62578125000002,28.128809521595628L208.078125,20.979484458764404L208.53046874999998,52.437577063838646L208.9828125,8.52839230497679L209.43515624999998,50.14165780444941L209.8875,23.906895806392043L210.33984375,35.72196815411249L210.79218749999998,57.36821049451828L211.24453125,34.6287807226181L211.696875,43.476842507719994L212.14921875,49.77618745466074L212.6015625,49.02981002132098L213.05390625,54.10219472150007L213.50625,1.2996197144190376L213.95859375,50.94401629269123L214.41093750000002,42.23979380230108L214.86328125,47.136242230733245L215.315625,58.688443193833024L215.76796875000002,58.37140037616092L216.22031249999998,50.76157417396705L216.67265625,65.75774926940599L217.125,38.35872639218968L217.57734374999998,33.94229664405188L218.0296875,13.746579776207625L218.48203125,27.92132575313252L218.934375,45.98990173637867L219.38671875,22.804843425750732L219.8390625,35.73643047610918L220.29140625,42.48237104713917L220.74375,58.54744654397169L221.19609375,40.83943954606852L221.6484375,52.81865998109183L222.10078125,32.103545010089874L222.553125,48.64967221021652L223.00546875,50.16658955812454L223.45781250000002,43.486520687739045L223.91015625,17.211661279201508L224.3625,65.31662646929422L224.81484375000002,47.47637787461281L225.26718749999998,20.60850465297699L225.71953125,28.466967036326736L226.171875,27.883887827396393L226.62421874999998,45.90827094018459L227.0765625,51.03764773905277L227.52890625,-5.848518470923096L227.98125,32.655574917793274L228.43359375,45.138309811552375L228.8859375,45.60185140868029L229.33828125,56.27930900951226L229.790625,46.52570365866026L230.24296875000002,61.39645071327685L230.6953125,48.03487699727219L231.14765625,19.9003783762455L231.60000000000002,2.1179351111253197L232.05234375,49.202852363387734L232.50468750000002,42.68526116013527L232.95703125,4.899521708488464L233.40937499999998,53.95729309817156L233.86171875,5.38533557454744L234.31406249999998,43.22205947339535L234.76640625,20.685783565044403L235.21875,40.99160896241665L235.67109374999998,42.79794858396053L236.1234375,31.2234240670999L236.57578125,47.68378105262914L237.028125,48.502594644824654L237.48046875,44.56488680342832L237.9328125,58.98473763465881L238.38515625,32.80594203869501L238.8375,49.98975213865438L239.28984375000002,20.03786567846933L239.7421875,49.24282522499561L240.19453125,31.48157724738121L240.64687500000002,19.643573254346848L241.09921875,44.37925769885382L241.55156250000002,54.6251094986995L242.00390625,50.06093548238279L242.45624999999998,16.091219623883575L242.90859375,-7.369699786106736L243.36093749999998,32.71087461709976L243.81328125,49.58489503959814L244.265625,16.2946592171987L244.71796874999998,32.68499775727591L245.1703125,43.45503180225691L245.62265625,31.938319941361755L246.075,46.40841525296369L246.52734375,57.25142028431095L246.9796875,46.65433333814144L247.43203125,36.83884917696318L247.884375,36.15359593431154L248.33671875000002,47.194223393996566L248.7890625,69.13347794612247L249.015234375,49.424637272954L249.24140625,47.978148649136216L249.46757812500002,50.980340604980796L249.69375000000002,26.698973814646422L249.919921875,32.6904339492321L250.14609374999998,35.26795820891857L250.37226562499998,39.5652386446794L250.5984375,44.22637762129307L250.824609375,59.336427018046365L251.05078125,46.78622326751551L251.27695312499998,49.424703210592284L251.50312499999998,39.12575695912042L251.729296875,45.853777145346015L251.95546875,64.89910201728344L252.181640625,46.1582405269146L252.4078125,39.01560447116694L252.63398437499998,13.194110284248978L252.86015625,45.84337365130585L253.086328125,24.964769969383866L253.3125,37.756166274348885L253.538671875,47.06644357740879L253.76484375,62.03831698993841L253.991015625,-3.942774196465791" style="fill: none;" fill="none"></path></g><g><path stroke="rgb(187, 187, 187)" stroke-width="2px" d="M27.140625,-34.92193242907524L29.40234375,10.247899383306503L31.6640625,32.840039124091476L33.92578125,42.89799063404402L36.1875,54.629219611485794L38.44921875,48.29253198206425L40.7109375,77.3683270215988L42.97265625,51.11052348216374L45.234375,72.09931628406046L47.49609375,79.18570753435294L49.7578125,38.29779268801212L52.01953125,64.92552103102207L54.28125,65.99230410158633L56.54296875,71.48295322060585L58.8046875,45.48814561466375L61.06640625,73.56320511798062L63.328125,78.66992867489655L65.58984375,59.579209402203546L67.8515625,22.36270958185196L70.11328125,45.10761950413385L72.375,11.8365715344747L74.63671875,50.09906941652298L76.8984375,62.073703522483484L79.16015625,70.04552003244558L81.421875,44.71011811494827L83.68359375,71.1607965727647L85.9453125,46.40503778060278L88.20703125,58.46584505339463L90.46875,39.63758688668412L92.73046875,70.63999912639459L94.9921875,53.5917568107446L97.25390625,55.17171786725521L99.515625,64.83122288187344L101.77734375,63.535262559851006L104.0390625,34.21174713969231L106.30078125,59.53652577102184L108.5625,57.962916706999124L110.82421875,52.54204426209132L113.0859375,72.54386784136294L115.34765625,58.07008002201715L117.609375,58.753736108541474L119.87109375,64.46440447370209L122.1328125,40.975769276420266L124.39453125,55.316216538349764L126.65625,53.09316569566727L128.91796875,55.73706717789173L131.1796875,65.24621239801247L133.44140625,76.19549424946307L135.703125,57.783573657274246L136.15546875,56.48855844140053L136.6078125,64.51284665862718L137.06015625,66.46867423256236L137.51250000000002,68.59935377041496L137.96484375,64.58212513724962L138.4171875,73.79357657333215L138.86953125000002,63.835308119654655L139.321875,71.8410605341196L139.77421875000002,70.77856341004372L140.2265625,58.82785734037556L140.67890624999998,47.08324302236238L141.13125,73.41003198424973L141.58359374999998,64.01607981820901L142.0359375,65.35946395496526L142.48828125,73.65631638964017L142.94062499999998,77.21658986310163L143.39296875,54.75585650900999L143.8453125,50.56801789999008L144.29765625,73.89363327622414L144.75,60.82447100679079L145.20234375,53.33759652078152L145.6546875,59.726308946808174L146.10703125,53.932185510794326L146.55937500000002,50.296992227435126L147.01171875,73.31174094478288L147.4640625,48.3269587556521L147.91640625000002,70.83439061045647L148.36874999999998,59.73417017857231L148.82109375,56.75740817189215L149.2734375,52.80109126369159L149.72578124999998,59.112466166416795L150.178125,49.17284341156483L150.63046875,55.03506577511628L151.0828125,59.901344070831925L151.53515625,64.9030582755804L151.9875,67.16017689804235L152.43984375,37.31103593111038L152.8921875,57.94583153227964L153.34453125,51.50621524949868L153.796875,67.18265430629253L154.24921875,65.60272255539894L154.7015625,46.85172132154307L155.15390625,54.72973055144149L155.60625000000002,62.242108250657694L156.05859375,66.68445149064063L156.5109375,63.46345647176106L156.96328125000002,61.33539978663124L157.41562499999998,66.43317780395348L157.86796875,70.05008438229561L158.3203125,60.58485362927118L158.77265624999998,58.22870400051275L159.225,34.99430968364081L159.67734375,54.97522370517254L160.1296875,65.75796173512934L160.58203125,73.6080939968427L161.034375,34.4406533141931L161.48671875,69.09121191998321L161.9390625,74.63461114962895L162.39140625000002,50.664631192882865L162.84375,56.9373446603616L163.29609375,65.69573125739892L163.74843750000002,56.06693852941194L164.20078125,58.25428047776222L164.65312500000002,53.84533098836741L165.10546875,64.45715865989526L165.55781249999998,68.64833078285058L166.01015625,66.24957078695297L166.46249999999998,70.3662260522445L166.91484375,56.13997545341648L167.3671875,58.197837859392166L167.81953124999998,55.483265881737054L168.271875,47.09440113604069L168.72421875,52.75587269663812L169.1765625,52.578126803040504L169.62890625,69.40696529050668L170.08125,51.39430442452431L170.53359375,60.626548195878655L170.9859375,65.41043374935785L171.43828125000002,56.27253208557764L171.890625,73.61641679207482L172.34296875,56.00815878808497L172.79531250000002,49.15154555439949L173.24765625,74.89159943163395L173.70000000000002,46.968621427814156L174.15234375,55.910116846362726L174.60468749999998,54.73262448112169L175.05703125,64.22382001082102L175.50937499999998,67.75032608707745L175.96171875,62.66254861156145L176.4140625,55.41310823460418L176.86640624999998,69.69224081933498L177.31875,65.93241074681282L177.77109375,63.95572489996749L178.2234375,39.771843244632095L178.67578125,61.92486029366651L179.128125,66.10938736796379L179.58046875,60.237538109223024L180.0328125,69.73576698700586L180.48515625000002,55.48739797373612L180.9375,73.12162808080514L181.38984375,52.326699261864036L181.84218750000002,48.81181286275387L182.29453124999998,71.27720580995081L182.746875,59.30983217060566L183.19921875,39.36229724685353L183.65156249999998,62.004249210158974L184.10390625,62.11734691262244L184.55625,51.458227301637336L185.00859375,66.43133155008157L185.4609375,74.53472295403479L185.91328125,70.98415696620941L186.365625,55.18791654706001L186.81796875,42.84833959241709L187.2703125,65.25036646922429L187.72265625,57.52050445973872L188.175,70.14518110950787L188.62734375,71.39168087641396L189.0796875,48.81727103392282L189.53203125000002,52.34082456926504L189.984375,45.23868887623152L190.43671875,59.75376098354657L190.88906250000002,61.13708867629367L191.34140624999998,74.92639252543448L191.79375,71.69786596298218L192.24609375,59.051378607749925L192.69843749999998,56.18304005761941L193.15078125,63.10415495435396L193.603125,31.362669706344604L194.05546875,8.66438502073288L194.5078125,68.43094904224075L194.96015625,58.151762103040994L195.4125,73.45262037217616L195.86484375,61.83962490657963L196.31718750000002,68.883061448733L196.76953125,44.2052409450213L197.221875,69.90135104954241L197.67421875000002,53.37564253807068L198.1265625,54.206207682689026L198.57890625000002,68.93924031654993L199.03125,67.83622817695141L199.48359374999998,52.827708090345055L199.9359375,39.86636851231256L200.38828124999998,42.366870284080505L200.840625,66.32550896704197L201.29296875,52.128820409377425L201.74531249999998,55.16806199153264L202.19765625,49.779491662979126L202.65,55.84240621825059L203.10234375,65.57807653148969L203.5546875,45.42625215152901L204.00703125,60.25829381247361L204.459375,51.92297775546709L204.91171875,54.129009361068384L205.36406250000002,28.651079575220734L205.81640625,53.5936543494463L206.26875,57.48521317044893L206.72109375000002,23.859259525934846L207.1734375,66.10294745862483L207.62578125000002,55.02476485073565L208.078125,46.21294678747654L208.53046874999998,63.65455107390879L208.9828125,31.090684274832427L209.43515624999998,34.32696217298508L209.8875,49.507711370786026L210.33984375,48.31326570610207L210.79218749999998,34.22458299994469L211.24453125,41.384721835454314L211.696875,57.98621467252572L212.14921875,36.96665829916796L212.6015625,51.352031071980804L213.05390625,38.85987442235151L213.50625,36.066316480437905L213.95859375,60.937107145786285L214.41093750000002,48.2281841735045L214.86328125,63.35314280291398L215.315625,72.93047486742337L215.76796875000002,70.85101422170797L216.22031249999998,56.389080524444566L216.67265625,55.96779762705167L217.125,52.56652910510698L217.57734374999998,34.45094691216946L218.0296875,19.450639724731445L218.48203125,53.8811424523592L218.934375,40.82639122009277L219.38671875,40.46953672170639L219.8390625,24.61683903137842L220.29140625,59.92622453967729L220.74375,60.31816518803437L221.19609375,68.2214798182249L221.6484375,57.828176806370394L222.10078125,46.65634077290693L222.553125,42.20804849267006L223.00546875,71.92938033739725L223.45781250000002,32.249296496311814L223.91015625,20.660478164752334L224.3625,62.330186282594994L224.81484375000002,39.58902747929096L225.26718749999998,27.144565721352905L225.71953125,48.82760859032473L226.171875,5.659255176782608L226.62421874999998,52.92362537483375L227.0765625,42.49350718160471L227.52890625,66.58663666745025L227.98125,43.508770977457374L228.43359375,57.11675364772478L228.8859375,63.86681165794529L229.33828125,71.33749479055405L229.790625,55.96743130683899L230.24296875000002,53.10652173062165L230.6953125,69.87159852186838L231.14765625,44.369183893005044L231.60000000000002,66.72398476799327L232.05234375,45.948448941111565L232.50468750000002,41.60929810504118L232.95703125,50.57064807911715L233.40937499999998,44.574770122766495L233.86171875,52.59255981942019L234.31406249999998,47.64681934316954L234.76640625,64.47570178906122L235.21875,21.901439170042664L235.67109374999998,26.55420406659445L236.1234375,40.724656770626694L236.57578125,75.90248203774293L237.028125,32.17478696505228L237.48046875,52.51599889496963L237.9328125,58.0295357008775L238.38515625,33.12973980108899L238.8375,51.236977219581604L239.28984375000002,64.13004936277866L239.7421875,50.37744347254436L240.19453125,34.67843909064928L240.64687500000002,59.22586425145467L241.09921875,56.75546667476493L241.55156250000002,41.99293061097464L242.00390625,37.53434473276138L242.45624999999998,38.5045145104329L242.90859375,50.220453282197326L243.36093749999998,69.12644459803899L243.81328125,67.51459903021653L244.265625,47.695898925264686L244.71796874999998,58.94442775845526L245.1703125,65.48023972908653L245.62265625,48.06224844356379L246.075,65.44291169941424L246.52734375,48.079077194134385L246.9796875,54.77118334670861L247.43203125,64.78306642671426L247.884375,51.34461675087611L248.33671875000002,45.22718642155331L248.7890625,40.32949250439802L249.015234375,38.098338658611L249.24140625,64.4897538324197L249.46757812500002,55.831050291657434L249.69375000000002,36.70481993754706L249.919921875,46.09203913807869L250.14609374999998,44.95589699844518L250.37226562499998,60.553943529725075L250.5984375,28.00941843787831L250.824609375,68.24992824594179L251.05078125,35.0269634673993L251.27695312499998,59.58988397320111L251.50312499999998,56.04066604375838L251.729296875,60.22794784605503L251.95546875,58.53760718305905L252.181640625,55.69373149673143L252.4078125,71.91325492163499L252.63398437499998,27.60237807035446L252.86015625,58.451009084781006L253.086328125,47.5203143209219L253.3125,29.887893835703522L253.538671875,66.37710883220036L253.76484375,34.463519021868706L253.991015625,45.06818879644075" style="fill: none;" fill="none"></path></g><g><path stroke="rgb(0, 119, 187)" stroke-width="2px" d="M28.49765625,-3.703581750392914L28.950000000000003,1.0407925049464097L29.40234375,7.74226912856102L29.8546875,10.826670666535705L30.307031249999998,18.713398317496L30.759375,33.85487798849741L31.211718750000003,8.54716255267462L31.6640625,28.689103613297164L32.11640625,28.578885187705367L32.56875,36.686525906125695L33.02109375,38.13875110447407L33.4734375,39.29682117203873L33.92578125,37.58354153732458L34.378125000000004,50.547013098994896L34.83046875,44.20203197995821L35.2828125,47.10307559867701L35.735156249999996,47.060479884346336L36.1875,49.88075722257295L36.639843750000004,60.27554749449092L37.092187499999994,48.39819338421029L37.54453125,54.83747997879982L37.996875,41.7756953984499L38.44921875,45.56737335026264L38.901562500000004,36.55003499488035L39.353906249999994,56.55828383068241L39.80625,55.51024170219898L40.25859375,59.157399003704384L40.7109375,70.18720536430676L41.163281250000004,46.38721263905367L41.615624999999994,51.6541060457627L42.06796875,39.40171330173811L42.5203125,45.94735730687779L42.97265625,44.32590682307878L43.425000000000004,63.403577769796044L43.877343749999994,27.43231757481894L44.3296875,52.92832159996033L44.78203125,69.74304943283398L45.234375,63.45122870306173L45.68671875,55.572640687227235L46.1390625,55.41414125760396L46.59140625,68.37764212489128L47.04375,54.553405980269105L47.49609375,72.27883516748744L47.9484375,47.03491805990538L48.40078125,63.51551057398319L48.853125,74.95034254093964L49.30546875,59.03375127911568L49.7578125,38.79836193223795L50.21015625,57.33420865237713L50.6625,46.7518038203319L51.11484375,44.00589681168398L51.5671875,60.077646662791565L52.01953125,60.76214528580506L52.471875,68.34477587540944L52.92421875,56.42019576330979L53.3765625,42.89752174417177L53.82890625,65.57910955448943L54.28125,58.4161793589592L54.73359375,29.3872806330522L55.1859375,52.732889766494424L55.63828125,63.08408060669899L56.090625,56.70711973309517L56.54296875,67.14790517091751L56.9953125,64.1343572884798L57.44765625,-6.264247953891754L57.900000000000006,64.09280192355314L58.352343749999996,65.90986007452011L58.8046875,39.14484224220118L59.25703125,66.37237597505249L59.709375,66.07372243205705L60.161718750000006,64.4352160791556L60.614062499999996,63.50094568232694L61.06640625,69.26675256590048L61.51875,52.152294208606094L61.97109375,69.02182354529698L62.423437500000006,40.206811865170806L62.875781249999996,55.165629625320435L63.328125,70.37174283464749L63.78046875,70.20239300032455L64.2328125,69.35944623251754L64.68515625,48.334373076756805L65.1375,59.923748215039566L65.58984375,51.765342841545746L66.0421875,73.09813962876795L66.49453125,65.78199234108129L66.946875,32.51536219318709L67.39921875,43.619905203580856L67.8515625,25.34476125240326L68.30390625,43.87613153954348L68.75625000000001,35.1123820145925L69.20859375,75.75810791552067L69.6609375,59.883159935474396L70.11328125,44.96402198076248L70.565625,62.262321799993515L71.01796875,46.14021757245064L71.47031249999999,46.73065249125162L71.92265625,44.985459039608656L72.375,11.239660074313491L72.82734375,62.502957547704355L73.27968750000001,60.274917423725114L73.73203125,43.34435913960138L74.18437499999999,23.20902649561566L74.63671875,43.24707914392155L75.0890625,43.837594653169305L75.54140625,53.61506210267544L75.99375,47.920570438106864L76.44609375,35.575000484784454L76.8984375,54.59538627664246L77.35078125,37.450501362482726L77.80312500000001,36.262305120627104L78.25546875,57.215850591659546L78.70781249999999,37.996413722634315L79.16015625,63.973718548814446L79.6125,61.63984118898709L80.06484375,54.17523897190888L80.5171875,65.09417485694088L80.96953125,38.30142658452195L81.421875,36.13719944159189L81.87421875000001,46.56235033273697L82.32656250000001,55.25120202700295L82.77890624999999,43.5724081248045L83.23124999999999,38.09073385099569L83.68359375,65.60579231878121L84.1359375,52.51688538988432L84.58828125,48.80282336473465L85.040625,55.71378386517364L85.49296875,52.27115779121716L85.9453125,40.058840478459985L86.39765625000001,57.54903347790241L86.85000000000001,33.27600413560867L87.30234374999999,37.839013253649085L87.75468749999999,54.32737908263999L88.20703125,49.43612507482371L88.659375,45.86959485212961L89.11171875,35.199566225210816L89.5640625,35.11419163644314L90.01640625,56.278525084257126L90.46875,30.84016520778337L90.92109375000001,52.461622322599084L91.3734375,52.251398478945106L91.82578124999999,38.21222761273384L92.278125,47.262600724895805L92.73046875,63.43904489278793L93.1828125,44.36061200002828L93.63515625,62.07065573831399L94.0875,39.61615715424222L94.53984375,35.87166857222715L94.9921875,46.84064379831156L95.44453125000001,44.9240198135376L95.896875,44.838315536578506L96.34921874999999,57.90189508597054L96.8015625,51.292745808760316L97.25390625,49.61431787908077L97.70625,43.38789263367653L98.15859375000001,50.23225611944994L98.6109375,31.863722493251174L99.06328125,34.51736076672873L99.515625,58.97988022863865L99.96796875,54.61684531470138L100.4203125,50.30021584530671L100.87265624999999,23.05156741539639L101.325,54.48885303239027L101.77734375,55.68932100137073L102.2296875,65.0014665375153L102.68203125000001,59.0883329908053L103.134375,61.07871188720067L103.58671875,59.404342785477624L104.0390625,26.137478192647308L104.49140625,62.334765285253525L104.94375,56.0517582197984L105.39609374999999,46.11406230926514L105.8484375,51.446798111001655L106.30078125,56.31568460663159L106.753125,48.78095404803753L107.20546875000001,46.45506246884665L107.6578125,63.270413046081856L108.11015624999999,43.39167305827141L108.5625,53.895128558079406L109.01484375,37.94797886411348L109.4671875,50.0949739565452L109.91953125,54.69843215246995L110.371875,39.702374279499054L110.82421875,42.12819801270962L111.2765625,44.49842899044356L111.72890625000001,51.20987685024738L112.18125,37.66495986779532L112.63359374999999,51.172431598107025L113.0859375,66.01234914362429L113.53828125,41.485108226537704L113.990625,37.27234519024691L114.44296875,51.08715957899889L114.8953125,52.80894516905148L115.34765625,51.76029494901499L115.80000000000001,58.152751167615236L116.25234375000001,45.43801835676035L116.70468749999999,41.613217731316894L117.15703124999999,49.45014048616092L117.609375,54.94149293998875L118.06171875,49.497381140788406L118.5140625,43.914082313577325L118.96640625,49.159663210312516L119.41875,54.35012024144331L119.87109375,55.67848524947961L120.32343750000001,65.65298901498316L120.77578125000001,61.242039417227105L121.22812499999999,50.68945305049421L121.68046874999999,51.10349013408026L122.1328125,40.36908439298472L122.58515625,45.87391010423502L123.0375,53.46048962573211L123.48984375,37.94566372036934L123.9421875,56.96123606463273L124.39453125,49.61044221123059L124.84687500000001,49.88094038267931L125.29921875,39.895849963029235L125.75156249999999,58.79668349027634L126.20390625,68.9476070702076L126.65625,51.42692157626152L127.10859375,62.800431539614976L127.5609375,61.685748438040406L128.01328125,55.1128941675027L128.465625,60.04187915722528L128.91796875,51.30853420992692L129.3703125,48.00853124757609L129.82265625,56.579142103592545L130.275,50.276148607333496L130.72734375000002,59.79403422772883L131.1796875,57.271355430285126L131.63203124999998,61.03481939931709L132.084375,45.8605907013019L132.53671875,46.75565018256506L132.9890625,54.16664509971936L133.44140625,69.55705400804678L133.89375,23.72081979115805L134.34609375,55.01864730318387L134.7984375,62.8053109248479L135.25078125000002,49.04312209784986L135.703125,54.487893273433045L135.929296875,45.968852976957976L136.15546875,51.588857089479774L136.381640625,49.55393365522225L136.6078125,55.437930092215524L136.833984375,59.04357598721981L137.06015625,60.047828197479234L137.286328125,51.86899680892627L137.51250000000002,60.43187830845514L137.738671875,59.43225638568401L137.96484375,59.6408024827639L138.191015625,47.05197392900786L138.4171875,67.47919051845868L138.64335937500002,54.1466953009367L138.86953125000002,57.30053649842738L139.095703125,49.31184727946916L139.321875,66.69569019476572L139.548046875,62.40907700359821L139.77421875000002,65.35008615752061L140.00039062500002,63.807211359341935L140.2265625,52.45202473302682L140.45273437499998,47.88670047124228L140.67890624999998,41.2569639980793L140.905078125,66.15733135739961L141.13125,66.68234148621558L141.357421875,57.628341803948075L141.58359374999998,55.45520575344561L141.80976562499998,59.34014883140722L142.0359375,58.6649913738171L142.262109375,54.19856624305247L142.48828125,65.82018488645554L142.714453125,65.16926317413647L142.94062499999998,71.82305955886841L143.166796875,56.14463504652181L143.39296875,49.87458839019139L143.619140625,54.75946842630702L143.8453125,43.84405654172102L144.071484375,63.06125885744889L144.29765625,65.51823446154594L144.523828125,61.58838052550951L144.75,53.71466456850369L144.976171875,55.65279154976207L145.20234375,48.46605054040751L145.42851562500002,56.50124044716357L145.6546875,53.04948567350705L145.880859375,56.44835846126078L146.10703125,48.7610921661059L146.333203125,65.54865369200706L146.55937500000002,43.02060533563295L146.78554687500002,66.76236047347385L147.01171875,65.82541593909262L147.237890625,58.904630730549485L147.4640625,38.71182977159819L147.69023437500002,60.68037528793015L147.91640625000002,63.428304384152085L148.142578125,34.198325167099654L148.36874999999998,52.547898059089974L148.59492187499998,57.48385045925774L148.82109375,53.393489658832564L149.047265625,54.06806100408235L149.2734375,46.23380506038666L149.49960937499998,51.37690421442191L149.72578124999998,52.1405499825875L149.951953125,48.7847857574622L150.178125,40.48680505653223L150.404296875,57.410344645380974L150.63046875,48.723068128029524L150.85664062499998,52.51947161058585L151.0828125,52.83429452776909L151.308984375,48.60501044988632L151.53515625,56.98917897045611L151.761328125,54.95525925358136L151.9875,59.5586881438891L152.213671875,47.783932998776436L152.43984375,30.04006325205168L152.666015625,60.68845631182194L152.8921875,49.21694836517176L153.118359375,42.85787124435106L153.34453125,46.840086991588294L153.570703125,65.93082091708976L153.796875,60.45034817357856L154.023046875,48.253899852434785L154.24921875,58.79754067957401L154.47539062500002,60.67135648429394L154.7015625,39.2946452299754L154.927734375,63.58940468728541L155.15390625,49.702337299784034L155.380078125,55.49089266856511L155.60625000000002,53.05881218612194L155.83242187500002,54.342639982700334L156.05859375,58.709587196509034L156.284765625,47.81459400057793L156.5109375,55.3443132986625L156.73710937500002,53.096250111858055L156.96328125000002,54.90909558037916L157.189453125,55.07239380478859L157.41562499999998,59.64144720633824L157.64179687499998,59.02834439277649L157.86796875,62.65596950054169L158.094140625,69.17666709919769L158.3203125,51.67511817316213L158.54648437499998,54.95571349064508L158.77265624999998,52.88675158222516L158.998828125,44.081622526049614L159.225,24.975232074658095L159.451171875,58.78438978393872L159.67734375,49.033707668383926L159.90351562499998,40.642923404773086L160.1296875,60.1044100175301L160.355859375,60.0172551125288L160.58203125,66.335678016146L160.808203125,46.81787333389124L161.034375,23.075817813475936L161.260546875,50.17771836618583L161.48671875,63.583001409967736L161.712890625,56.72987554470697L161.9390625,68.88632169862588L162.165234375,51.37197354435922L162.39140625000002,46.516633570194244L162.617578125,60.32330832382043L162.84375,50.72703750431539L163.069921875,63.413168032964066L163.29609375,59.156065598130226L163.52226562500002,64.56569933891296L163.74843750000002,49.79412249227366L163.974609375,67.37805683414139L164.20078125,48.85739042361578L164.426953125,40.56842119991779L164.65312500000002,45.29571760694185L164.87929687500002,53.30949243406455L165.10546875,58.57469344139099L165.33164062499998,45.608621006210655L165.55781249999998,61.46359720826149L165.783984375,41.800495276848466L166.01015625,59.17256466050942L166.236328125,45.06375632186732L166.46249999999998,64.99274811645348L166.68867187499998,61.065590297182396L166.91484375,48.11816356082758L167.141015625,60.384058867891625L167.3671875,49.90753523012003L167.593359375,53.48565582434337L167.81953124999998,48.858035147190094L168.045703125,54.99393534163633L168.271875,39.47170244157314L168.498046875,38.976225048303604L168.72421875,45.39793559908867L168.950390625,52.614692886670426L169.1765625,46.36565835773945L169.402734375,46.979948048790305L169.62890625,64.39040046433607L169.855078125,51.55615202089152L170.08125,46.74710759520531L170.307421875,55.68929169575371L170.53359375,51.92283855378628L170.759765625,50.88528050978978L170.9859375,56.269894580046326L171.212109375,55.414053340752915L171.43828125000002,49.22759363055229L171.664453125,44.121375595529884L171.890625,64.10761591295399L172.116796875,71.76805291573204L172.34296875,50.57390832901001L172.56914062500002,56.93735931317009L172.79531250000002,39.556864564617484L173.021484375,56.19274754325548L173.24765625,65.59816553195316L173.473828125,66.65617889662583L173.70000000000002,42.835291266441345L173.92617187500002,58.94974672794342L174.15234375,51.817418922980636L174.37851562499998,40.386601825555175L174.60468749999998,49.17712203164896L174.830859375,47.86493372420469L175.05703125,57.56311482687791L175.283203125,39.94024064640206L175.50937499999998,58.59135368466377L175.73554687499998,55.366482997934014L175.96171875,54.301223819454506L176.187890625,57.213813851277024L176.4140625,47.78341282407442L176.640234375,55.265334660808236L176.86640624999998,63.87635063628355L177.092578125,51.22532823681833L177.31875,57.608941485484436L177.544921875,68.64577386776604L177.77109375,56.46768551568188L177.997265625,53.76183195908865L178.2234375,28.087195545434952L178.449609375,52.85882332921028L178.67578125,56.709793870647744L178.901953125,47.54487975438437L179.128125,60.812045425176606L179.35429687500002,67.44345964491366L179.58046875,52.74343978861967L179.806640625,50.44358625014624L180.0328125,63.593529452880205L180.258984375,54.41901774704456L180.48515625000002,49.71742969254652L180.71132812500002,56.01453275978565L180.9375,67.87898507217564L181.163671875,51.4678248912096L181.38984375,45.1469036837419L181.61601562500002,43.620886941750854L181.84218750000002,43.51791432996592L182.068359375,62.475798567136124L182.29453124999998,65.95206748942533L182.52070312499998,55.93038168052831L182.746875,52.13038825988771L182.973046875,64.03322360416253L183.19921875,27.167380144198745L183.42539062499998,65.73862002789974L183.65156249999998,57.81674028933048L183.877734375,33.10339405139288L184.10390625,58.539504721760736L184.330078125,63.667042593161256L184.55625,43.00886110961437L184.78242187499998,44.33483770986399L185.00859375,60.16480889419712L185.234765625,42.516988307237625L185.4609375,67.00061513980229L185.687109375,56.71021880209446L185.91328125,64.18643336991468L186.139453125,60.86381379763283L186.365625,48.764792000254005L186.591796875,48.274201318621635L186.81796875,33.25449381272L187.044140625,66.8206566721201L187.2703125,59.54743478695549L187.496484375,41.71051970620951L187.72265625,50.013621563712746L187.948828125,56.75120270748933L188.175,63.39107159773506L188.40117187500002,50.166010772188514L188.62734375,66.20435954630373L188.853515625,40.89007232586545L189.0796875,44.37894998987517L189.305859375,50.20962485671045L189.53203125000002,43.398347412546485L189.75820312500002,49.061467414100974L189.984375,36.69985263546309L190.210546875,55.42764382064341L190.43671875,52.15173740188281L190.66289062500002,48.082659805814416L190.88906250000002,53.03651061157386L191.115234375,49.33133551478387L191.34140624999998,69.13051075239974L191.56757812499998,47.738567903637886L191.79375,64.6477477401495L192.019921875,43.050570329030364L192.24609375,46.64304334918657L192.47226562499998,52.656870995958656L192.69843749999998,50.92990563809872L192.924609375,63.639803022146225L193.15078125,56.357862715919794L193.376953125,53.75263732175033L193.603125,18.68092769384384L193.82929687499998,56.80395281811555L194.05546875,-3.5733329355716705L194.281640625,52.87995267907779L194.5078125,62.18480111658572L194.733984375,12.623017072677612L194.96015625,54.31778149306773L195.186328125,63.82319024701911L195.4125,66.70736848314601L195.638671875,42.780247991283744L195.86484375,51.72816866636278L196.091015625,70.2955042719841L196.31718750000002,59.15635865430035L196.543359375,48.644770845770836L196.76953125,31.24058250586191L196.995703125,53.74846127132574L197.221875,61.7531220515569L197.44804687500002,58.536456937591225L197.67421875000002,45.86080316702524L197.900390625,46.25923500955105L198.1265625,47.194457838932664L198.352734375,37.626869892080634L198.57890625000002,60.16697750985621L198.80507812500002,31.090918719768524L199.03125,60.276368051767335L199.25742187499998,58.49050573011239L199.48359374999998,44.54154487947622L199.709765625,41.932612324754416L199.9359375,37.07717710733414L200.162109375,59.658686235547066L200.38828124999998,33.241467465957015L200.61445312499998,46.70769886672497L200.840625,60.23038753867149L201.066796875,32.19201866785684L201.29296875,46.232574224472046L201.519140625,48.29742602010569L201.74531249999998,51.87914387881756L201.971484375,50.45726464688778L202.19765625,42.9704854041338L202.423828125,51.37158524493377L202.65,51.850167949994415L202.876171875,29.57640443245569L203.10234375,58.15135182440281L203.328515625,57.43842675288518L203.5546875,36.93947733938694L203.780859375,42.48664234081903L204.00703125,53.39836171766122L204.233203125,61.5217542052269L204.459375,46.51658961176872L204.685546875,58.021249537666634L204.91171875,46.69605721036592L205.137890625,62.14156067868073L205.36406250000002,21.129148244857788L205.590234375,60.255898078282655L205.81640625,45.18959464132786L206.042578125,50.17954996724923L206.26875,49.887101888656616L206.49492187500002,43.68837777773538L206.72109375000002,9.979606459538132L206.947265625,58.49367073674996L207.1734375,56.99662992358206L207.399609375,23.460043758153915L207.62578125000002,45.87330201268196L207.85195312500002,42.78346428275108L208.078125,41.27983703215918L208.30429687499998,56.95588046312331L208.53046874999998,56.740718623002365L208.756640625,54.41089276472725L208.9828125,13.060784379641206L209.208984375,59.311854258179665L209.43515624999998,28.515643666187913L209.66132812499998,57.87906601031621L209.8875,39.51800531645617L210.113671875,49.27561821043493L210.33984375,42.10627008477846L210.566015625,51.51527801156044L210.79218749999998,22.979211846987397L211.018359375,37.044948255022376L211.24453125,26.41848975419998L211.470703125,33.843829770882934L211.696875,48.123174821337074L211.923046875,55.438377002875L212.14921875,29.66981608668962L212.375390625,52.46830400327842L212.6015625,43.64499813814959L212.827734375,40.26801664630574L213.05390625,27.871887177228928L213.28007812500002,44.77028254667917L213.50625,24.181123117605836L213.732421875,49.3813821822405L213.95859375,52.95927565793197L214.184765625,28.41155011455217L214.41093750000002,37.508013635873795L214.63710937500002,15.174539923667908L214.86328125,58.02683958411215L215.089453125,42.72092609604201L215.315625,65.2776719778776L215.54179687500002,37.189454252521216L215.76796875000002,62.96435983479023L215.994140625,58.16506685316563L216.22031249999998,49.58186190823713L216.44648437499998,25.331148793300002L216.67265625,44.87044914563498L216.898828125,50.32422447204591L217.125,41.45882108807564L217.35117187499998,46.155947362383216L217.57734374999998,27.291665265957505L217.803515625,47.314281180500984L218.0296875,10.21582438548407L218.255859375,52.819832205772414L218.48203125,44.78188757101694L218.70820312499998,56.815513884027794L218.934375,30.033396224180848L219.160546875,62.331189999977724L219.38671875,25.438656449317932L219.612890625,40.44648052752018L219.8390625,16.09815040230751L220.065234375,49.27363275488217L220.29140625,51.01695064703624L220.517578125,49.7987454533577L220.74375,50.31723508238794L220.969921875,28.541242122650146L221.19609375,63.76062275469303L221.422265625,56.81730885306993L221.6484375,49.730573261777565L221.874609375,26.585751563310623L222.10078125,35.18121358255544L222.32695312500002,-53.49218394358954L222.553125,27.352972616751998L222.779296875,54.778612320621804L223.00546875,58.95973261694111L223.231640625,20.509861946105957L223.45781250000002,24.21356443564096L223.68398437500002,24.57906409104666L223.91015625,5.116075565417617L224.136328125,43.770382220546395L224.3625,51.62617046634357L224.58867187500002,36.19662390649319L224.81484375000002,28.260875284671783L225.041015625,13.433830231428146L225.26718749999998,7.853630473216384L225.49335937499998,52.68997901678085L225.71953125,37.558690374096244L225.945703125,51.59630804260573L226.171875,-9.294316877921432L226.39804687499998,18.87685039639473L226.62421874999998,40.90788281460604L226.850390625,44.53898796439171L227.0765625,30.468232969443022L227.302734375,45.58634141087532L227.52890625,58.309147919217736L227.75507812499998,39.92018095155558L227.98125,33.802289058764785L228.207421875,50.561805109183L228.43359375,46.725113729635865L228.659765625,43.35914382338524L228.8859375,56.38400332629679L229.112109375,52.775360931952804L229.33828125,62.18910904228687L229.564453125,43.42901574075222L229.790625,46.54245914518833L230.016796875,44.50030454993248L230.24296875000002,40.18687671919665L230.469140625,28.449398318926484L230.6953125,60.73408515751362L230.921484375,45.952375893791526L231.14765625,34.20061100522676L231.37382812500002,32.20590953032175L231.60000000000002,56.11560050646463L231.826171875,42.285473932822555L232.05234375,37.34503777325153L232.278515625,28.70136801401776L232.50468750000002,30.89750164747238L232.73085937500002,29.433495591084153L232.95703125,41.66728659470877L233.18320312499998,40.475786144534766L233.40937499999998,32.27149550120038L233.635546875,23.228412161270796L233.86171875,45.990656356016785L234.087890625,50.3386062035958L234.31406249999998,38.57734629511833L234.54023437499998,61.267007802923516L234.76640625,58.92395045856634L234.992578125,57.570404599110276L235.21875,11.496333320935577L235.444921875,53.540186251203224L235.67109374999998,14.15451396505037L235.897265625,48.407160903016745L236.1234375,28.847529778877885L236.349609375,54.34146043161549L236.57578125,69.74301280081272L236.801953125,38.47537007431191L237.028125,18.68261276682219L237.254296875,36.17589018245539L237.48046875,38.4350235660871L237.706640625,46.98107631504536L237.9328125,46.928509364525496L238.158984375,40.14364360769591L238.38515625,25.009563604990632L238.611328125,47.359968637426704L238.8375,42.68315115571022L239.063671875,42.97851514319581L239.28984375000002,53.63747357328734L239.516015625,23.700672179460526L239.7421875,40.655554125706345L239.968359375,47.6535596350829L240.19453125,22.783963173627853L240.42070312500002,61.36940895517667L240.64687500000002,49.31831649442515L240.873046875,36.19573008517423L241.09921875,48.01314688225588L241.325390625,38.904968440532684L241.55156250000002,31.38955760995546L241.77773437500002,65.37915732959904L242.00390625,24.106686850388854L242.23007812499998,38.84299438695112L242.45624999999998,29.528519054253906L242.682421875,46.31858621040982L242.90859375,43.678003589312226L243.134765625,33.602175652980804L243.36093749999998,62.73629619677861L243.58710937499998,29.657507727543504L243.81328125,59.59891742964585L244.039453125,51.3384698977073L244.265625,40.2369966506958L244.491796875,24.08815104762712L244.71796874999998,46.43514930208525L244.944140625,43.26622303823629L245.1703125,58.855272745092705L245.396484375,28.700957735379546L245.62265625,42.02848565081757L245.848828125,53.661863173047706L246.075,53.81644297639528L246.301171875,54.78785824278988L246.52734375,38.98720732827982L246.753515625,35.92844820519289L246.9796875,45.10414678851765L247.20585937500002,60.95209696888922L247.43203125,55.370893493294716L247.658203125,36.551353747646004L247.884375,39.58574525018534L248.110546875,35.623164266347885L248.33671875000002,35.862847581505775L248.56289062500002,12.912160942951829L248.7890625,30.98851024111113L249.015234375,25.040187974770873L249.24140625,55.95154033601284L249.46757812500002,47.42721770207086L249.69375000000002,25.85346280535063L249.919921875,32.16135033965111L250.14609374999998,37.749953483541816L250.37226562499998,49.95755259195964L250.5984375,17.38512122631073L250.824609375,60.00248508155346L251.05078125,22.59420930345854L251.27695312499998,49.31341512997946L251.50312499999998,45.53200147052607L251.729296875,51.89913763602574L251.95546875,48.49636720120907L252.181640625,42.797589590152114L252.4078125,63.92344476282595L252.63398437499998,19.005619277556747L252.86015625,48.10995066165924L253.086328125,38.51866179704666L253.3125,18.4921555618445L253.538671875,57.153524870673806L253.76484375,20.916623910268157L253.991015625,41.229292169213295" style="fill: none;" fill="none"></path></g></g></g></g></g></g><g transform="translate(58, 177)" clip-path="url(#clip_1)"><clipPath id="clip_1"><rect width="271" height="23"></rect></clipPath><g><g><line x1="0" y1="0" x2="0" y2="5" style="visibility: inherit;" fill="rgb(0, 0, 0)" stroke="rgb(204, 204, 204)" stroke-width="1px"></line><line x1="22.6171875" y1="0" x2="22.6171875" y2="5" style="visibility: inherit;" fill="rgb(0, 0, 0)" stroke="rgb(204, 204, 204)" stroke-width="1px"></line><line x1="45.234375" y1="0" x2="45.234375" y2="5" style="visibility: inherit;" fill="rgb(0, 0, 0)" stroke="rgb(204, 204, 204)" stroke-width="1px"></line><line x1="67.8515625" y1="0" x2="67.8515625" y2="5" style="visibility: inherit;" fill="rgb(0, 0, 0)" stroke="rgb(204, 204, 204)" stroke-width="1px"></line><line x1="90.46875" y1="0" x2="90.46875" y2="5" style="visibility: inherit;" fill="rgb(0, 0, 0)" stroke="rgb(204, 204, 204)" stroke-width="1px"></line><line x1="113.0859375" y1="0" x2="113.0859375" y2="5" style="visibility: inherit;" fill="rgb(0, 0, 0)" stroke="rgb(204, 204, 204)" stroke-width="1px"></line><line x1="135.703125" y1="0" x2="135.703125" y2="5" style="visibility: inherit;" fill="rgb(0, 0, 0)" stroke="rgb(204, 204, 204)" stroke-width="1px"></line><line x1="158.3203125" y1="0" x2="158.3203125" y2="5" style="visibility: inherit;" fill="rgb(0, 0, 0)" stroke="rgb(204, 204, 204)" stroke-width="1px"></line><line x1="180.9375" y1="0" x2="180.9375" y2="5" style="visibility: inherit;" fill="rgb(0, 0, 0)" stroke="rgb(204, 204, 204)" stroke-width="1px"></line><line x1="203.5546875" y1="0" x2="203.5546875" y2="5" style="visibility: inherit;" fill="rgb(0, 0, 0)" stroke="rgb(204, 204, 204)" stroke-width="1px"></line><line x1="226.171875" y1="0" x2="226.171875" y2="5" style="visibility: inherit;" fill="rgb(0, 0, 0)" stroke="rgb(204, 204, 204)" stroke-width="1px"></line><line x1="248.7890625" y1="0" x2="248.7890625" y2="5" style="visibility: inherit;" fill="rgb(0, 0, 0)" stroke="rgb(204, 204, 204)" stroke-width="1px"></line><line x1="271.40625" y1="0" x2="271.40625" y2="5" style="visibility: inherit;" fill="rgb(0, 0, 0)" stroke="rgb(204, 204, 204)" stroke-width="1px"></line></g><g transform="translate(0, 8)"><text x="0" y="0" dx="0em" dy="0.95em" style="text-anchor: middle; visibility: hidden; font-family: &quot;Helvetica Neue&quot;, sans-serif; font-size: 12px; font-weight: 200;" fill="rgb(50, 49, 63)" stroke="none" stroke-width="1px">-100</text><text x="22.6171875" y="0" dx="0em" dy="0.95em" style="text-anchor: middle; visibility: inherit; font-family: &quot;Helvetica Neue&quot;, sans-serif; font-size: 12px; font-weight: 200;" fill="rgb(50, 49, 63)" stroke="none" stroke-width="1px">0</text><text x="45.234375" y="0" dx="0em" dy="0.95em" style="text-anchor: middle; visibility: hidden; font-family: &quot;Helvetica Neue&quot;, sans-serif; font-size: 12px; font-weight: 200;" fill="rgb(50, 49, 63)" stroke="none" stroke-width="1px">100</text><text x="67.8515625" y="0" dx="0em" dy="0.95em" style="text-anchor: middle; visibility: inherit; font-family: &quot;Helvetica Neue&quot;, sans-serif; font-size: 12px; font-weight: 200;" fill="rgb(50, 49, 63)" stroke="none" stroke-width="1px">200</text><text x="90.46875" y="0" dx="0em" dy="0.95em" style="text-anchor: middle; visibility: hidden; font-family: &quot;Helvetica Neue&quot;, sans-serif; font-size: 12px; font-weight: 200;" fill="rgb(50, 49, 63)" stroke="none" stroke-width="1px">300</text><text x="113.0859375" y="0" dx="0em" dy="0.95em" style="text-anchor: middle; visibility: inherit; font-family: &quot;Helvetica Neue&quot;, sans-serif; font-size: 12px; font-weight: 200;" fill="rgb(50, 49, 63)" stroke="none" stroke-width="1px">400</text><text x="135.703125" y="0" dx="0em" dy="0.95em" style="text-anchor: middle; visibility: hidden; font-family: &quot;Helvetica Neue&quot;, sans-serif; font-size: 12px; font-weight: 200;" fill="rgb(50, 49, 63)" stroke="none" stroke-width="1px">500</text><text x="158.3203125" y="0" dx="0em" dy="0.95em" style="text-anchor: middle; visibility: inherit; font-family: &quot;Helvetica Neue&quot;, sans-serif; font-size: 12px; font-weight: 200;" fill="rgb(50, 49, 63)" stroke="none" stroke-width="1px">600</text><text x="180.9375" y="0" dx="0em" dy="0.95em" style="text-anchor: middle; visibility: hidden; font-family: &quot;Helvetica Neue&quot;, sans-serif; font-size: 12px; font-weight: 200;" fill="rgb(50, 49, 63)" stroke="none" stroke-width="1px">700</text><text x="203.5546875" y="0" dx="0em" dy="0.95em" style="text-anchor: middle; visibility: inherit; font-family: &quot;Helvetica Neue&quot;, sans-serif; font-size: 12px; font-weight: 200;" fill="rgb(50, 49, 63)" stroke="none" stroke-width="1px">800</text><text x="226.171875" y="0" dx="0em" dy="0.95em" style="text-anchor: middle; visibility: hidden; font-family: &quot;Helvetica Neue&quot;, sans-serif; font-size: 12px; font-weight: 200;" fill="rgb(50, 49, 63)" stroke="none" stroke-width="1px">900</text><text x="248.7890625" y="0" dx="0em" dy="0.95em" style="text-anchor: middle; visibility: inherit; font-family: &quot;Helvetica Neue&quot;, sans-serif; font-size: 12px; font-weight: 200;" fill="rgb(50, 49, 63)" stroke="none" stroke-width="1px">1k</text><text x="271.40625" y="0" dx="0em" dy="0.95em" style="text-anchor: middle; visibility: hidden; font-family: &quot;Helvetica Neue&quot;, sans-serif; font-size: 12px; font-weight: 200;" fill="rgb(50, 49, 63)" stroke="none" stroke-width="1px">1.1k</text></g><line x1="0" y1="0" x2="271.40625" y2="0" fill="rgb(0, 0, 0)" stroke="rgb(204, 204, 204)" stroke-width="1px"></line></g></g></g></g></svg>