<svg viewBox="0 0 330 200" xmlns="http://www.w3.org/2000/svg"><g><g><g><g><g><line x1="58.59375" y1="177" x2="53.59375" y2="177" style="visibility: inherit;" fill="rgb(0, 0, 0)" stroke="rgb(204, 204, 204)" stroke-width="1px"></line><line x1="58.59375" y1="154.875" x2="53.59375" y2="154.875" style="visibility: inherit;" fill="rgb(0, 0, 0)" stroke="rgb(204, 204, 204)" stroke-width="1px"></line><line x1="58.59375" y1="132.75" x2="53.59375" y2="132.75" style="visibility: inherit;" fill="rgb(0, 0, 0)" stroke="rgb(204, 204, 204)" stroke-width="1px"></line><line x1="58.59375" y1="110.62499999999999" x2="53.59375" y2="110.62499999999999" style="visibility: inherit;" fill="rgb(0, 0, 0)" stroke="rgb(204, 204, 204)" stroke-width="1px"></line><line x1="58.59375" y1="88.49999999999999" x2="53.59375" y2="88.49999999999999" style="visibility: inherit;" fill="rgb(0, 0, 0)" stroke="rgb(204, 204, 204)" stroke-width="1px"></line><line x1="58.59375" y1="66.375" x2="53.59375" y2="66.375" style="visibility: inherit;" fill="rgb(0, 0, 0)" stroke="rgb(204, 204, 204)" stroke-width="1px"></line><line x1="58.59375" y1="44.25" x2="53.59375" y2="44.25" style="visibility: inherit;" fill="rgb(0, 0, 0)" stroke="rgb(204, 204, 204)" stroke-width="1px"></line><line x1="58.59375" y1="22.125" x2="53.59375" y2="22.125" style="visibility: inherit;" fill="rgb(0, 0, 0)" stroke="rgb(204, 204, 204)" stroke-width="1px"></line><line x1="58.59375" y1="0" x2="53.59375" y2="0" style="visibility: inherit;" fill="rgb(0, 0, 0)" stroke="rgb(204, 204, 204)" stroke-width="1px"></line></g><g transform="translate(48.59375, 0)"><text x="0" y="177" dx="0em" dy="0.3em" style="text-anchor: end; visibility: hidden; font-family: &quot;Helvetica Neue&quot;, sans-serif; font-size: 12px; font-weight: 200;" fill="rgb(50, 49, 63)" stroke="none" stroke-width="1px">-0.05</text><text x="0" y="154.875" dx="0em" dy="0.3em" style="text-anchor: end; visibility: inherit; font-family: &quot;Helvetica Neue&quot;, sans-serif; font-size: 12px; font-weight: 200;" fill="rgb(50, 49, 63)" stroke="none" stroke-width="1px">0</text><text x="0" y="132.75" dx="0em" dy="0.3em" style="text-anchor: end; visibility: hidden; font-family: &quot;Helvetica Neue&quot;, sans-serif; font-size: 12px; font-weight: 200;" fill="rgb(50, 49, 63)" stroke="none" stroke-width="1px">0.05</text><text x="0" y="110.62499999999999" dx="0em" dy="0.3em" style="text-anchor: end; visibility: inherit; font-family: &quot;Helvetica Neue&quot;, sans-serif; font-size: 12px; font-weight: 200;" fill="rgb(50, 49, 63)" stroke="none" stroke-width="1px">0.1</text><text x="0" y="88.49999999999999" dx="0em" dy="0.3em" style="text-anchor: end; visibility: hidden; font-family: &quot;Helvetica Neue&quot;, sans-serif; font-size: 12px; font-weight: 200;" fill="rgb(50, 49, 63)" stroke="none" stroke-width="1px">0.15</text><text x="0" y="66.375" dx="0em" dy="0.3em" style="text-anchor: end; visibility: inherit; font-family: &quot;Helvetica Neue&quot;, sans-serif; font-size: 12px; font-weight: 200;" fill="rgb(50, 49, 63)" stroke="none" stroke-width="1px">0.2</text><text x="0" y="44.25" dx="0em" dy="0.3em" style="text-anchor: end; visibility: hidden; font-family: &quot;Helvetica Neue&quot;, sans-serif; font-size: 12px; font-weight: 200;" fill="rgb(50, 49, 63)" stroke="none" stroke-width="1px">0.25</text><text x="0" y="22.125" dx="0em" dy="0.3em" style="text-anchor: end; visibility: inherit; font-family: &quot;Helvetica Neue&quot;, sans-serif; font-size: 12px; font-weight: 200;" fill="rgb(50, 49, 63)" stroke="none" stroke-width="1px">0.3</text><text x="0" y="0" dx="0em" dy="0.3em" style="text-anchor: end; visibility: hidden; font-family: &quot;Helvetica Neue&quot;, sans-serif; font-size: 12px; font-weight: 200;" fill="rgb(50, 49, 63)" stroke="none" stroke-width="1px">0.35</text></g><line x1="58.59375" y1="0" x2="58.59375" y2="177" fill="rgb(0, 0, 0)" stroke="rgb(204, 204, 204)" stroke-width="1px"></line></g></g><g transform="translate(58, 0)" clip-path="url(#clip_0)"><clipPath id="clip_0"><rect width="271" height="177"></rect></clipPath><g><g><g><line x1="0" y1="0" x2="0" y2="177" fill="rgb(0, 0, 0)" stroke="rgb(60, 60, 60)" stroke-width="1px" opacity="0.25"></line><line x1="22.6171875" y1="0" x2="22.6171875" y2="177" fill="rgb(0, 0, 0)" stroke="rgb(60, 60, 60)" stroke-width="1px" opacity="0.25"></line><line x1="45.234375" y1="0" x2="45.234375" y2="177" fill="rgb(0, 0, 0)" stroke="rgb(60, 60, 60)" stroke-width="1px" opacity="0.25"></line><line x1="67.8515625" y1="0" x2="67.8515625" y2="177" fill="rgb(0, 0, 0)" stroke="rgb(60, 60, 60)" stroke-width="1px" opacity="0.25"></line><line x1="90.46875" y1="0" x2="90.46875" y2="177" fill="rgb(0, 0, 0)" stroke="rgb(60, 60, 60)" stroke-width="1px" opacity="0.25"></line><line x1="113.0859375" y1="0" x2="113.0859375" y2="177" fill="rgb(0, 0, 0)" stroke="rgb(60, 60, 60)" stroke-width="1px" opacity="0.25"></line><line x1="135.703125" y1="0" x2="135.703125" y2="177" fill="rgb(0, 0, 0)" stroke="rgb(60, 60, 60)" stroke-width="1px" opacity="0.25"></line><line x1="158.3203125" y1="0" x2="158.3203125" y2="177" fill="rgb(0, 0, 0)" stroke="rgb(60, 60, 60)" stroke-width="1px" opacity="0.25"></line><line x1="180.9375" y1="0" x2="180.9375" y2="177" fill="rgb(0, 0, 0)" stroke="rgb(60, 60, 60)" stroke-width="1px" opacity="0.25"></line><line x1="203.5546875" y1="0" x2="203.5546875" y2="177" fill="rgb(0, 0, 0)" stroke="rgb(60, 60, 60)" stroke-width="1px" opacity="0.25"></line><line x1="226.171875" y1="0" x2="226.171875" y2="177" fill="rgb(0, 0, 0)" stroke="rgb(60, 60, 60)" stroke-width="1px" opacity="0.25"></line><line x1="248.7890625" y1="0" x2="248.7890625" y2="177" fill="rgb(0, 0, 0)" stroke="rgb(60, 60, 60)" stroke-width="1px" opacity="0.25"></line><line x1="271.40625" y1="0" x2="271.40625" y2="177" fill="rgb(0, 0, 0)" stroke="rgb(60, 60, 60)" stroke-width="1px" opacity="0.25"></line></g><g><line x1="0" y1="177" x2="271.40625" y2="177" fill="rgb(0, 0, 0)" stroke="rgb(60, 60, 60)" stroke-width="1px" opacity="0.25"></line><line x1="0" y1="154.875" x2="271.40625" y2="154.875" fill="rgb(0, 0, 0)" stroke="rgb(60, 60, 60)" stroke-width="1px" opacity="0.25"></line><line x1="0" y1="132.75" x2="271.40625" y2="132.75" fill="rgb(0, 0, 0)" stroke="rgb(60, 60, 60)" stroke-width="1px" opacity="0.25"></line><line x1="0" y1="110.62499999999999" x2="271.40625" y2="110.62499999999999" fill="rgb(0, 0, 0)" stroke="rgb(60, 60, 60)" stroke-width="1px" opacity="0.25"></line><line x1="0" y1="88.49999999999999" x2="271.40625" y2="88.49999999999999" fill="rgb(0, 0, 0)" stroke="rgb(60, 60, 60)" stroke-width="1px" opacity="0.25"></line><line x1="0" y1="66.375" x2="271.40625" y2="66.375" fill="rgb(0, 0, 0)" stroke="rgb(60, 60, 60)" stroke-width="1px" opacity="0.25"></line><line x1="0" y1="44.25" x2="271.40625" y2="44.25" fill="rgb(0, 0, 0)" stroke="rgb(60, 60, 60)" stroke-width="1px" opacity="0.25"></line><line x1="0" y1="22.125" x2="271.40625" y2="22.125" fill="rgb(0, 0, 0)" stroke="rgb(60, 60, 60)" stroke-width="1px" opacity="0.25"></line><line x1="0" y1="0" x2="271.40625" y2="0" fill="rgb(0, 0, 0)" stroke="rgb(60, 60, 60)" stroke-width="1px" opacity="0.25"></line></g></g></g><g><g><line x1="0" y1="154.875" x2="271.40625" y2="154.875" fill="rgb(0, 0, 0)" stroke="rgb(153, 153, 153)" stroke-width="1.5px"></line></g></g><g><g><line x1="22.6171875" y1="0" x2="22.6171875" y2="177" fill="rgb(0, 0, 0)" stroke="rgb(153, 153, 153)" stroke-width="1.5px"></line></g></g><g><g><g><g><g><path stroke="rgb(0, 153, 136)" stroke-width="2px" d="M24.200390625,-11.396118074655533L24.4265625,26.388799354434013L24.652734375,39.346112340688705L24.87890625,40.56171226501465L25.105078125,41.42090606689453L25.33125,41.99193920195103L25.557421875,42.15554367005825L25.78359375,42.38830353319645L26.009765625,42.52880345284939L26.2359375,42.65701259672642L26.462109375,42.64386463165283L26.68828125,42.84059616923332L26.914453125,42.73477944731712L27.140625,43.076441913843155L27.366796875,43.056805685162544L27.59296875,43.022267550230026L27.819140625,43.19886173307896L28.0453125,43.27201294898987L28.271484375,43.22324547171593L28.49765625,43.27426801621914L28.723828125,43.18678195774555L28.950000000000003,43.53166218101978L29.176171874999998,43.37838354706764L29.40234375,43.548542216420174L29.628515625,43.59236437082291L29.8546875,45.6762443035841L30.080859375000003,52.05937694013119L30.307031249999998,56.90551641583443L30.533203125,65.65629161149263L30.759375,69.65927331894636L30.985546875,71.87248992919922L31.211718750000003,72.82565805315971L31.437890624999998,73.91131467372179L31.6640625,74.65145806968212L32.11640625,75.81753223389387L32.342578125,76.35168644785881L32.56875,76.48432000726461L32.794921875,76.40195070952177L33.02109375,77.7878148034215L33.247265625,77.92701575160027L33.4734375,78.15588529407978L33.699609375,78.12208566069603L33.92578125,78.9572583809495L34.151953125,79.31210178136826L34.378125000000004,79.27691086381674L34.604296875,79.74734953790903L34.83046875,80.46490269899368L35.056640625,80.20184449106455L35.2828125,80.86851357668638L35.508984375,81.11801500618458L35.735156249999996,80.79943071305752L35.961328125,81.74697435647249L36.1875,81.4636403247714L36.413671875,81.73345714062452L36.639843750000004,82.25700858235359L36.866015625,82.24053076654673L37.092187499999994,82.88627783954144L37.318359375,82.43829752504826L37.54453125,82.83294747769833L37.770703125,82.90658663213253L37.996875,83.46932481229305L38.223046875,83.65582942217588L38.44921875,84.05402681976557L38.675390625,83.53091056644917L38.901562500000004,83.84045480936766L39.127734375,83.97465768456459L39.353906249999994,84.47673983126879L39.580078125,84.52029164135456L39.80625,84.99366454035044L40.032421875,84.62560723721981L40.25859375,85.28560343384743L40.484765625,85.06506840884686L40.7109375,85.12074615061283L40.937109375000006,85.61694006621838L41.163281250000004,85.59978968650103L41.389453124999996,85.78668332844973L41.615624999999994,86.3389637991786L41.841796875,85.86512274295092L42.06796875,85.82990545034409L42.294140625,86.34511578083038L42.5203125,86.61420728266239L42.746484375,86.56692340224981L42.97265625,86.93603570759296L43.198828125000006,87.0421887114644L43.425000000000004,87.21367272734642L43.651171874999996,87.3419412150979L43.877343749999994,87.50515005737543L44.103515625,87.50760953128338L44.3296875,87.72847424447536L44.555859375,87.94150556623936L44.78203125,88.21111138164997L45.008203125,87.53269220888615L45.234375,87.80614878237247L45.460546875000006,88.73039006441832L45.68671875,88.54388545453548L45.912890624999996,88.58623719960451L46.1390625,88.86595125496387L46.365234375,88.74748110026121L46.59140625,88.6005061045289L46.817578125,88.82160159945488L47.04375,88.64777679741383L47.269921875,89.16104196757078L47.49609375,89.07177559286356L47.722265625000006,89.06209594756365L47.9484375,89.53901629149914L48.174609374999996,89.24947752803564L48.40078125,89.6136708855629L48.626953125,89.72016017138958L48.853125,89.7415239661932L49.079296875000004,89.74801222980022L49.30546875,89.6355687752366L49.531640625,90.03923240303993L49.7578125,89.5987491980195L49.983984375,90.38513465970755L50.21015625,89.80982876569033L50.436328124999996,90.1726967766881L50.6625,89.94018088281155L50.888671875,90.06221826374531L51.11484375,90.33709909021854L51.341015625000004,90.85410951822996L51.5671875,90.30055645108223L51.793359375,90.55878802388906L52.01953125,90.59450644254684L52.245703125,90.65130512416363L52.471875,90.93879982084036L52.698046874999996,90.77787901461124L52.92421875,90.6988923177123L53.150390625,91.01107406616211L53.3765625,90.29491878300905L53.602734375000004,91.04102294147015L53.82890625,91.37371129542589L54.055078124999994,91.25652033090591L54.28125,91.07376097887754L54.507421875,91.1770259141922L54.73359375,91.63291215151548L54.959765625,91.8124867156148L55.1859375,91.36157217621803L55.412109375,91.30197773873806L55.63828125,91.57122749090195L55.864453125000004,91.4236590564251L56.090625,91.71293406933546L56.316796874999994,91.67422867566347L56.54296875,91.68408635258675L56.769140625,91.54734487831593L56.9953125,91.71793873608112L57.221484375,91.89062941074371L57.44765625,91.74815795570612L57.673828125,91.79909478127956L57.900000000000006,91.94225858151913L58.126171875000004,91.94016176462173L58.352343749999996,92.17863182723522L58.578515624999994,91.74873820692301L58.8046875,92.14643447846174L59.030859375,92.59535110741854L59.25703125,92.27751190960407L59.483203125,92.39288958907127L59.709375,91.97750224918127L59.935546875,92.76010948419571L60.161718750000006,92.23554919660091L60.387890625000004,92.4532884657383L60.614062499999996,92.78873960673809L60.840234374999994,92.51920632272959L61.06640625,92.45308405905962L61.292578125,92.22310676425695L61.51875,92.18070886284113L61.744921875,92.23366997390985L61.97109375,92.68341741710901L62.197265625,92.68867924064398L62.423437500000006,92.65148381888866L62.649609375,92.79257058352232L62.875781249999996,92.64585933834314L63.101953125,92.70730662345886L63.328125,92.79532018303871L63.554296875,92.87873129546642L63.78046875,92.7563312575221L64.006640625,93.14288406819105L64.2328125,93.24020802229643L64.458984375,93.27038767933846L64.68515625,93.20203672349453L64.911328125,93.3401431068778L65.1375,93.00278636813164L65.36367187500001,93.28385873883963L65.58984375,93.33722206950188L65.81601562499999,93.29127672314644L66.0421875,93.03199014812708L66.268359375,93.26837658137083L66.49453125,93.26798754930496L66.720703125,93.47959461808205L66.946875,93.59184025973082L67.173046875,93.57205896824598L67.39921875,93.73392927646637L67.62539062500001,93.73044776916504L67.8515625,93.81146534532309L68.077734375,93.56452229619026L68.30390625,93.68071100860834L68.530078125,93.69296881556511L68.75625000000001,93.97579512745142L68.982421875,93.9511674195528L69.20859375,93.89433576911688L69.43476562500001,93.83320498466492L69.6609375,93.97619734704494L69.88710937500001,93.9466440975666L70.11328125,94.10094476491213L70.33945312499999,93.89336648583412L70.565625,94.25341895967722L70.79179687499999,94.08691323548555L71.01796875,94.3628688454628L71.244140625,94.02797158062458L71.47031249999999,94.24933741986752L71.696484375,94.46705690771341L71.92265625,94.17988530546427L72.148828125,94.04165364056826L72.375,94.38164788484573L72.601171875,94.19286842644215L72.82734375,94.57972455024719L73.053515625,94.57332200556993L73.505859375,94.38326995074749L73.73203125,94.26555148512125L73.95820312500001,94.7283545807004L74.18437499999999,94.43484637141228L74.410546875,94.57599247992039L74.63671875,94.76259599626064L74.86289062499999,94.76425762474537L75.0890625,94.79594725370407L75.315234375,94.88313659280539L75.54140625,94.83998700231314L75.767578125,94.71063054352999L75.99375,94.82230912148952L76.219921875,95.17237863689661L76.44609375,94.74990959465504L76.672265625,95.04304855316877L76.8984375,95.32417367398739L77.124609375,94.89654171466827L77.35078125,95.42108881473541L77.576953125,94.94937095046043L77.80312500000001,95.52803307026625L78.029296875,95.42435932159424L78.25546875,95.54102278500795L78.48164062500001,95.5043548643589L78.70781249999999,95.44779355823994L78.933984375,95.43047833442688L79.16015625,95.80279520899057L79.38632812499999,96.10680728405714L79.6125,95.77713228017092L79.838671875,95.52881772816181L80.06484375,95.58229974657297L80.291015625,96.02089054137468L80.5171875,95.55036614835262L80.743359375,95.77311008423567L80.96953125,95.7145904302597L81.19570312500001,95.56909243762493L81.421875,95.63067819178104L81.648046875,95.81873233616352L81.87421875000001,95.87157475948334L82.100390625,96.03062293678522L82.32656250000001,95.96660408377647L82.552734375,96.30484438687563L83.005078125,96.62933669239283L83.23124999999999,96.43444481492043L83.457421875,96.24268497526646L83.68359375,96.17334495484829L83.90976562499999,96.54274738579988L84.1359375,96.6476343870163L84.362109375,96.17300207912922L84.58828125,96.6600636318326L84.814453125,96.64686291664839L85.040625,96.60094394534826L85.266796875,96.66299126297235L85.49296875,96.489562086761L85.71914062500001,96.7302278727293L85.9453125,96.72797939926386L86.171484375,96.6926170438528L86.39765625000001,96.38141117244959L86.623828125,96.71337421238422L86.85000000000001,96.94529666751623L87.076171875,96.71149498969316L87.30234374999999,96.56579259037971L87.528515625,96.66860914975405L87.980859375,97.25629813224077L88.20703125,97.15229469537735L88.43320312499999,97.13030449301004L88.659375,96.92432190477848L88.885546875,97.23999834805727L89.11171875,96.99833030998707L89.337890625,96.91825564205647L89.5640625,97.29607830941677L89.790234375,96.79906017333269L90.01640625,97.2730001360178L90.24257812500001,97.40746676176786L90.46875,97.40360940992832L90.694921875,97.62263446301222L90.92109375000001,97.39795196056366L91.14726562499999,97.53549787402153L91.3734375,97.41429790109396L91.599609375,97.43833217024803L91.82578124999999,97.49991792440414L92.051953125,97.47676721960306L92.278125,97.73800554871559L92.504296875,97.88846864551306L92.73046875,97.96029451489449L92.956640625,97.71551422029734L93.408984375,97.99708771705627L93.63515625,97.89551078528166L93.861328125,97.97971314936876L94.0875,98.157639272511L94.313671875,98.41889738291502L94.53984375,98.22928051650524L94.76601562500001,97.94164735078812L94.9921875,98.23800406605005L95.218359375,98.15333354473114L95.44453125000001,98.17026633024216L95.67070312499999,98.12456495314837L95.896875,98.76717998832464L96.123046875,98.77642444521189L96.34921874999999,98.45112110674381L96.575390625,98.79773548990488L96.8015625,98.43819073587656L97.027734375,98.58208644390106L97.25390625,98.44558234512806L97.480078125,98.40458891540766L97.70625,98.73568817228079L97.932421875,98.63693337142467L98.15859375000001,98.71168687194586L98.384765625,98.66047970205545L98.6109375,98.60717571526766L98.83710937500001,99.07915733009577L99.06328125,98.76960649341345L99.28945312500001,99.13238219171762L99.515625,98.74472162872553L99.74179687499999,99.36759493499994L99.96796875,98.86913276463747L100.19414062499999,99.02907110005617L100.4203125,99.00427195429802L100.646484375,99.22700270265341L100.87265624999999,98.99688693881035L101.098828125,98.946906208992L101.325,99.40378151088953L101.551171875,99.16977542638779L101.77734375,99.5062815696001L102.003515625,99.52078785002232L102.2296875,99.48557715117931L102.455859375,99.56123399734497L102.68203125000001,99.29859779030085L102.908203125,99.17781322449446L103.134375,99.9831788353622L103.36054687500001,99.71421261504292L103.58671875,99.83127500116825L103.81289062500001,99.75600059330463L104.0390625,99.9841349311173L104.26523437499999,100.217758577317L104.49140625,100.00131168588996L104.71757812499999,99.94507347419858L104.94375,100.08187758922577L105.169921875,99.93131228908896L105.39609374999999,100.40536104887724L105.622265625,99.84788469225168L105.8484375,100.21856301650405L106.30078125,100.54950731992722L106.526953125,100.50414222478867L106.753125,100.12193140760064L106.979296875,100.62514108791947L107.20546875000001,100.04148748889565L107.431640625,99.98716146871448L107.6578125,100.72433767095208L107.88398437500001,100.57709892466664L108.11015624999999,100.51884631812572L108.336328125,100.60943803936243L108.5625,100.61061832308769L108.78867187499999,100.63644939288497L109.01484375,100.79476895928383L109.241015625,100.78473984450102L109.4671875,100.47356364503503L109.693359375,100.95996252447367L109.91953125,101.11220264062285L110.145703125,101.03165981546044L110.371875,100.96968832612038L110.598046875,101.22554944083095L110.82421875,101.01673153415322L111.050390625,101.29098595306277L111.2765625,100.96035155653954L111.502734375,101.08366483077407L111.955078125,101.06026685982943L112.18125,101.62892294302583L112.40742187500001,101.21287952363491L112.63359374999999,101.43802688643336L112.859765625,101.24795505031943L113.0859375,101.62296547740698L113.31210937499999,101.1096706353128L113.53828125,101.41615207493305L113.764453125,101.85267902165651L113.990625,101.66899654269218L114.216796875,102.00342235341668L114.44296875,101.83430879563093L114.669140625,101.72009161859751L114.8953125,101.7943110242486L115.12148437500001,101.69696728885174L115.34765625,101.68126753717661L115.573828125,101.78726229071617L115.80000000000001,102.03885064646602L116.026171875,102.20751912519336L116.25234375000001,101.43609821051359L116.478515625,102.29758993908763L116.70468749999999,102.08744668588042L117.15703124999999,102.192557875067L117.383203125,101.91797047108412L117.609375,102.32450238615274L117.83554687499999,102.18133528903127L118.06171875,102.55672156065702L118.287890625,102.7344465740025L118.5140625,102.76274371147156L118.740234375,102.87075285986066L118.96640625,102.55023989081383L119.192578125,102.62785508483648L119.41875,102.7534036450088L119.64492187500001,102.64056456461549L119.87109375,102.5661605335772L120.32343750000001,102.60782652720809L120.549609375,102.92280073463917L120.77578125000001,102.77113757282495L121.001953125,103.07632663473487L121.22812499999999,102.64757703244686L121.454296875,102.93948955088854L121.68046874999999,102.92695150896907L121.906640625,103.17924539744854L122.1328125,102.73239261657L122.35898437499999,103.23904424160719L122.58515625,103.033546295017L122.811328125,103.25039870291948L123.0375,103.00860538333654L123.263671875,103.18587542697787L123.48984375,103.43383721262217L123.716015625,103.32884800806642L123.9421875,102.8079901188612L124.16835937500001,103.58670043945312L124.39453125,103.4040927439928L124.620703125,103.5588055215776L124.84687500000001,103.55091938003898L125.07304687499999,103.66150669008493L125.29921875,103.49311514943838L125.525390625,103.77624477446079L125.75156249999999,103.52393769845366L125.977734375,103.72773115709424L126.20390625,104.01695012301207L126.430078125,103.53931765258312L126.65625,103.76135935261846L126.882421875,103.63222378492355L127.10859375,104.08136789873242L127.334765625,103.7238968834281L127.5609375,103.80072082579136L127.787109375,103.82379570230842L128.01328125,103.61999564990401L128.23945312499998,103.5996604822576L128.465625,103.90353738516569L128.691796875,103.71419415995479L128.91796875,104.01249273866415L129.144140625,103.9217032045126L129.3703125,103.53074575960636L129.596484375,103.89355442672968L129.82265625,104.33101768791676L130.048828125,103.89346211403608L130.275,104.37778395786881L130.501171875,104.17656536400318L130.72734375000002,104.2752278521657L130.953515625,104.1976258456707L131.1796875,104.42373589798808L131.405859375,104.54982514679432L131.63203124999998,104.32607236504555L131.858203125,104.1837987229228L132.084375,104.3927056454122L132.310546875,104.28971105441451L132.53671875,104.13313883543015L132.762890625,104.49166814982891L132.9890625,104.26066882163286L133.215234375,104.64420828223228L133.44140625,104.17275087162852L133.667578125,104.36348867788911L133.89375,104.28947367891669L134.119921875,104.3203258998692L134.572265625,104.02844964712858L134.7984375,104.30422722548246L135.024609375,104.5338715352118L135.25078125000002,104.6170683503151L135.476953125,104.52159394696355L135.703125,104.44266000017524L136.15546875,104.46830314770341L136.381640625,104.08868038281798L136.6078125,104.16585379466414L136.833984375,104.32761530578136L137.06015625,104.60591499879956L137.286328125,104.3549530506134L137.51250000000002,104.2231371179223L137.738671875,104.41565853729844L137.96484375,104.34975716471672L138.191015625,104.20928691700101L138.4171875,104.66429288685322L138.64335937500002,104.46372048184276L138.86953125000002,104.30152378231287L139.095703125,104.27730159088969L139.321875,104.34489096701145L139.548046875,104.7674951814115L139.77421875000002,104.22209530323744L140.00039062500002,104.50906909257174L140.2265625,104.62615785375237L140.45273437499998,104.54092686250806L140.67890624999998,104.35541131719947L140.905078125,104.62447314709425L141.13125,104.3329166918993L141.357421875,104.59146476536989L142.0359375,104.57195711508393L142.262109375,104.93797694519162L142.48828125,104.79125910624862L142.714453125,104.35226609185338L142.94062499999998,104.37361010536551L143.166796875,104.46509528160095L143.39296875,104.6013751924038L143.619140625,104.65448136627674L143.8453125,104.86769401654601L144.071484375,104.81663520634174L144.29765625,104.83870453387499L144.523828125,104.93432400003076L144.75,105.07152044400573L144.976171875,104.84783689677715L145.20234375,104.57010426744819L145.42851562500002,104.88639722764492L145.6546875,104.87840888276696L145.880859375,104.73841338604689L146.10703125,104.82864574715495L146.333203125,104.63815850391984L146.55937500000002,104.80096512660384L146.78554687500002,104.8521854840219L147.01171875,104.79349768906832L147.237890625,104.33849831297994L147.4640625,104.87351631000638L147.69023437500002,104.62475008517504L147.91640625000002,104.59742882475257L148.142578125,104.69073717668653L148.36874999999998,104.49005927145481L148.59492187499998,104.90268712118268L148.82109375,104.95148756727576L149.047265625,104.74040140584111L149.2734375,104.96467839181423L149.49960937499998,104.75925957038999L149.72578124999998,104.81733744218946L149.951953125,104.65361428633332L150.178125,104.9629936851561L150.404296875,104.83120412752032L150.63046875,105.06778837367892L150.85664062499998,104.72214327380061L151.0828125,104.75725506618619L151.308984375,104.57529685646296L151.53515625,104.90041886642575L151.761328125,105.12627505883574L151.9875,105.21193134784698L152.213671875,105.12221659719944L152.43984375,105.05804608762264L152.666015625,104.9789637811482L152.8921875,105.27936577051878L153.118359375,105.14793886989355L153.34453125,104.8592737801373L153.570703125,105.09270620718598L153.796875,104.88736321404576L154.023046875,104.88654558733106L154.24921875,105.11610747501254L154.47539062500002,104.9315348379314L154.7015625,105.25193900987506L154.927734375,105.15521838515997L155.15390625,105.16534970328212L155.380078125,105.07508767023683L155.60625000000002,105.22260665148497L155.83242187500002,105.11962524801493L156.05859375,104.83365371078253L156.284765625,105.22131427377462L156.5109375,105.07991100847721L156.73710937500002,105.03083692118526L156.96328125000002,105.40213505923748L157.189453125,104.92241566255689L157.41562499999998,105.10948074236512L157.64179687499998,105.03270955011249L157.86796875,105.24675960838795L158.094140625,105.64205574989319L158.3203125,105.22164396196604L158.54648437499998,105.2549095004797L158.77265624999998,105.57025295868516L158.998828125,105.2113280184567L159.225,105.08317821845412L159.451171875,105.12159348651767L159.67734375,104.87253713607788L160.1296875,105.34619356691837L160.355859375,105.23701402544975L160.58203125,105.06344967707992L160.808203125,105.32371872290969L161.034375,105.85024724900723L161.260546875,104.9412144832313L161.48671875,105.84104235470295L161.712890625,105.67142767086625L161.9390625,105.272445615381L162.165234375,105.25861519575119L162.39140625000002,105.37929096445441L162.617578125,105.27747336030006L162.84375,105.67819287255406L163.069921875,105.57746323943138L163.29609375,105.91584530845284L163.52226562500002,105.67392341047525L163.74843750000002,105.43404228240252L163.974609375,105.68556470051408L164.20078125,105.48059425503016L164.426953125,105.04329254105687L164.65312500000002,105.4377216026187L164.87929687500002,105.39133777096868L165.10546875,105.70494047552347L165.33164062499998,105.6849185116589L165.55781249999998,105.59973367676139L165.783984375,105.62398883700371L166.01015625,105.62673513963819L166.236328125,105.41346973925829L166.46249999999998,105.63575211167336L166.68867187499998,105.68770767375827L166.91484375,105.83719819039106L167.141015625,105.91426939889789L167.3671875,105.53380922600627L167.593359375,105.7759981714189L167.81953124999998,105.3902926594019L168.045703125,106.00347972661257L168.271875,105.75185840204358L168.498046875,105.8133287653327L168.72421875,105.59164972230792L168.950390625,105.53600165247917L169.1765625,105.81155174598098L169.402734375,105.80997913330793L169.62890625,105.76706362143159L169.855078125,105.72966708987951L170.08125,105.78842741623521L170.307421875,105.84201493486762L170.53359375,105.8282768279314L170.759765625,106.12611384317279L170.9859375,106.04781949147582L171.212109375,106.07503854855895L171.43828125000002,106.04798433557153L171.664453125,106.03447041660547L171.890625,105.96848332509398L172.116796875,105.61278273537755L172.34296875,106.1981704942882L172.56914062500002,105.8218182362616L172.79531250000002,106.01975643262267L173.021484375,105.98262035474181L173.24765625,105.82075334340334L173.473828125,106.14284551888704L173.70000000000002,105.89273746311665L173.92617187500002,106.16156851127744L174.15234375,106.48346946761012L174.37851562499998,105.97670574858785L174.60468749999998,105.73662680760026L174.830859375,106.15045142546296L175.05703125,105.89016919210553L175.283203125,106.21657368913293L175.50937499999998,105.82630858942866L175.73554687499998,106.34588069468737L175.96171875,106.21090305224061L176.187890625,105.74054350331426L176.4140625,106.42507839202881L176.640234375,106.09483302757144L176.86640624999998,105.99347698688507L177.092578125,106.02926793694496L177.31875,106.24839189648628L177.544921875,105.90446776896715L177.77109375,106.49091382697225L177.997265625,106.19330429658294L178.2234375,106.1627718731761L178.449609375,106.30569500103593L178.67578125,106.54557283222675L178.901953125,106.09762878343463L179.128125,106.33083372563124L179.35429687500002,106.46946431323886L179.58046875,106.29314047470689L179.806640625,106.35246786475182L180.0328125,106.50231444463134L180.258984375,106.59851745888591L180.48515625000002,106.63504031673074L180.71132812500002,106.13460661098361L180.9375,106.17944090813398L181.163671875,106.44285188242793L181.38984375,106.6583261936903L181.61601562500002,106.60813776031137L181.84218750000002,106.55717455968261L182.068359375,106.65282699465752L182.29453124999998,106.43535147607327L182.52070312499998,106.86253835633397L182.746875,106.63593047484756L182.973046875,107.07582024112344L183.19921875,106.63551836460829L183.42539062499998,106.4223716519773L183.65156249999998,106.47384257242084L183.877734375,106.57708113268018L184.10390625,106.4260081127286L184.330078125,106.7235451117158L184.55625,106.89750838279724L184.78242187499998,106.69950754567981L185.00859375,106.52408705279231L185.234765625,106.74175379052758L185.4609375,106.67309292778373L185.687109375,106.9468165487051L185.91328125,106.8621954806149L186.139453125,106.77055205404758L186.365625,106.88062505051494L186.591796875,106.41153150424361L186.81796875,106.69643814861774L187.044140625,106.75862393528223L187.2703125,106.78280326724052L187.496484375,106.70031528174877L187.72265625,106.62088680267334L187.948828125,107.18453821912408L188.175,106.600241728127L188.40117187500002,106.91269711777568L188.62734375,107.00039747357368L188.853515625,107.068464897573L189.0796875,106.75625677406788L189.305859375,106.99747313931584L189.53203125000002,106.7715806812048L189.75820312500002,106.99189811199903L189.984375,107.17243206873536L190.210546875,106.93229378387332L190.43671875,107.3469525128603L190.66289062500002,106.77285327762365L190.88906250000002,107.28016757592559L191.115234375,107.43361764773726L191.34140624999998,107.0020558051765L191.56757812499998,107.35158133506775L191.79375,107.10399869084358L192.019921875,106.9551873318851L192.24609375,106.89568520709872L192.47226562499998,107.27819274365902L192.69843749999998,107.52039487659931L192.924609375,107.16244581341743L193.15078125,107.24033464863896L193.376953125,107.4080470316112L193.603125,107.33788608759642L193.82929687499998,107.39488917589188L194.05546875,107.38807781785727L194.281640625,107.08745823428035L194.5078125,107.21393321827054L194.733984375,107.33890482410789L194.96015625,107.3995344825089L195.186328125,107.23352658748627L195.4125,107.40731512382627L195.638671875,107.6863928809762L195.86484375,107.23538273200393L196.091015625,107.39211320132017L196.31718750000002,107.53394835814834L196.543359375,107.54683916643262L196.76953125,107.80666313320398L196.995703125,107.29557720199227L197.221875,107.70290366560221L197.44804687500002,107.66053543612361L197.67421875000002,107.57781996577978L197.900390625,107.345389790833L198.1265625,107.4250457547605L198.57890625000002,107.24546459689736L198.80507812500002,107.93091601878405L199.03125,107.83326897025108L199.25742187499998,107.680679384619L199.48359374999998,107.58930630236864L199.709765625,107.52868983149529L199.9359375,107.9850508198142L200.162109375,107.78361792862415L200.38828124999998,107.87214909866452L200.61445312499998,107.91754056885839L200.840625,107.83669443055987L201.066796875,107.99825483188033L201.29296875,107.79245357215405L201.519140625,107.67427683994174L201.74531249999998,108.11042134836316L201.971484375,107.8587373830378L202.19765625,107.74003644660115L202.423828125,108.31575115397573L202.65,107.7046048566699L202.876171875,108.03706572577357L203.10234375,107.90718835964799L203.328515625,108.02311002463102L203.5546875,107.96713556349277L203.780859375,108.24999154731631L204.00703125,107.98906971886754L204.233203125,108.41840286925435L204.459375,108.31434008851647L204.685546875,108.01283694058657L204.91171875,108.39434552192688L205.137890625,108.27394339442253L205.36406250000002,108.22858818992972L205.590234375,108.17062570899725L206.042578125,108.08446499705315L206.26875,108.7055513933301L206.49492187500002,108.14275386929512L206.72109375000002,108.32827930524945L206.947265625,108.33385433256626L207.1734375,108.17041141167283L207.399609375,108.72027856484056L207.62578125000002,108.15587545931339L207.85195312500002,108.38013266399503L208.078125,108.41589394211769L208.30429687499998,108.26178449392319L208.53046874999998,108.66799990832806L208.756640625,108.39405209943652L208.9828125,108.97049871459603L209.208984375,108.64633280038834L209.43515624999998,108.69038243964314L209.66132812499998,108.8130000717938L209.8875,108.73387160897255L210.113671875,108.47737419605255L210.33984375,108.76162476092577L210.566015625,108.68386120721698L210.79218749999998,108.6597774848342L211.018359375,108.79217037186027L211.24453125,108.73879385367036L211.470703125,108.55113863199949L211.696875,108.97026793286204L211.923046875,108.91437589377165L212.14921875,108.62528550624847L212.375390625,108.9742439724505L212.6015625,108.85295498371124L212.827734375,108.84388855844736L213.05390625,108.74498539790511L213.28007812500002,108.90251041576266L213.50625,108.97054816782475L213.732421875,108.93663644045591L213.95859375,108.79893887042999L214.184765625,108.60003798455L214.41093750000002,109.22115405276418L214.63710937500002,109.05531429871917L214.86328125,109.31587017327547L215.089453125,108.87707497179508L215.315625,109.38345954939723L215.54179687500002,108.91725077480078L215.76796875000002,109.2443838827312L215.994140625,109.40539040789008L216.22031249999998,109.05744738131762L216.44648437499998,109.57378194853663L216.898828125,109.46152971312404L217.125,109.70180646702647L217.35117187499998,109.43184458836913L217.57734374999998,109.60595621913671L217.803515625,109.71724576503038L218.255859375,109.22132549062371L218.48203125,109.46748717874289L218.70820312499998,109.55296873301268L218.934375,110.0045030862093L219.160546875,109.83574888855219L219.38671875,109.40550250187516L219.612890625,109.66215816512704L219.8390625,109.50690140202641L220.065234375,109.89524441957474L220.29140625,109.39430958777666L220.517578125,109.59487210214138L220.74375,109.53026640415192L220.969921875,109.6968941129744L221.19609375,109.97796978056431L221.422265625,109.88857482746243L221.6484375,109.39370955526829L221.874609375,110.06545913591981L222.10078125,110.02182160690427L222.32695312500002,110.13752897456288L222.553125,110.23705854266882L222.779296875,109.91509164869785L223.00546875,110.43199657648802L223.231640625,109.8393194116652L223.45781250000002,109.91515099257231L223.68398437500002,110.21227917820215L223.91015625,110.03830931335688L224.136328125,110.17831140384078L224.3625,110.36711394041777L224.58867187500002,110.38963164389133L224.81484375000002,110.19583103433251L225.041015625,110.2776959091425L225.26718749999998,110.27796625345945L225.49335937499998,110.24839981645346L225.71953125,109.99873024597764L225.945703125,110.18066867440939L226.171875,110.31530344113708L226.39804687499998,110.50063106417656L226.62421874999998,110.28580953553319L226.850390625,110.35679799690843L227.0765625,109.98565481230617L227.302734375,110.48885130509734L227.52890625,110.81644597649574L227.75507812499998,110.60899297893047L227.98125,110.93973617255688L228.207421875,110.75350850075483L228.43359375,110.46168170124292L228.659765625,110.66993913799524L228.8859375,110.94520240277052L229.112109375,110.66961604356766L229.564453125,110.72474650293589L229.790625,110.55675718188286L230.016796875,110.76862140744925L230.24296875000002,111.01978116855025L230.469140625,110.59833415970206L230.6953125,110.66835663467646L230.921484375,110.65250192955136L231.14765625,110.73608777672052L231.37382812500002,110.9474146105349L231.60000000000002,110.62533562257886L231.826171875,111.22733636945486L232.05234375,111.13371811062098L232.278515625,110.95213574543595L232.50468750000002,110.67220409587026L232.95703125,110.71571964025497L233.18320312499998,111.10894863680005L233.40937499999998,111.44684606418014L233.635546875,110.80586298555136L233.86171875,110.6401979662478L234.087890625,111.23850290849805L234.31406249999998,111.08155484497547L234.54023437499998,111.5750387236476L234.76640625,110.91183795779943L234.992578125,111.2306101731956L235.21875,111.20818148553371L235.444921875,111.32958586513996L235.67109374999998,111.44246450811625L235.897265625,111.01861736923456L236.1234375,111.09764033183455L236.349609375,111.19291362538934L236.801953125,111.41313214972615L237.028125,111.01384018734097L237.254296875,111.81839476525784L237.706640625,111.44230296090245L237.9328125,111.42327006161213L238.158984375,111.1987359188497L238.38515625,111.15538192167878L238.611328125,111.64330396056175L238.8375,111.47763894125819L239.063671875,111.57557281851768L239.28984375000002,111.46977258101106L239.516015625,111.40606033802032L239.7421875,111.5355849377811L239.968359375,111.4041415527463L240.19453125,111.36860116571188L240.42070312500002,111.71696949005127L240.64687500000002,111.45482781529427L240.873046875,111.7518373131752L241.09921875,111.42987371608615L241.325390625,111.62500626593828L241.55156250000002,111.90490494668484L241.77773437500002,111.63101977854967L242.00390625,111.2996073178947L242.23007812499998,111.98269487544894L242.45624999999998,111.45686858519912L242.682421875,111.36555814370513L242.90859375,111.9608365483582L243.134765625,111.39687852188945L243.36093749999998,111.71033286675811L243.58710937499998,112.04114859178662L243.81328125,111.78181586042047L244.039453125,111.7198905274272L244.265625,111.85524731129408L244.491796875,111.837856259197L244.71796874999998,111.73290661722422L244.944140625,111.71194504201412L245.1703125,111.60486891120672L245.396484375,111.5126880928874L245.62265625,111.75822337344289L245.848828125,111.7565485574305L246.075,111.84134765714407L246.301171875,111.84790515527129L246.52734375,111.88490276411176L246.753515625,111.74592930078506L246.9796875,111.81562538444996L247.20585937500002,111.73102409765124L247.43203125,111.75936409458518L247.884375,111.88295760378242L248.110546875,111.84863706305623L248.33671875000002,111.56287982314825L248.56289062500002,111.78495778888464L248.7890625,111.6809510551393L249.015234375,111.79151858389378L249.24140625,111.73838933184743L249.46757812500002,111.68121810257435L249.69375000000002,112.24181001260877L249.919921875,111.63104285672307L250.37226562499998,111.88611271977425L250.5984375,111.8542978093028L250.824609375,111.84745018556714L251.05078125,111.32756817340851L251.27695312499998,111.94269710406661L251.50312499999998,111.80082238465548L251.729296875,111.94356418401003L251.95546875,111.89213282614946L252.181640625,111.95618464797735L252.4078125,112.0301831625402L252.63398437499998,111.65308251231909L252.86015625,111.88164544478059L253.086328125,112.0099897608161L253.3125,111.94369276240468L253.538671875,111.92953595146537L253.76484375,111.79680348560214L253.991015625,112.24412112683058" style="fill: none;" fill="none"></path></g><g><path stroke="rgb(51, 187, 238)" stroke-width="2px" d="M22.6171875,-30.007214292883873L24.87890625,24.830706149339676L27.140625,-15.725913092494011L29.40234375,25.522655725479126L31.6640625,37.10249188542366L33.92578125,27.953618198633194L36.1875,14.951362118124962L38.44921875,35.249354124069214L40.7109375,27.73871424794197L42.97265625,43.93314327299595L45.234375,57.787043295800686L47.49609375,55.03738443553448L49.7578125,52.75705649703741L52.01953125,57.84620254486799L54.28125,42.77145396173L56.54296875,36.501364812254906L58.8046875,31.869298473000526L61.06640625,55.62819226831198L63.328125,30.035704627633095L65.58984375,36.45747672021389L67.8515625,61.65697603672743L70.11328125,38.8836916834116L72.375,38.70931300520897L74.63671875,50.18370169401169L76.8984375,23.751122385263443L79.16015625,30.81579963862896L81.421875,33.117497965693474L83.68359375,40.907067239284515L85.9453125,47.50557857751846L88.20703125,29.965678855776787L90.46875,19.53454229235649L92.73046875,51.64074546843767L94.9921875,17.655992165207863L97.25390625,47.73206777125597L99.515625,63.30846990644932L101.77734375,35.90884919464588L104.0390625,42.17218632996082L106.30078125,49.14281672984362L108.5625,53.76017897576094L110.82421875,52.67468060553074L113.0859375,50.23794858902693L115.34765625,66.23142606765032L117.609375,45.84271705895662L119.87109375,39.21316887438297L122.1328125,34.078565418720245L124.39453125,30.319750785827637L126.65625,47.68135513365269L128.91796875,54.10792089253664L131.1796875,53.104567632079124L133.44140625,48.22555824369192L135.703125,42.58783082664013L136.15546875,54.134236603975296L136.6078125,37.668210446834564L137.06015625,53.51531955599785L137.51250000000002,59.20962146669626L137.96484375,47.70367502421141L138.4171875,46.30035723745823L138.86953125000002,50.88277253508568L139.321875,47.457721039652824L139.77421875000002,47.340688325464725L140.2265625,40.96332523226738L140.67890624999998,51.251054026186466L141.13125,31.10092717409134L141.58359374999998,33.689928978681564L142.0359375,5.793164849281311L142.48828125,61.664183020591736L142.94062499999998,52.359637163579464L143.39296875,40.23256476223469L143.8453125,47.658857211470604L144.29765625,45.862880788743496L144.75,21.98456074297428L145.20234375,35.99808919429779L145.6546875,60.55353603512049L146.10703125,44.77795607596636L146.55937500000002,46.56629692018032L147.01171875,37.49561208486557L147.4640625,57.38813377171755L147.91640625000002,55.58347995579243L148.36874999999998,42.47243995964527L148.82109375,31.013652116060257L149.2734375,38.689426213502884L149.72578124999998,40.90536604821682L150.178125,42.0684400498867L150.63046875,47.1957376152277L151.0828125,66.83112229406834L151.53515625,50.579096741974354L151.9875,44.63871556520462L152.43984375,56.01785733550787L152.8921875,51.55465069413185L153.34453125,52.4754895940423L153.796875,47.110117591917515L154.24921875,47.438361749053L154.7015625,37.91377539932728L155.15390625,44.18737243115902L155.60625000000002,39.404757276177406L156.05859375,43.419409945607185L156.5109375,31.34704600274563L156.96328125000002,35.266075909137726L157.41562499999998,58.481406189501286L157.86796875,27.121102765202522L158.3203125,58.311049707233906L158.77265624999998,53.078337639570236L159.225,39.06177605688572L159.67734375,39.329074054956436L160.1296875,49.86437230557203L160.58203125,36.84822316467762L161.034375,28.87761551141739L161.48671875,45.881336733698845L161.9390625,27.034315645694733L162.39140625000002,50.21806179732084L162.84375,47.9923038482666L163.29609375,26.925056979060173L163.74843750000002,32.05455686151981L164.20078125,39.48154824972153L164.65312500000002,55.112461030483246L165.10546875,42.59847316145897L165.55781249999998,53.770023465156555L166.01015625,36.56268681585789L166.46249999999998,41.462275341153145L166.91484375,42.809842854738235L167.3671875,43.62297262251377L167.81953124999998,17.63234692811966L168.271875,29.213699653744698L168.72421875,43.3776977956295L169.1765625,50.47230414301157L169.62890625,39.567728742957115L170.08125,54.639450788497925L170.53359375,46.25288873165846L170.9859375,52.30937949568033L171.43828125000002,70.67551738768816L171.890625,48.289517752826214L172.34296875,51.04197236895561L172.79531250000002,39.83714993298054L173.24765625,38.23069806396961L173.70000000000002,48.751041658222675L174.15234375,37.32938329875469L174.60468749999998,35.31323450803757L175.05703125,33.02203345298767L175.50937499999998,46.433669954538345L175.96171875,46.7006976082921L176.4140625,37.802881479263306L176.86640624999998,51.75308342278004L177.31875,41.6648753285408L177.77109375,56.0367286875844L178.2234375,36.18043313920498L178.67578125,41.32639105618L179.128125,44.472091153264046L179.58046875,43.78084051609039L180.0328125,47.03758618980646L180.48515625000002,38.732681304216385L180.9375,40.743713334202766L181.38984375,43.53879663348198L181.84218750000002,32.340937212109566L182.29453124999998,60.69517008215189L182.746875,49.055614203214645L183.19921875,36.6714443564415L183.65156249999998,46.336438313126564L184.10390625,31.572645038366318L184.55625,29.500831693410873L185.00859375,50.54654332995415L185.4609375,23.57848446071148L185.91328125,1.7417585402727127L186.365625,42.693278297781944L186.81796875,51.476580530405045L187.2703125,16.041403591632843L187.72265625,38.92193551361561L188.175,39.62062391638756L188.62734375,70.66372114419937L189.0796875,55.367580346763134L189.53203125000002,50.59133476763964L189.984375,54.341498382389545L190.43671875,53.24408508092165L190.88906250000002,40.880613058805466L191.34140624999998,48.59353642165661L191.79375,26.74781660735607L192.24609375,42.52925182878971L192.69843749999998,29.467823311686516L193.15078125,34.64922930300236L193.603125,34.81705377995968L194.05546875,45.74721957743168L194.5078125,43.201129987835884L194.96015625,58.57851914316416L195.4125,35.761333510279655L195.86484375,42.389318972826004L196.31718750000002,56.50511010736227L196.76953125,28.232231095433235L197.221875,50.45909683406353L197.67421875000002,45.38865729421377L198.1265625,31.135175183415413L198.57890625000002,10.338233068585396L199.03125,40.320472821593285L199.48359374999998,40.22007617354393L199.9359375,40.61276118457317L200.38828124999998,54.67728580534458L200.840625,43.14135092496872L201.29296875,30.964845076203346L201.74531249999998,23.87850071489811L202.19765625,28.960776060819626L202.65,41.84710058569908L203.10234375,38.08153393864632L203.5546875,46.65304447710514L204.00703125,50.531588673591614L204.459375,28.938278138637543L204.91171875,41.03517088294029L205.36406250000002,40.35026344656944L205.81640625,35.595381662249565L206.26875,48.72094112634659L206.72109375000002,32.63761702179909L207.1734375,47.07808508723974L207.62578125000002,30.371736019849777L208.078125,25.372014597058296L208.53046874999998,24.50345765054226L208.9828125,53.11522315442562L209.43515624999998,37.80451673269272L209.8875,32.41602699458599L210.33984375,31.539531156420708L210.79218749999998,37.068942815065384L211.24453125,40.653761208057404L211.696875,38.802205950021744L212.14921875,41.29667955636978L212.6015625,42.64671313762665L213.05390625,33.58366388082504L213.50625,31.619711324572563L213.95859375,41.55209559202194L214.41093750000002,33.896340161561966L214.86328125,39.27574369311333L215.315625,46.74424282461405L215.76796875000002,31.245660290122032L216.22031249999998,42.202003329992294L216.67265625,21.502200543880463L217.125,40.922615334391594L217.57734374999998,31.270215466618538L218.0296875,48.626505240798L218.48203125,45.56220515817404L218.934375,30.308119386434555L219.38671875,45.6985839754343L219.8390625,29.365765035152435L220.29140625,24.62263333797455L220.74375,54.303063333034515L221.19609375,31.696264922618866L221.6484375,45.919039875268936L222.10078125,46.84480431675911L222.553125,33.76697051525116L223.00546875,43.13913542032242L223.45781250000002,44.20812959969044L223.91015625,41.22545371949673L224.3625,47.66212771832943L224.81484375000002,46.73524233698845L225.26718749999998,36.16274866461754L225.71953125,47.565555453300476L226.171875,38.461492985486984L226.62421874999998,29.293418258428574L227.0765625,42.18694317340851L227.52890625,34.1049272865057L227.98125,49.88666582107544L228.43359375,34.319936737418175L228.8859375,38.00660240650177L229.33828125,41.276410326361656L229.790625,34.09700158238411L230.24296875000002,36.748288080096245L230.6953125,41.75774189829826L231.14765625,49.61780510097742L231.60000000000002,51.568458035588264L232.05234375,64.8602067232132L232.50468750000002,29.2691268324852L232.95703125,41.808922693133354L233.40937499999998,44.48910965770483L233.86171875,16.49934048950672L234.31406249999998,51.097313828766346L234.76640625,50.32575114816427L235.21875,45.947254590690136L235.67109374999998,29.182471588253975L236.1234375,30.371366769075394L236.57578125,19.61796659231186L237.028125,31.131693676114082L237.48046875,44.09209254384041L237.9328125,52.49972167611122L238.38515625,38.406514182686806L238.8375,50.61632513254881L239.28984375000002,19.019371524453163L239.7421875,36.12740609049797L240.19453125,48.55169239640236L240.64687500000002,43.3597891330719L241.09921875,40.25817494094372L241.55156250000002,44.392656080424786L242.00390625,46.033276833593845L242.45624999999998,44.85512289404869L242.90859375,30.10998997092247L243.36093749999998,45.68124237656593L243.81328125,33.34602463245392L244.265625,21.97381290793419L244.71796874999998,30.953582927584648L245.1703125,41.62883381545544L245.62265625,40.055324390530586L246.075,43.59090055525303L246.52734375,50.481396943330765L246.9796875,31.006161600351334L247.43203125,33.50443321466446L247.884375,38.68943940103054L248.33671875000002,46.115626350045204L248.7890625,40.99195535480976L249.015234375,62.22010984271765L249.24140625,54.08199421316385L249.46757812500002,46.79537086933851L249.69375000000002,34.84565752744675L249.919921875,32.3258111178875L250.14609374999998,42.7737617790699L250.37226562499998,60.857811860740185L250.5984375,55.29605119675398L250.824609375,44.09384648501873L251.05078125,46.263082690536976L251.27695312499998,53.59565797448158L251.50312499999998,35.09077410399914L251.729296875,54.03741377592087L251.95546875,52.297616221010685L252.181640625,32.42146025598049L252.4078125,34.0141970962286L252.63398437499998,44.447667852044106L252.86015625,41.15734013915062L253.086328125,36.96717466413975L253.3125,41.61581772565842L253.538671875,55.07798223942518L253.76484375,28.865944549441338L253.991015625,50.526148818433285" style="fill: none;" fill="none"></path></g><g><path stroke="rgb(0, 153, 136)" stroke-width="2px" d="M22.6171875,-30.430111929774284L24.87890625,32.635638892650604L27.140625,-48.272375285625486L29.40234375,24.872708424925804L31.6640625,48.070888325572014L33.92578125,42.09704379737377L36.1875,41.78612145781517L38.44921875,49.26116160303354L40.7109375,53.23249324411154L42.97265625,44.59832216799259L45.234375,60.08915702998638L47.49609375,-0.4263633191585541L49.7578125,70.82673217356205L52.01953125,57.99309182167053L54.28125,53.19122947007418L56.54296875,34.18393376469612L58.8046875,68.81776399165392L61.06640625,69.53781618922949L63.328125,55.990156933665276L65.58984375,32.16605740785599L67.8515625,64.72228496521711L70.11328125,47.67572405934334L72.375,55.46732421219349L74.63671875,70.19578810036182L76.8984375,58.91655503958464L79.16015625,68.29085632413626L81.421875,65.71337382495403L83.68359375,24.346565634012222L85.9453125,64.13720051944256L88.20703125,36.46466392278671L90.46875,65.71128360182047L92.73046875,70.61565919965506L94.9921875,63.00216979533434L97.25390625,75.04001538455486L99.515625,65.97192189842463L101.77734375,62.92315012961626L104.0390625,58.120371244847775L106.30078125,76.12108274549246L108.5625,79.43879435956478L110.82421875,80.41550222039223L113.0859375,39.64007551968098L115.34765625,77.92813009768724L117.609375,76.9746718481183L119.87109375,77.29407376796007L122.1328125,55.631001211702824L124.39453125,80.69580312073231L126.65625,65.94050920754671L128.91796875,76.74007232487202L131.1796875,62.29287202656269L133.44140625,65.62833405286074L135.703125,61.95180959254503L136.15546875,66.9695056155324L136.6078125,81.56213796883821L137.06015625,46.22030235081911L137.51250000000002,75.97149661928415L137.96484375,66.79012886434793L138.4171875,63.87165646255016L138.86953125000002,74.74814902245998L139.321875,58.730208680033684L139.77421875000002,77.0606215596199L140.2265625,43.80171637237072L140.67890624999998,39.366829946637154L141.13125,66.10813587158918L141.58359374999998,67.4568507000804L142.0359375,41.68085861206055L142.48828125,64.32121928036213L142.94062499999998,79.74825947731733L143.39296875,57.939524084329605L143.8453125,68.57206057012081L144.29765625,75.45006177574396L144.75,64.89636033028364L145.20234375,63.887613371014595L145.6546875,67.20010931789875L146.10703125,70.02823396772146L146.55937500000002,56.698801919817924L147.01171875,68.24550441652536L147.4640625,69.21158972382545L147.91640625000002,69.77079364657402L148.36874999999998,73.619329623878L148.82109375,64.38133462518454L149.2734375,60.16688431799412L149.72578124999998,70.67990224063396L150.178125,60.878905311226845L150.63046875,51.56238517910242L151.0828125,74.15313436836004L151.53515625,70.90156479924917L151.9875,72.4495827332139L152.43984375,74.44265994429588L152.8921875,42.252643436193466L153.34453125,61.2674428448081L153.796875,75.99470007419586L154.24921875,71.62618647515774L154.7015625,66.3579669892788L155.15390625,46.64758484065533L155.60625000000002,66.88626594096422L156.05859375,56.796040154993534L156.5109375,69.77567962557077L156.96328125000002,43.22733360528946L157.41562499999998,74.48470837622881L157.86796875,65.93666504323483L158.3203125,71.45080554485321L158.77265624999998,66.1265390664339L159.225,76.40346727520227L159.67734375,67.58257399499416L160.1296875,55.81435400247574L160.58203125,60.485554330050945L161.034375,57.20410182327032L161.48671875,68.1388568803668L161.9390625,72.78801425546408L162.39140625000002,49.42740357667208L162.84375,68.03100268542767L163.29609375,49.096429601311684L163.74843750000002,66.56107469648123L164.20078125,69.59157514572144L164.65312500000002,61.67147572338581L165.10546875,76.78114487975836L165.55781249999998,57.31918278336525L166.01015625,62.56911776214838L166.46249999999998,62.73994240164757L166.91484375,63.22133991122246L167.3671875,61.89171402901411L167.81953124999998,45.040203250944614L168.271875,58.26089753955603L168.72421875,53.66116701811552L169.1765625,70.66676086932421L169.62890625,64.99459422379732L170.08125,72.12790596485138L170.53359375,68.43127711862326L170.9859375,78.75434848666191L171.43828125000002,65.46550105512142L171.890625,65.30072289705276L172.34296875,62.35523584485054L172.79531250000002,67.06071055680513L173.24765625,72.61506642401218L173.70000000000002,59.82179309427738L174.15234375,58.31089145690203L174.60468749999998,56.32107815891504L175.05703125,58.96327845007181L175.50937499999998,63.91236636042595L175.96171875,66.04554127156734L176.4140625,49.02034416049719L176.86640624999998,73.08962620049715L177.31875,56.01103938370943L177.77109375,58.21153662353754L178.2234375,70.42800068110228L178.67578125,63.0200454890728L179.128125,59.61931838840246L179.58046875,45.31450382620096L180.0328125,60.5958614051342L180.48515625000002,67.08063691109419L180.9375,69.6656494885683L181.38984375,62.65585872530937L181.84218750000002,56.513556718826294L182.29453124999998,56.223952017724514L182.746875,68.20534180104733L183.19921875,56.99122215807438L183.65156249999998,68.29261026531458L184.10390625,63.55904611945152L184.55625,58.81623751670122L185.00859375,64.31786305457354L185.4609375,37.47129428386688L185.91328125,48.079539343714714L186.365625,64.25683777034283L186.81796875,49.93167485296726L187.2703125,52.16568160057068L187.72265625,64.49023063480854L188.175,50.8284465149045L188.62734375,59.17451626807451L189.0796875,70.61062156409025L189.53203125000002,55.191744446754456L189.984375,72.63039692491293L190.43671875,68.7999212667346L190.88906250000002,70.91555017232895L191.34140624999998,59.0042455047369L191.79375,51.50072029978037L192.24609375,57.61583621799946L192.69843749999998,60.53537680953741L193.15078125,71.6403300985694L193.603125,56.18212777376175L194.05546875,54.82157713919878L194.5078125,70.95096527785063L194.96015625,73.63785810023546L195.4125,61.27321898192167L195.86484375,68.27802485972643L196.31718750000002,73.52311342209578L196.76953125,56.414478823542595L197.221875,53.39365142583847L197.67421875000002,62.71559163182974L198.1265625,70.93632712215185L198.57890625000002,47.25698708742857L199.03125,61.90717640519142L199.48359374999998,65.26028993725777L199.9359375,61.068284802138805L200.38828124999998,66.77971071749926L200.840625,60.75396667420864L201.29296875,47.07073304057121L201.74531249999998,37.425309374928474L202.19765625,62.58485048264265L202.65,58.19713584333658L203.10234375,72.15497995913029L203.5546875,49.00702475756407L204.00703125,65.6479373127222L204.459375,40.84764423966408L204.91171875,54.48607324808836L205.36406250000002,45.81236596405506L205.81640625,60.492411844432354L206.26875,57.656862616539L206.72109375000002,52.161949530243874L207.1734375,51.54224782437086L207.62578125000002,65.01808780431747L208.078125,43.18009588122368L208.53046874999998,36.789327666163445L208.9828125,63.17369996756315L209.43515624999998,46.486538752913475L209.8875,61.14254377037287L210.33984375,62.13841970264912L210.79218749999998,54.38454906642437L211.24453125,47.97706566005945L211.696875,55.5734706223011L212.14921875,40.370809614658356L212.6015625,60.380390390753746L213.05390625,48.241851434111595L213.50625,39.28372214734554L213.95859375,54.89059406518936L214.41093750000002,47.75484263151884L214.86328125,51.63146144896746L215.315625,56.29984623938799L215.76796875000002,41.689483255147934L216.22031249999998,52.937956407666206L216.67265625,55.1875574067235L217.125,58.275370851159096L217.57734374999998,46.63807003945112L218.0296875,59.63037613034248L218.48203125,64.146398819983L218.934375,51.93865171819925L219.38671875,55.59618613868952L219.8390625,59.34679153561592L220.29140625,47.083544723689556L220.74375,49.86276342719793L221.19609375,57.128095507621765L221.6484375,52.228975139558315L222.10078125,51.76536101102829L222.553125,64.42251268029213L223.00546875,53.922464691102505L223.45781250000002,45.74728551506996L223.91015625,44.83790657669306L224.3625,56.4092104062438L224.81484375000002,56.22985343635082L225.26718749999998,54.61907605826855L225.71953125,50.897832691669464L226.171875,55.8350518271327L226.62421874999998,56.16172007471323L227.0765625,49.25512830913067L227.52890625,54.86974458396435L227.98125,56.62758927047253L228.43359375,48.44939015060663L228.8859375,69.86886928975582L229.33828125,55.596924640238285L229.790625,52.71254859119654L230.24296875000002,58.48793401569128L230.6953125,68.50034020096064L231.14765625,49.33329078555107L231.60000000000002,57.36745572835207L232.05234375,67.9045342952013L232.50468750000002,55.39348065108061L232.95703125,45.27105092257261L233.40937499999998,60.18683045357466L233.86171875,53.68574197590351L234.31406249999998,57.912647902965546L234.76640625,55.63516187667847L235.21875,69.58801451325417L235.67109374999998,53.18449064344168L236.1234375,54.799244061112404L236.57578125,50.526755444705486L237.028125,54.00708246231079L237.48046875,64.08403500169516L237.9328125,49.828680261969566L238.38515625,55.764069959521294L238.8375,58.70362262427807L239.28984375000002,60.33623195439577L239.7421875,35.52515807747841L240.19453125,57.20348200947046L240.64687500000002,60.78260339051485L241.09921875,65.90452044457197L241.55156250000002,59.69451367110014L242.00390625,57.41970471292734L242.45624999999998,62.61905233561993L242.90859375,58.74143785983324L243.36093749999998,59.4466343075037L243.81328125,54.93351946771145L244.265625,61.86202231049538L244.71796874999998,64.44502379000187L245.1703125,69.03373613208532L245.62265625,61.850925005972385L246.075,68.31795669347048L246.52734375,37.76619377732277L246.9796875,54.81104689836502L247.43203125,57.78079900145531L247.884375,60.8360590338707L248.33671875000002,50.5386967509985L248.7890625,54.90146718174219L249.015234375,70.77918454259634L249.24140625,70.82903339713812L249.46757812500002,56.48484747111797L249.69375000000002,67.31411549448967L249.919921875,72.51607424765825L250.14609374999998,64.77464604377747L250.37226562499998,63.49544267356396L250.5984375,75.99789145588875L250.824609375,55.42617253214121L251.05078125,65.47054528445005L251.27695312499998,62.01472069323063L251.50312499999998,48.06237577646971L251.729296875,66.10863699764013L251.95546875,66.82962550967932L252.181640625,42.31827776134014L252.4078125,53.85648089647293L252.63398437499998,55.79237039387226L252.86015625,47.417828768491745L253.086328125,57.86068904399872L253.3125,60.722791358828545L253.538671875,61.5028138384223L253.76484375,50.25099764764309L253.991015625,53.68605847656727" style="fill: none;" fill="none"></path></g><g><path stroke="rgb(255, 112, 67)" stroke-width="2px" d="M24.4265625,-20.718684688210487L24.87890625,31.803927898406982L25.33125,38.159946978092194L25.78359375,31.69303397834301L26.2359375,32.866895377635956L26.68828125,22.234187453985214L27.140625,-45.72964851558211L27.59296875,9.325219944119453L28.0453125,35.47995123267174L28.49765625,22.870432913303375L28.950000000000003,32.9934297055006L29.40234375,26.142522275447845L29.8546875,-243.6402697563172L30.307031249999998,-31.752478078007698L30.759375,42.756591618061066L31.211718750000003,20.90811561048031L31.6640625,43.19003927707672L32.11640625,28.58673821389675L32.56875,20.651987448334694L33.02109375,36.31549979746342L33.4734375,39.99849933385849L33.92578125,39.80011935532093L34.378125000000004,49.72969467937946L34.83046875,49.82021386921406L35.2828125,-14.659767419099808L35.735156249999996,54.790968887507915L36.1875,36.6630966514349L36.639843750000004,51.96653674542904L37.092187499999994,58.441177636384964L37.54453125,50.449964471161366L37.996875,47.57408778369427L38.44921875,44.67505379766226L38.901562500000004,54.9031485915184L39.353906249999994,62.02088586241007L39.80625,49.06909845024347L40.25859375,39.90857358276844L40.7109375,45.13067628443241L41.163281250000004,59.87214966863394L41.615624999999994,40.22285874187946L42.06796875,53.50785541534424L42.5203125,51.38936481624842L42.97265625,40.476204335689545L43.425000000000004,44.11448496580124L43.877343749999994,31.256302624940872L44.3296875,49.4119016379118L44.78203125,27.877710789442062L45.234375,54.82885006070137L45.68671875,37.28660295903683L46.1390625,55.01336994767189L46.59140625,6.551553189754486L47.04375,55.50180959701538L47.49609375,-5.545669242739677L47.9484375,47.30686231702566L48.40078125,49.82682741433382L48.853125,3.6522224843502045L49.30546875,60.05902352929115L49.7578125,64.30984503775835L50.21015625,51.02062835544348L50.6625,49.60470329225063L51.11484375,55.47925892472267L51.5671875,59.31030164659023L52.01953125,50.125221602618694L52.471875,58.37936110049486L52.92421875,48.90970739722252L53.3765625,59.45287860184908L53.82890625,44.819964945316315L54.28125,46.725305534899235L54.73359375,12.5568235963583L55.1859375,31.88942264020443L55.63828125,62.996096938848495L56.090625,53.82501545548439L56.54296875,27.844359531998634L56.9953125,60.337326519191265L57.44765625,49.29241604357958L57.900000000000006,60.30266969650984L58.352343749999996,62.202511087059975L58.8046875,60.82062962651253L59.25703125,53.7032747939229L59.709375,64.69652972370386L60.161718750000006,46.666278161108494L60.614062499999996,55.208815701305866L61.06640625,62.09316670149565L61.51875,65.50270966440439L61.97109375,68.08932452648878L62.423437500000006,43.15654295682907L62.875781249999996,48.35207279026508L63.328125,45.30746168643236L63.78046875,62.75545093417168L64.2328125,35.15370498597622L64.68515625,65.32728257775307L65.1375,50.567874155938625L65.58984375,25.91131854057312L66.0421875,53.47708231955767L66.49453125,60.54332888871431L66.946875,33.13344168663025L67.39921875,26.115237280726433L67.8515625,60.273320853710175L68.30390625,62.93277043104172L68.75625000000001,57.61919244378805L69.20859375,48.01565236598253L69.6609375,13.208392962813377L70.11328125,43.658288821578026L70.565625,57.2475613206625L71.01796875,48.98715774714947L71.47031249999999,54.70906115323305L71.92265625,53.689019076526165L72.375,47.866382740437984L72.82734375,65.30888597667217L73.27968750000001,71.1753708422184L73.73203125,61.3104869350791L74.18437499999999,50.053943015635014L74.63671875,62.85038135200739L75.0890625,63.71173790842295L75.54140625,58.21230150014162L75.99375,51.49551122635603L76.44609375,61.92176181077957L76.8984375,50.443186081945896L77.35078125,46.98907586932182L77.80312500000001,51.95431850105524L78.25546875,53.58300454169512L78.70781249999999,52.39035091549158L79.16015625,60.26374011486769L79.6125,35.45234973728657L80.06484375,47.20347210019827L80.5171875,60.824275977909565L80.96953125,61.18821217864752L81.421875,57.368814043700695L81.87421875000001,61.743354342877865L82.32656250000001,57.132190234959126L82.77890624999999,52.731274880468845L83.23124999999999,63.40470588952303L83.68359375,18.044153854250908L84.1359375,63.454370118677616L84.58828125,48.27989085763693L85.040625,71.69187355041504L85.49296875,45.51180902123451L85.9453125,56.82066126912832L86.39765625000001,63.82863874733448L86.85000000000001,47.830928072333336L87.30234374999999,25.146428748965263L87.75468749999999,61.69756065309048L88.20703125,25.5838590413332L88.659375,49.74474164843559L89.11171875,51.32951322197914L89.5640625,53.07542319595814L90.01640625,60.421851977705956L90.46875,58.034349001944065L90.92109375000001,47.62112110108137L91.3734375,40.832109332084656L91.82578124999999,58.39459928870201L92.278125,46.54658156633377L92.73046875,62.01926379650831L93.1828125,50.175907865166664L93.63515625,42.17694702744484L94.0875,61.987442292273045L94.53984375,33.62904216349125L94.9921875,54.88632130622864L95.44453125000001,31.864603713154793L95.896875,62.896293729543686L96.34921874999999,68.27476754039526L96.8015625,39.246770694851875L97.25390625,70.86201540380716L97.70625,52.629829823970795L98.15859375000001,59.73431362956762L98.6109375,68.9178177639842L99.06328125,58.13952612876892L99.515625,59.651040986180305L99.96796875,58.63881251960993L100.4203125,64.98421563953161L100.87265624999999,36.763414174318314L101.325,39.69357731938362L101.77734375,52.920733496546745L102.2296875,58.16313839703798L102.68203125000001,52.472911432385445L103.134375,70.47103158384562L103.58671875,66.24816763401031L104.0390625,49.631612442433834L104.49140625,65.93508913367987L104.94375,55.247910127043724L105.39609374999999,59.92861206829548L105.8484375,58.88577535003424L106.30078125,67.51477691531181L106.753125,52.819321408867836L107.20546875000001,72.83371563255787L107.6578125,60.436556071043015L108.11015624999999,69.51810742914677L108.5625,69.93801809102297L109.01484375,50.089733965694904L109.4671875,50.08037741482258L109.91953125,71.36466461420059L110.371875,57.733370058238506L110.82421875,73.24233777076006L111.2765625,72.33345336467028L111.72890625000001,67.29608814418316L112.18125,48.09414453059435L112.63359374999999,59.16349808871746L113.0859375,32.2923279851675L113.53828125,64.46893937140703L113.990625,60.17986084520817L114.44296875,55.71300785243511L114.8953125,52.347959607839584L115.34765625,72.16620913892984L115.80000000000001,69.92315574735403L116.25234375000001,67.12190727889538L116.70468749999999,54.921129785478115L117.15703124999999,62.14621353149414L117.609375,69.2104094401002L118.06171875,73.11923879384995L118.5140625,36.36672015488148L118.96640625,66.31192273646593L119.41875,71.65259449928999L119.87109375,69.56046576797962L120.32343750000001,58.89884418994188L120.77578125000001,67.92168467491865L121.22812499999999,42.02904890477657L121.68046874999999,64.68985683470964L122.1328125,47.15378149598837L122.58515625,46.526431024074554L123.0375,69.57873049378395L123.48984375,42.4926168769598L123.9421875,59.293751299381256L124.39453125,69.69871721416712L124.84687500000001,61.65784641355276L125.29921875,51.27124413102865L125.75156249999999,50.12867673486471L126.20390625,64.22832633554935L126.65625,56.62210985273123L127.10859375,64.85651421546936L127.5609375,60.647859826684L128.01328125,62.64410204440355L128.465625,58.051459819078445L128.91796875,70.03715533018112L129.3703125,56.819085359573364L129.82265625,53.458329655230045L130.275,68.50548993051052L130.72734375000002,56.79762265831232L131.1796875,56.94561968743801L131.63203124999998,62.34418469667435L132.084375,67.33248572051525L132.53671875,68.07362477481365L132.9890625,70.82666623592377L133.44140625,55.78105549514294L133.89375,68.76134774833918L134.34609375,49.854752004146576L134.7984375,72.50829360634089L135.25078125000002,64.45114939659834L135.703125,56.1892754137516L135.929296875,62.889251589775085L136.15546875,57.3811509758234L136.381640625,63.44819176197052L136.6078125,72.83833126723766L136.833984375,68.74542380869389L137.06015625,40.53200076520443L137.286328125,49.329446621239185L137.51250000000002,69.01020958274603L137.738671875,58.72757117450237L137.96484375,57.691374376416206L138.191015625,69.0304656252265L138.4171875,56.78733638674021L138.64335937500002,51.17689396440983L138.86953125000002,67.39085371792316L139.095703125,49.17189522832632L139.321875,51.36334582418203L139.548046875,40.12160490453243L139.77421875000002,69.9174125790596L140.00039062500002,74.9394538924098L140.2265625,38.94634562730789L140.45273437499998,67.52868316322565L140.67890624999998,33.042038932442665L140.905078125,45.875402346253395L141.13125,55.389056235551834L141.357421875,56.91131892800331L141.58359374999998,60.79932517558336L141.80976562499998,61.41563109308481L142.0359375,36.440082371234894L142.262109375,67.59275476634502L142.48828125,55.33931288123131L142.714453125,44.29697397351265L142.94062499999998,69.7616019397974L143.166796875,60.81934384256601L143.39296875,51.27187713235617L143.619140625,38.96414878964424L143.8453125,64.07016172260046L144.071484375,61.431818783283234L144.29765625,61.5211181268096L144.523828125,55.87606503814459L144.75,55.15732499957085L144.976171875,67.68260798603296L145.20234375,56.677055686712265L145.42851562500002,72.44373406469822L145.6546875,58.84663476794958L145.880859375,67.43086467683315L146.10703125,62.58938039839268L146.333203125,64.99522063136101L146.55937500000002,47.22347757965326L146.78554687500002,59.15815054625273L147.01171875,55.54886269569397L147.237890625,64.97601959109306L147.4640625,60.989845387637615L147.69023437500002,69.87519270926714L147.91640625000002,62.13254465907812L148.142578125,68.67221984267235L148.36874999999998,66.98109085857868L148.59492187499998,66.72487038373947L148.82109375,56.11525382101536L149.047265625,69.35689649730921L149.2734375,52.34238787740469L149.49960937499998,66.78993105143309L149.72578124999998,67.3791563808918L149.951953125,32.852046221494675L150.178125,48.69223187863827L150.404296875,64.73716709017754L150.63046875,46.163358606398106L150.85664062499998,53.04871845245361L151.0828125,68.55428378283978L151.308984375,65.55782034248114L151.53515625,66.16403780132532L151.761328125,71.97895283997059L151.9875,65.2285145893693L152.213671875,44.25578932464123L152.43984375,67.37541112303734L152.666015625,72.73896324634552L152.8921875,35.74999223649502L153.118359375,45.94805243611336L153.34453125,53.09283073246479L153.570703125,48.75691670179367L153.796875,67.04816921800375L154.023046875,52.605399928987026L154.24921875,62.22588597983122L154.47539062500002,56.62324398010969L154.7015625,57.08310625702143L154.927734375,66.54555957019329L155.15390625,37.14150059223175L155.380078125,59.740775518119335L155.60625000000002,60.37636160105467L155.83242187500002,69.28493215888739L156.05859375,49.03316903114319L156.284765625,46.603723123669624L156.5109375,65.25626774132252L156.73710937500002,52.16982248425484L156.96328125000002,33.194750502705574L157.189453125,68.99944856017828L157.41562499999998,65.4637009575963L157.64179687499998,58.8814300596714L157.86796875,57.10893402993679L158.094140625,65.28201638907194L158.3203125,60.147333808243275L158.54648437499998,69.24546848237514L158.77265624999998,54.2587796151638L158.998828125,69.2095258757472L159.225,67.92551565170288L159.451171875,68.7559672370553L159.67734375,60.25466050207615L159.90351562499998,36.39589096605778L160.1296875,50.9316521063447L160.355859375,68.39700273424387L160.58203125,54.43788602203131L160.808203125,62.47815679013729L161.034375,49.86565808951855L161.260546875,41.741165176033974L161.48671875,60.37520109862089L161.712890625,59.11856158822775L161.9390625,60.62759059667587L162.165234375,69.4825076982379L162.39140625000002,43.50808288156986L162.617578125,67.16115995496511L162.84375,59.889583580195904L163.069921875,49.972055062651634L163.29609375,36.27654384076595L163.52226562500002,62.366893619298935L163.74843750000002,60.895706221461296L163.974609375,62.23232149332762L164.20078125,62.264215528964996L164.426953125,33.24189591407776L164.65312500000002,54.9410165771842L164.87929687500002,64.60362359136343L165.10546875,69.78698793053627L165.33164062499998,64.89178425818682L165.55781249999998,51.844044394791126L165.783984375,60.17407152056694L166.01015625,51.73045362532139L166.236328125,43.776620507240295L166.46249999999998,54.161422692239285L166.68867187499998,76.23447570204735L166.91484375,57.67347890138626L167.141015625,63.60836087912321L167.3671875,55.675443179905415L167.593359375,64.36448755860329L167.81953124999998,41.98506850004196L168.045703125,43.733932480216026L168.271875,52.48608577251434L168.498046875,57.63749673217535L168.72421875,47.726423509418964L168.950390625,49.053398698568344L169.1765625,58.56546349078417L169.402734375,64.93983301520348L169.62890625,55.68439091742039L169.855078125,46.87458175420761L170.08125,65.86495126783848L170.307421875,56.342389203608036L170.53359375,59.86786372214556L170.759765625,52.91362541913986L170.9859375,68.05394898355007L171.212109375,65.45827428996563L171.43828125000002,57.38381485641003L171.664453125,55.36015576869249L171.890625,56.24493996798992L172.116796875,56.11578132212162L172.34296875,55.298477701842785L172.56914062500002,66.40766418725252L172.79531250000002,59.240315437316895L173.021484375,54.68062884360552L173.24765625,65.58899565786123L173.473828125,63.04178512841463L173.70000000000002,52.698550030589104L173.92617187500002,49.22337933629751L174.15234375,51.929460011422634L174.37851562499998,60.86850694566965L174.60468749999998,51.64232137799263L174.830859375,60.79630523175001L175.05703125,52.005941078066826L175.283203125,61.743928000330925L175.50937499999998,60.033716663718224L175.73554687499998,51.7568286806345L175.96171875,58.393900349736214L176.187890625,45.6338529959321L176.4140625,43.20363561809063L176.640234375,46.62217906862497L176.86640624999998,63.4185264185071L177.092578125,59.15451738238335L177.31875,50.55253046751022L177.544921875,63.22760398685932L177.77109375,51.84935896843672L177.997265625,56.78783751279116L178.2234375,63.487378500401974L178.449609375,52.244714453816414L178.67578125,53.70120435208082L178.901953125,43.4052597284317L179.128125,51.32270845770836L179.35429687500002,45.54074905067682L179.58046875,38.7672194391489L179.806640625,58.13798978179693L180.0328125,52.16893891990185L180.258984375,52.50936175882816L180.48515625000002,59.02491695433855L180.71132812500002,56.914866372942924L180.9375,62.02169689536095L181.163671875,53.46241119503975L181.38984375,59.73915345221758L181.61601562500002,47.246173314750195L181.84218750000002,50.55837254226208L182.068359375,43.252996534109116L182.29453124999998,47.213705621659756L182.52070312499998,78.19949644804001L182.746875,60.515028454363346L182.973046875,55.6106396690011L183.19921875,51.83243277668953L183.42539062499998,71.26387893408537L183.65156249999998,60.973571978509426L183.877734375,59.045759841799736L184.10390625,57.267401956021786L184.330078125,51.27447507530451L184.55625,54.509823985397816L184.78242187499998,48.93546263873577L185.00859375,57.95144560933113L185.234765625,66.59691839665174L185.4609375,30.995295077562332L185.687109375,52.68054246157408L185.91328125,39.63990408182144L186.139453125,50.30993930250406L186.365625,58.82067511975765L186.591796875,53.24078160524368L186.81796875,40.76242643594742L187.044140625,47.97767888009548L187.2703125,43.43553829193115L187.496484375,51.564554527401924L187.72265625,55.12010979652405L187.948828125,52.658769853413105L188.175,42.60345804691315L188.40117187500002,50.54955008625984L188.62734375,52.159377962350845L188.853515625,44.276084929704666L189.0796875,62.625296629965305L189.305859375,56.56942567974329L189.53203125000002,43.337027460336685L189.75820312500002,59.60458132624626L189.984375,63.347419269382954L190.210546875,62.823709577322006L190.43671875,60.84504633396864L190.66289062500002,34.7854169011116L190.88906250000002,62.70780439674854L191.115234375,56.031077831983566L191.34140624999998,50.467273101210594L191.56757812499998,54.16859011352062L191.79375,46.00836559385061L192.019921875,36.58307473361492L192.24609375,50.91123781353235L192.47226562499998,37.606229066848755L192.69843749999998,53.99874135106802L192.924609375,35.90275655686855L193.15078125,66.1073248386383L193.376953125,58.82416981458664L193.603125,49.87930058687925L193.82929687499998,52.71622131764889L194.05546875,47.781857281923294L194.281640625,56.366238847374916L194.5078125,63.49213260412216L194.733984375,33.05655840039253L194.96015625,64.91322058439255L195.186328125,46.73427305370569L195.4125,52.84371833503246L195.638671875,44.042797565460205L195.86484375,60.273241728544235L196.091015625,50.79640082269907L196.31718750000002,65.19101585447788L196.543359375,43.438479110598564L196.76953125,47.73397336900234L196.995703125,56.81541922688484L197.221875,47.17378697544336L197.44804687500002,43.604655146598816L197.67421875000002,54.41549360007048L197.900390625,53.52284304052591L198.1265625,62.496091827750206L198.352734375,62.442880153656006L198.57890625000002,37.072002321481705L198.80507812500002,26.638557940721512L199.03125,53.232849307358265L199.25742187499998,55.86002241075039L199.48359374999998,56.66673644632101L199.709765625,37.49631102383137L199.9359375,53.91103110462427L200.162109375,58.82937888801098L200.38828124999998,61.28589878976345L200.61445312499998,58.659075155854225L200.840625,57.23274513334036L201.066796875,50.15191975235939L201.29296875,42.608825370669365L201.519140625,30.345281839370728L201.74531249999998,30.897272184491158L201.971484375,51.23381133377552L202.19765625,52.22242093831301L202.423828125,45.98417307436466L202.65,50.489210553467274L202.876171875,58.88774688541889L203.10234375,61.90755884349346L203.328515625,50.80437268316746L203.5546875,43.28413228690624L203.780859375,43.65148405730724L204.00703125,55.05272812396288L204.233203125,60.47867703437805L204.459375,34.03669501841068L204.685546875,43.209741443395615L204.91171875,46.42728719115257L205.137890625,65.06096705049276L205.36406250000002,39.406524404883385L205.590234375,38.536332204937935L205.81640625,50.7806681022048L206.042578125,47.51417684555054L206.26875,50.71257430315018L206.49492187500002,47.2977299541235L206.72109375000002,44.60019479691982L206.947265625,34.5094942599535L207.1734375,47.1726528480649L207.399609375,23.457106456160545L207.62578125000002,55.87134390324354L207.85195312500002,48.82727875560522L208.078125,39.33839763700962L208.30429687499998,41.5619730502367L208.53046874999998,31.97471956908703L208.756640625,48.62177751213312L208.9828125,57.17792458087206L209.208984375,47.94933228939772L209.43515624999998,41.68834912776947L209.66132812499998,51.43200009316206L209.8875,53.77301703393459L210.113671875,47.43324498832226L210.33984375,53.29216680675745L210.566015625,59.74888584762812L210.79218749999998,49.245686039328575L211.018359375,39.598350182175636L211.24453125,40.70734213292599L211.470703125,38.45537397265434L211.696875,47.41865298897028L211.923046875,53.03675736486912L212.14921875,32.12633657455444L212.375390625,45.597132325172424L212.6015625,55.250132225453854L212.827734375,56.479018583893776L213.05390625,41.015679717063904L213.28007812500002,48.056837014853954L213.50625,31.368792235851288L213.732421875,50.16398634016514L213.95859375,49.55644353479147L214.184765625,31.914465755224228L214.41093750000002,43.80137349665165L214.63710937500002,54.22685261070728L214.86328125,46.56990370899439L215.089453125,39.27566456794739L215.315625,47.70633890479803L215.54179687500002,42.462892189621925L215.76796875000002,34.467478796839714L215.994140625,34.844365149736404L216.22031249999998,46.70598580688238L216.44648437499998,46.192687667906284L216.67265625,48.21870072931051L216.898828125,54.043123975396156L217.125,51.942199163138866L217.35117187499998,37.04086656868458L217.57734374999998,37.730534702539444L217.803515625,30.124469876289368L218.0296875,52.310170747339725L218.255859375,55.00345292687416L218.48203125,58.81303954124451L218.70820312499998,42.63462017476559L218.934375,45.98644132912159L219.160546875,55.53772582858801L219.38671875,49.23897358775139L219.612890625,31.419920280575752L219.8390625,51.27431682497263L220.065234375,47.585923589766026L220.29140625,35.22727820277214L220.517578125,37.54238824546337L220.74375,41.84376414120197L220.969921875,54.31986424326897L221.19609375,51.11853915452957L221.422265625,54.78439490497112L221.6484375,44.283898539841175L221.874609375,32.487134143710136L222.10078125,45.89710242301226L222.32695312500002,39.03321187198162L222.553125,55.18610677868128L222.779296875,46.90892866998911L223.00546875,46.12807537615299L223.231640625,56.061784990131855L223.45781250000002,37.614458084106445L223.68398437500002,39.71111673116684L223.91015625,40.31770344078541L224.136328125,57.67719778418541L224.3625,49.66290644556284L224.58867187500002,44.67591758072376L224.81484375000002,49.59667208790779L225.041015625,51.70112456381321L225.26718749999998,45.61827852576971L225.49335937499998,49.45973939448595L225.71953125,44.25620473176241L225.945703125,55.21447315067053L226.171875,49.6150489076972L226.39804687499998,54.212794706225395L226.62421874999998,46.56089662760496L226.850390625,37.07634101808071L227.0765625,41.00392962992191L227.302734375,56.95438279956579L227.52890625,49.84122160077095L227.75507812499998,33.36314204335213L227.98125,49.822172217071056L228.207421875,41.91137659549713L228.43359375,39.82565040886402L228.659765625,54.38539306819439L228.8859375,62.294500686228275L229.112109375,58.08067678660154L229.33828125,47.56671595573425L229.564453125,54.037809401750565L229.790625,46.99918410927057L230.016796875,46.937268666923046L230.24296875000002,52.37668863683939L230.469140625,53.21622642874718L230.6953125,59.21932089328766L230.921484375,42.24205385148525L231.14765625,39.9332342594862L231.37382812500002,60.173827551305294L231.60000000000002,50.923284620046616L231.826171875,39.09729006886482L232.05234375,59.0295919328928L232.278515625,57.05251119285822L232.50468750000002,47.046263583004475L232.73085937500002,46.963267877697945L232.95703125,35.221673503518105L233.18320312499998,43.68222418427467L233.40937499999998,51.7119647115469L233.635546875,51.32372389733791L233.86171875,45.30831887573004L234.087890625,41.42019394040108L234.31406249999998,50.74648603051901L234.54023437499998,55.35821720212698L234.76640625,48.93980133533478L234.992578125,50.93467205017805L235.21875,60.7516258880496L235.444921875,50.883201129734516L235.67109374999998,44.71464275568724L235.897265625,32.44414280354977L236.1234375,47.8702334985137L236.349609375,34.444888561964035L236.57578125,42.69075947999954L236.801953125,47.72417503595352L237.028125,44.42956797033548L237.254296875,42.47486646473408L237.48046875,56.67685787379742L237.706640625,61.77729903906584L237.9328125,41.14138323068619L238.158984375,55.48137552291155L238.38515625,46.70905190706253L238.611328125,51.36929339915514L238.8375,49.89903572201729L239.063671875,67.36601500958204L239.28984375000002,50.798675671219826L239.516015625,37.68821592628956L239.7421875,26.47326546907425L239.968359375,45.22823102027178L240.19453125,50.25234277546406L240.42070312500002,52.63119473308325L240.64687500000002,53.67000925540924L240.873046875,57.14100609719753L241.09921875,58.404311902821064L241.325390625,50.49906163662672L241.55156250000002,51.7753901258111L241.77773437500002,68.82541275769472L242.00390625,49.16719387471676L242.23007812499998,66.3298248052597L242.45624999999998,54.97105776518583L242.682421875,42.35209058225155L242.90859375,51.06565057486296L243.134765625,54.21638171374798L243.36093749999998,51.16085793077946L243.58710937499998,43.15558026731014L243.81328125,46.81911501288414L244.039453125,58.59777293354273L244.265625,52.322771430015564L244.491796875,46.628489300608635L244.71796874999998,52.87780809402466L244.944140625,64.48610953241587L245.1703125,62.42652761936188L245.396484375,51.363068886101246L245.62265625,52.34441216289997L245.848828125,38.893621891736984L246.075,59.66644401848316L246.301171875,61.69035366922617L246.52734375,29.864345893263817L246.753515625,37.23865310847759L246.9796875,49.883659064769745L247.20585937500002,55.692903466522694L247.43203125,49.76741100847721L247.658203125,39.91173858940601L247.884375,50.544222325086594L248.110546875,35.61335626244545L248.33671875000002,44.52654245495796L248.56289062500002,34.025393307209015L248.7890625,44.097407117486L249.015234375,63.610339008271694L249.24140625,62.952993504703045L249.46757812500002,44.78269699215889L249.69375000000002,59.20730046182871L249.919921875,61.87677256017923L250.14609374999998,58.60527663677931L250.37226562499998,55.02573984861374L250.5984375,65.3695420101285L250.824609375,48.531001165509224L251.05078125,58.32993424683809L251.27695312499998,51.73142950236797L251.50312499999998,40.31825731694698L251.729296875,55.54940338432789L251.95546875,58.347381345927715L252.181640625,38.42012371122837L252.4078125,43.848518908023834L252.63398437499998,49.02421469986439L252.86015625,44.335198022425175L253.086328125,51.16652197390795L253.3125,53.306040085852146L253.538671875,55.26811341941357L253.76484375,40.57331728935242L253.991015625,47.83493708074093" style="fill: none;" fill="none"></path></g></g></g></g></g></g><g transform="translate(58, 177)" clip-path="url(#clip_1)"><clipPath id="clip_1"><rect width="271" height="23"></rect></clipPath><g><g><line x1="0" y1="0" x2="0" y2="5" style="visibility: inherit;" fill="rgb(0, 0, 0)" stroke="rgb(204, 204, 204)" stroke-width="1px"></line><line x1="22.6171875" y1="0" x2="22.6171875" y2="5" style="visibility: inherit;" fill="rgb(0, 0, 0)" stroke="rgb(204, 204, 204)" stroke-width="1px"></line><line x1="45.234375" y1="0" x2="45.234375" y2="5" style="visibility: inherit;" fill="rgb(0, 0, 0)" stroke="rgb(204, 204, 204)" stroke-width="1px"></line><line x1="67.8515625" y1="0" x2="67.8515625" y2="5" style="visibility: inherit;" fill="rgb(0, 0, 0)" stroke="rgb(204, 204, 204)" stroke-width="1px"></line><line x1="90.46875" y1="0" x2="90.46875" y2="5" style="visibility: inherit;" fill="rgb(0, 0, 0)" stroke="rgb(204, 204, 204)" stroke-width="1px"></line><line x1="113.0859375" y1="0" x2="113.0859375" y2="5" style="visibility: inherit;" fill="rgb(0, 0, 0)" stroke="rgb(204, 204, 204)" stroke-width="1px"></line><line x1="135.703125" y1="0" x2="135.703125" y2="5" style="visibility: inherit;" fill="rgb(0, 0, 0)" stroke="rgb(204, 204, 204)" stroke-width="1px"></line><line x1="158.3203125" y1="0" x2="158.3203125" y2="5" style="visibility: inherit;" fill="rgb(0, 0, 0)" stroke="rgb(204, 204, 204)" stroke-width="1px"></line><line x1="180.9375" y1="0" x2="180.9375" y2="5" style="visibility: inherit;" fill="rgb(0, 0, 0)" stroke="rgb(204, 204, 204)" stroke-width="1px"></line><line x1="203.5546875" y1="0" x2="203.5546875" y2="5" style="visibility: inherit;" fill="rgb(0, 0, 0)" stroke="rgb(204, 204, 204)" stroke-width="1px"></line><line x1="226.171875" y1="0" x2="226.171875" y2="5" style="visibility: inherit;" fill="rgb(0, 0, 0)" stroke="rgb(204, 204, 204)" stroke-width="1px"></line><line x1="248.7890625" y1="0" x2="248.7890625" y2="5" style="visibility: inherit;" fill="rgb(0, 0, 0)" stroke="rgb(204, 204, 204)" stroke-width="1px"></line><line x1="271.40625" y1="0" x2="271.40625" y2="5" style="visibility: inherit;" fill="rgb(0, 0, 0)" stroke="rgb(204, 204, 204)" stroke-width="1px"></line></g><g transform="translate(0, 8)"><text x="0" y="0" dx="0em" dy="0.95em" style="text-anchor: middle; visibility: hidden; font-family: &quot;Helvetica Neue&quot;, sans-serif; font-size: 12px; font-weight: 200;" fill="rgb(50, 49, 63)" stroke="none" stroke-width="1px">-100</text><text x="22.6171875" y="0" dx="0em" dy="0.95em" style="text-anchor: middle; visibility: inherit; font-family: &quot;Helvetica Neue&quot;, sans-serif; font-size: 12px; font-weight: 200;" fill="rgb(50, 49, 63)" stroke="none" stroke-width="1px">0</text><text x="45.234375" y="0" dx="0em" dy="0.95em" style="text-anchor: middle; visibility: hidden; font-family: &quot;Helvetica Neue&quot;, sans-serif; font-size: 12px; font-weight: 200;" fill="rgb(50, 49, 63)" stroke="none" stroke-width="1px">100</text><text x="67.8515625" y="0" dx="0em" dy="0.95em" style="text-anchor: middle; visibility: inherit; font-family: &quot;Helvetica Neue&quot;, sans-serif; font-size: 12px; font-weight: 200;" fill="rgb(50, 49, 63)" stroke="none" stroke-width="1px">200</text><text x="90.46875" y="0" dx="0em" dy="0.95em" style="text-anchor: middle; visibility: hidden; font-family: &quot;Helvetica Neue&quot;, sans-serif; font-size: 12px; font-weight: 200;" fill="rgb(50, 49, 63)" stroke="none" stroke-width="1px">300</text><text x="113.0859375" y="0" dx="0em" dy="0.95em" style="text-anchor: middle; visibility: inherit; font-family: &quot;Helvetica Neue&quot;, sans-serif; font-size: 12px; font-weight: 200;" fill="rgb(50, 49, 63)" stroke="none" stroke-width="1px">400</text><text x="135.703125" y="0" dx="0em" dy="0.95em" style="text-anchor: middle; visibility: hidden; font-family: &quot;Helvetica Neue&quot;, sans-serif; font-size: 12px; font-weight: 200;" fill="rgb(50, 49, 63)" stroke="none" stroke-width="1px">500</text><text x="158.3203125" y="0" dx="0em" dy="0.95em" style="text-anchor: middle; visibility: inherit; font-family: &quot;Helvetica Neue&quot;, sans-serif; font-size: 12px; font-weight: 200;" fill="rgb(50, 49, 63)" stroke="none" stroke-width="1px">600</text><text x="180.9375" y="0" dx="0em" dy="0.95em" style="text-anchor: middle; visibility: hidden; font-family: &quot;Helvetica Neue&quot;, sans-serif; font-size: 12px; font-weight: 200;" fill="rgb(50, 49, 63)" stroke="none" stroke-width="1px">700</text><text x="203.5546875" y="0" dx="0em" dy="0.95em" style="text-anchor: middle; visibility: inherit; font-family: &quot;Helvetica Neue&quot;, sans-serif; font-size: 12px; font-weight: 200;" fill="rgb(50, 49, 63)" stroke="none" stroke-width="1px">800</text><text x="226.171875" y="0" dx="0em" dy="0.95em" style="text-anchor: middle; visibility: hidden; font-family: &quot;Helvetica Neue&quot;, sans-serif; font-size: 12px; font-weight: 200;" fill="rgb(50, 49, 63)" stroke="none" stroke-width="1px">900</text><text x="248.7890625" y="0" dx="0em" dy="0.95em" style="text-anchor: middle; visibility: inherit; font-family: &quot;Helvetica Neue&quot;, sans-serif; font-size: 12px; font-weight: 200;" fill="rgb(50, 49, 63)" stroke="none" stroke-width="1px">1k</text><text x="271.40625" y="0" dx="0em" dy="0.95em" style="text-anchor: middle; visibility: hidden; font-family: &quot;Helvetica Neue&quot;, sans-serif; font-size: 12px; font-weight: 200;" fill="rgb(50, 49, 63)" stroke="none" stroke-width="1px">1.1k</text></g><line x1="0" y1="0" x2="271.40625" y2="0" fill="rgb(0, 0, 0)" stroke="rgb(204, 204, 204)" stroke-width="1px"></line></g></g></g></g></svg>