<svg viewBox="0 0 330 200" xmlns="http://www.w3.org/2000/svg"><g><g><g><g><g><line x1="58.59375" y1="177" x2="53.59375" y2="177" style="visibility: inherit;" fill="rgb(0, 0, 0)" stroke="rgb(204, 204, 204)" stroke-width="1px"></line><line x1="58.59375" y1="151.71428571428572" x2="53.59375" y2="151.71428571428572" style="visibility: inherit;" fill="rgb(0, 0, 0)" stroke="rgb(204, 204, 204)" stroke-width="1px"></line><line x1="58.59375" y1="126.42857142857142" x2="53.59375" y2="126.42857142857142" style="visibility: inherit;" fill="rgb(0, 0, 0)" stroke="rgb(204, 204, 204)" stroke-width="1px"></line><line x1="58.59375" y1="101.14285714285712" x2="53.59375" y2="101.14285714285712" style="visibility: inherit;" fill="rgb(0, 0, 0)" stroke="rgb(204, 204, 204)" stroke-width="1px"></line><line x1="58.59375" y1="75.85714285714285" x2="53.59375" y2="75.85714285714285" style="visibility: inherit;" fill="rgb(0, 0, 0)" stroke="rgb(204, 204, 204)" stroke-width="1px"></line><line x1="58.59375" y1="50.57142857142857" x2="53.59375" y2="50.57142857142857" style="visibility: inherit;" fill="rgb(0, 0, 0)" stroke="rgb(204, 204, 204)" stroke-width="1px"></line><line x1="58.59375" y1="25.285714285714278" x2="53.59375" y2="25.285714285714278" style="visibility: inherit;" fill="rgb(0, 0, 0)" stroke="rgb(204, 204, 204)" stroke-width="1px"></line><line x1="58.59375" y1="0" x2="53.59375" y2="0" style="visibility: inherit;" fill="rgb(0, 0, 0)" stroke="rgb(204, 204, 204)" stroke-width="1px"></line></g><g transform="translate(48.59375, 0)"><text x="0" y="177" dx="0em" dy="0.3em" style="text-anchor: end; visibility: hidden; font-family: &quot;Helvetica Neue&quot;, sans-serif; font-size: 12px; font-weight: 200;" fill="rgb(50, 49, 63)" stroke="none" stroke-width="1px">-0.05</text><text x="0" y="151.71428571428572" dx="0em" dy="0.3em" style="text-anchor: end; visibility: inherit; font-family: &quot;Helvetica Neue&quot;, sans-serif; font-size: 12px; font-weight: 200;" fill="rgb(50, 49, 63)" stroke="none" stroke-width="1px">0</text><text x="0" y="126.42857142857142" dx="0em" dy="0.3em" style="text-anchor: end; visibility: inherit; font-family: &quot;Helvetica Neue&quot;, sans-serif; font-size: 12px; font-weight: 200;" fill="rgb(50, 49, 63)" stroke="none" stroke-width="1px">0.05</text><text x="0" y="101.14285714285712" dx="0em" dy="0.3em" style="text-anchor: end; visibility: inherit; font-family: &quot;Helvetica Neue&quot;, sans-serif; font-size: 12px; font-weight: 200;" fill="rgb(50, 49, 63)" stroke="none" stroke-width="1px">0.1</text><text x="0" y="75.85714285714285" dx="0em" dy="0.3em" style="text-anchor: end; visibility: inherit; font-family: &quot;Helvetica Neue&quot;, sans-serif; font-size: 12px; font-weight: 200;" fill="rgb(50, 49, 63)" stroke="none" stroke-width="1px">0.15</text><text x="0" y="50.57142857142857" dx="0em" dy="0.3em" style="text-anchor: end; visibility: inherit; font-family: &quot;Helvetica Neue&quot;, sans-serif; font-size: 12px; font-weight: 200;" fill="rgb(50, 49, 63)" stroke="none" stroke-width="1px">0.2</text><text x="0" y="25.285714285714278" dx="0em" dy="0.3em" style="text-anchor: end; visibility: inherit; font-family: &quot;Helvetica Neue&quot;, sans-serif; font-size: 12px; font-weight: 200;" fill="rgb(50, 49, 63)" stroke="none" stroke-width="1px">0.25</text><text x="0" y="0" dx="0em" dy="0.3em" style="text-anchor: end; visibility: hidden; font-family: &quot;Helvetica Neue&quot;, sans-serif; font-size: 12px; font-weight: 200;" fill="rgb(50, 49, 63)" stroke="none" stroke-width="1px">0.3</text></g><line x1="58.59375" y1="0" x2="58.59375" y2="177" fill="rgb(0, 0, 0)" stroke="rgb(204, 204, 204)" stroke-width="1px"></line></g></g><g transform="translate(58, 0)" clip-path="url(#clip_0)"><clipPath id="clip_0"><rect width="271" height="177"></rect></clipPath><g><g><g><line x1="0" y1="0" x2="0" y2="177" fill="rgb(0, 0, 0)" stroke="rgb(60, 60, 60)" stroke-width="1px" opacity="0.25"></line><line x1="22.6171875" y1="0" x2="22.6171875" y2="177" fill="rgb(0, 0, 0)" stroke="rgb(60, 60, 60)" stroke-width="1px" opacity="0.25"></line><line x1="45.234375" y1="0" x2="45.234375" y2="177" fill="rgb(0, 0, 0)" stroke="rgb(60, 60, 60)" stroke-width="1px" opacity="0.25"></line><line x1="67.8515625" y1="0" x2="67.8515625" y2="177" fill="rgb(0, 0, 0)" stroke="rgb(60, 60, 60)" stroke-width="1px" opacity="0.25"></line><line x1="90.46875" y1="0" x2="90.46875" y2="177" fill="rgb(0, 0, 0)" stroke="rgb(60, 60, 60)" stroke-width="1px" opacity="0.25"></line><line x1="113.0859375" y1="0" x2="113.0859375" y2="177" fill="rgb(0, 0, 0)" stroke="rgb(60, 60, 60)" stroke-width="1px" opacity="0.25"></line><line x1="135.703125" y1="0" x2="135.703125" y2="177" fill="rgb(0, 0, 0)" stroke="rgb(60, 60, 60)" stroke-width="1px" opacity="0.25"></line><line x1="158.3203125" y1="0" x2="158.3203125" y2="177" fill="rgb(0, 0, 0)" stroke="rgb(60, 60, 60)" stroke-width="1px" opacity="0.25"></line><line x1="180.9375" y1="0" x2="180.9375" y2="177" fill="rgb(0, 0, 0)" stroke="rgb(60, 60, 60)" stroke-width="1px" opacity="0.25"></line><line x1="203.5546875" y1="0" x2="203.5546875" y2="177" fill="rgb(0, 0, 0)" stroke="rgb(60, 60, 60)" stroke-width="1px" opacity="0.25"></line><line x1="226.171875" y1="0" x2="226.171875" y2="177" fill="rgb(0, 0, 0)" stroke="rgb(60, 60, 60)" stroke-width="1px" opacity="0.25"></line><line x1="248.7890625" y1="0" x2="248.7890625" y2="177" fill="rgb(0, 0, 0)" stroke="rgb(60, 60, 60)" stroke-width="1px" opacity="0.25"></line><line x1="271.40625" y1="0" x2="271.40625" y2="177" fill="rgb(0, 0, 0)" stroke="rgb(60, 60, 60)" stroke-width="1px" opacity="0.25"></line></g><g><line x1="0" y1="177" x2="271.40625" y2="177" fill="rgb(0, 0, 0)" stroke="rgb(60, 60, 60)" stroke-width="1px" opacity="0.25"></line><line x1="0" y1="151.71428571428572" x2="271.40625" y2="151.71428571428572" fill="rgb(0, 0, 0)" stroke="rgb(60, 60, 60)" stroke-width="1px" opacity="0.25"></line><line x1="0" y1="126.42857142857142" x2="271.40625" y2="126.42857142857142" fill="rgb(0, 0, 0)" stroke="rgb(60, 60, 60)" stroke-width="1px" opacity="0.25"></line><line x1="0" y1="101.14285714285712" x2="271.40625" y2="101.14285714285712" fill="rgb(0, 0, 0)" stroke="rgb(60, 60, 60)" stroke-width="1px" opacity="0.25"></line><line x1="0" y1="75.85714285714285" x2="271.40625" y2="75.85714285714285" fill="rgb(0, 0, 0)" stroke="rgb(60, 60, 60)" stroke-width="1px" opacity="0.25"></line><line x1="0" y1="50.57142857142857" x2="271.40625" y2="50.57142857142857" fill="rgb(0, 0, 0)" stroke="rgb(60, 60, 60)" stroke-width="1px" opacity="0.25"></line><line x1="0" y1="25.285714285714278" x2="271.40625" y2="25.285714285714278" fill="rgb(0, 0, 0)" stroke="rgb(60, 60, 60)" stroke-width="1px" opacity="0.25"></line><line x1="0" y1="0" x2="271.40625" y2="0" fill="rgb(0, 0, 0)" stroke="rgb(60, 60, 60)" stroke-width="1px" opacity="0.25"></line></g></g></g><g><g><line x1="0" y1="151.71428571428572" x2="271.40625" y2="151.71428571428572" fill="rgb(0, 0, 0)" stroke="rgb(153, 153, 153)" stroke-width="1.5px"></line></g></g><g><g><line x1="22.6171875" y1="0" x2="22.6171875" y2="177" fill="rgb(0, 0, 0)" stroke="rgb(153, 153, 153)" stroke-width="1.5px"></line></g></g><g><g><g><g><g><path stroke="rgb(238, 51, 119)" stroke-width="2px" d="M23.521875,-1.8165239095687866L23.748046875,35.03162879603249L23.97421875,40.16343084403445L24.200390625,41.50429344177246L24.4265625,42.5252416900226L24.652734375,43.02224569661277L24.87890625,43.222997546195984L25.105078125,43.63052982943398L25.33125,43.88500389882495L25.557421875,44.040888011455536L25.78359375,44.25763068028857L26.009765625,44.419181661946425L26.2359375,44.58067989349365L26.462109375,44.70216339826584L26.68828125,44.77467972891671L26.914453125,44.854724253926975L27.140625,44.99518272706439L27.366796875,44.9406315769468L27.59296875,45.08195665904452L27.819140625,45.19090070894788L28.0453125,45.50379929372241L28.271484375,47.44088132040841L28.49765625,57.97846195527485L28.723828125,64.47184985876083L28.950000000000003,67.07490956783295L29.176171874999998,69.09343776532582L29.40234375,70.21647254909787L29.628515625,71.37384765488761L29.8546875,71.90999977929252L30.080859375000003,72.86909475496837L30.307031249999998,73.31016857283456L30.533203125,73.88778228419167L30.759375,74.50712886878422L30.985546875,75.10716137715748L31.211718750000003,75.31965389422008L31.437890624999998,75.55137005874089L31.6640625,75.97925634895053L32.11640625,76.48565741096225L32.342578125,77.10432577984673L32.56875,77.1027131336076L32.794921875,76.6976676412991L33.02109375,77.5798077413014L33.247265625,77.84015214443207L33.4734375,77.74529990979603L33.699609375,77.88519320317677L33.92578125,78.27781981229782L34.151953125,78.68669345549175L34.378125000000004,78.62580475636891L34.604296875,78.83882477453777L34.83046875,79.23703535965511L35.056640625,79.11409745897565L35.2828125,79.64952615329197L35.508984375,79.67728778294155L35.735156249999996,79.50548820836204L35.961328125,80.46933822972434L36.1875,80.03616185699191L36.413671875,80.18478152581623L36.639843750000004,80.9709917817797L36.866015625,80.67360172952924L37.092187499999994,81.02951426165444L37.318359375,80.8918440086501L37.54453125,81.15008594308581L37.770703125,81.2789243204253L37.996875,81.63528146062579L38.223046875,81.53430267742702L38.44921875,81.81600333963122L38.675390625,81.69939545222691L38.901562500000004,81.85717103310994L39.127734375,82.14917303834643L39.353906249999994,82.64677990334374L39.580078125,82.72600303377423L39.80625,82.80195565734591L40.032421875,82.48073009082249L40.25859375,83.11470352751869L40.484765625,82.88302504164832L40.7109375,82.97735731090818L40.937109375000006,83.27516182831356L41.163281250000004,83.30852250541959L41.389453124999996,83.69404292106628L41.615624999999994,83.72001104695457L41.841796875,83.64293559959957L42.06796875,83.75320593799863L42.294140625,83.95529161180768L42.5203125,84.192441037723L42.746484375,84.18724138396126L42.97265625,84.42136144638062L43.198828125000006,84.49063741309303L43.425000000000004,84.78390542098454L43.651171874999996,84.55747180325645L43.877343749999994,84.86749927486692L44.103515625,84.84830577032906L44.3296875,85.07238824026925L44.555859375,85.37005711453301L44.78203125,85.61223287241799L45.008203125,85.13971245288849L45.234375,85.36325988599232L45.460546875000006,86.03182985952922L45.68671875,85.9378291623933L45.912890624999996,85.97037598064968L46.1390625,86.15568711927959L46.365234375,86.22186590092522L46.59140625,86.08924458708081L46.817578125,86.01445246594292L47.04375,86.00543219702584L47.269921875,86.34048582826343L47.49609375,86.41898552860532L47.722265625000006,86.46163022518158L47.9484375,86.84271963153567L48.174609374999996,86.61937566314425L48.40078125,87.07874623366764L48.626953125,86.99707399095807L48.853125,87.11883631774357L49.079296875000004,86.97948559692928L49.30546875,87.17263389485223L49.531640625,87.53065643140248L49.7578125,87.01744306938988L49.983984375,87.4573563848223L50.21015625,87.15302592515945L50.436328124999996,87.5848307950156L50.6625,87.35991939476558L50.888671875,87.52954867907933L51.11484375,87.52833542653492L51.341015625000004,87.88403695821762L51.5671875,87.48707730429513L51.793359375,87.80834808519909L52.01953125,87.92563418831143L52.245703125,88.01057693787983L52.471875,87.99860266276768L52.698046874999996,88.14545897075108L52.92421875,87.83742846761432L53.150390625,88.3473562513079L53.3765625,87.78583132369178L53.602734375000004,88.16461479663849L53.82890625,88.38727301359177L54.055078124999994,88.46440121105739L54.28125,88.21825412341526L54.507421875,88.36324910606656L54.73359375,88.55238462771689L54.959765625,88.79476008244923L55.1859375,88.52929515072277L55.412109375,88.47019618749619L55.63828125,88.5354895208563L55.864453125000004,88.61606531483785L56.090625,88.7385058573314L56.316796874999994,88.75195336767605L56.54296875,88.63266276035989L56.769140625,88.53212104950632L56.9953125,88.78826428311213L57.221484375,88.95684986880848L57.44765625,88.74944020169123L57.673828125,88.79901400208473L57.900000000000006,88.99463401947702L58.126171875000004,89.02439261760031L58.352343749999996,89.16849838410104L58.578515624999994,88.81499728560448L58.8046875,89.14678794571331L59.030859375,89.47556808165142L59.25703125,89.29581454396248L59.483203125,89.31885503871099L59.709375,88.98821734530584L59.935546875,89.73935631343296L60.161718750000006,89.07412843619073L60.387890625000004,89.25454135026251L60.614062499999996,89.45415530460222L60.840234374999994,89.42036885874613L61.06640625,89.4159453851836L61.292578125,89.28364810773304L61.51875,89.36815755282129L61.744921875,89.18735654864992L61.97109375,89.64426293543407L62.197265625,89.85099815470831L62.423437500000006,89.77038091421127L62.649609375,89.71103327189172L62.875781249999996,89.80207996283258L63.101953125,89.81896376609802L63.328125,89.67743521928787L63.554296875,89.72282668948174L63.78046875,89.58588740229607L64.006640625,89.83174813219479L64.2328125,90.11307200789452L64.458984375,90.25010925957135L64.68515625,90.02419560721943L64.911328125,90.27826274718558L65.1375,89.74580689838955L65.36367187500001,90.13800773876055L65.58984375,90.12306815385818L65.81601562499999,89.9945764201028L66.0421875,89.77144722001894L66.268359375,90.17369318859919L66.49453125,90.10756338919913L66.720703125,90.24990579485893L66.946875,90.34595997844423L67.173046875,90.36994997518404L67.39921875,90.43801268935204L67.62539062500001,90.48731143559729L67.8515625,90.54080758350237L68.077734375,90.4366185792855L68.30390625,90.50561195611954L68.530078125,90.57715617758886L68.75625000000001,90.67903171266829L68.982421875,90.88037888492858L69.20859375,90.61300741348947L69.43476562500001,90.52012954013689L69.6609375,90.85198802181652L69.88710937500001,90.81947511434555L70.11328125,90.75750127008983L70.33945312499999,90.75854120084217L70.565625,91.05801865032741L70.79179687499999,90.77573396904127L71.01796875,90.73912162440165L71.244140625,90.89789945738657L71.47031249999999,91.1673809332507L71.696484375,91.0879468023777L71.92265625,90.8413211958749L72.148828125,90.70462681991712L72.375,91.31038648315838L72.601171875,91.1317143227373L72.82734375,91.31172407524927L73.053515625,91.31632840633392L73.505859375,91.37955694964954L73.73203125,91.1307120706354L73.95820312500001,91.44916825635092L74.18437499999999,91.08307872073992L74.410546875,91.33232299344881L74.63671875,91.41251823306084L74.86289062499999,91.54888480475971L75.0890625,91.60851503695761L75.315234375,91.55469862052372L75.54140625,91.5507385943617L75.767578125,91.46113499573299L75.99375,91.58187623109137L76.219921875,91.67465237208775L76.44609375,91.51186929856027L76.672265625,91.73755311114446L76.8984375,92.13992718713625L77.124609375,91.6361862378461L77.35078125,92.2386904656887L77.576953125,91.72416588664055L77.80312500000001,92.22083832110678L78.029296875,92.1898853097643L78.25546875,92.48879757949284L78.48164062500001,92.32470328892981L78.70781249999999,92.2032348556178L78.933984375,92.35370454617909L79.16015625,92.57525501080922L79.38632812499999,92.55757618801935L79.6125,92.47627319608415L79.838671875,92.17446343813623L80.06484375,92.30172684788704L80.291015625,92.65588732276643L80.5171875,92.32493689656258L80.743359375,92.4309834582465L80.96953125,92.49293469531194L81.19570312500001,92.39683906521117L81.421875,92.65016393576349L81.648046875,92.56531538282121L81.87421875000001,92.59884561385428L82.100390625,92.74535904611861L82.32656250000001,92.68459468654224L82.552734375,93.18193403312138L83.005078125,93.18222039086477L83.23124999999999,93.14050258908952L83.457421875,93.0414717921189L83.68359375,92.88175952860287L83.90976562499999,93.12695711425373L84.1359375,93.29656002351216L84.362109375,93.01230851667269L84.58828125,93.2158749614443L84.814453125,93.2971779533795L85.040625,93.28682009237154L85.266796875,93.45230849300111L85.49296875,93.04594424792698L85.71914062500001,93.40155158298357L85.9453125,93.46634379029274L86.171484375,93.37001455255917L86.39765625000001,93.4134580365249L86.623828125,93.56368658372334L86.85000000000001,93.62841096946171L87.076171875,93.49620412077223L87.30234374999999,93.362418536629L87.528515625,93.49347618647984L87.980859375,93.8102745115757L88.20703125,93.95278647116253L88.43320312499999,93.74000006062643L88.659375,93.8244605234691L88.885546875,93.63158351182938L89.11171875,93.61224306055477L89.337890625,93.77648052998951L89.5640625,94.13241190143994L89.790234375,93.74620196649006L90.01640625,94.16055031759397L90.24257812500001,94.08778530785015L90.46875,94.07246893644333L90.694921875,94.3487928552287L90.92109375000001,94.1275475876672L91.14726562499999,94.18392992019653L91.3734375,94.06383675762585L91.599609375,94.21734711527824L91.82578124999999,94.32484053713934L92.051953125,94.21934785161699L92.278125,94.50005756531442L92.504296875,94.49433417831148L92.73046875,94.58628138899803L92.956640625,94.51043803351267L93.408984375,94.88442878212248L93.63515625,94.58717814087868L93.861328125,94.71570001755441L94.0875,94.8952387869358L94.313671875,94.9687686732837L94.53984375,95.0120388354574L94.76601562500001,94.60306722777231L94.9921875,94.8843383533614L95.218359375,94.94496706979616L95.44453125000001,95.12220367363521L95.67070312499999,94.65922348839895L95.896875,95.47678238153458L96.123046875,95.5111942929881L96.34921874999999,95.00209920746939L96.575390625,95.58042504531996L96.8015625,95.14435872009823L97.027734375,95.29863395435468L97.25390625,95.23802784511021L97.480078125,95.26319718360901L97.70625,95.7151299885341L97.932421875,95.33175348809787L98.15859375000001,95.60427939891815L98.384765625,95.69023947204863L98.6109375,95.60388377308846L98.83710937500001,95.84923960907118L99.06328125,95.71976823040417L99.28945312500001,95.77818144219263L99.515625,95.93318764226778L99.74179687499999,96.28190355215753L99.96796875,95.66876264129365L100.19414062499999,95.95863203491484L100.4203125,95.75175740463392L100.646484375,96.13894698449543L100.87265624999999,95.86507594585419L101.098828125,95.89843285509518L101.325,96.31497410365513L101.551171875,95.96720769575664L101.77734375,96.48925293343409L102.003515625,96.31351970774786L102.2296875,96.29648895774568L102.455859375,96.38839848978178L102.68203125000001,96.27608596852848L102.908203125,96.16881108283997L103.134375,96.65186645303453L103.36054687500001,96.46744829842022L103.58671875,96.60202513422286L103.81289062500001,96.51398896745273L104.0390625,96.85157083613531L104.26523437499999,97.07858093721525L104.49140625,96.8034288244588L104.71757812499999,96.82718898143088L104.94375,96.97004004887172L105.169921875,96.89689071689332L105.39609374999999,97.22119086129324L105.622265625,96.5928466149739L105.8484375,97.21840264116014L106.30078125,97.26698926091194L106.526953125,97.32652152861868L106.753125,97.03572900806154L106.979296875,97.40181100794247L107.20546875000001,96.89011986340796L107.431640625,97.09705477952957L107.6578125,97.74060989703452L107.88398437500001,97.52226211769239L108.11015624999999,97.3798518904618L108.336328125,97.54174951570376L108.5625,97.61856498037065L108.78867187499999,97.54153851526125L109.01484375,97.7104179944311L109.241015625,97.73492795654705L109.4671875,97.42811070595468L109.693359375,97.78318300417492L109.91953125,98.01989158987999L110.145703125,97.98420614004135L110.371875,98.00495200497762L110.598046875,98.10378687296594L110.82421875,97.92109440054213L111.050390625,98.22287778343474L111.2765625,97.76126533320972L111.502734375,98.058640314L111.955078125,98.04628925238336L112.18125,98.37052911094257L112.40742187500001,98.106318878276L112.63359374999999,98.34960992421423L112.859765625,98.26689775075232L113.0859375,98.6179308976446L113.31210937499999,98.38087566835539L113.53828125,98.2773498083864L113.764453125,98.64189075146402L113.990625,98.7661775478295L114.216796875,98.70601227879524L114.44296875,98.77644498007639L114.669140625,98.72386065551213L114.8953125,98.75063887238503L115.12148437500001,98.5456820854119L115.34765625,98.7514037489891L115.573828125,98.79705520187105L115.80000000000001,99.15331060971533L116.026171875,99.11751589179039L116.25234375000001,98.6533111504146L116.478515625,99.4532967209816L116.70468749999999,99.16635495850018L117.15703124999999,99.15719527857645L117.383203125,98.94955200382641L117.609375,99.12178865075111L117.83554687499999,99.22592490485737L118.06171875,99.52863141468593L118.287890625,99.65673882620676L118.5140625,99.44899005123547L118.740234375,99.38688056383813L118.96640625,99.41415237103189L119.192578125,99.50283284272467L119.41875,99.65040127720152L119.64492187500001,99.44358316489628L119.87109375,99.42516584055765L120.32343750000001,99.65442535706929L120.549609375,99.72976381863867L120.77578125000001,99.75285706349781L121.001953125,99.91291597059795L121.22812499999999,99.81679773330688L121.454296875,99.78913030028343L121.68046874999999,99.8820986023971L121.906640625,100.18375011001314L122.1328125,99.85303329144205L122.35898437499999,100.11475673317909L122.58515625,99.98577517696789L122.811328125,100.17650827339718L123.0375,99.92883520041192L123.263671875,100.0612342102187L123.48984375,100.32947982634818L123.716015625,100.29188783679689L123.9421875,99.91113000256675L124.16835937500001,100.4337328842708L124.39453125,100.41299078719958L124.620703125,100.45814111403057L124.84687500000001,100.48513409921101L125.07304687499999,100.39521399991854L125.29921875,100.31895241141319L125.525390625,100.64412670050348L125.75156249999999,100.39014245356833L125.977734375,100.47011538914272L126.20390625,101.00791407057217L126.430078125,100.44972747138569L126.65625,100.2281204887799L126.882421875,100.59137282201222L127.10859375,100.91015681198665L127.334765625,100.56509573119028L127.5609375,100.77813458868435L127.787109375,100.94833658848489L128.01328125,100.44164540086473L128.23945312499998,100.73379812070301L128.465625,100.7569441156728L128.691796875,100.70100262335369L128.91796875,100.90443719284876L129.144140625,100.90606867841312L129.3703125,100.64942055089134L129.596484375,100.79449465870857L129.82265625,101.18793512667929L130.048828125,100.72103259393147L130.275,101.22714729819978L130.501171875,101.24501074637686L130.72734375000002,101.27189069560596L130.953515625,101.05460922207152L131.1796875,101.3519013098308L131.405859375,101.47971482787813L131.63203124999998,101.25117497359003L131.858203125,101.22111871412822L132.084375,101.33415089760507L132.310546875,101.28775717530931L132.53671875,101.06440567118781L132.762890625,101.23767848099982L132.9890625,101.14209904841015L133.215234375,101.4636486513274L133.44140625,101.17953278762954L133.667578125,101.31417744500297L133.89375,101.30833348631859L134.119921875,101.20712109548705L134.572265625,101.05046833838736L134.7984375,101.18980775560652L135.024609375,101.24302508149827L135.25078125000002,101.41603037289211L135.476953125,101.63793501683644L135.703125,101.27695470622608L136.15546875,101.48700187887465L136.381640625,101.27309641242027L136.6078125,101.03470359104021L136.833984375,101.05628592201641L137.06015625,101.46656874673708L137.286328125,101.35293747271811L137.51250000000002,101.01452290586063L137.738671875,101.47312859977995L137.96484375,101.370028508561L138.191015625,101.01364876117026L138.4171875,101.43606787919998L138.64335937500002,101.38452725325311L138.86953125000002,101.31982547470501L139.095703125,101.0831545676504L139.321875,101.4241237470082L139.548046875,101.62670301113809L139.77421875000002,101.3742560531412L140.00039062500002,101.27080555047309L140.2265625,101.18587787236487L140.45273437499998,101.55479707462447L140.67890624999998,101.21486782601902L140.905078125,101.52580712097033L141.13125,101.11973300150463L141.357421875,101.4894246160984L142.0359375,101.59962336506163L142.262109375,101.71001427514213L142.48828125,101.67738456385477L142.714453125,101.21188744476864L142.94062499999998,101.34995709146773L143.166796875,101.30990468604224L143.39296875,101.50471461244992L143.619140625,101.37154695817402L143.8453125,101.61574605958803L144.071484375,101.79135117786272L144.29765625,101.55024549365044L144.523828125,101.60813874006271L144.75,101.74944875070027L144.976171875,101.5217189873968L145.20234375,101.26750866855895L145.42851562500002,101.76431297830173L145.6546875,101.73768547603062L145.880859375,101.46467727848461L146.10703125,101.7723799773625L146.333203125,101.23297618542398L146.55937500000002,101.54372708712305L146.78554687500002,101.69296468581473L147.01171875,101.50875376377786L147.237890625,101.21100199648312L147.4640625,101.5556410763945L147.69023437500002,101.43607164706503L147.91640625000002,101.60503025140082L148.142578125,101.69604679942131L148.36874999999998,101.2831980586052L148.59492187499998,101.85972662482942L148.82109375,101.83958738616535L149.047265625,101.53872336234366L149.2734375,101.78587270208767L149.49960937499998,101.70815671767508L149.72578124999998,101.50196783883231L149.951953125,101.58055796793529L150.178125,101.60994731528419L150.404296875,101.7916865178517L150.63046875,101.71383489029749L150.85664062499998,101.46242409518787L151.0828125,101.5409011883395L151.308984375,101.47044964773315L151.53515625,101.73071115783283L151.761328125,101.79649808151382L151.9875,101.85189323340143L152.213671875,101.92124832527979L152.43984375,101.73464480893954L152.666015625,101.73629890169417L152.8921875,101.88885975735529L153.118359375,101.71282133460045L153.34453125,101.78133996043886L153.570703125,102.02044114044735L153.796875,101.64457022718021L154.023046875,101.87790657367026L154.24921875,101.70988993559564L154.47539062500002,101.77416971325874L154.7015625,101.86043498345784L154.927734375,101.96561493618148L155.15390625,101.92000869768007L155.380078125,101.5759762440409L155.60625000000002,101.86508452892303L155.83242187500002,101.9514138528279L156.05859375,101.74441111513546L156.284765625,101.85600397416523L156.5109375,101.95179440719741L156.73710937500002,101.69157811147826L156.96328125000002,102.03665803159987L157.189453125,101.75617062194007L157.41562499999998,101.77441085662161L157.64179687499998,101.96434893352645L157.86796875,102.12583586147854L158.094140625,102.3792059464114L158.3203125,101.87538210409029L158.54648437499998,101.90256725038802L158.77265624999998,102.32627874612808L158.998828125,101.9233394903796L159.225,101.89291021227837L159.451171875,101.78811834965433L159.67734375,101.54578810930252L160.1296875,102.17346921137401L160.355859375,101.82495299833163L160.58203125,102.01519627230509L160.808203125,102.01817665355547L161.034375,102.37489550880024L161.260546875,102.08663122568811L161.48671875,102.46698213049343L161.712890625,102.55803258929933L161.9390625,102.05169558099338L162.165234375,101.85092865994999L162.39140625000002,102.19296791298049L162.617578125,102.17611048477038L162.84375,102.23484396508762L163.069921875,102.50209109698022L163.29609375,102.37472595487321L163.52226562500002,102.51315354875156L163.74843750000002,102.29231897847994L163.974609375,102.40751768435752L164.20078125,102.2141696895872L164.426953125,101.71529305406979L164.65312500000002,102.25650165336474L164.87929687500002,102.25908264092037L165.10546875,102.25043539064272L165.33164062499998,102.21036037802696L165.55781249999998,102.30743942090443L165.783984375,102.23357419456755L166.01015625,102.49043709039688L166.236328125,102.220386666911L166.46249999999998,102.32885973368371L166.68867187499998,102.3624351790973L166.91484375,102.50871123586381L167.141015625,102.43471790211542L167.3671875,102.3497487774917L167.593359375,102.48497368608201L167.81953124999998,102.2917010486126L168.045703125,102.5892719583852L168.271875,102.39255926012993L168.498046875,102.63589175258363L168.72421875,102.46507935864585L168.950390625,102.20010048151016L169.1765625,102.48086671318327L169.402734375,102.64105749555996L169.62890625,102.48827056799615L169.855078125,102.51125077690398L170.08125,102.5609941312245L170.307421875,102.44085952213833L170.53359375,102.59722968935966L170.759765625,102.73587958727563L170.9859375,102.62513826574599L171.212109375,102.74632787704468L171.43828125000002,102.85428851417133L171.664453125,102.62212397371019L171.890625,102.62257988538062L172.116796875,102.39967298933438L172.34296875,102.88366279006004L172.56914062500002,102.73464749540602L172.79531250000002,102.58618230904852L173.021484375,102.77286871841976L173.24765625,102.65197676845959L173.473828125,103.02260281358446L173.70000000000002,102.73261284828186L173.92617187500002,102.92814243691309L174.15234375,103.22058905022486L174.37851562499998,102.82765724403518L174.60468749999998,102.54682319079126L174.830859375,102.73899937953269L175.05703125,102.58435489450181L175.283203125,102.89819544553757L175.50937499999998,102.83684329901422L175.73554687499998,103.05088817647525L175.96171875,102.81101458413261L176.187890625,102.38853518026217L176.4140625,102.87711047274726L176.640234375,102.98175538863455L176.86640624999998,102.58808131303107L177.092578125,102.84249509658133L177.31875,102.93989817585265L177.544921875,102.75970756581852L177.77109375,103.10696531193598L177.997265625,102.81640639901161L178.2234375,103.07755712526186L178.449609375,103.07916223577091L178.67578125,103.30638333729335L178.901953125,103.02152897204672L179.128125,103.0473539190633L179.35429687500002,103.25985020399094L179.58046875,103.03739545175007L179.806640625,103.18930446675846L180.0328125,103.13860030685152L180.258984375,103.18350195458957L180.48515625000002,103.25500096167838L180.71132812500002,103.1423041181905L180.9375,103.1495572584016L181.163671875,103.06551502857889L181.38984375,103.1806157699653L181.61601562500002,103.18855466161455L181.84218750000002,103.47245198913983L182.068359375,103.37342496003424L182.29453124999998,103.26860295448984L182.52070312499998,103.4618190739836L182.746875,103.46030816010067L182.973046875,103.5742069525378L183.19921875,103.26375748004233L183.42539062499998,103.04031931502479L183.65156249999998,103.37177840300969L183.877734375,103.23799281886646L184.10390625,102.97676296745027L184.330078125,103.61895788567408L184.55625,103.59911630834853L184.78242187499998,103.22500498805726L185.00859375,103.26439801709994L185.234765625,103.29707671063288L185.4609375,103.5875150518758L185.687109375,103.63543475951468L185.91328125,103.4503044784069L186.139453125,103.50708620463098L186.365625,103.85150674836977L186.591796875,103.31616094708443L186.81796875,103.25804162876948L187.044140625,103.66317378197397L187.2703125,103.5911284344537L187.496484375,103.49462964279311L187.72265625,103.20678359270096L187.948828125,103.85336053797177L188.175,103.50833713582584L188.40117187500002,103.68930769392422L188.62734375,103.72526066218103L188.853515625,103.57605320640972L189.0796875,103.3885755453791L189.305859375,103.81733221241406L189.53203125000002,103.48829962951797L189.75820312500002,103.82689505389759L189.984375,103.6891456757273L190.210546875,103.85421584333693L190.43671875,103.86635590451105L190.66289062500002,103.52697676420212L190.88906250000002,103.96412069882666L191.115234375,104.12526851892471L191.34140624999998,103.64298932892936L191.56757812499998,104.02055578146661L191.79375,103.84361307110106L192.019921875,103.76899050389017L192.24609375,103.68238989370211L192.47226562499998,103.99309181315559L192.69843749999998,104.27799892851284L192.924609375,103.84016170672008L193.15078125,103.77511705245291L193.376953125,104.08182503495897L193.603125,104.06014850735664L193.82929687499998,104.08093581880843L194.05546875,104.30982608454569L194.281640625,104.01472312637738L194.5078125,104.09748051421984L194.733984375,103.96881922653743L194.96015625,103.99987020237106L195.186328125,104.08698701007026L195.4125,104.31260300108364L195.638671875,104.39309213416918L195.86484375,103.86862039140293L196.091015625,104.03960987499782L196.31718750000002,104.150901304824L196.543359375,104.05774084159306L196.76953125,104.56233709624836L196.995703125,103.89392537304333L197.221875,104.43675792217255L197.44804687500002,104.48693458097323L197.67421875000002,104.20930321301734L197.900390625,104.0617197070803L198.1265625,104.30387662564004L198.57890625000002,104.28063266617912L198.80507812500002,104.43802769269263L199.03125,104.53109395929745L199.25742187499998,104.15517029591969L199.48359374999998,104.2818534544536L199.709765625,104.35498394710677L199.9359375,104.51589815957206L200.162109375,104.57832791549819L200.38828124999998,104.49201366305351L200.61445312499998,104.41002115181514L200.840625,104.76393671546663L201.066796875,104.63957079393523L201.29296875,104.66124732153757L201.519140625,104.5971144906112L201.74531249999998,104.8720669065203L201.971484375,104.52446628468378L202.19765625,104.59850483281272L202.423828125,104.82320900048529L202.65,104.55161375233105L202.876171875,104.82088045988763L203.10234375,104.75022922243392L203.328515625,104.61149643148696L203.5546875,104.6829163134098L203.780859375,105.16012395705496L204.00703125,104.71361310992921L204.233203125,105.24023253577097L204.459375,105.04920177800315L204.685546875,104.95563061748231L204.91171875,104.99476743170193L205.137890625,104.9010267172541L205.36406250000002,104.80287006497383L205.590234375,104.91437249524253L206.042578125,105.05645115034922L206.26875,105.22071499483927L206.49492187500002,104.80530033792769L206.72109375000002,105.16270117674554L206.947265625,105.01240480797632L207.1734375,105.01416440095221L207.399609375,105.04351606965065L207.62578125000002,104.8508048440729L207.85195312500002,104.99622182760919L208.078125,105.19209805982454L208.30429687499998,104.95681372710636L208.53046874999998,105.33230031813895L208.756640625,104.90594378113747L208.9828125,105.4808710047177L209.208984375,105.48185441749438L209.43515624999998,105.57525225622314L209.66132812499998,105.48631180184229L209.8875,105.57516182746207L210.113671875,105.4496203320367L210.33984375,105.49301106589182L210.566015625,105.56632995179721L210.79218749999998,105.43094302500998L211.018359375,105.547358751297L211.24453125,105.59032371640205L211.470703125,105.54194432922772L211.696875,105.66495381934303L211.923046875,105.45549820150649L212.14921875,105.63212441120828L212.375390625,105.47830132075718L212.6015625,105.72182597432817L212.827734375,105.73965927958488L213.05390625,105.64571886828968L213.28007812500002,105.74074065685272L213.50625,105.83183633003915L213.732421875,105.81795551521438L213.95859375,105.83961320349148L214.184765625,105.57545195307051L214.41093750000002,105.99723806977272L214.63710937500002,106.1738529758794L214.86328125,105.94869289653643L215.089453125,105.83547231980732L215.315625,106.05124664732388L215.54179687500002,105.81173853789056L215.76796875000002,106.05915162818773L215.994140625,106.28222054243088L216.22031249999998,105.88313204475811L216.44648437499998,106.2281177682536L216.898828125,106.43869244200843L217.125,106.49663843853133L217.35117187499998,106.37582938160216L217.57734374999998,106.42798416955131L217.803515625,106.4791819197791L218.255859375,106.13861213411604L218.48203125,106.11539078184536L218.70820312499998,106.56571094053133L218.934375,106.66324212721416L219.160546875,106.55430938090598L219.38671875,106.42631877320154L219.612890625,106.42923510074615L219.8390625,106.47635978886059L220.065234375,106.66494520221437L220.29140625,106.25841517107828L220.517578125,106.31276285648346L220.74375,106.55136667830604L220.969921875,106.5874251467841L221.19609375,106.75034763131822L221.422265625,106.75707703828812L221.6484375,106.43680097375596L221.874609375,106.94141229987144L222.10078125,106.76385542750359L222.32695312500002,107.33279928139278L222.553125,107.08646003263338L222.779296875,106.55325437869345L223.00546875,107.04675803865706L223.231640625,106.7865153678826L223.45781250000002,106.84114187530109L223.68398437500002,107.17050603032112L223.91015625,106.90833421264375L224.136328125,106.94544768333435L224.3625,107.25092734183585L224.58867187500002,107.05665245226452L224.81484375000002,107.1224393759455L225.041015625,107.15164786577225L225.26718749999998,107.05633218373572L225.49335937499998,106.96854846392358L225.71953125,106.65213069319725L225.945703125,107.01904915911811L226.171875,107.24450689979962L226.39804687499998,107.3637824356556L226.62421874999998,107.11351330365454L226.850390625,107.07149784054076L227.0765625,107.06881512062891L227.302734375,107.4208279124328L227.52890625,107.61576971411705L227.75507812499998,107.35797615562166L227.98125,107.65769474846977L228.207421875,107.89445231642043L228.43359375,107.11450802002634L228.659765625,107.74069327967509L228.8859375,107.7461190053395L229.112109375,107.61795130797795L229.564453125,107.65602935212L229.790625,107.36763319373131L230.016796875,107.5538109413215L230.24296875000002,107.60031769956862L230.469140625,107.75696668880327L230.6953125,107.61067179271153L230.921484375,107.60907421793257L231.14765625,107.80028206535748L231.37382812500002,107.96641100304468L231.60000000000002,107.7529689839908L231.826171875,107.87228973422731L232.05234375,108.03387839453562L232.278515625,108.06144032733782L232.50468750000002,107.93576318877085L232.95703125,107.86467111110687L233.18320312499998,107.95218731250083L233.40937499999998,108.35281309911183L233.635546875,107.88347652554512L233.86171875,107.73899774040495L234.087890625,108.16173335909843L234.31406249999998,108.09011754819325L234.54023437499998,108.16604002884456L234.76640625,107.71278470328876L234.992578125,108.23012387752533L235.21875,108.13400564023426L235.444921875,108.23510876297951L235.67109374999998,108.38656186631748L235.897265625,107.86722949147224L236.1234375,108.12716696517809L236.349609375,108.10491772208894L236.801953125,108.25655168294907L237.028125,107.99980559093612L237.254296875,108.80894330569676L237.706640625,108.39055957112993L237.9328125,108.17389979532787L238.158984375,108.18978888222149L238.38515625,108.05919467977115L238.611328125,108.62562536767551L238.8375,108.3189136173044L239.063671875,108.37338941012109L239.28984375000002,108.3258389532566L239.516015625,108.22383154290064L239.7421875,108.29897784335273L239.968359375,108.35212734767369L240.19453125,108.39713826349804L240.42070312500002,108.72794927869523L240.64687500000002,108.39809906908444L240.873046875,108.65451358897346L241.09921875,108.5207845228059L241.325390625,108.45572856494358L241.55156250000002,108.75503269263676L241.77773437500002,108.7538382794176L242.00390625,108.19850018620491L242.23007812499998,108.92261979409626L242.45624999999998,108.55171869482314L242.682421875,108.55737049239023L242.90859375,108.71247088909149L243.134765625,108.52267599105835L243.36093749999998,108.57553913763591L243.58710937499998,108.7907595889909L243.81328125,108.82777509519032L244.039453125,108.60516209261759L244.265625,108.66727158001491L244.491796875,108.81996807881764L244.71796874999998,108.87153507981981L244.944140625,108.48499734061106L245.1703125,108.81426729900497L245.396484375,108.531828135252L245.62265625,108.87807986140251L245.848828125,108.69263684749603L246.075,108.69543637122428L246.301171875,108.70259154694422L246.52734375,108.64845486198152L246.753515625,108.88208133408001L246.9796875,108.82529207212585L247.20585937500002,108.8123758307525L247.43203125,108.70596378615924L247.884375,108.68249375479563L248.110546875,108.88973010012081L248.33671875000002,108.56977807198251L248.56289062500002,108.63608496103967L248.7890625,108.90720169033324L249.015234375,108.8007180563041L249.24140625,108.73811874645098L249.46757812500002,108.77629475508417L249.69375000000002,109.22319369230951L249.919921875,108.63161250523159L250.37226562499998,108.67785174506052L250.5984375,108.89687020438059L250.824609375,108.66124299594334L251.05078125,108.56340284432684L251.27695312499998,108.72236153483391L251.50312499999998,108.72124247891563L251.729296875,108.75384204728263L251.95546875,108.95717488442148L252.181640625,108.83815556338855L252.4078125,108.9962627163955L252.63398437499998,108.52236325825965L252.86015625,108.71329228367125L253.086328125,108.8340146797044L253.3125,108.88286881787437L253.538671875,108.73023260491236L253.76484375,108.8824844956398L253.991015625,109.18490464772498" style="fill: none;" fill="none"></path></g><g><path stroke="rgb(204, 51, 17)" stroke-width="2px" d="M22.6171875,-48.02153645242964L24.87890625,12.656463657106656L27.140625,22.93271270820071L29.40234375,18.994856664112632L31.6640625,29.59182638781411L33.92578125,12.901932529040721L36.1875,34.5991532461984L38.44921875,26.34018899713243L40.7109375,-54.628156236239846L42.97265625,41.56081895317348L45.234375,40.33725753000806L47.49609375,51.74159783976418L49.7578125,33.02539137431552L52.01953125,38.798687517642975L54.28125,32.11872247287204L56.54296875,39.23734236615044L58.8046875,43.6944403563227L61.06640625,39.77294438225883L63.328125,37.73318049737384L65.58984375,47.66427803891045L67.8515625,27.25033940587724L70.11328125,24.132325581141885L72.375,44.08987779276711L74.63671875,-4.04925523485457L76.8984375,58.96967421259198L79.16015625,29.679617643356323L81.421875,19.69174591132571L83.68359375,30.704371435301624L85.9453125,44.88854461056846L88.20703125,45.41237581627709L90.46875,30.166674486228402L92.73046875,48.00729693685258L94.9921875,42.58357577664512L97.25390625,44.96831784929546L99.515625,61.561030932835166L101.77734375,45.942808321544106L104.0390625,44.937361070087974L106.30078125,52.21964948517936L108.5625,38.25301023040498L110.82421875,50.525526932307656L113.0859375,48.60888934135437L115.34765625,53.850615084171295L117.609375,27.398160287312095L119.87109375,34.44193530934197L122.1328125,42.76627201693398L124.39453125,32.68928274086545L126.65625,52.51857682636806L128.91796875,57.0215071269444L131.1796875,53.2227229816573L133.44140625,20.33927612645283L135.703125,48.642242482730325L136.15546875,60.40172668014253L136.6078125,32.17300233670642L137.06015625,53.91564089911324L137.51250000000002,60.39637631177902L137.96484375,56.03594666719437L138.4171875,67.69426368815559L138.86953125000002,51.27545264789036L139.321875,51.23128573383603L139.77421875000002,46.468350137983066L140.2265625,49.44252948250089L140.67890624999998,67.01686937468392L141.13125,38.22038805484772L141.58359374999998,42.25605787549699L142.0359375,13.450247321810025L142.48828125,56.5387607216835L142.94062499999998,40.981826203210005L143.39296875,41.29902768986565L143.8453125,51.13002059289387L144.29765625,46.92920524733407L144.75,39.06509818349565L145.20234375,45.611974699156605L145.6546875,49.47102207796914L146.10703125,49.877868609768996L146.55937500000002,58.96570288283485L147.01171875,57.494539976119995L147.4640625,59.38319740125111L147.91640625000002,47.708000344889484L148.36874999999998,49.552829963820315L148.82109375,32.970493580613834L149.2734375,40.46104696818759L149.72578124999998,29.137263613087782L150.178125,51.90754968779427L150.63046875,38.41060495376587L151.0828125,59.373920917510986L151.53515625,56.25881588459015L151.9875,51.376989075115745L152.43984375,57.5102670448167L152.8921875,51.56765058210918L153.34453125,53.15970167091915L153.796875,51.8053576520511L154.24921875,44.59630146196912L154.7015625,47.910168911729556L155.15390625,58.80388061489377L155.60625000000002,45.83070680073331L156.05859375,47.262668839522775L156.5109375,45.70022563423427L156.96328125000002,54.6836222239903L157.41562499999998,46.74502446821759L157.86796875,35.09132684980119L158.3203125,57.2286417399134L158.77265624999998,63.76604584285191L159.225,46.53078366177422L159.67734375,28.945645068372983L160.1296875,55.88349884748459L160.58203125,39.43001591307777L161.034375,45.149182907172616L161.48671875,50.75746916873115L161.9390625,27.889324103082913L162.39140625000002,53.05264155353818L162.84375,52.78910953657967L163.29609375,25.024405309132163L163.74843750000002,28.154099515506203L164.20078125,48.95370174305779L164.65312500000002,52.440273055008475L165.10546875,40.90672511713845L165.55781249999998,57.92206455128533L166.01015625,44.34038053240093L166.46249999999998,41.97413867712021L166.91484375,40.734066469328724L167.3671875,36.48849642276764L167.81953124999998,19.736613648278365L168.271875,45.09979373216629L168.72421875,51.546422430447166L169.1765625,66.3833556175232L169.62890625,42.53558824743541L170.08125,56.105237705366946L170.53359375,50.086970048291334L170.9859375,56.76620412724358L171.43828125000002,66.14026803629739L171.890625,56.262350142002106L172.34296875,50.0401731644358L172.79531250000002,34.42581638268064L173.24765625,9.90706760542733L173.70000000000002,37.00589211497987L174.15234375,56.070030774389L174.60468749999998,35.02557760477066L175.05703125,33.766756500516635L175.50937499999998,53.598778520311626L175.96171875,42.58200080905641L176.4140625,41.42397763047899L176.86640624999998,52.18019240243095L177.31875,54.772528767585754L177.77109375,51.86351841688156L178.2234375,48.30485277516502L178.67578125,52.84149039643151L179.128125,40.428974900926846L179.58046875,45.790059072630726L180.0328125,50.510267078876495L180.48515625000002,46.32141093696865L180.9375,57.07807785272598L181.38984375,35.33443703821729L181.84218750000002,41.23749091795514L182.29453124999998,63.81150136675153L182.746875,53.16471293142864L183.19921875,37.211881296975264L183.65156249999998,48.604616582393646L184.10390625,42.17954760789871L184.55625,52.90771439245769L185.00859375,48.983791913305026L185.4609375,21.605007495198947L185.91328125,2.4945165600095436L186.365625,35.74442596946443L186.81796875,47.61053321191241L187.2703125,42.24959221908023L187.72265625,43.72734135389328L188.175,51.45726720775876L188.62734375,63.761343547276084L189.0796875,61.30283421278L189.53203125000002,57.10706027065004L189.984375,43.468164988926475L190.43671875,58.6569338781493L190.88906250000002,34.931757765156874L191.34140624999998,43.70325716052736L191.79375,18.01207688876559L192.24609375,42.136307588645394L192.69843749999998,35.21375232083457L193.15078125,28.23469414881299L193.603125,35.31448996067047L194.05546875,37.064339237553725L194.5078125,52.028633798871724L194.96015625,71.10579419987542L195.4125,48.90845721960068L195.86484375,50.58201476505825L196.31718750000002,50.611245862075265L196.76953125,27.55301200492042L197.221875,36.02260744571686L197.67421875000002,34.45830291509628L198.1265625,37.02451290403093L198.57890625000002,25.822710411889204L199.03125,35.949631435530506L199.48359374999998,44.602789725576145L199.9359375,37.28879849399837L200.38828124999998,58.059870447431294L200.840625,36.192048336778385L201.29296875,41.300949301038486L201.74531249999998,18.258947406496304L202.19765625,26.909445583820343L202.65,39.89105941568101L203.10234375,26.7179928251675L203.5546875,57.60629485334668L204.00703125,50.84692582062313L204.459375,39.7077527812549L204.91171875,30.54366445541382L205.36406250000002,31.945498645305634L205.81640625,28.20863559416364L206.26875,38.49407823596681L206.72109375000002,27.637645789555137L207.1734375,51.49963308232171L207.62578125000002,15.901228461946744L208.078125,-7.899847524506697L208.53046874999998,31.037556205477017L208.9828125,55.93083076817649L209.43515624999998,39.13393707786287L209.8875,25.28432771137784L210.33984375,35.29415102515901L210.79218749999998,35.06138739415576L211.24453125,49.548225632735665L211.696875,38.04161039420535L212.14921875,36.21291477339608L212.6015625,43.75063429559978L213.05390625,26.778112879821236L213.50625,44.16153505018781L213.95859375,35.17249419859479L214.41093750000002,29.481277227401733L214.86328125,49.754651887076236L215.315625,38.93760870184215L215.76796875000002,28.003362306526725L216.22031249999998,40.728716100965244L216.67265625,18.859062807900557L217.125,45.35474255255292L217.57734374999998,24.606428503990173L218.0296875,39.21317527975353L218.48203125,42.800808267933974L218.934375,15.12021032401492L219.38671875,36.449401055063504L219.8390625,21.173104660851607L220.29140625,31.38305435861858L220.74375,47.26037797757556L221.19609375,19.217236059052595L221.6484375,46.27324255023683L222.10078125,51.02404562064579L222.553125,44.977112046309884L223.00546875,48.69609280994962L223.45781250000002,46.04861750773023L223.91015625,43.2392822589193L224.3625,40.043778521674L224.81484375000002,32.60120512757982L225.26718749999998,46.33003181219101L225.71953125,47.6919869184494L226.171875,31.283921829291756L226.62421874999998,28.304346902029835L227.0765625,48.77927973440717L227.52890625,35.58838360650199L227.98125,51.94318615538734L228.43359375,17.3974024568285L228.8859375,37.8862085683005L229.33828125,33.01500713825226L229.790625,16.938838209424716L230.24296875000002,22.021100367818576L230.6953125,42.416018818105954L231.14765625,48.187106992517215L231.60000000000002,47.67269544942039L232.05234375,68.65782735177449L232.50468750000002,14.367119601794627L232.95703125,47.43290851797374L233.40937499999998,42.556854077747886L233.86171875,0.7777566739490851L234.31406249999998,53.672372460365295L234.76640625,50.485165561948506L235.21875,40.09300944634845L235.67109374999998,11.298057879720432L236.1234375,31.807813320841092L236.57578125,22.941047225679654L237.028125,35.06049064227511L237.48046875,32.66326940059662L237.9328125,51.09106086833137L238.38515625,22.93078356129783L238.8375,44.14532569476535L239.28984375000002,22.657944917678833L239.7421875,28.589619500296436L240.19453125,60.900109725339064L240.64687500000002,34.523095122405465L241.09921875,43.235928859029514L241.55156250000002,38.06042711223873L242.00390625,43.10893673556191L242.45624999999998,41.973370032651076L242.90859375,21.022601059504893L243.36093749999998,41.688338577747345L243.81328125,38.0427181465285L244.265625,6.397678102765781L244.71796874999998,32.38529138905662L245.1703125,37.26831637961524L245.62265625,48.15782314538956L246.075,50.2124776329313L246.52734375,40.29113886186053L246.9796875,10.35527775968822L247.43203125,27.57639537538799L247.884375,42.34962150028775L248.33671875000002,48.07992630345481L248.7890625,52.31160046373094L249.015234375,54.5838114789554L249.24140625,53.21266278198787L249.46757812500002,43.967263928481515L249.69375000000002,28.752956449985504L249.919921875,20.12167438438962L250.14609374999998,33.997440270015176L250.37226562499998,59.63454414265496L250.5984375,46.262692528111586L250.824609375,40.67271809067043L251.05078125,39.559419470173964L251.27695312499998,56.91273639883313L251.50312499999998,46.29802756650108L251.729296875,47.58584616013934L251.95546875,41.57036672319683L252.181640625,29.848387854439864L252.4078125,37.73283385378974L252.63398437499998,46.491628008229384L252.86015625,41.017967564719044L253.086328125,30.90498010601314L253.3125,43.04512417316437L253.538671875,35.16421996695655L253.76484375,34.603584255491L253.991015625,50.69909740345818" style="fill: none;" fill="none"></path></g><g><path stroke="rgb(238, 51, 119)" stroke-width="2px" d="M22.6171875,-50.09842887946539L24.87890625,18.161344630377613L27.140625,13.633983492851257L29.40234375,32.56592283930095L31.6640625,38.50798165798187L33.92578125,27.794170439243317L36.1875,47.20704008000237L38.44921875,46.63176244497299L40.7109375,3.7829304763248786L42.97265625,45.10143652132581L45.234375,51.37365074668611L47.49609375,52.70844708170209L49.7578125,59.75351824930736L52.01953125,24.72822097369601L54.28125,68.79679375035423L56.54296875,27.610336303710938L58.8046875,70.73894732339042L61.06640625,57.57931693962642L63.328125,56.35785798515592L65.58984375,30.75160539150238L67.8515625,29.687793910503387L70.11328125,22.020618081092834L72.375,61.97122332879475L74.63671875,55.62521923439843L76.8984375,72.24772105898175L79.16015625,55.38840891633714L81.421875,57.4400566475732L83.68359375,63.7180130992617L85.9453125,64.83662440947124L88.20703125,45.42540509360177L90.46875,57.86509443180901L92.73046875,67.72730032886777L94.9921875,71.54192457880292L97.25390625,67.25745509352002L99.515625,53.90509841271809L101.77734375,62.5769151704652L104.0390625,57.30049492631639L106.30078125,68.16964768511909L108.5625,65.0008053609303L110.82421875,72.13228120974132L113.0859375,48.4002325109073L115.34765625,72.93791104214532L117.609375,71.14709000076566L119.87109375,74.4084108046123L122.1328125,71.68184047937393L124.39453125,78.3348878962653L126.65625,65.64174934795925L128.91796875,72.03467843362263L131.1796875,66.19919744559697L133.44140625,39.00226526600974L135.703125,66.99864797932761L136.15546875,74.56238084180015L136.6078125,76.4247762475695L137.06015625,46.96974747521537L137.51250000000002,67.93386222634997L137.96484375,75.01346210922513L138.4171875,76.74759185314178L138.86953125000002,76.25216281414032L139.321875,67.65803943361554L139.77421875000002,78.34449595212936L140.2265625,57.501163882868624L140.67890624999998,35.24082819904598L141.13125,65.57353591918945L141.58359374999998,76.708187520504L142.0359375,56.507080512387404L142.48828125,58.11054823228291L142.94062499999998,69.21580295051847L143.39296875,65.34445726019996L143.8453125,75.19367909431458L144.29765625,76.2777014034135L144.75,77.01077722651618L145.20234375,80.5225630913462L145.6546875,59.218888342380524L146.10703125,77.727523122515L146.55937500000002,66.44044630868095L147.01171875,74.71384901659829L147.4640625,74.69090271847588L147.91640625000002,74.96909926618848L148.36874999999998,77.31825008562633L148.82109375,70.24550771713257L149.2734375,67.31361135414669L149.72578124999998,72.0191096152578L150.178125,70.96367786611829L150.63046875,44.70657180036815L151.0828125,79.10889780521393L151.53515625,77.13464955772672L151.9875,76.05296332495553L152.43984375,74.56158205441066L152.8921875,56.34483624356133L153.34453125,64.80902103015354L153.796875,79.01907190254757L154.24921875,75.01514257703509L154.7015625,74.51899764367512L155.15390625,50.36153437410081L155.60625000000002,71.65624160426003L156.05859375,56.88538923433849L156.5109375,73.75345789534705L156.96328125000002,64.66003964628491L157.41562499999998,77.91600680351257L157.86796875,69.890069936003L158.3203125,70.9243564265115L158.77265624999998,78.23200257335391L159.225,77.18559109313148L159.67734375,61.29293226344245L160.1296875,61.50426427807126L160.58203125,69.52625242301396L161.034375,73.55432622773307L161.48671875,76.49163324492318L161.9390625,72.94223655121667L162.39140625000002,28.506658647741574L162.84375,74.72589864901134L163.29609375,62.515167398112155L163.74843750000002,80.46242042950222L164.20078125,73.43365658181054L164.65312500000002,70.28411326238087L165.10546875,77.07351971524102L165.55781249999998,58.19433801514762L166.01015625,69.08166695492608L166.46249999999998,63.98654130526951L166.91484375,62.648564892155775L167.3671875,69.1870466044971L167.81953124999998,52.49821528366634L168.271875,71.57438096829823L168.72421875,63.99382835626602L169.1765625,78.08474687167576L169.62890625,62.943400331905906L170.08125,76.58717123099736L170.53359375,68.67916853938785L170.9859375,78.56414741277695L171.43828125000002,67.24370238610676L171.890625,62.18091255426407L172.34296875,68.53672063350677L172.79531250000002,67.03322944470814L173.24765625,67.76919145243508L173.70000000000002,54.612017716680256L174.15234375,70.47540777070182L174.60468749999998,40.42412942647934L175.05703125,63.124250318322865L175.50937499999998,80.13952193089894L175.96171875,62.36878584112439L176.4140625,45.59660934550422L176.86640624999998,74.78550627401897L177.31875,62.02207443543843L177.77109375,64.20174668516431L178.2234375,74.20224830082485L178.67578125,70.07629289797374L179.128125,69.27389589377812L179.58046875,41.91535244669231L180.0328125,61.6849786213466L180.48515625000002,72.74439349344799L180.9375,77.13875653062549L181.38984375,54.317152134009774L181.84218750000002,56.82959468875612L182.29453124999998,58.02000643525804L182.746875,73.3543957727296L183.19921875,59.18472887788499L183.65156249999998,74.3783055629049L184.10390625,75.89952078887394L184.55625,80.75134785686221L185.00859375,60.45286414452961L185.4609375,46.031051720891696L185.91328125,58.1027638231005L186.365625,72.07870216880526L186.81796875,58.03887590340206L187.2703125,79.547266295978L187.72265625,69.11771788767406L188.175,60.75843046392713L188.62734375,67.04650740112577L189.0796875,77.61830778632846L189.53203125000002,73.7200293966702L189.984375,73.92404421738216L190.43671875,65.73392639841352L190.88906250000002,75.04817168201718L191.34140624999998,60.9178262267794L191.79375,63.73011548178536L192.24609375,59.406211520944325L192.69843749999998,73.08198666572571L193.15078125,73.67239604677472L193.603125,63.99153749431882L194.05546875,44.86002187217983L194.5078125,77.48145892790386L194.96015625,78.36765325069427L195.4125,64.02432545593807L195.86484375,70.90763464144298L196.31718750000002,71.34415687833514L196.76953125,64.44399780035019L197.221875,46.53353420325686L197.67421875000002,60.27322741065706L198.1265625,72.54452332428524L198.57890625000002,55.01248148509434L199.03125,58.36835309437343L199.48359374999998,68.91569249970573L199.9359375,62.07991116387504L200.38828124999998,71.05213226590838L200.840625,58.98060855695179L201.29296875,51.548886614186415L201.74531249999998,43.97504080193383L202.19765625,63.07521532263074L202.65,61.79042609248842L203.10234375,73.85886015210833L203.5546875,53.01521911791393L204.00703125,66.32037952116558L204.459375,48.477888209479175L204.91171875,51.460266428334364L205.36406250000002,39.99934032133649L205.81640625,56.96798083611897L206.26875,34.19751390389035L206.72109375000002,51.261926012379774L207.1734375,47.319284779684864L207.62578125000002,57.923375768320895L208.078125,26.514460291181308L208.53046874999998,42.62423104047775L208.9828125,60.402826896735604L209.43515624999998,49.61037279878343L209.8875,64.18994573184422L210.33984375,70.22319442033768L210.79218749999998,61.034848579338615L211.24453125,43.89218544960022L211.696875,61.7025745511055L212.14921875,33.223249503544395L212.6015625,69.19795080593654L213.05390625,36.615481010505135L213.50625,50.675887354782645L213.95859375,47.879543704645954L214.41093750000002,51.929606769766124L214.86328125,54.47390285560063L215.315625,47.880583635398324L215.76796875000002,30.82374493564876L216.22031249999998,46.453489678246626L216.67265625,51.558102812085835L217.125,57.302989252976005L217.57734374999998,52.963456187929424L218.0296875,61.58433141027177L218.48203125,58.8753570147923L218.934375,46.023824955735904L219.38671875,46.022295202527744L219.8390625,55.58919090884072L220.29140625,49.40395408017295L220.74375,34.77973948206218L221.19609375,57.663611616407124L221.6484375,49.31372878381184L222.10078125,49.47590523106712L222.553125,62.864870488643646L223.00546875,55.21957841941288L223.45781250000002,54.18812536341804L223.91015625,51.58260147060666L224.3625,46.81440593515123L224.81484375000002,39.31685185432434L225.26718749999998,53.45363282305854L225.71953125,44.55559344802583L226.171875,56.36277128117425L226.62421874999998,45.35634012733186L227.0765625,40.384589450699934L227.52890625,59.51355046033859L227.98125,49.6270569052015L228.43359375,44.02267415182931L228.8859375,70.67063593012946L229.33828125,47.36485333953584L229.790625,44.434486729758106L230.24296875000002,51.78284842627389L230.6953125,71.99861996514457L231.14765625,58.428684149469646L231.60000000000002,57.27998266901288L232.05234375,68.37749065671649L232.50468750000002,38.202890089579995L232.95703125,40.533774299280964L233.40937499999998,60.95610019990376L233.86171875,39.78307240349906L234.31406249999998,56.71064318929399L234.76640625,43.08028588976177L235.21875,68.82195555312293L235.67109374999998,53.68106869288853L236.1234375,47.594173141888206L236.57578125,61.68771409136909L237.028125,47.818466612270896L237.48046875,49.60981515475682L237.9328125,49.20525948490415L238.38515625,41.104213995592914L238.8375,45.45358872413635L239.28984375000002,53.631423303059165L239.7421875,24.516075100217563L240.19453125,52.75016488347734L240.64687500000002,59.91954545463834L241.09921875,67.66395498173577L241.55156250000002,50.03045207262039L242.00390625,53.65967475516456L242.45624999999998,62.56184371028627L242.90859375,55.39772307872772L243.36093749999998,56.77553336109433L243.81328125,56.76753041573933L244.265625,52.81423366069794L244.71796874999998,64.00425780670983L245.1703125,68.46654037918363L245.62265625,67.87841432435172L246.075,73.18839871031898L246.52734375,20.911433969225186L246.9796875,47.081298887729645L247.43203125,55.29788219077247L247.884375,61.47089606523514L248.33671875000002,49.968900229249684L248.7890625,54.96564692258835L249.015234375,68.31285669973919L249.24140625,67.31396553346089L249.46757812500002,54.47316435405186L249.69375000000002,52.33774944714138L249.919921875,66.65327039786747L250.14609374999998,59.30867656639644L250.37226562499998,60.29682178156716L250.5984375,71.94701528549194L250.824609375,52.243793964385986L251.05078125,52.108211108616416L251.27695312499998,58.40910632269723L251.50312499999998,54.5652283685548L251.729296875,62.48128675562995L251.95546875,52.95738992520741L252.181640625,33.56403782538007L252.4078125,51.90800183159965L252.63398437499998,56.56440481117794L252.86015625,40.04220355408532L253.086328125,52.80192027773175L253.3125,42.178341891084415L253.538671875,57.37487258229936L253.76484375,47.92688316106796L253.991015625,49.310066418988356" style="fill: none;" fill="none"></path></g><g><path stroke="rgb(187, 187, 187)" stroke-width="2px" d="M24.4265625,-72.51470896175931L24.87890625,20.097092832837802L25.33125,16.387705053601962L25.78359375,10.10460923399242L26.2359375,20.719212566103238L26.68828125,25.22805087906974L27.140625,15.479649577821988L27.59296875,19.589003767286044L28.0453125,17.773601174354553L28.49765625,-18.799723454884116L28.950000000000003,15.124475547245567L29.40234375,32.902792581490104L29.8546875,36.397864196981686L30.307031249999998,-8.06317693846566L30.759375,29.425882075514096L31.211718750000003,10.867240190505981L31.6640625,35.512619376182556L32.11640625,25.285412856510703L32.56875,0.027785743985873523L33.02109375,35.204076443399686L33.4734375,20.693334868976024L33.92578125,25.6952510731561L34.378125000000004,33.886499251638156L34.83046875,28.248288605894345L35.2828125,30.43044011081966L35.735156249999996,36.667145975998466L36.1875,45.78387977395738L36.639843750000004,37.95317860160554L37.092187499999994,46.10072708129883L37.54453125,44.8076485480581L37.996875,39.161404814038974L38.44921875,41.40144579751151L38.901562500000004,33.13925625596727L39.353906249999994,21.35275646618436L39.80625,33.784133894102894L40.25859375,38.95834703104836L40.7109375,3.395925521850586L41.163281250000004,42.59535412277492L41.615624999999994,13.83502170017789L42.06796875,52.82204821280071L42.5203125,33.71435303347451L42.97265625,44.56686690023969L43.425000000000004,43.71281246628078L43.877343749999994,20.931268010820645L44.3296875,39.30977580377032L44.78203125,47.956227294036324L45.234375,48.45782809598106L45.68671875,29.79335441759656L46.1390625,39.709327748843606L46.59140625,27.83719945805413L47.04375,52.023140251636505L47.49609375,49.17434792007718L47.9484375,53.78861109699521L48.40078125,42.60932536636079L48.853125,3.117706366947715L49.30546875,59.193877254213604L49.7578125,55.68525639602116L50.21015625,52.6345140337944L50.6625,42.09989494085312L51.11484375,49.55047128030232L51.5671875,18.7600734574454L52.01953125,20.041946360043113L52.471875,48.561052526746494L52.92421875,58.7940012727465L53.3765625,44.630958284650546L53.82890625,41.6709988628115L54.28125,62.2950713293893L54.73359375,32.85325269188198L55.1859375,52.986349735941204L55.63828125,51.920345357486184L56.090625,53.14406503098351L56.54296875,25.894179276057656L56.9953125,51.93638892684663L57.44765625,52.30191705056599L57.900000000000006,54.76001945563725L58.352343749999996,47.57371363469531L58.8046875,64.81767204829625L59.25703125,54.46313429730279L59.709375,58.37069670643125L60.161718750000006,36.900979680674396L60.614062499999996,56.540720011506764L61.06640625,49.95317316055298L61.51875,45.26429118428911L61.97109375,59.281133472919464L62.423437500000006,55.84739516462598L62.875781249999996,53.30973805700029L63.328125,48.3727120246206L63.78046875,52.989153027534485L64.2328125,30.486920407840188L64.68515625,48.72771273340496L65.1375,52.03805346148354L65.58984375,24.699811271258767L66.0421875,51.52743992635182L66.49453125,33.373979176793796L66.946875,49.14163531575883L67.39921875,14.68728263037545L67.8515625,23.940089106559753L68.30390625,61.9300028852054L68.75625000000001,53.51891485282353L69.20859375,52.33967859404427L69.6609375,8.57128408976962L70.11328125,15.906819973673123L70.565625,64.3363875746727L71.01796875,27.469636687210624L71.47031249999999,33.887704968452454L71.92265625,51.20032895462853L72.375,55.05564614704677L72.82734375,49.4503214274134L73.27968750000001,59.034730170454296L73.73203125,48.29438564607074L74.18437499999999,46.96038809844424L74.63671875,46.82560403006417L75.0890625,43.0633380327906L75.54140625,63.277406496661044L75.99375,47.490315709795254L76.44609375,58.37488657236099L76.8984375,66.54902864353997L77.35078125,54.313934377261575L77.80312500000001,50.07923085348946L78.25546875,55.836332712854656L78.70781249999999,65.1336527466774L79.16015625,49.22161955492837L79.6125,38.47162176030022L80.06484375,54.70787220341819L80.5171875,65.23125552279609L80.96953125,59.695990485804415L81.421875,50.3366664648056L81.87421875000001,55.86019083431789L82.32656250000001,60.383934821401326L82.77890624999999,48.84756098474773L83.23124999999999,56.21778383425304L83.68359375,57.71068732227597L84.1359375,49.33383411169052L84.58828125,44.689706836427945L85.040625,61.13494568211692L85.49296875,56.45534018959317L85.9453125,59.59370802130017L86.39765625000001,66.20105877092907L86.85000000000001,56.28323918581009L87.30234374999999,34.873016749109524L87.75468749999999,62.60105211394173L88.20703125,36.640725706304806L88.659375,19.99463704654147L89.11171875,51.08929750749043L89.5640625,59.385872585432864L90.01640625,58.531772937093464L90.46875,50.17922245604652L90.92109375000001,51.198678629738936L91.3734375,32.894872529166065L91.82578124999999,48.91521676949094L92.278125,60.61650252342224L92.73046875,60.77092470441545L93.1828125,45.20536931071962L93.63515625,5.7796879495893165L94.0875,38.04067596367429L94.53984375,36.93911047492708L94.9921875,65.06891328947884L95.44453125000001,39.90335019145692L95.896875,66.09459397622517L96.34921874999999,65.98572528362274L96.8015625,43.488081923552926L97.25390625,60.69705194234848L97.70625,49.00127480711255L98.15859375000001,52.917767056397025L98.6109375,65.20594300542558L99.06328125,14.90738623482838L99.515625,47.792980773108326L99.96796875,59.66125077009201L100.4203125,58.44362750223705L100.87265624999999,41.23719702448162L101.325,58.39071914127895L101.77734375,57.2422964828355L102.2296875,56.57392997401101L102.68203125000001,52.31245953696114L103.134375,61.43467181069511L103.58671875,64.62064284937722L104.0390625,50.58711645432881L104.49140625,67.42055089984622L104.94375,56.7891428896359L105.39609374999999,45.583647889750324L105.8484375,56.89665515082223L106.30078125,62.95261652980531L106.753125,48.30883917638232L107.20546875000001,66.6483194231987L107.6578125,61.239202507904594L108.11015624999999,67.02741186107907L108.5625,59.503497796399245L109.01484375,54.851141503879006L109.4671875,44.894414944308124L109.91953125,69.16860667296818L110.371875,58.65726545027324L110.82421875,65.83411392995289L111.2765625,66.66688746213913L111.72890625000001,66.90854325464794L112.18125,51.78552361045564L112.63359374999999,62.787101754120414L113.0859375,38.81180722372872L113.53828125,60.52156739575523L113.990625,68.36960828304291L114.44296875,68.98386824982506L114.8953125,43.009751456124434L115.34765625,68.13304664407458L115.80000000000001,70.01064161743436L116.25234375000001,61.647593864372794L116.70468749999999,50.780528502804884L117.15703124999999,66.67249404532569L117.609375,64.86523004089082L118.06171875,65.10287682499204L118.5140625,49.717907667160034L118.96640625,72.80275772299085L119.41875,60.07548231737954L119.87109375,67.97440445423126L120.32343750000001,62.191892113004414L120.77578125000001,67.69391704457146L121.22812499999999,55.13758967603955L121.68046874999999,68.1146519269262L122.1328125,65.3835300207138L122.58515625,50.415392237050185L123.0375,64.61938438245228L123.48984375,45.408487379550934L123.9421875,64.27419519424438L124.39453125,69.67569348641804L124.84687500000001,67.10490177358899L125.29921875,58.20051731382097L125.75156249999999,41.82025153296334L126.20390625,72.91849146570478L126.65625,59.94177585840225L127.10859375,67.65693168129239L127.5609375,62.25606639044625L128.01328125,53.45363282305854L128.465625,56.5339755330767L128.91796875,64.52002578122276L129.3703125,57.887995515550884L129.82265625,48.483939400741036L130.275,71.68876581532615L130.72734375000002,58.2872309599604L131.1796875,59.641296156815116L131.63203124999998,65.46393626076835L132.084375,68.48766303062439L132.53671875,73.54026455538613L132.9890625,73.1692956345422L133.44140625,31.026908218860626L133.89375,73.57437880550113L134.34609375,51.49998726163591L134.7984375,56.47150433063507L135.25078125000002,64.92487534454891L135.703125,60.07223441771099L135.929296875,69.95294806786946L136.15546875,66.99982355322156L136.381640625,70.66222605534962L136.6078125,69.53574744292668L136.833984375,71.01746037176677L137.06015625,39.92216690949033L137.286328125,57.18703697408948L137.51250000000002,60.83451873064041L137.738671875,62.75783297845295L137.96484375,66.54339191743306L138.191015625,66.31120100191661L138.4171875,73.63517707586288L138.64335937500002,57.8232033082417L138.86953125000002,69.07890134198325L139.095703125,43.934762324605686L139.321875,60.81981652123588L139.548046875,29.466936733041507L139.77421875000002,71.66777127129691L140.00039062500002,72.01378185408456L140.2265625,55.324822425842285L140.45273437499998,49.34676542452404L140.67890624999998,29.76239010265897L140.905078125,61.88913662093026L141.13125,59.2993397968156L141.357421875,58.5433930328914L141.58359374999998,70.22079805816922L141.80976562499998,58.2792883004461L142.0359375,52.945310149874004L142.262109375,51.346348796572L142.48828125,49.74732715742928L142.714453125,43.01639797006334L142.94062499999998,63.14069328137806L143.166796875,61.852475294045036L143.39296875,58.48600091253007L143.619140625,45.240425527095795L143.8453125,69.86286595038005L144.071484375,68.96766643013272L144.29765625,67.53463431767055L144.523828125,54.63197232995714L144.75,68.7098691037723L144.976171875,68.42293110915593L145.20234375,74.06274686540876L145.42851562500002,67.8940132856369L145.6546875,51.71773218257087L145.880859375,68.96803568090711L146.10703125,71.19194266625813L146.333203125,68.19264673335212L146.55937500000002,60.8940133196967L146.78554687500002,68.00151801109314L147.01171875,69.92338539872851L147.237890625,52.964141939367565L147.4640625,67.49423526866096L147.69023437500002,76.58280804327556L147.91640625000002,69.80703372614724L148.142578125,70.90278916699546L148.36874999999998,72.02626102311271L148.59492187499998,69.89141883168902L148.82109375,63.55882080112184L149.047265625,66.98419444901603L149.2734375,59.369429622377666L149.49960937499998,54.46818323646272L149.72578124999998,66.48062682151794L149.951953125,45.490204836641055L150.178125,61.338945431368685L150.404296875,68.79718560831887L150.63046875,40.49189824717385L150.85664062499998,50.55251238175801L151.0828125,72.00712780441556L151.308984375,74.17651378256934L151.53515625,71.38591989449093L151.761328125,63.087114240442006L151.9875,71.14232741934913L152.213671875,64.78032496997288L152.43984375,70.61471327713558L152.666015625,67.0605766092028L152.8921875,50.77749913930893L153.118359375,49.45440579312188L153.34453125,56.58271663529533L153.570703125,55.96033315147672L153.796875,72.8216724055154L154.023046875,58.50487038067409L154.24921875,66.60499651091439L154.47539062500002,63.89289478744779L154.7015625,69.80396668400083L154.927734375,71.55404203278678L155.15390625,43.72244312933515L155.380078125,66.14627401317868L155.60625000000002,64.6719159569059L155.83242187500002,63.80929339783532L156.05859375,49.04540404251644L156.284765625,51.65094300678798L156.5109375,70.37757138695035L156.73710937500002,67.57111478703362L156.96328125000002,56.08890777826309L157.189453125,65.98027695076806L157.41562499999998,67.83112761804036L157.64179687499998,53.345148452690665L157.86796875,61.80697455576488L158.094140625,61.36283369575227L158.3203125,62.75230175256729L158.54648437499998,68.23243538822446L158.77265624999998,68.33553924730846L158.998828125,67.01356872490474L159.225,70.51379477977753L159.451171875,71.41116459029061L159.67734375,54.52108406169074L159.90351562499998,28.87870517798831L160.1296875,53.2527528660638L160.355859375,67.2074253814561L160.58203125,63.27390238216945L160.808203125,61.94810370888028L161.034375,64.98567361491067L161.260546875,35.48051716600145L161.48671875,70.2857334443501L161.712890625,61.00592644725526L161.9390625,63.54108922822135L162.165234375,75.61562722921371L162.39140625000002,22.113141775131226L162.617578125,73.28291937283107L162.84375,68.19783131565366L163.069921875,48.138403568949L163.29609375,53.374228835105896L163.52226562500002,65.92455776248659L163.74843750000002,73.78117431061608L163.974609375,61.34202000924519L164.20078125,68.74258924382073L164.426953125,43.87361741065979L164.65312500000002,62.665678535188945L164.87929687500002,68.1555558698518L165.10546875,71.3975927403995L165.33164062499998,65.43624245268958L165.55781249999998,52.01438373327255L165.783984375,71.95514633825847L166.01015625,61.90231661285672L166.236328125,53.574521005153656L166.46249999999998,55.978253117629464L166.68867187499998,73.62990960053035L166.91484375,52.271502843924935L167.141015625,69.05750740425927L167.3671875,64.27741295099258L167.593359375,67.64940348693302L167.81953124999998,49.94988758223397L168.045703125,47.63642598049981L168.271875,64.41935596295765L168.498046875,66.079417015825L168.72421875,55.46621532951082L168.950390625,60.267153612204964L169.1765625,71.05532741546631L169.402734375,67.89579171793801L169.62890625,57.28645586115974L169.855078125,34.08536716869901L170.08125,72.32413336208889L170.307421875,50.6278696826526L170.53359375,61.84919725145612L170.759765625,56.091831641537794L170.9859375,70.56419374261584L171.212109375,53.43572792836598L171.43828125000002,59.95607867411205L171.664453125,63.12544096367699L171.890625,52.90682517630714L172.116796875,68.06141199384417L172.34296875,60.42909645182746L172.56914062500002,69.22224599974496L172.79531250000002,57.58112551484788L173.021484375,64.41157155377525L173.24765625,59.94341864756176L173.473828125,73.16917506286076L173.70000000000002,47.56571822507041L173.92617187500002,58.515412867069244L174.15234375,63.91377629552568L174.37851562499998,69.77838288034711L174.60468749999998,35.14264517171043L174.830859375,61.47810775893075L175.05703125,56.70418506860733L175.283203125,65.84651774168015L175.50937499999998,72.21890442711967L175.73554687499998,65.89425659179688L175.96171875,55.364528187683646L176.187890625,54.55941078492573L176.4140625,38.776570149830405L176.640234375,58.921106432165416L176.86640624999998,66.93140665973935L177.092578125,58.43724473885128L177.31875,55.8804845554488L177.544921875,65.34553486960274L177.77109375,56.743159864630016L177.997265625,47.91133694989341L178.2234375,68.7878789816584L178.449609375,56.54071247577667L178.67578125,62.80157789162227L178.901953125,47.088374938283664L179.128125,61.065948537417825L179.35429687500002,50.01295410735267L179.58046875,37.11132451466153L179.806640625,63.523312440940316L180.0328125,52.37883424758911L180.258984375,63.70725207669395L180.48515625000002,66.38739476885114L180.71132812500002,62.693643629550934L180.9375,71.09322460208621L181.163671875,64.76262353999275L181.38984375,49.67438129016331L181.61601562500002,57.786768053259166L181.84218750000002,49.67691329547337L182.068359375,49.04788329771587L182.29453124999998,48.27736243179868L182.52070312499998,77.05647389377866L182.746875,66.15230259725026L182.973046875,59.78362349101475L183.19921875,50.31927399975913L183.42539062499998,66.87861887046269L183.65156249999998,67.00347838231495L183.877734375,60.2972965325628L184.10390625,68.8929044519152L184.330078125,53.45121385369981L184.55625,75.13072560514722L184.78242187499998,49.74147943087986L185.00859375,55.12857694285256L185.234765625,62.599371646131786L185.4609375,37.856080719402854L185.687109375,60.33047635214669L185.91328125,51.256756501538405L186.139453125,50.538654174123494L186.365625,65.73355714763913L186.591796875,60.043244464056826L186.81796875,49.42569466148103L187.044140625,66.12304889304298L187.2703125,71.95174018825803L187.496484375,53.2997230717114L187.72265625,62.29519190107072L187.948828125,56.3028245483126L188.175,51.43980692114148L188.40117187500002,48.541308913912076L188.62734375,59.026003795010695L188.853515625,62.85141921043396L189.0796875,70.96615712131772L189.305859375,42.448535493441995L189.53203125000002,66.15295820576804L189.75820312500002,59.86417290994099L189.984375,64.64186346530914L190.210546875,62.55086415154594L190.43671875,58.08283935274396L190.66289062500002,47.9558806504522L190.88906250000002,70.04276643480573L191.115234375,47.176836873803836L191.34140624999998,49.40143714632306L191.56757812499998,53.2104246701513L191.79375,57.013654896191184L192.019921875,47.950258995805484L192.24609375,52.20257352079663L192.47226562499998,47.63249232939313L192.69843749999998,66.01348691327232L192.924609375,41.81593355962207L193.15078125,68.93580536331449L193.376953125,59.54681317295346L193.603125,57.6357444865363L193.82929687499998,47.923936690603L194.05546875,37.646406565393704L194.281640625,59.91775948660714L194.5078125,69.14330922705787L194.733984375,34.71170691081454L194.96015625,70.28799416337695L195.186328125,46.20398919071468L195.4125,56.668028635638095L195.638671875,33.405704600470386L195.86484375,63.21468661512647L196.091015625,60.152708479336326L196.31718750000002,62.39978029898235L196.543359375,41.96045379127773L196.76953125,57.137971835477L196.995703125,58.32700454337257L197.221875,39.82003515958786L197.44804687500002,40.69995221921374L197.67421875000002,51.75939723423549L197.900390625,58.680543320519575L198.1265625,63.11249457938331L198.352734375,61.31063369342259L198.57890625000002,47.26391977071762L198.80507812500002,32.175556949206765L199.03125,49.41233381203243L199.25742187499998,48.025216903005344L199.48359374999998,61.85888066462108L199.709765625,37.49592557123731L199.9359375,55.54506167343685L200.162109375,66.99787933485848L200.38828124999998,65.19519705431802L200.61445312499998,60.78922145707267L200.840625,51.15852072409221L201.066796875,55.06283523355211L201.29296875,45.27301755973269L201.519140625,35.43225835050853L201.74531249999998,37.81027855191911L201.971484375,46.94903175319942L202.19765625,52.38873619692666L202.423828125,51.76627735580716L202.65,55.51852836779186L202.876171875,65.8011451108115L203.10234375,62.037997433117454L203.328515625,59.84740591049194L203.5546875,46.142150989600594L203.780859375,34.46957636731011L204.00703125,56.295416925634655L204.233203125,63.80969279153007L204.459375,38.29647632156099L204.685546875,51.390877425670624L204.91171875,41.8414420059749L205.137890625,62.856046148708884L205.36406250000002,32.02793953248431L205.590234375,38.19219688858303L205.81640625,48.524828272206435L206.042578125,53.040049348558696L206.26875,28.56341023104531L206.49492187500002,43.27495640516281L206.72109375000002,44.02232750824521L206.947265625,33.01257309743335L207.1734375,41.69589691502708L207.399609375,36.77508023806979L207.62578125000002,49.125169745513375L207.85195312500002,50.37779647963387L208.078125,21.056873559951782L208.30429687499998,25.995158059256397L208.53046874999998,35.31090295314789L208.756640625,42.18995445115226L208.9828125,53.59246357849666L209.208984375,51.781122744083405L209.43515624999998,42.46531002862113L209.66132812499998,52.33154754127774L209.8875,56.636205247470315L210.113671875,49.26785125902721L210.33984375,63.211242786475594L210.566015625,55.33935884918485L210.79218749999998,54.96347663232258L211.018359375,33.76257417031695L211.24453125,36.36794734852654L211.470703125,47.43541791609357L211.696875,55.431166648864746L211.923046875,58.38386916262763L212.14921875,26.043560053621036L212.375390625,39.42258568320955L212.6015625,62.433811656066354L212.827734375,45.94225067751748L213.05390625,31.444395201546797L213.28007812500002,44.22678693703244L213.50625,45.5832484960556L213.732421875,43.518096736499245L213.95859375,40.467422195843284L214.184765625,48.705173364707406L214.41093750000002,44.63777812038148L214.63710937500002,54.14179569482803L214.86328125,48.757885796683155L215.089453125,44.175521365233834L215.315625,39.96671061004909L215.54179687500002,58.02381951468331L215.76796875000002,25.111895135470803L215.994140625,38.6866914970534L216.22031249999998,38.306468699659604L216.44648437499998,49.69850316217968L216.67265625,44.69908128465923L216.898828125,56.967377977711806L217.125,51.546392287526814L217.35117187499998,46.868316548211226L217.57734374999998,45.15624388626645L217.803515625,36.07970567260469L218.0296875,55.73124695675713L218.255859375,50.44006421736309L218.48203125,52.96721651724407L218.70820312499998,38.15445795229505L218.934375,39.34306112357547L219.160546875,56.662761160305564L219.38671875,39.9846757905824L219.612890625,34.00319756780351L219.8390625,49.35925966501236L220.065234375,42.670387387275696L220.29140625,39.88302632740567L220.517578125,32.87981614044736L220.74375,28.305477261543274L220.969921875,49.80652031728199L221.19609375,52.261186429432456L221.422265625,58.7920645901135L221.6484375,40.23439481428693L221.874609375,32.26615903207232L222.10078125,43.21226666654857L222.32695312500002,44.04322408778327L222.553125,56.60934790543148L222.779296875,46.55837950536181L223.00546875,48.98021244151252L223.231640625,46.286497899464194L223.45781250000002,48.45971202850342L223.68398437500002,37.020014073167545L223.91015625,46.91839901038577L224.136328125,60.39676063401359L224.3625,39.605312066418776L224.58867187500002,40.09282858882631L224.81484375000002,33.17880376747678L225.041015625,42.89991065434049L225.26718749999998,44.676353522709434L225.49335937499998,41.91107215200151L225.71953125,39.44126675810131L225.945703125,52.595976310116896L226.171875,50.82680542128426L226.39804687499998,44.40673263583864L226.62421874999998,38.28715462344033L226.850390625,39.19688303130013L227.0765625,33.232985666819985L227.302734375,56.629882769925246L227.52890625,53.668913560254225L227.75507812499998,31.549217207091175L227.98125,43.82753642116273L228.207421875,40.96312252112796L228.43359375,35.78521687643868L228.659765625,48.633877822331016L228.8859375,63.463456136839724L229.112109375,58.808319159916465L229.33828125,41.0724961076464L229.564453125,52.20683120829719L229.790625,39.30747740609306L230.016796875,54.87526337589536L230.24296875000002,45.76987838745117L230.469140625,55.25014334065574L230.6953125,65.08347232001168L230.921484375,31.076734466212116L231.14765625,49.5817973102842L231.37382812500002,64.84841029133115L231.60000000000002,49.14649586166654L231.826171875,28.914341645581374L232.05234375,59.53707700967789L232.278515625,49.50282285894666L232.50468750000002,31.815130514757954L232.73085937500002,48.514753001076826L232.95703125,33.542643887656055L233.18320312499998,37.53993423495973L233.40937499999998,54.881668746471405L233.635546875,42.81327990123202L233.86171875,33.64400699308942L234.087890625,38.27242980684551L234.31406249999998,50.45471367665699L234.54023437499998,50.16213142020362L234.76640625,38.825507181031355L234.992578125,49.86391243764332L235.21875,61.50241048846925L235.444921875,47.492817572184975L235.67109374999998,45.661816017968306L235.897265625,37.30878325019563L236.1234375,42.63190994943889L236.349609375,24.408193588256836L236.57578125,56.10346680879593L236.801953125,58.61373907327652L237.028125,41.50690834011348L237.254296875,46.17308516161782L237.48046875,44.203893389020664L237.706640625,59.90182141746793L237.9328125,40.46199647017886L238.158984375,53.935422190598075L238.38515625,34.80851089954376L238.611328125,41.02649801118034L238.8375,38.36987433263232L239.063671875,56.307881023202626L239.28984375000002,46.89528692620141L239.516015625,32.882777682372506L239.7421875,18.997870956148404L239.968359375,40.86731324877056L240.19453125,48.3183040533747L240.42070312500002,48.187242635658805L240.64687500000002,53.41092784064156L240.873046875,66.6557496530669L241.09921875,60.48547124862671L241.325390625,48.62894945485252L241.55156250000002,42.00979021617343L241.77773437500002,68.4190878868103L242.00390625,45.613210558891296L242.23007812499998,54.366262487002786L242.45624999999998,54.68341122354779L242.682421875,44.069508714335285L242.90859375,48.44346499443054L243.134765625,57.13445264952523L243.36093749999998,50.163344672748025L243.58710937499998,30.31096111025127L243.81328125,48.274468711444314L244.039453125,53.50159020934785L244.265625,46.8084150297301L244.491796875,48.91058983121599L244.71796874999998,55.59674924612045L244.944140625,67.79029903241566L245.1703125,61.32906608922141L245.396484375,44.239386677742004L245.62265625,60.71565012420926L245.848828125,36.93752797160829L246.075,66.38325765303203L246.301171875,61.93466750213078L246.52734375,13.89425253868103L246.753515625,30.371947773865287L246.9796875,42.701087951660156L247.20585937500002,54.539426028728485L247.43203125,48.80973161969865L247.658203125,46.24603856461388L247.884375,53.88863284247262L248.110546875,37.438993130411404L248.33671875000002,43.2779556257384L248.56289062500002,32.771422198840554L248.7890625,47.69573971203397L249.015234375,62.030032166412894L249.24140625,59.22845118386405L249.46757812500002,45.31765168905258L249.69375000000002,44.60700219869614L249.919921875,59.81176944289888L250.14609374999998,55.212223546845564L250.37226562499998,53.76681776557649L250.5984375,62.64615345852715L250.824609375,47.801013861383694L251.05078125,47.46895945072174L251.27695312499998,50.444540441036224L251.50312499999998,48.45469323226382L251.729296875,54.32336911133358L251.95546875,44.966155094759785L252.181640625,27.65252885648181L252.4078125,43.92603594916207L252.63398437499998,50.02892985514232L252.86015625,35.61935545716966L253.086328125,46.17820192234856L253.3125,34.64802245582851L253.538671875,51.67422841276441L253.76484375,39.8925816331591L253.991015625,41.84691294601987" style="fill: none;" fill="none"></path></g></g></g></g></g></g><g transform="translate(58, 177)" clip-path="url(#clip_1)"><clipPath id="clip_1"><rect width="271" height="23"></rect></clipPath><g><g><line x1="0" y1="0" x2="0" y2="5" style="visibility: inherit;" fill="rgb(0, 0, 0)" stroke="rgb(204, 204, 204)" stroke-width="1px"></line><line x1="22.6171875" y1="0" x2="22.6171875" y2="5" style="visibility: inherit;" fill="rgb(0, 0, 0)" stroke="rgb(204, 204, 204)" stroke-width="1px"></line><line x1="45.234375" y1="0" x2="45.234375" y2="5" style="visibility: inherit;" fill="rgb(0, 0, 0)" stroke="rgb(204, 204, 204)" stroke-width="1px"></line><line x1="67.8515625" y1="0" x2="67.8515625" y2="5" style="visibility: inherit;" fill="rgb(0, 0, 0)" stroke="rgb(204, 204, 204)" stroke-width="1px"></line><line x1="90.46875" y1="0" x2="90.46875" y2="5" style="visibility: inherit;" fill="rgb(0, 0, 0)" stroke="rgb(204, 204, 204)" stroke-width="1px"></line><line x1="113.0859375" y1="0" x2="113.0859375" y2="5" style="visibility: inherit;" fill="rgb(0, 0, 0)" stroke="rgb(204, 204, 204)" stroke-width="1px"></line><line x1="135.703125" y1="0" x2="135.703125" y2="5" style="visibility: inherit;" fill="rgb(0, 0, 0)" stroke="rgb(204, 204, 204)" stroke-width="1px"></line><line x1="158.3203125" y1="0" x2="158.3203125" y2="5" style="visibility: inherit;" fill="rgb(0, 0, 0)" stroke="rgb(204, 204, 204)" stroke-width="1px"></line><line x1="180.9375" y1="0" x2="180.9375" y2="5" style="visibility: inherit;" fill="rgb(0, 0, 0)" stroke="rgb(204, 204, 204)" stroke-width="1px"></line><line x1="203.5546875" y1="0" x2="203.5546875" y2="5" style="visibility: inherit;" fill="rgb(0, 0, 0)" stroke="rgb(204, 204, 204)" stroke-width="1px"></line><line x1="226.171875" y1="0" x2="226.171875" y2="5" style="visibility: inherit;" fill="rgb(0, 0, 0)" stroke="rgb(204, 204, 204)" stroke-width="1px"></line><line x1="248.7890625" y1="0" x2="248.7890625" y2="5" style="visibility: inherit;" fill="rgb(0, 0, 0)" stroke="rgb(204, 204, 204)" stroke-width="1px"></line><line x1="271.40625" y1="0" x2="271.40625" y2="5" style="visibility: inherit;" fill="rgb(0, 0, 0)" stroke="rgb(204, 204, 204)" stroke-width="1px"></line></g><g transform="translate(0, 8)"><text x="0" y="0" dx="0em" dy="0.95em" style="text-anchor: middle; visibility: hidden; font-family: &quot;Helvetica Neue&quot;, sans-serif; font-size: 12px; font-weight: 200;" fill="rgb(50, 49, 63)" stroke="none" stroke-width="1px">-100</text><text x="22.6171875" y="0" dx="0em" dy="0.95em" style="text-anchor: middle; visibility: inherit; font-family: &quot;Helvetica Neue&quot;, sans-serif; font-size: 12px; font-weight: 200;" fill="rgb(50, 49, 63)" stroke="none" stroke-width="1px">0</text><text x="45.234375" y="0" dx="0em" dy="0.95em" style="text-anchor: middle; visibility: hidden; font-family: &quot;Helvetica Neue&quot;, sans-serif; font-size: 12px; font-weight: 200;" fill="rgb(50, 49, 63)" stroke="none" stroke-width="1px">100</text><text x="67.8515625" y="0" dx="0em" dy="0.95em" style="text-anchor: middle; visibility: inherit; font-family: &quot;Helvetica Neue&quot;, sans-serif; font-size: 12px; font-weight: 200;" fill="rgb(50, 49, 63)" stroke="none" stroke-width="1px">200</text><text x="90.46875" y="0" dx="0em" dy="0.95em" style="text-anchor: middle; visibility: hidden; font-family: &quot;Helvetica Neue&quot;, sans-serif; font-size: 12px; font-weight: 200;" fill="rgb(50, 49, 63)" stroke="none" stroke-width="1px">300</text><text x="113.0859375" y="0" dx="0em" dy="0.95em" style="text-anchor: middle; visibility: inherit; font-family: &quot;Helvetica Neue&quot;, sans-serif; font-size: 12px; font-weight: 200;" fill="rgb(50, 49, 63)" stroke="none" stroke-width="1px">400</text><text x="135.703125" y="0" dx="0em" dy="0.95em" style="text-anchor: middle; visibility: hidden; font-family: &quot;Helvetica Neue&quot;, sans-serif; font-size: 12px; font-weight: 200;" fill="rgb(50, 49, 63)" stroke="none" stroke-width="1px">500</text><text x="158.3203125" y="0" dx="0em" dy="0.95em" style="text-anchor: middle; visibility: inherit; font-family: &quot;Helvetica Neue&quot;, sans-serif; font-size: 12px; font-weight: 200;" fill="rgb(50, 49, 63)" stroke="none" stroke-width="1px">600</text><text x="180.9375" y="0" dx="0em" dy="0.95em" style="text-anchor: middle; visibility: hidden; font-family: &quot;Helvetica Neue&quot;, sans-serif; font-size: 12px; font-weight: 200;" fill="rgb(50, 49, 63)" stroke="none" stroke-width="1px">700</text><text x="203.5546875" y="0" dx="0em" dy="0.95em" style="text-anchor: middle; visibility: inherit; font-family: &quot;Helvetica Neue&quot;, sans-serif; font-size: 12px; font-weight: 200;" fill="rgb(50, 49, 63)" stroke="none" stroke-width="1px">800</text><text x="226.171875" y="0" dx="0em" dy="0.95em" style="text-anchor: middle; visibility: hidden; font-family: &quot;Helvetica Neue&quot;, sans-serif; font-size: 12px; font-weight: 200;" fill="rgb(50, 49, 63)" stroke="none" stroke-width="1px">900</text><text x="248.7890625" y="0" dx="0em" dy="0.95em" style="text-anchor: middle; visibility: inherit; font-family: &quot;Helvetica Neue&quot;, sans-serif; font-size: 12px; font-weight: 200;" fill="rgb(50, 49, 63)" stroke="none" stroke-width="1px">1k</text><text x="271.40625" y="0" dx="0em" dy="0.95em" style="text-anchor: middle; visibility: hidden; font-family: &quot;Helvetica Neue&quot;, sans-serif; font-size: 12px; font-weight: 200;" fill="rgb(50, 49, 63)" stroke="none" stroke-width="1px">1.1k</text></g><line x1="0" y1="0" x2="271.40625" y2="0" fill="rgb(0, 0, 0)" stroke="rgb(204, 204, 204)" stroke-width="1px"></line></g></g></g></g></svg>