<svg viewBox="0 0 330 200" xmlns="http://www.w3.org/2000/svg"><g><g><g><g><g><line x1="48.875" y1="177" x2="43.875" y2="177" style="visibility: inherit;" fill="rgb(0, 0, 0)" stroke="rgb(204, 204, 204)" stroke-width="1px"></line><line x1="48.875" y1="164.35714285714278" x2="43.875" y2="164.35714285714278" style="visibility: inherit;" fill="rgb(0, 0, 0)" stroke="rgb(204, 204, 204)" stroke-width="1px"></line><line x1="48.875" y1="151.71428571428567" x2="43.875" y2="151.71428571428567" style="visibility: inherit;" fill="rgb(0, 0, 0)" stroke="rgb(204, 204, 204)" stroke-width="1px"></line><line x1="48.875" y1="139.07142857142858" x2="43.875" y2="139.07142857142858" style="visibility: inherit;" fill="rgb(0, 0, 0)" stroke="rgb(204, 204, 204)" stroke-width="1px"></line><line x1="48.875" y1="126.42857142857136" x2="43.875" y2="126.42857142857136" style="visibility: inherit;" fill="rgb(0, 0, 0)" stroke="rgb(204, 204, 204)" stroke-width="1px"></line><line x1="48.875" y1="113.78571428571426" x2="43.875" y2="113.78571428571426" style="visibility: inherit;" fill="rgb(0, 0, 0)" stroke="rgb(204, 204, 204)" stroke-width="1px"></line><line x1="48.875" y1="101.14285714285705" x2="43.875" y2="101.14285714285705" style="visibility: inherit;" fill="rgb(0, 0, 0)" stroke="rgb(204, 204, 204)" stroke-width="1px"></line><line x1="48.875" y1="88.49999999999994" x2="43.875" y2="88.49999999999994" style="visibility: inherit;" fill="rgb(0, 0, 0)" stroke="rgb(204, 204, 204)" stroke-width="1px"></line><line x1="48.875" y1="75.85714285714285" x2="43.875" y2="75.85714285714285" style="visibility: inherit;" fill="rgb(0, 0, 0)" stroke="rgb(204, 204, 204)" stroke-width="1px"></line><line x1="48.875" y1="63.21428571428562" x2="43.875" y2="63.21428571428562" style="visibility: inherit;" fill="rgb(0, 0, 0)" stroke="rgb(204, 204, 204)" stroke-width="1px"></line><line x1="48.875" y1="50.57142857142853" x2="43.875" y2="50.57142857142853" style="visibility: inherit;" fill="rgb(0, 0, 0)" stroke="rgb(204, 204, 204)" stroke-width="1px"></line><line x1="48.875" y1="37.9285714285713" x2="43.875" y2="37.9285714285713" style="visibility: inherit;" fill="rgb(0, 0, 0)" stroke="rgb(204, 204, 204)" stroke-width="1px"></line><line x1="48.875" y1="25.285714285714192" x2="43.875" y2="25.285714285714192" style="visibility: inherit;" fill="rgb(0, 0, 0)" stroke="rgb(204, 204, 204)" stroke-width="1px"></line><line x1="48.875" y1="12.64285714285711" x2="43.875" y2="12.64285714285711" style="visibility: inherit;" fill="rgb(0, 0, 0)" stroke="rgb(204, 204, 204)" stroke-width="1px"></line><line x1="48.875" y1="0" x2="43.875" y2="0" style="visibility: inherit;" fill="rgb(0, 0, 0)" stroke="rgb(204, 204, 204)" stroke-width="1px"></line></g><g transform="translate(38.875, 0)"><text x="0" y="177" dx="0em" dy="0.3em" style="text-anchor: end; visibility: hidden; font-family: &quot;Helvetica Neue&quot;, sans-serif; font-size: 12px; font-weight: 200;" fill="rgb(50, 49, 63)" stroke="none" stroke-width="1px">3.4</text><text x="0" y="164.35714285714278" dx="0em" dy="0.3em" style="text-anchor: end; visibility: inherit; font-family: &quot;Helvetica Neue&quot;, sans-serif; font-size: 12px; font-weight: 200;" fill="rgb(50, 49, 63)" stroke="none" stroke-width="1px">3.45</text><text x="0" y="151.71428571428567" dx="0em" dy="0.3em" style="text-anchor: end; visibility: hidden; font-family: &quot;Helvetica Neue&quot;, sans-serif; font-size: 12px; font-weight: 200;" fill="rgb(50, 49, 63)" stroke="none" stroke-width="1px">3.5</text><text x="0" y="139.07142857142858" dx="0em" dy="0.3em" style="text-anchor: end; visibility: inherit; font-family: &quot;Helvetica Neue&quot;, sans-serif; font-size: 12px; font-weight: 200;" fill="rgb(50, 49, 63)" stroke="none" stroke-width="1px">3.55</text><text x="0" y="126.42857142857136" dx="0em" dy="0.3em" style="text-anchor: end; visibility: hidden; font-family: &quot;Helvetica Neue&quot;, sans-serif; font-size: 12px; font-weight: 200;" fill="rgb(50, 49, 63)" stroke="none" stroke-width="1px">3.6</text><text x="0" y="113.78571428571426" dx="0em" dy="0.3em" style="text-anchor: end; visibility: inherit; font-family: &quot;Helvetica Neue&quot;, sans-serif; font-size: 12px; font-weight: 200;" fill="rgb(50, 49, 63)" stroke="none" stroke-width="1px">3.65</text><text x="0" y="101.14285714285705" dx="0em" dy="0.3em" style="text-anchor: end; visibility: hidden; font-family: &quot;Helvetica Neue&quot;, sans-serif; font-size: 12px; font-weight: 200;" fill="rgb(50, 49, 63)" stroke="none" stroke-width="1px">3.7</text><text x="0" y="88.49999999999994" dx="0em" dy="0.3em" style="text-anchor: end; visibility: inherit; font-family: &quot;Helvetica Neue&quot;, sans-serif; font-size: 12px; font-weight: 200;" fill="rgb(50, 49, 63)" stroke="none" stroke-width="1px">3.75</text><text x="0" y="75.85714285714285" dx="0em" dy="0.3em" style="text-anchor: end; visibility: hidden; font-family: &quot;Helvetica Neue&quot;, sans-serif; font-size: 12px; font-weight: 200;" fill="rgb(50, 49, 63)" stroke="none" stroke-width="1px">3.8</text><text x="0" y="63.21428571428562" dx="0em" dy="0.3em" style="text-anchor: end; visibility: inherit; font-family: &quot;Helvetica Neue&quot;, sans-serif; font-size: 12px; font-weight: 200;" fill="rgb(50, 49, 63)" stroke="none" stroke-width="1px">3.85</text><text x="0" y="50.57142857142853" dx="0em" dy="0.3em" style="text-anchor: end; visibility: hidden; font-family: &quot;Helvetica Neue&quot;, sans-serif; font-size: 12px; font-weight: 200;" fill="rgb(50, 49, 63)" stroke="none" stroke-width="1px">3.9</text><text x="0" y="37.9285714285713" dx="0em" dy="0.3em" style="text-anchor: end; visibility: inherit; font-family: &quot;Helvetica Neue&quot;, sans-serif; font-size: 12px; font-weight: 200;" fill="rgb(50, 49, 63)" stroke="none" stroke-width="1px">3.95</text><text x="0" y="25.285714285714192" dx="0em" dy="0.3em" style="text-anchor: end; visibility: hidden; font-family: &quot;Helvetica Neue&quot;, sans-serif; font-size: 12px; font-weight: 200;" fill="rgb(50, 49, 63)" stroke="none" stroke-width="1px">4</text><text x="0" y="12.64285714285711" dx="0em" dy="0.3em" style="text-anchor: end; visibility: inherit; font-family: &quot;Helvetica Neue&quot;, sans-serif; font-size: 12px; font-weight: 200;" fill="rgb(50, 49, 63)" stroke="none" stroke-width="1px">4.05</text><text x="0" y="0" dx="0em" dy="0.3em" style="text-anchor: end; visibility: hidden; font-family: &quot;Helvetica Neue&quot;, sans-serif; font-size: 12px; font-weight: 200;" fill="rgb(50, 49, 63)" stroke="none" stroke-width="1px">4.1</text></g><line x1="48.875" y1="0" x2="48.875" y2="177" fill="rgb(0, 0, 0)" stroke="rgb(204, 204, 204)" stroke-width="1px"></line></g></g><g transform="translate(48, 0)" clip-path="url(#clip_0)"><clipPath id="clip_0"><rect width="281" height="177"></rect></clipPath><g><g><g><line x1="0" y1="0" x2="0" y2="177" fill="rgb(0, 0, 0)" stroke="rgb(60, 60, 60)" stroke-width="1px" opacity="0.25"></line><line x1="23.427083333333332" y1="0" x2="23.427083333333332" y2="177" fill="rgb(0, 0, 0)" stroke="rgb(60, 60, 60)" stroke-width="1px" opacity="0.25"></line><line x1="46.854166666666664" y1="0" x2="46.854166666666664" y2="177" fill="rgb(0, 0, 0)" stroke="rgb(60, 60, 60)" stroke-width="1px" opacity="0.25"></line><line x1="70.28125" y1="0" x2="70.28125" y2="177" fill="rgb(0, 0, 0)" stroke="rgb(60, 60, 60)" stroke-width="1px" opacity="0.25"></line><line x1="93.70833333333333" y1="0" x2="93.70833333333333" y2="177" fill="rgb(0, 0, 0)" stroke="rgb(60, 60, 60)" stroke-width="1px" opacity="0.25"></line><line x1="117.13541666666667" y1="0" x2="117.13541666666667" y2="177" fill="rgb(0, 0, 0)" stroke="rgb(60, 60, 60)" stroke-width="1px" opacity="0.25"></line><line x1="140.5625" y1="0" x2="140.5625" y2="177" fill="rgb(0, 0, 0)" stroke="rgb(60, 60, 60)" stroke-width="1px" opacity="0.25"></line><line x1="163.98958333333334" y1="0" x2="163.98958333333334" y2="177" fill="rgb(0, 0, 0)" stroke="rgb(60, 60, 60)" stroke-width="1px" opacity="0.25"></line><line x1="187.41666666666666" y1="0" x2="187.41666666666666" y2="177" fill="rgb(0, 0, 0)" stroke="rgb(60, 60, 60)" stroke-width="1px" opacity="0.25"></line><line x1="210.84375" y1="0" x2="210.84375" y2="177" fill="rgb(0, 0, 0)" stroke="rgb(60, 60, 60)" stroke-width="1px" opacity="0.25"></line><line x1="234.27083333333334" y1="0" x2="234.27083333333334" y2="177" fill="rgb(0, 0, 0)" stroke="rgb(60, 60, 60)" stroke-width="1px" opacity="0.25"></line><line x1="257.69791666666663" y1="0" x2="257.69791666666663" y2="177" fill="rgb(0, 0, 0)" stroke="rgb(60, 60, 60)" stroke-width="1px" opacity="0.25"></line><line x1="281.125" y1="0" x2="281.125" y2="177" fill="rgb(0, 0, 0)" stroke="rgb(60, 60, 60)" stroke-width="1px" opacity="0.25"></line></g><g><line x1="0" y1="177" x2="281.125" y2="177" fill="rgb(0, 0, 0)" stroke="rgb(60, 60, 60)" stroke-width="1px" opacity="0.25"></line><line x1="0" y1="164.35714285714278" x2="281.125" y2="164.35714285714278" fill="rgb(0, 0, 0)" stroke="rgb(60, 60, 60)" stroke-width="1px" opacity="0.25"></line><line x1="0" y1="151.71428571428567" x2="281.125" y2="151.71428571428567" fill="rgb(0, 0, 0)" stroke="rgb(60, 60, 60)" stroke-width="1px" opacity="0.25"></line><line x1="0" y1="139.07142857142858" x2="281.125" y2="139.07142857142858" fill="rgb(0, 0, 0)" stroke="rgb(60, 60, 60)" stroke-width="1px" opacity="0.25"></line><line x1="0" y1="126.42857142857136" x2="281.125" y2="126.42857142857136" fill="rgb(0, 0, 0)" stroke="rgb(60, 60, 60)" stroke-width="1px" opacity="0.25"></line><line x1="0" y1="113.78571428571426" x2="281.125" y2="113.78571428571426" fill="rgb(0, 0, 0)" stroke="rgb(60, 60, 60)" stroke-width="1px" opacity="0.25"></line><line x1="0" y1="101.14285714285705" x2="281.125" y2="101.14285714285705" fill="rgb(0, 0, 0)" stroke="rgb(60, 60, 60)" stroke-width="1px" opacity="0.25"></line><line x1="0" y1="88.49999999999994" x2="281.125" y2="88.49999999999994" fill="rgb(0, 0, 0)" stroke="rgb(60, 60, 60)" stroke-width="1px" opacity="0.25"></line><line x1="0" y1="75.85714285714285" x2="281.125" y2="75.85714285714285" fill="rgb(0, 0, 0)" stroke="rgb(60, 60, 60)" stroke-width="1px" opacity="0.25"></line><line x1="0" y1="63.21428571428562" x2="281.125" y2="63.21428571428562" fill="rgb(0, 0, 0)" stroke="rgb(60, 60, 60)" stroke-width="1px" opacity="0.25"></line><line x1="0" y1="50.57142857142853" x2="281.125" y2="50.57142857142853" fill="rgb(0, 0, 0)" stroke="rgb(60, 60, 60)" stroke-width="1px" opacity="0.25"></line><line x1="0" y1="37.9285714285713" x2="281.125" y2="37.9285714285713" fill="rgb(0, 0, 0)" stroke="rgb(60, 60, 60)" stroke-width="1px" opacity="0.25"></line><line x1="0" y1="25.285714285714192" x2="281.125" y2="25.285714285714192" fill="rgb(0, 0, 0)" stroke="rgb(60, 60, 60)" stroke-width="1px" opacity="0.25"></line><line x1="0" y1="12.64285714285711" x2="281.125" y2="12.64285714285711" fill="rgb(0, 0, 0)" stroke="rgb(60, 60, 60)" stroke-width="1px" opacity="0.25"></line><line x1="0" y1="0" x2="281.125" y2="0" fill="rgb(0, 0, 0)" stroke="rgb(60, 60, 60)" stroke-width="1px" opacity="0.25"></line></g></g></g><g><g><line x1="0" y1="1036.714285714286" x2="281.125" y2="1036.714285714286" fill="rgb(0, 0, 0)" stroke="rgb(153, 153, 153)" stroke-width="1.5px"></line></g></g><g><g><line x1="23.427083333333332" y1="0" x2="23.427083333333332" y2="177" fill="rgb(0, 0, 0)" stroke="rgb(153, 153, 153)" stroke-width="1.5px"></line></g></g><g><g><g><g><g><path stroke="rgb(0, 119, 187)" stroke-width="2px" d="M32.329375,177.02824994495936L32.56364583333333,173.0804919515337L32.797916666666666,158.40758146558485L33.26645833333333,112.6432734898158L33.500729166666666,116.98162344523834L33.735,88.416021823883L33.96927083333333,45.44138084139135L34.203541666666666,67.91967998232154L34.4378125,73.91414226804454L34.67208333333333,81.42593887874052L34.90635416666667,28.22217730113431L35.140625,21.955765587942864L35.37489583333333,23.92458057403556L35.60916666666667,25.330024378640218L35.8434375,26.397566046033518L36.077708333333334,58.94468573161528L36.31197916666667,-0.7870678220477316L36.54625,32.596759046826975L36.780520833333334,31.97599574497761L37.01479166666666,17.93048000335685L37.2490625,56.18039907727916L37.483333333333334,22.206916400364378L37.71760416666666,41.569221292223176L37.951875,33.77781895228787L38.186145833333335,-5.136691229684118L38.42041666666666,20.55641065325048L38.6546875,39.99636370795105L38.888958333333335,29.80468061992093L39.12322916666667,49.029413223266516L39.3575,24.582540239606516L39.591770833333335,39.07169948305395L39.82604166666667,-0.7789895193918426L40.060312499999995,24.97910049983426L40.294583333333335,24.920261519295735L40.52885416666667,41.5300957815987L40.763124999999995,45.96695280075065L40.997395833333336,36.095628670283645L41.23166666666667,18.670548983982542L41.465937499999995,37.81317227227339L41.700208333333336,12.411311285836263L41.93447916666667,5.817848886762249L42.168749999999996,33.93986729213162L42.403020833333336,19.400972230093743L42.63729166666667,29.574207850864866L42.871562499999996,2.022011211940139L43.10583333333333,13.126783643449983L43.34010416666667,8.074347904750198L43.574374999999996,33.68576247351501L43.80864583333333,26.38074629647383L44.04291666666667,13.458958625793372L44.277187500000004,-8.200176511492145L44.51145833333333,27.901456628526887L44.74572916666667,37.45296437399719L44.980000000000004,16.837135996137278L45.21427083333333,17.516436849321565L45.448541666666664,-5.848908151899167L45.682812500000004,16.42019912174763L45.91708333333333,16.389935629708333L46.151354166666664,-8.931684902736208L46.385625000000005,8.62415477207719L46.61989583333333,22.942765372139974L46.854166666666664,-4.865043231419236L47.088437500000005,36.659060137612414L47.32270833333333,14.712783540998117L47.556979166666665,17.27035004752014L47.791250000000005,-2.652673448835202L48.02552083333333,10.999537467956458L48.259791666666665,39.671121597289954L48.4940625,20.36229024614599L48.72833333333333,30.423936775752395L48.962604166666665,38.89898054940352L49.196875,59.06308712278087L49.43114583333334,26.318350451333117L49.665416666666665,9.136222703116204L49.8996875,34.15641403198234L50.13395833333334,31.33310753958557L50.368229166666666,39.073990345001135L50.6025,52.686472892761145L50.83677083333334,16.68280424390511L51.071041666666666,21.238364083426262L51.3053125,-16.848059790475133L51.53958333333333,51.6447335651942L51.773854166666666,34.464715821402336L52.008125,21.851109368460442L52.24239583333333,18.31546538216719L52.47666666666667,24.50850922720764L52.7109375,46.5784320831298L52.94520833333333,44.496098858969475L53.17947916666667,37.00594486509044L53.41375,22.206072398594358L53.648020833333334,41.08741685322346L53.88229166666667,17.52210371834883L54.1165625,20.84542097364144L54.350833333333334,52.5781995228358L54.58510416666666,46.18337896891995L54.819375,32.74825736454548L55.053645833333334,43.75602987834378L55.28791666666666,46.140274592808254L55.5221875,25.198299816676467L55.756458333333335,26.94158547265181L55.99072916666666,20.226647104535715L56.225,37.11265080315718L56.459270833333335,49.70346920830856L56.69354166666667,29.478534221649085L56.9278125,29.467622484479563L57.162083333333335,59.45789909362787L57.39635416666667,53.92028290884829L57.630624999999995,28.4032156808035L57.864895833333335,29.59349931989391L58.09916666666667,52.78751196180065L58.333437499999995,44.850278173174104L58.567708333333336,34.86965581348957L58.80197916666667,46.320288113185256L59.036249999999995,43.99765552793224L59.270520833333336,40.80075768062039L59.50479166666667,76.77952827726085L59.739062499999996,61.682868616921496L59.973333333333336,36.753226620810295L60.20760416666667,46.288216045924514L60.441874999999996,47.81640182222631L60.67614583333333,66.86124147687633L60.91041666666667,35.78744745254508L61.144687499999996,38.93515205383292L61.37895833333333,41.00729697091231L61.61322916666667,37.755418436867785L61.847500000000004,57.18940319333751L62.08177083333333,28.498829024178576L62.31604166666667,38.22371884754719L62.550312500000004,32.14172152110501L62.78458333333333,40.271327427455276L63.018854166666664,54.72937917709342L63.253125000000004,49.63130705697189L63.48739583333333,49.396614279065744L63.721666666666664,53.04354592732014L63.955937500000005,77.730055127825L64.19020833333333,51.09468555450431L64.42447916666666,52.12171513693667L64.65875,56.17424992152617L64.89302083333334,66.87335893086019L65.12729166666666,34.31496579306457L65.3615625,58.78281824929367L65.59583333333333,63.304075445447594L65.83010416666667,53.50400917870651L66.064375,71.76416833060122L66.29864583333334,58.54818575722824L66.53291666666667,22.086465290614456L66.76718749999999,56.02859933035708L67.00145833333333,31.81268140247883L67.23572916666667,47.87952109745564L67.47,71.5126558031354L67.70427083333334,33.379872117723664L67.93854166666667,47.444136755806994L68.17281249999999,37.81021826607832L68.40708333333333,56.07899829319538L68.64135416666667,44.71903589793607L68.875625,38.20490966524389L69.10989583333333,28.286200863974358L69.34416666666667,42.39230387551436L69.57843749999999,31.358186449323313L69.81270833333333,34.675173691340774L70.04697916666667,36.42545250483914L70.28125,55.052511283329494L70.51552083333334,60.378222737993454L70.74979166666667,57.95111479078014L70.98406250000001,54.74354634966163L71.21833333333333,74.71491909027094L71.45260416666666,54.30020427703849L71.686875,20.08389023372098L71.92114583333334,47.602145944322785L72.15541666666667,47.971035003662024L72.38968750000001,71.85284880229399L72.62395833333333,58.92834826878132L72.85822916666666,62.987876210893845L73.0925,34.666010243551995L73.32677083333333,43.32836212430675L73.56104166666667,52.44026551927833L73.79531250000001,75.82869999749315L74.02958333333332,58.43219579969127L74.26385416666666,63.80215706144054L74.498125,77.96794305528907L74.73239583333333,67.86397586550025L74.96666666666667,58.34062160764415L75.20093750000001,79.18312474659506L75.43520833333332,57.182651179177356L75.66947916666666,76.36060197012759L76.13802083333333,55.76352248873023L76.37229166666667,51.85507086345122L76.60656250000001,47.631203719547756L76.84083333333332,85.62147167750761L77.07510416666666,35.03055872235973L77.309375,82.80328948157168L77.54364583333333,50.947286673954494L77.77791666666667,72.85618604932506L78.01218750000001,78.36679417746402L78.24645833333334,31.969002587454582L78.48072916666666,95.96923480715064L78.715,67.69083493096481L78.94927083333333,66.71818317685802L79.18354166666667,60.38099588666637L79.4178125,86.76702322278699L79.65208333333334,49.193270138331755L79.88635416666666,59.32159280776972L80.12062499999999,60.02639457157673L80.35489583333333,64.5112994057791L80.58916666666667,74.1838611194065L80.8234375,46.460332121167795L81.05770833333334,73.90081909724638L81.29197916666668,68.76018517357956L81.52624999999999,57.92501102175025L81.76052083333333,70.7152549879891L81.99479166666667,76.38682631083891L82.2290625,71.16643421990526L82.46333333333334,75.6028692381722L82.69760416666668,76.07080793380732L82.93187499999999,82.89377852848592L83.16614583333333,40.968171460287834L83.40041666666667,61.861435277121345L83.6346875,57.53025933674397L83.86895833333334,56.444149630410266L84.10322916666668,102.87865529741555L84.33749999999999,99.69502033506116L84.57177083333333,87.47055898393899L84.80604166666667,62.48738316127226L85.0403125,53.588771070752756L85.27458333333334,65.38761438642223L85.50885416666667,58.643015384674015L85.97739583333333,70.0586818967546L86.21166666666666,63.82753740038184L86.4459375,76.09172712053565L86.68020833333334,79.66173403603685L86.91447916666667,72.89368384225023L87.14874999999999,65.2313534872872L87.38302083333333,81.02805233001703L87.61729166666666,69.0982681683131L87.8515625,81.9982926504952L88.08583333333334,48.9293387276785L88.32010416666667,40.46297611509044L88.55437500000001,72.81657825197486L88.78864583333333,76.9173417091369L89.02291666666666,66.23185729980463L89.2571875,59.38477236883975L89.49145833333334,75.24808706556041L89.72572916666667,102.08125448226924L89.96000000000001,62.65117979049677L90.19427083333333,69.81482567105968L90.42854166666666,82.59807647977551L90.6628125,75.30493661335531L91.13135416666667,69.51333618164057L91.36562500000001,61.687872341700896L91.59989583333332,61.961570058550095L91.83416666666666,62.11095837184355L92.0684375,72.8074750900268L92.30270833333333,87.95610114506307L92.53697916666667,73.65985659190581L92.77125000000001,70.90262338093343L93.00552083333332,71.2635547092982L93.23979166666666,78.48700414385108L93.4740625,100.33887311390463L93.70833333333333,67.72676529203136L93.94260416666667,61.512259687696115L94.17687500000001,63.71118572780058L94.41114583333332,72.95252282278872L94.64541666666666,95.21451636723104L94.8796875,76.79948289053775L95.11395833333333,102.07637132917127L95.34822916666667,81.79748051507127L95.58250000000001,76.55176837103701L95.81677083333334,80.80131728308535L96.05104166666666,67.25291858400611L96.2853125,80.49482406888684L96.75385416666667,67.81653090885702L96.988125,71.19247770309443L97.22239583333334,66.03411974225719L97.45666666666666,82.50318656648902L97.69093749999999,74.60194342476976L97.92520833333333,87.73846926007947L98.15947916666667,91.83989586148938L98.39375,69.44177688871105L98.62802083333334,95.77855069296695L98.86229166666668,74.67971215929298L99.09656249999999,98.7498589243207L99.33083333333333,42.5858214242117L99.56510416666667,76.41998352323253L99.799375,67.34853192738119L100.03364583333334,72.14451169967646L100.26791666666668,103.17496020453311L100.50218749999999,81.0002605574471L100.73645833333333,75.36244930539806L100.97072916666667,91.34772225788656L101.205,76.10336228779379L101.43927083333334,83.31342826570777L101.67354166666668,76.97835097994117L101.90781249999999,69.90344585691173L102.14208333333333,101.43818541935508L102.37635416666667,58.594183853694304L102.610625,108.83260549817761L102.84489583333334,98.30525084904257L103.07916666666667,64.44733612877975L103.31343749999999,88.20863853182107L103.54770833333333,82.25993319920126L103.78197916666666,67.10937799726207L104.01625,89.44431740897036L104.25052083333334,72.25393050057542L104.48479166666667,50.81845583234508L104.71906249999999,59.2488880838666L104.95333333333333,72.14945513861514L105.18760416666666,58.06451245716633L105.421875,26.35699367523185L105.65614583333334,29.41867038181843L105.89041666666667,93.84018005643567L106.12468750000001,70.56104380743838L106.35895833333333,82.80021490369519L106.59322916666666,95.51323270797725L106.8275,66.4131971086774L107.06177083333334,79.72738531657622L107.29604166666667,69.8583520480564L107.53031250000001,78.22910131726941L107.76458333333333,79.63936798913133L107.99885416666666,91.95841782433641L108.233125,100.86149106706887L108.46739583333333,79.56202125549311L108.70166666666667,90.28126573562616L108.93593750000001,100.00193555014468L109.17020833333332,78.94270481382092L109.40447916666666,95.2978313991001L109.63875,83.88590260914388L110.10729166666667,93.80599798474988L110.34156250000001,92.43099852970663L110.57583333333332,103.28287185941419L110.81010416666666,75.59310293197626L111.044375,112.76113230841496L111.27864583333333,100.7854706219264L111.51291666666667,92.92051955631796L111.74718750000001,79.63430397851121L111.98145833333332,89.94571474620268L112.21572916666666,92.14711250577649L112.45,94.89108283179141L112.68427083333333,61.15150921685348L112.91854166666667,90.47176899228772L113.15281250000001,88.53725664956224L113.38708333333334,96.57136978421887L113.62135416666666,88.42060354777739L113.855625,88.38551718848086L114.08989583333333,65.10427093505854L114.32416666666667,99.29827921731126L114.5584375,89.73091629573271L114.79270833333334,99.95937374659941L115.02697916666666,105.83881064823692L115.26124999999999,103.52950123378203L115.49552083333333,85.91482257843012L115.9640625,108.03484296798702L116.19833333333334,97.17844820022579L116.43260416666668,81.97646917615613L116.66687499999999,75.58610977445323L116.90114583333333,91.27320895876197L117.13541666666667,58.59406328201288L117.3696875,92.18521315710879L117.60395833333334,97.10562290464124L117.83822916666668,101.0765306609017L118.07249999999999,68.86821740014206L118.30677083333333,80.98928853443685L118.54104166666667,93.88117442812232L118.7753125,110.54122679574145L119.00958333333334,90.03174264090396L119.24385416666668,103.93438094002855L119.47812499999999,111.61395304543628L119.71239583333333,96.75270959309164L119.94666666666667,73.43848698479783L120.1809375,86.4929637908935L120.41520833333334,98.62693609510144L120.64947916666667,82.21387481689447L120.88374999999999,64.83991752352027L121.35229166666666,82.66776691164283L121.5865625,106.8730142457144L121.82083333333334,74.02880593708578L122.05510416666667,102.52833427701673L122.28937499999999,86.01188278198237L122.52364583333333,66.74121236801142L122.75791666666666,106.48971687044411L122.9921875,97.15071671349656L123.22645833333334,61.99418469837727L123.46072916666667,67.84257439204619L123.69500000000001,48.94652019228246L123.92927083333333,74.93466097967959L124.16354166666666,40.33221612657812L124.63208333333334,65.37652179173055L124.86635416666667,73.58166585649757L125.10062500000001,95.73182916641231L125.33489583333333,81.76884474073132L125.56916666666666,87.3068829263959L125.8034375,98.46368203844338L126.03770833333333,55.37045880726399L126.27197916666667,77.47998946053636L126.50625000000001,107.86284746442517L126.74052083333332,88.25077833448132L126.97479166666666,109.90382460185454L127.2090625,104.42727797371995L127.44333333333333,115.77566548756187L127.67760416666667,81.1110056468418L127.91187500000001,83.12304558072766L128.14614583333332,79.6273711068289L128.38041666666666,91.4389950207301L128.6146875,91.70569958005628L128.84895833333331,81.80543824604574L129.08322916666665,100.85479933874942L129.3175,91.15806300299502L129.55177083333334,101.55905852999001L129.78604166666668,101.49804925918575L130.02031250000002,88.54967553274966L130.25458333333333,84.71917349951602L130.48885416666667,99.47214358193528L130.723125,111.43424095426282L130.95739583333332,96.2008530071803L131.19166666666666,83.2624264444623L131.4259375,113.12646450315198L131.66020833333334,118.344023159572L131.89447916666666,87.33364983967367L132.12875,113.2895979881286L132.36302083333334,98.30024712426317L132.59729166666668,122.89427784511017L132.8315625,81.32363380704602L133.06583333333333,68.38014323370791L133.30010416666667,76.33311162676124L133.53437499999998,97.11671549933291L133.76864583333332,100.00482927049904L134.00291666666666,115.55580302647178L134.2371875,110.84319857188628L134.47145833333335,81.5050339017595L134.70572916666669,108.08005734852378L134.94,92.11763272966651L135.17427083333334,73.92957544326777L135.40854166666668,97.0048249789646L135.6428125,81.16001803534365L135.87708333333333,101.62808581760947L136.11135416666667,90.78923422949649L136.34562499999998,93.95315572193685L136.57989583333332,114.07277134486603L136.81416666666667,103.29746103286739L137.0484375,95.00393792561117L137.28270833333335,107.77332299096238L137.5169791666667,106.11986323765342L137.75125,80.0091010502406L137.98552083333334,101.59094973972861L138.21979166666665,51.71731771741588L138.4540625,79.88919251305711L138.68833333333333,44.99297475814811L138.92260416666667,51.534531048365935L139.39114583333333,83.73392200469965L139.62541666666667,82.5838490213666L139.8596875,90.84487806047706L140.09395833333335,122.14805970873147L140.32822916666666,120.95632920946389L140.5625,82.67735236031663L141.03104166666668,82.95195436477655L141.2653125,102.37333938053672L141.49958333333333,105.17084353310716L141.73385416666667,99.96425689969739L141.96812500000001,86.37751640592298L142.20239583333333,97.70980760029379L142.43666666666667,123.5318608965192L142.67093749999998,95.55621651240752L142.90520833333332,101.24147272109981L143.13947916666666,119.03821461541307L143.37375,88.76537827083037L143.60802083333334,122.16825546537123L143.84229166666668,98.0120205198015L144.0765625,117.42930609839298L144.31083333333333,77.58506768090379L144.54510416666668,112.76963261195587L144.77937500000002,77.22534206935332L145.01364583333336,89.65947757448463L145.24791666666667,99.84754351207182L145.48218749999998,90.16208062853126L145.71645833333332,110.4652666364397L145.95072916666666,92.2802236420767L146.185,91.71202959333142L146.41927083333334,98.02347482953748L147.12208333333334,75.2691268239702L147.35635416666668,108.95070546013964L147.59062500000002,101.6482212884085L147.82489583333336,113.63383013861515L148.05916666666664,128.66972167151312L148.29343749999998,107.98504686355587L148.52770833333332,118.58100679942535L148.76197916666666,115.68903473445343L148.99625,99.89173303331643L149.23052083333334,88.60700736727027L149.46479166666666,90.14158344268793L149.6990625,114.07946307318547L149.93333333333334,106.12914725712363L150.16760416666668,98.18486002513335L150.40187500000002,92.86113800321301L150.63614583333336,94.56849329812181L150.87041666666664,95.19956547873355L151.10468749999998,95.45270572389869L151.33895833333332,97.47824968610486L151.57322916666666,112.02727276938298L151.8075,108.28303977421348L152.04177083333335,96.04374810627523L152.27604166666666,100.47107996259412L152.5103125,121.77404635293138L152.74458333333334,102.27585717609946L152.97885416666668,118.47520514896934L153.21312500000002,111.74959618704655L153.44739583333333,122.2504853521074L153.68166666666664,96.48823560987195L153.91593749999998,114.6840094838823L154.15020833333332,111.57151181357243L154.38447916666667,103.17134305409019L154.61875,88.89396796907691L154.85302083333332,98.46977090835567L155.08729166666666,117.25200544084817L155.3215625,100.3003504616873L155.55583333333334,97.75737312861845L155.79010416666668,103.8980888639177L156.02437500000002,69.06716067450381L156.25864583333333,106.11317150933397L156.49291666666667,99.8881761687142L156.72718749999999,115.42751475742881L156.96145833333333,99.06979588099883L157.19572916666667,93.169439792633L157.43,95.74388633455543L157.66427083333332,90.22025646482189L157.89854166666666,98.45879888534542L158.1328125,119.27326910836351L158.36708333333334,93.2363570758274L158.60135416666668,104.74124663216722L158.835625,127.4940272058759L159.06989583333333,129.58449901853285L159.30416666666667,120.71862213952195L159.53843750000001,117.40718119485032L159.77270833333333,106.55609158107207L160.00697916666667,80.7722595078604L160.24124999999998,92.93637473242617L160.47552083333332,121.28211389269143L160.70979166666666,95.20185634068075L160.9440625,84.54175227028978L161.17833333333334,114.75424248831608L161.41260416666668,93.58462837764189L161.646875,91.86551734379354L161.88114583333333,85.02054241725371L162.11541666666668,111.93364885875151L162.34968750000002,85.26289149693075L162.58395833333336,124.10783181871683L162.81822916666667,91.53099121366223L163.05249999999998,118.8698965481349L163.28677083333332,115.49816976274758L163.52104166666666,138.307197025844L163.7553125,101.0696580750601L163.98958333333334,104.65678616932456L164.22385416666665,97.34833369936256L164.458125,86.47282832009446L164.69239583333334,98.98648084912976L164.92666666666668,87.15134545734945L165.16093750000002,106.89960030147002L165.39520833333336,91.72710105351034L165.86374999999998,119.43368973050795L166.09802083333332,82.77061455590379L166.33229166666666,108.843336377825L166.5665625,110.4611069134303L166.80083333333334,123.08453995840885L167.03510416666666,128.42851802280967L167.269375,98.76257923671172L167.50364583333334,111.1081548418317L167.73791666666668,92.8568577085222L167.97218750000002,110.53845364706852L168.20645833333336,100.40476553780687L168.44072916666664,79.01016466958177L168.67499999999998,122.78280932562687L168.90927083333332,97.27104725156507L169.14354166666666,104.98648943219861L169.3778125,103.40537268774844L169.61208333333335,112.13831928798125L169.84635416666666,95.65472357613694L170.080625,94.51236718041551L170.31489583333334,126.4506601606096L170.54916666666668,113.87810836519509L170.78343750000002,114.7635265077863L171.01770833333333,131.39367709841042L171.25197916666664,98.94530561992094L171.48624999999998,105.30214609418591L171.72052083333332,102.12309285572593L171.95479166666667,80.21811206000186L172.1890625,106.70336988994048L172.42333333333332,130.08571549824302L172.65760416666666,115.44493736539563L172.891875,97.90061228615892L173.12614583333334,118.70073447908669L173.36041666666668,104.57172284807473L173.59468750000002,96.25535140718726L173.82895833333333,109.47042969294951L174.06322916666667,102.15432092121665L174.29749999999999,101.57473284857608L174.53177083333333,83.98079252243036L174.76604166666667,87.61777700696668L175.0003125,97.84961046491345L175.23458333333332,117.85902357101435L175.46885416666666,93.96979461397437L175.703125,105.40149715968535L175.93739583333334,103.42207186562669L176.17166666666668,117.49188280105585L176.4059375,105.45653813225877L176.64020833333333,101.38157701492305L176.87447916666667,83.92189325605115L177.10875000000001,92.48730550493507L177.34302083333333,93.45175838470453L177.57729166666667,109.00990615572243L177.81156249999998,99.34500074386592L178.04583333333332,106.72067192622588L178.28010416666666,139.3456809180123L178.514375,98.5694836888994L178.74864583333334,105.22558307647701L178.98291666666668,125.09700189317972L179.2171875,103.39259208951673L179.45145833333333,103.35533543995444L179.68572916666668,94.95239353179927L179.92000000000002,133.9551018987383L180.15427083333336,108.39969287599831L180.38854166666667,106.21969658987858L180.62281249999998,131.39403881345473L180.85708333333332,113.56094455718988L181.09135416666666,94.1836284909929L181.325625,121.2734930174691L181.55989583333334,97.6906367029462L181.79416666666665,118.9445304189409L182.0284375,116.97137485231667L182.26270833333334,126.57394470487318L182.49697916666668,123.73454189300533L182.73125000000002,89.87638602937965L182.96552083333336,98.90081466947278L183.19979166666664,94.7879940441676L183.43406249999998,114.03328411919725L183.66833333333332,118.65099866049626L183.90260416666666,110.88853352410449L184.136875,115.84390905925201L184.37114583333334,101.28915882110591L184.60541666666666,89.93854073115752L184.8396875,132.23430286134987L185.07395833333334,119.83151599339072L185.30822916666668,96.53477627890445L185.54250000000002,107.06894322804038L185.77677083333336,98.39700589861184L186.01104166666664,106.25182894298003L186.24531249999998,122.64993933268951L186.47958333333332,115.5293978282383L186.71385416666666,120.20257534299574L186.948125,119.70485544204706L187.18239583333335,116.06256580352778L187.41666666666666,129.07695252554754L187.6509375,120.14699179785588L187.88520833333334,95.22464438847128L188.11947916666668,94.11761549540923L188.35375000000002,115.41883359636574L188.58802083333333,94.90814372471395L188.82229166666664,108.03586782727918L189.05656249999998,110.86429861613676L189.29083333333332,126.89376108986986L189.52510416666667,108.38444055829724L189.759375,113.44513545717507L189.99364583333332,126.26956149509971L190.22791666666666,101.33533777509412L190.4621875,94.95968811852586L190.69645833333334,99.91415936606265L190.93072916666668,115.89304201943528L191.16500000000002,118.59372711181635L191.39927083333333,120.9517474855695L191.63354166666667,97.65108919143672L191.86781249999999,77.94280385971064L192.10208333333333,110.47382722582131L192.33635416666667,116.62840870448517L192.570625,119.89939785003658L192.80489583333332,117.10249655587327L193.03916666666666,108.52924714769631L193.2734375,112.92553179604663L193.50770833333334,111.64855711800708L193.74197916666668,114.4909742219107L193.97625,119.11067819595331L194.21052083333333,110.793643610818L194.44479166666667,85.7632639748709L194.67906250000001,112.7063324792044L194.91333333333333,112.31483622959678L195.14760416666667,123.92739629745479L195.38187499999998,105.13720403398781L195.61614583333332,107.79002216884062L195.85041666666666,117.51780571256361L196.0846875,114.19430759974884L196.31895833333334,105.80884858540122L196.55322916666668,102.46009070532656L196.7875,114.76515422548562L197.02177083333333,112.9458481243678L197.25604166666668,140.18160438537595L197.49031250000002,130.02796166283738L197.72458333333336,86.48554863248548L197.95885416666667,133.61478832789825L198.19312499999998,119.33096265792841L198.42739583333332,109.36999348231718L198.66166666666666,127.39347042356215L198.8959375,145.32772432054787L199.13020833333334,99.84621722357608L199.36447916666665,115.38585724149426L199.59875,83.43870224271497L199.83302083333334,109.09629576546801L200.06729166666668,107.83246340070447L200.30156250000002,113.27681738989689L200.53583333333336,100.18357678822103L200.77010416666664,109.25798239026746L201.00437499999998,110.84814201082497L201.23864583333332,119.36381844111847L201.47291666666666,90.66329710824144L201.7071875,120.2796809332711L201.94145833333334,119.25693164552956L202.17572916666666,124.34602117538448L202.41,108.0309243883405L202.64427083333334,105.09253222601748L202.87854166666668,100.33513539178026L203.11281250000002,86.61588662011278L203.34708333333336,118.1478530338832L203.58135416666664,106.82424300057542L203.81562499999998,90.51505422592157L204.04989583333332,133.79594727924888L204.28416666666666,115.0487991060529L204.5184375,104.04422174181252L204.75270833333335,119.37479046412872L204.98697916666666,122.66549307959416L205.22125,127.01397105625693L205.68979166666668,136.28267792293L205.92406250000002,116.96190997532432L206.15833333333333,103.70089387893672L206.39260416666664,120.69227722712921L206.62687499999998,113.78695617403298L206.86114583333332,116.31160661152427L207.09541666666667,106.12571096420284L207.3296875,108.00554404939919L207.56395833333332,128.65880993434357L207.79822916666666,104.30429485865996L208.0325,100.29896388735085L208.26677083333334,117.26719747270852L208.50104166666668,124.9973493984767L208.73531250000002,102.5962764195033L208.96958333333333,120.23018625804352L209.20385416666667,126.43082611901414L209.43812499999999,110.09716129302974L209.67239583333333,97.11472606658931L209.90666666666667,113.24462475095471L210.1409375,107.16021599088391L210.37520833333332,120.72043071474343L210.60947916666666,120.02720383235382L210.84375,129.79779032298492L211.07802083333334,125.72252777644562L211.31229166666668,105.82633147920876L211.5465625,96.39063283375326L211.78083333333333,112.00177185876025L212.01510416666667,119.34844555173598L212.24937500000001,107.8591097423008L212.48364583333333,119.02012886319838L212.71791666666667,97.88795225960862L212.95218749999998,105.27965947559898L213.42072916666666,130.71907854080195L213.655,115.96665103094914L213.88927083333334,138.35283340726576L214.12354166666668,107.23075042452126L214.3578125,136.12937102999L214.59208333333333,110.22303812844409L214.82635416666668,138.68036637987404L215.06062500000002,137.01484945842193L215.29489583333336,120.00110006332393L215.52916666666667,104.3990039144243L215.76343749999998,134.8721098218645L215.99770833333332,96.27289458683553L216.23197916666666,126.89207308632982L216.46625,91.77756030218936L216.70052083333334,105.86798899514329L216.93479166666665,90.92294822420386L217.1690625,120.06819820404048L217.40333333333334,118.21525260380332L217.63760416666668,138.2030230930873L217.87187500000002,134.35286787578033L218.10614583333336,142.83912481580458L218.34041666666664,142.7922224317278L218.57468749999998,113.76344469615387L218.80895833333332,116.87847437177382L219.04322916666666,130.4977692195347L219.2775,121.56431191308153L219.51177083333334,107.18300403867444L219.74604166666666,107.31967203957689L219.9803125,138.54375866481232L220.21458333333334,117.86897073473244L220.44885416666668,122.63746016366136L220.68312500000002,118.87676913397648L220.91739583333336,107.19620663779118L221.15166666666664,133.27043560573028L221.38593749999998,102.22726678848262L221.62020833333332,107.80123533521375L221.85447916666666,148.33007975987022L222.08875,115.29386104856214L222.32302083333335,118.2270686285836L222.55729166666666,137.18425267083302L222.7915625,117.23042310987196L223.02583333333334,107.24461616788587L223.26010416666668,134.23133162089752L223.49437500000002,96.76223475592471L223.72864583333333,130.8603282655988L223.96291666666664,152.97866065161566L224.19718749999998,129.08249882289337L224.66572916666667,86.78450611659453L224.9,129.6827649388994L225.13427083333332,111.7720828056335L225.36854166666666,124.43409878867008L225.6028125,122.3550209999084L226.07135416666668,138.23979745592385L226.30562500000002,144.0690765380859L226.53989583333333,111.77220337731494L226.77416666666667,141.85749047143116L227.00843749999999,122.03622947420388L227.24270833333333,123.54554578236167L227.47697916666667,118.49208518436973L227.71125,115.37512636184687L227.94552083333332,120.99256099973402L228.17979166666666,127.21363776070726L228.4140625,121.36645378385268L228.64833333333334,102.12930229731963L228.88260416666668,141.49921172005787L229.116875,153.30860505785256L229.35114583333333,111.96065691539214L229.58541666666667,149.6989903450012L229.81968750000001,127.98951653071808L230.05395833333333,112.49991376059391L230.28822916666667,132.8257069587707L230.52249999999998,137.03607007435386L230.75677083333332,125.24512420381815L230.99104166666666,116.01005683626443L231.2253125,140.36619962964735L231.45958333333334,140.13313456944053L231.69385416666668,125.03189318520677L231.928125,142.48874350956504L232.16239583333333,122.09880617686676L232.39666666666668,125.57772118704655L232.63093750000002,123.03637157167702L232.86520833333336,114.0722890581403L233.09947916666667,129.34377765655512L233.33374999999998,143.95881373541692L233.56802083333332,123.43504183632982L233.80229166666666,126.89707681110923L234.0365625,115.7623423167637L234.27083333333334,122.9147750309535L234.50510416666665,85.48016166687006L234.739375,156.0713242803301L234.97364583333334,127.69954163687565L235.20791666666668,134.97345032010756L235.44218750000002,121.76446090425759L235.67645833333336,112.71627964292249L235.91072916666664,119.8883655411856L236.14499999999998,129.43173469815932L236.37927083333332,97.8939808436802L236.61354166666666,131.52528108869276L236.8478125,133.3411508968898L237.08208333333334,120.78367056165419L237.31635416666666,113.84501143864219L237.78489583333334,136.40192331586562L238.01916666666668,128.07638842718939L238.25343750000002,132.40563522066384L238.48770833333336,106.19642625536233L238.72197916666664,121.09492635726924L238.95624999999998,135.56509556089125L239.19052083333332,141.8204749652317L239.42479166666666,114.61757448741363L239.6590625,110.19838121959135L239.89333333333335,133.24722555705475L240.12760416666666,125.93593965257914L240.361875,125.62480442864549L240.59614583333334,137.80573940277094L240.83041666666668,123.33213390622817L241.29895833333333,117.39114516121995L241.53322916666664,134.31898723329812L241.76749999999998,125.07294784273417L242.00177083333332,149.89371361051283L242.23604166666667,106.21553686686919L242.4703125,103.58538620812547L242.70458333333332,121.63514777592246L242.93885416666666,134.80856854575018L243.173125,136.32433543886452L243.40739583333334,107.43825428826463L243.64166666666668,133.8817340305873L243.87593750000002,114.74037674495148L244.11020833333333,108.7886571202959L244.34447916666667,157.83480569294517L244.57874999999999,134.01116773060386L244.81302083333333,130.86141341073167L245.2815625,127.53538329260685L245.51583333333332,143.37922566277638L245.75010416666666,128.5767006192888L246.21864583333334,135.27108151572088L246.45291666666668,124.20163658687042L246.6871875,109.51944208145137L246.92145833333333,130.09288951328818L247.15572916666667,133.4565982818603L247.39000000000001,112.7343653951372L247.62427083333333,138.96901498522072L247.85854166666667,110.06888723373409L248.09281249999998,141.69869756698606L248.32708333333332,136.3864901406424L248.56135416666666,140.95784487043105L248.795625,116.10175159999298L249.02989583333334,141.3667034421648L249.26416666666668,135.11608661924086L249.4984375,137.20927129473L249.73270833333333,136.64415182386122L249.96697916666668,121.63581092017033L250.20125000000002,108.91839224951603L250.43552083333336,140.31971924645558L250.66979166666667,86.03708226340152L250.90406249999998,124.73661313738138L251.13833333333332,123.49038423810683L251.37260416666666,135.92500202996388L251.606875,124.4284319196428L251.84114583333334,140.31477580751687L252.07541666666665,118.71261078970768L252.3096875,123.26642233984806L252.54395833333334,133.73463657924103L252.77822916666668,146.19981929234092L253.01250000000002,113.59114776338845L253.24677083333336,134.92660822187148L253.48104166666664,130.60875545229226L253.71531249999998,126.83588668278281L253.94958333333332,137.66762454169134L254.18385416666666,136.85262026105605L254.418125,139.19044487816944L254.65239583333334,140.0053285871233L254.88666666666666,137.23959507261L255.1209375,113.70406314304893L255.35520833333334,100.65567520686552L255.58947916666668,121.56732620511733L255.82375000000002,100.39162322453085L256.05802083333333,120.60715362003867L256.29229166666664,117.6181213515145L256.7608333333333,133.81662532261436L256.9951041666667,129.68993895394456L257.229375,160.22947985785345L257.4636458333334,139.4221233640398L257.69791666666663,124.40823616300307L257.9321875,131.70149660110468L258.1664583333333,128.01978002275735L258.4007291666667,125.5256342206682L258.635,117.33339132581435L258.8692708333333,122.8320628574916L259.3378125,138.74601766041343L259.57208333333335,153.85829135349815L259.80635416666667,119.61750125885004L260.04062500000003,140.68282086508611L260.27489583333335,154.0856895446777L260.50916666666666,123.56887640271864L260.74343749999997,127.24179124832149L260.97770833333334,149.203501020159L261.21197916666665,148.23790270941595L261.44625,105.49072020394456L261.68052083333333,159.98194619587485L261.91479166666664,100.89537170955107L262.1490625,138.28814670017783L262.3833333333333,117.5562680789402L262.6176041666667,121.60162884848454L262.851875,120.68884093420841L263.0861458333333,108.00029918125693" style="fill: none;" fill="none"></path></g></g></g></g></g><g><g><span fill="rgb(0, 0, 0)" stroke="none" stroke-width="1px">Alt + Scroll to Zoom</span></g></g></g><g transform="translate(48, 177)" clip-path="url(#clip_1)"><clipPath id="clip_1"><rect width="281" height="23"></rect></clipPath><g><g><line x1="0" y1="0" x2="0" y2="5" style="visibility: inherit;" fill="rgb(0, 0, 0)" stroke="rgb(204, 204, 204)" stroke-width="1px"></line><line x1="23.427083333333332" y1="0" x2="23.427083333333332" y2="5" style="visibility: inherit;" fill="rgb(0, 0, 0)" stroke="rgb(204, 204, 204)" stroke-width="1px"></line><line x1="46.854166666666664" y1="0" x2="46.854166666666664" y2="5" style="visibility: inherit;" fill="rgb(0, 0, 0)" stroke="rgb(204, 204, 204)" stroke-width="1px"></line><line x1="70.28125" y1="0" x2="70.28125" y2="5" style="visibility: inherit;" fill="rgb(0, 0, 0)" stroke="rgb(204, 204, 204)" stroke-width="1px"></line><line x1="93.70833333333333" y1="0" x2="93.70833333333333" y2="5" style="visibility: inherit;" fill="rgb(0, 0, 0)" stroke="rgb(204, 204, 204)" stroke-width="1px"></line><line x1="117.13541666666667" y1="0" x2="117.13541666666667" y2="5" style="visibility: inherit;" fill="rgb(0, 0, 0)" stroke="rgb(204, 204, 204)" stroke-width="1px"></line><line x1="140.5625" y1="0" x2="140.5625" y2="5" style="visibility: inherit;" fill="rgb(0, 0, 0)" stroke="rgb(204, 204, 204)" stroke-width="1px"></line><line x1="163.98958333333334" y1="0" x2="163.98958333333334" y2="5" style="visibility: inherit;" fill="rgb(0, 0, 0)" stroke="rgb(204, 204, 204)" stroke-width="1px"></line><line x1="187.41666666666666" y1="0" x2="187.41666666666666" y2="5" style="visibility: inherit;" fill="rgb(0, 0, 0)" stroke="rgb(204, 204, 204)" stroke-width="1px"></line><line x1="210.84375" y1="0" x2="210.84375" y2="5" style="visibility: inherit;" fill="rgb(0, 0, 0)" stroke="rgb(204, 204, 204)" stroke-width="1px"></line><line x1="234.27083333333334" y1="0" x2="234.27083333333334" y2="5" style="visibility: inherit;" fill="rgb(0, 0, 0)" stroke="rgb(204, 204, 204)" stroke-width="1px"></line><line x1="257.69791666666663" y1="0" x2="257.69791666666663" y2="5" style="visibility: inherit;" fill="rgb(0, 0, 0)" stroke="rgb(204, 204, 204)" stroke-width="1px"></line><line x1="281.125" y1="0" x2="281.125" y2="5" style="visibility: inherit;" fill="rgb(0, 0, 0)" stroke="rgb(204, 204, 204)" stroke-width="1px"></line></g><g transform="translate(0, 8)"><text x="0" y="0" dx="0em" dy="0.95em" style="text-anchor: middle; visibility: hidden; font-family: &quot;Helvetica Neue&quot;, sans-serif; font-size: 12px; font-weight: 200;" fill="rgb(50, 49, 63)" stroke="none" stroke-width="1px">-100</text><text x="23.427083333333332" y="0" dx="0em" dy="0.95em" style="text-anchor: middle; visibility: inherit; font-family: &quot;Helvetica Neue&quot;, sans-serif; font-size: 12px; font-weight: 200;" fill="rgb(50, 49, 63)" stroke="none" stroke-width="1px">0</text><text x="46.854166666666664" y="0" dx="0em" dy="0.95em" style="text-anchor: middle; visibility: hidden; font-family: &quot;Helvetica Neue&quot;, sans-serif; font-size: 12px; font-weight: 200;" fill="rgb(50, 49, 63)" stroke="none" stroke-width="1px">100</text><text x="70.28125" y="0" dx="0em" dy="0.95em" style="text-anchor: middle; visibility: inherit; font-family: &quot;Helvetica Neue&quot;, sans-serif; font-size: 12px; font-weight: 200;" fill="rgb(50, 49, 63)" stroke="none" stroke-width="1px">200</text><text x="93.70833333333333" y="0" dx="0em" dy="0.95em" style="text-anchor: middle; visibility: hidden; font-family: &quot;Helvetica Neue&quot;, sans-serif; font-size: 12px; font-weight: 200;" fill="rgb(50, 49, 63)" stroke="none" stroke-width="1px">300</text><text x="117.13541666666667" y="0" dx="0em" dy="0.95em" style="text-anchor: middle; visibility: inherit; font-family: &quot;Helvetica Neue&quot;, sans-serif; font-size: 12px; font-weight: 200;" fill="rgb(50, 49, 63)" stroke="none" stroke-width="1px">400</text><text x="140.5625" y="0" dx="0em" dy="0.95em" style="text-anchor: middle; visibility: hidden; font-family: &quot;Helvetica Neue&quot;, sans-serif; font-size: 12px; font-weight: 200;" fill="rgb(50, 49, 63)" stroke="none" stroke-width="1px">500</text><text x="163.98958333333334" y="0" dx="0em" dy="0.95em" style="text-anchor: middle; visibility: inherit; font-family: &quot;Helvetica Neue&quot;, sans-serif; font-size: 12px; font-weight: 200;" fill="rgb(50, 49, 63)" stroke="none" stroke-width="1px">600</text><text x="187.41666666666666" y="0" dx="0em" dy="0.95em" style="text-anchor: middle; visibility: hidden; font-family: &quot;Helvetica Neue&quot;, sans-serif; font-size: 12px; font-weight: 200;" fill="rgb(50, 49, 63)" stroke="none" stroke-width="1px">700</text><text x="210.84375" y="0" dx="0em" dy="0.95em" style="text-anchor: middle; visibility: inherit; font-family: &quot;Helvetica Neue&quot;, sans-serif; font-size: 12px; font-weight: 200;" fill="rgb(50, 49, 63)" stroke="none" stroke-width="1px">800</text><text x="234.27083333333334" y="0" dx="0em" dy="0.95em" style="text-anchor: middle; visibility: hidden; font-family: &quot;Helvetica Neue&quot;, sans-serif; font-size: 12px; font-weight: 200;" fill="rgb(50, 49, 63)" stroke="none" stroke-width="1px">900</text><text x="257.69791666666663" y="0" dx="0em" dy="0.95em" style="text-anchor: middle; visibility: inherit; font-family: &quot;Helvetica Neue&quot;, sans-serif; font-size: 12px; font-weight: 200;" fill="rgb(50, 49, 63)" stroke="none" stroke-width="1px">1k</text><text x="281.125" y="0" dx="0em" dy="0.95em" style="text-anchor: middle; visibility: hidden; font-family: &quot;Helvetica Neue&quot;, sans-serif; font-size: 12px; font-weight: 200;" fill="rgb(50, 49, 63)" stroke="none" stroke-width="1px">1.1k</text></g><line x1="0" y1="0" x2="281.125" y2="0" fill="rgb(0, 0, 0)" stroke="rgb(204, 204, 204)" stroke-width="1px"></line></g></g></g></g></svg>