<svg viewBox="0 0 330 200" xmlns="http://www.w3.org/2000/svg"><g><g><g><g><g><line x1="68.3125" y1="177" x2="63.3125" y2="177" style="visibility: inherit;" fill="rgb(0, 0, 0)" stroke="rgb(204, 204, 204)" stroke-width="1px"></line><line x1="68.3125" y1="163.38461538461536" x2="63.3125" y2="163.38461538461536" style="visibility: inherit;" fill="rgb(0, 0, 0)" stroke="rgb(204, 204, 204)" stroke-width="1px"></line><line x1="68.3125" y1="149.7692307692307" x2="63.3125" y2="149.7692307692307" style="visibility: inherit;" fill="rgb(0, 0, 0)" stroke="rgb(204, 204, 204)" stroke-width="1px"></line><line x1="68.3125" y1="136.15384615384616" x2="63.3125" y2="136.15384615384616" style="visibility: inherit;" fill="rgb(0, 0, 0)" stroke="rgb(204, 204, 204)" stroke-width="1px"></line><line x1="68.3125" y1="122.53846153846152" x2="63.3125" y2="122.53846153846152" style="visibility: inherit;" fill="rgb(0, 0, 0)" stroke="rgb(204, 204, 204)" stroke-width="1px"></line><line x1="68.3125" y1="108.92307692307686" x2="63.3125" y2="108.92307692307686" style="visibility: inherit;" fill="rgb(0, 0, 0)" stroke="rgb(204, 204, 204)" stroke-width="1px"></line><line x1="68.3125" y1="95.30769230769232" x2="63.3125" y2="95.30769230769232" style="visibility: inherit;" fill="rgb(0, 0, 0)" stroke="rgb(204, 204, 204)" stroke-width="1px"></line><line x1="68.3125" y1="81.69230769230768" x2="63.3125" y2="81.69230769230768" style="visibility: inherit;" fill="rgb(0, 0, 0)" stroke="rgb(204, 204, 204)" stroke-width="1px"></line><line x1="68.3125" y1="68.07692307692304" x2="63.3125" y2="68.07692307692304" style="visibility: inherit;" fill="rgb(0, 0, 0)" stroke="rgb(204, 204, 204)" stroke-width="1px"></line><line x1="68.3125" y1="54.46153846153848" x2="63.3125" y2="54.46153846153848" style="visibility: inherit;" fill="rgb(0, 0, 0)" stroke="rgb(204, 204, 204)" stroke-width="1px"></line><line x1="68.3125" y1="40.84615384615384" x2="63.3125" y2="40.84615384615384" style="visibility: inherit;" fill="rgb(0, 0, 0)" stroke="rgb(204, 204, 204)" stroke-width="1px"></line><line x1="68.3125" y1="27.230769230769198" x2="63.3125" y2="27.230769230769198" style="visibility: inherit;" fill="rgb(0, 0, 0)" stroke="rgb(204, 204, 204)" stroke-width="1px"></line><line x1="68.3125" y1="13.615384615384528" x2="63.3125" y2="13.615384615384528" style="visibility: inherit;" fill="rgb(0, 0, 0)" stroke="rgb(204, 204, 204)" stroke-width="1px"></line><line x1="68.3125" y1="0" x2="63.3125" y2="0" style="visibility: inherit;" fill="rgb(0, 0, 0)" stroke="rgb(204, 204, 204)" stroke-width="1px"></line></g><g transform="translate(58.3125, 0)"><text x="0" y="177" dx="0em" dy="0.3em" style="text-anchor: end; visibility: hidden; font-family: &quot;Helvetica Neue&quot;, sans-serif; font-size: 12px; font-weight: 200;" fill="rgb(50, 49, 63)" stroke="none" stroke-width="1px">7.8e-3</text><text x="0" y="163.38461538461536" dx="0em" dy="0.3em" style="text-anchor: end; visibility: inherit; font-family: &quot;Helvetica Neue&quot;, sans-serif; font-size: 12px; font-weight: 200;" fill="rgb(50, 49, 63)" stroke="none" stroke-width="1px">8e-3</text><text x="0" y="149.7692307692307" dx="0em" dy="0.3em" style="text-anchor: end; visibility: hidden; font-family: &quot;Helvetica Neue&quot;, sans-serif; font-size: 12px; font-weight: 200;" fill="rgb(50, 49, 63)" stroke="none" stroke-width="1px">8.2e-3</text><text x="0" y="136.15384615384616" dx="0em" dy="0.3em" style="text-anchor: end; visibility: inherit; font-family: &quot;Helvetica Neue&quot;, sans-serif; font-size: 12px; font-weight: 200;" fill="rgb(50, 49, 63)" stroke="none" stroke-width="1px">8.4e-3</text><text x="0" y="122.53846153846152" dx="0em" dy="0.3em" style="text-anchor: end; visibility: hidden; font-family: &quot;Helvetica Neue&quot;, sans-serif; font-size: 12px; font-weight: 200;" fill="rgb(50, 49, 63)" stroke="none" stroke-width="1px">8.6e-3</text><text x="0" y="108.92307692307686" dx="0em" dy="0.3em" style="text-anchor: end; visibility: inherit; font-family: &quot;Helvetica Neue&quot;, sans-serif; font-size: 12px; font-weight: 200;" fill="rgb(50, 49, 63)" stroke="none" stroke-width="1px">8.8e-3</text><text x="0" y="95.30769230769232" dx="0em" dy="0.3em" style="text-anchor: end; visibility: hidden; font-family: &quot;Helvetica Neue&quot;, sans-serif; font-size: 12px; font-weight: 200;" fill="rgb(50, 49, 63)" stroke="none" stroke-width="1px">9e-3</text><text x="0" y="81.69230769230768" dx="0em" dy="0.3em" style="text-anchor: end; visibility: inherit; font-family: &quot;Helvetica Neue&quot;, sans-serif; font-size: 12px; font-weight: 200;" fill="rgb(50, 49, 63)" stroke="none" stroke-width="1px">9.2e-3</text><text x="0" y="68.07692307692304" dx="0em" dy="0.3em" style="text-anchor: end; visibility: hidden; font-family: &quot;Helvetica Neue&quot;, sans-serif; font-size: 12px; font-weight: 200;" fill="rgb(50, 49, 63)" stroke="none" stroke-width="1px">9.4e-3</text><text x="0" y="54.46153846153848" dx="0em" dy="0.3em" style="text-anchor: end; visibility: inherit; font-family: &quot;Helvetica Neue&quot;, sans-serif; font-size: 12px; font-weight: 200;" fill="rgb(50, 49, 63)" stroke="none" stroke-width="1px">9.6e-3</text><text x="0" y="40.84615384615384" dx="0em" dy="0.3em" style="text-anchor: end; visibility: hidden; font-family: &quot;Helvetica Neue&quot;, sans-serif; font-size: 12px; font-weight: 200;" fill="rgb(50, 49, 63)" stroke="none" stroke-width="1px">9.8e-3</text><text x="0" y="27.230769230769198" dx="0em" dy="0.3em" style="text-anchor: end; visibility: inherit; font-family: &quot;Helvetica Neue&quot;, sans-serif; font-size: 12px; font-weight: 200;" fill="rgb(50, 49, 63)" stroke="none" stroke-width="1px">0.01</text><text x="0" y="13.615384615384528" dx="0em" dy="0.3em" style="text-anchor: end; visibility: hidden; font-family: &quot;Helvetica Neue&quot;, sans-serif; font-size: 12px; font-weight: 200;" fill="rgb(50, 49, 63)" stroke="none" stroke-width="1px">0.0102</text><text x="0" y="0" dx="0em" dy="0.3em" style="text-anchor: end; visibility: hidden; font-family: &quot;Helvetica Neue&quot;, sans-serif; font-size: 12px; font-weight: 200;" fill="rgb(50, 49, 63)" stroke="none" stroke-width="1px">0.0104</text></g><line x1="68.3125" y1="0" x2="68.3125" y2="177" fill="rgb(0, 0, 0)" stroke="rgb(204, 204, 204)" stroke-width="1px"></line></g></g><g transform="translate(68, 0)" clip-path="url(#clip_0)"><clipPath id="clip_0"><rect width="261" height="177"></rect></clipPath><g><g><g><line x1="0" y1="0" x2="0" y2="177" fill="rgb(0, 0, 0)" stroke="rgb(60, 60, 60)" stroke-width="1px" opacity="0.25"></line><line x1="21.807291666666664" y1="0" x2="21.807291666666664" y2="177" fill="rgb(0, 0, 0)" stroke="rgb(60, 60, 60)" stroke-width="1px" opacity="0.25"></line><line x1="43.61458333333333" y1="0" x2="43.61458333333333" y2="177" fill="rgb(0, 0, 0)" stroke="rgb(60, 60, 60)" stroke-width="1px" opacity="0.25"></line><line x1="65.421875" y1="0" x2="65.421875" y2="177" fill="rgb(0, 0, 0)" stroke="rgb(60, 60, 60)" stroke-width="1px" opacity="0.25"></line><line x1="87.22916666666666" y1="0" x2="87.22916666666666" y2="177" fill="rgb(0, 0, 0)" stroke="rgb(60, 60, 60)" stroke-width="1px" opacity="0.25"></line><line x1="109.03645833333334" y1="0" x2="109.03645833333334" y2="177" fill="rgb(0, 0, 0)" stroke="rgb(60, 60, 60)" stroke-width="1px" opacity="0.25"></line><line x1="130.84375" y1="0" x2="130.84375" y2="177" fill="rgb(0, 0, 0)" stroke="rgb(60, 60, 60)" stroke-width="1px" opacity="0.25"></line><line x1="152.65104166666669" y1="0" x2="152.65104166666669" y2="177" fill="rgb(0, 0, 0)" stroke="rgb(60, 60, 60)" stroke-width="1px" opacity="0.25"></line><line x1="174.45833333333331" y1="0" x2="174.45833333333331" y2="177" fill="rgb(0, 0, 0)" stroke="rgb(60, 60, 60)" stroke-width="1px" opacity="0.25"></line><line x1="196.265625" y1="0" x2="196.265625" y2="177" fill="rgb(0, 0, 0)" stroke="rgb(60, 60, 60)" stroke-width="1px" opacity="0.25"></line><line x1="218.07291666666669" y1="0" x2="218.07291666666669" y2="177" fill="rgb(0, 0, 0)" stroke="rgb(60, 60, 60)" stroke-width="1px" opacity="0.25"></line><line x1="239.88020833333331" y1="0" x2="239.88020833333331" y2="177" fill="rgb(0, 0, 0)" stroke="rgb(60, 60, 60)" stroke-width="1px" opacity="0.25"></line><line x1="261.6875" y1="0" x2="261.6875" y2="177" fill="rgb(0, 0, 0)" stroke="rgb(60, 60, 60)" stroke-width="1px" opacity="0.25"></line></g><g><line x1="0" y1="177" x2="261.6875" y2="177" fill="rgb(0, 0, 0)" stroke="rgb(60, 60, 60)" stroke-width="1px" opacity="0.25"></line><line x1="0" y1="163.38461538461536" x2="261.6875" y2="163.38461538461536" fill="rgb(0, 0, 0)" stroke="rgb(60, 60, 60)" stroke-width="1px" opacity="0.25"></line><line x1="0" y1="149.7692307692307" x2="261.6875" y2="149.7692307692307" fill="rgb(0, 0, 0)" stroke="rgb(60, 60, 60)" stroke-width="1px" opacity="0.25"></line><line x1="0" y1="136.15384615384616" x2="261.6875" y2="136.15384615384616" fill="rgb(0, 0, 0)" stroke="rgb(60, 60, 60)" stroke-width="1px" opacity="0.25"></line><line x1="0" y1="122.53846153846152" x2="261.6875" y2="122.53846153846152" fill="rgb(0, 0, 0)" stroke="rgb(60, 60, 60)" stroke-width="1px" opacity="0.25"></line><line x1="0" y1="108.92307692307686" x2="261.6875" y2="108.92307692307686" fill="rgb(0, 0, 0)" stroke="rgb(60, 60, 60)" stroke-width="1px" opacity="0.25"></line><line x1="0" y1="95.30769230769232" x2="261.6875" y2="95.30769230769232" fill="rgb(0, 0, 0)" stroke="rgb(60, 60, 60)" stroke-width="1px" opacity="0.25"></line><line x1="0" y1="81.69230769230768" x2="261.6875" y2="81.69230769230768" fill="rgb(0, 0, 0)" stroke="rgb(60, 60, 60)" stroke-width="1px" opacity="0.25"></line><line x1="0" y1="68.07692307692304" x2="261.6875" y2="68.07692307692304" fill="rgb(0, 0, 0)" stroke="rgb(60, 60, 60)" stroke-width="1px" opacity="0.25"></line><line x1="0" y1="54.46153846153848" x2="261.6875" y2="54.46153846153848" fill="rgb(0, 0, 0)" stroke="rgb(60, 60, 60)" stroke-width="1px" opacity="0.25"></line><line x1="0" y1="40.84615384615384" x2="261.6875" y2="40.84615384615384" fill="rgb(0, 0, 0)" stroke="rgb(60, 60, 60)" stroke-width="1px" opacity="0.25"></line><line x1="0" y1="27.230769230769198" x2="261.6875" y2="27.230769230769198" fill="rgb(0, 0, 0)" stroke="rgb(60, 60, 60)" stroke-width="1px" opacity="0.25"></line><line x1="0" y1="13.615384615384528" x2="261.6875" y2="13.615384615384528" fill="rgb(0, 0, 0)" stroke="rgb(60, 60, 60)" stroke-width="1px" opacity="0.25"></line><line x1="0" y1="0" x2="261.6875" y2="0" fill="rgb(0, 0, 0)" stroke="rgb(60, 60, 60)" stroke-width="1px" opacity="0.25"></line></g></g></g><g><g><line x1="0" y1="708" x2="261.6875" y2="708" fill="rgb(0, 0, 0)" stroke="rgb(153, 153, 153)" stroke-width="1.5px"></line></g></g><g><g><line x1="21.807291666666664" y1="0" x2="21.807291666666664" y2="177" fill="rgb(0, 0, 0)" stroke="rgb(153, 153, 153)" stroke-width="1.5px"></line></g></g><g><g><g><g><g><path stroke="rgb(0, 119, 187)" stroke-width="2px" d="M27.041041666666665,-5.325227037645362L27.259114583333336,1.4882866505246568L27.4771875,-37.71455578104809L27.695260416666667,3.3749273258905816L27.913333333333334,5.795662871346991L28.13140625,26.673040789480353L28.34947916666667,0.7192889440517831L28.567552083333332,1.3003643814187456L28.785625,-1.7246515779541483L29.003697916666667,22.819239438153204L29.221770833333334,7.495522505961901L29.43984375,-0.7252525469432101L29.657916666666665,27.027899406277186L29.875989583333332,-4.856879601111814L30.0940625,10.946089838559772L30.312135416666667,20.326860112639537L30.530208333333334,20.09582477234875L30.966354166666665,1.7554608887204495L31.184427083333336,20.36959277437282L31.4025,8.718855900833205L31.620572916666667,-13.221322623583035L31.838645833333334,16.277464901598563L32.05671875,34.088806041158136L32.274791666666665,53.15017263877847L32.49286458333333,17.904539527801347L32.7109375,20.00801359059716L32.929010416666664,22.717860319293436L33.147083333333335,25.803171176749885L33.36515625,26.529372819914215L33.58322916666666,56.92706787930082L33.80130208333334,6.074820007269153L34.019375000000004,32.95081116660279L34.23744791666667,36.844492108775995L34.45552083333333,25.131811896195757L34.67359375,59.03840373743036L34.891666666666666,32.65421859748085L35.10973958333333,48.45699783242662L35.3278125,41.83394247637344L35.545885416666664,7.980100745765043L35.76395833333333,32.27539418523125L35.982031250000006,49.91035214238438L36.20010416666667,43.61476592261053L36.41817708333333,60.76806211242305L36.636250000000004,39.66040967290215L36.85432291666667,53.38349043577905L37.07239583333333,21.361890828953307L37.290468749999995,43.882510774983785L37.508541666666666,45.43553236126897L37.72661458333333,59.70190122265079L37.9446875,64.2586358390175L38.16276041666667,55.729348720839354L38.380833333333335,43.370162645211565L38.59890625,60.315691872858054L38.81697916666667,39.55738211308531L39.03505208333333,33.411423610953165L39.253125,59.81012771163992L39.47119791666667,46.54125583401091L39.68927083333333,57.15842022746797L39.90734375,34.081578261577135L40.125416666666666,44.62487981984245L40.34348958333334,39.77979483913913L40.5615625,65.04297672670619L40.779635416666665,57.48836202518295L40.997708333333335,48.56509751826522L41.21578125,31.407807029210574L41.43385416666666,63.77507202441873L41.651927083333334,72.48835051403593L41.87,55.78368387084738L42.08807291666667,57.69948927083837L42.30614583333333,38.890080533348566L42.52421875,57.72415248361915L42.74229166666667,57.93629415447893L42.96036458333333,37.966953597389704L43.1784375,53.19391972571607L43.396510416666665,65.62557380187967L43.61458333333333,44.411787125353584L43.83265625,80.15062109037083L44.05072916666667,60.288936408093306L44.268802083333334,64.24386327197917L44.486875000000005,45.5870621261688L44.70494791666667,59.18536858891062L44.92302083333333,83.81415431430705L45.141093749999996,67.22836562475331L45.35916666666667,74.86584618515691L45.57723958333333,78.77810378888475L45.795312499999994,97.86825470167855L46.01338541666667,69.31598929373115L46.231458333333336,55.27361819778494L46.44953125,77.36019095950398L46.66760416666667,74.47579969408417L46.885677083333334,81.46899344657473L47.10375,92.87683888524768L47.32182291666667,62.86253315153027L47.53989583333333,64.92885389121676L47.757968749999996,30.716349449295222L47.97604166666666,90.02630406102305L48.19411458333334,75.00063793418497L48.4121875,64.73142138582007L48.630260416666665,61.43973840085357L48.848333333333336,66.96524908737491L49.06640625,85.42556875141764L49.284479166666664,84.34894660172552L49.502552083333335,77.25450053352573L49.720625,64.55396037663402L49.93869791666666,81.81237637824735L50.15677083333334,59.964066736400085L50.374843750000004,63.18277450822863L50.59291666666667,90.74996964117652L50.81098958333333,85.09055482768092L51.0290625,72.4218422615757L51.247135416666666,81.00413309668116L51.46520833333333,85.59123706760312L51.68328125,65.37399635120076L51.901354166666664,67.28193995585806L52.11942708333333,62.24284615482273L52.337500000000006,76.28280799090861L52.55557291666667,86.11899178016641L52.77364583333333,70.0225364485612L52.991718750000004,69.18100733997727L53.20979166666667,95.88974514374364L53.42786458333333,91.26244457409929L53.645937499999995,68.71868305309457L53.864010416666666,71.15698083490132L54.08208333333333,88.25923875661994L54.30015625,83.63022634444326L54.51822916666667,72.41404386781726L54.736302083333335,82.83447317320564L54.954375,80.87644232408356L55.17244791666667,78.31241921851264L55.39052083333333,109.60192083567378L55.60859375,95.4956409518535L55.82666666666667,76.29675633746841L56.04473958333333,82.34051150026227L56.2628125,83.60220284817308L56.480885416666666,99.87783103149668L56.69895833333334,73.31161996894154L56.91703125,76.90585527110555L57.135104166666665,77.23941095861102L57.353177083333335,74.91739166585296L57.57125,94.1450605954115L57.78932291666666,66.1246076008448L58.007395833333334,76.37974899949933L58.22546875,72.23163753576002L58.44354166666667,75.01965840676652L58.66161458333333,89.43945908030635L58.8796875,86.03980321265182L59.09776041666667,84.1021876707673L59.31583333333333,89.38208065468528L59.53390625,109.36143866066746L59.751979166666665,85.52542623247089L59.97005208333333,87.02969200737199L60.188125,89.71791879890054L60.40619791666667,98.7568911806895L60.624270833333334,71.34382527722758L60.842343750000005,92.19964665976852L61.06041666666667,98.8486966616832L61.27848958333333,87.94641538422839L61.496562499999996,103.57566450765496L61.71463541666667,91.97571229590817L61.93270833333333,59.12672213178412L62.150781249999994,90.02256336808202L62.36885416666667,68.30549498704761L62.586927083333336,82.3377218309503L62.805,103.64762529558858L63.02307291666667,69.79010627361441L63.241145833333334,83.22204700284276L63.45921875,74.72046637305843L63.67729166666667,88.95614887200865L63.89536458333333,79.52719340072225L64.1134375,74.43623711111451L64.33151041666666,66.76629494417169L64.54958333333333,76.60875548938142L64.76765625,67.7137046834597L64.98572916666666,71.20865311874789L65.20380208333333,74.37854167761708L65.421875,88.56508795573158L65.63994791666667,91.5985997261909L65.85802083333333,89.72622440526116L66.07609375,86.62518995713727L66.29416666666667,105.42451784415884L66.51223958333333,88.07752984189067L66.7303125,58.26376329075829L66.94838541666667,83.95446200038376L67.16645833333332,81.70370607823132L67.38453125,102.43329492440587L67.60260416666668,92.03410514673358L67.82067708333334,95.07376686999429L68.03875000000001,71.17536729173015L68.25682291666666,76.94123335010728L68.47489583333333,85.32349221522989L68.69296875,105.63488427091102L68.91104166666666,90.89661748478044L69.12911458333333,94.96268731011791L69.3471875,106.7000941370542L69.56526041666666,97.6997967161811L69.78333333333333,89.16080915698636L70.00140625,107.33531451970336L70.21947916666666,88.58429863303897L70.43755208333333,105.3641595445L70.87369791666666,86.83473216341089L71.09177083333333,83.33693065723546L71.30984375,81.25862701982258L71.52791666666666,114.4634902259478L71.74598958333334,71.10264568489329L71.96406250000001,111.10269952393493L72.18213541666667,81.80235892935437L72.40020833333334,101.63779535946935L72.61828125000001,106.04680430545254L72.83635416666667,66.9079974649044L73.05442708333334,121.67345396429297L73.27250000000001,99.25852444424076L73.49057291666666,95.97077235694113L73.70864583333334,89.57963996323252L73.92671874999999,113.12184949161912L74.14479166666666,80.1642524290543L74.36286458333333,91.49538196164826L74.58093749999999,89.07876751858451L74.79901041666666,95.45423972320096L75.01708333333333,101.81354452612305L75.23515624999999,77.34281892787949L75.45322916666666,99.92525540980006L75.67130208333334,98.0285338839659L75.889375,89.58401467192628L76.10744791666667,99.61103720275253L76.32552083333334,102.98064072372819L76.54359375,99.32484249197516L76.76166666666667,101.33429201864276L76.97973958333334,103.6139590591192L77.1978125,109.78369315197833L77.41588541666667,73.14595165275607L77.63395833333334,92.22747995131287L77.85203125,87.43438426233253L78.07010416666667,86.10745269346693L78.28817708333334,126.05063531948967L78.50625,124.31698264525485L78.72432291666667,112.61470029101919L78.94239583333334,90.48044954469567L79.16046874999999,83.69762221895728L79.37854166666666,94.45902519615794L79.59661458333332,87.07432671636342L80.03276041666668,97.6149654084673L80.25083333333333,92.90822266500727L80.46890625,101.56627838256264L80.68697916666667,105.61313753059274L80.90505208333333,100.05110753671478L81.123125,94.31047530529588L81.34119791666667,107.02895810798954L81.55927083333333,95.59835150379399L81.77734375,106.59142383703816L81.99541666666667,78.23392806832604L82.21348958333333,71.04051214112681L82.4315625,99.68483663636903L82.64963541666667,102.54608632681459L82.86770833333333,95.1078135159153L83.08578125,87.33420977340292L83.30385416666667,101.13730332427296L83.52192708333332,122.67278959372867L83.74,89.5215007187082L83.95807291666668,97.44308373790518L84.17614583333334,109.18372404518033L84.39421875000001,103.90421147071395L84.83036458333333,96.1946433192262L85.0484375,90.19805892843463L85.26651041666666,90.73659190879415L85.48458333333333,88.70717088591591L85.70265625,99.25497395602554L85.92072916666666,112.53291225891844L86.13880208333333,99.5314682257863L86.356875,97.53203614801166L86.57494791666666,97.3484885875995L86.79302083333333,103.8021349345262L87.01109375,122.3913500010967L87.22916666666666,93.26517353378806L87.44723958333333,88.41324118295537L87.6653125,89.73161353915927L87.88338541666666,99.0878474036088L88.10145833333334,116.40693871275735L88.31953125000001,103.95093843168935L88.53760416666667,123.55216944274991L88.75567708333334,106.78625687784871L88.97375000000001,102.23262893867032L89.19182291666667,103.35033530913863L89.40989583333334,92.18018237616005L89.62796875000001,104.82359771373177L90.06411458333334,93.84859482944009L90.28218749999999,97.9541004345967L90.50026041666666,91.35703972440497L90.71833333333333,107.13864283320993L90.93640624999999,98.82891537019837L91.15447916666666,109.69829123008708L91.37255208333333,114.44427954864041L91.59062499999999,96.08977711372647L91.80869791666666,118.08650984328524L92.02677083333334,99.32065798800723L92.24484375,120.04073659789101L92.46291666666667,70.4323008295435L92.68098958333334,99.81354183417098L92.8990625,92.73437554561171L93.11713541666667,96.56573273929263L93.33520833333334,123.96592812297433L93.55328125,105.03199869165051L93.77135416666667,99.422734524195L93.98942708333334,113.7144006141103L94.2075,98.27827268896192L94.42557291666667,106.9096997449031L94.64364583333334,101.99151274791127L94.86171875,94.99045720008701L95.07979166666667,122.3105763942003L95.29786458333334,86.25980667884531L95.51593749999999,128.62765574799133L95.73401041666666,118.02754637828238L95.95208333333332,87.87711746245621L96.17015625,109.46757289767262L96.38822916666668,105.17084814149598L96.60630208333333,91.07059140732652L96.824375,110.96074339690114L97.04244791666667,94.78338765524897L97.26052083333333,98.88267990602894L97.47859375,116.71836725049292L97.69666666666667,127.7409847178138L97.91473958333333,113.35104618622704L98.1328125,83.06030958432414L98.35088541666667,85.65229278458995L98.56895833333333,139.05632725816503L98.78703125,95.60031695262741L99.00510416666667,104.35252400946156L99.22317708333333,116.08758497811277L99.44125,91.1696880694765L99.65932291666667,100.8527570544527L99.87739583333332,93.66048235560837L100.09546875,100.0230840404446L100.31354166666668,101.93508534591929L100.53161458333334,110.60277810291599L100.74968750000001,119.79486528898659L100.96776041666666,100.87342596799132L101.18583333333333,110.83552528573914L101.40390625,118.41271094805916L101.62197916666666,100.85148902294725L101.84005208333333,114.31126304371996L102.058125,103.40314882134012L102.49427083333333,112.49132082554007L102.71234375,111.24712831240431L102.93041666666666,120.73143335890309L103.14848958333333,97.22618694890002L103.3665625,129.6649055194396L103.58463541666666,119.02123926751887L103.80270833333333,111.57960617313016L104.02078125,101.06610335524263L104.23885416666666,107.8623084133634L104.45692708333334,111.11626746104311L104.67500000000001,112.71684022878222L104.89307291666667,85.19859111194424L105.11114583333334,110.07755945336358L105.32921875000001,108.0344436902266L105.54729166666667,115.71040900682024L105.76536458333334,108.5008256779267L105.98343750000001,107.5132827414916L106.20151041666666,87.58496300360329L106.41958333333334,116.76021229017238L106.63765624999999,107.67857064822543L106.85572916666666,117.88654127487767L107.07380208333333,122.451581497605L107.29187499999999,120.06235653505874L107.50994791666666,103.62023581507111L107.94609374999999,123.06448452575846L108.16416666666666,114.53995252572571L108.38223958333334,101.08385579631876L108.6003125,95.74645758362914L108.81838541666667,108.94831399619576L109.03645833333334,81.68493921195082L109.25453125,110.17107677688963L109.47260416666667,113.94759160796035L109.69067708333334,118.07928206370426L109.90875,89.14844584980834L110.12682291666667,100.69653557298273L110.34489583333334,110.36939690434012L110.56296875,125.81801493981708L110.78104166666667,109.72764615943797L110.99911458333334,120.40960696282292L111.2171875,126.08081446931911L111.43526041666667,115.27388916107321L111.65333333333334,93.33161838467302L111.87140624999999,103.78064180050902L112.08947916666666,113.90466874150127L112.30755208333332,99.78241166071247L112.525625,86.48475546790999L112.96177083333333,101.26575491577384L113.17984375,120.9965153451149L113.39791666666667,92.91031491699124L113.61598958333333,119.85382875398946L113.8340625,103.81988737560233L114.05213541666667,86.7819186512094L114.27020833333333,119.58196279922355L114.48828125,113.24992067366836L114.70635416666667,107.10421577783728L114.92442708333333,118.63227060322575L115.1425,101.89552276294962L115.36057291666667,122.09494763670057L115.57864583333333,92.83841753063291L116.01479166666667,109.18714773024502L116.23286458333332,105.9905037066111L116.4509375,110.18768798961086L116.66901041666668,100.29279434165126L116.88708333333334,103.7921808872085L117.10515625000001,113.56039818777485L117.32322916666666,75.36716244083182L117.54130208333333,94.54341269284484L117.759375,120.41956101014061L117.97744791666666,104.84718309973292L118.19552083333333,123.10277907722269L118.41359375,118.42006553079071L118.63166666666666,129.45739216357467L118.84973958333333,99.7866595662557L119.0678125,100.45370753969135L119.28588541666666,97.66853973957205L119.50395833333333,108.12117704519856L119.72203125,106.77395697224597L119.94010416666666,99.16703597112341L120.15817708333333,116.08156182846196L120.37625,105.93965564324303L120.59432291666666,116.52987436720956L120.81239583333334,117.38440079872422L121.03046875000001,103.6331063348513L121.24854166666667,101.94053788139267L121.46661458333334,113.10752073560766L121.68468750000001,123.86689486239962L121.90276041666667,110.775801001833L122.12083333333334,99.23455864878798L122.33890625000001,125.63453078098019L122.55697916666666,131.69679920375344L122.77505208333334,102.87691574658336L122.99312499999999,126.4325664089276L123.21119791666666,111.22151407599446L123.42927083333333,133.44262498044048L123.64734374999999,99.3902095160805L123.86541666666666,86.82376369088887L124.08348958333333,93.68020024551792L124.30156249999999,110.79412405708659L124.51963541666666,112.59567981843762L124.73770833333334,127.00039091706273L124.95578125,122.13317878658953L125.17385416666667,96.84387545001046L125.39192708333334,121.3236674735179L125.61,107.61979738794837L125.82807291666667,91.17361896714336L126.04614583333334,108.84471582220148L126.26421875,99.4127804768773L126.48229166666667,112.40071997447653L126.70036458333334,104.4402083880626L126.9184375,108.34764747206978L127.13651041666667,125.36222101518739L127.35458333333334,116.48885354800863L127.57265625,108.4617703075592L127.79072916666667,119.46657193222869L128.00880208333334,119.50245722383258L128.226875,95.96950432543568L128.44494791666668,115.87854998444132L128.66302083333332,99.72205336105363L128.88109375,126.917905467634L129.09916666666666,95.88511682874879L129.31723958333333,98.92928006385378L129.75338541666667,126.09013450088406L129.97145833333332,102.67859561913285L130.18953125,106.60258251428601L130.40760416666666,132.71826198295904L130.62567708333333,131.8194178503293L130.84375,96.80710253635276L131.27989583333334,99.38577140581147L131.49796874999998,115.57580746251801L131.71604166666665,118.73878524968255L131.93411458333333,113.7159856534921L132.1521875,103.10072330729317L132.37026041666667,111.45464166826925L132.58833333333334,134.64421163499352L132.80640624999998,111.25632154081873L133.02447916666665,115.28435042099309L133.24255208333332,129.84591701684087L133.460625,103.18358916617355L133.67869791666666,132.76581316441295L133.89677083333333,113.0776585936546L134.11484374999998,129.6470896767882L134.33291666666665,93.9485157120686L134.55098958333332,123.33172216552953L134.7690625,94.41458069189234L134.9871354166667,104.77515891022405L135.20520833333336,112.665484952812L135.42328125,104.23890838657431L135.64135416666667,123.16573684146769L135.85942708333334,107.74184542034678L136.07750000000001,106.01066540754756L136.29557291666669,111.50517272376094L136.94979166666667,92.1978714156609L137.16786458333334,120.98706851039938L137.3859375,114.01118338795806L137.60401041666668,126.56241283508444L137.82208333333332,138.28035537841225L138.04015625,120.961327470839L138.25822916666667,129.14082809824208L138.47630208333334,127.47387388119328L138.694375,113.70235431480864L138.91244791666668,103.6834471856172L139.13052083333332,105.09267399918572L139.34859375,123.87818034279803L139.56666666666666,117.74699440770422L139.78473958333333,111.15906352435164L140.0028125,107.31585023609489L140.22088541666668,109.4789217796463L140.43895833333332,106.92390169776401L140.65703125,110.39526474705107L140.87510416666666,110.63156241808943L141.09317708333333,123.28093750373674L141.31125,120.23899332376624L141.52932291666667,108.98641834293417L141.74739583333331,113.6731261886083L141.96546874999999,132.41038393343868L142.18354166666666,116.61109178513286L142.40161458333333,129.56054652654205L142.6196875,122.63468524699024L142.83776041666664,131.83393681106656L143.0558333333333,110.66326320572539L143.27390625,124.29092459781809L143.49197916666668,122.02850278581562L143.71005208333335,115.54239483234971L143.92812500000002,102.7649485646532L144.14619791666667,111.26285190307173L144.36427083333334,127.51210503108223L144.58234375,113.19526851578398L144.80041666666668,111.117408689398L145.01848958333335,116.30372094821469L145.23656250000002,86.57408828746811L145.45463541666666,119.05059419686975L145.67270833333333,112.82906101701349L145.89078125,126.04169569737633L146.10885416666667,113.7701305987743L146.32692708333335,106.54856437215436L146.54500000000002,108.95129387023354L146.76307291666666,104.9607353210449L146.98114583333333,112.24570312293673L147.19921875,128.23190311514412L147.41729166666667,106.26420830705989L147.63536458333334,116.23429622329195L147.85343749999998,137.64190151542422L148.07151041666665,139.84009753167626L148.28958333333333,128.6552354332346L148.50765625,127.83272679723223L148.72572916666667,118.26878937219195L148.94380208333334,96.19610155545745L149.16187499999998,106.59332588429632L149.37994791666665,132.10998726980043L149.59802083333332,109.91728027107621L149.81609375,100.16782983679036L150.03416666666666,126.05684867386631L150.25223958333333,106.57538323849437L150.47031249999998,104.77458829604659L150.68838541666665,101.0354803943863L150.90645833333332,122.09723009341036L151.12453125,100.32297349148068L151.3426041666667,133.65755632061223L151.56067708333336,106.99649650145034L151.77875,130.3381668472519L151.99682291666667,125.60783871779073L152.21489583333334,146.63129386535056L152.43296875000001,111.54327707049936L152.65104166666669,117.28536753814952L152.86911458333333,110.34948880970475L153.0871875,101.29460263252255L153.30526041666667,112.60893074766945L153.52333333333334,101.04442001649964L153.74140625,120.19993795339875L153.95947916666668,105.23082603170319L154.395625,130.46852048601093L154.61369791666667,98.50525032843532L154.83177083333334,118.59499047696588L155.04984375,121.82732958747788L155.26791666666668,132.20933753825148L155.48598958333332,138.87709100487137L155.7040625,112.4980413925189L155.92213541666666,121.31219178839369L156.14020833333333,105.50617907310905L156.35828125,120.97565622685045L156.57635416666668,112.49626614841128L156.79442708333332,92.66203434822648L157.0125,132.68231328977987L157.23057291666666,111.27527861182503L157.44864583333333,115.85464759056381L157.66671875,115.12039394733995L157.88479166666667,123.45827170977223L158.10286458333331,108.659456419257L158.32093749999999,107.2140907077835L158.53901041666666,136.26456569421748L158.75708333333333,124.47960768582726L158.97515625,124.54751077294347L159.19322916666664,138.5711150026092L159.4113020833333,111.18797464267563L159.629375,115.52419858024669L159.84744791666668,114.77168528334451L160.06552083333335,95.53051181825305L160.28359375000002,117.24358590004533L160.50166666666667,136.87106516326847L160.71973958333334,125.17480595868365L160.9378125,109.63584067844424L161.15588541666668,127.20131050909939L161.37395833333335,117.14968816706765L161.59203125000002,107.2959421414595L161.81010416666666,120.83186145413379L162.02817708333333,114.05277482133643L162.24625,112.92644583663113L162.46432291666667,97.24603164196012L162.68239583333335,100.36057062561693L162.90046875000002,110.1226379733819L163.11854166666666,128.29727013924946L163.33661458333333,107.26341713334503L163.5546875,115.07658345882706L163.77276041666667,116.96518958302642L163.99083333333334,126.77125762403008L164.20890624999998,116.1220754350607L164.42697916666665,113.97878518299413L164.64505208333333,98.3717266109127L164.863125,105.21326379535287L165.08119791666667,106.16542865278626L165.29927083333334,118.75748871438776L165.51734374999998,111.17814739850849L165.73541666666665,117.15241443480434L165.95348958333332,146.10905508983592L166.1715625,109.11252407614998L166.38963541666666,116.3318712476354L166.60770833333333,132.9665425517238L166.82578124999998,112.71506498467461L167.04385416666665,112.40509468317029L167.26192708333332,107.09235968326144L167.48,142.33621755013098L167.6980729166667,119.53891312961392L167.91614583333336,116.77099055796859L168.13421875,137.13304047229195L168.35229166666667,123.46518248147686L168.57036458333334,106.50621211987273L168.78843750000001,130.6321599517877L169.00651041666669,109.19196624996567L169.22458333333333,126.64236222150231L169.44265625,125.75702262440551L169.66072916666667,134.77697453361287L169.87880208333334,133.02816888288808L170.096875,102.07754868555526L170.31494791666668,110.51655196054621L170.53302083333332,107.10928790385904L170.75109375,123.44172389862626L170.96916666666667,128.36967473820997L171.18723958333334,121.25792003996094L171.4053125,125.22578082520226L171.62338541666668,111.97421757762245L171.84145833333332,103.2315207570791L172.05953125,139.13057050280844L172.27760416666666,126.68091037926763L172.49567708333333,110.08453362664349L172.71375,117.03296586699207L172.93182291666668,108.70009682900628L173.14989583333332,115.4501455403291L173.36796875,129.47907550231767L173.58604166666666,123.62907555355473L173.80411458333333,129.1671397519799L174.0221875,128.27520639105484L174.24026041666667,127.37604525054874L174.45833333333331,135.9813508574779L174.67640624999999,128.47460434528494L174.89447916666666,108.450294622435L175.11255208333333,105.43320385997109L175.330625,123.02124465142302L175.54869791666664,105.3670760169625L175.7667708333333,116.90153440145343L175.98484375,120.57020315298665L176.20291666666668,132.90669146466712L176.42098958333335,117.35365103471736L176.63906250000002,123.15311992798857L176.85713541666667,133.70960901391044L177.07520833333334,111.36625987234021L177.29328125,105.0006783134662L177.51135416666668,111.6794636541834L177.72942708333335,124.8260972946882L177.94750000000002,127.63351904772793L178.16557291666666,128.4665523452254L178.38364583333333,108.84921733404579L178.60171875,90.5589406948823L178.81979166666667,119.77375256442105L179.03786458333335,123.62172097082319L179.25593750000002,126.69542934000489L179.47401041666666,125.99300328756752L179.69208333333333,117.73900580921996L179.91015625,122.21186014150194L180.12822916666667,119.24377879672323L180.34630208333334,124.98301619348615L180.56437499999998,127.51362666888876L180.78244791666665,119.00183838548566L181.00052083333333,102.5801329727356L181.21859375,122.84473466586606L181.43666666666667,121.83474757178469L181.65473958333334,131.29432600392744L181.87281249999998,113.93655973386304L182.09088541666665,116.8474528577465L182.30895833333332,127.13251979992938L182.52703125,123.89916626421302L182.74510416666666,116.46583877618494L182.96317708333333,112.54806523540843L183.18124999999998,123.50709092273159L183.39932291666665,121.45636697056199L183.61739583333332,143.34778968359413L183.83546875,136.92482969909904L184.0535416666667,99.08683297840446L184.27161458333336,139.26079733841692L184.4896875,127.36571079377941L184.70776041666667,117.80494344750274L184.92583333333334,133.77820951835466L185.14390625000001,150.0814807884968L185.36197916666669,111.1386482171141L185.58005208333333,122.92683970584316L185.798125,94.76164091493072L186.01619791666667,117.63090612338138L186.23427083333334,117.23211021492112L186.45234375,121.4604246713794L186.67041666666668,108.89797314542989L186.88848958333332,118.07268829987598L187.1065625,119.27053426148797L187.32463541666667,129.04001959355975L187.54270833333334,101.03915768575207L187.76078125,128.25783435943032L187.97885416666668,127.95097073511434L188.19692708333332,130.75439818891192L188.415,117.4755722639652L188.63307291666666,116.31950794045738L188.85114583333333,110.66732090654278L189.06921875,100.23668394753564L189.28729166666668,128.24128654828436L189.50536458333332,116.49018498108936L189.7234375,100.91032568479957L189.94151041666666,140.22798836918975L190.15958333333333,122.4827116710635L190.37765625,113.3235933041343L190.59572916666667,126.25434458083828L190.81380208333331,129.38181748585058L191.03187499999999,132.21815035721428L191.46802083333333,142.51361515774175L191.68609375,125.89454064117027L191.90416666666664,112.24475209930766L192.1222395833333,128.1789627997921L192.3403125,122.57083986069145L192.55838541666668,125.34453197568652L192.77645833333335,114.12270675886134L192.99453125000002,118.8828336287003L193.21260416666667,133.63815543857902L193.43067708333334,113.43682851756992L193.64875,110.38594471548609L193.86682291666668,126.10776013880965L194.08489583333335,133.04826718224928L194.30296875000002,111.46250346360296L194.52104166666666,128.1579768783771L194.73911458333333,133.143813356184L194.9571875,118.22142839546385L195.17526041666667,107.65054715195525L195.39333333333335,123.05985621076361L195.61140625000002,115.83233023606812L195.82947916666666,126.89818757772443L196.04755208333333,126.48106861401061L196.265625,137.2434860164156L196.48369791666667,133.1176285055967L196.70177083333334,114.1182686485923L196.91984374999998,106.46037278095115L197.13791666666665,118.68166043036257L197.35598958333333,127.1017700359225L197.5740625,116.34784844460393L197.79213541666667,124.99969080778266L198.01020833333334,108.45206986654262L198.22828124999998,115.13408868759868L198.66442708333332,135.2997205217297L198.8825,123.04286458859075L199.10057291666666,143.54179850392615L199.31864583333333,117.51431062645634L199.53671874999998,140.58284698598658L199.75479166666665,118.45493639719025L199.97286458333332,143.58174149634743L200.1909375,142.35796429044922L200.4090104166667,128.18707820142689L200.62708333333336,113.86681800106395L200.84515625,139.45315771779187L201.06322916666667,106.51356670260427L201.28130208333334,132.80011341663504L201.49937500000001,101.35369290067597L201.71744791666669,115.40132632736973L201.93552083333333,100.99128949642179L202.15359375,125.73159859272147L202.37166666666667,124.79553773540715L202.58973958333334,144.57987249585295L202.8078125,139.61457812843412L203.02588541666668,146.9888153483088L203.24395833333332,147.84169333886638L203.46203125,122.72294023976875L203.68010416666667,124.70183020715527L203.89817708333334,137.0950629287041L204.11625,128.95208160865764L204.33432291666668,117.1631293010253L204.55239583333332,116.552825737458L204.77046875,142.16002457245037L204.98854166666666,124.46940003220848L205.20661458333333,128.2280990206278L205.4246875,126.81811138815601L205.64276041666668,115.38167183903545L205.86083333333332,139.14223639265848L206.07890625,112.05213811363163L206.29697916666666,116.39818929536982L206.51505208333333,151.90668533742425L206.733125,122.11885003057807L206.95119791666667,126.00149909865395L207.16927083333331,142.00101342166843L207.38734374999999,123.4526923711483L207.60541666666666,114.50755432076176L207.82348958333333,141.003833445792L208.0415625,106.79690834249439L208.25963541666664,134.9203888968779L208.4777083333333,155.76689024785387L208.69578125,133.9509154093953L209.13192708333335,99.18650025473188L209.35000000000002,135.43222981404796L209.56807291666667,116.34550258631887L209.78614583333334,129.712329897743L210.00421875,126.08125828034599L210.44036458333335,143.81981441149344L210.65843750000002,148.0338635135155L210.87651041666666,117.54702583929665L211.09458333333333,145.00795993208882L211.31265625,127.96682112893231L211.53072916666667,129.04515512115677L211.74880208333335,125.36126999155832L211.96687500000002,120.76091509140451L212.18494791666666,127.5875529056558L212.40302083333333,131.49163170617356L212.62109375,128.673051275886L212.83916666666667,112.31766391087035L213.05723958333334,145.05208742847807L213.27531249999998,154.69045830288755L213.49338541666665,117.37374933407855L213.71145833333333,151.71869966674308L213.92953125,132.49597606005574L214.14760416666667,119.3914410655315L214.36567708333334,137.02386295967375L214.58374999999998,140.5144366862682L214.80182291666665,131.96219819784162L215.01989583333332,123.03335435229997L215.23796875,141.3127259205167L215.45604166666666,143.50166530677905L215.67411458333333,131.46189636737105L215.89218749999998,143.42532981015165L216.11026041666665,128.40676465974403L216.32833333333332,130.48411727352783L216.54640625,125.70211686022003L216.7644791666667,121.88920952494325L216.98255208333336,132.6475058249556L217.200625,145.54243521163093L217.41869791666667,129.40432504507208L217.63677083333334,131.628135297734L217.85484375000001,121.95216728918825L218.07291666666669,128.53749870795468L218.29098958333333,95.82539254484266L218.5090625,156.21710483385965L218.72713541666667,132.0547010961633L218.94520833333334,138.10149953457022L219.16328125,126.87010067987899L219.38135416666668,117.96382779513411L219.59942708333332,125.1137502416968L219.8175,133.9942820868813L220.03557291666667,106.00527627364944L220.25364583333334,135.61552376815905L220.47171875,137.18154267737498L220.68979166666668,123.8261276494998L220.90786458333332,119.82998976168722L221.34401041666666,140.86790046840903L221.56208333333333,132.62100396649194L221.78015625,134.79288832900613L221.99822916666668,113.31959900489218L222.21630208333332,126.71058231649488L222.434375,138.16185783422907L222.65244791666666,143.7877966159811L222.87052083333333,121.5197685458339L223.08859375,116.35456901158275L223.30666666666667,136.62804692525128L223.52473958333331,130.09330996355183L223.74281249999999,130.26836171287755L223.96088541666666,139.62966770334884L224.17895833333333,126.86388732550233L224.61510416666664,123.4377930009594L224.8331770833333,137.47781823862056L225.05125,129.23225316978414L225.26932291666668,151.11511667015458L225.48739583333335,113.48976883292195L225.70546875000002,111.79320608022118L225.92354166666667,127.23072884002555L226.14161458333334,138.66951424743118L226.3596875,139.22554606256574L226.57776041666668,114.82158232308348L226.79583333333335,136.0524240233577L227.01390625000002,120.33967502529802L227.23197916666666,115.24985996404517L227.45005208333333,156.04782262788368L227.668125,135.87578723465018L227.88619791666667,132.4500099179836L228.32234375000002,132.13236802587141L228.54041666666666,146.38307669816106L228.75848958333333,130.8679504102239L229.19463541666667,137.30599996963372L229.41270833333334,126.97781995626593L229.63078124999998,115.56693124197994L229.84885416666665,134.9820786296175L230.06692708333333,134.52419245300382L230.285,118.2147712300603L230.50307291666667,140.45420518975988L230.72114583333334,116.01651181223298L230.93921874999998,142.41407468456487L231.15729166666665,139.18027733782162L231.37536458333332,141.83122400309028L231.5934375,123.44736663882546L231.81151041666666,141.87687313728605L232.02958333333333,137.1889606616818L232.24765624999998,139.2626359840998L232.46572916666665,139.36230326042724L232.68380208333332,124.63570236414668L232.901875,116.34062066502293L233.1199479166667,143.3008725178929L233.33802083333336,97.1731832319727L233.55609375,126.63209116630827L233.77416666666667,129.58958444801658L233.99223958333334,138.38331953665383L234.21031250000001,128.0805635549701L234.42838541666669,142.43816728316818L234.64645833333333,124.03243637543456L234.86453125,127.87913675033127L235.08260416666667,136.51614314489638L235.30067708333334,147.95188527668896L235.51875,118.13184196960465L235.73682291666668,136.9837931641019L235.95489583333332,133.26833405001804L236.17296875,129.4627812974728L236.39104166666667,139.32616436252226L236.60911458333334,137.73231216176197L236.8271875,142.5087332364458L237.04526041666668,142.92039966468624L237.26333333333332,138.50371912809516L237.48140625,118.29903192359666L237.69947916666666,108.89378864146194L237.91755208333333,126.4733970234027L238.135625,107.42597877234218L238.35369791666668,125.30439877853942L238.57177083333332,121.99990867536799L239.00791666666666,137.52315036493997L239.22598958333333,130.69949242472646L239.4440625,159.4131782433161L239.66213541666667,141.1734960612196L239.88020833333331,128.69961653592492L240.09828124999999,134.9990068502151L240.31635416666666,130.9607069148467L240.53442708333333,129.71321751979679L240.7525,121.17682942518819L240.97057291666664,125.84064930218915L241.40671875,140.54334780459217L241.62479166666668,153.47847378998992L241.84286458333335,125.12890321818679L242.06093750000002,142.93872271993985L242.27901041666667,152.85568011609405L242.49708333333334,127.10272105955158L242.71515625,129.74035339401317L242.93322916666668,150.32392841233656L243.15130208333335,149.25485105010176L243.36937500000002,110.88447130184905L243.58744791666666,158.72647578154616L243.80552083333333,108.89461286194047L244.02359375,139.8291924607295L244.24166666666667,121.7424348781888L244.45973958333335,125.82771538083367L244.67781250000002,123.51526972594166L244.89588541666666,114.52112225786996" style="fill: none;" fill="none"></path></g></g></g></g></g></g><g transform="translate(68, 177)" clip-path="url(#clip_1)"><clipPath id="clip_1"><rect width="261" height="23"></rect></clipPath><g><g><line x1="0" y1="0" x2="0" y2="5" style="visibility: inherit;" fill="rgb(0, 0, 0)" stroke="rgb(204, 204, 204)" stroke-width="1px"></line><line x1="21.807291666666664" y1="0" x2="21.807291666666664" y2="5" style="visibility: inherit;" fill="rgb(0, 0, 0)" stroke="rgb(204, 204, 204)" stroke-width="1px"></line><line x1="43.61458333333333" y1="0" x2="43.61458333333333" y2="5" style="visibility: inherit;" fill="rgb(0, 0, 0)" stroke="rgb(204, 204, 204)" stroke-width="1px"></line><line x1="65.421875" y1="0" x2="65.421875" y2="5" style="visibility: inherit;" fill="rgb(0, 0, 0)" stroke="rgb(204, 204, 204)" stroke-width="1px"></line><line x1="87.22916666666666" y1="0" x2="87.22916666666666" y2="5" style="visibility: inherit;" fill="rgb(0, 0, 0)" stroke="rgb(204, 204, 204)" stroke-width="1px"></line><line x1="109.03645833333334" y1="0" x2="109.03645833333334" y2="5" style="visibility: inherit;" fill="rgb(0, 0, 0)" stroke="rgb(204, 204, 204)" stroke-width="1px"></line><line x1="130.84375" y1="0" x2="130.84375" y2="5" style="visibility: inherit;" fill="rgb(0, 0, 0)" stroke="rgb(204, 204, 204)" stroke-width="1px"></line><line x1="152.65104166666669" y1="0" x2="152.65104166666669" y2="5" style="visibility: inherit;" fill="rgb(0, 0, 0)" stroke="rgb(204, 204, 204)" stroke-width="1px"></line><line x1="174.45833333333331" y1="0" x2="174.45833333333331" y2="5" style="visibility: inherit;" fill="rgb(0, 0, 0)" stroke="rgb(204, 204, 204)" stroke-width="1px"></line><line x1="196.265625" y1="0" x2="196.265625" y2="5" style="visibility: inherit;" fill="rgb(0, 0, 0)" stroke="rgb(204, 204, 204)" stroke-width="1px"></line><line x1="218.07291666666669" y1="0" x2="218.07291666666669" y2="5" style="visibility: inherit;" fill="rgb(0, 0, 0)" stroke="rgb(204, 204, 204)" stroke-width="1px"></line><line x1="239.88020833333331" y1="0" x2="239.88020833333331" y2="5" style="visibility: inherit;" fill="rgb(0, 0, 0)" stroke="rgb(204, 204, 204)" stroke-width="1px"></line><line x1="261.6875" y1="0" x2="261.6875" y2="5" style="visibility: inherit;" fill="rgb(0, 0, 0)" stroke="rgb(204, 204, 204)" stroke-width="1px"></line></g><g transform="translate(0, 8)"><text x="0" y="0" dx="0em" dy="0.95em" style="text-anchor: middle; visibility: hidden; font-family: &quot;Helvetica Neue&quot;, sans-serif; font-size: 12px; font-weight: 200;" fill="rgb(50, 49, 63)" stroke="none" stroke-width="1px">-100</text><text x="21.807291666666664" y="0" dx="0em" dy="0.95em" style="text-anchor: middle; visibility: inherit; font-family: &quot;Helvetica Neue&quot;, sans-serif; font-size: 12px; font-weight: 200;" fill="rgb(50, 49, 63)" stroke="none" stroke-width="1px">0</text><text x="43.61458333333333" y="0" dx="0em" dy="0.95em" style="text-anchor: middle; visibility: hidden; font-family: &quot;Helvetica Neue&quot;, sans-serif; font-size: 12px; font-weight: 200;" fill="rgb(50, 49, 63)" stroke="none" stroke-width="1px">100</text><text x="65.421875" y="0" dx="0em" dy="0.95em" style="text-anchor: middle; visibility: inherit; font-family: &quot;Helvetica Neue&quot;, sans-serif; font-size: 12px; font-weight: 200;" fill="rgb(50, 49, 63)" stroke="none" stroke-width="1px">200</text><text x="87.22916666666666" y="0" dx="0em" dy="0.95em" style="text-anchor: middle; visibility: hidden; font-family: &quot;Helvetica Neue&quot;, sans-serif; font-size: 12px; font-weight: 200;" fill="rgb(50, 49, 63)" stroke="none" stroke-width="1px">300</text><text x="109.03645833333334" y="0" dx="0em" dy="0.95em" style="text-anchor: middle; visibility: inherit; font-family: &quot;Helvetica Neue&quot;, sans-serif; font-size: 12px; font-weight: 200;" fill="rgb(50, 49, 63)" stroke="none" stroke-width="1px">400</text><text x="130.84375" y="0" dx="0em" dy="0.95em" style="text-anchor: middle; visibility: hidden; font-family: &quot;Helvetica Neue&quot;, sans-serif; font-size: 12px; font-weight: 200;" fill="rgb(50, 49, 63)" stroke="none" stroke-width="1px">500</text><text x="152.65104166666669" y="0" dx="0em" dy="0.95em" style="text-anchor: middle; visibility: inherit; font-family: &quot;Helvetica Neue&quot;, sans-serif; font-size: 12px; font-weight: 200;" fill="rgb(50, 49, 63)" stroke="none" stroke-width="1px">600</text><text x="174.45833333333331" y="0" dx="0em" dy="0.95em" style="text-anchor: middle; visibility: hidden; font-family: &quot;Helvetica Neue&quot;, sans-serif; font-size: 12px; font-weight: 200;" fill="rgb(50, 49, 63)" stroke="none" stroke-width="1px">700</text><text x="196.265625" y="0" dx="0em" dy="0.95em" style="text-anchor: middle; visibility: inherit; font-family: &quot;Helvetica Neue&quot;, sans-serif; font-size: 12px; font-weight: 200;" fill="rgb(50, 49, 63)" stroke="none" stroke-width="1px">800</text><text x="218.07291666666669" y="0" dx="0em" dy="0.95em" style="text-anchor: middle; visibility: hidden; font-family: &quot;Helvetica Neue&quot;, sans-serif; font-size: 12px; font-weight: 200;" fill="rgb(50, 49, 63)" stroke="none" stroke-width="1px">900</text><text x="239.88020833333331" y="0" dx="0em" dy="0.95em" style="text-anchor: middle; visibility: inherit; font-family: &quot;Helvetica Neue&quot;, sans-serif; font-size: 12px; font-weight: 200;" fill="rgb(50, 49, 63)" stroke="none" stroke-width="1px">1k</text><text x="261.6875" y="0" dx="0em" dy="0.95em" style="text-anchor: middle; visibility: hidden; font-family: &quot;Helvetica Neue&quot;, sans-serif; font-size: 12px; font-weight: 200;" fill="rgb(50, 49, 63)" stroke="none" stroke-width="1px">1.1k</text></g><line x1="0" y1="0" x2="261.6875" y2="0" fill="rgb(0, 0, 0)" stroke="rgb(204, 204, 204)" stroke-width="1px"></line></g></g></g></g></svg>